<svg width="24" height="24" viewBox="0 0 24 24" fill="none" xmlns="http://www.w3.org/2000/svg">
<path fill-rule="evenodd" clip-rule="evenodd" d="M8.58967 7.31497C8.10354 6.82884 8.10354 6.04066 8.58967 5.55453C9.07581 5.0684 9.86398 5.0684 10.3501 5.55453L17.6949 12.8994C17.7335 12.8345 17.7816 12.6994 17.7816 12.4827C17.7816 12.4098 17.6878 12.1807 17.5561 11.859C17.0742 10.6814 16.0845 8.26304 17.3289 7.72973C18.4964 7.22937 19.4181 9.8017 20.094 11.688C20.3354 12.3614 20.5453 12.9473 20.7239 13.2748C20.7452 13.3138 20.7672 13.3539 20.7899 13.3951C21.4905 14.6695 22.7749 17.006 19.7055 20.4043C16.5368 23.9124 11.897 22.2149 10.3127 20.6306C9.58153 19.8994 8.88802 19.1833 8.26693 18.5344C8.2619 18.5296 8.25691 18.5247 8.25194 18.5197L3.61079 13.8785C3.12466 13.3924 3.12466 12.6042 3.61079 12.1181C4.09692 11.632 4.88509 11.632 5.37123 12.1181L8.84628 15.5931L9.01758 15.4382L3.83671 10.2573C3.35058 9.77115 3.35058 8.98298 3.83671 8.49684C4.32284 8.01071 5.11102 8.01071 5.59715 8.49684L10.866 13.7657L11.0377 13.6104L5.42129 7.99396C4.93516 7.50783 4.93516 6.71965 5.42129 6.23352C5.90742 5.74739 6.6956 5.74739 7.18173 6.23352L12.8862 11.938L13.0576 11.7829L8.58967 7.31497Z" fill="#73CFA5"/>
<path d="M12.3975 2.97119C12.8189 2.95516 13.8212 3.11962 14.4588 3.90569C15.0965 4.69176 15.2717 5.6575 15.2795 6.04211" stroke="#FACC15" stroke-width="1.19251" stroke-linecap="round"/>
<path d="M15.1709 1.29346C15.4316 1.28404 16.0519 1.38818 16.4474 1.88013C16.843 2.37208 16.9528 2.97561 16.9582 3.21588" stroke="#FACC15" stroke-width="1.19251" stroke-linecap="round"/>
<path d="M7.33887 20.6328C6.92109 20.6905 5.90744 20.6262 5.19506 19.9071C4.48267 19.1881 4.2127 18.2444 4.16676 17.8625" stroke="#FACC15" stroke-width="1.19251" stroke-linecap="round"/>
<path d="M4.74512 22.5767C4.48664 22.6119 3.85909 22.5697 3.41673 22.1193C2.97436 21.669 2.80539 21.0793 2.7762 20.8407" stroke="#FACC15" stroke-width="1.19251" stroke-linecap="round"/>
</svg>
