<svg width="82" height="82" viewBox="0 0 82 82" fill="none" xmlns="http://www.w3.org/2000/svg">
<path d="M0 40C0 21.1438 0 11.7157 5.85786 5.85786C11.7157 0 21.1438 0 40 0H42C60.8562 0 70.2843 0 76.1421 5.85786C82 11.7157 82 21.1438 82 40V42C82 60.8562 82 70.2843 76.1421 76.1421C70.2843 82 60.8562 82 42 82H40C21.1438 82 11.7157 82 5.85786 76.1421C0 70.2843 0 60.8562 0 42V40Z" fill="#F8D57E" fill-opacity="0.2"/>
<g clip-path="url(#clip0_202_2337)">
<mask id="path-2-inside-1_202_2337" fill="white">
<path d="M62 31.585C62 29.0562 59.942 27 57.4115 27C56.1848 27 55.0332 27.4778 54.1687 28.344L53.25 29.2628V22.625C53.25 21.1777 52.0723 20 50.625 20H22.625C21.1777 20 20 21.1777 20 22.625V59.375C20 60.8223 21.1777 62 22.625 62H50.625C52.0723 62 53.25 60.8223 53.25 59.375V42.75C53.25 42.6012 53.2045 42.4683 53.138 42.3475L58.2375 37.248L58.2428 37.2445L58.2462 37.2392L60.656 34.8295C61.524 33.9632 62 32.81 62 31.585ZM44.0905 48.9205C43.8052 48.1995 43.331 47.3402 42.4927 46.5055C41.6562 45.669 40.797 45.1948 40.0777 44.9095L45.9945 38.9927L52.375 32.6122L56.386 36.625L44.0905 48.9205ZM39.0243 46.3847C39.5895 46.5492 40.426 46.9132 41.2555 47.7427C42.085 48.5722 42.4508 49.4105 42.6153 49.974L37.8273 51.1727L39.0243 46.3847ZM47.125 25.25C47.6063 25.25 48 25.642 48 26.125C48 26.608 47.6063 27 47.125 27C46.6437 27 46.25 26.608 46.25 26.125C46.25 25.642 46.6437 25.25 47.125 25.25ZM40.125 25.25C40.6063 25.25 41 25.642 41 26.125C41 26.608 40.6063 27 40.125 27C39.6437 27 39.25 26.608 39.25 26.125C39.25 25.642 39.6437 25.25 40.125 25.25ZM33.125 25.25C33.6063 25.25 34 25.642 34 26.125C34 26.608 33.6063 27 33.125 27C32.6437 27 32.25 26.608 32.25 26.125C32.25 25.642 32.6437 25.25 33.125 25.25ZM26.125 25.25C26.6063 25.25 27 25.642 27 26.125C27 26.608 26.6063 27 26.125 27C25.6437 27 25.25 26.608 25.25 26.125C25.25 25.642 25.6437 25.25 26.125 25.25ZM51.5 59.375C51.5 59.858 51.1063 60.25 50.625 60.25H22.625C22.1437 60.25 21.75 59.858 21.75 59.375V22.625C21.75 22.142 22.1437 21.75 22.625 21.75H25.25V23.661C24.2333 24.0233 23.5 24.9857 23.5 26.125C23.5 27.5723 24.6777 28.75 26.125 28.75C27.5723 28.75 28.75 27.5723 28.75 26.125C28.75 24.9857 28.0167 24.0233 27 23.661V21.75H32.25V23.661C31.2333 24.0233 30.5 24.9857 30.5 26.125C30.5 27.5723 31.6777 28.75 33.125 28.75C34.5723 28.75 35.75 27.5723 35.75 26.125C35.75 24.9857 35.0167 24.0233 34 23.661V21.75H39.25V23.661C38.2333 24.0233 37.5 24.9857 37.5 26.125C37.5 27.5723 38.6777 28.75 40.125 28.75C41.5723 28.75 42.75 27.5723 42.75 26.125C42.75 24.9857 42.0167 24.0233 41 23.661V21.75H46.25V23.661C45.2333 24.0233 44.5 24.9857 44.5 26.125C44.5 27.5723 45.6777 28.75 47.125 28.75C48.5723 28.75 49.75 27.5723 49.75 26.125C49.75 24.9857 49.0167 24.0233 48 23.661V21.75H50.625C51.1063 21.75 51.5 22.142 51.5 22.625V31.0128L45.0128 37.5H26.125C25.642 37.5 25.25 37.892 25.25 38.375C25.25 38.858 25.642 39.25 26.125 39.25H43.2628L38.0128 44.5H26.125C25.642 44.5 25.25 44.892 25.25 45.375C25.25 45.858 25.642 46.25 26.125 46.25H37.2533L35.9408 51.5H26.125C25.642 51.5 25.25 51.892 25.25 52.375C25.25 52.858 25.642 53.25 26.125 53.25H36.625C36.695 53.25 36.7668 53.2412 36.8368 53.222L43.8368 51.472C43.856 51.4667 43.87 51.4492 43.8893 51.4422C44.0048 51.4037 44.108 51.3478 44.1972 51.269C44.2112 51.2568 44.2305 51.255 44.2427 51.2428L51.5 43.9855V59.375ZM59.4187 33.5923L57.6233 35.3878L53.6123 31.375L55.4077 29.5795C55.9415 29.0422 56.6537 28.7483 57.415 28.7483C58.9777 28.7483 60.25 30.0205 60.25 31.5867C60.25 32.3445 59.9542 33.055 59.4187 33.5923Z"/>
</mask>
<path d="M62 31.585C62 29.0562 59.942 27 57.4115 27C56.1848 27 55.0332 27.4778 54.1687 28.344L53.25 29.2628V22.625C53.25 21.1777 52.0723 20 50.625 20H22.625C21.1777 20 20 21.1777 20 22.625V59.375C20 60.8223 21.1777 62 22.625 62H50.625C52.0723 62 53.25 60.8223 53.25 59.375V42.75C53.25 42.6012 53.2045 42.4683 53.138 42.3475L58.2375 37.248L58.2428 37.2445L58.2462 37.2392L60.656 34.8295C61.524 33.9632 62 32.81 62 31.585ZM44.0905 48.9205C43.8052 48.1995 43.331 47.3402 42.4927 46.5055C41.6562 45.669 40.797 45.1948 40.0777 44.9095L45.9945 38.9927L52.375 32.6122L56.386 36.625L44.0905 48.9205ZM39.0243 46.3847C39.5895 46.5492 40.426 46.9132 41.2555 47.7427C42.085 48.5722 42.4508 49.4105 42.6153 49.974L37.8273 51.1727L39.0243 46.3847ZM47.125 25.25C47.6063 25.25 48 25.642 48 26.125C48 26.608 47.6063 27 47.125 27C46.6437 27 46.25 26.608 46.25 26.125C46.25 25.642 46.6437 25.25 47.125 25.25ZM40.125 25.25C40.6063 25.25 41 25.642 41 26.125C41 26.608 40.6063 27 40.125 27C39.6437 27 39.25 26.608 39.25 26.125C39.25 25.642 39.6437 25.25 40.125 25.25ZM33.125 25.25C33.6063 25.25 34 25.642 34 26.125C34 26.608 33.6063 27 33.125 27C32.6437 27 32.25 26.608 32.25 26.125C32.25 25.642 32.6437 25.25 33.125 25.25ZM26.125 25.25C26.6063 25.25 27 25.642 27 26.125C27 26.608 26.6063 27 26.125 27C25.6437 27 25.25 26.608 25.25 26.125C25.25 25.642 25.6437 25.25 26.125 25.25ZM51.5 59.375C51.5 59.858 51.1063 60.25 50.625 60.25H22.625C22.1437 60.25 21.75 59.858 21.75 59.375V22.625C21.75 22.142 22.1437 21.75 22.625 21.75H25.25V23.661C24.2333 24.0233 23.5 24.9857 23.5 26.125C23.5 27.5723 24.6777 28.75 26.125 28.75C27.5723 28.75 28.75 27.5723 28.75 26.125C28.75 24.9857 28.0167 24.0233 27 23.661V21.75H32.25V23.661C31.2333 24.0233 30.5 24.9857 30.5 26.125C30.5 27.5723 31.6777 28.75 33.125 28.75C34.5723 28.75 35.75 27.5723 35.75 26.125C35.75 24.9857 35.0167 24.0233 34 23.661V21.75H39.25V23.661C38.2333 24.0233 37.5 24.9857 37.5 26.125C37.5 27.5723 38.6777 28.75 40.125 28.75C41.5723 28.75 42.75 27.5723 42.75 26.125C42.75 24.9857 42.0167 24.0233 41 23.661V21.75H46.25V23.661C45.2333 24.0233 44.5 24.9857 44.5 26.125C44.5 27.5723 45.6777 28.75 47.125 28.75C48.5723 28.75 49.75 27.5723 49.75 26.125C49.75 24.9857 49.0167 24.0233 48 23.661V21.75H50.625C51.1063 21.75 51.5 22.142 51.5 22.625V31.0128L45.0128 37.5H26.125C25.642 37.5 25.25 37.892 25.25 38.375C25.25 38.858 25.642 39.25 26.125 39.25H43.2628L38.0128 44.5H26.125C25.642 44.5 25.25 44.892 25.25 45.375C25.25 45.858 25.642 46.25 26.125 46.25H37.2533L35.9408 51.5H26.125C25.642 51.5 25.25 51.892 25.25 52.375C25.25 52.858 25.642 53.25 26.125 53.25H36.625C36.695 53.25 36.7668 53.2412 36.8368 53.222L43.8368 51.472C43.856 51.4667 43.87 51.4492 43.8893 51.4422C44.0048 51.4037 44.108 51.3478 44.1972 51.269C44.2112 51.2568 44.2305 51.255 44.2427 51.2428L51.5 43.9855V59.375ZM59.4187 33.5923L57.6233 35.3878L53.6123 31.375L55.4077 29.5795C55.9415 29.0422 56.6537 28.7483 57.415 28.7483C58.9777 28.7483 60.25 30.0205 60.25 31.5867C60.25 32.3445 59.9542 33.055 59.4187 33.5923Z" fill="#F8D57E" stroke="#F8D57E" stroke-width="4.76" mask="url(#path-2-inside-1_202_2337)"/>
</g>
<defs>
<clipPath id="clip0_202_2337">
<rect width="42" height="42" fill="white" transform="translate(20 20)"/>
</clipPath>
</defs>
</svg>
