<svg width="667" height="498" viewBox="0 0 667 498" fill="none" xmlns="http://www.w3.org/2000/svg">
<g clip-path="url(#clip0_513_7733)">
<path d="M0.333252 436.924H667V436.591H0.333252V436.924Z" fill="#E7E8E5"/>
<path d="M556.039 458.385H600.202V458.052H556.039V458.385Z" fill="#E7E8E5"/>
<path d="M430.369 462.003H441.96V461.669H430.369V462.003Z" fill="#E7E8E5"/>
<path d="M529.115 446.004H554.704V445.671H529.115V446.004Z" fill="#E7E8E5"/>
<path d="M70.2786 448.244H127.87V447.91H70.2786V448.244Z" fill="#E7E8E5"/>
<path d="M139.741 448.244H148.185V447.91H139.741V448.244Z" fill="#E7E8E5"/>
<path d="M175.628 453.874H300.529V453.54H175.628V453.874Z" fill="#E7E8E5"/>
<path d="M58.8868 0.329384C54.8739 0.329384 51.6092 3.59339 51.6092 7.60673V369.515C51.6092 373.528 54.8739 376.792 58.8868 376.792H316.352C320.364 376.792 323.628 373.528 323.628 369.515V7.60673C323.628 3.59339 320.364 0.329384 316.352 0.329384H58.8868ZM316.352 377.125H58.8868C54.69 377.125 51.2759 373.712 51.2759 369.515V7.60673C51.2759 3.40939 54.69 -0.00394888 58.8868 -0.00394888H316.352C320.547 -0.00394888 323.961 3.40939 323.961 7.60673V369.515C323.961 373.712 320.547 377.125 316.352 377.125Z" fill="#E7E8E5"/>
<path d="M347.283 0.329384C343.271 0.329384 340.007 3.59339 340.007 7.60673V369.515C340.007 373.528 343.271 376.792 347.283 376.792H604.747C608.76 376.792 612.025 373.528 612.025 369.515V7.60673C612.025 3.59339 608.76 0.329384 604.747 0.329384H347.283ZM604.747 377.125H347.283C343.087 377.125 339.673 373.712 339.673 369.515V7.60673C339.673 3.40939 343.087 -0.00394888 347.283 -0.00394888H604.747C608.944 -0.00394888 612.359 3.40939 612.359 7.60673V369.515C612.359 373.712 608.944 377.125 604.747 377.125Z" fill="#E7E8E5"/>
<path d="M114.191 243.757H121.702V85.7613H114.191V243.757Z" fill="#DADBD8"/>
<path d="M261.383 243.757H118.527V85.7613H261.383V243.757Z" fill="#DADBD8"/>
<path d="M265.944 243.757H117.777V85.7613H265.944V243.757Z" fill="#EDEDEB"/>
<path d="M259.677 236.497H123.809V90.8013H259.677V236.497Z" fill="white"/>
<path d="M259.677 236.497H255.748V90.8013H259.677V236.497Z" fill="#DADBD8"/>
<path d="M256.168 195.572V199.501H123.46V195.572H256.168Z" fill="#DADBD8"/>
<path d="M259.677 195.572H121.701V188.977H259.677V195.572Z" fill="#EDEDEB"/>
<path d="M365.271 434.119H561.824V185.226H365.271V434.119Z" fill="#EDEDEB"/>
<path d="M372.217 247.519H554.876V194.296H372.217V247.519Z" fill="#DADBD8"/>
<path d="M544.5 247.519H554.876V202.912H544.5V247.519Z" fill="#E7E8E5"/>
<path d="M494.328 247.519H504.704V202.912H494.328V247.519Z" fill="#E7E8E5"/>
<path d="M429.793 245.757L440.019 247.519L447.595 203.56L437.368 201.799L429.793 245.757Z" fill="#E7E8E5"/>
<path d="M531.643 247.519H542.019V208.791H531.643V247.519Z" fill="#E7E8E5"/>
<path d="M507.793 247.519H518.169V208.791H507.793V247.519Z" fill="#E7E8E5"/>
<path d="M447.594 247.519H457.97V208.791H447.594V247.519Z" fill="#E7E8E5"/>
<path d="M472.299 245.268L482.427 247.519L490.828 209.713L480.699 207.463L472.299 245.268Z" fill="#E7E8E5"/>
<path d="M522.67 247.519H527.858V200.697H522.67V247.519Z" fill="#E7E8E5"/>
<path d="M460.953 247.519H466.141V200.697H460.953V247.519Z" fill="#E7E8E5"/>
<path d="M372.217 309.169H554.876V255.947H372.217V309.169Z" fill="#DADBD8"/>
<path d="M382.595 309.169H372.217V264.563H382.595V309.169Z" fill="#E7E8E5"/>
<path d="M432.767 309.169H422.391V264.563H432.767V309.169Z" fill="#E7E8E5"/>
<path d="M497.301 307.407L487.076 309.169L479.5 265.211L489.725 263.448L497.301 307.407Z" fill="#E7E8E5"/>
<path d="M395.451 309.169H385.075V270.441H395.451V309.169Z" fill="#E7E8E5"/>
<path d="M419.301 309.169H408.924V270.441H419.301V309.169Z" fill="#E7E8E5"/>
<path d="M479.5 309.169H469.124V270.441H479.5V309.169Z" fill="#E7E8E5"/>
<path d="M454.796 306.919L444.667 309.169L436.267 271.363L446.396 269.112L454.796 306.919Z" fill="#E7E8E5"/>
<path d="M404.424 309.169H399.236V262.348H404.424V309.169Z" fill="#E7E8E5"/>
<path d="M466.141 309.169H460.953V262.348H466.141V309.169Z" fill="#E7E8E5"/>
<path d="M544.5 309.169H554.876V264.563H544.5V309.169Z" fill="#E7E8E5"/>
<path d="M531.643 309.169H542.019V270.441H531.643V309.169Z" fill="#E7E8E5"/>
<path d="M507.793 309.169H518.169V270.441H507.793V309.169Z" fill="#E7E8E5"/>
<path d="M522.67 309.169H527.858V262.348H522.67V309.169Z" fill="#E7E8E5"/>
<path d="M372.217 370.819H554.876V317.596H372.217V370.819Z" fill="#DADBD8"/>
<path d="M439.66 370.819H450.036V326.214H439.66V370.819Z" fill="#E7E8E5"/>
<path d="M375.125 369.057L385.352 370.819L392.927 326.861L382.701 325.099L375.125 369.057Z" fill="#E7E8E5"/>
<path d="M476.976 370.819H487.352V332.091H476.976V370.819Z" fill="#E7E8E5"/>
<path d="M453.126 370.819H463.503V332.091H453.126V370.819Z" fill="#E7E8E5"/>
<path d="M392.927 370.819H403.304V332.091H392.927V370.819Z" fill="#E7E8E5"/>
<path d="M417.631 368.568L427.76 370.819L436.16 333.013L426.032 330.763L417.631 368.568Z" fill="#E7E8E5"/>
<path d="M468.004 370.819H473.192V323.999H468.004V370.819Z" fill="#E7E8E5"/>
<path d="M406.287 370.819H411.475V323.999H406.287V370.819Z" fill="#E7E8E5"/>
<path d="M494.501 369.057L504.727 370.819L512.303 326.861L502.076 325.099L494.501 369.057Z" fill="#E7E8E5"/>
<path d="M512.302 370.819H522.679V332.091H512.302V370.819Z" fill="#E7E8E5"/>
<path d="M537.007 368.568L547.135 370.819L555.536 333.013L545.407 330.763L537.007 368.568Z" fill="#E7E8E5"/>
<path d="M525.661 370.819H530.849V323.999H525.661V370.819Z" fill="#E7E8E5"/>
<path d="M235.54 281.097H121.451C109.076 281.097 99.0442 291.129 99.0442 303.504V392.593H257.947V303.504C257.947 291.129 247.915 281.097 235.54 281.097Z" fill="#E2E2E0"/>
<path d="M291.677 347.128H271.261C263.907 347.128 257.947 353.089 257.947 360.443V434.119H304.992V360.443C304.992 353.089 299.031 347.128 291.677 347.128Z" fill="#DADBD8"/>
<path d="M291.677 347.128H291.247C283.892 347.128 277.931 353.089 277.931 360.443V434.119H304.992V360.443C304.992 353.089 299.031 347.128 291.677 347.128Z" fill="#E7E8E5"/>
<path d="M115.662 434.119H272.234V400.275H115.662V434.119Z" fill="#E2E2E0"/>
<path d="M272.456 369.324H121.458C113.981 369.324 107.921 375.384 107.921 382.86V391.293C107.921 398.769 113.981 404.831 121.458 404.831H272.456C279.932 404.831 285.992 398.769 285.992 391.293V382.86C285.992 375.384 279.932 369.324 272.456 369.324Z" fill="#F3F2F1"/>
<path d="M140.433 369.324H121.705C114.229 369.324 108.168 375.384 108.168 382.86V391.293C108.168 398.769 114.229 404.831 121.705 404.831H140.433C147.909 404.831 153.971 398.769 153.971 391.293V382.86C153.971 375.384 147.909 369.324 140.433 369.324Z" fill="#DADBD8"/>
<path d="M119.685 347.128H99.2688C91.9156 347.128 85.9541 353.089 85.9541 360.443V434.119H133.001V360.443C133.001 353.089 127.039 347.128 119.685 347.128Z" fill="#DADBD8"/>
<path d="M119.685 347.128H119.254C111.9 347.128 105.939 353.089 105.939 360.443V434.119H133V360.443C133 353.089 127.039 347.128 119.685 347.128Z" fill="#EDEDEB"/>
<path d="M592.185 478.453C592.185 488.591 476.442 496.808 333.666 496.808C190.891 496.808 75.1477 488.591 75.1477 478.453C75.1477 468.317 190.891 460.1 333.666 460.1C476.442 460.1 592.185 468.317 592.185 478.453Z" fill="#F3F2F1"/>
<path d="M518.547 201.153H482.609C475.785 201.153 470.252 206.687 470.252 213.511V228.424C470.252 235.248 475.785 240.781 482.609 240.781H497.996L502.139 253.827L506.308 240.781H518.547C525.371 240.781 530.903 235.248 530.903 228.424V213.511C530.903 206.687 525.371 201.153 518.547 201.153Z" fill="#406FBF"/>
<path d="M517.077 217.619C515.699 217.619 514.581 218.736 514.581 220.115C514.581 221.492 515.699 222.611 517.077 222.611C518.456 222.611 519.573 221.492 519.573 220.115C519.573 218.736 518.456 217.619 517.077 217.619ZM506.077 217.619C504.699 217.619 503.581 218.736 503.581 220.115C503.581 221.492 504.699 222.611 506.077 222.611C507.456 222.611 508.573 221.492 508.573 220.115C508.573 218.736 507.456 217.619 506.077 217.619ZM495.079 217.619C493.7 217.619 492.583 218.736 492.583 220.115C492.583 221.492 493.7 222.611 495.079 222.611C496.456 222.611 497.575 221.492 497.575 220.115C497.575 218.736 496.456 217.619 495.079 217.619ZM486.575 220.115C486.575 221.492 485.457 222.611 484.079 222.611C482.7 222.611 481.583 221.492 481.583 220.115C481.583 218.736 482.7 217.619 484.079 217.619C485.457 217.619 486.575 218.736 486.575 220.115Z" fill="white"/>
<path d="M149 245.151H113.063C106.238 245.151 100.706 250.683 100.706 257.508V272.42C100.706 279.245 106.238 284.777 113.063 284.777H128.45L132.592 297.824L136.761 284.777H149C155.824 284.777 161.357 279.245 161.357 272.42V257.508C161.357 250.683 155.824 245.151 149 245.151Z" fill="#406FBF"/>
<path d="M147.531 261.615C146.152 261.615 145.035 262.732 145.035 264.111C145.035 265.489 146.152 266.607 147.531 266.607C148.909 266.607 150.027 265.489 150.027 264.111C150.027 262.732 148.909 261.615 147.531 261.615ZM136.531 261.615C135.152 261.615 134.035 262.732 134.035 264.111C134.035 265.489 135.152 266.607 136.531 266.607C137.909 266.607 139.027 265.489 139.027 264.111C139.027 262.732 137.909 261.615 136.531 261.615ZM125.532 261.615C124.153 261.615 123.035 262.732 123.035 264.111C123.035 265.489 124.153 266.607 125.532 266.607C126.91 266.607 128.028 265.489 128.028 264.111C128.028 262.732 126.91 261.615 125.532 261.615ZM117.028 264.111C117.028 265.489 115.91 266.607 114.532 266.607C113.154 266.607 112.036 265.489 112.036 264.111C112.036 262.732 113.154 261.615 114.532 261.615C115.91 261.615 117.028 262.732 117.028 264.111Z" fill="white"/>
<path d="M550.975 480.321H381.773C350.159 480.321 348.131 443.1 374.113 425.577C378.481 422.612 383.651 420.221 389.596 418.656C441.048 405.126 513.352 314.149 564.204 352.223L564.341 352.323C615.205 390.659 579.748 480.321 550.975 480.321Z" fill="#17282F"/>
<path d="M550.975 480.321H381.773C366.047 480.321 357.641 471.11 356.363 459.696L375.316 445.314C375.581 446.781 375.82 447.941 376.045 448.753C377.379 448.748 379.345 448.741 381.769 448.734C384.379 450.862 387.652 453.119 391.723 455.553C402.111 461.767 420.24 464.824 439.889 465.508C440.773 470.424 441.683 475.302 442.615 479.948L449.477 479.238C449.415 474.703 449.291 470.179 449.101 465.657C460.116 465.64 471.301 464.938 481.605 463.683C482.78 466.769 484.175 470.676 485.084 472.549C485.469 473.344 486.335 474.452 487.187 474.452C487.284 474.452 487.381 474.437 487.477 474.407C488.728 474.002 489.833 468.538 490.176 462.479C504.492 460.18 516.257 456.761 522.119 452.645C545.553 436.192 543.024 404.091 543.444 381.314C547.619 379.473 550.26 376.991 550.82 373.817C550.928 373.208 550.979 372.445 550.979 371.553C550.979 368.297 550.297 363.313 549.184 357.805C554.247 353.561 558.988 352.183 563.015 352.183C563.419 352.183 563.815 352.196 564.204 352.223L564.341 352.323C583.017 366.4 590.056 387.396 590.06 408.333C590.063 417.995 588.567 427.64 586.027 436.591C585.995 436.7 585.963 436.814 585.931 436.924C583.713 444.644 580.72 451.831 577.24 458.052C577.179 458.162 577.116 458.274 577.053 458.385C569.597 471.577 559.959 480.321 550.975 480.321Z" fill="#849193"/>
<path d="M449.101 465.657C448.969 462.511 448.805 459.365 448.608 456.219C448.545 455.381 448.487 454.543 448.428 453.702C452.469 453.344 456.413 452.912 460.193 452.439C460.249 452.445 460.304 452.453 460.36 452.46L459.995 454.575L464.595 454.145L464.901 453.009C467.601 453.317 470.263 453.587 472.875 453.819L472.795 454.517C472.74 455 473.036 455.452 473.504 455.581C475.124 456.029 478.733 457.302 480.097 460.027C480.485 460.803 481.017 462.14 481.605 463.683C471.301 464.939 460.116 465.64 449.101 465.657ZM439.889 465.508C420.24 464.824 402.111 461.767 391.723 455.553C387.652 453.119 384.379 450.863 381.769 448.735C383.399 448.731 385.233 448.726 387.221 448.72C388.583 451.931 390.145 454.54 391.724 455.55C392.2 455.852 392.992 455.965 393.904 455.965C396.491 455.964 400.04 455.063 400.04 455.063L404.928 454.184C405.479 454.084 405.839 453.551 405.723 453.003L405.693 452.865L410.949 452.862L412.245 452.86L412.36 454.765L418.255 455.731L418.072 454.539C420.885 454.669 423.725 454.729 426.579 454.729C430.364 454.729 434.169 454.623 437.937 454.435C438.575 458.095 439.225 461.812 439.889 465.508ZM490.176 462.479C490.32 459.915 490.329 457.245 490.155 454.805C491.392 454.831 492.597 454.844 493.776 454.844C521.328 454.844 532.737 447.574 532.745 420.095C532.747 414.344 532.248 407.708 531.293 400.068C531.297 400.068 531.3 400.068 531.3 400.068C531.3 400.068 530.812 395.238 530.773 386.464C530.773 386.208 530.773 385.95 530.773 385.688C530.773 385.303 530.773 384.911 530.775 384.512C535.791 383.843 540.107 382.784 543.444 381.314C543.024 404.091 545.553 436.192 522.119 452.645C516.257 456.762 504.492 460.18 490.176 462.479ZM473.129 415.727C473.129 415.727 457.877 413.536 440.252 412.507C439.443 410.489 438.604 408.488 437.741 406.493L439.745 405.524C439.745 405.524 437.699 400.876 434.491 395.168C444.207 388.616 454.18 381.469 464.22 374.628C465.449 374.06 466.671 373.215 467.872 372.157C469.445 371.1 471.021 370.053 472.596 369.02L475.019 392.115C475.111 393.183 476.047 394.048 477.109 394.048H477.147C477.349 395.559 477.571 397.1 477.807 398.667C477.809 398.667 477.811 398.667 477.812 398.667C477.813 398.671 477.813 398.671 477.813 398.671L473.129 415.727ZM531.207 370.032C531.22 369.779 531.235 369.523 531.249 369.267C531.349 367.427 531.475 365.5 531.625 363.509C531.847 360.435 532.127 357.187 532.472 353.779L536.481 368.492L531.207 370.032ZM549.184 357.805C548.271 353.289 547.065 348.419 545.707 343.86C552.119 345.125 558.304 347.805 564.204 352.223C563.815 352.196 563.419 352.183 563.015 352.183C558.988 352.183 554.247 353.561 549.184 357.805Z" fill="#656F74"/>
<path d="M432.625 341.204L422.539 334.093L430.084 326.383C430.084 326.383 437.833 330.361 437.093 337.508L432.625 341.204Z" fill="#FFA2A4"/>
<path d="M418.576 326.255L425.576 321.853L430.084 326.381L422.54 334.093L418.576 326.255Z" fill="#FFA2A4"/>
<path d="M482.285 322.843C472.713 325.664 468.009 342.476 460.116 358.353L437.143 335.52L429.841 342.005C429.841 342.005 450.885 375.429 460.816 375.438C473.208 375.45 486.081 340.992 486.081 340.992L482.285 322.843Z" fill="#17282F"/>
<path d="M453.127 351.405L450.036 348.335V348.333L453.127 351.403V351.405Z" fill="#DDDEDB"/>
<path d="M450.036 348.335L446.547 344.867L450.036 348.333V348.335Z" fill="#EAEAE7"/>
<path d="M460.116 358.353L453.126 351.405V351.403L460.118 358.349C460.117 358.351 460.117 358.352 460.116 358.353Z" fill="#EAEAE7"/>
<path d="M465.76 346.06C466.519 344.341 467.261 342.663 468.004 341.039V341.041C467.261 342.664 466.517 344.343 465.76 346.06ZM473.192 331.059V331.057C473.775 330.136 474.371 329.271 474.983 328.472C474.369 329.271 473.775 330.136 473.192 331.059Z" fill="#DDDEDB"/>
<path d="M468.004 341.042V341.039C469.701 337.327 471.385 333.916 473.192 331.058V331.059C471.385 333.919 469.701 337.328 468.004 341.042Z" fill="#EAEAE7"/>
<path d="M460.811 375.438C450.885 375.424 429.847 342.008 429.847 342.008L437.143 335.524L446.547 344.867L450.036 348.335L453.127 351.405L460.116 358.353C460.117 358.352 460.117 358.351 460.119 358.349L460.121 358.353C462.168 354.231 464.001 350.045 465.76 346.06C466.517 344.343 467.261 342.664 468.004 341.041C469.701 337.328 471.385 333.919 473.192 331.059C473.775 330.136 474.369 329.271 474.983 328.472C477.137 325.661 479.504 323.667 482.281 322.848C482.188 323.001 480.125 326.475 478.22 334.093C477.703 336.16 477.196 338.535 476.744 341.228C476.559 341.603 474.028 346.745 471.865 353.933C471.439 354.251 471.173 354.761 471.172 355.345C471.172 355.403 471.175 355.46 471.179 355.519L471.241 356.107C469.981 360.719 468.957 365.991 468.783 371.307C466.192 373.835 463.489 375.438 460.811 375.438Z" fill="#2B3C43"/>
<path d="M468.783 371.307C468.957 365.991 469.981 360.719 471.241 356.107L472.399 367.148C471.229 368.693 470.019 370.105 468.783 371.307ZM471.865 353.933C474.028 346.745 476.559 341.603 476.744 341.228C476.149 344.777 475.648 348.881 475.337 353.585H472.936C472.527 353.585 472.157 353.715 471.865 353.933Z" fill="#202E33"/>
<path d="M473.129 415.727C473.129 415.727 391.996 404.076 387.712 421.879C383.183 440.703 448.329 453.398 487.265 454.725C526.203 456.053 537.372 446.783 531.116 398.671H477.813L473.129 415.727Z" fill="#406FBF"/>
<path d="M493.776 454.844C492.597 454.844 491.392 454.831 490.155 454.805C489.951 451.949 489.495 449.408 488.713 447.725C493.601 446.721 496.467 446.02 496.467 446.02C496.467 446.02 502.355 438.184 504.997 438.184C505.576 438.184 505.999 438.559 506.171 439.471C506.203 439.64 506.219 439.812 506.219 439.988C506.232 445.098 493.372 452.805 493.372 452.805C493.372 452.805 496.688 453.628 501.4 453.628C507.516 453.628 515.981 452.241 522.599 445.872C527.451 441.203 530.275 436.392 530.277 432.01C530.281 425.809 524.636 420.468 511.092 417.598C509.309 417.22 507.219 417.047 504.871 417.047C490.335 417.047 466.105 423.733 446.107 430.186C445.987 429.5 445.859 428.815 445.723 428.131C444.157 422.804 442.3 417.614 440.252 412.507C457.877 413.536 473.129 415.727 473.129 415.727L477.813 398.671C493.389 399.553 531.293 400.073 531.293 400.073C531.293 400.073 531.293 400.072 531.293 400.068C532.248 407.708 532.747 414.344 532.745 420.095C532.737 447.573 521.328 454.844 493.776 454.844ZM472.875 453.819C470.263 453.586 467.601 453.317 464.901 453.009L465.117 452.209L467.401 452.645L472.888 453.695L472.875 453.819ZM460.36 452.46C460.304 452.453 460.249 452.445 460.193 452.439C460.251 452.432 460.309 452.424 460.367 452.417L460.36 452.46ZM428.192 436.251C427.527 427.783 426.655 420.147 425.693 413.376C428.557 419.473 431.332 425.593 433.661 431.628C433.879 432.459 434.08 433.295 434.269 434.132C432.129 434.868 430.096 435.577 428.192 436.251Z" fill="#A4C3E9"/>
<path d="M427.953 452.851L410.949 452.862L402.784 452.868L401.812 444.275L409.361 443.265L427.803 440.8L427.953 452.851Z" fill="#FFA2A4"/>
<path d="M403.653 443.196L405.722 453.003C405.838 453.551 405.478 454.084 404.928 454.184L400.04 455.063C400.04 455.063 393.548 456.714 391.724 455.549C386.397 452.145 381.265 430.568 383.434 428.969C384.229 428.385 385.605 429.271 386.292 429.975C388.474 432.209 393.138 438.436 394.982 440.277C397.138 442.432 400.965 442.498 402.644 442.41C403.129 442.385 403.553 442.72 403.653 443.196Z" fill="#17282F"/>
<path d="M410.949 452.862L410.255 448.663C410.836 448.662 411.415 448.66 411.992 448.659L412.245 452.86L410.949 452.862Z" fill="#C75B5B"/>
<path d="M452.793 437.674L468.928 443.041L476.677 445.616L474.882 454.076L467.401 452.645L449.126 449.153L452.793 437.674Z" fill="#FFA2A4"/>
<path d="M472.795 454.517L473.932 444.559C473.996 444.003 474.505 443.611 475.059 443.691L479.975 444.401C479.975 444.401 486.656 444.888 488.016 446.569C491.993 451.483 490.041 473.576 487.477 474.407C486.539 474.711 485.513 473.435 485.084 472.55C483.72 469.739 481.264 462.357 480.097 460.027C478.733 457.302 475.124 456.029 473.504 455.581C473.036 455.452 472.74 455 472.795 454.517Z" fill="#17282F"/>
<path d="M467.401 452.645L465.117 452.209L465.237 451.769C466.032 451.659 466.82 451.545 467.595 451.432L467.401 452.645Z" fill="#C75B5B"/>
<path d="M464.595 454.145L459.995 454.574L462.743 438.662L468.029 441.443L464.595 454.145Z" fill="#406FBF"/>
<path d="M459.995 454.574L460.367 452.417C462.024 452.208 463.649 451.992 465.237 451.769L465.117 452.209L464.901 453.009L464.595 454.145L459.995 454.574Z" fill="#A4C3E9"/>
<path d="M478.081 461.647L478.181 461.98L478.465 462.122C478.796 462.163 479.119 462.007 479.292 461.723C479.684 460.457 479.613 459.093 479.092 457.875C478.529 459.061 478.187 460.339 478.081 461.647ZM479.999 459.908C480.121 460.629 480.013 461.371 479.689 462.027C479.428 462.428 478.971 462.657 478.493 462.628C478.204 462.644 477.929 462.505 477.771 462.263C477.087 461.085 478.701 457.469 478.904 457.067L479.119 456.937L479.337 457.121C479.652 458.025 479.873 458.96 479.999 459.908Z" fill="#406FBF"/>
<path d="M475.536 459.59L475.553 459.703C475.623 460.036 475.765 460.048 475.831 460.065C476.496 460.162 478.02 458.673 478.689 457.522C477.857 457.698 476.205 458.144 475.68 458.979C475.564 459.161 475.513 459.376 475.536 459.59ZM479.379 457.157L479.325 457.264C478.876 458.42 476.885 460.716 475.747 460.559C475.363 460.492 475.075 460.168 475.055 459.779C474.965 459.398 475.032 458.998 475.243 458.669C476.072 457.348 478.935 456.919 479.095 456.925L479.32 457.038L479.379 457.157Z" fill="#406FBF"/>
<path d="M412.493 442.017C412.493 442.017 487.976 412.7 511.092 417.598C534.208 422.496 534.316 434.595 522.598 445.872C510.882 457.151 493.372 452.805 493.372 452.805C493.372 452.805 507.131 444.56 506.171 439.471C505.211 434.381 496.466 446.02 496.466 446.02C496.466 446.02 450.847 457.176 413.181 454.236L412.493 442.017Z" fill="#406FBF"/>
<path d="M396.408 438.009L396.167 437.76L395.848 437.764C395.536 437.881 395.323 438.169 395.299 438.5C395.533 439.804 396.225 440.983 397.251 441.822C397.203 440.51 396.917 439.219 396.408 438.009ZM395.508 440.436C395.067 439.853 394.821 439.145 394.807 438.414C394.853 437.937 395.153 437.522 395.591 437.329C395.84 437.181 396.148 437.177 396.4 437.319C397.551 438.049 397.783 442.003 397.788 442.453L397.659 442.668L397.379 442.604C396.684 441.947 396.056 441.22 395.508 440.436Z" fill="#406FBF"/>
<path d="M399.616 438.662L399.548 438.569C399.332 438.307 399.2 438.362 399.133 438.376C398.5 438.596 397.833 440.621 397.769 441.95C398.427 441.411 399.688 440.253 399.769 439.271C399.788 439.056 399.733 438.841 399.616 438.662ZM397.325 442.592L397.324 442.472C397.191 441.239 397.899 438.284 398.983 437.899C399.355 437.781 399.759 437.936 399.956 438.274C400.211 438.569 400.335 438.955 400.3 439.344C400.173 440.899 397.829 442.599 397.685 442.667L397.432 442.669L397.325 442.592Z" fill="#406FBF"/>
<path d="M426.579 454.729C423.725 454.729 420.885 454.669 418.072 454.539L417.168 448.647C421.488 448.638 425.539 448.627 428.973 448.619C428.767 444.317 428.501 440.193 428.192 436.251C430.096 435.577 432.129 434.868 434.269 434.132C435.156 438.079 435.763 442.092 436.501 446.162C436.972 448.862 437.451 451.631 437.937 454.435C434.169 454.622 430.364 454.729 426.579 454.729ZM448.428 453.702C447.888 445.921 447.477 437.998 446.107 430.186C466.105 423.733 490.335 417.047 504.871 417.047C507.219 417.047 509.309 417.22 511.092 417.598C524.636 420.468 530.281 425.809 530.277 432.01C530.275 436.392 527.451 441.203 522.599 445.872C515.981 452.241 507.516 453.628 501.4 453.628C496.688 453.628 493.372 452.805 493.372 452.805C493.372 452.805 506.232 445.098 506.219 439.988C506.219 439.812 506.203 439.64 506.171 439.471C505.999 438.559 505.576 438.184 504.997 438.184C502.355 438.184 496.467 446.02 496.467 446.02C496.467 446.02 493.601 446.721 488.713 447.726C484.743 448.541 479.436 449.556 473.247 450.56C470.715 450.969 468.033 451.379 465.237 451.769C463.649 451.992 462.024 452.208 460.367 452.417C460.309 452.424 460.251 452.432 460.193 452.439C456.413 452.912 452.469 453.344 448.428 453.702Z" fill="#B8D2EF"/>
<path d="M411.576 441.788L415.817 439.847L418.255 455.731L412.36 454.765L411.576 441.788Z" fill="#406FBF"/>
<path d="M418.255 455.731L412.36 454.765L412.245 452.86L411.992 448.659C413.744 448.655 415.476 448.651 417.168 448.647L418.255 455.731Z" fill="#A4C3E9"/>
<path d="M536.481 325.416C528.329 370.72 531.293 400.073 531.293 400.073C531.293 400.073 493.389 399.553 477.813 398.671C469.501 343.727 482.285 322.843 482.285 322.843C482.285 322.843 487.975 321.627 494.609 321.151C495.483 321.083 496.372 321.041 497.276 321.011C503.121 320.809 512.676 321.56 519.265 322.248C520.651 322.393 522.053 322.577 523.417 322.779C530.357 323.812 536.481 325.416 536.481 325.416Z" fill="#17282F"/>
<path d="M531.3 400.068C531.3 400.068 531.297 400.068 531.293 400.068C531.292 400.06 531.291 400.048 531.291 400.039C531.247 399.596 530.804 394.815 530.769 386.464C530.771 386.464 530.772 386.464 530.773 386.464C530.812 395.238 531.3 400.068 531.3 400.068Z" fill="#747D80"/>
<path d="M531.293 400.068C531.292 400.063 531.292 400.053 531.291 400.039C531.291 400.048 531.292 400.06 531.293 400.068Z" fill="#ACC8EB"/>
<path d="M477.812 398.667C477.81 398.667 477.809 398.667 477.806 398.667C477.57 397.1 477.349 395.559 477.146 394.048H477.152C477.356 395.563 477.576 397.102 477.813 398.671" fill="#747D80"/>
<path d="M476.744 341.228C477.196 338.535 477.703 336.16 478.22 334.093C477.704 336.16 477.199 338.531 476.747 341.224C476.747 341.225 476.745 341.227 476.744 341.228Z" fill="#3F4F55"/>
<path d="M475.341 353.585H475.337C475.648 348.881 476.149 344.777 476.744 341.228C476.745 341.227 476.747 341.225 476.747 341.224C476.152 344.773 475.65 348.881 475.341 353.585Z" fill="#344248"/>
<path d="M531.239 369.271C531.343 367.416 531.467 365.486 531.615 363.489C531.619 363.496 531.621 363.503 531.625 363.509C531.475 365.5 531.349 367.426 531.249 369.267C531.247 369.268 531.243 369.269 531.239 369.271Z" fill="#747D80"/>
<path d="M536.48 325.416C536.422 325.401 534.158 324.811 530.849 324.119V324.117C534.202 324.815 536.481 325.412 536.481 325.412C536.481 325.413 536.48 325.415 536.48 325.416ZM530.27 323.999H530.262C529.597 323.861 528.893 323.723 528.161 323.584C528.896 323.723 529.602 323.861 530.27 323.999Z" fill="#DDDEDB"/>
<path d="M530.849 324.119C530.657 324.079 530.461 324.039 530.263 323.999H530.271C530.467 324.039 530.66 324.077 530.849 324.117V324.119Z" fill="#EAEAE7"/>
<path d="M520.349 322.369C519.988 322.327 519.625 322.285 519.265 322.248C518.235 322.14 517.132 322.032 515.981 321.925C515.983 321.924 515.984 321.923 515.985 321.921C517.136 322.028 518.24 322.137 519.272 322.245C519.629 322.284 519.989 322.325 520.349 322.369Z" fill="#DDDEDB"/>
<path d="M531.293 400.068C530.727 400.06 493.28 399.548 477.812 398.667C477.576 397.102 477.356 395.563 477.152 394.048H503.531H504.684C505.688 394.048 506.445 393.275 506.448 392.288C506.448 392.232 506.445 392.174 506.44 392.115L505.673 384.807C507.005 385.32 511.92 386.916 521.455 386.916C524.176 386.916 527.273 386.787 530.769 386.464C530.804 394.815 531.247 399.596 531.291 400.039C531.292 400.053 531.292 400.063 531.293 400.068ZM509.195 374.452C507.815 374.059 506.443 373.936 505.271 373.936C505.015 373.936 504.769 373.943 504.535 373.952L502.601 355.519C502.508 354.451 501.572 353.585 500.511 353.585H475.341C475.651 348.881 476.152 344.773 476.747 341.224C477.199 338.531 477.704 336.16 478.22 334.093C480.172 326.299 482.288 322.845 482.288 322.845C482.288 322.845 487.461 321.74 493.709 321.225C493.485 321.281 493.253 321.335 493.013 321.384C491.9 323.587 492.788 327.617 499.196 327.867C499.612 327.883 500.019 327.891 500.419 327.891C507.98 327.891 512.827 325.169 515.981 321.925C517.132 322.032 518.235 322.14 519.265 322.248C519.625 322.285 519.988 322.327 520.349 322.369C521.375 322.493 522.405 322.635 523.415 322.783C525.068 323.028 526.673 323.304 528.161 323.584C528.893 323.723 529.597 323.861 530.263 323.999C530.461 324.039 530.657 324.079 530.849 324.119C534.159 324.811 536.423 325.401 536.48 325.416C536.48 325.417 536.48 325.417 536.48 325.417C536.389 325.492 531.877 329.172 530.644 335.443C530.371 336.828 530.26 338.324 530.26 339.841C530.26 339.997 530.261 340.155 530.264 340.311C530.061 341.003 526.597 353.232 531.615 363.489C531.467 365.487 531.343 367.416 531.239 369.271C528.272 370.284 520.904 372.515 509.195 374.452Z" fill="#2B3C43"/>
<path d="M530.769 386.464C530.768 385.835 530.766 385.183 530.769 384.514C530.772 384.512 530.773 384.512 530.774 384.512C530.773 384.911 530.773 385.303 530.773 385.688C530.773 385.95 530.773 386.208 530.773 386.464C530.772 386.464 530.77 386.464 530.769 386.464ZM531.197 370.035C531.21 369.781 531.225 369.527 531.238 369.271C531.242 369.269 531.246 369.268 531.249 369.267C531.234 369.523 531.22 369.779 531.206 370.032L531.197 370.035Z" fill="#5A6264"/>
<path d="M521.455 386.916C511.92 386.916 507.005 385.32 505.673 384.807L505.653 384.617L512.677 383.972V385.355C513.812 385.38 514.933 385.392 516.04 385.392C521.365 385.392 526.34 385.104 530.769 384.514C530.767 385.183 530.768 385.835 530.769 386.464C527.273 386.787 524.176 386.916 521.455 386.916ZM512.677 376.195C511.597 375.343 510.393 374.795 509.195 374.452C520.904 372.515 528.272 370.284 531.239 369.271C531.225 369.527 531.211 369.781 531.197 370.035L512.677 375.439V376.195Z" fill="#202E33"/>
<path d="M531.625 363.509C531.621 363.503 531.619 363.496 531.615 363.489C531.841 360.415 532.124 357.172 532.47 353.772C532.47 353.773 532.47 353.773 532.47 353.773L532.472 353.779C532.126 357.187 531.846 360.435 531.625 363.509Z" fill="#5A6264"/>
<path d="M531.614 363.489C526.597 353.232 530.061 341.003 530.264 340.311C530.364 346.871 532.441 353.676 532.47 353.772C532.124 357.172 531.841 360.415 531.614 363.489Z" fill="#202E33"/>
<path d="M504.684 394.048H477.109C476.047 394.048 475.111 393.183 475.019 392.115L471.179 355.519C471.087 354.451 471.873 353.585 472.936 353.585H500.511C501.572 353.585 502.508 354.451 502.601 355.519L506.44 392.115C506.532 393.183 505.745 394.048 504.684 394.048Z" fill="#17282F"/>
<path d="M504.684 394.048H503.531C504.593 394.048 505.38 393.183 505.288 392.115L504.512 384.723L505.653 384.617L506.44 392.115C506.445 392.173 506.448 392.232 506.448 392.288C506.445 393.275 505.688 394.048 504.684 394.048ZM503.391 374.039L501.448 355.519C501.356 354.451 500.42 353.585 499.357 353.585H472.936H500.511C501.572 353.585 502.508 354.451 502.601 355.519L504.535 373.952C504.112 373.971 503.727 374.003 503.391 374.039Z" fill="#9BA6A6"/>
<path d="M503.531 394.048H477.109C476.047 394.048 475.111 393.183 475.019 392.115L472.399 367.148L471.241 356.107L471.179 355.519C471.175 355.46 471.172 355.403 471.172 355.345C471.173 354.359 471.931 353.585 472.936 353.585H499.357C500.42 353.585 501.356 354.451 501.448 355.519L503.391 374.039C502.521 374.133 501.984 374.26 501.984 374.26L495.615 373.739L495.88 382.217L501.244 385.024L504.512 384.723L505.288 392.115C505.38 393.183 504.593 394.048 503.531 394.048ZM476.275 353.585L477.147 355.392C477.468 356.056 478.145 356.491 478.856 356.491H493.42C494.132 356.491 494.735 356.056 494.94 355.392L495.5 353.585H476.275Z" fill="#ACB5B5"/>
<path d="M487.453 370.824C485.808 370.824 484.591 372.164 484.733 373.817C484.876 375.469 486.325 376.809 487.971 376.809C489.616 376.809 490.833 375.469 490.691 373.817C489.045 373.817 487.596 372.477 487.453 370.824Z" fill="#17282F"/>
<path d="M493.42 356.491H478.856C478.145 356.491 477.468 356.056 477.147 355.392L476.275 353.585H495.5L494.94 355.392C494.735 356.056 494.132 356.491 493.42 356.491Z" fill="#71797B"/>
<path d="M501.984 374.26L495.615 373.738L495.88 382.217L501.244 385.024L513.532 383.893L514.534 378.183C510.461 372.262 501.984 374.26 501.984 374.26Z" fill="#FFA2A4"/>
<path d="M536.481 325.416C543.023 327.396 552.305 365.4 550.82 373.817C549.335 382.234 533.201 385.802 512.677 385.355V375.439L536.481 368.492L532.471 353.773C532.471 353.773 529.159 342.993 530.644 335.443C531.889 329.108 536.481 325.416 536.481 325.416Z" fill="#17282F"/>
<path d="M516.04 385.392C514.933 385.392 513.812 385.38 512.677 385.355V375.438L536.481 368.492L532.471 353.773C532.471 353.773 532.471 353.773 532.471 353.772C532.441 353.676 530.364 346.871 530.264 340.311C530.261 340.155 530.26 339.997 530.26 339.841C530.26 338.324 530.371 336.828 530.644 335.443C531.889 329.108 536.481 325.416 536.481 325.416C542.549 327.253 550.979 360.095 550.979 371.553C550.979 372.445 550.928 373.208 550.82 373.817C549.417 381.768 534.94 385.392 516.04 385.392Z" fill="#2B3C43"/>
<path d="M516.093 321.809C512.776 325.276 507.557 328.18 499.196 327.867C492.788 327.617 491.9 323.587 493.013 321.384C496.907 320.583 498.671 318.88 499.209 316.728C499.797 314.437 498.996 311.659 497.869 308.968L508.684 299.857L510.511 298.317C510.473 298.831 510.436 299.381 510.411 299.957C510.311 301.847 510.297 304.037 510.436 306.303C510.787 312.26 512.2 318.756 516.093 321.809Z" fill="#FFA2A4"/>
<path d="M499.209 316.728C499.345 316.2 499.406 315.647 499.408 315.073C499.41 313.161 498.736 311.039 497.869 308.968L508.684 299.857C509.26 299.869 509.834 299.907 510.41 299.957C510.362 300.872 510.334 301.859 510.333 302.889C510.333 303.987 510.364 305.135 510.436 306.303C508.42 310.42 504.89 315.389 499.209 316.728Z" fill="#C75B5B"/>
<path d="M485.604 281.759C484.012 285.384 483.817 293.171 489.337 291.236C494.859 289.301 488.341 275.525 485.604 281.759Z" fill="#17282F"/>
<path d="M512.111 289.789C511.633 299.504 511.848 305.22 506.996 310.217C499.697 317.736 487.633 313.317 485.192 303.627C482.995 294.904 484.144 280.481 493.62 276.592C502.955 272.76 512.588 280.073 512.111 289.789Z" fill="#FFA2A4"/>
<path d="M497.387 292.54C497.396 293.331 496.984 293.973 496.467 293.975C495.949 293.976 495.521 293.336 495.511 292.545C495.501 291.755 495.913 291.112 496.431 291.111C496.949 291.109 497.377 291.749 497.387 292.54Z" fill="#17282F"/>
<path d="M488.432 292.563C488.443 293.353 488.031 293.996 487.512 293.997C486.995 293.999 486.567 293.359 486.557 292.567C486.547 291.776 486.959 291.135 487.477 291.132C487.995 291.132 488.423 291.772 488.432 292.563Z" fill="#17282F"/>
<path d="M491.284 292.949C491.284 292.949 489.492 297.347 487.517 299.484C488.915 300.716 491.289 300.111 491.289 300.111L491.284 292.949Z" fill="#F14453"/>
<path d="M500.112 289.647C499.95 289.669 499.782 289.605 499.676 289.467C498.404 287.819 496.693 287.923 496.676 287.923C496.42 287.943 496.196 287.749 496.174 287.495C496.153 287.239 496.345 287.016 496.6 286.997C496.69 286.991 498.833 286.86 500.41 288.905C500.568 289.109 500.532 289.401 500.329 289.556L500.112 289.647Z" fill="#17282F"/>
<path d="M484.536 289.497L484.27 289.455C484.038 289.343 483.937 289.065 484.048 288.835C485.145 286.517 487.265 286.236 487.357 286.211C487.612 286.179 487.848 286.359 487.882 286.613C487.917 286.867 487.741 287.097 487.489 287.132C487.401 287.141 485.77 287.377 484.889 289.239C484.821 289.384 484.685 289.476 484.536 289.497Z" fill="#17282F"/>
<path d="M496.85 282.001C496.85 282.001 499.531 280.091 500.747 282.151C501.963 284.209 501.892 289.721 501.892 289.721L502.43 288.748C502.43 288.748 505.873 301.017 510.877 297.925C515.881 294.833 523.232 282.381 511.545 276.031C511.545 276.031 510.304 273.068 502.581 271.611C494.859 270.155 485.526 274.916 483.929 280.019C482.33 285.121 484.572 287.964 484.572 287.964C484.992 286.115 486.056 284.939 486.056 284.939C486.233 286.591 487.981 287.287 487.981 287.287C487.941 285.273 488.612 284.276 488.612 284.276C488.757 285.367 489.901 286.731 489.901 286.731C490.462 281.476 494.034 280.404 495.164 280.447C496.554 280.5 496.85 282.001 496.85 282.001Z" fill="#17282F"/>
<path d="M515.957 297.836C515.212 300.344 513.372 302.264 511.457 303.244C508.579 304.719 506.467 302.289 506.703 299.228C506.916 296.472 508.672 292.383 511.833 292.179C514.947 291.977 516.809 294.967 515.957 297.836Z" fill="#FFA2A4"/>
<path d="M491.596 303.367C492.556 304.273 493.899 306.152 493.899 306.152C494.092 306.061 494.284 305.971 494.471 305.869C497.047 304.569 497.812 303.115 497.879 301.896C497.913 301.231 497.729 300.631 497.52 300.172C497.284 299.639 496.993 299.313 496.993 299.313C496.04 300.819 493.732 302.216 492.468 302.911C491.941 303.207 491.596 303.367 491.596 303.367Z" fill="#17282F"/>
<path d="M492.468 302.911L493.168 303.713C495.591 302.483 497.132 301.291 497.52 300.172C497.284 299.639 496.993 299.313 496.993 299.313C496.04 300.819 493.732 302.216 492.468 302.911Z" fill="white"/>
<path d="M494.471 305.869C497.047 304.569 497.812 303.115 497.879 301.896C497.019 302.373 496.033 303.044 495.305 303.908C494.745 304.565 494.532 305.252 494.471 305.869Z" fill="#B5413C"/>
<path d="M259.544 334.969L260.243 342.368C260.243 342.368 303.549 348.951 310.481 355.727C317.413 362.503 342.019 469.179 342.019 469.179L332.087 470.545C332.087 470.545 297.665 391.856 295.821 380.481C295.821 380.481 265.505 381.614 244.813 381.614C224.121 381.614 221.651 334.969 221.651 334.969H259.544Z" fill="#406FBF"/>
<path d="M327.556 460.104C324.925 454.014 321.399 445.797 317.649 436.924H317.652C321.4 445.796 324.928 454.015 327.556 460.104ZM317.511 436.591H317.508C314.831 430.25 312.044 423.584 309.396 417.129C312.045 423.583 314.833 430.251 317.511 436.591Z" fill="white"/>
<path d="M317.652 436.924H317.649C317.602 436.814 317.554 436.702 317.508 436.591H317.51C317.558 436.703 317.604 436.81 317.652 436.924Z" fill="#EEEEEC"/>
<path d="M328.053 461.255C327.891 460.88 327.725 460.496 327.556 460.104C327.725 460.497 327.892 460.88 328.053 461.253V461.255Z" fill="#F7F7F6"/>
<path d="M305.808 352.977C304.497 352.415 303.004 351.861 301.373 351.319C301.373 351.317 301.372 351.316 301.372 351.316C303.002 351.859 304.497 352.415 305.808 352.977Z" fill="white"/>
<path d="M301.373 351.319C300.725 351.103 300.055 350.888 299.367 350.676V350.673C300.056 350.885 300.723 351.099 301.372 351.316C301.372 351.316 301.373 351.317 301.373 351.319Z" fill="#EEEEEC"/>
<path d="M285.632 347.128H285.612C272.892 344.291 260.243 342.368 260.243 342.368L260.241 342.363C260.509 342.404 273.039 344.317 285.632 347.128Z" fill="white"/>
<path d="M287.04 347.451C286.564 347.341 286.088 347.235 285.612 347.128H285.632C286.1 347.232 286.572 347.339 287.04 347.447V347.451Z" fill="#E5E5E3"/>
<path d="M328.053 461.253C327.892 460.88 327.725 460.497 327.556 460.104C324.928 454.015 321.4 445.796 317.652 436.924C317.604 436.811 317.559 436.703 317.511 436.591C314.833 430.251 312.045 423.583 309.396 417.129C308.715 415.469 308.044 413.824 307.384 412.2C305.269 396.231 300.832 366.54 298.599 364.616C297.972 364.076 297.336 363.551 296.691 363.039C297.616 359.417 298.528 355.305 299.367 350.676C300.055 350.888 300.725 351.103 301.373 351.319C303.004 351.861 304.497 352.415 305.808 352.977C307.907 353.88 309.531 354.803 310.476 355.729C315.411 360.548 329.295 415.962 336.892 447.517L328.053 461.253ZM285.512 355.824C270.007 347.629 254.043 345.301 253.825 345.269C248.965 343.889 245.592 343.153 245.592 343.153L225.18 336.176L259.963 339.405L260.237 342.363C260.237 342.363 260.239 342.363 260.241 342.363L260.243 342.368C260.243 342.368 272.892 344.291 285.612 347.128C286.088 347.235 286.564 347.341 287.04 347.451C286.577 350.264 286.069 353.073 285.512 355.824Z" fill="#6D97D6"/>
<path d="M349.653 478.76C342.972 478.76 342.09 478.657 338.336 478.531C336.634 478.469 335.618 478.553 334.656 478.637C333.8 478.712 332.986 478.786 331.77 478.76C329.613 478.714 329.693 476.648 330.36 474.272C330.692 473.079 331.205 470.556 331.664 468.628L341.45 467.917C342.828 470.545 345.934 474.295 349.7 474.8C353.293 475.283 352.316 478.76 349.653 478.76Z" fill="#17282F"/>
<path d="M306.731 410.591C306.137 409.128 305.557 407.687 304.992 406.275V406.267C305.557 407.681 306.139 409.127 306.731 410.591Z" fill="#C4C5C2"/>
<path d="M304.992 406.275C302.482 400.003 300.277 394.291 298.649 389.743C298.652 389.743 298.654 389.743 298.656 389.743C300.284 394.289 302.486 399.997 304.992 406.267V406.275Z" fill="#B7B9B7"/>
<path d="M307.384 412.2C307.165 411.661 306.947 411.124 306.731 410.591C306.139 409.126 305.557 407.681 304.992 406.267C302.487 399.997 300.284 394.289 298.656 389.743C299.959 389.709 301.004 388.644 301.004 387.333V386.779C301.004 385.447 299.925 384.368 298.595 384.368H298.056V383.732C298.056 380.423 295.375 377.741 292.065 377.741H292.019C293.388 374.288 295.059 369.431 296.691 363.039C297.336 363.551 297.972 364.076 298.599 364.616C300.832 366.54 305.269 396.231 307.384 412.2ZM284.711 359.571C277.732 352.875 263.083 347.901 253.825 345.269C254.043 345.301 270.007 347.629 285.512 355.824C285.256 357.088 284.989 358.339 284.711 359.571Z" fill="#557EC8"/>
<path d="M226.563 377.741H292.065C295.375 377.741 298.056 380.423 298.056 383.732V388.491H220.573V383.732C220.573 380.423 223.255 377.741 226.563 377.741Z" fill="#17282F"/>
<path d="M298.056 384.368H288.955C288.977 384.331 290.245 382.216 292.019 377.741H292.065C295.375 377.741 298.056 380.423 298.056 383.732V384.368ZM258.133 384.368H220.573V383.732C220.573 381.531 221.759 379.608 223.527 378.567C228.765 380.956 235.495 381.676 241.701 381.676C251.108 381.676 259.315 380.023 259.315 380.023L258.133 384.368Z" fill="#405158"/>
<path d="M295.363 458.165L265.493 455.563V416.333H254.992V455.552L225.015 458.165C222.375 458.426 220.361 460.647 220.361 463.3V467.279H259.216H261.161H300.016V463.3C300.016 460.647 298.004 458.426 295.363 458.165Z" fill="#17282F"/>
<path d="M230.03 472.214C230.03 476.005 226.957 479.079 223.165 479.079C219.373 479.079 216.3 476.005 216.3 472.214C216.3 468.423 219.373 465.348 223.165 465.348C226.957 465.348 230.03 468.423 230.03 472.214Z" fill="#17282F"/>
<path d="M290.347 472.214C290.347 476.005 293.421 479.079 297.212 479.079C301.004 479.079 304.079 476.005 304.079 472.214C304.079 468.423 301.004 465.348 297.212 465.348C293.421 465.348 290.347 468.423 290.347 472.214Z" fill="#17282F"/>
<path d="M262.349 424.337H258.135C255.4 424.337 253.184 422.12 253.184 419.385V385.937H267.301V419.385C267.301 422.12 265.084 424.337 262.349 424.337Z" fill="#17282F"/>
<path d="M253.184 402.583V389.743H256.673L253.184 402.583Z" fill="#405158"/>
<path d="M220.033 384.368H298.595C299.925 384.368 301.004 385.447 301.004 386.779V387.333C301.004 388.664 299.925 389.743 298.595 389.743H220.035C218.703 389.743 217.624 388.664 217.624 387.333V386.779C217.624 385.447 218.703 384.368 220.033 384.368Z" fill="#17282F"/>
<path d="M223.165 479.079C219.373 479.079 216.3 476.005 216.3 472.214C216.3 468.423 219.373 465.348 223.165 465.348C226.957 465.348 230.03 468.423 230.03 472.214C230.03 476.005 226.957 479.079 223.165 479.079Z" fill="#405158"/>
<path d="M297.212 479.079C293.421 479.079 290.347 476.005 290.347 472.214C290.347 468.423 293.421 465.348 297.212 465.348C301.004 465.348 304.079 468.423 304.079 472.214C304.079 476.005 301.004 479.079 297.212 479.079Z" fill="#405158"/>
<path d="M304.64 322.539L280.705 322.537C273.695 322.537 268.63 316.239 269.396 308.467L270.417 298.093C271.181 290.321 277.487 284.021 284.497 284.021H308.431C315.443 284.021 320.507 290.321 319.741 298.093L318.72 308.467C317.954 316.239 311.651 322.539 304.64 322.539Z" fill="#17282F"/>
<path d="M304.64 322.539H302.697C302.981 318.075 303.18 313.341 303.272 308.337H291.219C291.219 308.337 290.929 314.123 290.153 322.539L280.705 322.537C274.16 322.537 269.312 317.047 269.319 309.995C269.32 309.492 269.345 308.983 269.396 308.467L269.469 307.719C270.281 303.852 270.937 299.969 271.317 296.292H274.217H274.956L284.301 284.489C284.301 284.489 283.863 284.345 283.104 284.104C283.564 284.049 284.029 284.021 284.497 284.021H301.489C301.488 284.065 301.487 284.111 301.487 284.155C301.487 284.241 301.489 284.329 301.497 284.416L301.812 288.017C301.941 289.504 303.172 290.583 304.684 290.583C304.763 290.583 304.843 290.58 304.921 290.573L306.74 290.439C306.74 290.439 306.887 290.444 307.149 290.444C308.592 290.444 313.553 290.283 317.036 288.185C318.791 290.389 319.821 293.311 319.817 296.565C319.817 297.068 319.792 297.577 319.741 298.093L318.72 308.467C317.955 316.239 311.651 322.539 304.64 322.539Z" fill="#405158"/>
<path d="M302.444 317.485H288.301C284.157 317.485 281.165 313.761 281.617 309.169L282.221 303.039C282.673 298.447 286.399 294.724 290.541 294.724H304.685C308.828 294.724 311.821 298.447 311.369 303.04L310.765 309.169C310.313 313.763 306.588 317.485 302.444 317.485Z" fill="#17282F"/>
<path d="M291.219 308.337C291.219 308.337 287.984 373.202 274.015 384.369H288.955C288.955 384.369 302.279 362.271 303.272 308.337H291.219Z" fill="#17282F"/>
<path d="M303.245 281.315L305.82 279.928C306.788 279.407 307.949 279.387 308.936 279.872L313.547 282.143C315.389 283.051 316.679 284.795 317.007 286.824L317.209 288.08C313.095 290.671 306.74 290.439 306.74 290.439L304.921 290.573C303.303 290.693 301.948 289.581 301.812 288.017L301.497 284.416C301.389 283.173 302.084 281.939 303.245 281.315Z" fill="#C8685A"/>
<path d="M304.684 290.583C303.172 290.583 301.941 289.504 301.812 288.017L301.497 284.416C301.489 284.329 301.487 284.241 301.487 284.155C301.489 283.003 302.165 281.895 303.245 281.315L305.82 279.928C306.323 279.657 306.877 279.521 307.432 279.521C307.947 279.521 308.461 279.639 308.936 279.872L313.547 282.143C315.389 283.051 316.679 284.795 317.007 286.824L317.209 288.08C313.719 290.277 308.616 290.444 307.149 290.444C306.887 290.444 306.74 290.439 306.74 290.439L304.921 290.573C304.843 290.58 304.763 290.583 304.684 290.583Z" fill="#995147"/>
<path d="M284.301 284.489L274.956 296.292H266.083L267.233 279.821C274.005 281.111 284.301 284.489 284.301 284.489Z" fill="#406FBF"/>
<path d="M274.217 296.292H271.317C271.765 291.956 271.829 287.907 271.308 284.499C271.449 284.719 274.047 288.841 274.217 296.292Z" fill="#3563B7"/>
<path d="M260.125 339.421L221.039 335.792C222.265 331.636 223.341 327.556 224.255 323.613C225.393 318.808 226.307 314.189 227.033 309.884C227.784 305.579 228.347 301.573 228.785 297.956C228.823 297.605 228.873 297.268 228.911 296.931C228.973 296.355 229.036 295.791 229.099 295.253C229.473 291.748 229.724 288.695 229.887 286.179C230.212 281.26 230.212 278.419 230.212 278.419C252.765 274.176 270.413 280.809 270.413 280.809C276.22 297.18 260.125 339.421 260.125 339.421Z" fill="#406FBF"/>
<path d="M259.987 283.413L259.985 283.416C257.387 288.815 249.904 289.357 246.564 284.384L244.868 281.861L242.791 278.769C246.283 276.704 247.647 270.084 248.097 264.401V264.389C248.235 262.612 248.297 260.923 248.297 259.495L257.071 271.536C256.457 272.849 255.944 274.213 255.707 275.565C255.595 276.141 255.544 276.717 255.569 277.293C255.644 279.545 256.796 281.699 259.987 283.413Z" fill="#C8685A"/>
<path d="M245.876 281.777C245.125 281.24 244.717 280.909 244.717 280.909C244.717 280.909 244.571 280.947 244.303 281.019L242.791 278.769C246.283 276.704 247.647 270.084 248.097 264.401V264.389C248.235 262.612 248.297 260.923 248.297 259.495L257.071 271.536C256.457 272.849 255.944 274.213 255.707 275.565C253.564 278.315 250.304 281.227 245.876 281.777Z" fill="#995147"/>
<path d="M235.985 251.505C235.985 251.505 231.652 249.867 232.927 246.869C234.201 243.872 235.756 243.903 235.756 243.903C235.756 243.903 233.452 239.912 235.6 235.881C237.747 231.852 242.489 233.509 242.489 233.509C242.489 233.509 242.508 228.951 246.896 228.128C251.285 227.307 253.131 231.403 253.131 231.403C253.131 231.403 256.123 227.527 260.492 228.593C264.861 229.66 265.751 235.747 265.751 235.747C265.751 235.747 269.775 234.3 271.821 238.675C273.868 243.051 271.117 246.377 271.117 246.377C271.117 246.377 273.907 245.06 274.832 249.536C275.757 254.011 271.057 257.98 271.057 257.98C271.057 257.98 273.588 258.289 272.284 261.603C270.98 264.917 266.859 264.985 266.859 264.985C266.859 264.985 268.452 265.799 265.423 268.524C262.393 271.249 252.649 267.356 252.649 267.356L235.985 251.505Z" fill="#17282F"/>
<path d="M247.908 244.377C238.596 244.865 235.859 250.008 235.679 259.64C235.455 271.679 238.559 280.06 250.069 276.889C265.7 272.583 263.373 243.568 247.908 244.377Z" fill="#C8685A"/>
<path d="M241.672 258.805C241.672 258.805 240.508 261.305 239.164 262.809C239.164 262.809 240.028 264.033 241.674 263.733L241.672 258.805Z" fill="#B5413C"/>
<path d="M247.332 257.745C247.355 258.511 247.785 259.12 248.296 259.105C248.807 259.091 249.203 258.457 249.181 257.692C249.159 256.925 248.727 256.317 248.216 256.332C247.705 256.347 247.309 256.979 247.332 257.745Z" fill="#17282F"/>
<path d="M248.43 256.363L246.745 255.757C246.745 255.757 247.616 257.135 248.43 256.363Z" fill="#17282F"/>
<path d="M237.805 257.861C237.828 258.627 238.26 259.236 238.771 259.221C239.281 259.207 239.677 258.573 239.655 257.808C239.633 257.041 239.201 256.432 238.691 256.448C238.18 256.463 237.784 257.095 237.805 257.861Z" fill="#17282F"/>
<path d="M238.904 256.479L237.22 255.873C237.22 255.873 238.089 257.251 238.904 256.479Z" fill="#17282F"/>
<path d="M251.201 252.901L250.908 252.772C249.564 251.288 247.184 251.692 247.16 251.7C246.941 251.733 246.739 251.595 246.699 251.38C246.66 251.164 246.803 250.959 247.017 250.92C247.132 250.897 249.853 250.424 251.496 252.24C251.643 252.401 251.631 252.653 251.468 252.8L251.201 252.901Z" fill="#17282F"/>
<path d="M236.628 252.625C236.507 252.625 236.388 252.571 236.309 252.467C236.179 252.291 236.216 252.043 236.391 251.912C238.524 250.327 240.341 250.87 240.417 250.891C240.627 250.956 240.743 251.179 240.677 251.388C240.612 251.598 240.393 251.715 240.184 251.649C240.121 251.631 238.657 251.213 236.864 252.548L236.628 252.625Z" fill="#17282F"/>
<path d="M258.907 259.541C258.907 259.541 254.153 252.117 254.503 246.176C254.503 246.176 235.655 239.603 235.724 258.381C235.724 258.381 233.051 241.844 249.04 240.635C265.004 239.428 266.187 262.851 258.284 270.261C258.284 270.261 261.852 264.185 258.907 259.541Z" fill="#17282F"/>
<path d="M257.489 261.587C257.473 260.084 258.888 257.465 261.692 257.623C264.595 257.787 266.28 263.64 259.176 265.44C258.156 265.697 257.523 264.721 257.489 261.587Z" fill="#C8685A"/>
<path d="M243.924 269.16C243.443 269.16 243.129 269.108 243.119 269.107C242.903 269.068 242.759 268.864 242.796 268.648C242.833 268.433 243.04 268.287 243.253 268.325C243.401 268.348 246.907 268.905 248.207 265.685C248.288 265.481 248.52 265.385 248.723 265.467C248.925 265.549 249.024 265.779 248.943 265.983C247.813 268.779 245.24 269.16 243.924 269.16Z" fill="#17282F"/>
<path d="M262.329 256.135C260.113 244.573 243.015 234.879 236.596 248.317C236.596 248.317 237.92 243.343 242.561 239.832C242.561 239.832 259.917 234.88 262.952 254.636L262.329 256.135Z" fill="#406FBF"/>
<path d="M253.222 478.76C246.542 478.76 245.66 478.657 241.906 478.531C240.205 478.469 239.189 478.553 238.226 478.637C237.37 478.712 236.557 478.786 235.341 478.76C233.184 478.714 233.264 476.648 233.929 474.272C234.262 473.079 234.776 470.556 235.234 468.628L245.021 467.917C246.398 470.545 249.505 474.295 253.27 474.8C256.862 475.283 255.886 478.76 253.222 478.76Z" fill="#17282F"/>
<path d="M221.651 334.969C221.651 334.969 208.263 354.795 215.547 371.083C222.832 387.371 259.315 380.022 259.315 380.022L235.235 468.628L246.763 470.545C246.763 470.545 287.601 382.715 288.643 367.74C289.685 352.765 245.592 343.153 245.592 343.153L221.651 334.969Z" fill="#406FBF"/>
<path d="M246.763 470.545H246.761L235.235 468.628L259.315 380.022C259.315 380.022 251.108 381.676 241.701 381.676C231.276 381.676 219.377 379.645 215.547 371.083C213.989 367.6 213.377 363.955 213.376 360.376C213.376 347.221 221.651 334.969 221.651 334.969L245.592 343.153C245.592 343.153 288.659 352.541 288.661 367.216C288.661 367.39 288.655 367.564 288.643 367.74C288.433 370.76 286.604 376.741 283.819 384.369C283.193 386.081 282.519 387.879 281.804 389.743C277.348 401.367 271.305 415.639 265.493 428.935C261.732 437.538 258.068 445.734 254.992 452.543C254.84 452.879 254.689 453.21 254.54 453.54C254.491 453.652 254.44 453.763 254.389 453.874C254.112 454.488 253.84 455.086 253.573 455.675C251.317 460.651 249.471 464.677 248.272 467.279C247.307 469.374 246.763 470.545 246.763 470.545Z" fill="#6D97D6"/>
<path d="M236.987 298.339C234.257 298.339 231.524 297.928 228.911 296.931C228.973 296.355 229.036 295.791 229.099 295.253C229.473 291.748 229.724 288.695 229.887 286.179C235.325 283.492 242.515 281.495 244.303 281.019L244.868 281.861L246.564 284.384C248.112 286.691 250.552 287.811 252.983 287.811C253.941 287.811 254.897 287.636 255.799 287.291C257.799 288.125 259.997 288.881 262.328 289.433C262.328 289.433 249.697 298.339 236.987 298.339Z" fill="#3563B7"/>
<path d="M252.983 287.811C250.552 287.811 248.112 286.691 246.564 284.384L244.868 281.861C245.211 281.847 245.547 281.819 245.876 281.777C247.612 283.02 251.181 285.367 255.799 287.291C254.897 287.636 253.941 287.811 252.983 287.811Z" fill="#995147"/>
<path d="M244.868 281.861L244.302 281.019C244.57 280.947 244.717 280.909 244.717 280.909C244.717 280.909 245.125 281.24 245.876 281.777C245.546 281.819 245.21 281.847 244.868 281.861Z" fill="#753E36"/>
<path d="M236.262 278.444C244.481 282.405 252.96 287.415 261.91 289.248C267.06 288.909 272.813 286.816 277.992 285.405L293.497 280.709C294.98 280.26 296.544 281.097 296.993 282.58C297.384 283.869 296.798 285.223 295.664 285.848C290.826 288.513 285.94 290.968 280.89 293.205C274.657 295.765 268.885 298.756 261.852 299.399C259.173 299.413 256.782 298.917 254.389 298.301C246.017 295.963 238.446 292.471 230.872 288.335C224.622 284.535 229.682 275.249 236.262 278.444Z" fill="#C8665A"/>
<path d="M231.92 276.964C224.74 278.671 224.493 291.011 231.095 296.787L247.089 283.283C247.089 283.283 240.445 274.939 231.92 276.964Z" fill="#406FBF"/>
<path d="M293.969 280.779L302.841 280.561L298.813 289.543C298.813 289.543 290.885 289.259 291.204 285.18L293.969 280.779Z" fill="#C8685A"/>
<path d="M310.457 284.949L304.373 291.496L298.813 289.543L302.841 280.561L310.457 284.949Z" fill="#C8685A"/>
<path d="M429.509 388.735C435.709 401.564 441.685 414.393 445.723 428.131C447.573 437.447 447.915 446.955 448.608 456.219C449.087 463.884 449.372 471.545 449.477 479.239L442.615 479.948C440.445 469.133 438.403 457.075 436.501 446.162C435.607 441.228 434.904 436.376 433.661 431.628C428.94 419.403 422.397 406.82 416.968 394.795L429.509 388.735Z" fill="#FFA2A4"/>
<path d="M439.745 405.524L428.879 410.777L422.133 414.044L418.04 404.204L413.76 393.897L417.372 375.11C428.467 379.91 439.745 405.524 439.745 405.524Z" fill="#406FBF"/>
<path d="M425.552 412.39C424.763 406.95 423.92 402.083 423.084 397.803C425.387 400.814 428.111 405.369 428.879 410.777L425.552 412.39Z" fill="#3563B7"/>
<path d="M396.261 340.996C396.384 341.791 396.905 342.369 397.424 342.289C397.944 342.208 398.265 341.499 398.141 340.704C398.019 339.909 397.497 339.331 396.979 339.411C396.459 339.492 396.137 340.201 396.261 340.996Z" fill="#17282F"/>
<path d="M396.832 342.381C396.832 342.381 399.349 346.685 401.683 348.588C400.48 350.119 397.996 349.889 397.996 349.889L396.832 342.381Z" fill="#F14453"/>
<path d="M392.667 337.035L392.352 336.895C392.169 336.708 392.172 336.409 392.357 336.227C394.219 334.392 396.352 334.833 396.444 334.853C396.699 334.909 396.86 335.16 396.804 335.415C396.748 335.669 396.493 335.829 396.244 335.776C396.175 335.761 394.505 335.436 393.02 336.899C392.923 336.996 392.795 337.04 392.667 337.035Z" fill="#17282F"/>
<path d="M398.811 353.044C398.717 354.217 398.477 355.337 398.117 356.404C397.437 358.391 396.331 360.164 394.931 361.604C393.437 363.137 391.611 364.297 389.624 364.977C385.957 366.231 381.757 365.844 378.064 363.097C372.357 358.857 371.611 353.084 369.504 343.417C367.384 333.751 375.811 324.897 385.811 327.257C395.971 329.671 399.544 343.951 398.811 353.044Z" fill="#FFA2A4"/>
<path d="M373.15 359.193C377.101 361.707 392.264 354.635 389.775 342.725C389.775 342.725 395.728 336.209 395.441 328.699C395.153 321.188 390.152 318.096 384.613 319.445C379.732 320.636 379.749 323.279 379.749 323.279C379.749 323.279 356.865 324.895 361.29 334.373C351.554 344.04 368.221 356.059 373.15 359.193Z" fill="#17282F"/>
<path d="M385.72 344.58C386.252 347.117 387.799 349.348 389.461 350.711C391.963 352.76 393.987 350.952 393.94 348.011C393.897 345.364 392.545 341.107 389.723 340.191C386.941 339.288 385.111 341.68 385.72 344.58Z" fill="#FFA2A4"/>
<path d="M394.008 362.469L390.767 358.549C391.303 358.637 391.885 358.695 392.493 358.695C394.325 358.695 396.392 358.175 398.117 356.404C397.437 358.391 396.331 360.164 394.931 361.604C394.636 361.908 394.328 362.196 394.008 362.469Z" fill="#C75B5B"/>
<path d="M376.4 371.399L374.692 359.699C374.692 359.699 382.307 354.407 390.275 357.953L402.237 372.419L376.4 371.399Z" fill="#FFA2A4"/>
<path d="M403.667 370.974L400.883 366.808C400.883 366.808 380.672 359.324 371.86 368.908C371.86 368.908 391.568 379.333 403.667 370.974Z" fill="#406FBF"/>
<path d="M403.228 370.319C397.711 368.965 390.953 367.853 383.645 367.853C380.021 367.853 376.26 368.127 372.448 368.781C372.259 368.814 372.071 368.847 371.883 368.883C375.323 365.162 380.487 364.027 385.509 364.027C393.371 364.027 400.883 366.808 400.883 366.808L403.228 370.319Z" fill="#3563B7"/>
<path d="M326.053 484.353L318.444 479.444L321.36 475.092L329.301 463.252L336.917 468.152L328.148 481.235L326.053 484.353Z" fill="#FFA2A4"/>
<path d="M318.964 478.816L329.568 478.716C329.925 478.714 330.237 478.96 330.317 479.308L332.113 487.064C332.267 487.759 331.828 488.447 331.135 488.6L330.851 488.631C327.419 488.608 324.919 488.421 320.611 488.462C317.957 488.488 309.953 488.841 306.289 488.876C302.625 488.91 302.113 485.296 303.609 484.948C310.324 483.419 315.368 481.338 317.504 479.385C317.899 479.016 318.423 478.812 318.964 478.816Z" fill="#17282F"/>
<path d="M321.048 472.141L335.005 475.904L410.711 418.455L371.871 409.957C366.173 408.71 360.301 411.137 357.145 416.043L321.048 472.141Z" fill="#17282F"/>
<path d="M335.005 475.904L332.224 475.153L322.989 472.664L321.048 472.141L357.145 416.043C359.656 412.14 363.885 409.807 368.38 409.644C372.291 425.42 374.099 438.593 375.316 445.314L356.362 459.696L335.005 475.904Z" fill="#111D23"/>
<path d="M279.665 484.633L271.805 480.137L274.486 475.636L281.786 463.391L289.652 467.879L281.59 481.409L279.665 484.633Z" fill="#FFA2A4"/>
<path d="M272.113 478.638H282.717C283.075 478.639 283.384 478.888 283.461 479.238L285.183 487.011C285.329 487.705 284.885 488.39 284.189 488.538L283.905 488.564C280.475 488.51 277.976 488.299 273.668 488.299C271.013 488.299 263.007 488.576 259.343 488.576C255.679 488.576 255.201 484.956 256.7 484.623C263.429 483.157 268.493 481.124 270.647 479.192C271.047 478.827 271.571 478.627 272.113 478.638Z" fill="#17282F"/>
<path d="M428.973 448.619C413.025 448.656 383.808 448.724 376.045 448.753C374.741 444.057 373.025 427.732 367.847 407.531C366.456 402.047 364.793 396.288 362.824 390.381C360.677 383.964 359.876 381.3 356.911 374.765C356.911 374.765 364.001 370.229 372.448 368.781C395.88 364.762 417.373 375.104 417.373 375.104C417.373 375.104 426.669 400.931 428.973 448.619Z" fill="#406FBF"/>
<path d="M367.847 407.531C366.456 402.047 364.793 396.288 362.824 390.381L366.527 388.89C366.527 388.89 372.264 401.992 367.847 407.531Z" fill="#3563B7"/>
<path d="M344.699 416.597L350.836 419.504L353.191 409.151C353.191 409.151 348.283 407.439 344.601 409.94L344.699 416.597Z" fill="#FFA2A4"/>
<path d="M359.651 423.003L359.936 413.573L353.191 409.151L350.836 419.504L359.651 423.003Z" fill="#FFA2A4"/>
<path d="M363.857 390.929C353.621 396.465 341.941 401.541 333.052 408.838C332.849 409.005 332.917 409.087 333.141 408.315C333.144 408.177 333.222 407.591 332.96 406.853C332.708 406.112 332.186 405.672 332.042 405.632C331.872 405.569 331.97 405.726 332.213 405.883C332.452 406.048 332.832 406.227 333.262 406.412C337.37 407.962 343.069 408.481 347.673 409.056L348.365 415.92C346.901 416.336 345.548 416.615 344.12 416.891C338.744 417.809 333.257 418.453 327.638 416.607C322.84 415.121 319.528 409.895 321.068 404.82C323.812 395.071 348.668 382.907 357.782 378.395L363.857 390.929Z" fill="#FFA2A4"/>
<path d="M373.54 437.483L371.18 443.563C371.18 443.563 342.813 408.526 327.116 406.523C311.418 404.52 275.112 471.115 275.112 471.115L288.898 475.292L327.692 440.088C343.737 468.01 362.824 488.491 385.573 488.491C394.016 488.491 401.797 488.491 407.785 488.491C432.629 488.491 432.901 460.774 428.004 437.286L373.54 437.483Z" fill="#17282F"/>
<path d="M356.911 374.765C348.019 378.02 337.562 387.886 337.562 387.886C337.562 387.886 346.361 403.136 347.236 402.553C348.112 401.971 366.171 396.786 366.171 396.786C366.171 396.786 369.852 392.024 367.026 383.943C364.2 375.861 356.911 374.765 356.911 374.765Z" fill="#406FBF"/>
<path d="M446.213 474.633L455.876 475.114L450.773 484.553C450.773 484.553 442.177 483.604 442.852 479.196L446.213 474.633Z" fill="#FFA2A4"/>
<path d="M463.803 480.497L456.66 487.124L450.773 484.553L455.876 475.114L463.803 480.497Z" fill="#FFA2A4"/>
<path d="M146.621 379.025C153.105 385.547 159.489 392.871 167.252 397.816L167.776 398.114C167.612 398.047 167.24 397.984 167.121 398C166.917 398.033 167.233 398.052 167.584 397.986C176.437 395.48 184.665 389.707 192.82 385.279C195.849 383.448 198.996 387.553 196.453 389.998C190.103 395.872 172.999 411.59 164.013 408.3C158.524 406.28 153.94 402.504 149.615 398.86C145.339 395.157 141.479 391.32 137.707 387.102C132.625 381.057 141.101 373.368 146.621 379.025Z" fill="#FFC598"/>
<path d="M157.773 388.252C156.635 396.725 149.751 405.048 149.751 405.048L148.336 404.109L141.315 399.453C141.315 399.453 141.189 399.053 140.989 398.352C140.789 397.715 140.539 396.825 140.227 395.749C138.612 390.104 135.708 379.529 135.345 375.136C144.056 374.822 147.973 378.965 157.773 388.252Z" fill="#406FBF"/>
<path d="M149.751 405.048L148.336 404.109C148.249 401.325 147.469 399.007 146.493 397.168C146.536 396.46 146.58 395.768 146.641 395.045C146.679 394.609 146.696 394.167 146.696 393.72C146.691 387.017 142.565 379.351 136.147 377.683C135.991 377.643 135.836 377.604 135.68 377.564C135.517 376.635 135.401 375.812 135.345 375.136C135.649 375.124 135.949 375.119 136.243 375.119C144.339 375.119 148.316 379.291 157.773 388.252C157.696 388.828 157.592 389.404 157.465 389.975C156.515 394.275 154.288 398.388 152.471 401.229C151.309 403.044 150.316 404.339 149.927 404.831C149.813 404.973 149.751 405.048 149.751 405.048Z" fill="#B8D2EF"/>
<path d="M148.336 404.109L146.083 402.615C146.315 400.392 146.399 398.743 146.493 397.168C147.469 399.007 148.249 401.326 148.336 404.109Z" fill="#8FA5CB"/>
<path d="M139.8 430.056L145.783 440.541C161.819 436.807 213.223 428.965 219.535 446.602C227.38 468.519 170.684 485.991 139.305 487.061C107.927 488.131 80.5629 480.653 100.4 434.91L139.8 430.056Z" fill="#17282F"/>
<path d="M133.991 487.155C112.205 487.155 93.6631 482.027 93.6746 461.232C93.6787 454.32 95.7328 445.674 100.401 434.91L101.027 434.833L118.285 436.831L125.484 444.814C125.379 444.81 125.273 444.81 125.17 444.81C124.889 444.81 124.615 444.816 124.348 444.828C105.326 445.71 102.581 462.481 110.43 472.977C118.278 483.474 132.77 486.029 132.77 486.029C132.77 486.029 122.903 472.084 124.33 468.163C124.706 467.128 125.371 466.747 126.147 466.747C128.313 466.747 131.338 469.712 131.338 469.712C131.338 469.712 142.387 473.28 157.467 476.851L158.307 480.44L164.311 479.162L166.08 478.784C166.104 478.789 166.128 478.795 166.152 478.798L166.599 480.32L170.312 480.588L170.121 479.614C172.188 480.024 174.284 480.42 176.404 480.796C163.461 484.455 149.931 486.699 139.305 487.062C137.519 487.121 135.744 487.155 133.991 487.155ZM195.792 473.444C191.139 470.9 181.007 465.474 169.545 460.021C172.735 461.257 176.036 462.686 179.417 464.339C179.417 464.339 207.272 452.833 209.831 443.275C210.628 440.298 207.423 438.583 202.079 437.696L202.333 436.54C210.916 437.941 217.521 440.975 219.535 446.602C220.033 447.993 220.271 449.367 220.272 450.719C220.272 451.671 220.156 452.61 219.929 453.54C219.903 453.651 219.873 453.763 219.844 453.874C217.868 461.138 209.236 467.689 197.8 473.02L196.265 471.988L195.792 473.444ZM147.565 440.293L147.601 440.133C150.075 439.598 153.135 439.008 156.587 438.433L156.419 439.189C152.515 439.639 149.392 440.047 147.565 440.293ZM140.812 433.333C140.888 432.959 140.961 432.586 141.035 432.221L141.552 433.127C141.379 433.157 141.207 433.2 141.037 433.257L140.812 433.333Z" fill="#111D23"/>
<path d="M210.717 477.007C211.695 476.576 212.488 475.814 212.953 474.852C213.008 474.59 212.904 474.32 212.688 474.161L212.441 474.09L212.199 474.229C211.541 475.057 211.04 475.998 210.717 477.007ZM210.448 477.585L210.217 477.573L210.163 477.379C210.265 477.031 211.304 474.014 212.356 473.696C212.583 473.641 212.821 473.71 212.981 473.879C213.28 474.125 213.421 474.512 213.355 474.892C213.184 475.456 212.84 475.952 212.371 476.309C211.775 476.798 211.131 477.227 210.448 477.585Z" fill="#17282F"/>
<path d="M209.569 474.04C209.437 474.153 209.349 474.308 209.317 474.479C209.167 475.26 209.895 476.431 210.288 476.992C210.527 475.947 210.449 474.231 210.004 473.923C209.956 473.897 209.865 473.825 209.641 473.983L209.569 474.04ZM210.392 477.624L210.196 477.567C210.099 477.483 208.651 475.655 208.889 474.42C208.947 474.11 209.127 473.837 209.388 473.664C209.615 473.445 209.963 473.414 210.225 473.585C210.984 474.12 210.891 476.567 210.519 477.495L210.492 477.586L210.392 477.624Z" fill="#17282F"/>
<path d="M155.332 483.364C154.684 484.213 154.36 485.265 154.419 486.332C154.499 486.588 154.72 486.773 154.985 486.808L155.236 486.752L155.38 486.512C155.555 485.468 155.539 484.403 155.332 483.364ZM155.287 482.728L155.495 482.626L155.637 482.769C155.716 483.124 156.268 486.268 155.501 487.053C155.329 487.212 155.087 487.267 154.864 487.197C154.485 487.126 154.173 486.857 154.048 486.492C153.924 485.916 153.985 485.315 154.223 484.776C154.508 484.059 154.864 483.373 155.287 482.728Z" fill="#17282F"/>
<path d="M175.825 466.85L162.917 471.448L156.717 473.655L158.307 480.44L164.311 479.162L178.976 476.036L175.825 466.85Z" fill="#FFC598"/>
<path d="M159.997 480.76L158.911 472.755C158.851 472.309 158.433 472.002 157.988 472.075L154.04 472.733C154.04 472.733 148.665 473.238 147.597 474.616C144.476 478.644 146.427 496.409 148.507 497.035C149.267 497.264 150.072 496.22 150.403 495.498C151.455 493.21 153.307 487.221 154.208 485.324C155.26 483.104 158.147 482.017 159.444 481.629C159.819 481.517 160.051 481.148 159.997 480.76Z" fill="#406FBF"/>
<path d="M157.773 485.405C157.832 485.241 157.834 485.064 157.781 484.898C157.534 484.143 156.33 483.469 155.716 483.169C156.012 484.198 156.91 485.664 157.449 485.719C157.504 485.717 157.617 485.736 157.737 485.489L157.773 485.405ZM155.317 482.667L155.516 482.621C155.642 482.648 157.796 483.547 158.184 484.743C158.284 485.04 158.257 485.367 158.112 485.647C158.02 485.947 157.732 486.143 157.418 486.12C156.497 486.02 155.393 483.833 155.269 482.841L155.248 482.748L155.317 482.667Z" fill="#17282F"/>
<path d="M164.311 479.162L164.169 478.375C164.8 478.512 165.439 478.648 166.08 478.784L164.311 479.162Z" fill="#C4824E"/>
<path d="M166.599 480.32L170.312 480.588L167.825 467.815L163.613 470.144L166.599 480.32Z" fill="#406FBF"/>
<path d="M170.312 480.588L166.599 480.32L166.152 478.799C167.459 479.076 168.784 479.348 170.121 479.614L170.312 480.588Z" fill="#A4C3E9"/>
<path d="M179.417 464.339C176.036 462.686 172.735 461.257 169.545 460.021C159.457 455.223 148.339 450.404 139.016 447.514H153.876H195.753C196.535 447.514 197.464 447.197 197.516 446.432H198.128C199.237 446.432 200.337 445.612 200.583 444.483L202.079 437.696C207.423 438.583 210.628 440.298 209.831 443.275C207.272 452.833 179.417 464.339 179.417 464.339ZM130.464 445.35C128.645 445.022 126.973 444.836 125.484 444.814L118.285 436.831L118.589 436.865C120.854 437.668 123.137 438.419 125.403 439.184C127.907 439.936 130.382 440.677 132.93 441.319C134.284 442.157 135.805 442.759 137.203 443.186H130.464V445.35ZM155.532 443.186H146.791C146.928 442.945 147.033 442.677 147.097 442.388L147.565 440.293C149.392 440.047 152.515 439.639 156.419 439.189L155.532 443.186Z" fill="#0C161A"/>
<path d="M139.6 439.296L100.167 434.734C100.873 430.988 101.356 427.021 101.529 422.401C101.704 417.447 101.515 411.75 100.841 404.743C100.298 399.126 99.4452 392.676 98.2083 385.098C97.2431 379.112 101.549 373.968 107.459 374.052C109.044 374.08 110.71 374.139 112.419 374.252C119.066 374.693 124.517 375.112 130.334 376.32C132.252 376.717 134.239 377.197 136.147 377.683C142.993 379.463 147.229 388.065 146.641 395.045C146.312 398.938 146.463 401.945 144.849 411.136C143.64 418.932 142.212 426.576 139.6 439.296Z" fill="#406FBF"/>
<path d="M118.589 436.865L100.167 434.734C100.59 432.492 100.932 430.172 101.176 427.679C101.601 428.128 102.008 428.495 102.305 428.741C107.24 432.48 112.858 434.836 118.589 436.865ZM134.936 435.448L128.329 432.043C122.322 428.853 115.977 425.798 110.582 421.784C110.194 421.472 109.828 421.16 109.552 420.892C109.297 419.431 109.091 417.824 108.92 416.12C115.356 406.726 110.441 394.092 110.441 394.092C110.441 394.092 110.441 394.092 110.44 394.093C110.261 387.385 109.06 378.248 104.164 374.586C104.038 374.632 103.914 374.679 103.791 374.725C104.866 374.291 106.053 374.052 107.315 374.052C107.364 374.052 107.411 374.052 107.459 374.052C109.044 374.08 110.71 374.138 112.419 374.252C113.495 374.322 114.54 374.395 115.56 374.468C115.207 375.017 114.798 375.492 114.33 375.874C114.33 375.874 114.34 375.874 114.36 375.874C114.812 375.874 120.34 376.048 130.641 384.188C134.552 379.764 132.236 377.943 132.236 377.943C130.793 377.423 129.695 376.774 128.876 376.032C129.36 376.122 129.846 376.219 130.334 376.32C132.252 376.717 134.239 377.197 136.147 377.683C142.565 379.35 146.691 387.017 146.696 393.72C146.696 394.167 146.679 394.609 146.641 395.045C146.58 395.768 146.536 396.46 146.493 397.168C146.399 398.743 146.315 400.392 146.083 402.614C146.048 402.947 146.011 403.292 145.968 403.65C145.925 404.026 145.877 404.42 145.824 404.831C145.6 406.565 145.291 408.619 144.849 411.136C143.841 417.632 142.683 424.024 140.812 433.333L136.105 434.919C135.695 435.057 135.304 435.234 134.936 435.448ZM109.285 420.617C109.18 420.493 109.116 420.388 109.126 420.388C109.133 420.388 109.175 420.437 109.262 420.562L109.285 420.617Z" fill="#B8D2EF"/>
<path d="M108.92 416.12C108.477 411.689 108.279 406.617 108.123 401.828C109.407 401.912 110.227 401.926 110.227 401.926C110.227 401.926 110.465 399.5 110.465 396.052C110.465 395.429 110.458 394.775 110.44 394.093C110.441 394.092 110.441 394.092 110.441 394.092C110.441 394.092 115.356 406.727 108.92 416.12Z" fill="#8FA5CB"/>
<path d="M107.757 391.907C108.21 400.348 108.135 413.479 109.672 421.553L109.262 420.562C108.994 420.176 109.155 420.514 109.434 420.774C109.717 421.067 110.136 421.424 110.582 421.784C115.976 425.798 122.322 428.853 128.329 432.043L135.921 435.955C137.408 436.704 138.001 438.526 137.237 440.007C136.592 441.26 135.184 441.864 133.873 441.549C130.99 440.86 128.215 440.029 125.403 439.184C117.405 436.484 109.19 433.957 102.305 428.741C101.479 428.055 99.7869 426.432 99.2786 424.698C96.2005 413.768 95.9604 403.21 95.7302 392.065C96.0197 384.286 107.266 384.137 107.757 391.907Z" fill="#FFC598"/>
<path d="M146.557 435.468L144.157 433.732C143.256 433.079 142.093 432.901 141.037 433.257L136.105 434.919C134.132 435.584 132.604 437.161 132.003 439.155L131.632 440.388C135.415 443.54 141.825 444.16 141.825 444.16L143.633 444.538C145.243 444.876 146.751 443.94 147.097 442.388L147.896 438.816C148.171 437.583 147.639 436.25 146.557 435.468Z" fill="#FFC598"/>
<path d="M104.164 374.586C96.4484 377.347 94.2437 384.074 94.0854 398.092C98.089 401.723 110.228 401.926 110.228 401.926C110.228 401.926 112.309 380.679 104.164 374.586Z" fill="#406FBF"/>
<path d="M197.517 443.186V446.364C197.517 447.179 196.557 447.514 195.753 447.514H132.261C131.446 447.514 130.464 447.179 130.464 446.364V443.186H197.517Z" fill="#17282F"/>
<path d="M153.876 447.514H139.016C135.936 446.557 133.051 445.814 130.464 445.35V443.186H155.532H152.094V446.364C152.094 447.179 153.062 447.514 153.876 447.514Z" fill="#6C7A7F"/>
<path d="M195.753 447.514H153.876C153.062 447.514 152.094 447.179 152.094 446.364V443.186H155.532L155.29 444.276C155.034 445.405 155.741 446.432 156.841 446.432H158.245H197.516C197.464 447.197 196.534 447.514 195.753 447.514Z" fill="#535F64"/>
<path d="M208.141 410.2L200.583 444.483C200.337 445.612 199.237 446.432 198.128 446.432H156.841C155.741 446.432 155.035 445.405 155.291 444.276L162.839 410.256C163.095 409.136 164.184 408.579 165.292 408.579H206.581C207.689 408.579 208.387 409.08 208.141 410.2Z" fill="#17282F"/>
<path d="M198.128 446.432H158.245C157.136 446.432 156.439 445.405 156.684 444.276L164.243 410.256C164.488 409.136 165.587 408.579 166.697 408.579H206.581C207.537 408.579 208.188 408.953 208.191 409.775C208.191 409.905 208.175 410.047 208.141 410.2L202.868 434.119L200.583 444.483C200.337 445.612 199.237 446.432 198.128 446.432ZM184.524 422.324C182.267 422.412 179.972 424.757 179.313 427.635C178.656 430.569 180.024 432.955 182.331 432.955C184.637 432.955 187.784 430.569 187.784 427.635V427.624L187.573 427.635C185.276 427.635 183.867 425.259 184.524 422.324Z" fill="#6C7A7F"/>
<path d="M182.331 432.955C180.024 432.955 178.656 430.569 179.313 427.635C179.972 424.757 182.267 422.412 184.524 422.324C183.867 425.259 185.276 427.635 187.573 427.635L187.784 427.624V427.635C187.784 430.569 184.637 432.955 182.331 432.955Z" fill="#535F64"/>
<path d="M194.336 391.105L203.208 391.329L199.189 382.345C199.189 382.345 191.261 382.623 191.576 386.702L194.336 391.105Z" fill="#FFC598"/>
<path d="M210.829 386.948L204.749 380.396L199.189 382.345L203.208 391.329L210.829 386.948Z" fill="#FFC598"/>
<path d="M110.403 374.143C109.492 374.079 112.271 385.2 125.727 387.949C139.184 390.697 138.162 378.312 137.102 375.209C137.102 375.209 119.401 374.774 110.403 374.143Z" fill="#FFC598"/>
<path d="M114.096 330.605C114.096 330.605 121.812 322.045 135.932 326.455C150.051 330.863 149.448 356.079 142.284 365.215C142.284 365.215 126.111 364.287 108.842 368.341C108.842 368.341 102.042 350.063 105.414 339.319C108.785 328.576 114.096 330.605 114.096 330.605Z" fill="#17282F"/>
<path d="M116.929 355.743C117.823 361.684 118.518 372.463 114.33 375.875C114.33 375.875 119.882 375.685 130.641 384.188C134.552 379.764 132.236 377.943 132.236 377.943C125.874 375.653 126.235 370.864 127.537 366.479L116.929 355.743Z" fill="#FFC598"/>
<path d="M126.851 369.615C126.85 369.615 126.849 369.615 126.848 369.615C126.857 369.541 126.867 369.468 126.877 369.395C126.868 369.468 126.859 369.541 126.851 369.615Z" fill="#B6B8B6"/>
<path d="M126.848 369.615C124.409 368.972 121.149 365.867 120.994 363.244C120.917 361.937 121.02 360.701 121.254 360.123L126.609 365.539L126.668 365.597L127.533 366.473C127.243 367.437 127.004 368.421 126.877 369.395C126.867 369.468 126.857 369.541 126.848 369.615Z" fill="#C4824E"/>
<path d="M113.344 343.611C114.019 353.116 114.104 357.143 118.897 362.217C126.107 369.852 137.488 367.568 139.632 358.204C141.561 349.776 140.135 335.648 130.903 331.469C121.807 327.352 112.67 334.105 113.344 343.611Z" fill="#FFC598"/>
<path d="M125.047 346.532C125.069 347.332 125.499 347.999 126.007 348.02C126.515 348.04 126.91 347.409 126.887 346.609C126.865 345.808 126.435 345.143 125.927 345.121C125.419 345.101 125.025 345.732 125.047 346.532Z" fill="#17282F"/>
<path d="M134.957 346.639C134.979 347.439 135.409 348.104 135.917 348.125C136.425 348.147 136.82 347.515 136.797 346.715C136.776 345.915 136.345 345.248 135.837 345.228C135.329 345.207 134.935 345.837 134.957 346.639Z" fill="#17282F"/>
<path d="M135.615 345.263L137.467 344.785C137.467 344.785 136.549 346.247 135.615 345.263Z" fill="#17282F"/>
<path d="M131.984 348.272C131.984 348.272 133.399 351.771 134.897 353.493C133.897 354.437 132.14 353.913 132.14 353.913L131.984 348.272Z" fill="#EF7937"/>
<path d="M123.447 341.457C123.568 341.473 123.691 341.44 123.787 341.356C125.276 340.032 126.912 340.541 126.931 340.547C127.173 340.624 127.423 340.491 127.484 340.243C127.545 339.996 127.395 339.731 127.149 339.651C127.064 339.624 125.011 338.983 123.162 340.625C122.978 340.789 122.969 341.087 123.141 341.288L123.447 341.457Z" fill="#17282F"/>
<path d="M138.869 341.539L139.204 341.495C139.415 341.369 139.476 341.083 139.339 340.856C137.964 338.581 135.855 338.401 135.765 338.395C135.513 338.377 135.308 338.571 135.307 338.831C135.307 339.089 135.509 339.313 135.761 339.333C135.844 339.339 137.479 339.503 138.572 341.312L138.869 341.539Z" fill="#17282F"/>
<path d="M125.704 345.157L127.556 344.68C127.556 344.68 126.64 346.141 125.704 345.157Z" fill="#17282F"/>
<path d="M115.321 349.307C115.321 349.307 122.658 343.552 120.99 334.533C120.99 334.533 134.104 329.357 139.277 342.584C139.277 342.584 140.38 331.273 128.04 329.056C115.699 326.839 101.109 343.571 115.085 356.247L115.321 349.307Z" fill="#17282F"/>
<path d="M110.315 351.284C111.396 353.253 113.192 354.512 114.853 354.965C117.351 355.647 118.467 353.188 117.662 350.655C116.936 348.373 114.763 345.271 112.309 345.715C109.891 346.152 109.08 349.033 110.315 351.284Z" fill="#FFC598"/>
<path d="M140.719 348.137L140.459 347.941C135.747 331.367 120.214 334.775 120.057 334.809C119.908 334.847 119.766 334.753 119.732 334.608C119.698 334.461 119.789 334.317 119.934 334.283C120.095 334.243 136.127 330.727 140.979 347.792C141.02 347.937 140.936 348.085 140.793 348.127L140.719 348.137Z" fill="#17282F"/>
<path d="M132.595 356.675C132.032 357.84 131.454 360.033 131.454 360.033C131.246 360.017 131.038 360 130.831 359.973C128.015 359.679 126.805 358.611 126.319 357.517C126.055 356.919 126.014 356.304 126.047 355.811C126.078 355.239 126.23 354.839 126.23 354.839C127.63 355.887 130.235 356.364 131.636 356.56C132.223 356.648 132.595 356.675 132.595 356.675Z" fill="#17282F"/>
<path d="M131.636 356.56L131.274 357.542C128.622 357.258 126.793 356.701 126.047 355.811C126.078 355.239 126.23 354.839 126.23 354.839C127.63 355.887 130.235 356.364 131.636 356.56Z" fill="white"/>
<path d="M130.831 359.973C128.015 359.679 126.805 358.611 126.319 357.517C127.275 357.655 128.412 357.927 129.382 358.464C130.124 358.872 130.56 359.428 130.831 359.973Z" fill="#F14453"/>
<path d="M130.372 401.104L130.142 401.002C118.202 387.996 114.53 374.62 114.494 374.487C114.449 374.32 114.548 374.148 114.715 374.104C114.88 374.055 115.054 374.159 115.098 374.326C115.133 374.455 118.698 387.417 130.236 400.176C131.036 397.492 134.363 384.841 129.364 375.139C129.285 374.986 129.346 374.796 129.499 374.717C129.649 374.639 129.841 374.697 129.92 374.852C135.639 385.948 130.719 400.744 130.669 400.891L130.437 401.097L130.372 401.104Z" fill="#17282F"/>
<path d="M130.78 400.539L131.799 401.836C131.982 402.068 131.984 402.393 131.804 402.628L130.777 403.968C130.529 404.291 130.046 404.307 129.778 404L128.819 402.907C128.631 402.692 128.606 402.38 128.758 402.138L129.725 400.596C129.963 400.216 130.504 400.188 130.78 400.539Z" fill="white"/>
<path d="M110.228 401.926C110.228 401.926 109.407 401.912 108.123 401.828C105.079 401.628 99.4292 401.033 95.912 399.291C95.2036 398.94 94.5817 398.543 94.0854 398.092C94.2437 384.074 96.4484 377.347 104.164 374.586C109.557 378.62 110.467 389.297 110.466 396.052C110.465 399.5 110.228 401.926 110.228 401.926Z" fill="#B8D2EF"/>
<path d="M184.791 481.537L198.312 483.763L204.805 484.832L206.699 478.124L200.825 476.339L186.481 471.973L184.791 481.537Z" fill="#FFC598"/>
<path d="M205.375 477.026L202.451 484.556C202.287 484.977 202.504 485.448 202.928 485.598L206.701 486.935C206.701 486.935 211.649 489.095 213.251 488.405C217.931 486.393 224.825 469.901 223.308 468.348C222.753 467.78 221.543 468.305 220.905 468.774C218.877 470.268 214.357 474.612 212.651 475.836C210.655 477.268 207.603 476.822 206.279 476.535C205.897 476.45 205.516 476.661 205.375 477.026Z" fill="#406FBF"/>
<path d="M198.312 483.762L197.233 483.585L199.001 475.784L200.825 476.338L198.312 483.762Z" fill="#C4824E"/>
<path d="M198.497 474.938C198.497 474.938 143.369 443.947 124.348 444.828C105.326 445.711 102.581 462.481 110.43 472.977C118.278 483.474 132.77 486.029 132.77 486.029C132.77 486.029 122.903 472.084 124.33 468.163C125.755 464.24 131.338 469.712 131.338 469.712C131.338 469.712 166.02 480.914 196.359 483.484L198.497 474.938Z" fill="#17282F"/>
<path d="M199.385 474.086L196.265 471.988L192.257 484.303H197.071L199.385 474.086Z" fill="#406FBF"/>
<path d="M197.071 484.303H192.257L196.265 471.988L199.385 474.086L199.001 475.784L197.233 483.586L197.071 484.303Z" fill="#A4C3E9"/>
<mask id="mask0_513_7733" style="mask-type:luminance" maskUnits="userSpaceOnUse" x="430" y="70" width="59" height="59">
<path d="M489 70H430V129H489V70Z" fill="white"/>
</mask>
<g mask="url(#mask0_513_7733)">
<path d="M460 125.625C474.428 125.625 486.125 113.928 486.125 99.5C486.125 85.0716 474.428 73.375 460 73.375C445.572 73.375 433.875 85.0716 433.875 99.5C433.875 113.928 445.572 125.625 460 125.625Z" fill="#EDEDEB" stroke="#DADBD8" stroke-width="4"/>
<mask id="mask1_513_7733" style="mask-type:luminance" maskUnits="userSpaceOnUse" x="444" y="79" width="40" height="41">
<path d="M483.659 79.6638H444.82V119.787H483.659V79.6638Z" fill="white"/>
</mask>
<g mask="url(#mask1_513_7733)">
<path d="M460.212 106.715C462.639 100.607 458.258 92.9622 447.298 93.6436C446.676 104.875 453.67 108.506 460.212 106.715Z" fill="#DADBD8" stroke="#DADBD8" stroke-width="2" stroke-linecap="round" stroke-linejoin="round"/>
<path d="M452.74 99.0488L460.329 106.64" stroke="white" stroke-linecap="round" stroke-linejoin="round"/>
<mask id="mask2_513_7733" style="mask-type:luminance" maskUnits="userSpaceOnUse" x="437" y="79" width="40" height="41">
<path d="M437.34 79.6638H476.179V119.787H437.34V79.6638Z" fill="white"/>
</mask>
<g mask="url(#mask2_513_7733)">
<path d="M460.786 106.715C458.359 100.607 462.741 92.9622 473.7 93.6436C474.323 104.875 467.328 108.506 460.786 106.715Z" fill="#C1C1C1" stroke="#C1C1C1" stroke-width="2" stroke-linecap="round" stroke-linejoin="round"/>
<path d="M468.26 99.0496L460.001 107" stroke="white" stroke-linecap="round" stroke-linejoin="round"/>
</g>
</g>
</g>
</g>
<defs>
<clipPath id="clip0_513_7733">
<rect width="666.667" height="497.067" fill="white" transform="translate(0.333252)"/>
</clipPath>
</defs>
</svg>
