<svg width="100%" height="100%" viewBox="0 0 620 513" fill="none" xmlns="http://www.w3.org/2000/svg">
<path d="M512.264 124.884C504.485 129.131 500.379 139.427 500.163 155.122C499.947 167.073 501.604 167.217 511.183 156.274C522.059 143.818 526.597 130.715 521.627 125.82C519.682 123.876 514.929 123.372 512.264 124.884ZM518.386 127.619C520.186 129.419 520.33 134.027 518.746 138.419C517.377 142.307 512.192 149.938 507.582 154.978L503.909 158.937L504.269 151.378C504.917 139.139 507.87 131.435 513.272 127.835C516.225 125.82 516.585 125.82 518.386 127.619Z" fill="#1F2937"/>
<path d="M472.793 150.874C467.823 155.77 468.471 169.809 474.521 188.6C476.61 195.007 476.826 195.367 478.555 195.151C480.211 194.935 480.716 194.215 482.156 189.896C485.109 181.256 486.838 172.833 486.91 166.497C487.126 155.554 484.245 150.154 477.835 149.434C475.026 149.074 474.305 149.29 472.793 150.874ZM479.707 153.394C483.669 157.786 484.173 167.145 481.148 179.528C480.067 183.848 478.987 187.376 478.699 187.376C478.123 187.376 476.682 182.84 474.737 174.777C473.081 167.937 473.081 157.498 474.665 154.402C476.106 151.81 477.907 151.45 479.707 153.394Z" fill="#1F2937"/>
<path d="M508.662 180.824C503.333 183.344 497.931 190.111 492.168 201.703C488.783 208.326 483.813 220.061 483.813 221.285C483.813 223.949 495.482 218.622 504.701 211.782C515.361 203.862 520.115 196.663 520.187 188.311C520.187 184.424 519.899 183.56 518.314 181.976C515.865 179.528 512.264 179.096 508.662 180.824ZM515.217 183.848C518.746 187.735 515.289 197.527 507.798 204.798C503.261 209.262 490.08 218.046 489.72 216.966C489.287 215.742 497.787 198.751 501.604 193.063C505.637 187.088 510.463 182.336 512.48 182.336C513.272 182.336 514.425 182.984 515.217 183.848Z" fill="#1F2937"/>
<path d="M141.807 156.548C125.305 159.035 116.922 161.392 105.396 166.825C94.7872 171.866 87.5181 176.972 79.2011 185.219C67.6098 196.675 61.2575 207.672 57.1972 223.514C55.7565 229.012 55.2326 232.809 55.1671 237.587L55.0361 244.133L84.0472 244.33L112.993 244.461V239.748C113.058 221.092 123.995 205.839 140.891 200.864C145.606 199.49 155.691 199.293 160.799 200.537C166.103 201.846 173.307 205.316 177.826 208.785C181.166 211.338 188.959 219.913 188.959 221.026C188.959 221.222 186.798 221.484 184.113 221.681C172.783 222.401 164.925 230.78 165.514 241.384L165.71 244.788L220.655 244.984C260.668 245.05 275.795 244.919 276.45 244.395C277.891 243.217 277.629 234.314 276.057 229.274C272.783 218.604 262.829 213.956 252.94 218.473L249.207 220.175V216.117C249.142 207.149 245.737 197.264 240.694 191.831C234.997 185.678 225.239 182.928 217.118 185.154L213.517 186.136L212.272 184.368C209.849 181.03 201.074 172.717 196.883 169.902C186.928 163.159 173.831 158.381 161.126 156.81C155.56 156.155 145.344 155.959 141.807 156.548ZM169.181 159.952C179.135 162.439 189.483 167.414 196.883 173.24C204.086 178.87 211.683 187.445 209.98 188.034C209.522 188.165 208.147 189.213 206.902 190.26L204.676 192.224L201.598 189.671C187.452 178.15 172.063 171.8 153.464 169.771C137.616 168.134 120.131 171.931 106.313 180.114C86.4703 191.962 72.1939 214.284 69.9019 237.26L69.4434 242.17L64.2699 242.366C61.3884 242.497 58.8344 242.301 58.507 241.973C57.6556 241.122 59.0309 229.34 60.6681 223.121C67.0204 198.704 82.8029 180.179 106.706 168.854C117.053 163.945 129.299 160.148 139.45 158.708C146.326 157.726 163.025 158.446 169.181 159.952ZM154.25 172.062C168.134 173.044 185.684 180.375 198.258 190.522L202.711 194.122L200.353 197.657L197.93 201.257L194.918 198.704C183.196 188.951 170.491 184.696 153.268 184.761C136.634 184.827 120.589 189.867 108.802 198.77C98.2581 206.69 90.1376 220.633 88.1075 234.314C87.649 237.195 87.1906 240.206 87.0596 240.991C86.7977 242.432 86.5357 242.497 79.856 242.497H72.8488L73.3072 238.373C74.748 225.805 78.8082 214.48 85.5534 204.268C98.3235 185.023 117.577 173.568 139.843 171.866C142.921 171.604 146.326 171.473 147.374 171.604C148.487 171.669 151.565 171.866 154.25 172.062ZM231.264 188.231C235.258 189.867 239.122 194.057 241.676 199.359C244.165 204.661 245.278 210.16 245.475 218.931C245.606 226.263 246.195 226.787 250.386 223.252C255.756 218.8 262.174 217.753 266.169 220.764C268.854 222.728 271.997 227.245 272.848 230.256C273.307 231.762 273.7 235.035 273.7 237.587L273.765 242.17L221.113 242.366L168.461 242.497L168.919 239.42C169.509 234.904 172.456 229.47 175.665 227.048C180.511 223.383 186.405 222.794 194.656 225.216C196.424 225.739 196.424 225.739 197.407 217.949C199.633 200.995 208.147 188.754 219.017 186.856C222.881 186.136 227.793 186.725 231.264 188.231ZM168.33 188.165C176.778 189.998 186.143 194.777 192.102 200.275C196.49 204.334 196.686 204.727 196.097 206.363C195.114 208.916 193.543 216.706 193.543 218.997C193.543 221.419 192.822 221.419 191.382 218.997C185.684 209.309 173.045 200.733 160.799 198.246C145.999 195.3 129.299 200.537 119.869 211.273C114.106 217.819 109.129 231.107 109.064 240.009V242.497H99.8298H90.5305L90.9889 238.242C91.5783 232.416 94.2633 223.448 97.0138 218.277C107.557 198.115 127.662 186.987 153.595 186.921C160.013 186.921 164.008 187.249 168.33 188.165Z" fill="#1F2937"/>
<path d="M212.31 78.6646C211.065 78.3658 209.926 79.087 208.926 80.6898C207.76 82.5597 207.584 86.5829 208.412 92.8213C209.106 98.3402 209.778 98.7064 213.699 95.9035C215.3 94.7814 217.868 92.619 219.444 91.1108C222.064 88.6099 222.254 88.3046 222.553 86.6359C222.804 85.0436 222.67 84.7482 221.448 83.9871C220.035 83.107 217.709 83.353 216.322 84.5559C215.36 85.334 214.988 84.996 215.205 83.542C215.357 82.3644 214.218 79.4296 213.407 79.0303C213.216 78.9113 212.686 78.7404 212.31 78.6646ZM212.608 85.1563C212.226 88.5744 212.328 89.4322 212.986 89.7365C213.606 90.0169 214.331 89.6204 215.898 88.2124C218.203 86.0455 219.771 85.0616 220.305 85.3946C221.222 85.9655 217.721 89.8784 213.148 93.3875L210.904 95.1157L210.39 92.1992C209.607 87.4193 210.481 80.9167 212.007 80.5954C212.96 80.3416 213.071 81.0994 212.608 85.1563Z" fill="#1F2937"/>
<path d="M201.287 103.483C200.401 103.885 199.834 104.538 199.249 105.817L198.455 107.6L196.259 106.02C194.369 104.631 193.902 104.446 192.562 104.724C189.721 105.285 189.262 108.231 191.431 111.808C192.573 113.632 195.887 117.075 199.123 119.621L201.133 121.244L201.799 120.175C202.608 118.878 204.623 112.926 205.267 109.937C206.221 105.603 204.118 102.174 201.287 103.483ZM202.56 110.794C202.095 112.729 201.335 115.223 200.831 116.287C199.965 118.185 199.918 118.261 198.963 117.667C197.474 116.739 193.859 112.42 192.913 110.453C191.909 108.237 192.179 106.869 193.737 106.41C195.172 105.979 195.492 106.231 196.954 108.732C197.614 109.884 198.497 111.018 198.956 111.303C199.605 111.708 199.776 111.603 200.156 110.568C200.399 109.924 201.098 108.293 201.768 106.962L203.005 104.554L203.221 105.907C203.356 106.627 203.049 108.82 202.56 110.794Z" fill="#1F2937"/>
<path d="M218.683 134.244C217.954 134.479 217.125 135.128 216.554 136.044C215.673 137.456 215.587 137.509 214.838 136.671C213.405 135.142 211.812 134.467 210.515 134.931C206.945 136.151 208.209 140.33 214.001 146.429C215.51 148.005 216.999 149.356 217.338 149.409C218.192 149.57 221.699 143.86 222.497 140.965C223.598 136.989 221.567 133.445 218.683 134.244ZM219.669 141.164C219.108 142.828 218.21 144.865 217.662 145.743C216.734 147.231 216.672 147.245 215.823 146.398C213.865 144.436 211.787 141.393 211.303 139.873C210.188 136.476 212.38 135.086 213.862 138.235C215.201 141.189 215.578 141.689 216.232 141.831C216.609 141.907 216.975 141.659 217.061 141.182C217.331 139.813 218.967 136.594 219.687 136.035C220.358 135.553 220.411 135.639 220.56 136.845C220.656 137.54 220.268 139.524 219.669 141.164Z" fill="#1F2937"/>
<path d="M128.199 15.5081C127.799 16.175 125.197 27.246 125.13 28.4465C125.13 28.7799 125.931 28.9133 126.931 28.7799C128.599 28.5799 128.8 28.1797 129.934 23.2444C131.669 15.5081 131.669 15.308 130.001 15.0412C129.267 14.9078 128.399 15.1079 128.199 15.5081Z" fill="#1F2937" stroke="#1F2937" stroke-width="0.888031"/>
<path d="M95.1055 19.2427C95.1055 19.5095 96.5066 22.0438 98.2414 24.9783C100.71 28.9799 101.778 30.2471 102.912 30.2471C103.712 30.2471 104.513 30.047 104.647 29.7135C104.847 29.4468 103.579 26.9791 101.844 24.2447C99.3756 20.2431 98.3748 19.1761 96.9069 19.0427C95.9061 18.9093 95.1055 19.0427 95.1055 19.2427Z" fill="#1F2937" stroke="#1F2937" stroke-width="0.888031"/>
<path d="M149.95 33.5817C146.881 35.7159 144.412 37.7167 144.412 38.0501C144.412 38.3169 145.146 38.6504 145.947 38.7837C147.548 38.9171 157.823 31.9811 158.357 30.3804C158.957 28.4464 155.154 29.9136 149.95 33.5817Z" fill="#1F2937" stroke="#1F2937" stroke-width="0.888031"/>
<path d="M114.521 44.6526C108.449 46.2532 104.313 50.1881 101.711 56.724C100.443 59.9253 100.176 61.8594 100.176 68.2619C100.109 75.0646 100.31 76.3317 101.777 79.2662C105.647 87.136 113.053 91.7378 122.127 91.7378C136.873 91.8712 146.948 82.9343 145.546 71.063C144.279 60.1254 133.804 53.3894 123.061 56.4573C116.99 58.258 113.587 62.7931 113.587 69.0622C113.587 72.0634 113.921 73.3972 115.322 75.5314C119.258 81.4671 126.664 82.4008 130.801 77.5322C133.537 74.2643 132.736 68.9288 129.533 68.9288C127.332 68.9288 127.131 69.4624 128.332 71.5965C129.2 73.1305 129.266 73.7974 128.599 75.198C127.865 76.7986 127.465 76.932 123.862 76.932C120.326 76.932 119.859 76.7319 118.725 75.1313C117.19 72.797 116.723 67.5283 117.79 64.9273C119.659 60.4588 126.131 56.9908 130.668 57.9912C133.937 58.6581 137.607 61.3258 139.608 64.327C142.21 68.2619 142.611 74.9312 140.476 79.1995C137.34 85.7354 130.401 89.6036 121.86 89.6036C114.054 89.6036 108.783 86.0689 105.38 78.5993C102.378 71.93 102.778 62.9932 106.381 55.1901C109.65 48.1206 114.054 45.9865 124.329 46.3199C131.668 46.5867 133.47 45.653 127.799 44.4525C122.795 43.4521 118.791 43.5188 114.521 44.6526Z" fill="#1F2937" stroke="#1F2937" stroke-width="0.888031"/>
<path d="M73.0879 49.188C73.0879 50.6552 73.4882 50.7219 82.2954 51.2555C88.6339 51.5889 89.7682 51.5222 89.7682 50.6552C89.7682 49.188 89.4346 49.1213 80.961 48.5877C73.9553 48.1876 73.0879 48.2543 73.0879 49.188Z" fill="#1F2937" stroke="#1F2937" stroke-width="0.888031"/>
<path d="M166.964 50.9887C166.297 51.3889 163.494 52.1225 160.692 52.5893C155.421 53.523 154.554 53.9232 155.555 54.9236C156.956 56.3241 171.167 52.9895 171.167 51.1888C171.167 50.055 168.699 49.9883 166.964 50.9887Z" fill="#1F2937" stroke="#1F2937" stroke-width="0.888031"/>
<path d="M159.158 81.2673C158.558 82.0009 158.758 82.401 160.359 83.2014C164.229 85.2021 172.569 88.27 174.17 88.27C176.172 88.27 177.039 87.0695 175.371 86.536C173.903 86.0692 165.63 82.8012 162.361 81.334C160.292 80.467 159.825 80.467 159.158 81.2673Z" fill="#1F2937" stroke="#1F2937" stroke-width="0.888031"/>
<path d="M84.7635 84.8686C83.2956 85.5355 80.0263 86.6026 77.4242 87.2695C72.2866 88.6034 70.9522 89.337 72.5535 89.9372C74.6886 90.8042 91.102 85.6689 91.102 84.2016C91.102 83.2012 87.6325 83.6014 84.7635 84.8686Z" fill="#1F2937" stroke="#1F2937" stroke-width="0.888031"/>
<path d="M144.145 99.6078C143.612 100.408 145.146 101.742 151.284 106.077C155.088 108.678 156.022 109.078 157.289 108.478C158.691 107.878 158.557 107.744 155.421 105.61C153.62 104.343 150.951 102.342 149.416 101.142C146.614 98.8742 144.879 98.4073 144.145 99.6078Z" fill="#1F2937" stroke="#1F2937" stroke-width="0.888031"/>
<path d="M100.51 113.346C98.7755 119.082 98.5086 120.616 99.2425 121.016C100.444 121.816 100.844 121.749 101.578 120.749C102.512 119.615 106.382 107.077 105.915 106.61C105.714 106.41 104.914 106.277 104.113 106.277C102.845 106.277 102.378 107.21 100.51 113.346Z" fill="#1F2937" stroke="#1F2937" stroke-width="0.888031"/>
<path d="M126.064 108.611C125.53 109.878 126.798 116.147 128.199 119.482C128.933 121.216 129.467 121.683 130.601 121.483C132.336 121.216 132.336 121.283 130.334 113.613C129.2 109.545 128.466 107.877 127.599 107.744C126.998 107.611 126.264 108.011 126.064 108.611Z" fill="#1F2937" stroke="#1F2937" stroke-width="0.888031"/>
<path d="M56.5117 409.297H85.0457H141.7V417.731H56.5117V409.297Z" fill="#34B17B"/>
<path d="M85.1895 409.297L86.8764 367.968H144.653L141.701 409.297H85.1895Z" fill="#73CFA5"/>
<path d="M91.5146 404.236L93.6233 373.45H138.748L136.217 404.236H91.5146Z" fill="#EAF8F2"/>
<rect x="187.056" y="375.553" width="166.5" height="18.5" fill="#68BA95"/>
<rect x="187.056" y="394.053" width="16.4445" height="102.778" fill="#68BA95"/>
<rect x="250.778" y="394.053" width="16.4445" height="102.778" fill="#68BA95"/>
<rect x="353.556" y="394.053" width="16.4445" height="102.778" fill="#A8E0C5"/>
<rect x="425.501" y="394.053" width="16.4445" height="102.778" fill="#A8E0C5"/>
<rect x="353.556" y="375.553" width="88.389" height="18.5" fill="#A8E0C5"/>
<rect y="342.664" width="76.0557" height="75.0279" fill="#68BA95"/>
<rect y="417.692" width="76.0557" height="18.5" fill="#A8E0C5"/>
<rect x="76.0557" y="417.692" width="49.3334" height="18.5" fill="#68BA95"/>
<rect x="59.6113" y="436.192" width="16.4445" height="61.6668" fill="#68BA95"/>
<rect y="436.192" width="16.4445" height="61.6668" fill="#68BA95"/>
<rect x="108.944" y="436.192" width="16.4445" height="61.6668" fill="#68BA95"/>
<path d="M129.496 246.77C129.678 246.437 130.156 246.437 130.338 246.77V246.77C133.276 252.142 137.692 256.558 143.064 259.496V259.496C143.397 259.678 143.397 260.156 143.064 260.338V260.338C137.692 263.276 133.276 267.692 130.338 273.064V273.064C130.156 273.397 129.678 273.397 129.496 273.064V273.064C126.558 267.692 122.142 263.276 116.77 260.338V260.338C116.437 260.156 116.437 259.678 116.77 259.496V259.496C122.142 256.558 126.558 252.142 129.496 246.77V246.77Z" fill="#FB923C"/>
<path d="M444.496 88.7703C444.678 88.4373 445.156 88.4373 445.338 88.7703V88.7703C448.276 94.1416 452.692 98.5579 458.064 101.496V101.496C458.397 101.678 458.397 102.156 458.064 102.338V102.338C452.692 105.276 448.276 109.692 445.338 115.064V115.064C445.156 115.397 444.678 115.397 444.496 115.064V115.064C441.558 109.692 437.142 105.276 431.77 102.338V102.338C431.437 102.156 431.437 101.678 431.77 101.496V101.496C437.142 98.5579 441.558 94.1416 444.496 88.7703V88.7703Z" fill="#FB923C"/>
<path d="M445.806 439.959C435.685 432.649 417.972 410.016 431.468 404.112C443.952 398.65 448.055 425.62 445.806 439.959Z" fill="#339C73"/>
<path d="M450.867 439.115C451.289 430.4 454.325 413.728 463.097 416.764C471.869 419.8 458.599 432.93 450.867 439.115Z" fill="#339C73"/>
<path d="M445.807 448.815C446.228 444.035 446.313 433.464 443.276 429.416" stroke="#1F2937" stroke-width="2.4" stroke-linecap="round"/>
<path d="M450.221 448.393C449.832 445.692 449.754 439.717 452.554 437.428" stroke="#1F2937" stroke-width="2.4" stroke-linecap="round"/>
<path d="M476.592 448.815H420.503C418.957 465.543 412.912 499 450.445 499C478.111 499 479.404 465.543 476.592 448.815Z" fill="#34B17B"/>
<path fill-rule="evenodd" clip-rule="evenodd" d="M344.664 174.633C338.551 188.642 324.576 198.434 308.314 198.434C291.051 198.434 276.366 187.4 270.925 172.001C263.807 171.796 258.1 165.961 258.1 158.792C258.1 151.625 263.807 145.79 270.925 145.584C276.365 130.184 291.051 119.15 308.314 119.15C326.567 119.15 341.939 131.487 346.546 148.277C353.266 148.899 358.527 154.552 358.527 161.434C358.527 168.732 352.611 174.648 345.313 174.648C345.096 174.648 344.879 174.643 344.664 174.633Z" fill="#FED7AA"/>
<path fill-rule="evenodd" clip-rule="evenodd" d="M304.734 156.258C303.48 153.762 300.775 152.044 297.585 152.044C296.184 152.044 294.02 152.981 293.129 154.503C293.002 154.854 292.493 154.854 292.366 154.503C291.347 153.098 289.31 152.162 287.783 152.162C283.582 152.162 280.018 155.323 279.891 159.187V159.421C279.891 161.411 280.782 163.285 282.309 164.69V164.807C282.437 164.924 288.547 169.841 291.347 172.066C292.111 172.651 293.257 172.651 294.02 172.066C295.197 171.131 296.935 169.722 298.574 168.392L298.574 168.392C300.837 166.557 302.911 164.875 303.058 164.807V164.69C304.586 163.402 305.477 161.528 305.477 159.421V159.187C305.475 159.127 305.472 159.068 305.469 159.008C306.311 158.87 307.256 158.792 308.315 158.792C310.15 158.792 311.643 159.027 312.852 159.401C312.782 159.748 312.74 160.103 312.728 160.464V160.699C312.728 162.689 313.619 164.562 315.147 165.967V166.084C315.274 166.202 321.384 171.119 324.185 173.344C324.948 173.929 326.094 173.929 326.858 173.344C328.034 172.409 329.771 171 331.41 169.671L331.411 169.67C333.674 167.835 335.748 166.152 335.896 166.084V165.967C337.423 164.679 338.314 162.806 338.314 160.699V160.464C338.187 156.484 334.75 153.322 330.422 153.322C329.022 153.322 326.858 154.259 325.967 155.781C325.839 156.132 325.33 156.132 325.203 155.781C324.185 154.376 322.148 153.439 320.62 153.439C317.9 153.439 315.446 154.765 314.02 156.749C312.648 156.305 310.793 156.009 308.315 156.009C306.937 156.009 305.751 156.101 304.734 156.258Z" fill="#EA580C"/>
<path d="M301.706 174.509C302.147 175.39 304.085 177.152 308.313 177.152C312.542 177.152 314.48 175.39 314.92 174.509" stroke="#EA580C" stroke-width="2.4" stroke-linecap="round" stroke-linejoin="round"/>
<path d="M301.89 124.521C300.504 125.608 298.324 129.985 299.525 133.064C300.726 136.144 302.604 136.907 303.558 137.152" stroke="#EA580C" stroke-width="2.4" stroke-linecap="round"/>
<path d="M310.375 127.019C308.987 127.965 307.99 132.037 309.319 134.882C310.309 136.999 312.839 137.821 313.645 138.028" stroke="#EA580C" stroke-width="2.4" stroke-linecap="round"/>
<path d="M317.378 128.465C316.713 129.337 317.2 131.85 318.343 133.552C319.018 134.557 321.063 136.026 321.604 135.989" stroke="#EA580C" stroke-width="2.4" stroke-linecap="round"/>
<rect x="276.655" y="201.808" width="66.6325" height="147.604" rx="33.3162" fill="#FED7AA"/>
<rect x="177.128" y="312.3" width="271.591" height="63.2587" rx="31.6294" fill="#319E73"/>
<path d="M365.639 324.108H255.568" stroke="#1F2937" stroke-width="2.4"/>
<path d="M330.214 350.255C330.214 364.23 319.521 375.559 309.971 375.559C300.422 375.559 290.15 364.23 290.15 350.255C290.15 336.28 300.422 324.952 309.971 324.952C319.521 324.952 330.214 336.28 330.214 350.255Z" fill="#A8E0C5"/>
<path d="M309.971 324.952V375.559" stroke="#1F2937" stroke-width="2.4"/>
<path d="M355.096 222.066C342.275 205.197 321.077 201.542 312.08 201.823L341.601 268.877C343.569 276.749 349.023 294.687 355.096 303.458C361.169 312.23 393.754 316.798 412.029 323.265L434.802 298.819L383.351 272.672C379.275 262.832 367.916 238.935 355.096 222.066Z" fill="#FED7AA"/>
<path fill-rule="evenodd" clip-rule="evenodd" d="M455.809 319.02C457.851 318.613 459.7 317.319 460.719 315.349L461.478 313.883C463.227 310.502 461.871 306.409 458.449 304.741L447.272 299.293C446.497 298.813 445.682 298.356 444.842 297.908C446.236 296.399 446.972 294.302 446.668 292.135L446.439 290.5C445.91 286.73 442.436 284.176 438.68 284.794L425.064 287.037C421.868 287.352 414.184 287.137 410.497 286.978L410.501 287.014C410.485 287.011 410.469 287.009 410.454 287.006L395.407 318.204C397.598 322.967 400.5 327.692 403.857 331.869C404.124 332.308 404.452 332.734 404.848 333.141L405.373 333.681C408.228 336.961 411.364 339.823 414.639 341.987C417.696 344.274 420.947 346.313 424.36 348.083L426.677 349.283C429.886 350.947 433.888 349.894 435.854 346.869L437.024 345.07C437.607 344.174 437.952 343.197 438.074 342.213L439.812 343.082C443.216 344.786 447.423 343.442 449.208 340.08L449.982 338.622C450.84 337.007 450.983 335.22 450.523 333.611C453.834 334.971 457.741 333.6 459.445 330.392L460.219 328.934C462.004 325.572 460.691 321.464 457.287 319.76L455.809 319.02Z" fill="#FED7AA"/>
<path d="M444.858 297.938C442.768 298.742 438.022 300.32 435.764 300.202" stroke="#1F2937" stroke-width="2.4" stroke-linecap="round"/>
<path d="M455.941 318.813C452.406 317.687 444.753 315.105 442.42 313.785" stroke="#1F2937" stroke-width="2.4" stroke-linecap="round"/>
<path d="M450.564 333.929C447.234 332.294 440.045 328.612 437.932 326.961" stroke="#1F2937" stroke-width="2.4" stroke-linecap="round"/>
<path d="M437.857 342.703C434.709 340.74 427.93 336.348 425.996 334.492" stroke="#1F2937" stroke-width="2.4" stroke-linecap="round"/>
<path d="M264.673 222.066C277.493 205.197 298.692 201.542 307.689 201.823L278.168 268.877C276.2 276.749 270.746 294.687 264.673 303.458C258.6 312.23 226.015 316.798 207.74 323.265L184.967 298.819L236.417 272.672C240.494 262.832 251.852 238.935 264.673 222.066Z" fill="#FED7AA"/>
<path fill-rule="evenodd" clip-rule="evenodd" d="M163.96 319.02C161.917 318.613 160.069 317.319 159.049 315.349L158.291 313.883C156.541 310.502 157.897 306.409 161.32 304.741L172.496 299.294C173.271 298.813 174.086 298.356 174.926 297.908C173.532 296.399 172.797 294.302 173.101 292.135L173.33 290.5C173.858 286.73 177.332 284.176 181.089 284.794L194.704 287.037C197.9 287.352 205.584 287.137 209.272 286.978L209.268 287.014C209.284 287.011 209.299 287.009 209.315 287.006L224.361 318.204C222.171 322.967 219.269 327.692 215.911 331.869C215.645 332.308 215.316 332.734 214.921 333.141L214.396 333.681C211.541 336.961 208.405 339.823 205.129 341.987C202.072 344.274 198.822 346.313 195.408 348.083L193.092 349.283C189.883 350.947 185.881 349.894 183.914 346.869L182.744 345.07C182.161 344.174 181.817 343.197 181.694 342.213L179.957 343.082C176.553 344.786 172.346 343.442 170.56 340.08L169.786 338.622C168.929 337.007 168.786 335.22 169.246 333.611C165.934 334.971 162.027 333.6 160.324 330.392L159.55 328.934C157.765 325.572 159.077 321.464 162.481 319.76L163.96 319.02Z" fill="#FED7AA"/>
<path d="M174.91 297.938C177.001 298.742 181.746 300.32 184.004 300.202" stroke="#1F2937" stroke-width="2.4" stroke-linecap="round"/>
<path d="M163.827 318.813C167.362 317.687 175.016 315.105 177.349 313.785" stroke="#1F2937" stroke-width="2.4" stroke-linecap="round"/>
<path d="M169.204 333.928C172.535 332.293 179.724 328.611 181.836 326.96" stroke="#1F2937" stroke-width="2.4" stroke-linecap="round"/>
<path d="M181.911 342.703C185.058 340.739 191.838 336.348 193.772 334.492" stroke="#1F2937" stroke-width="2.4" stroke-linecap="round"/>
<path fill-rule="evenodd" clip-rule="evenodd" d="M307.946 219.257C315.865 219.257 322.284 212.837 322.284 204.918C322.284 204.207 322.233 203.507 322.133 202.824C332.349 204.763 345.828 210.081 355.01 222.194C367.831 239.109 379.189 263.07 383.266 272.937L355.01 303.805C350.37 297.086 346.092 285.001 343.453 276.152V312.3H276.821V273.843C274.278 282.778 269.649 296.48 264.591 303.805L236.335 272.937C240.412 263.07 251.77 239.109 264.591 222.194C272.67 211.535 284.077 206.138 293.66 203.674C293.625 204.084 293.607 204.499 293.607 204.918C293.607 212.837 300.027 219.257 307.946 219.257Z" fill="#8DD7E2"/>
<rect x="298.581" y="193.374" width="18.5559" height="15.1821" fill="#FED7AA"/>
<path d="M322.198 202.651C322.198 210.57 315.778 218.677 307.859 218.677C299.94 218.677 293.521 211.508 293.521 203.495" stroke="#1F2937" stroke-width="2.4"/>
<path d="M343.284 276.453C346.517 285.028 353.406 302.431 355.092 303.443C359.816 299.732 377.303 279.827 383.348 272.658L371.961 249.041" stroke="#1F2937" stroke-width="2.4"/>
<path d="M343.284 276.453V300.491" stroke="#1F2937" stroke-width="2.4"/>
<path d="M276.651 273.923C273.418 282.498 266.108 302.431 264.421 303.443C259.698 299.732 242.211 279.827 236.166 272.658L247.552 249.041" stroke="#1F2937" stroke-width="2.4"/>
<path d="M276.651 274.344L276.23 300.491" stroke="#1F2937" stroke-width="2.4"/>
<g clip-path="url(#clip0_13950_24942)">
<circle cx="37" cy="318" r="22" fill="white" stroke="#34B17B" stroke-width="2"/>
<path d="M20.0156 319.377C20.5679 319.377 21.0156 318.929 21.0156 318.377C21.0156 317.825 20.5679 317.377 20.0156 317.377V319.377ZM20.0156 317.377H14V319.377H20.0156V317.377Z" fill="#34B17B"/>
<path d="M53.8457 317.377C53.2934 317.377 52.8457 317.825 52.8457 318.377C52.8457 318.929 53.2934 319.377 53.8457 319.377L53.8457 317.377ZM59.8613 317.377L53.8457 317.377L53.8457 319.377L59.8613 319.377L59.8613 317.377Z" fill="#34B17B"/>
<path d="M38.2871 333.836C38.2871 333.284 37.8394 332.836 37.2871 332.836C36.7348 332.836 36.2871 333.284 36.2871 333.836H38.2871ZM36.2871 333.836V339.869H38.2871V333.836H36.2871Z" fill="#34B17B"/>
<path d="M36.2871 301.41C36.2871 301.962 36.7348 302.41 37.2871 302.41C37.8394 302.41 38.2871 301.962 38.2871 301.41H36.2871ZM36.2871 295.377V301.41H38.2871V295.377H36.2871Z" fill="#34B17B"/>
<g clip-path="url(#clip1_13950_24942)">
<path d="M37.1771 324.034C39.2069 318.926 35.5426 312.532 26.3765 313.102C25.8559 322.495 31.7056 325.532 37.1771 324.034Z" fill="#73CFA5" stroke="#73CFA5" stroke-width="2" stroke-linecap="round" stroke-linejoin="round"/>
<path d="M30.9277 317.623L37.2755 323.972" stroke="white" stroke-linecap="round" stroke-linejoin="round"/>
<g clip-path="url(#clip2_13950_24942)">
<path d="M37.6579 324.034C35.6281 318.926 39.2924 312.532 48.4584 313.102C48.9791 322.495 43.1293 325.532 37.6579 324.034Z" fill="#34B17B" stroke="#34B17B" stroke-width="2" stroke-linecap="round" stroke-linejoin="round"/>
<path d="M43.9082 317.623L37 324.273" stroke="white" stroke-linecap="round" stroke-linejoin="round"/>
</g>
</g>
<line x1="1" y1="-1" x2="2.73621" y2="-1" transform="matrix(0.608482 0.793567 0.778987 -0.627039 27.248 301.41)" stroke="#34B17B" stroke-width="2" stroke-linecap="round"/>
<line x1="1" y1="-1" x2="2.73622" y2="-1" transform="matrix(0.608483 -0.793567 0.778988 0.627039 46.3838 305.256)" stroke="#34B17B" stroke-width="2" stroke-linecap="round"/>
<line x1="1" y1="-1" x2="2.70202" y2="-1" transform="matrix(0.865952 -0.500127 0.482025 0.876158 51.8057 310.845)" stroke="#34B17B" stroke-width="2" stroke-linecap="round"/>
<line x1="1" y1="-1" x2="2.70203" y2="-1" transform="matrix(0.865946 0.500138 0.482035 -0.876152 51.8057 325.721)" stroke="#34B17B" stroke-width="2" stroke-linecap="round"/>
<line x1="1" y1="-1" x2="2.70202" y2="-1" transform="matrix(-0.865946 0.500138 -0.482034 -0.876152 22.7949 325.721)" stroke="#34B17B" stroke-width="2" stroke-linecap="round"/>
<line x1="1" y1="-1" x2="2.70202" y2="-1" transform="matrix(-0.865946 -0.500138 -0.482035 0.876152 22.874 310.743)" stroke="#34B17B" stroke-width="2" stroke-linecap="round"/>
<line x1="1" y1="-1" x2="2.73621" y2="-1" transform="matrix(0.608483 -0.793567 0.778988 0.627039 27.248 334.916)" stroke="#34B17B" stroke-width="2" stroke-linecap="round"/>
<line x1="1" y1="-1" x2="2.73622" y2="-1" transform="matrix(-0.608482 -0.793568 -0.778987 0.62704 46.8174 334.916)" stroke="#34B17B" stroke-width="2" stroke-linecap="round"/>
</g>
<path d="M182.519 326.151C182.005 324.965 176.286 303.275 165.23 305.905L163.836 303.637C163.078 303.242 166.727 302.111 169.113 302.057C171.615 302.001 174.113 303.281 173.668 302.254C173.313 301.432 165.65 297.937 165.116 297.852L169.665 293.002C170.126 292.397 171.44 294.14 173.073 294.409C174.706 294.677 180.05 301.976 181.397 304.463C180.143 300.563 181.821 291.982 183.998 289.681L185.673 290.315C186.496 290.862 187.405 291.062 186.574 292.397C185.743 293.732 185.467 299.677 185.612 300.743L191.297 292.459L194.323 293.74C187.053 301.043 192.682 316.561 194.384 321.017L182.519 326.151Z" fill="#587D4A"/>
<path fill-rule="evenodd" clip-rule="evenodd" d="M182.607 288.328C181.457 290.875 179.392 293.018 176.625 294.215C174.114 295.302 171.431 295.434 168.98 294.772C169.251 298.032 168.124 301.259 165.921 303.64C167.331 307.281 165.622 311.415 162.008 312.979C158.305 314.581 154.005 312.878 152.403 309.176C151.947 308.121 151.758 307.019 151.808 305.944C149.609 304.745 147.779 302.83 146.708 300.353C144.156 294.457 146.868 287.609 152.764 285.058C152.917 284.991 153.07 284.929 153.224 284.87C153.201 282.391 154.639 280.022 157.056 278.976C158.491 278.356 160.028 278.305 161.415 278.724C162.567 276.189 164.628 274.056 167.386 272.863C170.693 271.432 174.3 271.656 177.28 273.17C177.686 271.213 179.006 269.478 180.979 268.625C184.2 267.231 187.941 268.712 189.334 271.933C189.341 271.948 189.347 271.963 189.354 271.978C195.003 270.124 201.236 272.853 203.643 278.416C206.195 284.313 203.483 291.161 197.587 293.712C191.919 296.164 185.372 293.754 182.607 288.328Z" fill="#7CB568"/>
<g filter="url(#filter0_f_13950_24942)">
<ellipse cx="514" cy="400.5" rx="7" ry="3.5" fill="#FFC0C0"/>
</g>
<g filter="url(#filter1_f_13950_24942)">
<ellipse cx="551" cy="400.5" rx="7" ry="3.5" fill="#FFC0C0"/>
</g>
<mask id="path-92-inside-1_13950_24942" fill="white">
<path d="M573.188 407.443C573.229 407.673 573.095 407.741 572.786 407.648L562.039 403.244C562.001 403.228 561.959 403.222 561.918 403.228C561.877 403.233 561.838 403.25 561.805 403.276C561.773 403.301 561.748 403.335 561.732 403.374C561.717 403.413 561.713 403.455 561.719 403.496C561.914 404.67 562.173 405.827 562.496 406.966C563.34 409.953 565.812 411.874 567.072 414.709C569.088 419.243 569.535 423.961 568.414 428.862C568.364 429.079 568.393 429.284 568.502 429.478C569.313 430.929 570.321 432.333 570.92 433.79C573.771 440.758 574.643 447.995 573.535 455.501C572.139 464.985 569.585 474.165 562.904 481.351C562.75 481.515 562.773 481.649 562.972 481.755C563.826 482.201 564.709 482.572 565.621 482.868C567.828 483.577 570.314 485.974 568.904 488.293C568.786 488.482 568.625 488.626 568.421 488.723C567.331 489.244 566.371 489.928 565.54 490.776C565.367 490.953 565.158 491.008 564.913 490.942L563.537 490.584C563.288 490.518 563.054 490.551 562.836 490.684L561.576 491.472C561.472 491.537 561.35 491.572 561.224 491.572C561.099 491.572 560.975 491.537 560.868 491.472C560.119 491.015 559.485 490.611 558.552 490.597C556.073 490.558 552.845 490.684 551.013 488.955C550.378 488.354 549.735 487.763 549.086 487.18C548.923 487.034 548.73 486.946 548.507 486.915C545.788 486.531 542.995 486.16 540.131 485.802C531.876 484.76 523.468 485.169 514.905 487.027C514.692 487.076 514.515 487.182 514.374 487.345C513.452 488.458 512.835 489.147 512.522 489.412C510.036 491.518 508.041 491.154 505.241 490.948C503.954 490.849 503.069 491.273 502.007 491.843C501.709 492.003 501.358 492.043 501.031 491.953C500.703 491.864 500.425 491.653 500.256 491.366L499.868 490.703C499.469 490.023 498.987 489.964 498.424 490.525C497.712 491.235 497.128 491.275 496.674 490.644C493.582 486.359 498.418 484.014 501.257 481.901C501.444 481.76 501.464 481.601 501.319 481.424C500.869 480.888 500.25 480.557 499.855 480.06C495.85 475.04 493.766 469.648 492.016 463.224C490.341 457.068 489.709 450.825 490.123 444.493C490.468 439.203 491.734 434.508 493.923 430.406C494.363 429.584 494.549 428.644 494.481 427.584C494.168 422.665 495.121 418.206 497.342 414.205C498.329 412.43 499.616 410.834 500.862 409.165C501.562 408.224 501.988 407.244 502.143 406.224C502.315 405.094 502.417 403.988 502.449 402.906C502.458 402.681 502.352 402.601 502.129 402.668C498.565 403.736 495.078 404.99 491.669 406.43C491.619 406.452 491.58 406.436 491.553 406.383C491.535 406.344 491.546 406.313 491.587 406.291C495.065 404.44 498.722 403.008 502.558 401.992C502.762 401.939 502.903 401.813 502.98 401.615L505.173 395.852C505.255 395.645 505.18 395.532 504.949 395.515C503.31 395.382 501.677 395.314 500.052 395.309C500.038 395.309 500.032 395.316 500.032 395.329C500.032 395.329 500.032 395.331 500.032 395.336C500.036 395.34 500.041 395.342 500.045 395.342C501.548 395.192 503.269 395.011 505.207 394.799C505.434 394.774 505.652 394.7 505.845 394.582C506.037 394.464 506.199 394.305 506.317 394.117L509.137 389.62C509.289 389.379 509.343 389.091 509.289 388.813C509.235 388.535 509.076 388.287 508.844 388.116C504.081 384.571 503.337 380.345 506.61 375.44C509.682 370.836 516.444 369.121 520.599 373.665C520.948 374.044 521.343 374.373 521.784 374.651C521.974 374.771 522.181 374.802 522.403 374.744C530.038 372.751 537.447 372.698 544.918 375.181C545.038 375.221 545.168 375.215 545.283 375.165C545.398 375.114 545.489 375.023 545.538 374.91C546.664 372.34 548.396 371.084 550.734 371.141C554.943 371.24 558.266 375.049 559.24 378.897C560.23 382.778 558.897 385.743 555.243 387.792C554.77 388.052 554.666 388.414 554.929 388.878C556.627 391.867 558.178 394.76 559.581 397.555C559.685 397.762 559.855 397.875 560.092 397.892C564.664 398.193 569.079 399.186 573.338 400.873C573.41 400.899 573.433 400.948 573.406 401.018L573.351 401.177C573.347 401.186 573.337 401.188 573.324 401.184C569.642 400.014 565.628 399.133 561.283 398.541C560.484 398.431 560.219 398.747 560.487 399.488L561.345 401.84C561.431 402.078 561.597 402.242 561.842 402.33C565.783 403.756 569.565 405.46 573.188 407.443ZM547.908 398.27C547.903 398.24 547.905 398.21 547.913 398.181C547.92 398.151 547.934 398.124 547.954 398.101C547.973 398.077 547.997 398.057 548.024 398.043C548.051 398.029 548.081 398.021 548.112 398.018L556.257 397.217C556.3 397.212 556.341 397.198 556.376 397.175C556.412 397.152 556.442 397.121 556.462 397.085C556.483 397.048 556.495 397.008 556.496 396.966C556.497 396.924 556.487 396.883 556.468 396.846L555.488 394.806C555.406 394.634 555.268 394.574 555.072 394.627L546.757 397.045C546.548 397.106 546.457 397.031 546.485 396.819L546.519 396.594C546.523 396.528 546.557 396.486 546.621 396.468L554.616 394.21C555.07 394.082 555.177 393.821 554.936 393.428C553.758 391.501 552.478 389.858 552.505 387.626C552.509 387.401 552.425 387.218 552.253 387.077C552.021 386.887 551.797 386.774 551.579 386.739C551.275 386.693 550.991 386.566 550.76 386.371C550.529 386.177 550.359 385.923 550.271 385.639C549.513 383.233 548.752 380.886 547.99 378.599C547.92 378.393 547.8 378.207 547.638 378.057C547.477 377.907 547.279 377.797 547.063 377.738C538.959 375.473 531.563 374.426 523.296 376.493C522.363 376.725 521.191 376.784 520.497 376.267C518.052 374.459 515.927 372.393 512.563 373.082C512.494 373.095 512.432 373.132 512.39 373.186C512.349 373.24 512.33 373.307 512.338 373.373L512.358 373.545C512.367 373.616 512.41 373.649 512.488 373.645C515.239 373.446 516.705 374.598 516.887 377.102C517.137 380.515 516.117 383.626 513.829 386.434C513.666 386.633 513.45 386.741 513.182 386.759C512.51 386.803 511.87 386.949 511.262 387.196C511.2 387.22 511.143 387.257 511.096 387.303C511.048 387.349 511.011 387.405 510.986 387.465C510.962 387.526 510.95 387.591 510.951 387.656C510.953 387.721 510.968 387.785 510.996 387.845C511.67 389.256 511.698 390.289 510.676 391.64C509.85 392.722 509.044 393.852 508.258 395.031C508.221 395.087 508.198 395.152 508.194 395.22C508.189 395.287 508.203 395.354 508.233 395.415C508.263 395.475 508.309 395.527 508.366 395.566C508.423 395.604 508.489 395.628 508.558 395.634C512.599 395.952 516.717 396.418 520.912 397.031C520.962 397.04 520.985 397.069 520.98 397.117L520.953 397.303C520.951 397.32 520.946 397.337 520.937 397.352C520.929 397.367 520.917 397.38 520.903 397.391C520.889 397.401 520.873 397.409 520.856 397.413C520.838 397.418 520.82 397.418 520.803 397.415C517.589 396.983 514.383 396.614 511.187 396.309C510.279 396.221 509.355 396.053 508.415 395.806C508.197 395.749 508.043 395.821 507.952 396.025C507.067 398.007 506.179 399.99 505.289 401.972C504.431 403.893 504.411 405.728 504.186 407.728C504.119 408.315 503.875 408.868 503.484 409.317C499.18 414.298 496.545 419 496.981 425.855C497.199 429.339 499.739 433.221 501.727 436.062C503.307 438.32 504.588 439.658 507.101 439.758C509.77 439.859 512.44 439.824 515.11 439.652C517.616 439.486 520.047 441.195 522.131 442.361C523.384 443.063 524.297 442.221 525.625 442.844C525.865 442.959 525.983 442.886 525.979 442.625C525.979 442.502 525.924 442.376 525.815 442.248C525.016 441.316 524.387 440.599 523.929 440.095C522.962 439.031 523.193 438.654 524.624 438.963C525.713 439.201 526.762 440.499 528.158 439.473C528.349 439.336 528.365 439.184 528.206 439.016C527.638 438.42 527.032 437.866 526.387 437.353C526.183 437.19 526.056 437.031 526.006 436.877C525.929 436.638 525.961 436.435 526.101 436.267C526.247 436.086 526.431 436.04 526.653 436.128C527.034 436.274 527.434 436.344 527.852 436.34C528.106 436.34 528.188 436.225 528.097 435.996C527.992 435.717 527.808 435.499 527.545 435.34C527.35 435.216 527.139 435.177 526.912 435.221C525.223 435.552 523.577 435.4 521.974 434.764C521.887 434.729 521.811 434.673 521.754 434.601C521.697 434.529 521.66 434.444 521.647 434.353C521.62 434.115 521.765 434.006 522.083 434.029C523.491 434.126 524.757 434.26 525.883 434.433C526.428 434.512 526.49 434.382 526.067 434.042C522.812 431.375 519.518 428.741 516.186 426.14C516.045 426.03 515.979 425.906 515.988 425.769C515.993 425.717 516.01 425.667 516.037 425.622C516.064 425.577 516.101 425.538 516.145 425.507C516.189 425.477 516.239 425.457 516.292 425.447C516.345 425.437 516.399 425.439 516.451 425.451C517.332 425.663 518.176 426.037 518.985 426.571C521.491 428.231 523.981 430.11 526.456 432.207C527.286 432.909 528.02 433.686 528.655 434.539C528.789 434.716 528.867 434.927 528.88 435.148C528.966 436.464 529.316 437.804 529.929 439.168C530.006 439.338 530.043 439.523 530.037 439.708C530.031 439.894 529.983 440.076 529.895 440.241C529.808 440.406 529.684 440.55 529.531 440.663C529.379 440.775 529.203 440.853 529.016 440.89C528.549 440.987 528.058 440.941 527.545 440.751C527.146 440.605 527.071 440.7 527.32 441.036C528.119 442.113 528.108 442.979 527.286 443.632C525.543 445.023 523.52 445.083 521.218 443.811C519.427 442.818 517.241 441.135 515.096 441.228C512.345 441.356 509.984 441.424 508.013 441.433C505.051 441.453 503.532 440.817 501.714 438.724C499.126 435.753 497.36 432.684 496.415 429.518C496.347 429.284 496.265 429.28 496.17 429.505C493.732 435.241 492.404 441.067 492.186 446.984C491.866 455.812 494.365 464.959 498.186 473.139C500.529 478.146 503.26 482.265 508.524 484.173C510.199 484.782 512.195 484.736 514.027 484.776C515.28 484.807 516.655 484.663 518.154 484.345C527.275 482.393 536.417 482.382 545.579 484.312C547.234 484.656 548.739 484.63 550.421 484.709C551.361 484.758 553.538 484.051 556.952 482.59C558.01 482.135 559.079 481.667 560.16 481.186C561.068 480.784 561.767 480.245 562.257 479.57C568.918 470.476 571.928 459.693 571.901 448.706C571.882 443.186 570.377 437.402 567.385 431.353C567.285 431.145 567.201 431.152 567.133 431.373C566.418 433.863 563.932 438.95 560.779 439.155C558.051 439.327 555.308 439.603 552.553 439.983C551.136 440.175 549.985 440.294 548.725 441.155C546.634 442.579 543.372 444.944 541.486 444.295C540.392 443.919 539.341 443.551 538.333 443.188C538.242 443.157 538.159 443.105 538.091 443.038C538.023 442.971 537.971 442.89 537.939 442.801C537.907 442.711 537.896 442.616 537.906 442.522C537.917 442.427 537.948 442.336 537.999 442.255C538.83 440.93 540.056 440.089 541.677 439.731C541.779 439.709 541.887 439.725 541.977 439.775C542.068 439.826 542.136 439.907 542.167 440.003C542.19 440.078 542.199 440.151 542.194 440.221C542.176 440.451 542.058 440.612 541.84 440.705C541.327 440.925 540.948 441.299 540.703 441.824C540.603 442.036 540.664 442.18 540.886 442.255C542.53 442.807 543.922 442.637 545.061 441.745C547.858 439.563 550.696 438.362 553.574 438.142C555.862 437.965 558.153 437.799 560.446 437.645C562.094 437.532 562.434 436.824 563.224 435.611C567.896 428.478 568.55 419.398 563.177 412.53C561.606 410.529 560.725 409.017 560.534 407.993C560.216 406.249 559.756 404.524 559.152 402.82C559.079 402.608 558.932 402.471 558.709 402.409C555.744 401.57 552.389 400.888 548.643 400.363C548.303 400.314 548.028 400.149 547.819 399.866C547.67 399.663 547.722 399.577 547.976 399.608C551.685 400.071 555.22 400.765 558.58 401.687C558.934 401.785 559.038 401.668 558.893 401.336C558.466 400.334 557.942 399.367 557.32 398.435C557.228 398.295 557.101 398.181 556.951 398.102C556.801 398.023 556.632 397.983 556.462 397.985C553.792 398.016 550.97 398.208 547.996 398.561C547.965 398.561 547.946 398.548 547.942 398.521L547.908 398.27ZM553.05 374.102C553.058 374.1 553.066 374.097 553.072 374.093C553.079 374.088 553.084 374.082 553.088 374.075C553.091 374.068 553.093 374.061 553.092 374.054C553.091 374.047 553.088 374.041 553.084 374.035C552.58 373.316 551.84 373.071 550.864 373.3C548.739 373.799 547.695 375.133 547.731 377.301C547.735 377.521 547.81 377.68 547.956 377.778C548.173 377.919 548.31 377.866 548.364 377.619C548.864 375.38 550.425 374.208 553.05 374.102ZM549.61 380.195C550.08 381.738 551.361 385.361 552.77 386.076C554.766 387.096 556.972 384.494 557.49 382.957C558.546 379.831 556.482 376.44 553.867 374.592C553.549 374.371 553.12 374.314 552.58 374.42C549.188 375.108 548.712 377.208 549.61 380.195ZM515.484 376.241C515.339 375.671 515.026 375.278 514.544 375.062C512.088 373.963 510.031 374.413 508.374 376.413C506.772 378.338 506.279 380.445 506.896 382.732C507.904 386.467 512.127 387.381 514.32 384.01C515.836 381.674 516.224 379.085 515.484 376.241ZM561.168 486.08C561.184 485.903 561.251 485.734 561.361 485.592C561.471 485.449 561.62 485.34 561.791 485.276C561.962 485.212 562.148 485.196 562.328 485.229C562.508 485.262 562.674 485.344 562.809 485.464L564.961 487.365C565.089 487.478 565.243 487.558 565.409 487.6C565.575 487.641 565.748 487.643 565.914 487.604C566.259 487.529 566.525 487.387 566.711 487.18C566.776 487.109 566.825 487.025 566.855 486.935C566.885 486.844 566.895 486.749 566.886 486.654C566.876 486.559 566.846 486.467 566.799 486.383C566.751 486.299 566.687 486.225 566.609 486.166C564.925 484.908 563.095 483.857 561.12 483.014C560.927 482.931 560.719 482.887 560.509 482.887C560.298 482.887 560.091 482.931 559.901 483.014C556.991 484.259 554.035 485.076 551.034 485.464C550.793 485.495 550.73 485.615 550.843 485.822C553.029 489.856 556.216 487.584 559.587 488.763C560.427 489.059 561.304 489.167 562.216 489.087C562.852 489.034 562.938 488.796 562.475 488.372C561.54 487.511 561.104 486.747 561.168 486.08ZM503.246 487.027L502.02 488.624C501.18 489.71 501.41 490.001 502.708 489.498C503.993 489.003 505.428 488.853 507.012 489.048C509.334 489.339 511.466 488.809 512.665 486.683C512.704 486.613 512.724 486.534 512.721 486.454C512.718 486.374 512.692 486.296 512.648 486.229C512.603 486.162 512.541 486.107 512.467 486.072C512.393 486.037 512.311 486.021 512.229 486.027C510.819 486.127 509.607 486.153 508.258 485.517C506.669 484.771 505.089 484.018 503.518 483.259C503.314 483.162 503.112 483.171 502.912 483.285C501.024 484.376 499.316 485.758 497.791 487.432C497.75 487.476 497.718 487.529 497.699 487.586C497.68 487.644 497.673 487.704 497.68 487.764C497.686 487.824 497.705 487.882 497.736 487.934C497.767 487.986 497.809 488.032 497.859 488.067C498.286 488.368 498.654 488.432 498.962 488.259C499.108 488.176 499.262 487.95 499.425 487.584C500.088 486.083 501.282 485.637 503.008 486.246C503.085 486.274 503.154 486.319 503.21 486.377C503.266 486.435 503.307 486.505 503.33 486.581C503.354 486.657 503.358 486.737 503.343 486.814C503.329 486.892 503.295 486.965 503.246 487.027ZM499.786 487.994C499.687 488.1 499.628 488.169 499.609 488.2C499.378 488.681 499.498 488.785 499.97 488.511C500.538 488.184 500.935 487.791 501.162 487.332C501.548 486.546 501.36 486.383 500.597 486.842C500.263 487.041 500.147 487.637 499.786 487.994Z"/>
<path d="M526.025 385.789C526.693 386.481 527 387.448 526.88 388.477C526.76 389.507 526.222 390.515 525.385 391.28C524.97 391.658 524.495 391.966 523.985 392.185C523.475 392.404 522.942 392.53 522.415 392.555C521.888 392.581 521.378 392.506 520.914 392.334C520.45 392.163 520.041 391.899 519.71 391.556C519.042 390.865 518.735 389.898 518.855 388.868C518.975 387.838 519.513 386.83 520.35 386.065C520.765 385.687 521.24 385.379 521.75 385.16C522.26 384.942 522.793 384.816 523.32 384.79C523.847 384.764 524.357 384.839 524.821 385.011C525.285 385.182 525.694 385.447 526.025 385.789ZM523.65 387.779C523.722 387.727 523.781 387.658 523.823 387.577C523.866 387.497 523.89 387.406 523.896 387.309C523.902 387.213 523.888 387.113 523.856 387.016C523.825 386.919 523.775 386.826 523.711 386.742C523.581 386.573 523.399 386.454 523.204 386.409C523.009 386.365 522.817 386.4 522.671 386.506C522.598 386.559 522.54 386.627 522.497 386.708C522.455 386.789 522.43 386.88 522.425 386.976C522.419 387.072 522.432 387.172 522.464 387.269C522.496 387.367 522.545 387.46 522.61 387.543C522.739 387.712 522.922 387.832 523.117 387.876C523.312 387.92 523.504 387.885 523.65 387.779Z"/>
<path d="M546.452 392.881C545.666 393.32 544.687 393.362 543.732 392.997C542.776 392.631 541.921 391.889 541.356 390.932C540.791 389.976 540.561 388.884 540.717 387.897C540.873 386.91 541.402 386.109 542.188 385.669C542.974 385.23 543.952 385.188 544.908 385.553C545.863 385.919 546.718 386.661 547.283 387.618C547.849 388.574 548.079 389.666 547.923 390.653C547.767 391.64 547.238 392.441 546.452 392.881ZM541.884 388.862C541.966 388.907 542.059 388.93 542.158 388.931C542.257 388.932 542.361 388.91 542.463 388.867C542.564 388.823 542.662 388.759 542.751 388.678C542.84 388.596 542.918 388.5 542.98 388.393C543.106 388.178 543.161 387.935 543.133 387.718C543.106 387.502 542.998 387.329 542.833 387.238C542.751 387.193 542.658 387.169 542.559 387.168C542.459 387.167 542.356 387.189 542.254 387.233C542.152 387.276 542.054 387.34 541.965 387.422C541.877 387.503 541.799 387.6 541.737 387.706C541.611 387.922 541.556 388.164 541.583 388.381C541.611 388.598 541.719 388.771 541.884 388.862Z"/>
<path d="M534.839 401.879C534.9 403.495 534.594 406.165 536.085 407.184C537.938 408.452 540.094 408.699 542.555 407.926C543.073 407.763 543.211 407.92 542.971 408.397C542.603 409.121 541.881 409.598 540.805 409.827C539.207 410.167 537.368 409.825 535.289 408.801C535.043 408.681 534.816 408.706 534.608 408.873C533.177 410.021 531.305 410.492 528.989 410.284C528.453 410.236 527.89 409.979 527.3 409.516C527.159 409.41 527.048 409.273 526.966 409.105C526.676 408.491 526.873 408.224 527.559 408.304C533.259 408.973 534.88 406.615 534.022 401.932C533.981 401.707 533.854 401.553 533.64 401.469C532.051 400.824 530.905 399.853 530.201 398.554C529.466 397.186 529.588 396.163 530.569 395.488C532.142 394.395 535.37 394.826 537.23 395.243C539.422 395.733 539.477 397.568 538.435 399.104C537.663 400.239 536.61 400.974 535.275 401.31C535.146 401.342 535.032 401.416 534.953 401.519C534.874 401.623 534.833 401.75 534.839 401.879ZM533.606 400.29C535.064 400.767 536.269 400.416 537.223 399.237C537.436 398.972 537.65 398.707 537.863 398.442C538.816 397.267 538.555 396.464 537.08 396.031C535.245 395.497 533.366 395.4 531.441 395.74C531.268 395.77 531.105 395.837 530.962 395.935C530.818 396.033 530.698 396.16 530.61 396.307C530.522 396.454 530.468 396.618 530.452 396.788C530.435 396.958 530.457 397.129 530.515 397.289C531.059 398.799 532.09 399.8 533.606 400.29Z"/>
<path d="M506.352 401.502C511.065 400.455 515.848 399.958 520.701 400.011C520.742 400.011 520.763 400.031 520.763 400.071V400.25C520.767 400.427 520.676 400.513 520.49 400.508C515.714 400.455 510.981 400.93 506.291 401.932C506.284 401.933 506.278 401.933 506.272 401.932C506.265 401.931 506.26 401.929 506.254 401.926C506.249 401.923 506.245 401.919 506.242 401.914C506.239 401.91 506.237 401.904 506.236 401.899L506.202 401.733C506.19 401.685 506.199 401.633 506.227 401.589C506.255 401.546 506.3 401.515 506.352 401.502Z"/>
<path d="M541.043 433.511L544.469 433.71C544.523 433.715 544.553 433.743 544.557 433.796L544.564 433.975C544.568 434.035 544.549 434.094 544.51 434.142C544.471 434.19 544.415 434.222 544.353 434.233C543.032 434.463 541.717 434.56 540.41 434.525C540.115 434.52 539.865 434.622 539.661 434.829C538.871 435.637 538.233 436.49 537.747 437.386C536.893 438.954 537.202 439.216 538.673 438.174C539.34 437.702 539.881 437.459 540.294 437.446C541.692 437.393 541.81 437.746 540.648 438.505C540.017 438.912 539.372 439.501 538.714 440.274C536.912 442.393 536.022 442.077 536.044 439.327C536.085 433.71 543.386 428.041 547.887 425.458C548.092 425.338 548.267 425.374 548.412 425.564L548.528 425.716C548.556 425.75 548.57 425.793 548.566 425.837C548.562 425.882 548.541 425.923 548.507 425.954L540.825 432.942C540.439 433.295 540.512 433.485 541.043 433.511Z"/>
<path d="M533.294 430.823C533.313 430.822 533.332 430.825 533.35 430.831C533.369 430.838 533.385 430.848 533.399 430.861C533.413 430.874 533.424 430.889 533.432 430.907C533.44 430.924 533.443 430.943 533.443 430.962V431.034C533.598 436.424 533.705 441.597 533.741 445.431C533.776 449.265 533.738 451.451 533.634 451.513L533.484 451.52C533.432 451.553 533.365 451.049 533.286 450.036C533.208 449.023 533.12 447.521 533.027 445.618C532.935 443.715 532.84 441.448 532.748 438.95C532.655 436.451 532.568 433.77 532.49 431.061V430.988C532.489 430.97 532.492 430.952 532.498 430.934C532.505 430.917 532.514 430.901 532.527 430.888C532.54 430.874 532.555 430.863 532.572 430.855C532.589 430.848 532.607 430.843 532.626 430.842L533.294 430.823Z"/>
<path d="M514 479.563C514.472 479.859 514.971 480.144 515.498 480.417C515.556 480.447 515.605 480.489 515.643 480.541C515.68 480.593 515.704 480.653 515.713 480.716C515.722 480.779 515.715 480.843 515.693 480.903C515.671 480.963 515.634 481.017 515.587 481.06C515.446 481.192 515.237 481.21 514.96 481.113C512.785 480.353 511.094 479.049 509.886 477.198C509.732 476.964 509.771 476.766 510.002 476.602L510.138 476.503C510.191 476.464 510.257 476.446 510.322 476.454C510.387 476.461 510.446 476.493 510.486 476.543C511.48 477.722 512.651 478.728 514 479.563Z"/>
<path d="M549.207 479.815C549.169 479.782 549.168 479.709 549.205 479.598C549.241 479.487 549.315 479.341 549.421 479.168C549.528 478.996 549.665 478.8 549.825 478.593C549.984 478.385 550.164 478.169 550.353 477.958C550.542 477.746 550.737 477.543 550.926 477.361C551.115 477.178 551.295 477.019 551.456 476.892C551.617 476.766 551.755 476.674 551.863 476.624C551.971 476.573 552.046 476.563 552.085 476.596C552.123 476.628 552.124 476.702 552.087 476.813C552.051 476.924 551.977 477.07 551.87 477.242C551.764 477.415 551.627 477.611 551.467 477.818C551.307 478.026 551.128 478.242 550.939 478.453C550.75 478.664 550.555 478.867 550.366 479.05C550.177 479.233 549.997 479.392 549.836 479.519C549.675 479.645 549.537 479.736 549.429 479.787C549.321 479.838 549.246 479.848 549.207 479.815Z"/>
<path d="M572.384 480.272C572.248 479.746 572.241 479.239 572.364 478.749C572.432 478.479 572.516 478.475 572.616 478.735C572.806 479.225 572.825 479.738 572.67 480.272C572.575 480.621 572.48 480.621 572.384 480.272Z"/>
</mask>
<path d="M573.188 407.443C573.229 407.673 573.095 407.741 572.786 407.648L562.039 403.244C562.001 403.228 561.959 403.222 561.918 403.228C561.877 403.233 561.838 403.25 561.805 403.276C561.773 403.301 561.748 403.335 561.732 403.374C561.717 403.413 561.713 403.455 561.719 403.496C561.914 404.67 562.173 405.827 562.496 406.966C563.34 409.953 565.812 411.874 567.072 414.709C569.088 419.243 569.535 423.961 568.414 428.862C568.364 429.079 568.393 429.284 568.502 429.478C569.313 430.929 570.321 432.333 570.92 433.79C573.771 440.758 574.643 447.995 573.535 455.501C572.139 464.985 569.585 474.165 562.904 481.351C562.75 481.515 562.773 481.649 562.972 481.755C563.826 482.201 564.709 482.572 565.621 482.868C567.828 483.577 570.314 485.974 568.904 488.293C568.786 488.482 568.625 488.626 568.421 488.723C567.331 489.244 566.371 489.928 565.54 490.776C565.367 490.953 565.158 491.008 564.913 490.942L563.537 490.584C563.288 490.518 563.054 490.551 562.836 490.684L561.576 491.472C561.472 491.537 561.35 491.572 561.224 491.572C561.099 491.572 560.975 491.537 560.868 491.472C560.119 491.015 559.485 490.611 558.552 490.597C556.073 490.558 552.845 490.684 551.013 488.955C550.378 488.354 549.735 487.763 549.086 487.18C548.923 487.034 548.73 486.946 548.507 486.915C545.788 486.531 542.995 486.16 540.131 485.802C531.876 484.76 523.468 485.169 514.905 487.027C514.692 487.076 514.515 487.182 514.374 487.345C513.452 488.458 512.835 489.147 512.522 489.412C510.036 491.518 508.041 491.154 505.241 490.948C503.954 490.849 503.069 491.273 502.007 491.843C501.709 492.003 501.358 492.043 501.031 491.953C500.703 491.864 500.425 491.653 500.256 491.366L499.868 490.703C499.469 490.023 498.987 489.964 498.424 490.525C497.712 491.235 497.128 491.275 496.674 490.644C493.582 486.359 498.418 484.014 501.257 481.901C501.444 481.76 501.464 481.601 501.319 481.424C500.869 480.888 500.25 480.557 499.855 480.06C495.85 475.04 493.766 469.648 492.016 463.224C490.341 457.068 489.709 450.825 490.123 444.493C490.468 439.203 491.734 434.508 493.923 430.406C494.363 429.584 494.549 428.644 494.481 427.584C494.168 422.665 495.121 418.206 497.342 414.205C498.329 412.43 499.616 410.834 500.862 409.165C501.562 408.224 501.988 407.244 502.143 406.224C502.315 405.094 502.417 403.988 502.449 402.906C502.458 402.681 502.352 402.601 502.129 402.668C498.565 403.736 495.078 404.99 491.669 406.43C491.619 406.452 491.58 406.436 491.553 406.383C491.535 406.344 491.546 406.313 491.587 406.291C495.065 404.44 498.722 403.008 502.558 401.992C502.762 401.939 502.903 401.813 502.98 401.615L505.173 395.852C505.255 395.645 505.18 395.532 504.949 395.515C503.31 395.382 501.677 395.314 500.052 395.309C500.038 395.309 500.032 395.316 500.032 395.329C500.032 395.329 500.032 395.331 500.032 395.336C500.036 395.34 500.041 395.342 500.045 395.342C501.548 395.192 503.269 395.011 505.207 394.799C505.434 394.774 505.652 394.7 505.845 394.582C506.037 394.464 506.199 394.305 506.317 394.117L509.137 389.62C509.289 389.379 509.343 389.091 509.289 388.813C509.235 388.535 509.076 388.287 508.844 388.116C504.081 384.571 503.337 380.345 506.61 375.44C509.682 370.836 516.444 369.121 520.599 373.665C520.948 374.044 521.343 374.373 521.784 374.651C521.974 374.771 522.181 374.802 522.403 374.744C530.038 372.751 537.447 372.698 544.918 375.181C545.038 375.221 545.168 375.215 545.283 375.165C545.398 375.114 545.489 375.023 545.538 374.91C546.664 372.34 548.396 371.084 550.734 371.141C554.943 371.24 558.266 375.049 559.24 378.897C560.23 382.778 558.897 385.743 555.243 387.792C554.77 388.052 554.666 388.414 554.929 388.878C556.627 391.867 558.178 394.76 559.581 397.555C559.685 397.762 559.855 397.875 560.092 397.892C564.664 398.193 569.079 399.186 573.338 400.873C573.41 400.899 573.433 400.948 573.406 401.018L573.351 401.177C573.347 401.186 573.337 401.188 573.324 401.184C569.642 400.014 565.628 399.133 561.283 398.541C560.484 398.431 560.219 398.747 560.487 399.488L561.345 401.84C561.431 402.078 561.597 402.242 561.842 402.33C565.783 403.756 569.565 405.46 573.188 407.443ZM547.908 398.27C547.903 398.24 547.905 398.21 547.913 398.181C547.92 398.151 547.934 398.124 547.954 398.101C547.973 398.077 547.997 398.057 548.024 398.043C548.051 398.029 548.081 398.021 548.112 398.018L556.257 397.217C556.3 397.212 556.341 397.198 556.376 397.175C556.412 397.152 556.442 397.121 556.462 397.085C556.483 397.048 556.495 397.008 556.496 396.966C556.497 396.924 556.487 396.883 556.468 396.846L555.488 394.806C555.406 394.634 555.268 394.574 555.072 394.627L546.757 397.045C546.548 397.106 546.457 397.031 546.485 396.819L546.519 396.594C546.523 396.528 546.557 396.486 546.621 396.468L554.616 394.21C555.07 394.082 555.177 393.821 554.936 393.428C553.758 391.501 552.478 389.858 552.505 387.626C552.509 387.401 552.425 387.218 552.253 387.077C552.021 386.887 551.797 386.774 551.579 386.739C551.275 386.693 550.991 386.566 550.76 386.371C550.529 386.177 550.359 385.923 550.271 385.639C549.513 383.233 548.752 380.886 547.99 378.599C547.92 378.393 547.8 378.207 547.638 378.057C547.477 377.907 547.279 377.797 547.063 377.738C538.959 375.473 531.563 374.426 523.296 376.493C522.363 376.725 521.191 376.784 520.497 376.267C518.052 374.459 515.927 372.393 512.563 373.082C512.494 373.095 512.432 373.132 512.39 373.186C512.349 373.24 512.33 373.307 512.338 373.373L512.358 373.545C512.367 373.616 512.41 373.649 512.488 373.645C515.239 373.446 516.705 374.598 516.887 377.102C517.137 380.515 516.117 383.626 513.829 386.434C513.666 386.633 513.45 386.741 513.182 386.759C512.51 386.803 511.87 386.949 511.262 387.196C511.2 387.22 511.143 387.257 511.096 387.303C511.048 387.349 511.011 387.405 510.986 387.465C510.962 387.526 510.95 387.591 510.951 387.656C510.953 387.721 510.968 387.785 510.996 387.845C511.67 389.256 511.698 390.289 510.676 391.64C509.85 392.722 509.044 393.852 508.258 395.031C508.221 395.087 508.198 395.152 508.194 395.22C508.189 395.287 508.203 395.354 508.233 395.415C508.263 395.475 508.309 395.527 508.366 395.566C508.423 395.604 508.489 395.628 508.558 395.634C512.599 395.952 516.717 396.418 520.912 397.031C520.962 397.04 520.985 397.069 520.98 397.117L520.953 397.303C520.951 397.32 520.946 397.337 520.937 397.352C520.929 397.367 520.917 397.38 520.903 397.391C520.889 397.401 520.873 397.409 520.856 397.413C520.838 397.418 520.82 397.418 520.803 397.415C517.589 396.983 514.383 396.614 511.187 396.309C510.279 396.221 509.355 396.053 508.415 395.806C508.197 395.749 508.043 395.821 507.952 396.025C507.067 398.007 506.179 399.99 505.289 401.972C504.431 403.893 504.411 405.728 504.186 407.728C504.119 408.315 503.875 408.868 503.484 409.317C499.18 414.298 496.545 419 496.981 425.855C497.199 429.339 499.739 433.221 501.727 436.062C503.307 438.32 504.588 439.658 507.101 439.758C509.77 439.859 512.44 439.824 515.11 439.652C517.616 439.486 520.047 441.195 522.131 442.361C523.384 443.063 524.297 442.221 525.625 442.844C525.865 442.959 525.983 442.886 525.979 442.625C525.979 442.502 525.924 442.376 525.815 442.248C525.016 441.316 524.387 440.599 523.929 440.095C522.962 439.031 523.193 438.654 524.624 438.963C525.713 439.201 526.762 440.499 528.158 439.473C528.349 439.336 528.365 439.184 528.206 439.016C527.638 438.42 527.032 437.866 526.387 437.353C526.183 437.19 526.056 437.031 526.006 436.877C525.929 436.638 525.961 436.435 526.101 436.267C526.247 436.086 526.431 436.04 526.653 436.128C527.034 436.274 527.434 436.344 527.852 436.34C528.106 436.34 528.188 436.225 528.097 435.996C527.992 435.717 527.808 435.499 527.545 435.34C527.35 435.216 527.139 435.177 526.912 435.221C525.223 435.552 523.577 435.4 521.974 434.764C521.887 434.729 521.811 434.673 521.754 434.601C521.697 434.529 521.66 434.444 521.647 434.353C521.62 434.115 521.765 434.006 522.083 434.029C523.491 434.126 524.757 434.26 525.883 434.433C526.428 434.512 526.49 434.382 526.067 434.042C522.812 431.375 519.518 428.741 516.186 426.14C516.045 426.03 515.979 425.906 515.988 425.769C515.993 425.717 516.01 425.667 516.037 425.622C516.064 425.577 516.101 425.538 516.145 425.507C516.189 425.477 516.239 425.457 516.292 425.447C516.345 425.437 516.399 425.439 516.451 425.451C517.332 425.663 518.176 426.037 518.985 426.571C521.491 428.231 523.981 430.11 526.456 432.207C527.286 432.909 528.02 433.686 528.655 434.539C528.789 434.716 528.867 434.927 528.88 435.148C528.966 436.464 529.316 437.804 529.929 439.168C530.006 439.338 530.043 439.523 530.037 439.708C530.031 439.894 529.983 440.076 529.895 440.241C529.808 440.406 529.684 440.55 529.531 440.663C529.379 440.775 529.203 440.853 529.016 440.89C528.549 440.987 528.058 440.941 527.545 440.751C527.146 440.605 527.071 440.7 527.32 441.036C528.119 442.113 528.108 442.979 527.286 443.632C525.543 445.023 523.52 445.083 521.218 443.811C519.427 442.818 517.241 441.135 515.096 441.228C512.345 441.356 509.984 441.424 508.013 441.433C505.051 441.453 503.532 440.817 501.714 438.724C499.126 435.753 497.36 432.684 496.415 429.518C496.347 429.284 496.265 429.28 496.17 429.505C493.732 435.241 492.404 441.067 492.186 446.984C491.866 455.812 494.365 464.959 498.186 473.139C500.529 478.146 503.26 482.265 508.524 484.173C510.199 484.782 512.195 484.736 514.027 484.776C515.28 484.807 516.655 484.663 518.154 484.345C527.275 482.393 536.417 482.382 545.579 484.312C547.234 484.656 548.739 484.63 550.421 484.709C551.361 484.758 553.538 484.051 556.952 482.59C558.01 482.135 559.079 481.667 560.16 481.186C561.068 480.784 561.767 480.245 562.257 479.57C568.918 470.476 571.928 459.693 571.901 448.706C571.882 443.186 570.377 437.402 567.385 431.353C567.285 431.145 567.201 431.152 567.133 431.373C566.418 433.863 563.932 438.95 560.779 439.155C558.051 439.327 555.308 439.603 552.553 439.983C551.136 440.175 549.985 440.294 548.725 441.155C546.634 442.579 543.372 444.944 541.486 444.295C540.392 443.919 539.341 443.551 538.333 443.188C538.242 443.157 538.159 443.105 538.091 443.038C538.023 442.971 537.971 442.89 537.939 442.801C537.907 442.711 537.896 442.616 537.906 442.522C537.917 442.427 537.948 442.336 537.999 442.255C538.83 440.93 540.056 440.089 541.677 439.731C541.779 439.709 541.887 439.725 541.977 439.775C542.068 439.826 542.136 439.907 542.167 440.003C542.19 440.078 542.199 440.151 542.194 440.221C542.176 440.451 542.058 440.612 541.84 440.705C541.327 440.925 540.948 441.299 540.703 441.824C540.603 442.036 540.664 442.18 540.886 442.255C542.53 442.807 543.922 442.637 545.061 441.745C547.858 439.563 550.696 438.362 553.574 438.142C555.862 437.965 558.153 437.799 560.446 437.645C562.094 437.532 562.434 436.824 563.224 435.611C567.896 428.478 568.55 419.398 563.177 412.53C561.606 410.529 560.725 409.017 560.534 407.993C560.216 406.249 559.756 404.524 559.152 402.82C559.079 402.608 558.932 402.471 558.709 402.409C555.744 401.57 552.389 400.888 548.643 400.363C548.303 400.314 548.028 400.149 547.819 399.866C547.67 399.663 547.722 399.577 547.976 399.608C551.685 400.071 555.22 400.765 558.58 401.687C558.934 401.785 559.038 401.668 558.893 401.336C558.466 400.334 557.942 399.367 557.32 398.435C557.228 398.295 557.101 398.181 556.951 398.102C556.801 398.023 556.632 397.983 556.462 397.985C553.792 398.016 550.97 398.208 547.996 398.561C547.965 398.561 547.946 398.548 547.942 398.521L547.908 398.27ZM553.05 374.102C553.058 374.1 553.066 374.097 553.072 374.093C553.079 374.088 553.084 374.082 553.088 374.075C553.091 374.068 553.093 374.061 553.092 374.054C553.091 374.047 553.088 374.041 553.084 374.035C552.58 373.316 551.84 373.071 550.864 373.3C548.739 373.799 547.695 375.133 547.731 377.301C547.735 377.521 547.81 377.68 547.956 377.778C548.173 377.919 548.31 377.866 548.364 377.619C548.864 375.38 550.425 374.208 553.05 374.102ZM549.61 380.195C550.08 381.738 551.361 385.361 552.77 386.076C554.766 387.096 556.972 384.494 557.49 382.957C558.546 379.831 556.482 376.44 553.867 374.592C553.549 374.371 553.12 374.314 552.58 374.42C549.188 375.108 548.712 377.208 549.61 380.195ZM515.484 376.241C515.339 375.671 515.026 375.278 514.544 375.062C512.088 373.963 510.031 374.413 508.374 376.413C506.772 378.338 506.279 380.445 506.896 382.732C507.904 386.467 512.127 387.381 514.32 384.01C515.836 381.674 516.224 379.085 515.484 376.241ZM561.168 486.08C561.184 485.903 561.251 485.734 561.361 485.592C561.471 485.449 561.62 485.34 561.791 485.276C561.962 485.212 562.148 485.196 562.328 485.229C562.508 485.262 562.674 485.344 562.809 485.464L564.961 487.365C565.089 487.478 565.243 487.558 565.409 487.6C565.575 487.641 565.748 487.643 565.914 487.604C566.259 487.529 566.525 487.387 566.711 487.18C566.776 487.109 566.825 487.025 566.855 486.935C566.885 486.844 566.895 486.749 566.886 486.654C566.876 486.559 566.846 486.467 566.799 486.383C566.751 486.299 566.687 486.225 566.609 486.166C564.925 484.908 563.095 483.857 561.12 483.014C560.927 482.931 560.719 482.887 560.509 482.887C560.298 482.887 560.091 482.931 559.901 483.014C556.991 484.259 554.035 485.076 551.034 485.464C550.793 485.495 550.73 485.615 550.843 485.822C553.029 489.856 556.216 487.584 559.587 488.763C560.427 489.059 561.304 489.167 562.216 489.087C562.852 489.034 562.938 488.796 562.475 488.372C561.54 487.511 561.104 486.747 561.168 486.08ZM503.246 487.027L502.02 488.624C501.18 489.71 501.41 490.001 502.708 489.498C503.993 489.003 505.428 488.853 507.012 489.048C509.334 489.339 511.466 488.809 512.665 486.683C512.704 486.613 512.724 486.534 512.721 486.454C512.718 486.374 512.692 486.296 512.648 486.229C512.603 486.162 512.541 486.107 512.467 486.072C512.393 486.037 512.311 486.021 512.229 486.027C510.819 486.127 509.607 486.153 508.258 485.517C506.669 484.771 505.089 484.018 503.518 483.259C503.314 483.162 503.112 483.171 502.912 483.285C501.024 484.376 499.316 485.758 497.791 487.432C497.75 487.476 497.718 487.529 497.699 487.586C497.68 487.644 497.673 487.704 497.68 487.764C497.686 487.824 497.705 487.882 497.736 487.934C497.767 487.986 497.809 488.032 497.859 488.067C498.286 488.368 498.654 488.432 498.962 488.259C499.108 488.176 499.262 487.95 499.425 487.584C500.088 486.083 501.282 485.637 503.008 486.246C503.085 486.274 503.154 486.319 503.21 486.377C503.266 486.435 503.307 486.505 503.33 486.581C503.354 486.657 503.358 486.737 503.343 486.814C503.329 486.892 503.295 486.965 503.246 487.027ZM499.786 487.994C499.687 488.1 499.628 488.169 499.609 488.2C499.378 488.681 499.498 488.785 499.97 488.511C500.538 488.184 500.935 487.791 501.162 487.332C501.548 486.546 501.36 486.383 500.597 486.842C500.263 487.041 500.147 487.637 499.786 487.994Z" fill="#030712"/>
<path d="M526.025 385.789C526.693 386.481 527 387.448 526.88 388.477C526.76 389.507 526.222 390.515 525.385 391.28C524.97 391.658 524.495 391.966 523.985 392.185C523.475 392.404 522.942 392.53 522.415 392.555C521.888 392.581 521.378 392.506 520.914 392.334C520.45 392.163 520.041 391.899 519.71 391.556C519.042 390.865 518.735 389.898 518.855 388.868C518.975 387.838 519.513 386.83 520.35 386.065C520.765 385.687 521.24 385.379 521.75 385.16C522.26 384.942 522.793 384.816 523.32 384.79C523.847 384.764 524.357 384.839 524.821 385.011C525.285 385.182 525.694 385.447 526.025 385.789ZM523.65 387.779C523.722 387.727 523.781 387.658 523.823 387.577C523.866 387.497 523.89 387.406 523.896 387.309C523.902 387.213 523.888 387.113 523.856 387.016C523.825 386.919 523.775 386.826 523.711 386.742C523.581 386.573 523.399 386.454 523.204 386.409C523.009 386.365 522.817 386.4 522.671 386.506C522.598 386.559 522.54 386.627 522.497 386.708C522.455 386.789 522.43 386.88 522.425 386.976C522.419 387.072 522.432 387.172 522.464 387.269C522.496 387.367 522.545 387.46 522.61 387.543C522.739 387.712 522.922 387.832 523.117 387.876C523.312 387.92 523.504 387.885 523.65 387.779Z" fill="#030712"/>
<path d="M546.452 392.881C545.666 393.32 544.687 393.362 543.732 392.997C542.776 392.631 541.921 391.889 541.356 390.932C540.791 389.976 540.561 388.884 540.717 387.897C540.873 386.91 541.402 386.109 542.188 385.669C542.974 385.23 543.952 385.188 544.908 385.553C545.863 385.919 546.718 386.661 547.283 387.618C547.849 388.574 548.079 389.666 547.923 390.653C547.767 391.64 547.238 392.441 546.452 392.881ZM541.884 388.862C541.966 388.907 542.059 388.93 542.158 388.931C542.257 388.932 542.361 388.91 542.463 388.867C542.564 388.823 542.662 388.759 542.751 388.678C542.84 388.596 542.918 388.5 542.98 388.393C543.106 388.178 543.161 387.935 543.133 387.718C543.106 387.502 542.998 387.329 542.833 387.238C542.751 387.193 542.658 387.169 542.559 387.168C542.459 387.167 542.356 387.189 542.254 387.233C542.152 387.276 542.054 387.34 541.965 387.422C541.877 387.503 541.799 387.6 541.737 387.706C541.611 387.922 541.556 388.164 541.583 388.381C541.611 388.598 541.719 388.771 541.884 388.862Z" fill="#030712"/>
<path d="M534.839 401.879C534.9 403.495 534.594 406.165 536.085 407.184C537.938 408.452 540.094 408.699 542.555 407.926C543.073 407.763 543.211 407.92 542.971 408.397C542.603 409.121 541.881 409.598 540.805 409.827C539.207 410.167 537.368 409.825 535.289 408.801C535.043 408.681 534.816 408.706 534.608 408.873C533.177 410.021 531.305 410.492 528.989 410.284C528.453 410.236 527.89 409.979 527.3 409.516C527.159 409.41 527.048 409.273 526.966 409.105C526.676 408.491 526.873 408.224 527.559 408.304C533.259 408.973 534.88 406.615 534.022 401.932C533.981 401.707 533.854 401.553 533.64 401.469C532.051 400.824 530.905 399.853 530.201 398.554C529.466 397.186 529.588 396.163 530.569 395.488C532.142 394.395 535.37 394.826 537.23 395.243C539.422 395.733 539.477 397.568 538.435 399.104C537.663 400.239 536.61 400.974 535.275 401.31C535.146 401.342 535.032 401.416 534.953 401.519C534.874 401.623 534.833 401.75 534.839 401.879ZM533.606 400.29C535.064 400.767 536.269 400.416 537.223 399.237C537.436 398.972 537.65 398.707 537.863 398.442C538.816 397.267 538.555 396.464 537.08 396.031C535.245 395.497 533.366 395.4 531.441 395.74C531.268 395.77 531.105 395.837 530.962 395.935C530.818 396.033 530.698 396.16 530.61 396.307C530.522 396.454 530.468 396.618 530.452 396.788C530.435 396.958 530.457 397.129 530.515 397.289C531.059 398.799 532.09 399.8 533.606 400.29Z" fill="#030712"/>
<path d="M506.352 401.502C511.065 400.455 515.848 399.958 520.701 400.011C520.742 400.011 520.763 400.031 520.763 400.071V400.25C520.767 400.427 520.676 400.513 520.49 400.508C515.714 400.455 510.981 400.93 506.291 401.932C506.284 401.933 506.278 401.933 506.272 401.932C506.265 401.931 506.26 401.929 506.254 401.926C506.249 401.923 506.245 401.919 506.242 401.914C506.239 401.91 506.237 401.904 506.236 401.899L506.202 401.733C506.19 401.685 506.199 401.633 506.227 401.589C506.255 401.546 506.3 401.515 506.352 401.502Z" fill="#030712"/>
<path d="M541.043 433.511L544.469 433.71C544.523 433.715 544.553 433.743 544.557 433.796L544.564 433.975C544.568 434.035 544.549 434.094 544.51 434.142C544.471 434.19 544.415 434.222 544.353 434.233C543.032 434.463 541.717 434.56 540.41 434.525C540.115 434.52 539.865 434.622 539.661 434.829C538.871 435.637 538.233 436.49 537.747 437.386C536.893 438.954 537.202 439.216 538.673 438.174C539.34 437.702 539.881 437.459 540.294 437.446C541.692 437.393 541.81 437.746 540.648 438.505C540.017 438.912 539.372 439.501 538.714 440.274C536.912 442.393 536.022 442.077 536.044 439.327C536.085 433.71 543.386 428.041 547.887 425.458C548.092 425.338 548.267 425.374 548.412 425.564L548.528 425.716C548.556 425.75 548.57 425.793 548.566 425.837C548.562 425.882 548.541 425.923 548.507 425.954L540.825 432.942C540.439 433.295 540.512 433.485 541.043 433.511Z" fill="#030712"/>
<path d="M533.294 430.823C533.313 430.822 533.332 430.825 533.35 430.831C533.369 430.838 533.385 430.848 533.399 430.861C533.413 430.874 533.424 430.889 533.432 430.907C533.44 430.924 533.443 430.943 533.443 430.962V431.034C533.598 436.424 533.705 441.597 533.741 445.431C533.776 449.265 533.738 451.451 533.634 451.513L533.484 451.52C533.432 451.553 533.365 451.049 533.286 450.036C533.208 449.023 533.12 447.521 533.027 445.618C532.935 443.715 532.84 441.448 532.748 438.95C532.655 436.451 532.568 433.77 532.49 431.061V430.988C532.489 430.97 532.492 430.952 532.498 430.934C532.505 430.917 532.514 430.901 532.527 430.888C532.54 430.874 532.555 430.863 532.572 430.855C532.589 430.848 532.607 430.843 532.626 430.842L533.294 430.823Z" fill="#030712"/>
<path d="M514 479.563C514.472 479.859 514.971 480.144 515.498 480.417C515.556 480.447 515.605 480.489 515.643 480.541C515.68 480.593 515.704 480.653 515.713 480.716C515.722 480.779 515.715 480.843 515.693 480.903C515.671 480.963 515.634 481.017 515.587 481.06C515.446 481.192 515.237 481.21 514.96 481.113C512.785 480.353 511.094 479.049 509.886 477.198C509.732 476.964 509.771 476.766 510.002 476.602L510.138 476.503C510.191 476.464 510.257 476.446 510.322 476.454C510.387 476.461 510.446 476.493 510.486 476.543C511.48 477.722 512.651 478.728 514 479.563Z" fill="#030712"/>
<path d="M549.207 479.815C549.169 479.782 549.168 479.709 549.205 479.598C549.241 479.487 549.315 479.341 549.421 479.168C549.528 478.996 549.665 478.8 549.825 478.593C549.984 478.385 550.164 478.169 550.353 477.958C550.542 477.746 550.737 477.543 550.926 477.361C551.115 477.178 551.295 477.019 551.456 476.892C551.617 476.766 551.755 476.674 551.863 476.624C551.971 476.573 552.046 476.563 552.085 476.596C552.123 476.628 552.124 476.702 552.087 476.813C552.051 476.924 551.977 477.07 551.87 477.242C551.764 477.415 551.627 477.611 551.467 477.818C551.307 478.026 551.128 478.242 550.939 478.453C550.75 478.664 550.555 478.867 550.366 479.05C550.177 479.233 549.997 479.392 549.836 479.519C549.675 479.645 549.537 479.736 549.429 479.787C549.321 479.838 549.246 479.848 549.207 479.815Z" fill="#030712"/>
<path d="M572.384 480.272C572.248 479.746 572.241 479.239 572.364 478.749C572.432 478.479 572.516 478.475 572.616 478.735C572.806 479.225 572.825 479.738 572.67 480.272C572.575 480.621 572.48 480.621 572.384 480.272Z" fill="#030712"/>
<path d="M573.188 407.443C573.229 407.673 573.095 407.741 572.786 407.648L562.039 403.244C562.001 403.228 561.959 403.222 561.918 403.228C561.877 403.233 561.838 403.25 561.805 403.276C561.773 403.301 561.748 403.335 561.732 403.374C561.717 403.413 561.713 403.455 561.719 403.496C561.914 404.67 562.173 405.827 562.496 406.966C563.34 409.953 565.812 411.874 567.072 414.709C569.088 419.243 569.535 423.961 568.414 428.862C568.364 429.079 568.393 429.284 568.502 429.478C569.313 430.929 570.321 432.333 570.92 433.79C573.771 440.758 574.643 447.995 573.535 455.501C572.139 464.985 569.585 474.165 562.904 481.351C562.75 481.515 562.773 481.649 562.972 481.755C563.826 482.201 564.709 482.572 565.621 482.868C567.828 483.577 570.314 485.974 568.904 488.293C568.786 488.482 568.625 488.626 568.421 488.723C567.331 489.244 566.371 489.928 565.54 490.776C565.367 490.953 565.158 491.008 564.913 490.942L563.537 490.584C563.288 490.518 563.054 490.551 562.836 490.684L561.576 491.472C561.472 491.537 561.35 491.572 561.224 491.572C561.099 491.572 560.975 491.537 560.868 491.472C560.119 491.015 559.485 490.611 558.552 490.597C556.073 490.558 552.845 490.684 551.013 488.955C550.378 488.354 549.735 487.763 549.086 487.18C548.923 487.034 548.73 486.946 548.507 486.915C545.788 486.531 542.995 486.16 540.131 485.802C531.876 484.76 523.468 485.169 514.905 487.027C514.692 487.076 514.515 487.182 514.374 487.345C513.452 488.458 512.835 489.147 512.522 489.412C510.036 491.518 508.041 491.154 505.241 490.948C503.954 490.849 503.069 491.273 502.007 491.843C501.709 492.003 501.358 492.043 501.031 491.953C500.703 491.864 500.425 491.653 500.256 491.366L499.868 490.703C499.469 490.023 498.987 489.964 498.424 490.525C497.712 491.235 497.128 491.275 496.674 490.644C493.582 486.359 498.418 484.014 501.257 481.901C501.444 481.76 501.464 481.601 501.319 481.424C500.869 480.888 500.25 480.557 499.855 480.06C495.85 475.04 493.766 469.648 492.016 463.224C490.341 457.068 489.709 450.825 490.123 444.493C490.468 439.203 491.734 434.508 493.923 430.406C494.363 429.584 494.549 428.644 494.481 427.584C494.168 422.665 495.121 418.206 497.342 414.205C498.329 412.43 499.616 410.834 500.862 409.165C501.562 408.224 501.988 407.244 502.143 406.224C502.315 405.094 502.417 403.988 502.449 402.906C502.458 402.681 502.352 402.601 502.129 402.668C498.565 403.736 495.078 404.99 491.669 406.43C491.619 406.452 491.58 406.436 491.553 406.383C491.535 406.344 491.546 406.313 491.587 406.291C495.065 404.44 498.722 403.008 502.558 401.992C502.762 401.939 502.903 401.813 502.98 401.615L505.173 395.852C505.255 395.645 505.18 395.532 504.949 395.515C503.31 395.382 501.677 395.314 500.052 395.309C500.038 395.309 500.032 395.316 500.032 395.329C500.032 395.329 500.032 395.331 500.032 395.336C500.036 395.34 500.041 395.342 500.045 395.342C501.548 395.192 503.269 395.011 505.207 394.799C505.434 394.774 505.652 394.7 505.845 394.582C506.037 394.464 506.199 394.305 506.317 394.117L509.137 389.62C509.289 389.379 509.343 389.091 509.289 388.813C509.235 388.535 509.076 388.287 508.844 388.116C504.081 384.571 503.337 380.345 506.61 375.44C509.682 370.836 516.444 369.121 520.599 373.665C520.948 374.044 521.343 374.373 521.784 374.651C521.974 374.771 522.181 374.802 522.403 374.744C530.038 372.751 537.447 372.698 544.918 375.181C545.038 375.221 545.168 375.215 545.283 375.165C545.398 375.114 545.489 375.023 545.538 374.91C546.664 372.34 548.396 371.084 550.734 371.141C554.943 371.24 558.266 375.049 559.24 378.897C560.23 382.778 558.897 385.743 555.243 387.792C554.77 388.052 554.666 388.414 554.929 388.878C556.627 391.867 558.178 394.76 559.581 397.555C559.685 397.762 559.855 397.875 560.092 397.892C564.664 398.193 569.079 399.186 573.338 400.873C573.41 400.899 573.433 400.948 573.406 401.018L573.351 401.177C573.347 401.186 573.337 401.188 573.324 401.184C569.642 400.014 565.628 399.133 561.283 398.541C560.484 398.431 560.219 398.747 560.487 399.488L561.345 401.84C561.431 402.078 561.597 402.242 561.842 402.33C565.783 403.756 569.565 405.46 573.188 407.443ZM547.908 398.27C547.903 398.24 547.905 398.21 547.913 398.181C547.92 398.151 547.934 398.124 547.954 398.101C547.973 398.077 547.997 398.057 548.024 398.043C548.051 398.029 548.081 398.021 548.112 398.018L556.257 397.217C556.3 397.212 556.341 397.198 556.376 397.175C556.412 397.152 556.442 397.121 556.462 397.085C556.483 397.048 556.495 397.008 556.496 396.966C556.497 396.924 556.487 396.883 556.468 396.846L555.488 394.806C555.406 394.634 555.268 394.574 555.072 394.627L546.757 397.045C546.548 397.106 546.457 397.031 546.485 396.819L546.519 396.594C546.523 396.528 546.557 396.486 546.621 396.468L554.616 394.21C555.07 394.082 555.177 393.821 554.936 393.428C553.758 391.501 552.478 389.858 552.505 387.626C552.509 387.401 552.425 387.218 552.253 387.077C552.021 386.887 551.797 386.774 551.579 386.739C551.275 386.693 550.991 386.566 550.76 386.371C550.529 386.177 550.359 385.923 550.271 385.639C549.513 383.233 548.752 380.886 547.99 378.599C547.92 378.393 547.8 378.207 547.638 378.057C547.477 377.907 547.279 377.797 547.063 377.738C538.959 375.473 531.563 374.426 523.296 376.493C522.363 376.725 521.191 376.784 520.497 376.267C518.052 374.459 515.927 372.393 512.563 373.082C512.494 373.095 512.432 373.132 512.39 373.186C512.349 373.24 512.33 373.307 512.338 373.373L512.358 373.545C512.367 373.616 512.41 373.649 512.488 373.645C515.239 373.446 516.705 374.598 516.887 377.102C517.137 380.515 516.117 383.626 513.829 386.434C513.666 386.633 513.45 386.741 513.182 386.759C512.51 386.803 511.87 386.949 511.262 387.196C511.2 387.22 511.143 387.257 511.096 387.303C511.048 387.349 511.011 387.405 510.986 387.465C510.962 387.526 510.95 387.591 510.951 387.656C510.953 387.721 510.968 387.785 510.996 387.845C511.67 389.256 511.698 390.289 510.676 391.64C509.85 392.722 509.044 393.852 508.258 395.031C508.221 395.087 508.198 395.152 508.194 395.22C508.189 395.287 508.203 395.354 508.233 395.415C508.263 395.475 508.309 395.527 508.366 395.566C508.423 395.604 508.489 395.628 508.558 395.634C512.599 395.952 516.717 396.418 520.912 397.031C520.962 397.04 520.985 397.069 520.98 397.117L520.953 397.303C520.951 397.32 520.946 397.337 520.937 397.352C520.929 397.367 520.917 397.38 520.903 397.391C520.889 397.401 520.873 397.409 520.856 397.413C520.838 397.418 520.82 397.418 520.803 397.415C517.589 396.983 514.383 396.614 511.187 396.309C510.279 396.221 509.355 396.053 508.415 395.806C508.197 395.749 508.043 395.821 507.952 396.025C507.067 398.007 506.179 399.99 505.289 401.972C504.431 403.893 504.411 405.728 504.186 407.728C504.119 408.315 503.875 408.868 503.484 409.317C499.18 414.298 496.545 419 496.981 425.855C497.199 429.339 499.739 433.221 501.727 436.062C503.307 438.32 504.588 439.658 507.101 439.758C509.77 439.859 512.44 439.824 515.11 439.652C517.616 439.486 520.047 441.195 522.131 442.361C523.384 443.063 524.297 442.221 525.625 442.844C525.865 442.959 525.983 442.886 525.979 442.625C525.979 442.502 525.924 442.376 525.815 442.248C525.016 441.316 524.387 440.599 523.929 440.095C522.962 439.031 523.193 438.654 524.624 438.963C525.713 439.201 526.762 440.499 528.158 439.473C528.349 439.336 528.365 439.184 528.206 439.016C527.638 438.42 527.032 437.866 526.387 437.353C526.183 437.19 526.056 437.031 526.006 436.877C525.929 436.638 525.961 436.435 526.101 436.267C526.247 436.086 526.431 436.04 526.653 436.128C527.034 436.274 527.434 436.344 527.852 436.34C528.106 436.34 528.188 436.225 528.097 435.996C527.992 435.717 527.808 435.499 527.545 435.34C527.35 435.216 527.139 435.177 526.912 435.221C525.223 435.552 523.577 435.4 521.974 434.764C521.887 434.729 521.811 434.673 521.754 434.601C521.697 434.529 521.66 434.444 521.647 434.353C521.62 434.115 521.765 434.006 522.083 434.029C523.491 434.126 524.757 434.26 525.883 434.433C526.428 434.512 526.49 434.382 526.067 434.042C522.812 431.375 519.518 428.741 516.186 426.14C516.045 426.03 515.979 425.906 515.988 425.769C515.993 425.717 516.01 425.667 516.037 425.622C516.064 425.577 516.101 425.538 516.145 425.507C516.189 425.477 516.239 425.457 516.292 425.447C516.345 425.437 516.399 425.439 516.451 425.451C517.332 425.663 518.176 426.037 518.985 426.571C521.491 428.231 523.981 430.11 526.456 432.207C527.286 432.909 528.02 433.686 528.655 434.539C528.789 434.716 528.867 434.927 528.88 435.148C528.966 436.464 529.316 437.804 529.929 439.168C530.006 439.338 530.043 439.523 530.037 439.708C530.031 439.894 529.983 440.076 529.895 440.241C529.808 440.406 529.684 440.55 529.531 440.663C529.379 440.775 529.203 440.853 529.016 440.89C528.549 440.987 528.058 440.941 527.545 440.751C527.146 440.605 527.071 440.7 527.32 441.036C528.119 442.113 528.108 442.979 527.286 443.632C525.543 445.023 523.52 445.083 521.218 443.811C519.427 442.818 517.241 441.135 515.096 441.228C512.345 441.356 509.984 441.424 508.013 441.433C505.051 441.453 503.532 440.817 501.714 438.724C499.126 435.753 497.36 432.684 496.415 429.518C496.347 429.284 496.265 429.28 496.17 429.505C493.732 435.241 492.404 441.067 492.186 446.984C491.866 455.812 494.365 464.959 498.186 473.139C500.529 478.146 503.26 482.265 508.524 484.173C510.199 484.782 512.195 484.736 514.027 484.776C515.28 484.807 516.655 484.663 518.154 484.345C527.275 482.393 536.417 482.382 545.579 484.312C547.234 484.656 548.739 484.63 550.421 484.709C551.361 484.758 553.538 484.051 556.952 482.59C558.01 482.135 559.079 481.667 560.16 481.186C561.068 480.784 561.767 480.245 562.257 479.57C568.918 470.476 571.928 459.693 571.901 448.706C571.882 443.186 570.377 437.402 567.385 431.353C567.285 431.145 567.201 431.152 567.133 431.373C566.418 433.863 563.932 438.95 560.779 439.155C558.051 439.327 555.308 439.603 552.553 439.983C551.136 440.175 549.985 440.294 548.725 441.155C546.634 442.579 543.372 444.944 541.486 444.295C540.392 443.919 539.341 443.551 538.333 443.188C538.242 443.157 538.159 443.105 538.091 443.038C538.023 442.971 537.971 442.89 537.939 442.801C537.907 442.711 537.896 442.616 537.906 442.522C537.917 442.427 537.948 442.336 537.999 442.255C538.83 440.93 540.056 440.089 541.677 439.731C541.779 439.709 541.887 439.725 541.977 439.775C542.068 439.826 542.136 439.907 542.167 440.003C542.19 440.078 542.199 440.151 542.194 440.221C542.176 440.451 542.058 440.612 541.84 440.705C541.327 440.925 540.948 441.299 540.703 441.824C540.603 442.036 540.664 442.18 540.886 442.255C542.53 442.807 543.922 442.637 545.061 441.745C547.858 439.563 550.696 438.362 553.574 438.142C555.862 437.965 558.153 437.799 560.446 437.645C562.094 437.532 562.434 436.824 563.224 435.611C567.896 428.478 568.55 419.398 563.177 412.53C561.606 410.529 560.725 409.017 560.534 407.993C560.216 406.249 559.756 404.524 559.152 402.82C559.079 402.608 558.932 402.471 558.709 402.409C555.744 401.57 552.389 400.888 548.643 400.363C548.303 400.314 548.028 400.149 547.819 399.866C547.67 399.663 547.722 399.577 547.976 399.608C551.685 400.071 555.22 400.765 558.58 401.687C558.934 401.785 559.038 401.668 558.893 401.336C558.466 400.334 557.942 399.367 557.32 398.435C557.228 398.295 557.101 398.181 556.951 398.102C556.801 398.023 556.632 397.983 556.462 397.985C553.792 398.016 550.97 398.208 547.996 398.561C547.965 398.561 547.946 398.548 547.942 398.521L547.908 398.27ZM553.05 374.102C553.058 374.1 553.066 374.097 553.072 374.093C553.079 374.088 553.084 374.082 553.088 374.075C553.091 374.068 553.093 374.061 553.092 374.054C553.091 374.047 553.088 374.041 553.084 374.035C552.58 373.316 551.84 373.071 550.864 373.3C548.739 373.799 547.695 375.133 547.731 377.301C547.735 377.521 547.81 377.68 547.956 377.778C548.173 377.919 548.31 377.866 548.364 377.619C548.864 375.38 550.425 374.208 553.05 374.102ZM549.61 380.195C550.08 381.738 551.361 385.361 552.77 386.076C554.766 387.096 556.972 384.494 557.49 382.957C558.546 379.831 556.482 376.44 553.867 374.592C553.549 374.371 553.12 374.314 552.58 374.42C549.188 375.108 548.712 377.208 549.61 380.195ZM515.484 376.241C515.339 375.671 515.026 375.278 514.544 375.062C512.088 373.963 510.031 374.413 508.374 376.413C506.772 378.338 506.279 380.445 506.896 382.732C507.904 386.467 512.127 387.381 514.32 384.01C515.836 381.674 516.224 379.085 515.484 376.241ZM561.168 486.08C561.184 485.903 561.251 485.734 561.361 485.592C561.471 485.449 561.62 485.34 561.791 485.276C561.962 485.212 562.148 485.196 562.328 485.229C562.508 485.262 562.674 485.344 562.809 485.464L564.961 487.365C565.089 487.478 565.243 487.558 565.409 487.6C565.575 487.641 565.748 487.643 565.914 487.604C566.259 487.529 566.525 487.387 566.711 487.18C566.776 487.109 566.825 487.025 566.855 486.935C566.885 486.844 566.895 486.749 566.886 486.654C566.876 486.559 566.846 486.467 566.799 486.383C566.751 486.299 566.687 486.225 566.609 486.166C564.925 484.908 563.095 483.857 561.12 483.014C560.927 482.931 560.719 482.887 560.509 482.887C560.298 482.887 560.091 482.931 559.901 483.014C556.991 484.259 554.035 485.076 551.034 485.464C550.793 485.495 550.73 485.615 550.843 485.822C553.029 489.856 556.216 487.584 559.587 488.763C560.427 489.059 561.304 489.167 562.216 489.087C562.852 489.034 562.938 488.796 562.475 488.372C561.54 487.511 561.104 486.747 561.168 486.08ZM503.246 487.027L502.02 488.624C501.18 489.71 501.41 490.001 502.708 489.498C503.993 489.003 505.428 488.853 507.012 489.048C509.334 489.339 511.466 488.809 512.665 486.683C512.704 486.613 512.724 486.534 512.721 486.454C512.718 486.374 512.692 486.296 512.648 486.229C512.603 486.162 512.541 486.107 512.467 486.072C512.393 486.037 512.311 486.021 512.229 486.027C510.819 486.127 509.607 486.153 508.258 485.517C506.669 484.771 505.089 484.018 503.518 483.259C503.314 483.162 503.112 483.171 502.912 483.285C501.024 484.376 499.316 485.758 497.791 487.432C497.75 487.476 497.718 487.529 497.699 487.586C497.68 487.644 497.673 487.704 497.68 487.764C497.686 487.824 497.705 487.882 497.736 487.934C497.767 487.986 497.809 488.032 497.859 488.067C498.286 488.368 498.654 488.432 498.962 488.259C499.108 488.176 499.262 487.95 499.425 487.584C500.088 486.083 501.282 485.637 503.008 486.246C503.085 486.274 503.154 486.319 503.21 486.377C503.266 486.435 503.307 486.505 503.33 486.581C503.354 486.657 503.358 486.737 503.343 486.814C503.329 486.892 503.295 486.965 503.246 487.027ZM499.786 487.994C499.687 488.1 499.628 488.169 499.609 488.2C499.378 488.681 499.498 488.785 499.97 488.511C500.538 488.184 500.935 487.791 501.162 487.332C501.548 486.546 501.36 486.383 500.597 486.842C500.263 487.041 500.147 487.637 499.786 487.994Z" stroke="#030712" stroke-width="2" mask="url(#path-92-inside-1_13950_24942)"/>
<path d="M526.025 385.789C526.693 386.481 527 387.448 526.88 388.477C526.76 389.507 526.222 390.515 525.385 391.28C524.97 391.658 524.495 391.966 523.985 392.185C523.475 392.404 522.942 392.53 522.415 392.555C521.888 392.581 521.378 392.506 520.914 392.334C520.45 392.163 520.041 391.899 519.71 391.556C519.042 390.865 518.735 389.898 518.855 388.868C518.975 387.838 519.513 386.83 520.35 386.065C520.765 385.687 521.24 385.379 521.75 385.16C522.26 384.942 522.793 384.816 523.32 384.79C523.847 384.764 524.357 384.839 524.821 385.011C525.285 385.182 525.694 385.447 526.025 385.789ZM523.65 387.779C523.722 387.727 523.781 387.658 523.823 387.577C523.866 387.497 523.89 387.406 523.896 387.309C523.902 387.213 523.888 387.113 523.856 387.016C523.825 386.919 523.775 386.826 523.711 386.742C523.581 386.573 523.399 386.454 523.204 386.409C523.009 386.365 522.817 386.4 522.671 386.506C522.598 386.559 522.54 386.627 522.497 386.708C522.455 386.789 522.43 386.88 522.425 386.976C522.419 387.072 522.432 387.172 522.464 387.269C522.496 387.367 522.545 387.46 522.61 387.543C522.739 387.712 522.922 387.832 523.117 387.876C523.312 387.92 523.504 387.885 523.65 387.779Z" stroke="#030712" stroke-width="2" mask="url(#path-92-inside-1_13950_24942)"/>
<path d="M546.452 392.881C545.666 393.32 544.687 393.362 543.732 392.997C542.776 392.631 541.921 391.889 541.356 390.932C540.791 389.976 540.561 388.884 540.717 387.897C540.873 386.91 541.402 386.109 542.188 385.669C542.974 385.23 543.952 385.188 544.908 385.553C545.863 385.919 546.718 386.661 547.283 387.618C547.849 388.574 548.079 389.666 547.923 390.653C547.767 391.64 547.238 392.441 546.452 392.881ZM541.884 388.862C541.966 388.907 542.059 388.93 542.158 388.931C542.257 388.932 542.361 388.91 542.463 388.867C542.564 388.823 542.662 388.759 542.751 388.678C542.84 388.596 542.918 388.5 542.98 388.393C543.106 388.178 543.161 387.935 543.133 387.718C543.106 387.502 542.998 387.329 542.833 387.238C542.751 387.193 542.658 387.169 542.559 387.168C542.459 387.167 542.356 387.189 542.254 387.233C542.152 387.276 542.054 387.34 541.965 387.422C541.877 387.503 541.799 387.6 541.737 387.706C541.611 387.922 541.556 388.164 541.583 388.381C541.611 388.598 541.719 388.771 541.884 388.862Z" stroke="#030712" stroke-width="2" mask="url(#path-92-inside-1_13950_24942)"/>
<path d="M534.839 401.879C534.9 403.495 534.594 406.165 536.085 407.184C537.938 408.452 540.094 408.699 542.555 407.926C543.073 407.763 543.211 407.92 542.971 408.397C542.603 409.121 541.881 409.598 540.805 409.827C539.207 410.167 537.368 409.825 535.289 408.801C535.043 408.681 534.816 408.706 534.608 408.873C533.177 410.021 531.305 410.492 528.989 410.284C528.453 410.236 527.89 409.979 527.3 409.516C527.159 409.41 527.048 409.273 526.966 409.105C526.676 408.491 526.873 408.224 527.559 408.304C533.259 408.973 534.88 406.615 534.022 401.932C533.981 401.707 533.854 401.553 533.64 401.469C532.051 400.824 530.905 399.853 530.201 398.554C529.466 397.186 529.588 396.163 530.569 395.488C532.142 394.395 535.37 394.826 537.23 395.243C539.422 395.733 539.477 397.568 538.435 399.104C537.663 400.239 536.61 400.974 535.275 401.31C535.146 401.342 535.032 401.416 534.953 401.519C534.874 401.623 534.833 401.75 534.839 401.879ZM533.606 400.29C535.064 400.767 536.269 400.416 537.223 399.237C537.436 398.972 537.65 398.707 537.863 398.442C538.816 397.267 538.555 396.464 537.08 396.031C535.245 395.497 533.366 395.4 531.441 395.74C531.268 395.77 531.105 395.837 530.962 395.935C530.818 396.033 530.698 396.16 530.61 396.307C530.522 396.454 530.468 396.618 530.452 396.788C530.435 396.958 530.457 397.129 530.515 397.289C531.059 398.799 532.09 399.8 533.606 400.29Z" stroke="#030712" stroke-width="2" mask="url(#path-92-inside-1_13950_24942)"/>
<path d="M506.352 401.502C511.065 400.455 515.848 399.958 520.701 400.011C520.742 400.011 520.763 400.031 520.763 400.071V400.25C520.767 400.427 520.676 400.513 520.49 400.508C515.714 400.455 510.981 400.93 506.291 401.932C506.284 401.933 506.278 401.933 506.272 401.932C506.265 401.931 506.26 401.929 506.254 401.926C506.249 401.923 506.245 401.919 506.242 401.914C506.239 401.91 506.237 401.904 506.236 401.899L506.202 401.733C506.19 401.685 506.199 401.633 506.227 401.589C506.255 401.546 506.3 401.515 506.352 401.502Z" stroke="#030712" stroke-width="2" mask="url(#path-92-inside-1_13950_24942)"/>
<path d="M541.043 433.511L544.469 433.71C544.523 433.715 544.553 433.743 544.557 433.796L544.564 433.975C544.568 434.035 544.549 434.094 544.51 434.142C544.471 434.19 544.415 434.222 544.353 434.233C543.032 434.463 541.717 434.56 540.41 434.525C540.115 434.52 539.865 434.622 539.661 434.829C538.871 435.637 538.233 436.49 537.747 437.386C536.893 438.954 537.202 439.216 538.673 438.174C539.34 437.702 539.881 437.459 540.294 437.446C541.692 437.393 541.81 437.746 540.648 438.505C540.017 438.912 539.372 439.501 538.714 440.274C536.912 442.393 536.022 442.077 536.044 439.327C536.085 433.71 543.386 428.041 547.887 425.458C548.092 425.338 548.267 425.374 548.412 425.564L548.528 425.716C548.556 425.75 548.57 425.793 548.566 425.837C548.562 425.882 548.541 425.923 548.507 425.954L540.825 432.942C540.439 433.295 540.512 433.485 541.043 433.511Z" stroke="#030712" stroke-width="2" mask="url(#path-92-inside-1_13950_24942)"/>
<path d="M533.294 430.823C533.313 430.822 533.332 430.825 533.35 430.831C533.369 430.838 533.385 430.848 533.399 430.861C533.413 430.874 533.424 430.889 533.432 430.907C533.44 430.924 533.443 430.943 533.443 430.962V431.034C533.598 436.424 533.705 441.597 533.741 445.431C533.776 449.265 533.738 451.451 533.634 451.513L533.484 451.52C533.432 451.553 533.365 451.049 533.286 450.036C533.208 449.023 533.12 447.521 533.027 445.618C532.935 443.715 532.84 441.448 532.748 438.95C532.655 436.451 532.568 433.77 532.49 431.061V430.988C532.489 430.97 532.492 430.952 532.498 430.934C532.505 430.917 532.514 430.901 532.527 430.888C532.54 430.874 532.555 430.863 532.572 430.855C532.589 430.848 532.607 430.843 532.626 430.842L533.294 430.823Z" stroke="#030712" stroke-width="2" mask="url(#path-92-inside-1_13950_24942)"/>
<path d="M514 479.563C514.472 479.859 514.971 480.144 515.498 480.417C515.556 480.447 515.605 480.489 515.643 480.541C515.68 480.593 515.704 480.653 515.713 480.716C515.722 480.779 515.715 480.843 515.693 480.903C515.671 480.963 515.634 481.017 515.587 481.06C515.446 481.192 515.237 481.21 514.96 481.113C512.785 480.353 511.094 479.049 509.886 477.198C509.732 476.964 509.771 476.766 510.002 476.602L510.138 476.503C510.191 476.464 510.257 476.446 510.322 476.454C510.387 476.461 510.446 476.493 510.486 476.543C511.48 477.722 512.651 478.728 514 479.563Z" stroke="#030712" stroke-width="2" mask="url(#path-92-inside-1_13950_24942)"/>
<path d="M549.207 479.815C549.169 479.782 549.168 479.709 549.205 479.598C549.241 479.487 549.315 479.341 549.421 479.168C549.528 478.996 549.665 478.8 549.825 478.593C549.984 478.385 550.164 478.169 550.353 477.958C550.542 477.746 550.737 477.543 550.926 477.361C551.115 477.178 551.295 477.019 551.456 476.892C551.617 476.766 551.755 476.674 551.863 476.624C551.971 476.573 552.046 476.563 552.085 476.596C552.123 476.628 552.124 476.702 552.087 476.813C552.051 476.924 551.977 477.07 551.87 477.242C551.764 477.415 551.627 477.611 551.467 477.818C551.307 478.026 551.128 478.242 550.939 478.453C550.75 478.664 550.555 478.867 550.366 479.05C550.177 479.233 549.997 479.392 549.836 479.519C549.675 479.645 549.537 479.736 549.429 479.787C549.321 479.838 549.246 479.848 549.207 479.815Z" stroke="#030712" stroke-width="2" mask="url(#path-92-inside-1_13950_24942)"/>
<path d="M572.384 480.272C572.248 479.746 572.241 479.239 572.364 478.749C572.432 478.479 572.516 478.475 572.616 478.735C572.806 479.225 572.825 479.738 572.67 480.272C572.575 480.621 572.48 480.621 572.384 480.272Z" stroke="#030712" stroke-width="2" mask="url(#path-92-inside-1_13950_24942)"/>
<path d="M447.017 264.715C443.075 269.819 445.029 287.824 454.07 292.456C458.737 283.448 452.646 267.532 447.017 264.715Z" fill="#69AF24"/>
<path d="M466.279 266.097C460.133 267.009 449.096 281.818 451.986 291.868C461.295 288.585 468.124 272.305 466.279 266.097Z" fill="#69AF24"/>
<path d="M478.162 282.516C473.412 278.701 455.849 281.64 450.895 291.221C459.394 295.585 475.142 288.478 478.162 282.516Z" fill="#69AF24"/>
<path d="M435.218 296.985C437.725 289.928 445.969 286.811 452.518 290.443V290.443C459.067 294.076 460.788 302.719 456.129 308.583L421.69 351.932C420.807 353.043 419.249 353.353 418.008 352.665V352.665C416.766 351.976 416.205 350.491 416.68 349.153L435.218 296.985Z" fill="#F78A0A"/>
<defs>
<filter id="filter0_f_13950_24942" x="505" y="395" width="18" height="11" filterUnits="userSpaceOnUse" color-interpolation-filters="sRGB">
<feFlood flood-opacity="0" result="BackgroundImageFix"/>
<feBlend mode="normal" in="SourceGraphic" in2="BackgroundImageFix" result="shape"/>
<feGaussianBlur stdDeviation="1" result="effect1_foregroundBlur_13950_24942"/>
</filter>
<filter id="filter1_f_13950_24942" x="542" y="395" width="18" height="11" filterUnits="userSpaceOnUse" color-interpolation-filters="sRGB">
<feFlood flood-opacity="0" result="BackgroundImageFix"/>
<feBlend mode="normal" in="SourceGraphic" in2="BackgroundImageFix" result="shape"/>
<feGaussianBlur stdDeviation="1" result="effect1_foregroundBlur_13950_24942"/>
</filter>
<clipPath id="clip0_13950_24942">
<rect width="46" height="46" fill="white" transform="translate(14 295)"/>
</clipPath>
<clipPath id="clip1_13950_24942">
<rect width="32.4835" height="33.5574" fill="white" transform="translate(24.3037 301.41)"/>
</clipPath>
<clipPath id="clip2_13950_24942">
<rect width="32.4835" height="33.5574" fill="white" transform="matrix(-1 0 0 1 50.5312 301.41)"/>
</clipPath>
</defs>
</svg>
