<svg width="100%" height="100%" viewBox="0 0 256 256" fill="currentColor" xmlns="http://www.w3.org/2000/svg">
<g clip-path="url(#clip0_13892_24649)">
<path d="M128 187.85C130.566 189.559 133.238 191.102 136 192.47V232C136 234.122 135.157 236.157 133.657 237.657C132.157 239.157 130.122 240 128 240C125.879 240 123.844 239.157 122.343 237.657C120.843 236.157 120 234.122 120 232V192.47C122.762 191.102 125.435 189.559 128 187.85ZM198.1 62.59C192.313 48.7725 182.571 36.9734 170.099 28.6752C157.627 20.3769 142.981 15.9497 128 15.9497C113.02 15.9497 98.3733 20.3769 85.9012 28.6752C73.429 36.9734 63.6874 48.7725 57.9002 62.59C45.4023 68.3024 34.8088 77.4854 27.3806 89.0462C19.9524 100.607 16.0022 114.059 16.0002 127.8C15.9002 166 48.0002 199 86.1402 200C97.871 200.278 109.493 197.694 120 192.47V156.94L76.4202 135.16C74.5213 134.211 73.0773 132.546 72.4059 130.531C71.7345 128.517 71.8908 126.319 72.8402 124.42C73.7897 122.521 75.4547 121.077 77.4688 120.406C79.4829 119.734 81.6813 119.891 83.5802 120.84L120 139.06V88C120 85.8783 120.843 83.8435 122.343 82.3432C123.844 80.8429 125.879 80 128 80C130.122 80 132.157 80.8429 133.657 82.3432C135.157 83.8435 136 85.8783 136 88V115.06L172.42 96.84C173.36 96.3699 174.384 96.0896 175.433 96.0151C176.481 95.9405 177.534 96.0733 178.532 96.4057C179.529 96.7381 180.451 97.2638 181.245 97.9525C182.039 98.6413 182.69 99.4798 183.16 100.42C183.63 101.36 183.911 102.384 183.985 103.433C184.06 104.481 183.927 105.534 183.595 106.531C183.262 107.529 182.737 108.451 182.048 109.245C181.359 110.039 180.52 110.69 179.58 111.16L136 132.94V192.47C145.946 197.408 156.896 199.985 168 200H169.82C208 199 240.11 166 240 127.8C239.998 114.059 236.048 100.607 228.62 89.0462C221.192 77.4854 210.598 68.3024 198.1 62.59Z" fill="currentColor"/>
</g>
<defs>
<clipPath id="clip0_13892_24649">
<rect width="256" height="256" fill="white"/>
</clipPath>
</defs>
</svg>
