<svg width="20" height="21" viewBox="0 0 20 21" fill="none" xmlns="http://www.w3.org/2000/svg">
<path d="M7.35156 14.9553C6.46094 17.6038 2.92969 17.6038 2.92969 17.6038C2.92969 17.6038 2.92969 14.0725 5.57813 13.1819" stroke="white" stroke-width="1.5" stroke-linecap="round" stroke-linejoin="round"/>
<path d="M15.3047 8.76791L10 14.0726L6.46094 10.5335L11.7656 5.22885C13.7734 3.22104 15.7812 3.24448 16.6406 3.36948C16.7732 3.38717 16.8963 3.44801 16.9909 3.54261C17.0855 3.6372 17.1464 3.7603 17.1641 3.89291C17.2891 4.75229 17.3125 6.7601 15.3047 8.76791Z" stroke="white" stroke-width="1.5" stroke-linecap="round" stroke-linejoin="round"/>
<path d="M14.4219 9.65063V14.6975C14.4195 14.8624 14.3521 15.0196 14.2344 15.135L11.7109 17.6663C11.6309 17.7462 11.5306 17.803 11.4208 17.8304C11.3111 17.8578 11.1959 17.855 11.0876 17.8221C10.9794 17.7892 10.882 17.7276 10.8061 17.6437C10.7301 17.5598 10.6783 17.4569 10.6562 17.3459L10 14.0725" stroke="white" stroke-width="1.5" stroke-linecap="round" stroke-linejoin="round"/>
<path d="M10.883 6.11157H5.83612C5.67127 6.11392 5.51402 6.18131 5.39862 6.29907L2.86737 8.82251C2.78741 8.90257 2.73068 9.00283 2.70323 9.11261C2.67579 9.22238 2.67866 9.33755 2.71154 9.44582C2.74442 9.55409 2.80608 9.6514 2.88994 9.72738C2.9738 9.80335 3.07671 9.85513 3.18769 9.8772L6.46112 10.5334" stroke="white" stroke-width="1.5" stroke-linecap="round" stroke-linejoin="round"/>
</svg>
