<svg width="24" height="24" viewBox="0 0 24 24" fill="none" xmlns="http://www.w3.org/2000/svg">
<path d="M22.1 9.1C22 5.7 19.3 3 15.9 3C14.8 3 13.1 3.8 12.4 5.1C12.3 5.4 11.9 5.4 11.8 5.1C11 3.9 9.4 3.1 8.2 3.1C4.9 3.1 2.1 5.8 2 9.1V9.3C2 11 2.7 12.6 3.9 13.8C3.9 13.8 3.9 13.8 3.9 13.9C4 14 8.8 18.2 11 20.1C11.6 20.6 12.5 20.6 13.1 20.1C15.3 18.2 20 14 20.2 13.9C20.2 13.9 20.2 13.9 20.2 13.8C21.4 12.7 22.1 11.1 22.1 9.3V9.1Z" fill="#E5E7EB"/>
<path d="M12 12.5C12 9 12 11.5 12 8.5C12 6 12 7.3999 12 5.5C12 5.17969 12.0119 5.41788 11.8 5.1001C11 3.9001 9.4 3.1001 8.2 3.1001C4.9 3.1001 2.1 5.8001 2 9.1001V9.3001C2 11.0001 2.7 12.6001 3.9 13.8001C3.9 13.8001 3.9 13.8001 3.9 13.9001C4 14.0001 10 19.3 11 20.1001C12 20.8 12 20 12 20C12 20 12 17.4999 12 16V12.5Z" fill="#73CFA5"/>
</svg>
