<svg width="116" height="36" viewBox="0 0 116 36" fill="none" xmlns="http://www.w3.org/2000/svg">
<rect width="116" height="36" rx="12" fill="#F1FAF6"/>
<path fill-rule="evenodd" clip-rule="evenodd" d="M20.5896 13.315C20.1034 12.8288 20.1034 12.0407 20.5896 11.5545C21.0757 11.0684 21.8639 11.0684 22.35 11.5545L29.6948 18.8994C29.7334 18.8345 29.7815 18.6994 29.7815 18.4827C29.7815 18.4098 29.6877 18.1807 29.5561 17.8591C29.0741 16.6814 28.0844 14.2631 29.3288 13.7297C30.4963 13.2294 31.418 15.8017 32.094 17.688C32.3353 18.3614 32.5452 18.9473 32.7239 19.2748C32.7451 19.3138 32.7671 19.3539 32.7898 19.3951C33.4904 20.6695 34.7748 23.006 31.7054 26.4043C28.5367 29.9124 23.8969 28.2149 22.3126 26.6306C21.5814 25.8994 20.8879 25.1833 20.2668 24.5344C20.2618 24.5296 20.2568 24.5247 20.2518 24.5197L15.6107 19.8785C15.1246 19.3924 15.1246 18.6042 15.6107 18.1181C16.0968 17.632 16.885 17.632 17.3711 18.1181L20.8462 21.5932L21.0175 21.4382L15.8366 16.2573C15.3505 15.7712 15.3505 14.983 15.8366 14.4969C16.3227 14.0107 17.1109 14.0107 17.5971 14.4969L22.866 19.7657L23.0376 19.6104L17.4212 13.994C16.9351 13.5078 16.9351 12.7197 17.4212 12.2335C17.9073 11.7474 18.6955 11.7474 19.1816 12.2335L24.8861 17.938L25.0575 17.7829L20.5896 13.315Z" fill="#73CFA5"/>
<path d="M24.3975 8.97119C24.8189 8.95516 25.8212 9.11962 26.4588 9.90569C27.0965 10.6918 27.2717 11.6575 27.2795 12.0421" stroke="#FACC15" stroke-width="1.19251" stroke-linecap="round"/>
<path d="M27.1709 7.29346C27.4316 7.28404 28.0519 7.38818 28.4474 7.88013C28.843 8.37208 28.9528 8.97561 28.9582 9.21588" stroke="#FACC15" stroke-width="1.19251" stroke-linecap="round"/>
<path d="M19.3389 26.6328C18.9211 26.6905 17.9074 26.6262 17.1951 25.9071C16.4827 25.1881 16.2127 24.2444 16.1668 23.8625" stroke="#FACC15" stroke-width="1.19251" stroke-linecap="round"/>
<path d="M16.7451 28.5767C16.4866 28.6119 15.8591 28.5697 15.4167 28.1193C14.9744 27.669 14.8054 27.0793 14.7762 26.8407" stroke="#FACC15" stroke-width="1.19251" stroke-linecap="round"/>
<path d="M48.0312 21.7539H38.3516V20.6875H42.5234V18.3789H39.418V13.2695H46.918V18.3789H43.8125V20.6875H48.0312V21.7539ZM40.6953 17.3594H45.6289V14.3125H40.6953V17.3594ZM57.5469 18.4609H56.2344V12.4609H57.5469V18.4609ZM57.5469 22.9141H50.5156V18.9766H57.5469V22.9141ZM51.8047 21.8594H56.2695V20.0078H51.8047V21.8594ZM51.7695 12.9648C52.3086 12.9648 52.7949 13.0723 53.2285 13.2871C53.6621 13.498 54.002 13.7969 54.248 14.1836C54.4941 14.5664 54.6172 15.0039 54.6172 15.4961C54.6172 15.9727 54.4922 16.4023 54.2422 16.7852C53.9961 17.1641 53.6562 17.4629 53.2227 17.6816C52.7891 17.8965 52.3047 18.0039 51.7695 18.0039C51.2305 18.0039 50.7422 17.8965 50.3047 17.6816C49.8711 17.4668 49.5293 17.168 49.2793 16.7852C49.0332 16.4023 48.9102 15.9727 48.9102 15.4961C48.9102 15.0039 49.0332 14.5664 49.2793 14.1836C49.5293 13.7969 49.8711 13.498 50.3047 13.2871C50.7383 13.0723 51.2266 12.9648 51.7695 12.9648ZM51.7695 14.0664C51.4609 14.0664 51.1855 14.125 50.9434 14.2422C50.7051 14.3594 50.5176 14.5254 50.3809 14.7402C50.248 14.9551 50.1836 15.207 50.1875 15.4961C50.1836 15.7773 50.248 16.0254 50.3809 16.2402C50.5176 16.4512 50.7051 16.6152 50.9434 16.7324C51.1855 16.8457 51.4609 16.9023 51.7695 16.9023C52.0742 16.9023 52.3438 16.8457 52.5781 16.7324C52.8164 16.6152 53.002 16.4512 53.1348 16.2402C53.2715 16.0254 53.3398 15.7773 53.3398 15.4961C53.3398 15.207 53.2734 14.9551 53.1406 14.7402C53.0078 14.5254 52.8223 14.3594 52.584 14.2422C52.3457 14.125 52.0742 14.0664 51.7695 14.0664ZM71.6211 21.7656H61.9414V20.6992H66.1133V18.6367H63.0078V13.1523H64.3086V14.8867H69.2188V13.1523H70.5195V18.6367H67.4023V20.6992H71.6211V21.7656ZM69.2188 17.582V15.9297H64.3086V17.582H69.2188ZM81.4062 23.043H80.1523V17.6875H78.9805V22.5039H77.7617V12.6484H78.9805V16.6211H80.1523V12.4492H81.4062V23.043ZM74.082 19.2578C75.1523 19.2383 76.1602 19.1328 77.1055 18.9414L77.2344 20.0781C76.5625 20.1992 75.9219 20.2852 75.3125 20.3359C74.7031 20.3828 74.0898 20.4062 73.4727 20.4062H72.7695V13.668H74.082V19.2578ZM92.3398 19.4102H88.1328V23.0312H86.8438V19.4102H82.6836V18.3555H92.3398V19.4102ZM91.4492 14.0781H88.2676C88.2949 14.4648 88.4609 14.8379 88.7656 15.1973C89.0703 15.5527 89.4883 15.8574 90.0195 16.1113C90.5508 16.3652 91.1562 16.5352 91.8359 16.6211L91.3672 17.6406C90.4688 17.5156 89.6816 17.2578 89.0059 16.8672C88.334 16.4766 87.8359 15.9922 87.5117 15.4141C87.1875 15.9883 86.6895 16.4727 86.0176 16.8672C85.3457 17.2578 84.5664 17.5156 83.6797 17.6406L83.1875 16.6211C83.8633 16.5352 84.4648 16.3652 84.9922 16.1113C85.5234 15.8574 85.9414 15.5527 86.2461 15.1973C86.5547 14.8379 86.7246 14.4648 86.7559 14.0781H83.5742V13.0469H91.4492V14.0781ZM101.902 23.043H100.59V12.4492H101.902V23.043ZM98.7383 13.5742C98.7383 15.2578 98.3574 16.7363 97.5957 18.0098C96.834 19.2793 95.5703 20.332 93.8047 21.168L93.125 20.125C94.4883 19.4766 95.5137 18.7012 96.2012 17.7988C96.8926 16.8926 97.2969 15.8281 97.4141 14.6055H93.6641V13.5742H98.7383Z" fill="#73CFA5"/>
</svg>
