<svg width="82" height="82" viewBox="0 0 82 82" fill="none" xmlns="http://www.w3.org/2000/svg">
<path d="M0 40C0 21.1438 0 11.7157 5.85786 5.85786C11.7157 0 21.1438 0 40 0H42C60.8562 0 70.2843 0 76.1421 5.85786C82 11.7157 82 21.1438 82 40V42C82 60.8562 82 70.2843 76.1421 76.1421C70.2843 82 60.8562 82 42 82H40C21.1438 82 11.7157 82 5.85786 76.1421C0 70.2843 0 60.8562 0 42V40Z" fill="#FF6250" fill-opacity="0.2"/>
<path d="M49.3475 24.2875C47.6432 24.3241 45.9776 24.803 44.5142 25.6774C43.0508 26.5518 41.8398 27.7915 41 29.275C40.1602 27.7915 38.9492 26.5518 37.4858 25.6774C36.0224 24.803 34.3568 24.3241 32.6525 24.2875C27.105 24.2875 22.625 29.275 22.625 35.435C22.625 46.565 41 57.7125 41 57.7125C41 57.7125 59.375 46.565 59.375 35.435C59.375 29.275 54.895 24.2875 49.3475 24.2875Z" stroke="#FF6250" stroke-width="2.38" stroke-miterlimit="10"/>
<path d="M29.31 34.315H32.6525C33.7561 34.3149 34.8488 34.5337 35.8673 34.9587C36.8858 35.3836 37.81 36.0064 38.5863 36.7908C39.3625 37.5752 39.9756 38.5058 40.3899 39.5287C40.8042 40.5516 41.0116 41.6465 41 42.75H37.6575C36.5539 42.7501 35.4612 42.5313 34.4427 42.1063C33.4242 41.6814 32.5001 41.0586 31.7238 40.2742C30.9475 39.4898 30.3345 38.5592 29.9202 37.5363C29.5058 36.5134 29.2985 35.4186 29.31 34.315Z" stroke="#FF6250" stroke-width="2.38" stroke-miterlimit="10"/>
<path d="M44.3424 44.3425H40.9999C40.9999 42.1286 41.8794 40.0054 43.4449 38.44C45.0103 36.8745 47.1335 35.995 49.3474 35.995H52.6899C52.6899 38.2089 51.8105 40.3321 50.245 41.8976C48.6796 43.4631 46.5563 44.3425 44.3424 44.3425Z" stroke="#FF6250" stroke-width="2.38" stroke-miterlimit="10"/>
<path d="M41 57.7125V42.6625" stroke="#FF6250" stroke-width="2.38" stroke-miterlimit="10"/>
</svg>
