<svg width="82" height="82" viewBox="0 0 82 82" fill="none" xmlns="http://www.w3.org/2000/svg">
<path d="M0 40C0 21.1438 0 11.7157 5.85786 5.85786C11.7157 0 21.1438 0 40 0H42C60.8562 0 70.2843 0 76.1421 5.85786C82 11.7157 82 21.1438 82 40V42C82 60.8562 82 70.2843 76.1421 76.1421C70.2843 82 60.8562 82 42 82H40C21.1438 82 11.7157 82 5.85786 76.1421C0 70.2843 0 60.8562 0 42V40Z" fill="#009379" fill-opacity="0.2"/>
<circle cx="39.25" cy="39.25" r="12.25" stroke="#009379" stroke-width="2.38"/>
<path d="M39.25 34C38.5606 34 37.8779 34.1358 37.2409 34.3996C36.604 34.6635 36.0252 35.0502 35.5377 35.5377C35.0502 36.0252 34.6635 36.604 34.3996 37.2409C34.1358 37.8779 34 38.5606 34 39.25" stroke="#009379" stroke-width="2.38" stroke-linecap="round"/>
<path d="M55 55L49.75 49.75" stroke="#009379" stroke-width="2.38" stroke-linecap="round"/>
</svg>
