<svg width="574" height="485" viewBox="0 0 574 485" fill="none" xmlns="http://www.w3.org/2000/svg">
<path d="M512.264 110.884C504.485 115.131 500.379 125.427 500.163 141.122C499.947 153.073 501.604 153.217 511.183 142.274C522.059 129.818 526.597 116.715 521.627 111.82C519.682 109.876 514.929 109.372 512.264 110.884ZM518.386 113.619C520.186 115.419 520.33 120.027 518.746 124.419C517.377 128.307 512.192 135.938 507.582 140.978L503.909 144.937L504.269 137.378C504.917 125.139 507.87 117.435 513.272 113.835C516.225 111.82 516.585 111.82 518.386 113.619Z" fill="#1F2937"/>
<path d="M472.793 136.874C467.823 141.77 468.471 155.809 474.521 174.6C476.61 181.007 476.826 181.367 478.555 181.151C480.211 180.935 480.716 180.215 482.156 175.896C485.109 167.256 486.838 158.833 486.91 152.497C487.126 141.554 484.245 136.154 477.835 135.434C475.026 135.074 474.305 135.29 472.793 136.874ZM479.707 139.394C483.669 143.786 484.173 153.145 481.148 165.528C480.067 169.848 478.987 173.376 478.699 173.376C478.123 173.376 476.682 168.84 474.737 160.777C473.081 153.937 473.081 143.498 474.665 140.402C476.106 137.81 477.907 137.45 479.707 139.394Z" fill="#1F2937"/>
<path d="M508.662 166.824C503.333 169.344 497.931 176.111 492.168 187.703C488.783 194.326 483.813 206.061 483.813 207.285C483.813 209.949 495.482 204.622 504.701 197.782C515.361 189.862 520.115 182.663 520.187 174.311C520.187 170.424 519.899 169.56 518.314 167.976C515.865 165.528 512.264 165.096 508.662 166.824ZM515.217 169.848C518.746 173.735 515.289 183.527 507.798 190.798C503.261 195.262 490.08 204.046 489.72 202.966C489.287 201.742 497.787 184.751 501.604 179.063C505.637 173.088 510.463 168.336 512.48 168.336C513.272 168.336 514.425 168.984 515.217 169.848Z" fill="#1F2937"/>
<path d="M141.807 142.548C125.305 145.035 116.922 147.392 105.396 152.825C94.7872 157.866 87.5181 162.972 79.2011 171.219C67.6098 182.675 61.2575 193.672 57.1972 209.514C55.7565 215.012 55.2326 218.809 55.1671 223.587L55.0361 230.133L84.0472 230.33L112.993 230.461V225.748C113.058 207.092 123.995 191.839 140.891 186.864C145.606 185.49 155.691 185.293 160.799 186.537C166.103 187.846 173.307 191.316 177.826 194.785C181.166 197.338 188.959 205.913 188.959 207.026C188.959 207.222 186.798 207.484 184.113 207.681C172.783 208.401 164.925 216.78 165.514 227.384L165.71 230.788L220.655 230.984C260.668 231.05 275.795 230.919 276.45 230.395C277.891 229.217 277.629 220.314 276.057 215.274C272.783 204.604 262.829 199.956 252.94 204.473L249.207 206.175V202.117C249.142 193.149 245.737 183.264 240.694 177.831C234.997 171.678 225.239 168.928 217.118 171.154L213.517 172.136L212.272 170.368C209.849 167.03 201.074 158.717 196.883 155.902C186.928 149.159 173.831 144.381 161.126 142.81C155.56 142.155 145.344 141.959 141.807 142.548ZM169.181 145.952C179.135 148.439 189.483 153.414 196.883 159.24C204.086 164.87 211.683 173.445 209.98 174.034C209.522 174.165 208.147 175.213 206.902 176.26L204.676 178.224L201.598 175.671C187.452 164.15 172.063 157.8 153.464 155.771C137.616 154.134 120.131 157.931 106.313 166.114C86.4703 177.962 72.1939 200.284 69.9019 223.26L69.4434 228.17L64.2699 228.366C61.3884 228.497 58.8344 228.301 58.507 227.973C57.6556 227.122 59.0309 215.34 60.6681 209.121C67.0204 184.704 82.8029 166.179 106.706 154.854C117.053 149.945 129.299 146.148 139.45 144.708C146.326 143.726 163.025 144.446 169.181 145.952ZM154.25 158.062C168.134 159.044 185.684 166.375 198.258 176.522L202.711 180.122L200.353 183.657L197.93 187.257L194.918 184.704C183.196 174.951 170.491 170.696 153.268 170.761C136.634 170.827 120.589 175.867 108.802 184.77C98.2581 192.69 90.1376 206.633 88.1075 220.314C87.649 223.195 87.1906 226.206 87.0596 226.991C86.7977 228.432 86.5357 228.497 79.856 228.497H72.8488L73.3072 224.373C74.748 211.805 78.8082 200.48 85.5534 190.268C98.3235 171.023 117.577 159.568 139.843 157.866C142.921 157.604 146.326 157.473 147.374 157.604C148.487 157.669 151.565 157.866 154.25 158.062ZM231.264 174.231C235.258 175.867 239.122 180.057 241.676 185.359C244.165 190.661 245.278 196.16 245.475 204.931C245.606 212.263 246.195 212.787 250.386 209.252C255.756 204.8 262.174 203.753 266.169 206.764C268.854 208.728 271.997 213.245 272.848 216.256C273.307 217.762 273.7 221.035 273.7 223.587L273.765 228.17L221.113 228.366L168.461 228.497L168.919 225.42C169.509 220.904 172.456 215.47 175.665 213.048C180.511 209.383 186.405 208.794 194.656 211.216C196.424 211.739 196.424 211.739 197.407 203.949C199.633 186.995 208.147 174.754 219.017 172.856C222.881 172.136 227.793 172.725 231.264 174.231ZM168.33 174.165C176.778 175.998 186.143 180.777 192.102 186.275C196.49 190.334 196.686 190.727 196.097 192.363C195.114 194.916 193.543 202.706 193.543 204.997C193.543 207.419 192.822 207.419 191.382 204.997C185.684 195.309 173.045 186.733 160.799 184.246C145.999 181.3 129.299 186.537 119.869 197.273C114.106 203.819 109.129 217.107 109.064 226.009V228.497H99.8298H90.5305L90.9889 224.242C91.5783 218.416 94.2633 209.448 97.0138 204.277C107.557 184.115 127.662 172.987 153.595 172.921C160.013 172.921 164.008 173.249 168.33 174.165Z" fill="#1F2937"/>
<path d="M212.31 64.6646C211.065 64.3658 209.926 65.087 208.926 66.6898C207.76 68.5597 207.584 72.5829 208.412 78.8213C209.106 84.3402 209.778 84.7064 213.699 81.9035C215.3 80.7814 217.868 78.619 219.444 77.1108C222.064 74.6099 222.254 74.3046 222.553 72.6359C222.804 71.0436 222.67 70.7482 221.448 69.9871C220.035 69.107 217.709 69.353 216.322 70.5559C215.36 71.334 214.988 70.996 215.205 69.542C215.357 68.3644 214.218 65.4296 213.407 65.0303C213.216 64.9113 212.686 64.7404 212.31 64.6646ZM212.608 71.1563C212.226 74.5744 212.328 75.4322 212.986 75.7365C213.606 76.0169 214.331 75.6204 215.898 74.2124C218.203 72.0455 219.771 71.0616 220.305 71.3946C221.222 71.9655 217.721 75.8784 213.148 79.3875L210.904 81.1157L210.39 78.1992C209.607 73.4193 210.481 66.9167 212.007 66.5954C212.96 66.3416 213.071 67.0994 212.608 71.1563Z" fill="#1F2937"/>
<path d="M201.287 89.4832C200.401 89.8847 199.834 90.5384 199.249 91.8166L198.455 93.6002L196.259 92.0204C194.369 90.6309 193.902 90.4456 192.562 90.7237C189.721 91.2849 189.262 94.2312 191.431 97.8082C192.573 99.6324 195.887 103.075 199.123 105.621L201.133 107.244L201.799 106.175C202.608 104.878 204.623 98.9264 205.267 95.937C206.221 91.603 204.118 88.1736 201.287 89.4832ZM202.56 96.7935C202.095 98.7293 201.335 101.223 200.831 102.287C199.965 104.185 199.918 104.261 198.963 103.667C197.474 102.739 193.859 98.4201 192.913 96.4527C191.909 94.2375 192.179 92.8692 193.737 92.4096C195.172 91.9789 195.492 92.2311 196.954 94.7318C197.614 95.8845 198.497 97.0178 198.956 97.3032C199.605 97.7076 199.776 97.6025 200.156 96.5677C200.399 95.9239 201.098 94.2929 201.768 92.9622L203.005 90.5535L203.221 91.907C203.356 92.6266 203.049 94.8196 202.56 96.7935Z" fill="#1F2937"/>
<path d="M218.683 120.244C217.954 120.479 217.125 121.128 216.554 122.044C215.673 123.456 215.587 123.509 214.838 122.671C213.405 121.142 211.812 120.467 210.515 120.931C206.945 122.151 208.209 126.33 214.001 132.429C215.51 134.005 216.999 135.356 217.338 135.409C218.192 135.57 221.699 129.86 222.497 126.965C223.598 122.989 221.567 119.445 218.683 120.244ZM219.669 127.164C219.108 128.828 218.21 130.865 217.662 131.743C216.734 133.231 216.672 133.245 215.823 132.398C213.865 130.436 211.787 127.393 211.303 125.873C210.188 122.476 212.38 121.086 213.862 124.235C215.201 127.189 215.578 127.689 216.232 127.831C216.609 127.907 216.975 127.659 217.061 127.182C217.331 125.813 218.967 122.594 219.687 122.035C220.358 121.553 220.411 121.639 220.56 122.845C220.656 123.54 220.268 125.524 219.669 127.164Z" fill="#1F2937"/>
<path d="M128.199 1.50806C127.799 2.17499 125.197 13.246 125.13 14.4465C125.13 14.7799 125.931 14.9133 126.931 14.7799C128.599 14.5799 128.8 14.1797 129.934 9.24443C131.669 1.50806 131.669 1.30798 130.001 1.04121C129.267 0.907825 128.399 1.1079 128.199 1.50806Z" fill="#1F2937" stroke="#1F2937" stroke-width="0.888031"/>
<path d="M95.1055 5.24275C95.1055 5.50952 96.5066 8.04385 98.2414 10.9783C100.71 14.9799 101.778 16.2471 102.912 16.2471C103.712 16.2471 104.513 16.047 104.647 15.7135C104.847 15.4468 103.579 12.9791 101.844 10.2447C99.3756 6.24314 98.3748 5.17605 96.9069 5.04267C95.9061 4.90928 95.1055 5.04267 95.1055 5.24275Z" fill="#1F2937" stroke="#1F2937" stroke-width="0.888031"/>
<path d="M149.95 19.5817C146.881 21.7159 144.412 23.7167 144.412 24.0501C144.412 24.3169 145.146 24.6504 145.947 24.7837C147.548 24.9171 157.823 17.9811 158.357 16.3804C158.957 14.4464 155.154 15.9136 149.95 19.5817Z" fill="#1F2937" stroke="#1F2937" stroke-width="0.888031"/>
<path d="M114.521 30.6526C108.449 32.2532 104.313 36.1881 101.711 42.724C100.443 45.9253 100.176 47.8594 100.176 54.2619C100.109 61.0646 100.31 62.3317 101.777 65.2662C105.647 73.136 113.053 77.7378 122.127 77.7378C136.873 77.8712 146.948 68.9343 145.546 57.063C144.279 46.1254 133.804 39.3894 123.061 42.4573C116.99 44.258 113.587 48.7931 113.587 55.0622C113.587 58.0634 113.921 59.3972 115.322 61.5314C119.258 67.4671 126.664 68.4008 130.801 63.5322C133.537 60.2643 132.736 54.9288 129.533 54.9288C127.332 54.9288 127.131 55.4624 128.332 57.5965C129.2 59.1305 129.266 59.7974 128.599 61.198C127.865 62.7986 127.465 62.932 123.862 62.932C120.326 62.932 119.859 62.7319 118.725 61.1313C117.19 58.797 116.723 53.5283 117.79 50.9273C119.659 46.4588 126.131 42.9908 130.668 43.9912C133.937 44.6581 137.607 47.3258 139.608 50.327C142.21 54.2619 142.611 60.9312 140.476 65.1995C137.34 71.7354 130.401 75.6036 121.86 75.6036C114.054 75.6036 108.783 72.0689 105.38 64.5993C102.378 57.93 102.778 48.9932 106.381 41.1901C109.65 34.1206 114.054 31.9865 124.329 32.3199C131.668 32.5867 133.47 31.653 127.799 30.4525C122.795 29.4521 118.791 29.5188 114.521 30.6526Z" fill="#1F2937" stroke="#1F2937" stroke-width="0.888031"/>
<path d="M73.0879 35.188C73.0879 36.6552 73.4882 36.7219 82.2954 37.2555C88.6339 37.5889 89.7682 37.5222 89.7682 36.6552C89.7682 35.188 89.4346 35.1213 80.961 34.5877C73.9553 34.1876 73.0879 34.2543 73.0879 35.188Z" fill="#1F2937" stroke="#1F2937" stroke-width="0.888031"/>
<path d="M166.964 36.9887C166.297 37.3889 163.494 38.1225 160.692 38.5893C155.421 39.523 154.554 39.9232 155.555 40.9236C156.956 42.3241 171.167 38.9895 171.167 37.1888C171.167 36.055 168.699 35.9883 166.964 36.9887Z" fill="#1F2937" stroke="#1F2937" stroke-width="0.888031"/>
<path d="M159.158 67.2673C158.558 68.0009 158.758 68.401 160.359 69.2014C164.229 71.2021 172.569 74.27 174.17 74.27C176.172 74.27 177.039 73.0695 175.371 72.536C173.903 72.0692 165.63 68.8012 162.361 67.334C160.292 66.467 159.825 66.467 159.158 67.2673Z" fill="#1F2937" stroke="#1F2937" stroke-width="0.888031"/>
<path d="M84.7635 70.8686C83.2956 71.5355 80.0263 72.6026 77.4242 73.2695C72.2866 74.6034 70.9522 75.337 72.5535 75.9372C74.6886 76.8042 91.102 71.6689 91.102 70.2016C91.102 69.2012 87.6325 69.6014 84.7635 70.8686Z" fill="#1F2937" stroke="#1F2937" stroke-width="0.888031"/>
<path d="M144.145 85.6078C143.612 86.4081 145.146 87.742 151.284 92.077C155.088 94.678 156.022 95.0782 157.289 94.478C158.691 93.8777 158.557 93.7443 155.421 91.6102C153.62 90.343 150.951 88.3422 149.416 87.1417C146.614 84.8742 144.879 84.4073 144.145 85.6078Z" fill="#1F2937" stroke="#1F2937" stroke-width="0.888031"/>
<path d="M100.51 99.3461C98.7755 105.082 98.5086 106.616 99.2425 107.016C100.444 107.816 100.844 107.749 101.578 106.749C102.512 105.615 106.382 93.077 105.915 92.6101C105.714 92.4101 104.914 92.2767 104.113 92.2767C102.845 92.2767 102.378 93.2104 100.51 99.3461Z" fill="#1F2937" stroke="#1F2937" stroke-width="0.888031"/>
<path d="M126.064 94.611C125.53 95.8781 126.798 102.147 128.199 105.482C128.933 107.216 129.467 107.683 130.601 107.483C132.336 107.216 132.336 107.283 130.334 99.6129C129.2 95.5447 128.466 93.8774 127.599 93.744C126.998 93.6106 126.264 94.0107 126.064 94.611Z" fill="#1F2937" stroke="#1F2937" stroke-width="0.888031"/>
<path d="M56.5117 395.297H85.0457H141.7V403.731H56.5117V395.297Z" fill="#34B17B"/>
<path d="M85.1895 395.297L86.8764 353.968H144.653L141.701 395.297H85.1895Z" fill="#73CFA5"/>
<path d="M91.5146 390.236L93.6233 359.45H138.748L136.217 390.236H91.5146Z" fill="#EAF8F2"/>
<rect x="187.056" y="361.553" width="166.5" height="18.5" fill="#68BA95"/>
<rect x="187.056" y="380.053" width="16.4445" height="102.778" fill="#68BA95"/>
<rect x="250.778" y="380.053" width="16.4445" height="102.778" fill="#68BA95"/>
<rect x="353.556" y="380.053" width="16.4445" height="102.778" fill="#A8E0C5"/>
<rect x="425.501" y="380.053" width="16.4445" height="102.778" fill="#A8E0C5"/>
<rect x="353.556" y="361.553" width="88.389" height="18.5" fill="#A8E0C5"/>
<rect y="328.664" width="76.0557" height="75.0279" fill="#68BA95"/>
<rect y="403.692" width="76.0557" height="18.5" fill="#A8E0C5"/>
<rect x="76.0557" y="403.692" width="49.3334" height="18.5" fill="#68BA95"/>
<rect x="59.6113" y="422.192" width="16.4445" height="61.6668" fill="#68BA95"/>
<rect y="422.192" width="16.4445" height="61.6668" fill="#68BA95"/>
<rect x="108.944" y="422.192" width="16.4445" height="61.6668" fill="#68BA95"/>
<path d="M129.496 232.77C129.678 232.437 130.156 232.437 130.338 232.77V232.77C133.276 238.142 137.692 242.558 143.064 245.496V245.496C143.397 245.678 143.397 246.156 143.064 246.338V246.338C137.692 249.276 133.276 253.692 130.338 259.064V259.064C130.156 259.397 129.678 259.397 129.496 259.064V259.064C126.558 253.692 122.142 249.276 116.77 246.338V246.338C116.437 246.156 116.437 245.678 116.77 245.496V245.496C122.142 242.558 126.558 238.142 129.496 232.77V232.77Z" fill="#FB923C"/>
<path d="M444.496 74.7703C444.678 74.4373 445.156 74.4373 445.338 74.7703V74.7703C448.276 80.1416 452.692 84.5579 458.064 87.4956V87.4956C458.397 87.6778 458.397 88.1561 458.064 88.3382V88.3382C452.692 91.2759 448.276 95.6922 445.338 101.064V101.064C445.156 101.397 444.678 101.397 444.496 101.064V101.064C441.558 95.6922 437.142 91.2759 431.77 88.3382V88.3382C431.437 88.1561 431.437 87.6778 431.77 87.4956V87.4956C437.142 84.5579 441.558 80.1416 444.496 74.7703V74.7703Z" fill="#FB923C"/>
<path d="M445.806 425.959C435.685 418.649 417.972 396.016 431.468 390.112C443.952 384.65 448.055 411.62 445.806 425.959Z" fill="#339C73"/>
<path d="M450.867 425.115C451.289 416.4 454.325 399.728 463.097 402.764C471.869 405.8 458.599 418.93 450.867 425.115Z" fill="#339C73"/>
<path d="M445.807 434.815C446.228 430.035 446.313 419.464 443.276 415.416" stroke="#1F2937" stroke-width="2.4" stroke-linecap="round"/>
<path d="M450.221 434.393C449.832 431.692 449.754 425.717 452.554 423.428" stroke="#1F2937" stroke-width="2.4" stroke-linecap="round"/>
<path d="M476.592 434.815H420.503C418.957 451.543 412.912 485 450.445 485C478.111 485 479.404 451.543 476.592 434.815Z" fill="#34B17B"/>
<path fill-rule="evenodd" clip-rule="evenodd" d="M344.664 160.633C338.551 174.642 324.576 184.434 308.314 184.434C291.051 184.434 276.366 173.4 270.925 158.001C263.807 157.796 258.1 151.961 258.1 144.792C258.1 137.625 263.807 131.79 270.925 131.584C276.365 116.184 291.051 105.15 308.314 105.15C326.567 105.15 341.939 117.487 346.546 134.277C353.266 134.899 358.527 140.552 358.527 147.434C358.527 154.732 352.611 160.648 345.313 160.648C345.096 160.648 344.879 160.643 344.664 160.633Z" fill="#FED7AA"/>
<path fill-rule="evenodd" clip-rule="evenodd" d="M304.734 142.258C303.48 139.762 300.775 138.044 297.585 138.044C296.184 138.044 294.02 138.981 293.129 140.503C293.002 140.854 292.493 140.854 292.366 140.503C291.347 139.098 289.31 138.162 287.783 138.162C283.582 138.162 280.018 141.323 279.891 145.187V145.421C279.891 147.411 280.782 149.285 282.309 150.69V150.807C282.437 150.924 288.547 155.841 291.347 158.066C292.111 158.651 293.257 158.651 294.02 158.066C295.197 157.131 296.935 155.722 298.574 154.392L298.574 154.392C300.837 152.557 302.911 150.875 303.058 150.807V150.69C304.586 149.402 305.477 147.528 305.477 145.421V145.187C305.475 145.127 305.472 145.068 305.469 145.008C306.311 144.87 307.256 144.792 308.315 144.792C310.15 144.792 311.643 145.027 312.852 145.401C312.782 145.748 312.74 146.103 312.728 146.464V146.699C312.728 148.689 313.619 150.562 315.147 151.967V152.084C315.274 152.202 321.384 157.119 324.185 159.344C324.948 159.929 326.094 159.929 326.858 159.344C328.034 158.409 329.771 157 331.41 155.671L331.411 155.67C333.674 153.835 335.748 152.152 335.896 152.084V151.967C337.423 150.679 338.314 148.806 338.314 146.699V146.464C338.187 142.484 334.75 139.322 330.422 139.322C329.022 139.322 326.858 140.259 325.967 141.781C325.839 142.132 325.33 142.132 325.203 141.781C324.185 140.376 322.148 139.439 320.62 139.439C317.9 139.439 315.446 140.765 314.02 142.749C312.648 142.305 310.793 142.009 308.315 142.009C306.937 142.009 305.751 142.101 304.734 142.258Z" fill="#EA580C"/>
<path d="M301.706 160.509C302.147 161.39 304.085 163.152 308.313 163.152C312.542 163.152 314.48 161.39 314.92 160.509" stroke="#EA580C" stroke-width="2.4" stroke-linecap="round" stroke-linejoin="round"/>
<path d="M301.89 110.521C300.504 111.608 298.324 115.985 299.525 119.064C300.726 122.144 302.604 122.907 303.558 123.152" stroke="#EA580C" stroke-width="2.4" stroke-linecap="round"/>
<path d="M310.375 113.019C308.987 113.965 307.99 118.037 309.319 120.882C310.309 122.999 312.839 123.821 313.645 124.028" stroke="#EA580C" stroke-width="2.4" stroke-linecap="round"/>
<path d="M317.378 114.465C316.713 115.337 317.2 117.85 318.343 119.552C319.018 120.557 321.063 122.026 321.604 121.989" stroke="#EA580C" stroke-width="2.4" stroke-linecap="round"/>
<rect x="276.655" y="187.808" width="66.6325" height="147.604" rx="33.3162" fill="#FED7AA"/>
<rect x="177.128" y="298.3" width="271.591" height="63.2587" rx="31.6294" fill="#319E73"/>
<path d="M365.639 310.108H255.568" stroke="#1F2937" stroke-width="2.4"/>
<path d="M330.214 336.255C330.214 350.23 319.521 361.559 309.971 361.559C300.422 361.559 290.15 350.23 290.15 336.255C290.15 322.28 300.422 310.952 309.971 310.952C319.521 310.952 330.214 322.28 330.214 336.255Z" fill="#A8E0C5"/>
<path d="M309.971 310.952V361.559" stroke="#1F2937" stroke-width="2.4"/>
<path d="M355.096 208.066C342.275 191.197 321.077 187.542 312.08 187.823L341.601 254.877C343.569 262.749 349.023 280.687 355.096 289.458C361.169 298.23 393.754 302.798 412.029 309.265L434.802 284.819L383.351 258.672C379.275 248.832 367.916 224.935 355.096 208.066Z" fill="#FED7AA"/>
<path fill-rule="evenodd" clip-rule="evenodd" d="M455.809 305.02C457.851 304.613 459.7 303.319 460.719 301.349L461.478 299.883C463.227 296.502 461.871 292.409 458.449 290.741L447.272 285.293C446.497 284.813 445.682 284.356 444.842 283.908C446.236 282.399 446.972 280.302 446.668 278.135L446.439 276.5C445.91 272.73 442.436 270.176 438.68 270.794L425.064 273.037C421.868 273.352 414.184 273.137 410.497 272.978L410.501 273.014C410.485 273.011 410.469 273.009 410.454 273.006L395.407 304.204C397.598 308.967 400.5 313.692 403.857 317.869C404.124 318.308 404.452 318.734 404.848 319.141L405.373 319.681C408.228 322.961 411.364 325.823 414.639 327.987C417.696 330.274 420.947 332.313 424.36 334.083L426.677 335.283C429.886 336.947 433.888 335.894 435.854 332.869L437.024 331.07C437.607 330.174 437.952 329.197 438.074 328.213L439.812 329.082C443.216 330.786 447.423 329.442 449.208 326.08L449.982 324.622C450.84 323.007 450.983 321.22 450.523 319.611C453.834 320.971 457.741 319.6 459.445 316.392L460.219 314.934C462.004 311.572 460.691 307.464 457.287 305.76L455.809 305.02Z" fill="#FED7AA"/>
<path d="M444.858 283.938C442.768 284.742 438.022 286.32 435.764 286.202" stroke="#1F2937" stroke-width="2.4" stroke-linecap="round"/>
<path d="M455.941 304.813C452.406 303.687 444.753 301.105 442.42 299.785" stroke="#1F2937" stroke-width="2.4" stroke-linecap="round"/>
<path d="M450.564 319.929C447.234 318.294 440.045 314.612 437.932 312.961" stroke="#1F2937" stroke-width="2.4" stroke-linecap="round"/>
<path d="M437.857 328.703C434.709 326.74 427.93 322.348 425.996 320.492" stroke="#1F2937" stroke-width="2.4" stroke-linecap="round"/>
<path d="M264.673 208.066C277.493 191.197 298.692 187.542 307.689 187.823L278.168 254.877C276.2 262.749 270.746 280.687 264.673 289.458C258.6 298.23 226.015 302.798 207.74 309.265L184.967 284.819L236.417 258.672C240.494 248.832 251.852 224.935 264.673 208.066Z" fill="#FED7AA"/>
<path fill-rule="evenodd" clip-rule="evenodd" d="M163.96 305.02C161.917 304.613 160.069 303.319 159.049 301.349L158.291 299.883C156.541 296.502 157.897 292.409 161.32 290.741L172.496 285.294C173.271 284.813 174.086 284.356 174.926 283.908C173.532 282.399 172.797 280.302 173.101 278.135L173.33 276.5C173.858 272.73 177.332 270.176 181.089 270.794L194.704 273.037C197.9 273.352 205.584 273.137 209.272 272.978L209.268 273.014C209.284 273.011 209.299 273.009 209.315 273.006L224.361 304.204C222.171 308.967 219.269 313.692 215.911 317.869C215.645 318.308 215.316 318.734 214.921 319.141L214.396 319.681C211.541 322.961 208.405 325.823 205.129 327.987C202.072 330.274 198.822 332.313 195.408 334.083L193.092 335.283C189.883 336.947 185.881 335.894 183.914 332.869L182.744 331.07C182.161 330.174 181.817 329.197 181.694 328.213L179.957 329.082C176.553 330.786 172.346 329.442 170.56 326.08L169.786 324.622C168.929 323.007 168.786 321.22 169.246 319.611C165.934 320.971 162.027 319.6 160.324 316.392L159.55 314.934C157.765 311.572 159.077 307.464 162.481 305.76L163.96 305.02Z" fill="#FED7AA"/>
<path d="M174.91 283.938C177.001 284.742 181.746 286.32 184.004 286.202" stroke="#1F2937" stroke-width="2.4" stroke-linecap="round"/>
<path d="M163.827 304.813C167.362 303.687 175.016 301.105 177.349 299.785" stroke="#1F2937" stroke-width="2.4" stroke-linecap="round"/>
<path d="M169.204 319.928C172.535 318.293 179.724 314.611 181.836 312.96" stroke="#1F2937" stroke-width="2.4" stroke-linecap="round"/>
<path d="M181.911 328.703C185.058 326.739 191.838 322.348 193.772 320.492" stroke="#1F2937" stroke-width="2.4" stroke-linecap="round"/>
<path fill-rule="evenodd" clip-rule="evenodd" d="M307.946 205.257C315.865 205.257 322.284 198.837 322.284 190.918C322.284 190.207 322.233 189.507 322.133 188.824C332.349 190.763 345.828 196.081 355.01 208.194C367.831 225.109 379.189 249.07 383.266 258.937L355.01 289.805C350.37 283.086 346.092 271.001 343.453 262.152V298.3H276.821V259.843C274.278 268.778 269.649 282.48 264.591 289.805L236.335 258.937C240.412 249.07 251.77 225.109 264.591 208.194C272.67 197.535 284.077 192.138 293.66 189.674C293.625 190.084 293.607 190.499 293.607 190.918C293.607 198.837 300.027 205.257 307.946 205.257Z" fill="#8DD7E2"/>
<rect x="298.581" y="179.374" width="18.5559" height="15.1821" fill="#FED7AA"/>
<path d="M322.198 188.651C322.198 196.57 315.778 204.677 307.859 204.677C299.94 204.677 293.521 197.508 293.521 189.495" stroke="#1F2937" stroke-width="2.4"/>
<path d="M343.284 262.453C346.517 271.028 353.406 288.431 355.092 289.443C359.816 285.732 377.303 265.827 383.348 258.658L371.961 235.041" stroke="#1F2937" stroke-width="2.4"/>
<path d="M343.284 262.453V286.491" stroke="#1F2937" stroke-width="2.4"/>
<path d="M276.651 259.923C273.418 268.498 266.108 288.431 264.421 289.443C259.698 285.732 242.211 265.827 236.166 258.658L247.552 235.041" stroke="#1F2937" stroke-width="2.4"/>
<path d="M276.651 260.344L276.23 286.491" stroke="#1F2937" stroke-width="2.4"/>
<path d="M447.017 250.715C443.075 255.819 445.029 273.824 454.07 278.456C458.737 269.448 452.646 253.532 447.017 250.715Z" fill="#69AF24"/>
<path d="M466.279 252.097C460.133 253.009 449.096 267.818 451.986 277.868C461.295 274.585 468.124 258.305 466.279 252.097Z" fill="#69AF24"/>
<path d="M478.162 268.516C473.412 264.701 455.849 267.64 450.895 277.221C459.394 281.585 475.142 274.478 478.162 268.516Z" fill="#69AF24"/>
<path d="M435.218 282.985C437.725 275.928 445.969 272.811 452.518 276.443V276.443C459.067 280.076 460.788 288.719 456.129 294.583L421.69 337.932C420.807 339.043 419.249 339.353 418.008 338.665V338.665C416.766 337.976 416.205 336.491 416.68 335.153L435.218 282.985Z" fill="#F78A0A"/>
<path d="M182.519 312.151C182.005 310.965 176.286 289.275 165.23 291.905L163.836 289.637C163.078 289.242 166.727 288.111 169.113 288.057C171.615 288.001 174.113 289.281 173.668 288.254C173.313 287.432 165.65 283.937 165.116 283.852L169.665 279.002C170.126 278.397 171.44 280.14 173.073 280.409C174.706 280.677 180.05 287.976 181.397 290.463C180.143 286.563 181.821 277.982 183.998 275.681L185.673 276.315C186.496 276.862 187.405 277.062 186.574 278.397C185.743 279.732 185.467 285.677 185.612 286.743L191.297 278.459L194.323 279.74C187.053 287.043 192.682 302.561 194.384 307.017L182.519 312.151Z" fill="#587D4A"/>
<path fill-rule="evenodd" clip-rule="evenodd" d="M182.607 274.328C181.457 276.875 179.392 279.018 176.625 280.215C174.114 281.302 171.431 281.434 168.98 280.772C169.251 284.032 168.124 287.259 165.921 289.64C167.331 293.281 165.622 297.415 162.008 298.979C158.305 300.581 154.005 298.878 152.403 295.176C151.947 294.121 151.758 293.019 151.808 291.944C149.609 290.745 147.779 288.83 146.708 286.353C144.156 280.457 146.868 273.609 152.764 271.058C152.917 270.991 153.07 270.929 153.224 270.87C153.201 268.391 154.639 266.022 157.056 264.976C158.491 264.356 160.028 264.305 161.415 264.724C162.567 262.189 164.628 260.056 167.386 258.863C170.693 257.432 174.3 257.656 177.28 259.17C177.686 257.213 179.006 255.478 180.979 254.625C184.2 253.231 187.941 254.712 189.334 257.933C189.341 257.948 189.347 257.963 189.354 257.978C195.003 256.124 201.236 258.853 203.643 264.416C206.195 270.313 203.483 277.161 197.587 279.712C191.919 282.164 185.372 279.754 182.607 274.328Z" fill="#7CB568"/>
<g clip-path="url(#clip0_14109_25000)">
<circle cx="37" cy="304" r="22" fill="white" stroke="#34B17B" stroke-width="2"/>
<path d="M20.0156 305.377C20.5679 305.377 21.0156 304.929 21.0156 304.377C21.0156 303.825 20.5679 303.377 20.0156 303.377V305.377ZM20.0156 303.377H14V305.377H20.0156V303.377Z" fill="#34B17B"/>
<path d="M53.8457 303.377C53.2934 303.377 52.8457 303.825 52.8457 304.377C52.8457 304.929 53.2934 305.377 53.8457 305.377L53.8457 303.377ZM59.8613 303.377L53.8457 303.377L53.8457 305.377L59.8613 305.377L59.8613 303.377Z" fill="#34B17B"/>
<path d="M38.2871 319.836C38.2871 319.284 37.8394 318.836 37.2871 318.836C36.7348 318.836 36.2871 319.284 36.2871 319.836H38.2871ZM36.2871 319.836V325.869H38.2871V319.836H36.2871Z" fill="#34B17B"/>
<path d="M36.2871 287.41C36.2871 287.962 36.7348 288.41 37.2871 288.41C37.8394 288.41 38.2871 287.962 38.2871 287.41H36.2871ZM36.2871 281.377V287.41H38.2871V281.377H36.2871Z" fill="#34B17B"/>
<g clip-path="url(#clip1_14109_25000)">
<path d="M37.1771 310.034C39.2069 304.926 35.5426 298.532 26.3765 299.102C25.8559 308.495 31.7056 311.532 37.1771 310.034Z" fill="#73CFA5" stroke="#73CFA5" stroke-width="2" stroke-linecap="round" stroke-linejoin="round"/>
<path d="M30.9277 303.623L37.2755 309.972" stroke="white" stroke-linecap="round" stroke-linejoin="round"/>
<g clip-path="url(#clip2_14109_25000)">
<path d="M37.6579 310.034C35.6281 304.926 39.2924 298.532 48.4584 299.102C48.9791 308.495 43.1293 311.532 37.6579 310.034Z" fill="#34B17B" stroke="#34B17B" stroke-width="2" stroke-linecap="round" stroke-linejoin="round"/>
<path d="M43.9082 303.623L37 310.273" stroke="white" stroke-linecap="round" stroke-linejoin="round"/>
</g>
</g>
<line x1="1" y1="-1" x2="2.73621" y2="-1" transform="matrix(0.608482 0.793567 0.778987 -0.627039 27.248 287.41)" stroke="#34B17B" stroke-width="2" stroke-linecap="round"/>
<line x1="1" y1="-1" x2="2.73622" y2="-1" transform="matrix(0.608483 -0.793567 0.778988 0.627039 46.3838 291.256)" stroke="#34B17B" stroke-width="2" stroke-linecap="round"/>
<line x1="1" y1="-1" x2="2.70202" y2="-1" transform="matrix(0.865952 -0.500127 0.482025 0.876158 51.8057 296.845)" stroke="#34B17B" stroke-width="2" stroke-linecap="round"/>
<line x1="1" y1="-1" x2="2.70203" y2="-1" transform="matrix(0.865946 0.500138 0.482035 -0.876152 51.8057 311.721)" stroke="#34B17B" stroke-width="2" stroke-linecap="round"/>
<line x1="1" y1="-1" x2="2.70202" y2="-1" transform="matrix(-0.865946 0.500138 -0.482034 -0.876152 22.7949 311.721)" stroke="#34B17B" stroke-width="2" stroke-linecap="round"/>
<line x1="1" y1="-1" x2="2.70202" y2="-1" transform="matrix(-0.865946 -0.500138 -0.482035 0.876152 22.874 296.743)" stroke="#34B17B" stroke-width="2" stroke-linecap="round"/>
<line x1="1" y1="-1" x2="2.73621" y2="-1" transform="matrix(0.608483 -0.793567 0.778988 0.627039 27.248 320.916)" stroke="#34B17B" stroke-width="2" stroke-linecap="round"/>
<line x1="1" y1="-1" x2="2.73622" y2="-1" transform="matrix(-0.608482 -0.793568 -0.778987 0.62704 46.8174 320.916)" stroke="#34B17B" stroke-width="2" stroke-linecap="round"/>
</g>
<mask id="path-94-inside-1_14109_25000" fill="white">
<path d="M573.188 393.443C573.229 393.673 573.095 393.741 572.786 393.648L562.039 389.244C562.001 389.228 561.959 389.222 561.918 389.228C561.877 389.233 561.838 389.25 561.805 389.276C561.773 389.301 561.748 389.335 561.732 389.374C561.717 389.413 561.713 389.455 561.719 389.496C561.914 390.67 562.173 391.827 562.496 392.966C563.34 395.953 565.812 397.874 567.072 400.709C569.088 405.243 569.535 409.961 568.414 414.862C568.364 415.079 568.393 415.284 568.502 415.478C569.313 416.929 570.321 418.333 570.92 419.79C573.771 426.758 574.643 433.995 573.535 441.501C572.139 450.985 569.585 460.165 562.904 467.351C562.75 467.515 562.773 467.649 562.972 467.755C563.826 468.201 564.709 468.572 565.621 468.868C567.828 469.577 570.314 471.974 568.904 474.293C568.786 474.482 568.625 474.626 568.421 474.723C567.331 475.244 566.371 475.928 565.54 476.776C565.367 476.953 565.158 477.008 564.913 476.942L563.537 476.584C563.288 476.518 563.054 476.551 562.836 476.684L561.576 477.472C561.472 477.537 561.35 477.572 561.224 477.572C561.099 477.572 560.975 477.537 560.868 477.472C560.119 477.015 559.485 476.611 558.552 476.597C556.073 476.558 552.845 476.684 551.013 474.955C550.378 474.354 549.735 473.763 549.086 473.18C548.923 473.034 548.73 472.946 548.507 472.915C545.788 472.531 542.995 472.16 540.131 471.802C531.876 470.76 523.468 471.169 514.905 473.027C514.692 473.076 514.515 473.182 514.374 473.345C513.452 474.458 512.835 475.147 512.522 475.412C510.036 477.518 508.041 477.154 505.241 476.948C503.954 476.849 503.069 477.273 502.007 477.843C501.709 478.003 501.358 478.043 501.031 477.953C500.703 477.864 500.425 477.653 500.256 477.366L499.868 476.703C499.469 476.023 498.987 475.964 498.424 476.525C497.712 477.235 497.128 477.275 496.674 476.644C493.582 472.359 498.418 470.014 501.257 467.901C501.444 467.76 501.464 467.601 501.319 467.424C500.869 466.888 500.25 466.557 499.855 466.06C495.85 461.04 493.766 455.648 492.016 449.224C490.341 443.068 489.709 436.825 490.123 430.493C490.468 425.203 491.734 420.508 493.923 416.406C494.363 415.584 494.549 414.644 494.481 413.584C494.168 408.665 495.121 404.206 497.342 400.205C498.329 398.43 499.616 396.834 500.862 395.165C501.562 394.224 501.988 393.244 502.143 392.224C502.315 391.094 502.417 389.988 502.449 388.906C502.458 388.681 502.352 388.601 502.129 388.668C498.565 389.736 495.078 390.99 491.669 392.43C491.619 392.452 491.58 392.436 491.553 392.383C491.535 392.344 491.546 392.313 491.587 392.291C495.065 390.44 498.722 389.008 502.558 387.992C502.762 387.939 502.903 387.813 502.98 387.615L505.173 381.852C505.255 381.645 505.18 381.532 504.949 381.515C503.31 381.382 501.677 381.314 500.052 381.309C500.038 381.309 500.032 381.316 500.032 381.329C500.032 381.329 500.032 381.331 500.032 381.336C500.036 381.34 500.041 381.342 500.045 381.342C501.548 381.192 503.269 381.011 505.207 380.799C505.434 380.774 505.652 380.7 505.845 380.582C506.037 380.464 506.199 380.305 506.317 380.117L509.137 375.62C509.289 375.379 509.343 375.091 509.289 374.813C509.235 374.535 509.076 374.287 508.844 374.116C504.081 370.571 503.337 366.345 506.61 361.44C509.682 356.836 516.444 355.121 520.599 359.665C520.948 360.044 521.343 360.373 521.784 360.651C521.974 360.771 522.181 360.802 522.403 360.744C530.038 358.751 537.447 358.698 544.918 361.181C545.038 361.221 545.168 361.215 545.283 361.165C545.398 361.114 545.489 361.023 545.538 360.91C546.664 358.34 548.396 357.084 550.734 357.141C554.943 357.24 558.266 361.049 559.24 364.897C560.23 368.778 558.897 371.743 555.243 373.792C554.77 374.052 554.666 374.414 554.929 374.878C556.627 377.867 558.178 380.76 559.581 383.555C559.685 383.762 559.855 383.875 560.092 383.892C564.664 384.193 569.079 385.186 573.338 386.873C573.41 386.899 573.433 386.948 573.406 387.018L573.351 387.177C573.347 387.186 573.337 387.188 573.324 387.184C569.642 386.014 565.628 385.133 561.283 384.541C560.484 384.431 560.219 384.747 560.487 385.488L561.345 387.84C561.431 388.078 561.597 388.242 561.842 388.33C565.783 389.756 569.565 391.46 573.188 393.443ZM547.908 384.27C547.903 384.24 547.905 384.21 547.913 384.181C547.92 384.151 547.934 384.124 547.954 384.101C547.973 384.077 547.997 384.057 548.024 384.043C548.051 384.029 548.081 384.021 548.112 384.018L556.257 383.217C556.3 383.212 556.341 383.198 556.376 383.175C556.412 383.152 556.442 383.121 556.462 383.085C556.483 383.048 556.495 383.008 556.496 382.966C556.497 382.924 556.487 382.883 556.468 382.846L555.488 380.806C555.406 380.634 555.268 380.574 555.072 380.627L546.757 383.045C546.548 383.106 546.457 383.031 546.485 382.819L546.519 382.594C546.523 382.528 546.557 382.486 546.621 382.468L554.616 380.21C555.07 380.082 555.177 379.821 554.936 379.428C553.758 377.501 552.478 375.858 552.505 373.626C552.509 373.401 552.425 373.218 552.253 373.077C552.021 372.887 551.797 372.774 551.579 372.739C551.275 372.693 550.991 372.566 550.76 372.371C550.529 372.177 550.359 371.923 550.271 371.639C549.513 369.233 548.752 366.886 547.99 364.599C547.92 364.393 547.8 364.207 547.638 364.057C547.477 363.907 547.279 363.797 547.063 363.738C538.959 361.473 531.563 360.426 523.296 362.493C522.363 362.725 521.191 362.784 520.497 362.267C518.052 360.459 515.927 358.393 512.563 359.082C512.494 359.095 512.432 359.132 512.39 359.186C512.349 359.24 512.33 359.307 512.338 359.373L512.358 359.545C512.367 359.616 512.41 359.649 512.488 359.645C515.239 359.446 516.705 360.598 516.887 363.102C517.137 366.515 516.117 369.626 513.829 372.434C513.666 372.633 513.45 372.741 513.182 372.759C512.51 372.803 511.87 372.949 511.262 373.196C511.2 373.22 511.143 373.257 511.096 373.303C511.048 373.349 511.011 373.405 510.986 373.465C510.962 373.526 510.95 373.591 510.951 373.656C510.953 373.721 510.968 373.785 510.996 373.845C511.67 375.256 511.698 376.289 510.676 377.64C509.85 378.722 509.044 379.852 508.258 381.031C508.221 381.087 508.198 381.152 508.194 381.22C508.189 381.287 508.203 381.354 508.233 381.415C508.263 381.475 508.309 381.527 508.366 381.566C508.423 381.604 508.489 381.628 508.558 381.634C512.599 381.952 516.717 382.418 520.912 383.031C520.962 383.04 520.985 383.069 520.98 383.117L520.953 383.303C520.951 383.32 520.946 383.337 520.937 383.352C520.929 383.367 520.917 383.38 520.903 383.391C520.889 383.401 520.873 383.409 520.856 383.413C520.838 383.418 520.82 383.418 520.803 383.415C517.589 382.983 514.383 382.614 511.187 382.309C510.279 382.221 509.355 382.053 508.415 381.806C508.197 381.749 508.043 381.821 507.952 382.025C507.067 384.007 506.179 385.99 505.289 387.972C504.431 389.893 504.411 391.728 504.186 393.728C504.119 394.315 503.875 394.868 503.484 395.317C499.18 400.298 496.545 405 496.981 411.855C497.199 415.339 499.739 419.221 501.727 422.062C503.307 424.32 504.588 425.658 507.101 425.758C509.77 425.859 512.44 425.824 515.11 425.652C517.616 425.486 520.047 427.195 522.131 428.361C523.384 429.063 524.297 428.221 525.625 428.844C525.865 428.959 525.983 428.886 525.979 428.625C525.979 428.502 525.924 428.376 525.815 428.248C525.016 427.316 524.387 426.599 523.929 426.095C522.962 425.031 523.193 424.654 524.624 424.963C525.713 425.201 526.762 426.499 528.158 425.473C528.349 425.336 528.365 425.184 528.206 425.016C527.638 424.42 527.032 423.866 526.387 423.353C526.183 423.19 526.056 423.031 526.006 422.877C525.929 422.638 525.961 422.435 526.101 422.267C526.247 422.086 526.431 422.04 526.653 422.128C527.034 422.274 527.434 422.344 527.852 422.34C528.106 422.34 528.188 422.225 528.097 421.996C527.992 421.717 527.808 421.499 527.545 421.34C527.35 421.216 527.139 421.177 526.912 421.221C525.223 421.552 523.577 421.4 521.974 420.764C521.887 420.729 521.811 420.673 521.754 420.601C521.697 420.529 521.66 420.444 521.647 420.353C521.62 420.115 521.765 420.006 522.083 420.029C523.491 420.126 524.757 420.26 525.883 420.433C526.428 420.512 526.49 420.382 526.067 420.042C522.812 417.375 519.518 414.741 516.186 412.14C516.045 412.03 515.979 411.906 515.988 411.769C515.993 411.717 516.01 411.667 516.037 411.622C516.064 411.577 516.101 411.538 516.145 411.507C516.189 411.477 516.239 411.457 516.292 411.447C516.345 411.437 516.399 411.439 516.451 411.451C517.332 411.663 518.176 412.037 518.985 412.571C521.491 414.231 523.981 416.11 526.456 418.207C527.286 418.909 528.02 419.686 528.655 420.539C528.789 420.716 528.867 420.927 528.88 421.148C528.966 422.464 529.316 423.804 529.929 425.168C530.006 425.338 530.043 425.523 530.037 425.708C530.031 425.894 529.983 426.076 529.895 426.241C529.808 426.406 529.684 426.55 529.531 426.663C529.379 426.775 529.203 426.853 529.016 426.89C528.549 426.987 528.058 426.941 527.545 426.751C527.146 426.605 527.071 426.7 527.32 427.036C528.119 428.113 528.108 428.979 527.286 429.632C525.543 431.023 523.52 431.083 521.218 429.811C519.427 428.818 517.241 427.135 515.096 427.228C512.345 427.356 509.984 427.424 508.013 427.433C505.051 427.453 503.532 426.817 501.714 424.724C499.126 421.753 497.36 418.684 496.415 415.518C496.347 415.284 496.265 415.28 496.17 415.505C493.732 421.241 492.404 427.067 492.186 432.984C491.866 441.812 494.365 450.959 498.186 459.139C500.529 464.146 503.26 468.265 508.524 470.173C510.199 470.782 512.195 470.736 514.027 470.776C515.28 470.807 516.655 470.663 518.154 470.345C527.275 468.393 536.417 468.382 545.579 470.312C547.234 470.656 548.739 470.63 550.421 470.709C551.361 470.758 553.538 470.051 556.952 468.59C558.01 468.135 559.079 467.667 560.16 467.186C561.068 466.784 561.767 466.245 562.257 465.57C568.918 456.476 571.928 445.693 571.901 434.706C571.882 429.186 570.377 423.402 567.385 417.353C567.285 417.145 567.201 417.152 567.133 417.373C566.418 419.863 563.932 424.95 560.779 425.155C558.051 425.327 555.308 425.603 552.553 425.983C551.136 426.175 549.985 426.294 548.725 427.155C546.634 428.579 543.372 430.944 541.486 430.295C540.392 429.919 539.341 429.551 538.333 429.188C538.242 429.157 538.159 429.105 538.091 429.038C538.023 428.971 537.971 428.89 537.939 428.801C537.907 428.711 537.896 428.616 537.906 428.522C537.917 428.427 537.948 428.336 537.999 428.255C538.83 426.93 540.056 426.089 541.677 425.731C541.779 425.709 541.887 425.725 541.977 425.775C542.068 425.826 542.136 425.907 542.167 426.003C542.19 426.078 542.199 426.151 542.194 426.221C542.176 426.451 542.058 426.612 541.84 426.705C541.327 426.925 540.948 427.299 540.703 427.824C540.603 428.036 540.664 428.18 540.886 428.255C542.53 428.807 543.922 428.637 545.061 427.745C547.858 425.563 550.696 424.362 553.574 424.142C555.862 423.965 558.153 423.799 560.446 423.645C562.094 423.532 562.434 422.824 563.224 421.611C567.896 414.478 568.55 405.398 563.177 398.53C561.606 396.529 560.725 395.017 560.534 393.993C560.216 392.249 559.756 390.524 559.152 388.82C559.079 388.608 558.932 388.471 558.709 388.409C555.744 387.57 552.389 386.888 548.643 386.363C548.303 386.314 548.028 386.149 547.819 385.866C547.67 385.663 547.722 385.577 547.976 385.608C551.685 386.071 555.22 386.765 558.58 387.687C558.934 387.785 559.038 387.668 558.893 387.336C558.466 386.334 557.942 385.367 557.32 384.435C557.228 384.295 557.101 384.181 556.951 384.102C556.801 384.023 556.632 383.983 556.462 383.985C553.792 384.016 550.97 384.208 547.996 384.561C547.965 384.561 547.946 384.548 547.942 384.521L547.908 384.27ZM553.05 360.102C553.058 360.1 553.066 360.097 553.072 360.093C553.079 360.088 553.084 360.082 553.088 360.075C553.091 360.068 553.093 360.061 553.092 360.054C553.091 360.047 553.088 360.041 553.084 360.035C552.58 359.316 551.84 359.071 550.864 359.3C548.739 359.799 547.695 361.133 547.731 363.301C547.735 363.521 547.81 363.68 547.956 363.778C548.173 363.919 548.31 363.866 548.364 363.619C548.864 361.38 550.425 360.208 553.05 360.102ZM549.61 366.195C550.08 367.738 551.361 371.361 552.77 372.076C554.766 373.096 556.972 370.494 557.49 368.957C558.546 365.831 556.482 362.44 553.867 360.592C553.549 360.371 553.12 360.314 552.58 360.42C549.188 361.108 548.712 363.208 549.61 366.195ZM515.484 362.241C515.339 361.671 515.026 361.278 514.544 361.062C512.088 359.963 510.031 360.413 508.374 362.413C506.772 364.338 506.279 366.445 506.896 368.732C507.904 372.467 512.127 373.381 514.32 370.01C515.836 367.674 516.224 365.085 515.484 362.241ZM561.168 472.08C561.184 471.903 561.251 471.734 561.361 471.592C561.471 471.449 561.62 471.34 561.791 471.276C561.962 471.212 562.148 471.196 562.328 471.229C562.508 471.262 562.674 471.344 562.809 471.464L564.961 473.365C565.089 473.478 565.243 473.558 565.409 473.6C565.575 473.641 565.748 473.643 565.914 473.604C566.259 473.529 566.525 473.387 566.711 473.18C566.776 473.109 566.825 473.025 566.855 472.935C566.885 472.844 566.895 472.749 566.886 472.654C566.876 472.559 566.846 472.467 566.799 472.383C566.751 472.299 566.687 472.225 566.609 472.166C564.925 470.908 563.095 469.857 561.12 469.014C560.927 468.931 560.719 468.887 560.509 468.887C560.298 468.887 560.091 468.931 559.901 469.014C556.991 470.259 554.035 471.076 551.034 471.464C550.793 471.495 550.73 471.615 550.843 471.822C553.029 475.856 556.216 473.584 559.587 474.763C560.427 475.059 561.304 475.167 562.216 475.087C562.852 475.034 562.938 474.796 562.475 474.372C561.54 473.511 561.104 472.747 561.168 472.08ZM503.246 473.027L502.02 474.624C501.18 475.71 501.41 476.001 502.708 475.498C503.993 475.003 505.428 474.853 507.012 475.048C509.334 475.339 511.466 474.809 512.665 472.683C512.704 472.613 512.724 472.534 512.721 472.454C512.718 472.374 512.692 472.296 512.648 472.229C512.603 472.162 512.541 472.107 512.467 472.072C512.393 472.037 512.311 472.021 512.229 472.027C510.819 472.127 509.607 472.153 508.258 471.517C506.669 470.771 505.089 470.018 503.518 469.259C503.314 469.162 503.112 469.171 502.912 469.285C501.024 470.376 499.316 471.758 497.791 473.432C497.75 473.476 497.718 473.529 497.699 473.586C497.68 473.644 497.673 473.704 497.68 473.764C497.686 473.824 497.705 473.882 497.736 473.934C497.767 473.986 497.809 474.032 497.859 474.067C498.286 474.368 498.654 474.432 498.962 474.259C499.108 474.176 499.262 473.95 499.425 473.584C500.088 472.083 501.282 471.637 503.008 472.246C503.085 472.274 503.154 472.319 503.21 472.377C503.266 472.435 503.307 472.505 503.33 472.581C503.354 472.657 503.358 472.737 503.343 472.814C503.329 472.892 503.295 472.965 503.246 473.027ZM499.786 473.994C499.687 474.1 499.628 474.169 499.609 474.2C499.378 474.681 499.498 474.785 499.97 474.511C500.538 474.184 500.935 473.791 501.162 473.332C501.548 472.546 501.36 472.383 500.597 472.842C500.263 473.041 500.147 473.637 499.786 473.994Z"/>
<path d="M526.025 371.789C526.693 372.481 527 373.448 526.88 374.477C526.76 375.507 526.222 376.515 525.385 377.28C524.97 377.658 524.495 377.966 523.985 378.185C523.475 378.404 522.942 378.53 522.415 378.555C521.888 378.581 521.378 378.506 520.914 378.334C520.45 378.163 520.041 377.899 519.71 377.556C519.042 376.865 518.735 375.898 518.855 374.868C518.975 373.838 519.513 372.83 520.35 372.065C520.765 371.687 521.24 371.379 521.75 371.16C522.26 370.942 522.793 370.816 523.32 370.79C523.847 370.764 524.357 370.839 524.821 371.011C525.285 371.182 525.694 371.447 526.025 371.789ZM523.65 373.779C523.722 373.727 523.781 373.658 523.823 373.577C523.866 373.497 523.89 373.406 523.896 373.309C523.902 373.213 523.888 373.113 523.856 373.016C523.825 372.919 523.775 372.826 523.711 372.742C523.581 372.573 523.399 372.454 523.204 372.409C523.009 372.365 522.817 372.4 522.671 372.506C522.598 372.559 522.54 372.627 522.497 372.708C522.455 372.789 522.43 372.88 522.425 372.976C522.419 373.072 522.432 373.172 522.464 373.269C522.496 373.367 522.545 373.46 522.61 373.543C522.739 373.712 522.922 373.832 523.117 373.876C523.312 373.92 523.504 373.885 523.65 373.779Z"/>
<path d="M546.452 378.881C545.666 379.32 544.687 379.362 543.732 378.997C542.776 378.631 541.921 377.889 541.356 376.932C540.791 375.976 540.561 374.884 540.717 373.897C540.873 372.91 541.402 372.109 542.188 371.669C542.974 371.23 543.952 371.188 544.908 371.553C545.863 371.919 546.718 372.661 547.283 373.618C547.849 374.574 548.079 375.666 547.923 376.653C547.767 377.64 547.238 378.441 546.452 378.881ZM541.884 374.862C541.966 374.907 542.059 374.93 542.158 374.931C542.257 374.932 542.361 374.91 542.463 374.867C542.564 374.823 542.662 374.759 542.751 374.678C542.84 374.596 542.918 374.5 542.98 374.393C543.106 374.178 543.161 373.935 543.133 373.718C543.106 373.502 542.998 373.329 542.833 373.238C542.751 373.193 542.658 373.169 542.559 373.168C542.459 373.167 542.356 373.189 542.254 373.233C542.152 373.276 542.054 373.34 541.965 373.422C541.877 373.503 541.799 373.6 541.737 373.706C541.611 373.922 541.556 374.164 541.583 374.381C541.611 374.598 541.719 374.771 541.884 374.862Z"/>
<path d="M534.839 387.879C534.9 389.495 534.594 392.165 536.085 393.184C537.938 394.452 540.094 394.699 542.555 393.926C543.073 393.763 543.211 393.92 542.971 394.397C542.603 395.121 541.881 395.598 540.805 395.827C539.207 396.167 537.368 395.825 535.289 394.801C535.043 394.681 534.816 394.706 534.608 394.873C533.177 396.021 531.305 396.492 528.989 396.284C528.453 396.236 527.89 395.979 527.3 395.516C527.159 395.41 527.048 395.273 526.966 395.105C526.676 394.491 526.873 394.224 527.559 394.304C533.259 394.973 534.88 392.615 534.022 387.932C533.981 387.707 533.854 387.553 533.64 387.469C532.051 386.824 530.905 385.853 530.201 384.554C529.466 383.186 529.588 382.163 530.569 381.488C532.142 380.395 535.37 380.826 537.23 381.243C539.422 381.733 539.477 383.568 538.435 385.104C537.663 386.239 536.61 386.974 535.275 387.31C535.146 387.342 535.032 387.416 534.953 387.519C534.874 387.623 534.833 387.75 534.839 387.879ZM533.606 386.29C535.064 386.767 536.269 386.416 537.223 385.237C537.436 384.972 537.65 384.707 537.863 384.442C538.816 383.267 538.555 382.464 537.08 382.031C535.245 381.497 533.366 381.4 531.441 381.74C531.268 381.77 531.105 381.837 530.962 381.935C530.818 382.033 530.698 382.16 530.61 382.307C530.522 382.454 530.468 382.618 530.452 382.788C530.435 382.958 530.457 383.129 530.515 383.289C531.059 384.799 532.09 385.8 533.606 386.29Z"/>
<path d="M506.352 387.502C511.065 386.455 515.848 385.958 520.701 386.011C520.742 386.011 520.763 386.031 520.763 386.071V386.25C520.767 386.427 520.676 386.513 520.49 386.508C515.714 386.455 510.981 386.93 506.291 387.932C506.284 387.933 506.278 387.933 506.272 387.932C506.265 387.931 506.26 387.929 506.254 387.926C506.249 387.923 506.245 387.919 506.242 387.914C506.239 387.91 506.237 387.904 506.236 387.899L506.202 387.733C506.19 387.685 506.199 387.633 506.227 387.589C506.255 387.546 506.3 387.515 506.352 387.502Z"/>
<path d="M541.043 419.511L544.469 419.71C544.523 419.715 544.553 419.743 544.557 419.796L544.564 419.975C544.568 420.035 544.549 420.094 544.51 420.142C544.471 420.19 544.415 420.222 544.353 420.233C543.032 420.463 541.717 420.56 540.41 420.525C540.115 420.52 539.865 420.622 539.661 420.829C538.871 421.637 538.233 422.49 537.747 423.386C536.893 424.954 537.202 425.216 538.673 424.174C539.34 423.702 539.881 423.459 540.294 423.446C541.692 423.393 541.81 423.746 540.648 424.505C540.017 424.912 539.372 425.501 538.714 426.274C536.912 428.393 536.022 428.077 536.044 425.327C536.085 419.71 543.386 414.041 547.887 411.458C548.092 411.338 548.267 411.374 548.412 411.564L548.528 411.716C548.556 411.75 548.57 411.793 548.566 411.837C548.562 411.882 548.541 411.923 548.507 411.954L540.825 418.942C540.439 419.295 540.512 419.485 541.043 419.511Z"/>
<path d="M533.294 416.823C533.313 416.822 533.332 416.825 533.35 416.831C533.369 416.838 533.385 416.848 533.399 416.861C533.413 416.874 533.424 416.889 533.432 416.907C533.44 416.924 533.443 416.943 533.443 416.962V417.034C533.598 422.424 533.705 427.597 533.741 431.431C533.776 435.265 533.738 437.451 533.634 437.513L533.484 437.52C533.432 437.553 533.365 437.049 533.286 436.036C533.208 435.023 533.12 433.521 533.027 431.618C532.935 429.715 532.84 427.448 532.748 424.95C532.655 422.451 532.568 419.77 532.49 417.061V416.988C532.489 416.97 532.492 416.952 532.498 416.934C532.505 416.917 532.514 416.901 532.527 416.888C532.54 416.874 532.555 416.863 532.572 416.855C532.589 416.848 532.607 416.843 532.626 416.842L533.294 416.823Z"/>
<path d="M514 465.563C514.472 465.859 514.971 466.144 515.498 466.417C515.556 466.447 515.605 466.489 515.643 466.541C515.68 466.593 515.704 466.653 515.713 466.716C515.722 466.779 515.715 466.843 515.693 466.903C515.671 466.963 515.634 467.017 515.587 467.06C515.446 467.192 515.237 467.21 514.96 467.113C512.785 466.353 511.094 465.049 509.886 463.198C509.732 462.964 509.771 462.766 510.002 462.602L510.138 462.503C510.191 462.464 510.257 462.446 510.322 462.454C510.387 462.461 510.446 462.493 510.486 462.543C511.48 463.722 512.651 464.728 514 465.563Z"/>
<path d="M549.207 465.815C549.169 465.782 549.168 465.709 549.205 465.598C549.241 465.487 549.315 465.341 549.421 465.168C549.528 464.996 549.665 464.8 549.825 464.593C549.984 464.385 550.164 464.169 550.353 463.958C550.542 463.746 550.737 463.543 550.926 463.361C551.115 463.178 551.295 463.019 551.456 462.892C551.617 462.766 551.755 462.674 551.863 462.624C551.971 462.573 552.046 462.563 552.085 462.596C552.123 462.628 552.124 462.702 552.087 462.813C552.051 462.924 551.977 463.07 551.87 463.242C551.764 463.415 551.627 463.611 551.467 463.818C551.307 464.026 551.128 464.242 550.939 464.453C550.75 464.664 550.555 464.867 550.366 465.05C550.177 465.233 549.997 465.392 549.836 465.519C549.675 465.645 549.537 465.736 549.429 465.787C549.321 465.838 549.246 465.848 549.207 465.815Z"/>
<path d="M572.384 466.272C572.248 465.746 572.241 465.239 572.364 464.749C572.432 464.479 572.516 464.475 572.616 464.735C572.806 465.225 572.825 465.738 572.67 466.272C572.575 466.621 572.48 466.621 572.384 466.272Z"/>
</mask>
<path d="M573.188 393.443C573.229 393.673 573.095 393.741 572.786 393.648L562.039 389.244C562.001 389.228 561.959 389.222 561.918 389.228C561.877 389.233 561.838 389.25 561.805 389.276C561.773 389.301 561.748 389.335 561.732 389.374C561.717 389.413 561.713 389.455 561.719 389.496C561.914 390.67 562.173 391.827 562.496 392.966C563.34 395.953 565.812 397.874 567.072 400.709C569.088 405.243 569.535 409.961 568.414 414.862C568.364 415.079 568.393 415.284 568.502 415.478C569.313 416.929 570.321 418.333 570.92 419.79C573.771 426.758 574.643 433.995 573.535 441.501C572.139 450.985 569.585 460.165 562.904 467.351C562.75 467.515 562.773 467.649 562.972 467.755C563.826 468.201 564.709 468.572 565.621 468.868C567.828 469.577 570.314 471.974 568.904 474.293C568.786 474.482 568.625 474.626 568.421 474.723C567.331 475.244 566.371 475.928 565.54 476.776C565.367 476.953 565.158 477.008 564.913 476.942L563.537 476.584C563.288 476.518 563.054 476.551 562.836 476.684L561.576 477.472C561.472 477.537 561.35 477.572 561.224 477.572C561.099 477.572 560.975 477.537 560.868 477.472C560.119 477.015 559.485 476.611 558.552 476.597C556.073 476.558 552.845 476.684 551.013 474.955C550.378 474.354 549.735 473.763 549.086 473.18C548.923 473.034 548.73 472.946 548.507 472.915C545.788 472.531 542.995 472.16 540.131 471.802C531.876 470.76 523.468 471.169 514.905 473.027C514.692 473.076 514.515 473.182 514.374 473.345C513.452 474.458 512.835 475.147 512.522 475.412C510.036 477.518 508.041 477.154 505.241 476.948C503.954 476.849 503.069 477.273 502.007 477.843C501.709 478.003 501.358 478.043 501.031 477.953C500.703 477.864 500.425 477.653 500.256 477.366L499.868 476.703C499.469 476.023 498.987 475.964 498.424 476.525C497.712 477.235 497.128 477.275 496.674 476.644C493.582 472.359 498.418 470.014 501.257 467.901C501.444 467.76 501.464 467.601 501.319 467.424C500.869 466.888 500.25 466.557 499.855 466.06C495.85 461.04 493.766 455.648 492.016 449.224C490.341 443.068 489.709 436.825 490.123 430.493C490.468 425.203 491.734 420.508 493.923 416.406C494.363 415.584 494.549 414.644 494.481 413.584C494.168 408.665 495.121 404.206 497.342 400.205C498.329 398.43 499.616 396.834 500.862 395.165C501.562 394.224 501.988 393.244 502.143 392.224C502.315 391.094 502.417 389.988 502.449 388.906C502.458 388.681 502.352 388.601 502.129 388.668C498.565 389.736 495.078 390.99 491.669 392.43C491.619 392.452 491.58 392.436 491.553 392.383C491.535 392.344 491.546 392.313 491.587 392.291C495.065 390.44 498.722 389.008 502.558 387.992C502.762 387.939 502.903 387.813 502.98 387.615L505.173 381.852C505.255 381.645 505.18 381.532 504.949 381.515C503.31 381.382 501.677 381.314 500.052 381.309C500.038 381.309 500.032 381.316 500.032 381.329C500.032 381.329 500.032 381.331 500.032 381.336C500.036 381.34 500.041 381.342 500.045 381.342C501.548 381.192 503.269 381.011 505.207 380.799C505.434 380.774 505.652 380.7 505.845 380.582C506.037 380.464 506.199 380.305 506.317 380.117L509.137 375.62C509.289 375.379 509.343 375.091 509.289 374.813C509.235 374.535 509.076 374.287 508.844 374.116C504.081 370.571 503.337 366.345 506.61 361.44C509.682 356.836 516.444 355.121 520.599 359.665C520.948 360.044 521.343 360.373 521.784 360.651C521.974 360.771 522.181 360.802 522.403 360.744C530.038 358.751 537.447 358.698 544.918 361.181C545.038 361.221 545.168 361.215 545.283 361.165C545.398 361.114 545.489 361.023 545.538 360.91C546.664 358.34 548.396 357.084 550.734 357.141C554.943 357.24 558.266 361.049 559.24 364.897C560.23 368.778 558.897 371.743 555.243 373.792C554.77 374.052 554.666 374.414 554.929 374.878C556.627 377.867 558.178 380.76 559.581 383.555C559.685 383.762 559.855 383.875 560.092 383.892C564.664 384.193 569.079 385.186 573.338 386.873C573.41 386.899 573.433 386.948 573.406 387.018L573.351 387.177C573.347 387.186 573.337 387.188 573.324 387.184C569.642 386.014 565.628 385.133 561.283 384.541C560.484 384.431 560.219 384.747 560.487 385.488L561.345 387.84C561.431 388.078 561.597 388.242 561.842 388.33C565.783 389.756 569.565 391.46 573.188 393.443ZM547.908 384.27C547.903 384.24 547.905 384.21 547.913 384.181C547.92 384.151 547.934 384.124 547.954 384.101C547.973 384.077 547.997 384.057 548.024 384.043C548.051 384.029 548.081 384.021 548.112 384.018L556.257 383.217C556.3 383.212 556.341 383.198 556.376 383.175C556.412 383.152 556.442 383.121 556.462 383.085C556.483 383.048 556.495 383.008 556.496 382.966C556.497 382.924 556.487 382.883 556.468 382.846L555.488 380.806C555.406 380.634 555.268 380.574 555.072 380.627L546.757 383.045C546.548 383.106 546.457 383.031 546.485 382.819L546.519 382.594C546.523 382.528 546.557 382.486 546.621 382.468L554.616 380.21C555.07 380.082 555.177 379.821 554.936 379.428C553.758 377.501 552.478 375.858 552.505 373.626C552.509 373.401 552.425 373.218 552.253 373.077C552.021 372.887 551.797 372.774 551.579 372.739C551.275 372.693 550.991 372.566 550.76 372.371C550.529 372.177 550.359 371.923 550.271 371.639C549.513 369.233 548.752 366.886 547.99 364.599C547.92 364.393 547.8 364.207 547.638 364.057C547.477 363.907 547.279 363.797 547.063 363.738C538.959 361.473 531.563 360.426 523.296 362.493C522.363 362.725 521.191 362.784 520.497 362.267C518.052 360.459 515.927 358.393 512.563 359.082C512.494 359.095 512.432 359.132 512.39 359.186C512.349 359.24 512.33 359.307 512.338 359.373L512.358 359.545C512.367 359.616 512.41 359.649 512.488 359.645C515.239 359.446 516.705 360.598 516.887 363.102C517.137 366.515 516.117 369.626 513.829 372.434C513.666 372.633 513.45 372.741 513.182 372.759C512.51 372.803 511.87 372.949 511.262 373.196C511.2 373.22 511.143 373.257 511.096 373.303C511.048 373.349 511.011 373.405 510.986 373.465C510.962 373.526 510.95 373.591 510.951 373.656C510.953 373.721 510.968 373.785 510.996 373.845C511.67 375.256 511.698 376.289 510.676 377.64C509.85 378.722 509.044 379.852 508.258 381.031C508.221 381.087 508.198 381.152 508.194 381.22C508.189 381.287 508.203 381.354 508.233 381.415C508.263 381.475 508.309 381.527 508.366 381.566C508.423 381.604 508.489 381.628 508.558 381.634C512.599 381.952 516.717 382.418 520.912 383.031C520.962 383.04 520.985 383.069 520.98 383.117L520.953 383.303C520.951 383.32 520.946 383.337 520.937 383.352C520.929 383.367 520.917 383.38 520.903 383.391C520.889 383.401 520.873 383.409 520.856 383.413C520.838 383.418 520.82 383.418 520.803 383.415C517.589 382.983 514.383 382.614 511.187 382.309C510.279 382.221 509.355 382.053 508.415 381.806C508.197 381.749 508.043 381.821 507.952 382.025C507.067 384.007 506.179 385.99 505.289 387.972C504.431 389.893 504.411 391.728 504.186 393.728C504.119 394.315 503.875 394.868 503.484 395.317C499.18 400.298 496.545 405 496.981 411.855C497.199 415.339 499.739 419.221 501.727 422.062C503.307 424.32 504.588 425.658 507.101 425.758C509.77 425.859 512.44 425.824 515.11 425.652C517.616 425.486 520.047 427.195 522.131 428.361C523.384 429.063 524.297 428.221 525.625 428.844C525.865 428.959 525.983 428.886 525.979 428.625C525.979 428.502 525.924 428.376 525.815 428.248C525.016 427.316 524.387 426.599 523.929 426.095C522.962 425.031 523.193 424.654 524.624 424.963C525.713 425.201 526.762 426.499 528.158 425.473C528.349 425.336 528.365 425.184 528.206 425.016C527.638 424.42 527.032 423.866 526.387 423.353C526.183 423.19 526.056 423.031 526.006 422.877C525.929 422.638 525.961 422.435 526.101 422.267C526.247 422.086 526.431 422.04 526.653 422.128C527.034 422.274 527.434 422.344 527.852 422.34C528.106 422.34 528.188 422.225 528.097 421.996C527.992 421.717 527.808 421.499 527.545 421.34C527.35 421.216 527.139 421.177 526.912 421.221C525.223 421.552 523.577 421.4 521.974 420.764C521.887 420.729 521.811 420.673 521.754 420.601C521.697 420.529 521.66 420.444 521.647 420.353C521.62 420.115 521.765 420.006 522.083 420.029C523.491 420.126 524.757 420.26 525.883 420.433C526.428 420.512 526.49 420.382 526.067 420.042C522.812 417.375 519.518 414.741 516.186 412.14C516.045 412.03 515.979 411.906 515.988 411.769C515.993 411.717 516.01 411.667 516.037 411.622C516.064 411.577 516.101 411.538 516.145 411.507C516.189 411.477 516.239 411.457 516.292 411.447C516.345 411.437 516.399 411.439 516.451 411.451C517.332 411.663 518.176 412.037 518.985 412.571C521.491 414.231 523.981 416.11 526.456 418.207C527.286 418.909 528.02 419.686 528.655 420.539C528.789 420.716 528.867 420.927 528.88 421.148C528.966 422.464 529.316 423.804 529.929 425.168C530.006 425.338 530.043 425.523 530.037 425.708C530.031 425.894 529.983 426.076 529.895 426.241C529.808 426.406 529.684 426.55 529.531 426.663C529.379 426.775 529.203 426.853 529.016 426.89C528.549 426.987 528.058 426.941 527.545 426.751C527.146 426.605 527.071 426.7 527.32 427.036C528.119 428.113 528.108 428.979 527.286 429.632C525.543 431.023 523.52 431.083 521.218 429.811C519.427 428.818 517.241 427.135 515.096 427.228C512.345 427.356 509.984 427.424 508.013 427.433C505.051 427.453 503.532 426.817 501.714 424.724C499.126 421.753 497.36 418.684 496.415 415.518C496.347 415.284 496.265 415.28 496.17 415.505C493.732 421.241 492.404 427.067 492.186 432.984C491.866 441.812 494.365 450.959 498.186 459.139C500.529 464.146 503.26 468.265 508.524 470.173C510.199 470.782 512.195 470.736 514.027 470.776C515.28 470.807 516.655 470.663 518.154 470.345C527.275 468.393 536.417 468.382 545.579 470.312C547.234 470.656 548.739 470.63 550.421 470.709C551.361 470.758 553.538 470.051 556.952 468.59C558.01 468.135 559.079 467.667 560.16 467.186C561.068 466.784 561.767 466.245 562.257 465.57C568.918 456.476 571.928 445.693 571.901 434.706C571.882 429.186 570.377 423.402 567.385 417.353C567.285 417.145 567.201 417.152 567.133 417.373C566.418 419.863 563.932 424.95 560.779 425.155C558.051 425.327 555.308 425.603 552.553 425.983C551.136 426.175 549.985 426.294 548.725 427.155C546.634 428.579 543.372 430.944 541.486 430.295C540.392 429.919 539.341 429.551 538.333 429.188C538.242 429.157 538.159 429.105 538.091 429.038C538.023 428.971 537.971 428.89 537.939 428.801C537.907 428.711 537.896 428.616 537.906 428.522C537.917 428.427 537.948 428.336 537.999 428.255C538.83 426.93 540.056 426.089 541.677 425.731C541.779 425.709 541.887 425.725 541.977 425.775C542.068 425.826 542.136 425.907 542.167 426.003C542.19 426.078 542.199 426.151 542.194 426.221C542.176 426.451 542.058 426.612 541.84 426.705C541.327 426.925 540.948 427.299 540.703 427.824C540.603 428.036 540.664 428.18 540.886 428.255C542.53 428.807 543.922 428.637 545.061 427.745C547.858 425.563 550.696 424.362 553.574 424.142C555.862 423.965 558.153 423.799 560.446 423.645C562.094 423.532 562.434 422.824 563.224 421.611C567.896 414.478 568.55 405.398 563.177 398.53C561.606 396.529 560.725 395.017 560.534 393.993C560.216 392.249 559.756 390.524 559.152 388.82C559.079 388.608 558.932 388.471 558.709 388.409C555.744 387.57 552.389 386.888 548.643 386.363C548.303 386.314 548.028 386.149 547.819 385.866C547.67 385.663 547.722 385.577 547.976 385.608C551.685 386.071 555.22 386.765 558.58 387.687C558.934 387.785 559.038 387.668 558.893 387.336C558.466 386.334 557.942 385.367 557.32 384.435C557.228 384.295 557.101 384.181 556.951 384.102C556.801 384.023 556.632 383.983 556.462 383.985C553.792 384.016 550.97 384.208 547.996 384.561C547.965 384.561 547.946 384.548 547.942 384.521L547.908 384.27ZM553.05 360.102C553.058 360.1 553.066 360.097 553.072 360.093C553.079 360.088 553.084 360.082 553.088 360.075C553.091 360.068 553.093 360.061 553.092 360.054C553.091 360.047 553.088 360.041 553.084 360.035C552.58 359.316 551.84 359.071 550.864 359.3C548.739 359.799 547.695 361.133 547.731 363.301C547.735 363.521 547.81 363.68 547.956 363.778C548.173 363.919 548.31 363.866 548.364 363.619C548.864 361.38 550.425 360.208 553.05 360.102ZM549.61 366.195C550.08 367.738 551.361 371.361 552.77 372.076C554.766 373.096 556.972 370.494 557.49 368.957C558.546 365.831 556.482 362.44 553.867 360.592C553.549 360.371 553.12 360.314 552.58 360.42C549.188 361.108 548.712 363.208 549.61 366.195ZM515.484 362.241C515.339 361.671 515.026 361.278 514.544 361.062C512.088 359.963 510.031 360.413 508.374 362.413C506.772 364.338 506.279 366.445 506.896 368.732C507.904 372.467 512.127 373.381 514.32 370.01C515.836 367.674 516.224 365.085 515.484 362.241ZM561.168 472.08C561.184 471.903 561.251 471.734 561.361 471.592C561.471 471.449 561.62 471.34 561.791 471.276C561.962 471.212 562.148 471.196 562.328 471.229C562.508 471.262 562.674 471.344 562.809 471.464L564.961 473.365C565.089 473.478 565.243 473.558 565.409 473.6C565.575 473.641 565.748 473.643 565.914 473.604C566.259 473.529 566.525 473.387 566.711 473.18C566.776 473.109 566.825 473.025 566.855 472.935C566.885 472.844 566.895 472.749 566.886 472.654C566.876 472.559 566.846 472.467 566.799 472.383C566.751 472.299 566.687 472.225 566.609 472.166C564.925 470.908 563.095 469.857 561.12 469.014C560.927 468.931 560.719 468.887 560.509 468.887C560.298 468.887 560.091 468.931 559.901 469.014C556.991 470.259 554.035 471.076 551.034 471.464C550.793 471.495 550.73 471.615 550.843 471.822C553.029 475.856 556.216 473.584 559.587 474.763C560.427 475.059 561.304 475.167 562.216 475.087C562.852 475.034 562.938 474.796 562.475 474.372C561.54 473.511 561.104 472.747 561.168 472.08ZM503.246 473.027L502.02 474.624C501.18 475.71 501.41 476.001 502.708 475.498C503.993 475.003 505.428 474.853 507.012 475.048C509.334 475.339 511.466 474.809 512.665 472.683C512.704 472.613 512.724 472.534 512.721 472.454C512.718 472.374 512.692 472.296 512.648 472.229C512.603 472.162 512.541 472.107 512.467 472.072C512.393 472.037 512.311 472.021 512.229 472.027C510.819 472.127 509.607 472.153 508.258 471.517C506.669 470.771 505.089 470.018 503.518 469.259C503.314 469.162 503.112 469.171 502.912 469.285C501.024 470.376 499.316 471.758 497.791 473.432C497.75 473.476 497.718 473.529 497.699 473.586C497.68 473.644 497.673 473.704 497.68 473.764C497.686 473.824 497.705 473.882 497.736 473.934C497.767 473.986 497.809 474.032 497.859 474.067C498.286 474.368 498.654 474.432 498.962 474.259C499.108 474.176 499.262 473.95 499.425 473.584C500.088 472.083 501.282 471.637 503.008 472.246C503.085 472.274 503.154 472.319 503.21 472.377C503.266 472.435 503.307 472.505 503.33 472.581C503.354 472.657 503.358 472.737 503.343 472.814C503.329 472.892 503.295 472.965 503.246 473.027ZM499.786 473.994C499.687 474.1 499.628 474.169 499.609 474.2C499.378 474.681 499.498 474.785 499.97 474.511C500.538 474.184 500.935 473.791 501.162 473.332C501.548 472.546 501.36 472.383 500.597 472.842C500.263 473.041 500.147 473.637 499.786 473.994Z" fill="#030712"/>
<path d="M526.025 371.789C526.693 372.481 527 373.448 526.88 374.477C526.76 375.507 526.222 376.515 525.385 377.28C524.97 377.658 524.495 377.966 523.985 378.185C523.475 378.404 522.942 378.53 522.415 378.555C521.888 378.581 521.378 378.506 520.914 378.334C520.45 378.163 520.041 377.899 519.71 377.556C519.042 376.865 518.735 375.898 518.855 374.868C518.975 373.838 519.513 372.83 520.35 372.065C520.765 371.687 521.24 371.379 521.75 371.16C522.26 370.942 522.793 370.816 523.32 370.79C523.847 370.764 524.357 370.839 524.821 371.011C525.285 371.182 525.694 371.447 526.025 371.789ZM523.65 373.779C523.722 373.727 523.781 373.658 523.823 373.577C523.866 373.497 523.89 373.406 523.896 373.309C523.902 373.213 523.888 373.113 523.856 373.016C523.825 372.919 523.775 372.826 523.711 372.742C523.581 372.573 523.399 372.454 523.204 372.409C523.009 372.365 522.817 372.4 522.671 372.506C522.598 372.559 522.54 372.627 522.497 372.708C522.455 372.789 522.43 372.88 522.425 372.976C522.419 373.072 522.432 373.172 522.464 373.269C522.496 373.367 522.545 373.46 522.61 373.543C522.739 373.712 522.922 373.832 523.117 373.876C523.312 373.92 523.504 373.885 523.65 373.779Z" fill="#030712"/>
<path d="M546.452 378.881C545.666 379.32 544.687 379.362 543.732 378.997C542.776 378.631 541.921 377.889 541.356 376.932C540.791 375.976 540.561 374.884 540.717 373.897C540.873 372.91 541.402 372.109 542.188 371.669C542.974 371.23 543.952 371.188 544.908 371.553C545.863 371.919 546.718 372.661 547.283 373.618C547.849 374.574 548.079 375.666 547.923 376.653C547.767 377.64 547.238 378.441 546.452 378.881ZM541.884 374.862C541.966 374.907 542.059 374.93 542.158 374.931C542.257 374.932 542.361 374.91 542.463 374.867C542.564 374.823 542.662 374.759 542.751 374.678C542.84 374.596 542.918 374.5 542.98 374.393C543.106 374.178 543.161 373.935 543.133 373.718C543.106 373.502 542.998 373.329 542.833 373.238C542.751 373.193 542.658 373.169 542.559 373.168C542.459 373.167 542.356 373.189 542.254 373.233C542.152 373.276 542.054 373.34 541.965 373.422C541.877 373.503 541.799 373.6 541.737 373.706C541.611 373.922 541.556 374.164 541.583 374.381C541.611 374.598 541.719 374.771 541.884 374.862Z" fill="#030712"/>
<path d="M534.839 387.879C534.9 389.495 534.594 392.165 536.085 393.184C537.938 394.452 540.094 394.699 542.555 393.926C543.073 393.763 543.211 393.92 542.971 394.397C542.603 395.121 541.881 395.598 540.805 395.827C539.207 396.167 537.368 395.825 535.289 394.801C535.043 394.681 534.816 394.706 534.608 394.873C533.177 396.021 531.305 396.492 528.989 396.284C528.453 396.236 527.89 395.979 527.3 395.516C527.159 395.41 527.048 395.273 526.966 395.105C526.676 394.491 526.873 394.224 527.559 394.304C533.259 394.973 534.88 392.615 534.022 387.932C533.981 387.707 533.854 387.553 533.64 387.469C532.051 386.824 530.905 385.853 530.201 384.554C529.466 383.186 529.588 382.163 530.569 381.488C532.142 380.395 535.37 380.826 537.23 381.243C539.422 381.733 539.477 383.568 538.435 385.104C537.663 386.239 536.61 386.974 535.275 387.31C535.146 387.342 535.032 387.416 534.953 387.519C534.874 387.623 534.833 387.75 534.839 387.879ZM533.606 386.29C535.064 386.767 536.269 386.416 537.223 385.237C537.436 384.972 537.65 384.707 537.863 384.442C538.816 383.267 538.555 382.464 537.08 382.031C535.245 381.497 533.366 381.4 531.441 381.74C531.268 381.77 531.105 381.837 530.962 381.935C530.818 382.033 530.698 382.16 530.61 382.307C530.522 382.454 530.468 382.618 530.452 382.788C530.435 382.958 530.457 383.129 530.515 383.289C531.059 384.799 532.09 385.8 533.606 386.29Z" fill="#030712"/>
<path d="M506.352 387.502C511.065 386.455 515.848 385.958 520.701 386.011C520.742 386.011 520.763 386.031 520.763 386.071V386.25C520.767 386.427 520.676 386.513 520.49 386.508C515.714 386.455 510.981 386.93 506.291 387.932C506.284 387.933 506.278 387.933 506.272 387.932C506.265 387.931 506.26 387.929 506.254 387.926C506.249 387.923 506.245 387.919 506.242 387.914C506.239 387.91 506.237 387.904 506.236 387.899L506.202 387.733C506.19 387.685 506.199 387.633 506.227 387.589C506.255 387.546 506.3 387.515 506.352 387.502Z" fill="#030712"/>
<path d="M541.043 419.511L544.469 419.71C544.523 419.715 544.553 419.743 544.557 419.796L544.564 419.975C544.568 420.035 544.549 420.094 544.51 420.142C544.471 420.19 544.415 420.222 544.353 420.233C543.032 420.463 541.717 420.56 540.41 420.525C540.115 420.52 539.865 420.622 539.661 420.829C538.871 421.637 538.233 422.49 537.747 423.386C536.893 424.954 537.202 425.216 538.673 424.174C539.34 423.702 539.881 423.459 540.294 423.446C541.692 423.393 541.81 423.746 540.648 424.505C540.017 424.912 539.372 425.501 538.714 426.274C536.912 428.393 536.022 428.077 536.044 425.327C536.085 419.71 543.386 414.041 547.887 411.458C548.092 411.338 548.267 411.374 548.412 411.564L548.528 411.716C548.556 411.75 548.57 411.793 548.566 411.837C548.562 411.882 548.541 411.923 548.507 411.954L540.825 418.942C540.439 419.295 540.512 419.485 541.043 419.511Z" fill="#030712"/>
<path d="M533.294 416.823C533.313 416.822 533.332 416.825 533.35 416.831C533.369 416.838 533.385 416.848 533.399 416.861C533.413 416.874 533.424 416.889 533.432 416.907C533.44 416.924 533.443 416.943 533.443 416.962V417.034C533.598 422.424 533.705 427.597 533.741 431.431C533.776 435.265 533.738 437.451 533.634 437.513L533.484 437.52C533.432 437.553 533.365 437.049 533.286 436.036C533.208 435.023 533.12 433.521 533.027 431.618C532.935 429.715 532.84 427.448 532.748 424.95C532.655 422.451 532.568 419.77 532.49 417.061V416.988C532.489 416.97 532.492 416.952 532.498 416.934C532.505 416.917 532.514 416.901 532.527 416.888C532.54 416.874 532.555 416.863 532.572 416.855C532.589 416.848 532.607 416.843 532.626 416.842L533.294 416.823Z" fill="#030712"/>
<path d="M514 465.563C514.472 465.859 514.971 466.144 515.498 466.417C515.556 466.447 515.605 466.489 515.643 466.541C515.68 466.593 515.704 466.653 515.713 466.716C515.722 466.779 515.715 466.843 515.693 466.903C515.671 466.963 515.634 467.017 515.587 467.06C515.446 467.192 515.237 467.21 514.96 467.113C512.785 466.353 511.094 465.049 509.886 463.198C509.732 462.964 509.771 462.766 510.002 462.602L510.138 462.503C510.191 462.464 510.257 462.446 510.322 462.454C510.387 462.461 510.446 462.493 510.486 462.543C511.48 463.722 512.651 464.728 514 465.563Z" fill="#030712"/>
<path d="M549.207 465.815C549.169 465.782 549.168 465.709 549.205 465.598C549.241 465.487 549.315 465.341 549.421 465.168C549.528 464.996 549.665 464.8 549.825 464.593C549.984 464.385 550.164 464.169 550.353 463.958C550.542 463.746 550.737 463.543 550.926 463.361C551.115 463.178 551.295 463.019 551.456 462.892C551.617 462.766 551.755 462.674 551.863 462.624C551.971 462.573 552.046 462.563 552.085 462.596C552.123 462.628 552.124 462.702 552.087 462.813C552.051 462.924 551.977 463.07 551.87 463.242C551.764 463.415 551.627 463.611 551.467 463.818C551.307 464.026 551.128 464.242 550.939 464.453C550.75 464.664 550.555 464.867 550.366 465.05C550.177 465.233 549.997 465.392 549.836 465.519C549.675 465.645 549.537 465.736 549.429 465.787C549.321 465.838 549.246 465.848 549.207 465.815Z" fill="#030712"/>
<path d="M572.384 466.272C572.248 465.746 572.241 465.239 572.364 464.749C572.432 464.479 572.516 464.475 572.616 464.735C572.806 465.225 572.825 465.738 572.67 466.272C572.575 466.621 572.48 466.621 572.384 466.272Z" fill="#030712"/>
<path d="M573.188 393.443C573.229 393.673 573.095 393.741 572.786 393.648L562.039 389.244C562.001 389.228 561.959 389.222 561.918 389.228C561.877 389.233 561.838 389.25 561.805 389.276C561.773 389.301 561.748 389.335 561.732 389.374C561.717 389.413 561.713 389.455 561.719 389.496C561.914 390.67 562.173 391.827 562.496 392.966C563.34 395.953 565.812 397.874 567.072 400.709C569.088 405.243 569.535 409.961 568.414 414.862C568.364 415.079 568.393 415.284 568.502 415.478C569.313 416.929 570.321 418.333 570.92 419.79C573.771 426.758 574.643 433.995 573.535 441.501C572.139 450.985 569.585 460.165 562.904 467.351C562.75 467.515 562.773 467.649 562.972 467.755C563.826 468.201 564.709 468.572 565.621 468.868C567.828 469.577 570.314 471.974 568.904 474.293C568.786 474.482 568.625 474.626 568.421 474.723C567.331 475.244 566.371 475.928 565.54 476.776C565.367 476.953 565.158 477.008 564.913 476.942L563.537 476.584C563.288 476.518 563.054 476.551 562.836 476.684L561.576 477.472C561.472 477.537 561.35 477.572 561.224 477.572C561.099 477.572 560.975 477.537 560.868 477.472C560.119 477.015 559.485 476.611 558.552 476.597C556.073 476.558 552.845 476.684 551.013 474.955C550.378 474.354 549.735 473.763 549.086 473.18C548.923 473.034 548.73 472.946 548.507 472.915C545.788 472.531 542.995 472.16 540.131 471.802C531.876 470.76 523.468 471.169 514.905 473.027C514.692 473.076 514.515 473.182 514.374 473.345C513.452 474.458 512.835 475.147 512.522 475.412C510.036 477.518 508.041 477.154 505.241 476.948C503.954 476.849 503.069 477.273 502.007 477.843C501.709 478.003 501.358 478.043 501.031 477.953C500.703 477.864 500.425 477.653 500.256 477.366L499.868 476.703C499.469 476.023 498.987 475.964 498.424 476.525C497.712 477.235 497.128 477.275 496.674 476.644C493.582 472.359 498.418 470.014 501.257 467.901C501.444 467.76 501.464 467.601 501.319 467.424C500.869 466.888 500.25 466.557 499.855 466.06C495.85 461.04 493.766 455.648 492.016 449.224C490.341 443.068 489.709 436.825 490.123 430.493C490.468 425.203 491.734 420.508 493.923 416.406C494.363 415.584 494.549 414.644 494.481 413.584C494.168 408.665 495.121 404.206 497.342 400.205C498.329 398.43 499.616 396.834 500.862 395.165C501.562 394.224 501.988 393.244 502.143 392.224C502.315 391.094 502.417 389.988 502.449 388.906C502.458 388.681 502.352 388.601 502.129 388.668C498.565 389.736 495.078 390.99 491.669 392.43C491.619 392.452 491.58 392.436 491.553 392.383C491.535 392.344 491.546 392.313 491.587 392.291C495.065 390.44 498.722 389.008 502.558 387.992C502.762 387.939 502.903 387.813 502.98 387.615L505.173 381.852C505.255 381.645 505.18 381.532 504.949 381.515C503.31 381.382 501.677 381.314 500.052 381.309C500.038 381.309 500.032 381.316 500.032 381.329C500.032 381.329 500.032 381.331 500.032 381.336C500.036 381.34 500.041 381.342 500.045 381.342C501.548 381.192 503.269 381.011 505.207 380.799C505.434 380.774 505.652 380.7 505.845 380.582C506.037 380.464 506.199 380.305 506.317 380.117L509.137 375.62C509.289 375.379 509.343 375.091 509.289 374.813C509.235 374.535 509.076 374.287 508.844 374.116C504.081 370.571 503.337 366.345 506.61 361.44C509.682 356.836 516.444 355.121 520.599 359.665C520.948 360.044 521.343 360.373 521.784 360.651C521.974 360.771 522.181 360.802 522.403 360.744C530.038 358.751 537.447 358.698 544.918 361.181C545.038 361.221 545.168 361.215 545.283 361.165C545.398 361.114 545.489 361.023 545.538 360.91C546.664 358.34 548.396 357.084 550.734 357.141C554.943 357.24 558.266 361.049 559.24 364.897C560.23 368.778 558.897 371.743 555.243 373.792C554.77 374.052 554.666 374.414 554.929 374.878C556.627 377.867 558.178 380.76 559.581 383.555C559.685 383.762 559.855 383.875 560.092 383.892C564.664 384.193 569.079 385.186 573.338 386.873C573.41 386.899 573.433 386.948 573.406 387.018L573.351 387.177C573.347 387.186 573.337 387.188 573.324 387.184C569.642 386.014 565.628 385.133 561.283 384.541C560.484 384.431 560.219 384.747 560.487 385.488L561.345 387.84C561.431 388.078 561.597 388.242 561.842 388.33C565.783 389.756 569.565 391.46 573.188 393.443ZM547.908 384.27C547.903 384.24 547.905 384.21 547.913 384.181C547.92 384.151 547.934 384.124 547.954 384.101C547.973 384.077 547.997 384.057 548.024 384.043C548.051 384.029 548.081 384.021 548.112 384.018L556.257 383.217C556.3 383.212 556.341 383.198 556.376 383.175C556.412 383.152 556.442 383.121 556.462 383.085C556.483 383.048 556.495 383.008 556.496 382.966C556.497 382.924 556.487 382.883 556.468 382.846L555.488 380.806C555.406 380.634 555.268 380.574 555.072 380.627L546.757 383.045C546.548 383.106 546.457 383.031 546.485 382.819L546.519 382.594C546.523 382.528 546.557 382.486 546.621 382.468L554.616 380.21C555.07 380.082 555.177 379.821 554.936 379.428C553.758 377.501 552.478 375.858 552.505 373.626C552.509 373.401 552.425 373.218 552.253 373.077C552.021 372.887 551.797 372.774 551.579 372.739C551.275 372.693 550.991 372.566 550.76 372.371C550.529 372.177 550.359 371.923 550.271 371.639C549.513 369.233 548.752 366.886 547.99 364.599C547.92 364.393 547.8 364.207 547.638 364.057C547.477 363.907 547.279 363.797 547.063 363.738C538.959 361.473 531.563 360.426 523.296 362.493C522.363 362.725 521.191 362.784 520.497 362.267C518.052 360.459 515.927 358.393 512.563 359.082C512.494 359.095 512.432 359.132 512.39 359.186C512.349 359.24 512.33 359.307 512.338 359.373L512.358 359.545C512.367 359.616 512.41 359.649 512.488 359.645C515.239 359.446 516.705 360.598 516.887 363.102C517.137 366.515 516.117 369.626 513.829 372.434C513.666 372.633 513.45 372.741 513.182 372.759C512.51 372.803 511.87 372.949 511.262 373.196C511.2 373.22 511.143 373.257 511.096 373.303C511.048 373.349 511.011 373.405 510.986 373.465C510.962 373.526 510.95 373.591 510.951 373.656C510.953 373.721 510.968 373.785 510.996 373.845C511.67 375.256 511.698 376.289 510.676 377.64C509.85 378.722 509.044 379.852 508.258 381.031C508.221 381.087 508.198 381.152 508.194 381.22C508.189 381.287 508.203 381.354 508.233 381.415C508.263 381.475 508.309 381.527 508.366 381.566C508.423 381.604 508.489 381.628 508.558 381.634C512.599 381.952 516.717 382.418 520.912 383.031C520.962 383.04 520.985 383.069 520.98 383.117L520.953 383.303C520.951 383.32 520.946 383.337 520.937 383.352C520.929 383.367 520.917 383.38 520.903 383.391C520.889 383.401 520.873 383.409 520.856 383.413C520.838 383.418 520.82 383.418 520.803 383.415C517.589 382.983 514.383 382.614 511.187 382.309C510.279 382.221 509.355 382.053 508.415 381.806C508.197 381.749 508.043 381.821 507.952 382.025C507.067 384.007 506.179 385.99 505.289 387.972C504.431 389.893 504.411 391.728 504.186 393.728C504.119 394.315 503.875 394.868 503.484 395.317C499.18 400.298 496.545 405 496.981 411.855C497.199 415.339 499.739 419.221 501.727 422.062C503.307 424.32 504.588 425.658 507.101 425.758C509.77 425.859 512.44 425.824 515.11 425.652C517.616 425.486 520.047 427.195 522.131 428.361C523.384 429.063 524.297 428.221 525.625 428.844C525.865 428.959 525.983 428.886 525.979 428.625C525.979 428.502 525.924 428.376 525.815 428.248C525.016 427.316 524.387 426.599 523.929 426.095C522.962 425.031 523.193 424.654 524.624 424.963C525.713 425.201 526.762 426.499 528.158 425.473C528.349 425.336 528.365 425.184 528.206 425.016C527.638 424.42 527.032 423.866 526.387 423.353C526.183 423.19 526.056 423.031 526.006 422.877C525.929 422.638 525.961 422.435 526.101 422.267C526.247 422.086 526.431 422.04 526.653 422.128C527.034 422.274 527.434 422.344 527.852 422.34C528.106 422.34 528.188 422.225 528.097 421.996C527.992 421.717 527.808 421.499 527.545 421.34C527.35 421.216 527.139 421.177 526.912 421.221C525.223 421.552 523.577 421.4 521.974 420.764C521.887 420.729 521.811 420.673 521.754 420.601C521.697 420.529 521.66 420.444 521.647 420.353C521.62 420.115 521.765 420.006 522.083 420.029C523.491 420.126 524.757 420.26 525.883 420.433C526.428 420.512 526.49 420.382 526.067 420.042C522.812 417.375 519.518 414.741 516.186 412.14C516.045 412.03 515.979 411.906 515.988 411.769C515.993 411.717 516.01 411.667 516.037 411.622C516.064 411.577 516.101 411.538 516.145 411.507C516.189 411.477 516.239 411.457 516.292 411.447C516.345 411.437 516.399 411.439 516.451 411.451C517.332 411.663 518.176 412.037 518.985 412.571C521.491 414.231 523.981 416.11 526.456 418.207C527.286 418.909 528.02 419.686 528.655 420.539C528.789 420.716 528.867 420.927 528.88 421.148C528.966 422.464 529.316 423.804 529.929 425.168C530.006 425.338 530.043 425.523 530.037 425.708C530.031 425.894 529.983 426.076 529.895 426.241C529.808 426.406 529.684 426.55 529.531 426.663C529.379 426.775 529.203 426.853 529.016 426.89C528.549 426.987 528.058 426.941 527.545 426.751C527.146 426.605 527.071 426.7 527.32 427.036C528.119 428.113 528.108 428.979 527.286 429.632C525.543 431.023 523.52 431.083 521.218 429.811C519.427 428.818 517.241 427.135 515.096 427.228C512.345 427.356 509.984 427.424 508.013 427.433C505.051 427.453 503.532 426.817 501.714 424.724C499.126 421.753 497.36 418.684 496.415 415.518C496.347 415.284 496.265 415.28 496.17 415.505C493.732 421.241 492.404 427.067 492.186 432.984C491.866 441.812 494.365 450.959 498.186 459.139C500.529 464.146 503.26 468.265 508.524 470.173C510.199 470.782 512.195 470.736 514.027 470.776C515.28 470.807 516.655 470.663 518.154 470.345C527.275 468.393 536.417 468.382 545.579 470.312C547.234 470.656 548.739 470.63 550.421 470.709C551.361 470.758 553.538 470.051 556.952 468.59C558.01 468.135 559.079 467.667 560.16 467.186C561.068 466.784 561.767 466.245 562.257 465.57C568.918 456.476 571.928 445.693 571.901 434.706C571.882 429.186 570.377 423.402 567.385 417.353C567.285 417.145 567.201 417.152 567.133 417.373C566.418 419.863 563.932 424.95 560.779 425.155C558.051 425.327 555.308 425.603 552.553 425.983C551.136 426.175 549.985 426.294 548.725 427.155C546.634 428.579 543.372 430.944 541.486 430.295C540.392 429.919 539.341 429.551 538.333 429.188C538.242 429.157 538.159 429.105 538.091 429.038C538.023 428.971 537.971 428.89 537.939 428.801C537.907 428.711 537.896 428.616 537.906 428.522C537.917 428.427 537.948 428.336 537.999 428.255C538.83 426.93 540.056 426.089 541.677 425.731C541.779 425.709 541.887 425.725 541.977 425.775C542.068 425.826 542.136 425.907 542.167 426.003C542.19 426.078 542.199 426.151 542.194 426.221C542.176 426.451 542.058 426.612 541.84 426.705C541.327 426.925 540.948 427.299 540.703 427.824C540.603 428.036 540.664 428.18 540.886 428.255C542.53 428.807 543.922 428.637 545.061 427.745C547.858 425.563 550.696 424.362 553.574 424.142C555.862 423.965 558.153 423.799 560.446 423.645C562.094 423.532 562.434 422.824 563.224 421.611C567.896 414.478 568.55 405.398 563.177 398.53C561.606 396.529 560.725 395.017 560.534 393.993C560.216 392.249 559.756 390.524 559.152 388.82C559.079 388.608 558.932 388.471 558.709 388.409C555.744 387.57 552.389 386.888 548.643 386.363C548.303 386.314 548.028 386.149 547.819 385.866C547.67 385.663 547.722 385.577 547.976 385.608C551.685 386.071 555.22 386.765 558.58 387.687C558.934 387.785 559.038 387.668 558.893 387.336C558.466 386.334 557.942 385.367 557.32 384.435C557.228 384.295 557.101 384.181 556.951 384.102C556.801 384.023 556.632 383.983 556.462 383.985C553.792 384.016 550.97 384.208 547.996 384.561C547.965 384.561 547.946 384.548 547.942 384.521L547.908 384.27ZM553.05 360.102C553.058 360.1 553.066 360.097 553.072 360.093C553.079 360.088 553.084 360.082 553.088 360.075C553.091 360.068 553.093 360.061 553.092 360.054C553.091 360.047 553.088 360.041 553.084 360.035C552.58 359.316 551.84 359.071 550.864 359.3C548.739 359.799 547.695 361.133 547.731 363.301C547.735 363.521 547.81 363.68 547.956 363.778C548.173 363.919 548.31 363.866 548.364 363.619C548.864 361.38 550.425 360.208 553.05 360.102ZM549.61 366.195C550.08 367.738 551.361 371.361 552.77 372.076C554.766 373.096 556.972 370.494 557.49 368.957C558.546 365.831 556.482 362.44 553.867 360.592C553.549 360.371 553.12 360.314 552.58 360.42C549.188 361.108 548.712 363.208 549.61 366.195ZM515.484 362.241C515.339 361.671 515.026 361.278 514.544 361.062C512.088 359.963 510.031 360.413 508.374 362.413C506.772 364.338 506.279 366.445 506.896 368.732C507.904 372.467 512.127 373.381 514.32 370.01C515.836 367.674 516.224 365.085 515.484 362.241ZM561.168 472.08C561.184 471.903 561.251 471.734 561.361 471.592C561.471 471.449 561.62 471.34 561.791 471.276C561.962 471.212 562.148 471.196 562.328 471.229C562.508 471.262 562.674 471.344 562.809 471.464L564.961 473.365C565.089 473.478 565.243 473.558 565.409 473.6C565.575 473.641 565.748 473.643 565.914 473.604C566.259 473.529 566.525 473.387 566.711 473.18C566.776 473.109 566.825 473.025 566.855 472.935C566.885 472.844 566.895 472.749 566.886 472.654C566.876 472.559 566.846 472.467 566.799 472.383C566.751 472.299 566.687 472.225 566.609 472.166C564.925 470.908 563.095 469.857 561.12 469.014C560.927 468.931 560.719 468.887 560.509 468.887C560.298 468.887 560.091 468.931 559.901 469.014C556.991 470.259 554.035 471.076 551.034 471.464C550.793 471.495 550.73 471.615 550.843 471.822C553.029 475.856 556.216 473.584 559.587 474.763C560.427 475.059 561.304 475.167 562.216 475.087C562.852 475.034 562.938 474.796 562.475 474.372C561.54 473.511 561.104 472.747 561.168 472.08ZM503.246 473.027L502.02 474.624C501.18 475.71 501.41 476.001 502.708 475.498C503.993 475.003 505.428 474.853 507.012 475.048C509.334 475.339 511.466 474.809 512.665 472.683C512.704 472.613 512.724 472.534 512.721 472.454C512.718 472.374 512.692 472.296 512.648 472.229C512.603 472.162 512.541 472.107 512.467 472.072C512.393 472.037 512.311 472.021 512.229 472.027C510.819 472.127 509.607 472.153 508.258 471.517C506.669 470.771 505.089 470.018 503.518 469.259C503.314 469.162 503.112 469.171 502.912 469.285C501.024 470.376 499.316 471.758 497.791 473.432C497.75 473.476 497.718 473.529 497.699 473.586C497.68 473.644 497.673 473.704 497.68 473.764C497.686 473.824 497.705 473.882 497.736 473.934C497.767 473.986 497.809 474.032 497.859 474.067C498.286 474.368 498.654 474.432 498.962 474.259C499.108 474.176 499.262 473.95 499.425 473.584C500.088 472.083 501.282 471.637 503.008 472.246C503.085 472.274 503.154 472.319 503.21 472.377C503.266 472.435 503.307 472.505 503.33 472.581C503.354 472.657 503.358 472.737 503.343 472.814C503.329 472.892 503.295 472.965 503.246 473.027ZM499.786 473.994C499.687 474.1 499.628 474.169 499.609 474.2C499.378 474.681 499.498 474.785 499.97 474.511C500.538 474.184 500.935 473.791 501.162 473.332C501.548 472.546 501.36 472.383 500.597 472.842C500.263 473.041 500.147 473.637 499.786 473.994Z" stroke="#030712" stroke-width="2" mask="url(#path-94-inside-1_14109_25000)"/>
<path d="M526.025 371.789C526.693 372.481 527 373.448 526.88 374.477C526.76 375.507 526.222 376.515 525.385 377.28C524.97 377.658 524.495 377.966 523.985 378.185C523.475 378.404 522.942 378.53 522.415 378.555C521.888 378.581 521.378 378.506 520.914 378.334C520.45 378.163 520.041 377.899 519.71 377.556C519.042 376.865 518.735 375.898 518.855 374.868C518.975 373.838 519.513 372.83 520.35 372.065C520.765 371.687 521.24 371.379 521.75 371.16C522.26 370.942 522.793 370.816 523.32 370.79C523.847 370.764 524.357 370.839 524.821 371.011C525.285 371.182 525.694 371.447 526.025 371.789ZM523.65 373.779C523.722 373.727 523.781 373.658 523.823 373.577C523.866 373.497 523.89 373.406 523.896 373.309C523.902 373.213 523.888 373.113 523.856 373.016C523.825 372.919 523.775 372.826 523.711 372.742C523.581 372.573 523.399 372.454 523.204 372.409C523.009 372.365 522.817 372.4 522.671 372.506C522.598 372.559 522.54 372.627 522.497 372.708C522.455 372.789 522.43 372.88 522.425 372.976C522.419 373.072 522.432 373.172 522.464 373.269C522.496 373.367 522.545 373.46 522.61 373.543C522.739 373.712 522.922 373.832 523.117 373.876C523.312 373.92 523.504 373.885 523.65 373.779Z" stroke="#030712" stroke-width="2" mask="url(#path-94-inside-1_14109_25000)"/>
<path d="M546.452 378.881C545.666 379.32 544.687 379.362 543.732 378.997C542.776 378.631 541.921 377.889 541.356 376.932C540.791 375.976 540.561 374.884 540.717 373.897C540.873 372.91 541.402 372.109 542.188 371.669C542.974 371.23 543.952 371.188 544.908 371.553C545.863 371.919 546.718 372.661 547.283 373.618C547.849 374.574 548.079 375.666 547.923 376.653C547.767 377.64 547.238 378.441 546.452 378.881ZM541.884 374.862C541.966 374.907 542.059 374.93 542.158 374.931C542.257 374.932 542.361 374.91 542.463 374.867C542.564 374.823 542.662 374.759 542.751 374.678C542.84 374.596 542.918 374.5 542.98 374.393C543.106 374.178 543.161 373.935 543.133 373.718C543.106 373.502 542.998 373.329 542.833 373.238C542.751 373.193 542.658 373.169 542.559 373.168C542.459 373.167 542.356 373.189 542.254 373.233C542.152 373.276 542.054 373.34 541.965 373.422C541.877 373.503 541.799 373.6 541.737 373.706C541.611 373.922 541.556 374.164 541.583 374.381C541.611 374.598 541.719 374.771 541.884 374.862Z" stroke="#030712" stroke-width="2" mask="url(#path-94-inside-1_14109_25000)"/>
<path d="M534.839 387.879C534.9 389.495 534.594 392.165 536.085 393.184C537.938 394.452 540.094 394.699 542.555 393.926C543.073 393.763 543.211 393.92 542.971 394.397C542.603 395.121 541.881 395.598 540.805 395.827C539.207 396.167 537.368 395.825 535.289 394.801C535.043 394.681 534.816 394.706 534.608 394.873C533.177 396.021 531.305 396.492 528.989 396.284C528.453 396.236 527.89 395.979 527.3 395.516C527.159 395.41 527.048 395.273 526.966 395.105C526.676 394.491 526.873 394.224 527.559 394.304C533.259 394.973 534.88 392.615 534.022 387.932C533.981 387.707 533.854 387.553 533.64 387.469C532.051 386.824 530.905 385.853 530.201 384.554C529.466 383.186 529.588 382.163 530.569 381.488C532.142 380.395 535.37 380.826 537.23 381.243C539.422 381.733 539.477 383.568 538.435 385.104C537.663 386.239 536.61 386.974 535.275 387.31C535.146 387.342 535.032 387.416 534.953 387.519C534.874 387.623 534.833 387.75 534.839 387.879ZM533.606 386.29C535.064 386.767 536.269 386.416 537.223 385.237C537.436 384.972 537.65 384.707 537.863 384.442C538.816 383.267 538.555 382.464 537.08 382.031C535.245 381.497 533.366 381.4 531.441 381.74C531.268 381.77 531.105 381.837 530.962 381.935C530.818 382.033 530.698 382.16 530.61 382.307C530.522 382.454 530.468 382.618 530.452 382.788C530.435 382.958 530.457 383.129 530.515 383.289C531.059 384.799 532.09 385.8 533.606 386.29Z" stroke="#030712" stroke-width="2" mask="url(#path-94-inside-1_14109_25000)"/>
<path d="M506.352 387.502C511.065 386.455 515.848 385.958 520.701 386.011C520.742 386.011 520.763 386.031 520.763 386.071V386.25C520.767 386.427 520.676 386.513 520.49 386.508C515.714 386.455 510.981 386.93 506.291 387.932C506.284 387.933 506.278 387.933 506.272 387.932C506.265 387.931 506.26 387.929 506.254 387.926C506.249 387.923 506.245 387.919 506.242 387.914C506.239 387.91 506.237 387.904 506.236 387.899L506.202 387.733C506.19 387.685 506.199 387.633 506.227 387.589C506.255 387.546 506.3 387.515 506.352 387.502Z" stroke="#030712" stroke-width="2" mask="url(#path-94-inside-1_14109_25000)"/>
<path d="M541.043 419.511L544.469 419.71C544.523 419.715 544.553 419.743 544.557 419.796L544.564 419.975C544.568 420.035 544.549 420.094 544.51 420.142C544.471 420.19 544.415 420.222 544.353 420.233C543.032 420.463 541.717 420.56 540.41 420.525C540.115 420.52 539.865 420.622 539.661 420.829C538.871 421.637 538.233 422.49 537.747 423.386C536.893 424.954 537.202 425.216 538.673 424.174C539.34 423.702 539.881 423.459 540.294 423.446C541.692 423.393 541.81 423.746 540.648 424.505C540.017 424.912 539.372 425.501 538.714 426.274C536.912 428.393 536.022 428.077 536.044 425.327C536.085 419.71 543.386 414.041 547.887 411.458C548.092 411.338 548.267 411.374 548.412 411.564L548.528 411.716C548.556 411.75 548.57 411.793 548.566 411.837C548.562 411.882 548.541 411.923 548.507 411.954L540.825 418.942C540.439 419.295 540.512 419.485 541.043 419.511Z" stroke="#030712" stroke-width="2" mask="url(#path-94-inside-1_14109_25000)"/>
<path d="M533.294 416.823C533.313 416.822 533.332 416.825 533.35 416.831C533.369 416.838 533.385 416.848 533.399 416.861C533.413 416.874 533.424 416.889 533.432 416.907C533.44 416.924 533.443 416.943 533.443 416.962V417.034C533.598 422.424 533.705 427.597 533.741 431.431C533.776 435.265 533.738 437.451 533.634 437.513L533.484 437.52C533.432 437.553 533.365 437.049 533.286 436.036C533.208 435.023 533.12 433.521 533.027 431.618C532.935 429.715 532.84 427.448 532.748 424.95C532.655 422.451 532.568 419.77 532.49 417.061V416.988C532.489 416.97 532.492 416.952 532.498 416.934C532.505 416.917 532.514 416.901 532.527 416.888C532.54 416.874 532.555 416.863 532.572 416.855C532.589 416.848 532.607 416.843 532.626 416.842L533.294 416.823Z" stroke="#030712" stroke-width="2" mask="url(#path-94-inside-1_14109_25000)"/>
<path d="M514 465.563C514.472 465.859 514.971 466.144 515.498 466.417C515.556 466.447 515.605 466.489 515.643 466.541C515.68 466.593 515.704 466.653 515.713 466.716C515.722 466.779 515.715 466.843 515.693 466.903C515.671 466.963 515.634 467.017 515.587 467.06C515.446 467.192 515.237 467.21 514.96 467.113C512.785 466.353 511.094 465.049 509.886 463.198C509.732 462.964 509.771 462.766 510.002 462.602L510.138 462.503C510.191 462.464 510.257 462.446 510.322 462.454C510.387 462.461 510.446 462.493 510.486 462.543C511.48 463.722 512.651 464.728 514 465.563Z" stroke="#030712" stroke-width="2" mask="url(#path-94-inside-1_14109_25000)"/>
<path d="M549.207 465.815C549.169 465.782 549.168 465.709 549.205 465.598C549.241 465.487 549.315 465.341 549.421 465.168C549.528 464.996 549.665 464.8 549.825 464.593C549.984 464.385 550.164 464.169 550.353 463.958C550.542 463.746 550.737 463.543 550.926 463.361C551.115 463.178 551.295 463.019 551.456 462.892C551.617 462.766 551.755 462.674 551.863 462.624C551.971 462.573 552.046 462.563 552.085 462.596C552.123 462.628 552.124 462.702 552.087 462.813C552.051 462.924 551.977 463.07 551.87 463.242C551.764 463.415 551.627 463.611 551.467 463.818C551.307 464.026 551.128 464.242 550.939 464.453C550.75 464.664 550.555 464.867 550.366 465.05C550.177 465.233 549.997 465.392 549.836 465.519C549.675 465.645 549.537 465.736 549.429 465.787C549.321 465.838 549.246 465.848 549.207 465.815Z" stroke="#030712" stroke-width="2" mask="url(#path-94-inside-1_14109_25000)"/>
<path d="M572.384 466.272C572.248 465.746 572.241 465.239 572.364 464.749C572.432 464.479 572.516 464.475 572.616 464.735C572.806 465.225 572.825 465.738 572.67 466.272C572.575 466.621 572.48 466.621 572.384 466.272Z" stroke="#030712" stroke-width="2" mask="url(#path-94-inside-1_14109_25000)"/>
<g filter="url(#filter0_f_14109_25000)">
<ellipse cx="514" cy="386.5" rx="7" ry="3.5" fill="#FFC0C0"/>
</g>
<g filter="url(#filter1_f_14109_25000)">
<ellipse cx="551" cy="386.5" rx="7" ry="3.5" fill="#FFC0C0"/>
</g>
<defs>
<filter id="filter0_f_14109_25000" x="505" y="381" width="18" height="11" filterUnits="userSpaceOnUse" color-interpolation-filters="sRGB">
<feFlood flood-opacity="0" result="BackgroundImageFix"/>
<feBlend mode="normal" in="SourceGraphic" in2="BackgroundImageFix" result="shape"/>
<feGaussianBlur stdDeviation="1" result="effect1_foregroundBlur_14109_25000"/>
</filter>
<filter id="filter1_f_14109_25000" x="542" y="381" width="18" height="11" filterUnits="userSpaceOnUse" color-interpolation-filters="sRGB">
<feFlood flood-opacity="0" result="BackgroundImageFix"/>
<feBlend mode="normal" in="SourceGraphic" in2="BackgroundImageFix" result="shape"/>
<feGaussianBlur stdDeviation="1" result="effect1_foregroundBlur_14109_25000"/>
</filter>
<clipPath id="clip0_14109_25000">
<rect width="46" height="46" fill="white" transform="translate(14 281)"/>
</clipPath>
<clipPath id="clip1_14109_25000">
<rect width="32.4835" height="33.5574" fill="white" transform="translate(24.3037 287.41)"/>
</clipPath>
<clipPath id="clip2_14109_25000">
<rect width="32.4835" height="33.5574" fill="white" transform="matrix(-1 0 0 1 50.5312 287.41)"/>
</clipPath>
</defs>
</svg>
