<svg width="375" height="667" viewBox="0 0 375 667" fill="none" xmlns="http://www.w3.org/2000/svg">
<g clip-path="url(#clip0_523_14933)">
<rect width="375" height="667" rx="20" fill="#F9FAFB"/>
<g clip-path="url(#clip1_523_14933)">
<mask id="path-2-inside-1_523_14933" fill="white">
<path d="M0 0H375V56H0V0Z"/>
</mask>
<path d="M0 0H375V56H0V0Z" fill="#34B17B"/>
<g clip-path="url(#clip2_523_14933)">
<path d="M20.3735 28.5077C20.3735 28.0786 20.4539 27.7747 20.6149 27.5959C20.7758 27.4171 21.0708 27.3277 21.4999 27.3277H28.151C28.4013 27.3277 28.6025 27.3903 28.7545 27.5154C28.9154 27.6406 28.9958 27.8283 28.9958 28.0786C28.9958 28.3289 28.9198 28.5167 28.7679 28.6418C28.6159 28.767 28.4103 28.8296 28.151 28.8296H22.5995C22.5101 28.8296 22.4654 28.8787 22.4654 28.9771V29.433H28.084C28.3432 29.433 28.5488 29.4911 28.7008 29.6073C28.8528 29.7235 28.9288 29.9113 28.9288 30.1705C28.9288 30.4298 28.8528 30.6175 28.7008 30.7337C28.5488 30.8499 28.3432 30.908 28.084 30.908H22.452V31.4444C22.452 31.5338 22.4967 31.5785 22.5861 31.5785H28.3254C28.5846 31.5785 28.7902 31.6411 28.9422 31.7663C29.0942 31.8914 29.1702 32.0836 29.1702 32.3429C29.1702 32.6021 29.0942 32.7898 28.9422 32.9061C28.7902 33.0312 28.5846 33.0938 28.3254 33.0938H21.4999C21.0708 33.0938 20.7758 33.0044 20.6149 32.8256C20.4539 32.6468 20.3735 32.3429 20.3735 31.9138V28.5077ZM25.3082 22.6612C25.3082 23.2422 25.1696 23.7742 24.8925 24.2569C24.6243 24.7396 24.2533 25.1688 23.7795 25.5442C23.3057 25.9197 22.7515 26.246 22.1167 26.5231C21.482 26.7913 20.8071 27.0059 20.0919 27.1668C19.8237 27.2294 19.5779 27.2159 19.3544 27.1265C19.1309 27.0372 18.9834 26.8539 18.9118 26.5768C18.8314 26.2996 18.8537 26.0672 18.9789 25.8795C19.1041 25.6828 19.3052 25.5487 19.5823 25.4772C20.0114 25.3699 20.445 25.2403 20.8831 25.0883C21.3211 24.9363 21.7144 24.762 22.0631 24.5653C22.4207 24.3597 22.7112 24.1228 22.9347 23.8546C23.1582 23.5864 23.27 23.278 23.27 22.9294V22.7819C23.27 22.6835 23.2521 22.6165 23.2163 22.5807C23.1895 22.536 23.1269 22.5137 23.0286 22.5137H19.998C19.712 22.5137 19.484 22.4511 19.3141 22.3259C19.1532 22.1918 19.0728 21.9818 19.0728 21.6957C19.0728 21.4096 19.1532 21.1995 19.3141 21.0654C19.484 20.9313 19.712 20.8643 19.998 20.8643H24.1148C24.526 20.8643 24.8255 20.9582 25.0132 21.1459C25.2099 21.3247 25.3082 21.5795 25.3082 21.9102V22.6612ZM26.8503 21.6152C26.8503 21.3023 26.9486 21.0654 27.1453 20.9045C27.3509 20.7347 27.6102 20.6497 27.9231 20.6497C28.236 20.6497 28.4907 20.7347 28.6874 20.9045C28.893 21.0654 28.9958 21.3023 28.9958 21.6152V22.7282H29.9211C30.2072 22.7282 30.4396 22.7997 30.6184 22.9428C30.7972 23.0858 30.8866 23.3093 30.8866 23.6132C30.8866 23.9172 30.7972 24.1407 30.6184 24.2837C30.4396 24.4268 30.2072 24.4983 29.9211 24.4983H28.9958V25.8526C28.9958 26.1655 28.893 26.4069 28.6874 26.5768C28.4907 26.7466 28.236 26.8315 27.9231 26.8315C27.6102 26.8315 27.3509 26.7466 27.1453 26.5768C26.9486 26.4069 26.8503 26.1655 26.8503 25.8526V21.6152ZM40.2964 21.642C40.2964 21.3202 40.3948 21.0744 40.5914 20.9045C40.797 20.7347 41.0563 20.6497 41.3692 20.6497C41.691 20.6497 41.9503 20.7347 42.1469 20.9045C42.3436 21.0744 42.4419 21.3202 42.4419 21.642V32.1015C42.4419 32.4233 42.3436 32.6692 42.1469 32.839C41.9503 33.0089 41.691 33.0938 41.3692 33.0938C41.0563 33.0938 40.797 33.0089 40.5914 32.839C40.3948 32.6692 40.2964 32.4233 40.2964 32.1015V21.642ZM38.7141 25.5576C38.7141 26.2281 38.6426 26.836 38.4995 27.3813C38.3565 27.9177 38.142 28.3781 37.8559 28.7625C37.5698 29.1469 37.2033 29.4464 36.7563 29.661C36.3183 29.8666 35.8042 29.9694 35.2142 29.9694C34.6242 29.9694 34.1057 29.8666 33.6587 29.661C33.2206 29.4464 32.8586 29.1469 32.5725 28.7625C32.2864 28.3781 32.0719 27.9177 31.9289 27.3813C31.7858 26.836 31.7143 26.2281 31.7143 25.5576C31.7143 24.8872 31.7858 24.2837 31.9289 23.7473C32.0719 23.202 32.2864 22.7372 32.5725 22.3527C32.8586 21.9683 33.2206 21.6733 33.6587 21.4677C34.1057 21.2532 34.6242 21.1459 35.2142 21.1459C35.8042 21.1459 36.3183 21.2532 36.7563 21.4677C37.2033 21.6733 37.5698 21.9683 37.8559 22.3527C38.142 22.7372 38.3565 23.202 38.4995 23.7473C38.6426 24.2837 38.7141 24.8872 38.7141 25.5576ZM35.2142 28.1725C35.4824 28.1725 35.7059 28.1054 35.8847 27.9714C36.0635 27.8283 36.2065 27.6406 36.3138 27.4081C36.43 27.1757 36.5105 26.9031 36.5552 26.5902C36.5999 26.2683 36.6222 25.9242 36.6222 25.5576C36.6222 25.2 36.5999 24.8603 36.5552 24.5385C36.5105 24.2167 36.43 23.9395 36.3138 23.7071C36.2065 23.4747 36.0635 23.2914 35.8847 23.1573C35.7059 23.0143 35.4824 22.9428 35.2142 22.9428C34.946 22.9428 34.7225 23.0143 34.5437 23.1573C34.3649 23.2914 34.2174 23.4747 34.1012 23.7071C33.9939 23.9395 33.9179 24.2167 33.8732 24.5385C33.8285 24.8603 33.8062 25.2 33.8062 25.5576C33.8062 25.9242 33.8285 26.2683 33.8732 26.5902C33.9179 26.9031 33.9939 27.1757 34.1012 27.4081C34.2174 27.6406 34.3649 27.8283 34.5437 27.9714C34.7225 28.1054 34.946 28.1725 35.2142 28.1725ZM47.0811 28.8296C46.8129 28.8296 46.6073 28.7715 46.4643 28.6552C46.3213 28.539 46.2497 28.3468 46.2497 28.0786C46.2497 27.8104 46.3213 27.6182 46.4643 27.502C46.6073 27.3858 46.8129 27.3277 47.0811 27.3277H53.7725C53.987 27.3277 54.1658 27.3456 54.3089 27.3813C54.4519 27.4081 54.5637 27.4618 54.6441 27.5422C54.7335 27.6227 54.7916 27.7344 54.8184 27.8775C54.8542 28.0116 54.8721 28.1859 54.8721 28.4005V29.7548C54.8721 30.1929 54.7871 30.4923 54.6173 30.6533C54.4564 30.8052 54.1569 30.8812 53.7189 30.8812H48.355C48.2925 30.8812 48.2612 30.9125 48.2612 30.9751V31.4981C48.2612 31.5517 48.2925 31.5785 48.355 31.5785H54.2955C54.5637 31.5785 54.7693 31.6366 54.9123 31.7528C55.0643 31.878 55.1403 32.0747 55.1403 32.3429C55.1403 32.6111 55.0643 32.8033 54.9123 32.9195C54.7693 33.0357 54.5637 33.0938 54.2955 33.0938H47.3895C46.9515 33.0938 46.652 33.0133 46.4911 32.8524C46.3302 32.7005 46.2497 32.4054 46.2497 31.9674V30.5192C46.2497 30.0811 46.3257 29.7861 46.4777 29.6341C46.6386 29.4822 46.9381 29.4062 47.3761 29.4062H52.7534C52.8249 29.4062 52.8606 29.3749 52.8606 29.3123V28.9234C52.8606 28.8609 52.8249 28.8296 52.7534 28.8296H47.0811ZM51.1576 26.1208C50.5855 26.2281 49.991 26.3041 49.3742 26.3488C48.7663 26.3846 48.1762 26.4024 47.6041 26.4024H46.2766C45.3915 26.4024 44.949 25.9644 44.949 25.0883V22.1784C44.949 21.3023 45.3915 20.8643 46.2766 20.8643H50.3531C50.6212 20.8643 50.8358 20.9358 50.9967 21.0788C51.1666 21.2219 51.2515 21.4275 51.2515 21.6957C51.2515 21.9639 51.1666 22.1695 50.9967 22.3125C50.8358 22.4556 50.6212 22.5271 50.3531 22.5271H47.175C47.1035 22.5271 47.0588 22.5405 47.0409 22.5673C47.023 22.5852 47.0141 22.6299 47.0141 22.7014V24.5519C47.0141 24.6771 47.0722 24.7396 47.1884 24.7396H47.7516C48.2969 24.7396 48.8512 24.7173 49.4144 24.6726C49.9865 24.619 50.4872 24.5564 50.9163 24.4849C51.1576 24.4402 51.3722 24.4625 51.5599 24.5519C51.7566 24.6324 51.8773 24.8067 51.922 25.0749C51.9756 25.352 51.9264 25.5844 51.7745 25.7722C51.6225 25.9599 51.4169 26.0761 51.1576 26.1208ZM52.7265 21.6152C52.7265 21.3023 52.8249 21.0654 53.0216 20.9045C53.2272 20.7347 53.4864 20.6497 53.7993 20.6497C54.1122 20.6497 54.367 20.7347 54.5637 20.9045C54.7693 21.0654 54.8721 21.3023 54.8721 21.6152V22.7282H55.7973C56.0834 22.7282 56.3158 22.7997 56.4946 22.9428C56.6734 23.0858 56.7628 23.3093 56.7628 23.6132C56.7628 23.9172 56.6734 24.1407 56.4946 24.2837C56.3158 24.4268 56.0834 24.4983 55.7973 24.4983H54.8721V25.8526C54.8721 26.1655 54.7693 26.4069 54.5637 26.5768C54.367 26.7466 54.1122 26.8315 53.7993 26.8315C53.4864 26.8315 53.2272 26.7466 53.0216 26.5768C52.8249 26.4069 52.7265 26.1655 52.7265 25.8526V21.6152ZM60.9563 33.0133C60.5183 33.0133 60.2054 32.9239 60.0177 32.7452C59.8299 32.5664 59.7361 32.2579 59.7361 31.8199V29.4196C59.7361 28.9815 59.8299 28.6776 60.0177 28.5077C60.2054 28.3289 60.5183 28.2395 60.9563 28.2395H67.3527C67.7907 28.2395 68.0992 28.3289 68.278 28.5077C68.4657 28.6776 68.5596 28.9815 68.5596 29.4196V31.8199C68.5596 32.2579 68.4657 32.5664 68.278 32.7452C68.0992 32.9239 67.7907 33.0133 67.3527 33.0133H60.9563ZM62.8203 27.2472C62.3643 27.3188 61.9308 27.3769 61.5195 27.4216C61.1083 27.4573 60.6479 27.4752 60.1384 27.4752H59.374C58.9181 27.4752 58.5873 27.3769 58.3817 27.1802C58.1761 26.9746 58.0733 26.6527 58.0733 26.2147V24.6592C58.0733 24.2211 58.1761 23.8993 58.3817 23.6937C58.5873 23.4881 58.9181 23.3853 59.374 23.3853H61.01C61.1262 23.3853 61.1843 23.3272 61.1843 23.211V22.6478C61.1843 22.5762 61.1709 22.5315 61.1441 22.5137C61.1262 22.4958 61.0815 22.4868 61.01 22.4868H59.0656C58.7974 22.4868 58.5739 22.4198 58.3951 22.2857C58.2253 22.1516 58.1403 21.9549 58.1403 21.6957C58.1403 21.4275 58.2253 21.2263 58.3951 21.0922C58.5739 20.9582 58.7974 20.8911 59.0656 20.8911H61.8146C62.2794 20.8911 62.6102 20.9894 62.8069 21.1861C63.0125 21.3828 63.1153 21.7091 63.1153 22.165V23.6401C63.1153 24.096 63.0125 24.4268 62.8069 24.6324C62.6102 24.829 62.2794 24.9274 61.8146 24.9274H60.1652C60.0937 24.9274 60.049 24.9363 60.0311 24.9542C60.0132 24.9721 60.0043 25.0168 60.0043 25.0883V25.7588C60.0043 25.8303 60.0132 25.875 60.0311 25.8929C60.049 25.9107 60.0937 25.9197 60.1652 25.9197H60.4066C60.7731 25.9197 61.1262 25.9018 61.4659 25.8661C61.8146 25.8303 62.1766 25.7901 62.5521 25.7454C62.8113 25.7185 63.0393 25.7409 63.236 25.8124C63.4326 25.875 63.5533 26.0404 63.598 26.3086C63.6427 26.5768 63.5891 26.7913 63.4371 26.9522C63.2851 27.1042 63.0795 27.2025 62.8203 27.2472ZM64.0137 21.6823C64.0137 21.3962 64.0942 21.1772 64.2551 21.0252C64.4249 20.8643 64.6529 20.7838 64.939 20.7838C65.2251 20.7838 65.4485 20.8643 65.6095 21.0252C65.7793 21.1772 65.8642 21.3962 65.8642 21.6823V23.2512H66.6956V21.5616C66.6956 21.2755 66.7806 21.052 66.9504 20.8911C67.1203 20.7302 67.3482 20.6497 67.6343 20.6497C67.9204 20.6497 68.1439 20.7302 68.3048 20.8911C68.4746 21.052 68.5596 21.2755 68.5596 21.5616V26.6706C68.5596 26.9567 68.4746 27.1802 68.3048 27.3411C68.1439 27.4931 67.9204 27.5691 67.6343 27.5691C67.3482 27.5691 67.1203 27.4931 66.9504 27.3411C66.7806 27.1802 66.6956 26.9567 66.6956 26.6706V24.8335H65.8642V26.6438C65.8642 26.9299 65.7838 27.1534 65.6229 27.3143C65.462 27.4663 65.234 27.5422 64.939 27.5422C64.6529 27.5422 64.4249 27.4663 64.2551 27.3143C64.0942 27.1534 64.0137 26.9299 64.0137 26.6438V21.6823ZM62.0157 29.8487C61.9263 29.8487 61.8816 29.8934 61.8816 29.9828V31.2701C61.8816 31.3595 61.9263 31.4042 62.0157 31.4042H66.2799C66.3693 31.4042 66.414 31.3595 66.414 31.2701V29.9828C66.414 29.8934 66.3693 29.8487 66.2799 29.8487H62.0157Z" fill="white"/>
</g>
<path d="M95.7031 31.4688V32.7129H84.4102V31.4688H89.2773V28.7754H85.6543V22.8145H94.4043V28.7754H90.7812V31.4688H95.7031ZM87.1445 24.0312V27.5859H92.9004V24.0312H87.1445ZM106.805 21.8711V28.8711H105.273V21.8711H106.805ZM106.805 29.4727V34.0664H98.6016V29.4727H106.805ZM100.105 30.6758V32.8359H105.314V30.6758H100.105ZM100.064 22.459C101.965 22.459 103.387 23.6621 103.387 25.4121C103.387 27.1074 101.965 28.3379 100.064 28.3379C98.1504 28.3379 96.7285 27.1074 96.7285 25.4121C96.7285 23.6621 98.1504 22.459 100.064 22.459ZM100.064 23.7441C98.9844 23.7441 98.2051 24.3867 98.2188 25.4121C98.2051 26.4102 98.9844 27.0527 100.064 27.0527C101.131 27.0527 101.896 26.4102 101.896 25.4121C101.896 24.3867 101.131 23.7441 100.064 23.7441ZM116.375 24.3867C116.375 25.7129 117.373 27.0117 119.314 27.5312L118.631 28.6934C117.195 28.3174 116.184 27.4971 115.637 26.4375C115.083 27.5996 114.044 28.502 112.588 28.9258L111.863 27.7227C113.818 27.2031 114.857 25.8359 114.857 24.3867V24.3457H112.273V23.1426H114.857V21.8027H116.389V23.1426H118.959V24.3457H116.375V24.3867ZM121.68 21.8574V24.7285H123.402V25.9863H121.68V28.9395H120.162V21.8574H121.68ZM121.857 29.5137V30.7305H118.59C118.877 31.7559 120.265 32.7129 122.377 33.0137L121.83 34.1758C119.896 33.9023 118.433 33.0752 117.715 31.9473C117.004 33.0684 115.555 33.875 113.641 34.1484L113.08 33C115.199 32.7061 116.573 31.7832 116.867 30.7305H113.586V29.5137H121.857ZM134.354 21.8574V34.2168H132.822V21.8574H134.354ZM130.662 23.1699C130.662 26.8477 129.24 29.9785 124.906 32.0293L124.113 30.8125C127.347 29.2744 128.851 27.1826 129.117 24.373H124.742V23.1699H130.662Z" fill="#F1FAF6"/>
<path d="M151.527 23.9766C151.527 24.9541 151.76 26.2119 152.594 27.1074C153.407 26.2256 153.619 24.9814 153.633 23.9766V23.8672H152.854V22.6504H156.408V23.8672H155.082V23.9766C155.082 25.3027 155.561 26.8477 156.969 27.5586L156.176 28.666C155.253 28.1738 154.686 27.3604 154.371 26.4102C154.063 27.3877 153.53 28.2695 152.594 28.8027C151.671 28.2764 151.131 27.4014 150.83 26.4512C150.502 27.3877 149.935 28.1943 149.025 28.666L148.219 27.5586C149.613 26.8203 150.119 25.2891 150.119 23.9766V23.8672H148.684V22.6504H152.32V23.8672H151.527V23.9766ZM158.91 21.8574V29.0625H157.393V21.8574H158.91ZM158.91 29.6777V34.0664H150.461V29.6777H158.91ZM151.965 30.8672V32.8359H157.434V30.8672H151.965ZM170.258 21.8711V25.7539H171.98V27.0117H170.258V31.0996H168.74V21.8711H170.258ZM167.852 23.2383V24.4551H160.523V23.2383H163.436V21.8574H164.953V23.2383H167.852ZM164.188 24.9609C165.965 24.9609 167.195 25.9043 167.209 27.3262C167.195 28.7344 165.965 29.6641 164.188 29.6641C162.396 29.6641 161.152 28.7344 161.152 27.3262C161.152 25.9043 162.396 24.9609 164.188 24.9609ZM164.188 26.1367C163.244 26.1367 162.629 26.5742 162.629 27.3262C162.629 28.0645 163.244 28.502 164.188 28.4883C165.131 28.502 165.76 28.0645 165.76 27.3262C165.76 26.5742 165.131 26.1367 164.188 26.1367ZM170.75 32.7402V33.9707H162.342V30.375H163.859V32.7402H170.75ZM187.225 31.4688V32.7129H175.932V31.4688H180.799V28.7754H177.176V22.8145H185.926V28.7754H182.303V31.4688H187.225ZM178.666 24.0312V27.5859H184.422V24.0312H178.666ZM198.326 21.8711V28.8711H196.795V21.8711H198.326ZM198.326 29.4727V34.0664H190.123V29.4727H198.326ZM191.627 30.6758V32.8359H196.836V30.6758H191.627ZM191.586 22.459C193.486 22.459 194.908 23.6621 194.908 25.4121C194.908 27.1074 193.486 28.3379 191.586 28.3379C189.672 28.3379 188.25 27.1074 188.25 25.4121C188.25 23.6621 189.672 22.459 191.586 22.459ZM191.586 23.7441C190.506 23.7441 189.727 24.3867 189.74 25.4121C189.727 26.4102 190.506 27.0527 191.586 27.0527C192.652 27.0527 193.418 26.4102 193.418 25.4121C193.418 24.3867 192.652 23.7441 191.586 23.7441Z" fill="#F1FAF6"/>
<path d="M223.703 31.4688V32.7129H212.41V31.4688H217.277V28.7754H213.654V22.8145H222.404V28.7754H218.781V31.4688H223.703ZM215.145 24.0312V27.5859H220.9V24.0312H215.145ZM235.789 28.0098V29.2266H224.51V28.0098H235.789ZM234.531 25.6582V26.8887H225.891V22.3496H234.422V23.5527H227.408V25.6582H234.531ZM234.613 32.7266V33.957H225.904V30.3066H227.395V32.7266H234.613ZM250.227 21.8574V34.2305H248.723V21.8574H250.227ZM246.426 22.9375V27.5723H242.174V30.0605C244.122 30.0469 245.804 29.9512 247.725 29.623L247.861 30.8672C245.756 31.2363 243.91 31.3047 241.695 31.3047H240.615V26.3691H244.881V24.168H240.602V22.9375H246.426ZM263.311 28.9258V30.1562H260.658V34.2168H259.141V30.1562H256.215V34.2168H254.656V30.1562H252.018V28.9258H263.311ZM254.889 22.3359V23.8125H260.412V22.3359H261.943V27.668H253.385V22.3359H254.889ZM254.889 26.4512H260.412V25.002H254.889V26.4512Z" fill="#F1FAF6"/>
<g clip-path="url(#clip3_523_14933)">
<circle cx="339" cy="28" r="19.5" fill="#F9FAFB" stroke="#9CA3AF"/>
<circle cx="339" cy="28" r="19" stroke="#E5E7EB" stroke-width="2"/>
<path fill-rule="evenodd" clip-rule="evenodd" d="M350.462 32.9949C348.534 37.4124 344.127 40.5 339 40.5C333.556 40.5 328.926 37.0209 327.21 32.1651C324.966 32.1003 323.166 30.2604 323.166 28.0002C323.166 25.74 324.966 23.9001 327.21 23.8353C328.926 18.9793 333.556 15.5 339 15.5C344.755 15.5 349.602 19.39 351.055 24.6844C353.174 24.8805 354.833 26.6631 354.833 28.8332C354.833 31.1344 352.967 32.9998 350.666 32.9998C350.598 32.9998 350.529 32.9982 350.462 32.9949Z" fill="#E5E7EB"/>
<path fill-rule="evenodd" clip-rule="evenodd" d="M337.833 26.0017C337.439 25.2112 336.585 24.667 335.577 24.667C335.136 24.667 334.454 24.9623 334.173 25.4423C334.133 25.5531 333.972 25.5531 333.932 25.4423C333.611 24.9993 332.969 24.7039 332.488 24.7039C331.164 24.7039 330.04 25.7007 330 26.9191V26.9929C330 27.6205 330.281 28.2112 330.762 28.6543V28.6912C330.802 28.7281 332.728 30.2787 333.611 30.9802C333.852 31.1648 334.213 31.1648 334.454 30.9802C334.824 30.6855 335.372 30.2411 335.889 29.8219L335.889 29.8218C336.602 29.2431 337.256 28.7126 337.302 28.6912V28.6543C337.728 28.2951 337.997 27.7917 338.053 27.2204C338.331 27.1863 338.645 27.1671 339 27.1671C339.539 27.1671 339.985 27.2115 340.351 27.2851C340.351 27.2973 340.35 27.3096 340.35 27.322V27.3958C340.35 28.0234 340.631 28.6141 341.112 29.0571V29.0941C341.152 29.131 343.078 30.6816 343.961 31.3831C344.202 31.5676 344.563 31.5676 344.803 31.3831C345.174 31.0884 345.722 30.6439 346.238 30.2247C346.952 29.646 347.605 29.1155 347.652 29.0941V29.0571C348.133 28.651 348.414 28.0603 348.414 27.3958V27.322C348.374 26.0667 347.291 25.0699 345.927 25.0699C345.485 25.0699 344.803 25.3652 344.522 25.8452C344.482 25.9559 344.322 25.9559 344.282 25.8452C343.961 25.4022 343.319 25.1068 342.837 25.1068C341.985 25.1068 341.216 25.52 340.765 26.1396C340.336 26.0057 339.761 25.9171 339 25.9171C338.548 25.9171 338.162 25.9483 337.833 26.0017Z" fill="#6B7280"/>
<path d="M336.916 31.75C337.055 32.0278 337.666 32.5833 338.999 32.5833C340.333 32.5833 340.944 32.0278 341.083 31.75" stroke="#6B7280" stroke-width="1.25" stroke-linecap="round" stroke-linejoin="round"/>
<path d="M336.995 17.2973C336.557 17.6399 335.87 19.0201 336.249 19.9911C336.627 20.9621 337.22 21.2026 337.52 21.28" stroke="#6B7280" stroke-width="0.993658" stroke-linecap="round"/>
<path d="M339.65 17.9818C339.212 18.2803 338.897 19.5641 339.317 20.4612C339.629 21.1288 340.427 21.3879 340.681 21.4532" stroke="#6B7280" stroke-width="0.993658" stroke-linecap="round"/>
<path d="M341.858 18.4377C341.649 18.7126 341.802 19.505 342.163 20.0414C342.376 20.3586 343.02 20.8217 343.191 20.8099" stroke="#6B7280" stroke-width="0.991667" stroke-linecap="round"/>
</g>
</g>
<path d="M375 54H0V58H375V54Z" fill="#111827" mask="url(#path-2-inside-1_523_14933)"/>
<path d="M24.6133 87.2207V97.627H17.0898V87.2207H24.6133ZM19.0059 88.75V96.0625H22.6621V88.75H19.0059ZM28.9727 85.6738V91.7734H31.416V93.4258H28.9727V101.564H27.0215V85.6738H28.9727ZM45.3027 85.6738V101.582H43.334V85.6738H45.3027ZM36.7422 86.834C39.1328 86.834 40.873 89.0137 40.8906 92.4414C40.873 95.9043 39.1328 98.0664 36.7422 98.0664C34.334 98.0664 32.5938 95.9043 32.5938 92.4414C32.5938 89.0137 34.334 86.834 36.7422 86.834ZM36.7422 88.5918C35.3887 88.5918 34.4746 90.0156 34.4746 92.4414C34.4746 94.8848 35.3887 96.3086 36.7422 96.3086C38.0781 96.3086 38.9922 94.8848 38.9922 92.4414C38.9922 90.0156 38.0781 88.5918 36.7422 88.5918ZM65.7109 85.6738V101.564H63.8477V85.6738H65.7109ZM62.5469 86.0078V100.773H60.6836V93.2852H58.9258V91.5449H60.6836V86.0078H62.5469ZM59.3301 87.5547V89.1367H58.2051V95.9922C58.7061 95.9482 59.1807 95.8955 59.6289 95.834L59.752 97.2578C57.2559 97.7676 53.9863 97.8203 51.9648 97.8203L51.7363 96.2031L53.1777 96.1855V89.1367H52.0527V87.5547H59.3301ZM54.9355 96.1504L56.4121 96.0977V89.1367H54.9355V96.1504ZM80.6875 85.6738V101.582H78.7188V85.6738H80.6875ZM72.127 86.834C74.5176 86.834 76.2578 89.0137 76.2754 92.4414C76.2578 95.9043 74.5176 98.0664 72.127 98.0664C69.7188 98.0664 67.9785 95.9043 67.9785 92.4414C67.9785 89.0137 69.7188 86.834 72.127 86.834ZM72.127 88.5918C70.7734 88.5918 69.8594 90.0156 69.8594 92.4414C69.8594 94.8848 70.7734 96.3086 72.127 96.3086C73.4629 96.3086 74.377 94.8848 74.377 92.4414C74.377 90.0156 73.4629 88.5918 72.127 88.5918ZM89.0195 90.1914C89.0195 92.793 90.5488 95.5352 93.1152 96.6074L92.043 98.1543C90.1621 97.3457 88.791 95.6758 88.0703 93.6543C87.332 95.834 85.9434 97.6621 84.0801 98.541L82.9551 97.0117C85.4688 95.8516 87.0332 92.8984 87.0332 90.1914V88.8555H83.5352V87.2383H92.5V88.8555H89.0195V90.1914ZM96.2441 85.6738V101.564H94.2754V85.6738H96.2441Z" fill="#111827"/>
<mask id="path-17-inside-2_523_14933" fill="white">
<path d="M16 132H359V1014H16V132Z"/>
</mask>
<path d="M16 132H359V1014H16V132Z" fill="white"/>
<path d="M16 134H359V130H16V134Z" fill="#111827" mask="url(#path-17-inside-2_523_14933)"/>
<path d="M47.3281 167.809V169.408H44.9727V177.529H43.0215V161.674H44.9727V167.809H47.3281ZM35.0234 163.221V171.992C37.1416 171.957 39.4004 171.772 41.791 171.271L42.002 172.924C39.3301 173.451 36.7812 173.609 34.4258 173.609H33.0898V163.221H35.0234ZM53.2344 162.781C55.748 162.764 57.5938 164.363 57.6113 166.613C57.5938 168.881 55.748 170.463 53.2344 170.463C50.7383 170.463 48.875 168.881 48.875 166.613C48.875 164.363 50.7383 162.764 53.2344 162.781ZM53.2344 164.469C51.8457 164.469 50.8086 165.295 50.8086 166.613C50.8086 167.949 51.8457 168.758 53.2344 168.758C54.6406 168.758 55.6953 167.949 55.6953 166.613C55.6953 165.295 54.6406 164.469 53.2344 164.469ZM61.3203 161.674V177.582H59.3691V161.674H61.3203ZM48.1543 172.66C51.0195 172.66 54.9922 172.625 58.4199 172.133L58.5781 173.557C55.0098 174.242 51.1953 174.26 48.4004 174.26L48.1543 172.66ZM82.4316 174.031V175.631H67.9121V174.031H74.1699V170.568H69.5117V162.904H80.7617V170.568H76.1035V174.031H82.4316ZM71.4277 164.469V169.039H78.8281V164.469H71.4277ZM96.7051 161.691V170.691H94.7363V161.691H96.7051ZM96.7051 171.465V177.371H86.1582V171.465H96.7051ZM88.0918 173.012V175.789H94.7891V173.012H88.0918ZM88.0391 162.447C90.4824 162.447 92.3105 163.994 92.3105 166.244C92.3105 168.424 90.4824 170.006 88.0391 170.006C85.5781 170.006 83.75 168.424 83.75 166.244C83.75 163.994 85.5781 162.447 88.0391 162.447ZM88.0391 164.1C86.6504 164.1 85.6484 164.926 85.666 166.244C85.6484 167.527 86.6504 168.354 88.0391 168.354C89.4102 168.354 90.3945 167.527 90.3945 166.244C90.3945 164.926 89.4102 164.1 88.0391 164.1Z" fill="#9CA3AF"/>
<path d="M126.328 167.809V169.408H123.973V177.529H122.021V161.674H123.973V167.809H126.328ZM114.023 163.221V171.992C116.142 171.957 118.4 171.772 120.791 171.271L121.002 172.924C118.33 173.451 115.781 173.609 113.426 173.609H112.09V163.221H114.023ZM132.234 162.781C134.748 162.764 136.594 164.363 136.611 166.613C136.594 168.881 134.748 170.463 132.234 170.463C129.738 170.463 127.875 168.881 127.875 166.613C127.875 164.363 129.738 162.764 132.234 162.781ZM132.234 164.469C130.846 164.469 129.809 165.295 129.809 166.613C129.809 167.949 130.846 168.758 132.234 168.758C133.641 168.758 134.695 167.949 134.695 166.613C134.695 165.295 133.641 164.469 132.234 164.469ZM140.32 161.674V177.582H138.369V161.674H140.32ZM127.154 172.66C130.02 172.66 133.992 172.625 137.42 172.133L137.578 173.557C134.01 174.242 130.195 174.26 127.4 174.26L127.154 172.66ZM160.148 161.674V177.582H158.215V161.674H160.148ZM155.262 163.062V169.021H149.795V172.221C152.3 172.203 154.462 172.08 156.932 171.658L157.107 173.258C154.4 173.732 152.027 173.82 149.18 173.82H147.791V167.475H153.275V164.645H147.773V163.062H155.262ZM176.971 170.762V172.344H173.561V177.564H171.609V172.344H167.848V177.564H165.844V172.344H162.451V170.762H176.971ZM166.143 162.289V164.188H173.244V162.289H175.213V169.145H164.209V162.289H166.143ZM166.143 167.58H173.244V165.717H166.143V167.58Z" fill="#111827"/>
<path d="M111 189C111 188.448 111.448 188 112 188H177C177.552 188 178 188.448 178 189C178 189.552 177.552 190 177 190H112C111.448 190 111 189.552 111 189Z" fill="#111827"/>
<path d="M204.168 161.674V177.564H202.287V169.531H200.529V176.756H198.701V161.973H200.529V167.932H202.287V161.674H204.168ZM193.182 163.502V171.887C194.553 171.86 196.056 171.746 197.717 171.412L197.91 173.117C195.766 173.504 193.955 173.609 192.268 173.609H191.213V163.502H193.182ZM218.529 161.674V167.879H220.885V169.514H218.529V177.529H216.578V161.674H218.529ZM214.328 163.326C214.328 168.002 212.395 172.098 207.104 174.699L205.996 173.188C209.863 171.263 211.955 168.556 212.359 164.943H206.857V163.326H214.328ZM233.98 163.045V170.551H226.457V163.045H233.98ZM228.373 164.609V169.004H232.064V164.609H228.373ZM238.445 161.674V166.332H240.66V167.967H238.445V173.275H236.494V161.674H238.445ZM239.078 175.666V177.248H228.268V172.15H230.219V175.666H239.078ZM255.971 169.584V171.148H241.469V169.584H255.971ZM254.354 166.561V168.143H243.244V162.307H254.213V163.854H245.195V166.561H254.354ZM254.459 175.648V177.23H243.262V172.537H245.178V175.648H254.459ZM275.816 174.031V175.631H261.297V174.031H267.555V170.568H262.896V162.904H274.146V170.568H269.488V174.031H275.816ZM264.812 164.469V169.039H272.213V164.469H264.812ZM290.09 161.691V170.691H288.121V161.691H290.09ZM290.09 171.465V177.371H279.543V171.465H290.09ZM281.477 173.012V175.789H288.174V173.012H281.477ZM281.424 162.447C283.867 162.447 285.695 163.994 285.695 166.244C285.695 168.424 283.867 170.006 281.424 170.006C278.963 170.006 277.135 168.424 277.135 166.244C277.135 163.994 278.963 162.447 281.424 162.447ZM281.424 164.1C280.035 164.1 279.033 164.926 279.051 166.244C279.033 167.527 280.035 168.354 281.424 168.354C282.795 168.354 283.779 167.527 283.779 166.244C283.779 164.926 282.795 164.1 281.424 164.1Z" fill="#9CA3AF"/>
<rect x="32" y="206" width="124" height="40" rx="12" fill="#E5E7EB"/>
<path d="M52.7305 222.113C52.7305 223.672 53.8105 225.162 55.6836 225.791L55.0273 226.803C53.6396 226.324 52.6211 225.367 52.0879 224.164C51.5547 225.49 50.4951 226.529 49.0527 227.035L48.3555 226.023C50.2695 225.367 51.418 223.795 51.4316 222.1V221.771H48.7383V220.719H55.3691V221.771H52.7305V222.113ZM58.0762 219.912V223.057H59.8535V224.15H58.0762V227.295H56.7773V219.912H58.0762ZM58.0762 227.896V232.162H56.7773V228.949H49.9824V227.896H58.0762ZM64.8984 221.744C64.8984 223.467 66.0059 224.998 67.8652 225.6L67.1543 226.611C65.8076 226.126 64.8164 225.183 64.2832 223.959C63.75 225.36 62.6836 226.447 61.207 226.98L60.5098 225.941C62.4648 225.271 63.5996 223.645 63.6133 221.799V220.596H64.8984V221.744ZM70.7637 219.912V227.145H69.4648V223.467H66.8809V222.4H69.4648V219.912H70.7637ZM66.6621 227.486C69.2324 227.486 70.8047 228.334 70.8047 229.824C70.8047 231.301 69.2324 232.148 66.6621 232.135C64.0918 232.148 62.5059 231.301 62.5195 229.824C62.5059 228.334 64.0918 227.486 66.6621 227.486ZM66.6621 228.498C64.8711 228.498 63.8047 228.977 63.8047 229.824C63.8047 230.645 64.8711 231.109 66.6621 231.109C68.4531 231.109 69.5195 230.645 69.5195 229.824C69.5195 228.977 68.4531 228.498 66.6621 228.498ZM85.6113 219.912V224.793H87.5117V225.873H85.6113V232.148H84.3125V219.912H85.6113ZM82.4121 221.197C82.3984 224.738 80.8398 227.896 76.8066 229.893L76.082 228.881C79.1514 227.35 80.8193 225.135 81.0859 222.277H76.6973V221.197H82.4121ZM98.0664 223.221V224.273H89.6582V220.131H90.9434V223.221H98.0664ZM99.3516 225.572V226.639H88.168V225.572H99.3516ZM93.7461 227.637C96.3848 227.637 97.9707 228.443 97.9707 229.865C97.9707 231.301 96.3848 232.107 93.7461 232.107C91.0938 232.107 89.4941 231.301 89.4941 229.865C89.4941 228.443 91.0938 227.637 93.7461 227.637ZM93.7461 228.648C91.873 228.662 90.8066 229.072 90.8066 229.865C90.8066 230.645 91.873 231.109 93.7461 231.109C95.5918 231.109 96.6719 230.645 96.6719 229.865C96.6719 229.072 95.5918 228.662 93.7461 228.648ZM109.893 219.926V223.863H111.67V224.943H109.893V229.086H108.594V219.926H109.893ZM107.582 221.348V222.4H100.281V221.348H103.289V219.912H104.588V221.348H107.582ZM103.932 222.988C105.695 222.988 106.898 223.904 106.898 225.299C106.898 226.693 105.695 227.596 103.932 227.596C102.154 227.596 100.951 226.693 100.951 225.299C100.951 223.904 102.154 222.988 103.932 222.988ZM103.932 223.986C102.893 223.986 102.195 224.492 102.209 225.299C102.195 226.092 102.893 226.584 103.932 226.584C104.971 226.584 105.668 226.092 105.682 225.299C105.668 224.492 104.971 223.986 103.932 223.986ZM110.412 230.85V231.902H102.127V228.361H103.426V230.85H110.412ZM125.957 219.912V232.189H124.658V219.912H125.957ZM122.211 221.02V225.49H117.809V228.17C119.791 228.163 121.527 228.074 123.578 227.732L123.701 228.799C121.527 229.168 119.682 229.25 117.521 229.25H116.482V224.451H120.885V222.072H116.469V221.02H122.211ZM139.082 226.994V228.061H136.334V232.162H135.035V228.061H131.932V232.162H130.605V228.061H127.871V226.994H139.082ZM130.551 220.391V221.949H136.375V220.391H137.674V225.641H129.266V220.391H130.551ZM130.551 224.602H136.375V222.975H130.551V224.602Z" fill="#111827"/>
<rect x="164" y="206" width="96" height="40" rx="12" fill="#111827"/>
<path d="M184.73 222.113C184.73 223.672 185.811 225.162 187.684 225.791L187.027 226.803C185.64 226.324 184.621 225.367 184.088 224.164C183.555 225.49 182.495 226.529 181.053 227.035L180.355 226.023C182.27 225.367 183.418 223.795 183.432 222.1V221.771H180.738V220.719H187.369V221.771H184.73V222.113ZM190.076 219.912V223.057H191.854V224.15H190.076V227.295H188.777V219.912H190.076ZM190.076 227.896V232.162H188.777V228.949H181.982V227.896H190.076ZM196.898 221.744C196.898 223.467 198.006 224.998 199.865 225.6L199.154 226.611C197.808 226.126 196.816 225.183 196.283 223.959C195.75 225.36 194.684 226.447 193.207 226.98L192.51 225.941C194.465 225.271 195.6 223.645 195.613 221.799V220.596H196.898V221.744ZM202.764 219.912V227.145H201.465V223.467H198.881V222.4H201.465V219.912H202.764ZM198.662 227.486C201.232 227.486 202.805 228.334 202.805 229.824C202.805 231.301 201.232 232.148 198.662 232.135C196.092 232.148 194.506 231.301 194.52 229.824C194.506 228.334 196.092 227.486 198.662 227.486ZM198.662 228.498C196.871 228.498 195.805 228.977 195.805 229.824C195.805 230.645 196.871 231.109 198.662 231.109C200.453 231.109 201.52 230.645 201.52 229.824C201.52 228.977 200.453 228.498 198.662 228.498ZM214.275 219.926V223.863H216.053V224.943H214.275V229.086H212.977V219.926H214.275ZM211.965 221.348V222.4H204.664V221.348H207.672V219.912H208.971V221.348H211.965ZM208.314 222.988C210.078 222.988 211.281 223.904 211.281 225.299C211.281 226.693 210.078 227.596 208.314 227.596C206.537 227.596 205.334 226.693 205.334 225.299C205.334 223.904 206.537 222.988 208.314 222.988ZM208.314 223.986C207.275 223.986 206.578 224.492 206.592 225.299C206.578 226.092 207.275 226.584 208.314 226.584C209.354 226.584 210.051 226.092 210.064 225.299C210.051 224.492 209.354 223.986 208.314 223.986ZM214.795 230.85V231.902H206.51V228.361H207.809V230.85H214.795ZM230.34 219.912V232.189H229.041V219.912H230.34ZM226.594 221.02V225.49H222.191V228.17C224.174 228.163 225.91 228.074 227.961 227.732L228.084 228.799C225.91 229.168 224.064 229.25 221.904 229.25H220.865V224.451H225.268V222.072H220.852V221.02H226.594ZM243.465 226.994V228.061H240.717V232.162H239.418V228.061H236.314V232.162H234.988V228.061H232.254V226.994H243.465ZM234.934 220.391V221.949H240.758V220.391H242.057V225.641H233.648V220.391H234.934ZM234.934 224.602H240.758V222.975H234.934V224.602Z" fill="white"/>
<g clip-path="url(#clip4_523_14933)">
<path d="M-5 234H373V439H-5V234Z" fill="#E8E8E8"/>
</g>
<path d="M54.1 459.1C54 455.7 51.3 453 47.9 453C46.8 453 45.1 453.8 44.4 455.1C44.3 455.4 43.9 455.4 43.8 455.1C43 453.9 41.4 453.1 40.2 453.1C36.9 453.1 34.1 455.8 34 459.1V459.3C34 461 34.7 462.6 35.9 463.8C35.9 463.8 35.9 463.8 35.9 463.9C36 464 40.8 468.2 43 470.1C43.6 470.6 44.5 470.6 45.1 470.1C47.3 468.2 52 464 52.2 463.9C52.2 463.9 52.2 463.9 52.2 463.8C53.4 462.7 54.1 461.1 54.1 459.3V459.1Z" fill="#73CFA5"/>
<path d="M80.1 459.1C80 455.7 77.3 453 73.9 453C72.8 453 71.1 453.8 70.4 455.1C70.3 455.4 69.9 455.4 69.8 455.1C69 453.9 67.4 453.1 66.2 453.1C62.9 453.1 60.1 455.8 60 459.1V459.3C60 461 60.7 462.6 61.9 463.8C61.9 463.8 61.9 463.8 61.9 463.9C62 464 66.8 468.2 69 470.1C69.6 470.6 70.5 470.6 71.1 470.1C73.3 468.2 78 464 78.2 463.9C78.2 463.9 78.2 463.9 78.2 463.8C79.4 462.7 80.1 461.1 80.1 459.3V459.1Z" fill="#73CFA5"/>
<path d="M106.1 459.1C106 455.7 103.3 453 99.9 453C98.8 453 97.1 453.8 96.4 455.1C96.3 455.4 95.9 455.4 95.8 455.1C95 453.9 93.4 453.1 92.2 453.1C88.9 453.1 86.1 455.8 86 459.1V459.3C86 461 86.7 462.6 87.9 463.8C87.9 463.8 87.9 463.8 87.9 463.9C88 464 92.8 468.2 95 470.1C95.6 470.6 96.5 470.6 97.1 470.1C99.3 468.2 104 464 104.2 463.9C104.2 463.9 104.2 463.9 104.2 463.8C105.4 462.7 106.1 461.1 106.1 459.3V459.1Z" fill="#73CFA5"/>
<path d="M132.1 459.1C132 455.7 129.3 453 125.9 453C124.8 453 123.1 453.8 122.4 455.1C122.3 455.4 121.9 455.4 121.8 455.1C121 453.9 119.4 453.1 118.2 453.1C114.9 453.1 112.1 455.8 112 459.1V459.3C112 461 112.7 462.6 113.9 463.8C113.9 463.8 113.9 463.8 113.9 463.9C114 464 118.8 468.2 121 470.1C121.6 470.6 122.5 470.6 123.1 470.1C125.3 468.2 130 464 130.2 463.9C130.2 463.9 130.2 463.9 130.2 463.8C131.4 462.7 132.1 461.1 132.1 459.3V459.1Z" fill="#73CFA5"/>
<path d="M158.1 459.1C158 455.7 155.3 453 151.9 453C150.8 453 149.1 453.8 148.4 455.1C148.3 455.4 147.9 455.4 147.8 455.1C147 453.9 145.4 453.1 144.2 453.1C140.9 453.1 138.1 455.8 138 459.1V459.3C138 461 138.7 462.6 139.9 463.8C139.9 463.8 139.9 463.8 139.9 463.9C140 464 144.8 468.2 147 470.1C147.6 470.6 148.5 470.6 149.1 470.1C151.3 468.2 156 464 156.2 463.9C156.2 463.9 156.2 463.9 156.2 463.8C157.4 462.7 158.1 461.1 158.1 459.3V459.1Z" fill="#73CFA5"/>
<path d="M42.2676 492.424V493.449H33.9551V488.609H42.1172V489.662H35.2676V492.424H42.2676ZM43.6484 494.939V495.992H38.6445V500.135H37.373V495.992H32.4375V494.939H43.6484ZM55.748 495.117V496.143H50.7441V500.162H49.4727V496.143H44.5371V495.117H55.748ZM47.2168 488.404V490.004H53.041V488.404H54.3398V493.723H45.9316V488.404H47.2168ZM47.2168 492.684H53.041V491.043H47.2168V492.684ZM67.8477 493.531V494.529H56.6367V493.531H67.8477ZM66.4668 495.391V498.084H59.2754V499.096H66.8496V500.012H57.9766V497.223H65.1816V496.32H57.9629V495.391H66.4668ZM66.4395 488.227V490.879H59.3574V491.809H66.6445V492.725H58.0723V490.018H65.1406V489.143H58.0449V488.227H66.4395ZM81.8066 487.912V490.961H83.5566V492.068H81.8066V495.131H80.5078V487.912H81.8066ZM81.8066 495.65V498.207H75.0391V499.137H82.2578V500.039H73.7402V497.373H80.5215V496.553H73.7129V495.65H81.8066ZM72.0859 493.969C73.0361 493.969 74.1367 493.969 75.2852 493.928V493.244C73.877 493.114 73.002 492.554 73.0156 491.631C73.002 490.633 74.1504 490.045 75.9277 490.045C77.6914 490.045 78.8398 490.633 78.8398 491.631C78.8398 492.547 77.9717 493.107 76.584 493.244V493.887C77.6777 493.832 78.7852 493.743 79.8105 493.6L79.9199 494.447C77.2812 494.885 74.3828 494.898 72.2227 494.898L72.0859 493.969ZM79.4688 488.787V489.689H72.4004V488.787H75.2852V487.803H76.584V488.787H79.4688ZM75.9277 490.893C74.875 490.893 74.2461 491.166 74.2461 491.631C74.2461 492.123 74.875 492.424 75.9277 492.424C76.9668 492.424 77.5957 492.123 77.5957 491.631C77.5957 491.166 76.9668 490.893 75.9277 490.893ZM95.4375 493.887V494.939H84.2676V493.887H86.9473V492.232C86.0039 491.85 85.4707 491.234 85.4707 490.428C85.4707 488.979 87.1523 488.131 89.8457 488.131C92.5254 488.131 94.2207 488.979 94.2207 490.428C94.2207 491.234 93.6807 491.856 92.7305 492.232V493.887H95.4375ZM89.8457 495.773C92.4844 495.773 94.0703 496.553 94.0703 497.947C94.0703 499.369 92.4844 500.135 89.8457 500.135C87.1797 500.135 85.5938 499.369 85.5938 497.947C85.5938 496.553 87.1797 495.773 89.8457 495.773ZM89.8457 496.771C87.9727 496.771 86.9062 497.195 86.9062 497.947C86.9062 498.713 87.9727 499.15 89.8457 499.137C91.6914 499.15 92.7715 498.713 92.7715 497.947C92.7715 497.195 91.6914 496.771 89.8457 496.771ZM89.8457 489.129C87.9453 489.129 86.7969 489.607 86.8105 490.428C86.7969 491.248 87.9453 491.713 89.8457 491.713C91.7461 491.713 92.8809 491.248 92.8809 490.428C92.8809 489.607 91.7461 489.129 89.8457 489.129ZM88.2598 493.887H91.4453V492.574C90.9668 492.656 90.4268 492.697 89.8457 492.697C89.2715 492.697 88.7383 492.656 88.2598 492.588V493.887ZM105.992 487.926V491.863H107.77V492.943H105.992V497.086H104.693V487.926H105.992ZM103.682 489.348V490.4H96.3809V489.348H99.3887V487.912H100.688V489.348H103.682ZM100.031 490.988C101.795 490.988 102.998 491.904 102.998 493.299C102.998 494.693 101.795 495.596 100.031 495.596C98.2539 495.596 97.0508 494.693 97.0508 493.299C97.0508 491.904 98.2539 490.988 100.031 490.988ZM100.031 491.986C98.9922 491.986 98.2949 492.492 98.3086 493.299C98.2949 494.092 98.9922 494.584 100.031 494.584C101.07 494.584 101.768 494.092 101.781 493.299C101.768 492.492 101.07 491.986 100.031 491.986ZM106.512 498.85V499.902H98.2266V496.361H99.5254V498.85H106.512ZM121.51 487.912V491.535H123.287V492.615H121.51V496.812H120.197V487.912H121.51ZM118.188 488.842C118.188 492.055 116 494.393 112.418 495.473L111.871 494.434C114.735 493.572 116.52 491.945 116.779 489.922H112.391V488.842H118.188ZM122.016 498.85V499.902H113.73V495.896H115.043V498.85H122.016ZM133.609 487.898V491.453H135.4V492.533H133.609V496.771H132.311V487.898H133.609ZM130 488.951V490.004H125.816V493.572C128.202 493.579 129.549 493.504 131.08 493.189L131.23 494.242C129.576 494.57 128.127 494.652 125.502 494.652H124.531V488.951H130ZM134.129 498.85V499.902H125.844V495.855H127.143V498.85H134.129ZM145.627 487.912V492.875H147.596V493.955H145.627V500.162H144.342V487.912H145.627ZM143.275 489.826V490.893H136.016V489.826H139.037V488.076H140.336V489.826H143.275ZM139.693 491.795C141.443 491.795 142.729 492.971 142.742 494.639C142.729 496.32 141.443 497.482 139.693 497.496C137.93 497.482 136.645 496.32 136.645 494.639C136.645 492.971 137.93 491.795 139.693 491.795ZM139.693 492.861C138.654 492.861 137.875 493.586 137.889 494.639C137.875 495.705 138.654 496.416 139.693 496.402C140.732 496.416 141.498 495.705 141.498 494.639C141.498 493.586 140.732 492.861 139.693 492.861ZM154.432 488.951V489.99H157.098V487.926H158.396V496.854H157.098V493.682H154.432V494.748H148.744V488.951H154.432ZM150.029 490.004V493.723H153.16V490.004H150.029ZM158.67 498.85V499.902H150.398V496.033H151.711V498.85H158.67ZM154.432 492.615H157.098V491.057H154.432V492.615ZM164.699 491.029C164.699 493.271 165.957 495.5 167.83 496.348L167.037 497.387C165.643 496.689 164.597 495.302 164.057 493.627C163.517 495.391 162.443 496.881 161.035 497.619L160.215 496.566C162.115 495.664 163.387 493.299 163.387 491.029V488.938H164.699V491.029ZM170.496 487.912V500.189H169.211V493.039H166.477V491.986H169.211V487.912H170.496ZM182.309 493.559V494.598H178.604V497.592H183.594V498.658H172.383V497.592H177.318V494.598H173.777V488.855H182.199V489.908H175.076V493.559H182.309ZM194.012 488.814V494.324H188.379V488.814H194.012ZM189.65 489.867V493.285H192.727V489.867H189.65ZM197.525 487.912V491.166H199.303V492.26H197.525V496.033H196.227V487.912H197.525ZM194.381 495.801C194.367 497.428 196.117 498.727 198.441 499.082L197.922 500.107C196.062 499.786 194.49 498.877 193.752 497.564C192.993 498.877 191.414 499.786 189.555 500.107L189.049 499.082C191.346 498.727 193.096 497.428 193.096 495.801V495.445H194.381V495.801ZM204.252 496.006C204.252 497.059 204.771 498.173 205.879 498.836C207.007 498.118 207.561 496.942 207.561 496.006V495.418H208.832V496.006C208.832 497.277 209.666 498.508 211.266 499.027L210.623 499.984C209.413 499.567 208.593 498.754 208.162 497.742C207.772 498.733 207.041 499.629 205.92 500.094C204.744 499.649 203.999 498.781 203.623 497.783C203.179 498.747 202.372 499.561 201.217 499.984L200.561 499.027C202.133 498.467 202.98 497.195 202.994 496.006V495.418H204.252V496.006ZM210.158 487.926V494.898H208.859V487.926H210.158ZM203.514 488.596C205.387 488.596 206.768 489.785 206.768 491.494C206.768 493.189 205.387 494.365 203.514 494.365C201.641 494.365 200.246 493.189 200.246 491.494C200.246 489.785 201.641 488.596 203.514 488.596ZM203.514 489.703C202.352 489.689 201.518 490.414 201.518 491.494C201.518 492.561 202.352 493.285 203.514 493.285C204.662 493.285 205.496 492.561 205.496 491.494C205.496 490.414 204.662 489.689 203.514 489.703ZM222.012 491.494V492.533H213.576V488.35H214.861V491.494H222.012ZM223.297 494.078V495.117H212.086V494.078H223.297ZM222.094 498.809V499.875H213.48V496.279H214.779V498.809H222.094ZM238.828 497.551V498.631H227.617V497.551H230.297V494.352C229.292 493.798 228.684 492.916 228.684 491.822C228.684 489.895 230.57 488.623 233.195 488.623C235.834 488.623 237.721 489.895 237.721 491.822C237.721 492.902 237.133 493.771 236.148 494.324V497.551H238.828ZM233.195 489.662C231.268 489.662 229.941 490.496 229.941 491.822C229.941 493.135 231.268 493.996 233.195 493.996C235.109 493.996 236.463 493.135 236.463 491.822C236.463 490.496 235.109 489.662 233.195 489.662ZM231.582 497.551H234.836V494.816C234.337 494.946 233.783 495.008 233.195 495.008C232.621 495.008 232.074 494.946 231.582 494.83V497.551ZM249.889 487.912V500.189H248.59V487.912H249.889ZM246.143 489.02V493.49H241.74V496.17C243.723 496.163 245.459 496.074 247.51 495.732L247.633 496.799C245.459 497.168 243.613 497.25 241.453 497.25H240.414V492.451H244.816V490.072H240.4V489.02H246.143ZM253.703 488.541V490.332H256.766V488.541H258.051V490.852H260.73V487.912H262.029V494.598H260.73V491.932H258.051V494.188H252.404V488.541H253.703ZM253.703 493.135H256.766V491.344H253.703V493.135ZM255.33 495.172V496.553H260.73V495.172H262.016V499.984H254.045V495.172H255.33ZM255.33 498.932H260.73V497.564H255.33V498.932ZM269.494 488.117C272.256 488.117 273.869 488.855 273.869 490.223C273.869 491.59 272.256 492.342 269.494 492.342C266.732 492.342 265.119 491.59 265.119 490.223C265.119 488.855 266.732 488.117 269.494 488.117ZM269.494 489.074C267.539 489.074 266.459 489.498 266.473 490.223C266.459 490.975 267.539 491.371 269.494 491.371C271.449 491.371 272.529 490.975 272.529 490.223C272.529 489.498 271.449 489.074 269.494 489.074ZM275.086 493.094V494.133H263.916V493.094H275.086ZM273.678 495.076V497.947H266.541V499.041H274.02V500.039H265.27V497.004H272.393V496.047H265.256V495.076H273.678ZM281.074 489.047V491.973H283.412V489.047H284.615V497.141H279.844V489.047H281.074ZM281.074 496.088H283.412V492.998H281.074V496.088ZM289.975 487.912V500.162H288.73V493.777H287.213V499.561H285.982V488.145H287.213V492.711H288.73V487.912H289.975ZM302.73 494.871V495.951H297.727V500.162H296.455V495.951H291.52V494.871H302.73ZM297.098 488.377C299.682 488.377 301.459 489.43 301.459 491.098C301.459 492.752 299.682 493.791 297.098 493.791C294.5 493.791 292.736 492.752 292.736 491.098C292.736 489.43 294.5 488.377 297.098 488.377ZM297.098 489.416C295.279 489.43 294.062 490.059 294.076 491.098C294.062 492.123 295.279 492.752 297.098 492.752C298.916 492.752 300.133 492.123 300.133 491.098C300.133 490.059 298.916 489.43 297.098 489.416ZM313.545 489.088V490.291C313.545 491.809 313.545 493.504 313.08 496.006L311.768 495.869C312.246 493.504 312.246 491.768 312.246 490.291V490.141H304.809V489.088H313.545ZM314.803 497.428V498.508H303.633V497.428H307.885V493.107H309.17V497.428H314.803ZM317.934 498.057L316.84 501.83H315.678L316.402 498.057H317.934ZM327.271 490.113C327.271 491.686 328.447 493.189 330.334 493.791L329.664 494.803C328.256 494.338 327.189 493.367 326.643 492.137C326.089 493.47 325.002 494.522 323.539 495.035L322.869 494.037C324.77 493.381 325.945 491.781 325.959 490.113V489.771H323.211V488.719H329.965V489.771H327.271V490.113ZM332.891 487.912V495.309H331.592V487.912H332.891ZM332.891 495.924V500.162H331.592V496.977H324.592V495.924H332.891ZM42.6504 507.912V514.584H41.3652V511.877H39.0684V510.811H41.3652V507.912H42.6504ZM35.9648 515.131V516.539H41.3652V515.131H42.6504V520.012H34.6797V515.131H35.9648ZM35.9648 518.959H41.3652V517.551H35.9648V518.959ZM36.8398 509.826C36.8398 511.344 37.9473 512.875 39.793 513.504L39.123 514.516C37.7422 514.03 36.7305 513.053 36.1973 511.836C35.6572 513.196 34.5908 514.276 33.1348 514.789L32.4648 513.764C34.3516 513.107 35.5137 511.494 35.5137 509.812V509.648H32.8613V508.596H39.4648V509.648H36.8398V509.826ZM54.1758 508.992V514.707H48.4473V508.992H54.1758ZM49.7188 510.045V513.682H52.9043V510.045H49.7188ZM57.5938 507.898V511.562H59.3711V512.656H57.5938V516.881H56.2949V507.898H57.5938ZM58.1133 518.85V519.902H49.8281V516.02H51.127V518.85H58.1133ZM71.252 512.93V513.969H60.0684V512.93H71.252ZM69.9258 511.002V512.041H61.5312V508.268H69.8027V509.32H62.8301V511.002H69.9258ZM69.8301 514.939V517.906H62.6934V519H70.1719V520.025H61.4219V516.949H68.5449V515.938H61.4082V514.939H69.8301ZM75.4902 508.828C77.1514 508.828 78.3682 510.236 78.5664 512.506H81.0957V507.912H82.3809V520.189H81.0957V513.559H78.5801C78.4365 515.944 77.1924 517.428 75.4902 517.428C73.6582 517.428 72.373 515.76 72.3867 513.121C72.373 510.496 73.6582 508.828 75.4902 508.828ZM75.4902 509.99C74.3828 509.99 73.6172 511.193 73.6172 513.121C73.6172 515.062 74.3828 516.266 75.4902 516.266C76.5977 516.266 77.3633 515.062 77.3633 513.121C77.3633 511.193 76.5977 509.99 75.4902 509.99ZM95.4785 517.564V518.645H84.2676V517.564H89.2031V515.049H85.5527V508.746H86.8516V510.852H92.8672V508.746H94.1523V515.049H90.4883V517.564H95.4785ZM86.8516 513.996H92.8672V511.904H86.8516V513.996ZM106.279 511.494V512.533H97.8438V508.35H99.1289V511.494H106.279ZM107.564 514.078V515.117H96.3535V514.078H107.564ZM106.361 518.809V519.875H97.748V516.279H99.0469V518.809H106.361ZM116.383 511.029C116.369 513.271 117.723 515.514 119.623 516.361L118.844 517.387C117.436 516.717 116.321 515.343 115.754 513.668C115.18 515.459 114.052 516.942 112.582 517.66L111.789 516.566C113.717 515.705 115.07 513.367 115.07 511.029V508.938H116.383V511.029ZM122.029 507.912V520.189H120.73V507.912H122.029ZM133.609 507.912V511.535H135.387V512.615H133.609V516.812H132.297V507.912H133.609ZM130.287 508.842C130.287 512.055 128.1 514.393 124.518 515.473L123.971 514.434C126.835 513.572 128.619 511.945 128.879 509.922H124.49V508.842H130.287ZM134.115 518.85V519.902H125.83V515.896H127.143V518.85H134.115ZM146.229 507.912V520.189H144.93V507.912H146.229ZM139.68 508.828C141.498 508.828 142.838 510.496 142.838 513.121C142.838 515.76 141.498 517.428 139.68 517.428C137.834 517.428 136.508 515.76 136.508 513.121C136.508 510.496 137.834 508.828 139.68 508.828ZM139.68 509.99C138.545 509.99 137.766 511.193 137.766 513.121C137.766 515.062 138.545 516.266 139.68 516.266C140.801 516.266 141.58 515.062 141.58 513.121C141.58 511.193 140.801 509.99 139.68 509.99ZM161.814 507.912V515.199H160.516V512.096H158.232V511.029H160.516V507.912H161.814ZM157.713 515.541C160.283 515.541 161.855 516.389 161.855 517.852C161.855 519.314 160.283 520.148 157.713 520.162C155.143 520.148 153.557 519.314 153.57 517.852C153.557 516.389 155.143 515.541 157.713 515.541ZM157.713 516.553C155.922 516.553 154.855 517.018 154.855 517.852C154.855 518.672 155.922 519.15 157.713 519.137C159.504 519.15 160.57 518.672 160.57 517.852C160.57 517.018 159.504 516.553 157.713 516.553ZM155.99 510.072C155.99 511.631 157.098 513.135 158.943 513.764L158.273 514.789C156.899 514.311 155.888 513.333 155.361 512.123C154.821 513.497 153.748 514.598 152.285 515.131L151.602 514.092C153.502 513.436 154.664 511.781 154.664 510.086V509.812H152.012V508.76H158.615V509.812H155.99V510.072ZM173.326 507.912V510.469H175.104V511.549H173.326V514.105H172.027V507.912H173.326ZM169.908 508.568V513.531H164.18V508.568H169.908ZM165.451 509.607V512.492H168.637V509.607H165.451ZM173.326 514.666V517.77H166.709V518.973H173.75V520.012H165.438V516.799H172.041V515.678H165.41V514.666H173.326ZM190.416 514.83V515.896H187.572V520.162H186.26V515.896H183.334V520.162H181.994V515.896H179.205V514.83H190.416ZM184.783 508.377C187.367 508.377 189.145 509.43 189.145 511.084C189.145 512.711 187.367 513.75 184.783 513.736C182.186 513.75 180.422 512.711 180.422 511.084C180.422 509.43 182.186 508.377 184.783 508.377ZM184.783 509.416C182.965 509.43 181.748 510.059 181.762 511.084C181.748 512.082 182.965 512.711 184.783 512.711C186.602 512.711 187.818 512.082 187.818 511.084C187.818 510.059 186.602 509.43 184.783 509.416ZM201.477 515.801V520.162H200.178V516.854H193.178V515.801H201.477ZM201.477 507.912V515.172H200.178V507.912H201.477ZM194.832 508.623C196.705 508.623 198.086 509.826 198.086 511.549C198.086 513.271 196.705 514.475 194.832 514.475C192.959 514.475 191.564 513.271 191.564 511.549C191.564 509.826 192.959 508.623 194.832 508.623ZM194.832 509.73C193.67 509.73 192.836 510.455 192.836 511.549C192.836 512.656 193.67 513.381 194.832 513.367C195.98 513.381 196.814 512.656 196.814 511.549C196.814 510.455 195.98 509.73 194.832 509.73ZM213.863 507.926V515.5H212.633V512.273H211.238V515.322H210.021V508.104H211.238V511.221H212.633V507.926H213.863ZM209.543 509.238V510.277H203.35V509.238H205.824V507.967H207.109V509.238H209.543ZM206.453 510.824C208.012 510.824 209.105 511.658 209.105 512.943C209.105 514.201 208.012 515.049 206.453 515.049C204.922 515.049 203.828 514.201 203.828 512.943C203.828 511.658 204.922 510.824 206.453 510.824ZM206.453 511.781C205.592 511.781 204.99 512.219 204.99 512.943C204.99 513.641 205.592 514.092 206.453 514.092C207.342 514.092 207.93 513.641 207.93 512.943C207.93 512.219 207.328 511.781 206.453 511.781ZM207.875 516.225C207.861 517.229 208.374 518.262 209.475 518.877C210.575 518.214 211.115 517.106 211.115 516.225V515.855H212.4V516.225C212.4 517.4 213.248 518.576 214.834 519.027L214.219 520.012C213.002 519.615 212.175 518.822 211.758 517.852C211.361 518.795 210.63 519.677 209.502 520.121C208.333 519.697 207.595 518.87 207.219 517.906C206.768 518.836 205.94 519.608 204.785 520.012L204.17 519.027C205.729 518.535 206.59 517.332 206.604 516.225V515.855H207.875V516.225ZM218.84 508.828C220.501 508.828 221.718 510.236 221.916 512.506H224.445V507.912H225.73V520.189H224.445V513.559H221.93C221.786 515.944 220.542 517.428 218.84 517.428C217.008 517.428 215.723 515.76 215.736 513.121C215.723 510.496 217.008 508.828 218.84 508.828ZM218.84 509.99C217.732 509.99 216.967 511.193 216.967 513.121C216.967 515.062 217.732 516.266 218.84 516.266C219.947 516.266 220.713 515.062 220.713 513.121C220.713 511.193 219.947 509.99 218.84 509.99ZM238.828 517.551V518.631H227.617V517.551H230.297V514.352C229.292 513.798 228.684 512.916 228.684 511.822C228.684 509.895 230.57 508.623 233.195 508.623C235.834 508.623 237.721 509.895 237.721 511.822C237.721 512.902 237.133 513.771 236.148 514.324V517.551H238.828ZM233.195 509.662C231.268 509.662 229.941 510.496 229.941 511.822C229.941 513.135 231.268 513.996 233.195 513.996C235.109 513.996 236.463 513.135 236.463 511.822C236.463 510.496 235.109 509.662 233.195 509.662ZM231.582 517.551H234.836V514.816C234.337 514.946 233.783 515.008 233.195 515.008C232.621 515.008 232.074 514.946 231.582 514.83V517.551ZM241.973 509.102L241.85 516.143H240.496L240.373 509.102H241.973ZM241.18 519.096C240.646 519.096 240.195 518.658 240.209 518.125C240.195 517.592 240.646 517.154 241.18 517.154C241.699 517.154 242.15 517.592 242.15 518.125C242.15 518.658 241.699 519.096 241.18 519.096Z" fill="#374151"/>
<path d="M41.4219 536.496V546.996H40.3555V536.496H41.4219ZM39.2891 536.695V546.48H38.2227V541.418H37.0391C36.9453 543.469 36.0664 544.746 34.7656 544.734C33.3945 544.746 32.5039 543.305 32.5039 541.031C32.5039 538.758 33.3945 537.328 34.7656 537.34C36.043 537.328 36.9102 538.541 37.0391 540.516H38.2227V536.695H39.2891ZM34.7656 538.383C34.0039 538.383 33.5352 539.355 33.5352 541.031C33.5352 542.707 34.0039 543.68 34.7656 543.68C35.5391 543.68 36.0195 542.707 36.0195 541.031C36.0195 539.355 35.5391 538.383 34.7656 538.383ZM51.5117 536.496V547.02H50.4102V541.242H48.0898V544.418H43.168V537.305H44.293V539.988H47V537.305H48.0898V540.328H50.4102V536.496H51.5117ZM44.293 543.504H47V540.867H44.293V543.504ZM64.7539 537.059V537.961H63.2188V540.68H64.6953V541.559H56.9961V540.68H58.4844V537.961H56.9492V537.059H64.7539ZM65.6562 542.672V543.598H61.3906V546.984H60.2891V543.598H56.0469V542.672H65.6562ZM59.5977 540.68H62.1289V537.961H59.5977V540.68ZM74.9375 541.477V542.391H67.625V537.434H74.8438V538.348H68.7266V541.477H74.9375ZM76.0391 544.688V545.613H66.4297V544.688H76.0391ZM85.3203 542.086V542.977H78.0078V537.363H85.2148V538.266H79.1328V539.684H84.9922V540.562H79.1328V542.086H85.3203ZM86.4102 544.758V545.672H76.8008V544.758H86.4102ZM95.8789 536.508V542.297H94.7656V536.508H95.8789ZM92.5273 537V539.93H88.8125V541.172C90.6465 541.16 92 541.113 93.5938 540.855L93.7344 541.758C92.0234 542.039 90.582 542.086 88.6016 542.098H87.7227V539.062H91.4258V537.902H87.6992V537H92.5273ZM90.1016 542.789V543.926H94.7773V542.789H95.8789V546.867H88.9883V542.789H90.1016ZM90.1016 545.965H94.7773V544.805H90.1016V545.965ZM108.723 536.484V539.531H110.258V540.457H108.723V544.09H107.609V536.484H108.723ZM105.629 537.387V538.289H102.043V541.348C104.088 541.354 105.242 541.289 106.555 541.02L106.684 541.922C105.266 542.203 104.023 542.273 101.773 542.273H100.941V537.387H105.629ZM109.168 545.871V546.773H102.066V543.305H103.18V545.871H109.168ZM112.344 537.164V538.77H114.371V537.164H115.402V542.121H111.289V537.164H112.344ZM112.344 541.219H114.371V539.637H112.344V541.219ZM119.797 536.508V542.812H118.742V540.094H117.512V542.742H116.48V536.695H117.512V539.18H118.742V536.508H119.797ZM119.797 543.398V546.996H118.695V544.301H112.66V543.398H119.797ZM129.91 536.496V541.922H128.809V536.496H129.91ZM129.922 542.402V545.004H124.133V546.023H130.273V546.891H123.055V544.195H128.82V543.258H123.02V542.402H129.922ZM125.105 537.961C125.105 539.238 126.113 540.422 127.742 540.891L127.203 541.746C125.967 541.377 125.035 540.586 124.566 539.578C124.098 540.691 123.143 541.564 121.848 541.969L121.332 541.09C122.961 540.586 123.969 539.32 123.98 537.961H121.625V537.059H127.414V537.961H125.105ZM143.188 536.859V537.773H141.664V539.883H143.141V540.762H139.848V541.934H144.09V542.836H134.516V541.934H138.746V540.762H135.441V539.883H136.93V537.773H135.395V536.859H143.188ZM142.918 543.773V546.996H141.793V544.676H135.582V543.773H142.918ZM138.031 539.883H140.551V537.773H138.031V539.883ZM150.219 537.328V538.219H146.457V539.543H150.02V540.434H146.457V541.84C148.408 541.822 149.533 541.77 150.875 541.547L150.992 542.414C149.551 542.684 148.32 542.742 146.164 542.742H145.344V537.328H150.219ZM153.137 536.484V539.707H154.66V540.633H153.137V544.266H152.023V536.484H153.137ZM153.582 545.871V546.773H146.48V543.562H147.594V545.871H153.582ZM166.602 540.363V541.242H159.477V537.094H166.473V537.996H160.602V540.363H166.602ZM167.785 542.52V543.422H163.496V546.973H162.406V543.422H158.176V542.52H167.785ZM178.156 542.672V543.551H173.867V546.996H172.777V543.551H168.547V542.672H178.156ZM170.844 536.918V538.289H175.836V536.918H176.949V541.477H169.742V536.918H170.844ZM170.844 540.586H175.836V539.18H170.844V540.586ZM182.996 537.621V541.359H180.336V543.516C181.479 543.51 182.568 543.469 183.863 543.234L183.957 544.148C182.504 544.406 181.309 544.441 179.984 544.453H179.258V540.469H181.93V538.523H179.246V537.621H182.996ZM187.941 536.496V546.996H186.875V536.496H187.941ZM185.785 536.73V546.457H184.73V541.113H183.488V540.211H184.73V536.73H185.785ZM193.156 539.168C193.145 541.09 194.305 543.012 195.934 543.738L195.266 544.617C194.059 544.043 193.104 542.865 192.617 541.43C192.125 542.965 191.158 544.236 189.898 544.852L189.219 543.914C190.871 543.176 192.031 541.172 192.031 539.168V537.375H193.156V539.168ZM197.996 536.496V547.02H196.883V536.496H197.996ZM208.402 536.496V546.996H207.277V536.496H208.402ZM205.906 537.574V538.488H204.816V543.363C205.361 543.328 205.9 543.281 206.422 543.223L206.48 544.043C204.207 544.406 201.711 544.441 199.777 544.453L199.648 543.527L201.031 543.516V538.488H199.93V537.574H205.906ZM202.109 543.492C202.637 543.48 203.182 543.463 203.727 543.434V538.488H202.109V543.492ZM221.668 536.496V547.02H220.555V536.496H221.668ZM216.055 537.281C217.613 537.281 218.762 538.711 218.762 540.961C218.762 543.223 217.613 544.652 216.055 544.652C214.473 544.652 213.336 543.223 213.336 540.961C213.336 538.711 214.473 537.281 216.055 537.281ZM216.055 538.277C215.082 538.277 214.414 539.309 214.414 540.961C214.414 542.625 215.082 543.656 216.055 543.656C217.016 543.656 217.684 542.625 217.684 540.961C217.684 539.309 217.016 538.277 216.055 538.277ZM232.918 541.617V542.52H223.344V541.617H225.641V540.199C224.832 539.871 224.375 539.344 224.375 538.652C224.375 537.41 225.816 536.684 228.125 536.684C230.422 536.684 231.875 537.41 231.875 538.652C231.875 539.344 231.412 539.877 230.598 540.199V541.617H232.918ZM228.125 543.234C230.387 543.234 231.746 543.902 231.746 545.098C231.746 546.316 230.387 546.973 228.125 546.973C225.84 546.973 224.48 546.316 224.48 545.098C224.48 543.902 225.84 543.234 228.125 543.234ZM228.125 544.09C226.52 544.09 225.605 544.453 225.605 545.098C225.605 545.754 226.52 546.129 228.125 546.117C229.707 546.129 230.633 545.754 230.633 545.098C230.633 544.453 229.707 544.09 228.125 544.09ZM228.125 537.539C226.496 537.539 225.512 537.949 225.523 538.652C225.512 539.355 226.496 539.754 228.125 539.754C229.754 539.754 230.727 539.355 230.727 538.652C230.727 537.949 229.754 537.539 228.125 537.539ZM226.766 541.617H229.496V540.492C229.086 540.562 228.623 540.598 228.125 540.598C227.633 540.598 227.176 540.562 226.766 540.504V541.617ZM237.84 543.117C237.383 543.117 236.996 542.742 237.008 542.285C236.996 541.828 237.383 541.453 237.84 541.453C238.285 541.453 238.672 541.828 238.672 542.285C238.672 542.742 238.285 543.117 237.84 543.117ZM247.52 536.672C249.887 536.672 251.27 537.305 251.27 538.477C251.27 539.648 249.887 540.293 247.52 540.293C245.152 540.293 243.77 539.648 243.77 538.477C243.77 537.305 245.152 536.672 247.52 536.672ZM247.52 537.492C245.844 537.492 244.918 537.855 244.93 538.477C244.918 539.121 245.844 539.461 247.52 539.461C249.195 539.461 250.121 539.121 250.121 538.477C250.121 537.855 249.195 537.492 247.52 537.492ZM252.312 540.938V541.828H242.738V540.938H252.312ZM251.105 542.637V545.098H244.988V546.035H251.398V546.891H243.898V544.289H250.004V543.469H243.887V542.637H251.105ZM256.977 539.59C256.977 541.348 258.125 543.164 259.742 543.855L259.133 544.723C257.896 544.178 256.912 543.023 256.426 541.617C255.939 543.117 254.949 544.395 253.73 544.992L253.086 544.113C254.668 543.375 255.84 541.395 255.852 539.59V538.477H253.449V537.551H259.367V538.477H256.977V539.59ZM261.805 536.496V546.996H260.691V536.496H261.805ZM273.09 544.805V545.742H263.48V544.805H267.711V542.965H264.652V539.625H270.816V538.148H264.629V537.234H271.918V540.516H265.754V542.051H272.164V542.965H268.812V544.805H273.09ZM280.156 546.117C278.398 546.117 277.145 545.168 277.098 543.785H278.41C278.457 544.535 279.195 545.004 280.145 545.004C281.164 545.004 281.914 544.441 281.914 543.621C281.914 542.789 281.211 542.18 280.004 542.18H279.277V541.125H280.004C280.965 541.125 281.645 540.586 281.645 539.777C281.645 539.004 281.07 538.477 280.168 538.477C279.312 538.477 278.562 538.945 278.527 539.719H277.285C277.32 538.336 278.598 537.398 280.18 537.398C281.844 537.398 282.898 538.453 282.887 539.707C282.898 540.668 282.301 541.371 281.387 541.594V541.652C282.547 541.816 283.215 542.59 283.215 543.668C283.215 545.086 281.914 546.117 280.156 546.117ZM292.449 536.496V540.68H294.078V541.605H292.449V546.984H291.336V536.496H292.449ZM289.707 537.598C289.695 540.633 288.359 543.34 284.902 545.051L284.281 544.184C286.912 542.871 288.342 540.973 288.57 538.523H284.809V537.598H289.707Z" fill="#374151"/>
<path d="M32.75 570V569.062L35.6914 566.098C36.6172 565.125 37.0859 564.586 37.0859 563.848C37.0859 563.016 36.4062 562.477 35.5156 562.477C34.5781 562.477 33.9688 563.074 33.9688 563.977H32.75C32.7383 562.43 33.9219 561.398 35.5391 561.398C37.1797 561.398 38.3047 562.43 38.3164 563.812C38.3047 564.762 37.8594 565.512 36.2656 567.082L34.543 568.828V568.898H38.457V570H32.75ZM42.8398 570.117C40.8711 570.117 39.7227 568.535 39.7227 565.758C39.7227 563.004 40.8945 561.398 42.8398 561.398C44.7852 561.398 45.957 563.004 45.957 565.758C45.957 568.535 44.7969 570.117 42.8398 570.117ZM42.8398 569.004C43.9883 569.004 44.668 567.879 44.668 565.758C44.668 563.648 43.9766 562.488 42.8398 562.488C41.7031 562.488 41.0117 563.648 41.0117 565.758C41.0117 567.879 41.6914 569.004 42.8398 569.004ZM47.293 570V569.062L50.2344 566.098C51.1602 565.125 51.6289 564.586 51.6289 563.848C51.6289 563.016 50.9492 562.477 50.0586 562.477C49.1211 562.477 48.5117 563.074 48.5117 563.977H47.293C47.2812 562.43 48.4648 561.398 50.082 561.398C51.7227 561.398 52.8477 562.43 52.8594 563.812C52.8477 564.762 52.4023 565.512 50.8086 567.082L49.0859 568.828V568.898H53V570H47.293ZM54.0547 568.348V567.305L57.8047 561.516H59.3984V567.258H60.5586V568.348H59.3984V570H58.1797V568.348H54.0547ZM55.4141 567.258H58.1797V563.051H58.0859L55.4141 567.188V567.258ZM62.375 570.082C61.918 570.082 61.5312 569.707 61.543 569.25C61.5312 568.793 61.918 568.418 62.375 568.418C62.8203 568.418 63.207 568.793 63.207 569.25C63.207 569.707 62.8203 570.082 62.375 570.082ZM67.3438 570.117C65.375 570.117 64.2266 568.535 64.2266 565.758C64.2266 563.004 65.3984 561.398 67.3438 561.398C69.2891 561.398 70.4609 563.004 70.4609 565.758C70.4609 568.535 69.3008 570.117 67.3438 570.117ZM67.3438 569.004C68.4922 569.004 69.1719 567.879 69.1719 565.758C69.1719 563.648 68.4805 562.488 67.3438 562.488C66.207 562.488 65.5156 563.648 65.5156 565.758C65.5156 567.879 66.1953 569.004 67.3438 569.004ZM75.0195 561.516V570H73.7188V562.805H73.6719L71.6445 564.129V562.898L73.7539 561.516H75.0195ZM77.5273 570.082C77.0703 570.082 76.6836 569.707 76.6953 569.25C76.6836 568.793 77.0703 568.418 77.5273 568.418C77.9727 568.418 78.3594 568.793 78.3594 569.25C78.3594 569.707 77.9727 570.082 77.5273 570.082ZM79.8594 570V569.062L82.8008 566.098C83.7266 565.125 84.1953 564.586 84.1953 563.848C84.1953 563.016 83.5156 562.477 82.625 562.477C81.6875 562.477 81.0781 563.074 81.0781 563.977H79.8594C79.8477 562.43 81.0312 561.398 82.6484 561.398C84.2891 561.398 85.4141 562.43 85.4258 563.812C85.4141 564.762 84.9688 565.512 83.375 567.082L81.6523 568.828V568.898H85.5664V570H79.8594ZM89.8789 570.117C88.2734 570.117 87.0664 569.133 87.0078 567.785H88.2617C88.332 568.512 89.0234 569.039 89.8789 569.039C90.9102 569.039 91.6484 568.289 91.6484 567.281C91.6484 566.25 90.8867 565.5 89.8203 565.488C89.1406 565.488 88.625 565.711 88.332 566.238H87.1133L87.6641 561.516H92.4688V562.617H88.7305L88.4492 564.996H88.5312C88.8828 564.656 89.4805 564.422 90.125 564.422C91.7188 564.422 92.9023 565.605 92.9023 567.246C92.9023 568.922 91.6484 570.117 89.8789 570.117Z" fill="#6B7280"/>
<path d="M32 618H343" stroke="#E5E7EB" stroke-width="2" stroke-dasharray="4 4"/>
<g clip-path="url(#clip5_523_14933)">
<path d="M-5 606H373V811H-5V606Z" fill="#E8E8E8"/>
</g>
<g clip-path="url(#clip6_523_14933)">
<mask id="path-40-inside-3_523_14933" fill="white">
<path d="M0 0H375V56H0V0Z"/>
</mask>
<path d="M0 0H375V56H0V0Z" fill="white"/>
<g clip-path="url(#clip7_523_14933)">
<path d="M27.2392 31.7931C27.2392 32.097 27.1543 32.325 26.9844 32.477C26.8235 32.6289 26.5911 32.7049 26.2871 32.7049C25.9832 32.7049 25.7463 32.6289 25.5764 32.477C25.4155 32.325 25.335 32.097 25.335 31.7931V26.322H24.3159C24.2801 26.8852 24.2042 27.3947 24.0879 27.8507C23.9717 28.3066 23.7974 28.691 23.565 29.0039C23.3415 29.3168 23.0599 29.5581 22.7202 29.728C22.3805 29.8979 21.9737 29.9828 21.4999 29.9828C20.9725 29.9828 20.5255 29.88 20.1589 29.6744C19.7924 29.4598 19.4929 29.1603 19.2605 28.7759C19.037 28.3915 18.8761 27.9267 18.7778 27.3813C18.6794 26.8271 18.6302 26.2102 18.6302 25.5308C18.6302 24.8514 18.6794 24.239 18.7778 23.6937C18.8761 23.1394 19.037 22.6701 19.2605 22.2857C19.4929 21.9013 19.7924 21.6063 20.1589 21.4007C20.5255 21.1861 20.9725 21.0788 21.4999 21.0788C21.9648 21.0788 22.367 21.1638 22.7068 21.3336C23.0465 21.4945 23.3281 21.7314 23.5516 22.0443C23.775 22.3483 23.9449 22.7237 24.0611 23.1707C24.1863 23.6088 24.2712 24.1049 24.3159 24.6592H25.335V21.6957C25.335 21.3917 25.4155 21.1638 25.5764 21.0118C25.7463 20.8598 25.9832 20.7838 26.2871 20.7838C26.5911 20.7838 26.8235 20.8598 26.9844 21.0118C27.1543 21.1638 27.2392 21.3917 27.2392 21.6957V31.7931ZM29.8809 32.1685C29.8809 32.4725 29.7959 32.7005 29.6261 32.8524C29.4562 33.0133 29.2193 33.0938 28.9154 33.0938C28.6114 33.0938 28.3745 33.0133 28.2047 32.8524C28.0348 32.7005 27.9499 32.4725 27.9499 32.1685V21.575C27.9499 21.271 28.0348 21.0431 28.2047 20.8911C28.3745 20.7302 28.6114 20.6497 28.9154 20.6497C29.2193 20.6497 29.4562 20.7302 29.6261 20.8911C29.7959 21.0431 29.8809 21.271 29.8809 21.575V32.1685ZM20.4942 25.5308C20.4942 26.398 20.5657 27.0729 20.7087 27.5557C20.8518 28.0295 21.1155 28.2664 21.4999 28.2664C21.8843 28.2664 22.148 28.0295 22.2911 27.5557C22.4341 27.0729 22.5056 26.398 22.5056 25.5308C22.5056 24.6637 22.4341 23.9932 22.2911 23.5194C22.148 23.0366 21.8843 22.7953 21.4999 22.7953C21.1155 22.7953 20.8518 23.0366 20.7087 23.5194C20.5657 23.9932 20.4942 24.6637 20.4942 25.5308ZM32.0093 22.1382C32.0093 21.8342 32.0987 21.6063 32.2775 21.4543C32.4652 21.2934 32.7111 21.2129 33.015 21.2129C33.319 21.2129 33.5604 21.2934 33.7391 21.4543C33.9269 21.6063 34.0207 21.8342 34.0207 22.1382V24.0155H36.3272V22.1382C36.3272 21.8342 36.4166 21.6063 36.5954 21.4543C36.7831 21.2934 37.029 21.2129 37.3329 21.2129C37.6369 21.2129 37.8782 21.2934 38.057 21.4543C38.2448 21.6063 38.3386 21.8342 38.3386 22.1382V24.4983H40.4171V21.6286C40.4171 21.3157 40.5154 21.0744 40.7121 20.9045C40.9177 20.7347 41.177 20.6497 41.4899 20.6497C41.8028 20.6497 42.0575 20.7347 42.2542 20.9045C42.4598 21.0744 42.5626 21.3157 42.5626 21.6286V32.1149C42.5626 32.4278 42.4598 32.6692 42.2542 32.839C42.0575 33.0089 41.8028 33.0938 41.4899 33.0938C41.177 33.0938 40.9177 33.0089 40.7121 32.839C40.5154 32.6692 40.4171 32.4278 40.4171 32.1149V26.2817H38.3386V28.5748C38.3386 29.4598 37.8916 29.9023 36.9977 29.9023H33.3503C32.4563 29.9023 32.0093 29.4598 32.0093 28.5748V22.1382ZM34.0207 25.7588V27.9177C34.0207 28.016 34.0342 28.0831 34.061 28.1189C34.0878 28.1457 34.1504 28.1591 34.2487 28.1591H36.0992C36.1976 28.1591 36.2601 28.1457 36.287 28.1189C36.3138 28.0831 36.3272 28.016 36.3272 27.9177V25.7588H34.0207ZM53.1422 21.6286C53.1422 21.3157 53.2406 21.0744 53.4373 20.9045C53.6429 20.7347 53.9021 20.6497 54.215 20.6497C54.5279 20.6497 54.7827 20.7347 54.9794 20.9045C55.185 21.0744 55.2878 21.3157 55.2878 21.6286V26.9254C55.2878 27.2383 55.185 27.4797 54.9794 27.6495C54.7827 27.8194 54.5279 27.9043 54.215 27.9043C53.9021 27.9043 53.6429 27.8194 53.4373 27.6495C53.2406 27.4797 53.1422 27.2383 53.1422 26.9254V21.6286ZM50.9028 28.1054C51.5465 28.1054 52.1365 28.1546 52.6729 28.253C53.2182 28.3423 53.6831 28.4899 54.0675 28.6955C54.4519 28.9011 54.7514 29.1648 54.9659 29.4866C55.1805 29.8085 55.2878 30.2018 55.2878 30.6667C55.2878 31.1315 55.1805 31.5249 54.9659 31.8467C54.7514 32.1685 54.4519 32.4323 54.0675 32.6379C53.6831 32.8435 53.2182 32.991 52.6729 33.0804C52.1365 33.1787 51.5465 33.2279 50.9028 33.2279C50.2592 33.2279 49.6647 33.1787 49.1194 33.0804C48.583 32.991 48.1226 32.8435 47.7382 32.6379C47.3538 32.4323 47.0543 32.1685 46.8398 31.8467C46.6252 31.5249 46.5179 31.1315 46.5179 30.6667C46.5179 30.2018 46.6252 29.8085 46.8398 29.4866C47.0543 29.1648 47.3538 28.9011 47.7382 28.6955C48.1226 28.4899 48.583 28.3423 49.1194 28.253C49.6647 28.1546 50.2592 28.1054 50.9028 28.1054ZM50.9028 31.5919C51.18 31.5919 51.4526 31.5785 51.7208 31.5517C51.989 31.5249 52.2259 31.4757 52.4315 31.4042C52.6461 31.3327 52.8159 31.2388 52.9411 31.1226C53.0752 30.9974 53.1422 30.8455 53.1422 30.6667C53.1422 30.4879 53.0752 30.3404 52.9411 30.2242C52.8159 30.099 52.6461 30.0007 52.4315 29.9291C52.2259 29.8576 51.989 29.8085 51.7208 29.7816C51.4526 29.7548 51.18 29.7414 50.9028 29.7414C50.6257 29.7414 50.3531 29.7548 50.0849 29.7816C49.8167 29.8085 49.5753 29.8576 49.3608 29.9291C49.1551 30.0007 48.9853 30.099 48.8512 30.2242C48.726 30.3404 48.6635 30.4879 48.6635 30.6667C48.6635 30.8455 48.726 30.9974 48.8512 31.1226C48.9853 31.2388 49.1551 31.3327 49.3608 31.4042C49.5753 31.4757 49.8167 31.5249 50.0849 31.5517C50.3531 31.5785 50.6257 31.5919 50.9028 31.5919ZM51.4795 27.14C50.8 27.2383 50.134 27.3098 49.4814 27.3545C48.8378 27.3903 48.1494 27.4081 47.4164 27.4081H46.3838C45.9279 27.4081 45.5971 27.3098 45.3915 27.1131C45.1859 26.9075 45.0831 26.5857 45.0831 26.1477V24.6056C45.0831 24.1675 45.1859 23.8457 45.3915 23.6401C45.5971 23.4345 45.9279 23.3316 46.3838 23.3316H49.0657C49.182 23.3316 49.2401 23.2735 49.2401 23.1573V22.6746C49.2401 22.6031 49.2267 22.5584 49.1998 22.5405C49.182 22.5226 49.1373 22.5137 49.0657 22.5137H46.0754C45.8072 22.5137 45.5837 22.4466 45.4049 22.3125C45.2351 22.1695 45.1502 21.9683 45.1502 21.7091C45.1502 21.4409 45.2351 21.2398 45.4049 21.1057C45.5837 20.9626 45.8072 20.8911 46.0754 20.8911H49.9508C50.4156 20.8911 50.7464 20.9894 50.9431 21.1861C51.1487 21.3828 51.2515 21.7091 51.2515 22.165V23.6132C51.2515 24.0692 51.1487 24.3999 50.9431 24.6056C50.7464 24.8022 50.4156 24.9006 49.9508 24.9006H47.2555C47.1839 24.9006 47.1392 24.9095 47.1214 24.9274C47.1035 24.9453 47.0945 24.99 47.0945 25.0615V25.6649C47.0945 25.7364 47.1035 25.7811 47.1214 25.799C47.1392 25.8169 47.1839 25.8258 47.2555 25.8258H47.765C48.3819 25.8258 48.9763 25.8035 49.5485 25.7588C50.1206 25.7141 50.6749 25.6515 51.2113 25.571C51.4705 25.5263 51.694 25.5487 51.8817 25.6381C52.0695 25.7275 52.1902 25.9063 52.2438 26.1745C52.2974 26.4427 52.2483 26.6617 52.0963 26.8315C51.9443 26.9925 51.7387 27.0953 51.4795 27.14Z" fill="black"/>
</g>
<path d="M95.7031 31.4688V32.7129H84.4102V31.4688H89.2773V28.7754H85.6543V22.8145H94.4043V28.7754H90.7812V31.4688H95.7031ZM87.1445 24.0312V27.5859H92.9004V24.0312H87.1445ZM106.805 21.8711V28.8711H105.273V21.8711H106.805ZM106.805 29.4727V34.0664H98.6016V29.4727H106.805ZM100.105 30.6758V32.8359H105.314V30.6758H100.105ZM100.064 22.459C101.965 22.459 103.387 23.6621 103.387 25.4121C103.387 27.1074 101.965 28.3379 100.064 28.3379C98.1504 28.3379 96.7285 27.1074 96.7285 25.4121C96.7285 23.6621 98.1504 22.459 100.064 22.459ZM100.064 23.7441C98.9844 23.7441 98.2051 24.3867 98.2188 25.4121C98.2051 26.4102 98.9844 27.0527 100.064 27.0527C101.131 27.0527 101.896 26.4102 101.896 25.4121C101.896 24.3867 101.131 23.7441 100.064 23.7441ZM116.375 24.3867C116.375 25.7129 117.373 27.0117 119.314 27.5312L118.631 28.6934C117.195 28.3174 116.184 27.4971 115.637 26.4375C115.083 27.5996 114.044 28.502 112.588 28.9258L111.863 27.7227C113.818 27.2031 114.857 25.8359 114.857 24.3867V24.3457H112.273V23.1426H114.857V21.8027H116.389V23.1426H118.959V24.3457H116.375V24.3867ZM121.68 21.8574V24.7285H123.402V25.9863H121.68V28.9395H120.162V21.8574H121.68ZM121.857 29.5137V30.7305H118.59C118.877 31.7559 120.265 32.7129 122.377 33.0137L121.83 34.1758C119.896 33.9023 118.433 33.0752 117.715 31.9473C117.004 33.0684 115.555 33.875 113.641 34.1484L113.08 33C115.199 32.7061 116.573 31.7832 116.867 30.7305H113.586V29.5137H121.857ZM134.354 21.8574V34.2168H132.822V21.8574H134.354ZM130.662 23.1699C130.662 26.8477 129.24 29.9785 124.906 32.0293L124.113 30.8125C127.347 29.2744 128.851 27.1826 129.117 24.373H124.742V23.1699H130.662Z" fill="#111827"/>
<path d="M151.527 23.9766C151.527 24.9541 151.76 26.2119 152.594 27.1074C153.407 26.2256 153.619 24.9814 153.633 23.9766V23.8672H152.854V22.6504H156.408V23.8672H155.082V23.9766C155.082 25.3027 155.561 26.8477 156.969 27.5586L156.176 28.666C155.253 28.1738 154.686 27.3604 154.371 26.4102C154.063 27.3877 153.53 28.2695 152.594 28.8027C151.671 28.2764 151.131 27.4014 150.83 26.4512C150.502 27.3877 149.935 28.1943 149.025 28.666L148.219 27.5586C149.613 26.8203 150.119 25.2891 150.119 23.9766V23.8672H148.684V22.6504H152.32V23.8672H151.527V23.9766ZM158.91 21.8574V29.0625H157.393V21.8574H158.91ZM158.91 29.6777V34.0664H150.461V29.6777H158.91ZM151.965 30.8672V32.8359H157.434V30.8672H151.965ZM170.258 21.8711V25.7539H171.98V27.0117H170.258V31.0996H168.74V21.8711H170.258ZM167.852 23.2383V24.4551H160.523V23.2383H163.436V21.8574H164.953V23.2383H167.852ZM164.188 24.9609C165.965 24.9609 167.195 25.9043 167.209 27.3262C167.195 28.7344 165.965 29.6641 164.188 29.6641C162.396 29.6641 161.152 28.7344 161.152 27.3262C161.152 25.9043 162.396 24.9609 164.188 24.9609ZM164.188 26.1367C163.244 26.1367 162.629 26.5742 162.629 27.3262C162.629 28.0645 163.244 28.502 164.188 28.4883C165.131 28.502 165.76 28.0645 165.76 27.3262C165.76 26.5742 165.131 26.1367 164.188 26.1367ZM170.75 32.7402V33.9707H162.342V30.375H163.859V32.7402H170.75ZM187.225 31.4688V32.7129H175.932V31.4688H180.799V28.7754H177.176V22.8145H185.926V28.7754H182.303V31.4688H187.225ZM178.666 24.0312V27.5859H184.422V24.0312H178.666ZM198.326 21.8711V28.8711H196.795V21.8711H198.326ZM198.326 29.4727V34.0664H190.123V29.4727H198.326ZM191.627 30.6758V32.8359H196.836V30.6758H191.627ZM191.586 22.459C193.486 22.459 194.908 23.6621 194.908 25.4121C194.908 27.1074 193.486 28.3379 191.586 28.3379C189.672 28.3379 188.25 27.1074 188.25 25.4121C188.25 23.6621 189.672 22.459 191.586 22.459ZM191.586 23.7441C190.506 23.7441 189.727 24.3867 189.74 25.4121C189.727 26.4102 190.506 27.0527 191.586 27.0527C192.652 27.0527 193.418 26.4102 193.418 25.4121C193.418 24.3867 192.652 23.7441 191.586 23.7441Z" fill="#111827"/>
<path d="M223.703 31.4688V32.7129H212.41V31.4688H217.277V28.7754H213.654V22.8145H222.404V28.7754H218.781V31.4688H223.703ZM215.145 24.0312V27.5859H220.9V24.0312H215.145ZM235.789 28.0098V29.2266H224.51V28.0098H235.789ZM234.531 25.6582V26.8887H225.891V22.3496H234.422V23.5527H227.408V25.6582H234.531ZM234.613 32.7266V33.957H225.904V30.3066H227.395V32.7266H234.613ZM250.227 21.8574V34.2305H248.723V21.8574H250.227ZM246.426 22.9375V27.5723H242.174V30.0605C244.122 30.0469 245.804 29.9512 247.725 29.623L247.861 30.8672C245.756 31.2363 243.91 31.3047 241.695 31.3047H240.615V26.3691H244.881V24.168H240.602V22.9375H246.426ZM263.311 28.9258V30.1562H260.658V34.2168H259.141V30.1562H256.215V34.2168H254.656V30.1562H252.018V28.9258H263.311ZM254.889 22.3359V23.8125H260.412V22.3359H261.943V27.668H253.385V22.3359H254.889ZM254.889 26.4512H260.412V25.002H254.889V26.4512Z" fill="#111827"/>
<g clip-path="url(#clip8_523_14933)">
<circle cx="339" cy="28" r="19.5" fill="#F9FAFB" stroke="#9CA3AF"/>
<circle cx="339" cy="28" r="19" stroke="#E5E7EB" stroke-width="2"/>
<path fill-rule="evenodd" clip-rule="evenodd" d="M350.462 32.9949C348.534 37.4124 344.127 40.5 339 40.5C333.556 40.5 328.926 37.0209 327.21 32.1651C324.966 32.1003 323.166 30.2604 323.166 28.0002C323.166 25.74 324.966 23.9001 327.21 23.8353C328.926 18.9793 333.556 15.5 339 15.5C344.755 15.5 349.602 19.39 351.055 24.6844C353.174 24.8805 354.833 26.6631 354.833 28.8332C354.833 31.1344 352.967 32.9998 350.666 32.9998C350.598 32.9998 350.529 32.9982 350.462 32.9949Z" fill="#E5E7EB"/>
<path fill-rule="evenodd" clip-rule="evenodd" d="M337.833 26.0017C337.439 25.2112 336.585 24.667 335.577 24.667C335.136 24.667 334.454 24.9623 334.173 25.4423C334.133 25.5531 333.972 25.5531 333.932 25.4423C333.611 24.9993 332.969 24.7039 332.488 24.7039C331.164 24.7039 330.04 25.7007 330 26.9191V26.9929C330 27.6205 330.281 28.2112 330.762 28.6543V28.6912C330.802 28.7281 332.728 30.2787 333.611 30.9802C333.852 31.1648 334.213 31.1648 334.454 30.9802C334.824 30.6855 335.372 30.2411 335.889 29.8219L335.889 29.8218C336.602 29.2431 337.256 28.7126 337.302 28.6912V28.6543C337.728 28.2951 337.997 27.7917 338.053 27.2204C338.331 27.1863 338.645 27.1671 339 27.1671C339.539 27.1671 339.985 27.2115 340.351 27.2851C340.351 27.2973 340.35 27.3096 340.35 27.322V27.3958C340.35 28.0234 340.631 28.6141 341.112 29.0571V29.0941C341.152 29.131 343.078 30.6816 343.961 31.3831C344.202 31.5676 344.563 31.5676 344.803 31.3831C345.174 31.0884 345.722 30.6439 346.238 30.2247C346.952 29.646 347.605 29.1155 347.652 29.0941V29.0571C348.133 28.651 348.414 28.0603 348.414 27.3958V27.322C348.374 26.0667 347.291 25.0699 345.927 25.0699C345.485 25.0699 344.803 25.3652 344.522 25.8452C344.482 25.9559 344.322 25.9559 344.282 25.8452C343.961 25.4022 343.319 25.1068 342.837 25.1068C341.985 25.1068 341.216 25.52 340.765 26.1396C340.336 26.0057 339.761 25.9171 339 25.9171C338.548 25.9171 338.162 25.9483 337.833 26.0017Z" fill="#6B7280"/>
<path d="M336.916 31.75C337.055 32.0278 337.666 32.5833 338.999 32.5833C340.333 32.5833 340.944 32.0278 341.083 31.75" stroke="#6B7280" stroke-width="1.25" stroke-linecap="round" stroke-linejoin="round"/>
<path d="M336.995 17.2973C336.557 17.6399 335.87 19.0201 336.249 19.9911C336.627 20.9621 337.22 21.2026 337.52 21.28" stroke="#6B7280" stroke-width="0.993658" stroke-linecap="round"/>
<path d="M339.65 17.9818C339.212 18.2803 338.897 19.5641 339.317 20.4612C339.629 21.1288 340.427 21.3879 340.681 21.4532" stroke="#6B7280" stroke-width="0.993658" stroke-linecap="round"/>
<path d="M341.858 18.4377C341.649 18.7126 341.802 19.505 342.163 20.0414C342.376 20.3586 343.02 20.8217 343.191 20.8099" stroke="#6B7280" stroke-width="0.991667" stroke-linecap="round"/>
</g>
</g>
<path d="M375 54H0V58H375V54Z" fill="#DADBD8" mask="url(#path-40-inside-3_523_14933)"/>
</g>
<defs>
<clipPath id="clip0_523_14933">
<rect width="375" height="667" rx="20" fill="white"/>
</clipPath>
<clipPath id="clip1_523_14933">
<path d="M0 0H375V56H0V0Z" fill="white"/>
</clipPath>
<clipPath id="clip2_523_14933">
<rect width="56" height="27" fill="white" transform="translate(16 14.5)"/>
</clipPath>
<clipPath id="clip3_523_14933">
<rect width="40" height="40" fill="white" transform="translate(319 8)"/>
</clipPath>
<clipPath id="clip4_523_14933">
<path d="M32 294C32 280.745 42.7452 270 56 270H319C332.255 270 343 280.745 343 294V402C343 415.255 332.255 426 319 426H56C42.7452 426 32 415.255 32 402V294Z" fill="white"/>
</clipPath>
<clipPath id="clip5_523_14933">
<path d="M32 666C32 652.745 42.7452 642 56 642H319C332.255 642 343 652.745 343 666V774C343 787.255 332.255 798 319 798H56C42.7452 798 32 787.255 32 774V666Z" fill="white"/>
</clipPath>
<clipPath id="clip6_523_14933">
<path d="M0 0H375V56H0V0Z" fill="white"/>
</clipPath>
<clipPath id="clip7_523_14933">
<rect width="56" height="27" fill="white" transform="translate(16 14.5)"/>
</clipPath>
<clipPath id="clip8_523_14933">
<rect width="40" height="40" fill="white" transform="translate(319 8)"/>
</clipPath>
</defs>
</svg>
