<svg width="375" height="667" viewBox="0 0 375 667" fill="none" xmlns="http://www.w3.org/2000/svg">
<g clip-path="url(#clip0_523_11923)">
<rect width="375" height="667" rx="20" fill="#F9FAFB"/>
<g clip-path="url(#clip1_523_11923)">
<mask id="path-2-inside-1_523_11923" fill="white">
<path d="M0 -1H375V55H0V-1Z"/>
</mask>
<path d="M0 -1H375V55H0V-1Z" fill="white"/>
<g clip-path="url(#clip2_523_11923)">
<path d="M27.2392 30.7931C27.2392 31.097 27.1543 31.325 26.9844 31.477C26.8235 31.6289 26.5911 31.7049 26.2871 31.7049C25.9832 31.7049 25.7463 31.6289 25.5764 31.477C25.4155 31.325 25.335 31.097 25.335 30.7931V25.322H24.3159C24.2801 25.8852 24.2042 26.3947 24.0879 26.8507C23.9717 27.3066 23.7974 27.691 23.565 28.0039C23.3415 28.3168 23.0599 28.5581 22.7202 28.728C22.3805 28.8979 21.9737 28.9828 21.4999 28.9828C20.9725 28.9828 20.5255 28.88 20.1589 28.6744C19.7924 28.4598 19.4929 28.1603 19.2605 27.7759C19.037 27.3915 18.8761 26.9267 18.7778 26.3813C18.6794 25.8271 18.6302 25.2102 18.6302 24.5308C18.6302 23.8514 18.6794 23.239 18.7778 22.6937C18.8761 22.1394 19.037 21.6701 19.2605 21.2857C19.4929 20.9013 19.7924 20.6063 20.1589 20.4007C20.5255 20.1861 20.9725 20.0788 21.4999 20.0788C21.9648 20.0788 22.367 20.1638 22.7068 20.3336C23.0465 20.4945 23.3281 20.7314 23.5516 21.0443C23.775 21.3483 23.9449 21.7237 24.0611 22.1707C24.1863 22.6088 24.2712 23.1049 24.3159 23.6592H25.335V20.6957C25.335 20.3917 25.4155 20.1638 25.5764 20.0118C25.7463 19.8598 25.9832 19.7838 26.2871 19.7838C26.5911 19.7838 26.8235 19.8598 26.9844 20.0118C27.1543 20.1638 27.2392 20.3917 27.2392 20.6957V30.7931ZM29.8809 31.1685C29.8809 31.4725 29.7959 31.7005 29.6261 31.8524C29.4562 32.0133 29.2193 32.0938 28.9154 32.0938C28.6114 32.0938 28.3745 32.0133 28.2047 31.8524C28.0348 31.7005 27.9499 31.4725 27.9499 31.1685V20.575C27.9499 20.271 28.0348 20.0431 28.2047 19.8911C28.3745 19.7302 28.6114 19.6497 28.9154 19.6497C29.2193 19.6497 29.4562 19.7302 29.6261 19.8911C29.7959 20.0431 29.8809 20.271 29.8809 20.575V31.1685ZM20.4942 24.5308C20.4942 25.398 20.5657 26.0729 20.7087 26.5557C20.8518 27.0295 21.1155 27.2664 21.4999 27.2664C21.8843 27.2664 22.148 27.0295 22.2911 26.5557C22.4341 26.0729 22.5056 25.398 22.5056 24.5308C22.5056 23.6637 22.4341 22.9932 22.2911 22.5194C22.148 22.0366 21.8843 21.7953 21.4999 21.7953C21.1155 21.7953 20.8518 22.0366 20.7087 22.5194C20.5657 22.9932 20.4942 23.6637 20.4942 24.5308ZM32.0093 21.1382C32.0093 20.8342 32.0987 20.6063 32.2775 20.4543C32.4652 20.2934 32.7111 20.2129 33.015 20.2129C33.319 20.2129 33.5604 20.2934 33.7391 20.4543C33.9269 20.6063 34.0207 20.8342 34.0207 21.1382V23.0155H36.3272V21.1382C36.3272 20.8342 36.4166 20.6063 36.5954 20.4543C36.7831 20.2934 37.029 20.2129 37.3329 20.2129C37.6369 20.2129 37.8782 20.2934 38.057 20.4543C38.2448 20.6063 38.3386 20.8342 38.3386 21.1382V23.4983H40.4171V20.6286C40.4171 20.3157 40.5154 20.0744 40.7121 19.9045C40.9177 19.7347 41.177 19.6497 41.4899 19.6497C41.8028 19.6497 42.0575 19.7347 42.2542 19.9045C42.4598 20.0744 42.5626 20.3157 42.5626 20.6286V31.1149C42.5626 31.4278 42.4598 31.6692 42.2542 31.839C42.0575 32.0089 41.8028 32.0938 41.4899 32.0938C41.177 32.0938 40.9177 32.0089 40.7121 31.839C40.5154 31.6692 40.4171 31.4278 40.4171 31.1149V25.2817H38.3386V27.5748C38.3386 28.4598 37.8916 28.9023 36.9977 28.9023H33.3503C32.4563 28.9023 32.0093 28.4598 32.0093 27.5748V21.1382ZM34.0207 24.7588V26.9177C34.0207 27.016 34.0342 27.0831 34.061 27.1189C34.0878 27.1457 34.1504 27.1591 34.2487 27.1591H36.0992C36.1976 27.1591 36.2601 27.1457 36.287 27.1189C36.3138 27.0831 36.3272 27.016 36.3272 26.9177V24.7588H34.0207ZM53.1422 20.6286C53.1422 20.3157 53.2406 20.0744 53.4373 19.9045C53.6429 19.7347 53.9021 19.6497 54.215 19.6497C54.5279 19.6497 54.7827 19.7347 54.9794 19.9045C55.185 20.0744 55.2878 20.3157 55.2878 20.6286V25.9254C55.2878 26.2383 55.185 26.4797 54.9794 26.6495C54.7827 26.8194 54.5279 26.9043 54.215 26.9043C53.9021 26.9043 53.6429 26.8194 53.4373 26.6495C53.2406 26.4797 53.1422 26.2383 53.1422 25.9254V20.6286ZM50.9028 27.1054C51.5465 27.1054 52.1365 27.1546 52.6729 27.253C53.2182 27.3423 53.6831 27.4899 54.0675 27.6955C54.4519 27.9011 54.7514 28.1648 54.9659 28.4866C55.1805 28.8085 55.2878 29.2018 55.2878 29.6667C55.2878 30.1315 55.1805 30.5249 54.9659 30.8467C54.7514 31.1685 54.4519 31.4323 54.0675 31.6379C53.6831 31.8435 53.2182 31.991 52.6729 32.0804C52.1365 32.1787 51.5465 32.2279 50.9028 32.2279C50.2592 32.2279 49.6647 32.1787 49.1194 32.0804C48.583 31.991 48.1226 31.8435 47.7382 31.6379C47.3538 31.4323 47.0543 31.1685 46.8398 30.8467C46.6252 30.5249 46.5179 30.1315 46.5179 29.6667C46.5179 29.2018 46.6252 28.8085 46.8398 28.4866C47.0543 28.1648 47.3538 27.9011 47.7382 27.6955C48.1226 27.4899 48.583 27.3423 49.1194 27.253C49.6647 27.1546 50.2592 27.1054 50.9028 27.1054ZM50.9028 30.5919C51.18 30.5919 51.4526 30.5785 51.7208 30.5517C51.989 30.5249 52.2259 30.4757 52.4315 30.4042C52.6461 30.3327 52.8159 30.2388 52.9411 30.1226C53.0752 29.9974 53.1422 29.8455 53.1422 29.6667C53.1422 29.4879 53.0752 29.3404 52.9411 29.2242C52.8159 29.099 52.6461 29.0007 52.4315 28.9291C52.2259 28.8576 51.989 28.8085 51.7208 28.7816C51.4526 28.7548 51.18 28.7414 50.9028 28.7414C50.6257 28.7414 50.3531 28.7548 50.0849 28.7816C49.8167 28.8085 49.5753 28.8576 49.3608 28.9291C49.1551 29.0007 48.9853 29.099 48.8512 29.2242C48.726 29.3404 48.6635 29.4879 48.6635 29.6667C48.6635 29.8455 48.726 29.9974 48.8512 30.1226C48.9853 30.2388 49.1551 30.3327 49.3608 30.4042C49.5753 30.4757 49.8167 30.5249 50.0849 30.5517C50.3531 30.5785 50.6257 30.5919 50.9028 30.5919ZM51.4795 26.14C50.8 26.2383 50.134 26.3098 49.4814 26.3545C48.8378 26.3903 48.1494 26.4081 47.4164 26.4081H46.3838C45.9279 26.4081 45.5971 26.3098 45.3915 26.1131C45.1859 25.9075 45.0831 25.5857 45.0831 25.1477V23.6056C45.0831 23.1675 45.1859 22.8457 45.3915 22.6401C45.5971 22.4345 45.9279 22.3316 46.3838 22.3316H49.0657C49.182 22.3316 49.2401 22.2735 49.2401 22.1573V21.6746C49.2401 21.6031 49.2267 21.5584 49.1998 21.5405C49.182 21.5226 49.1373 21.5137 49.0657 21.5137H46.0754C45.8072 21.5137 45.5837 21.4466 45.4049 21.3125C45.2351 21.1695 45.1502 20.9683 45.1502 20.7091C45.1502 20.4409 45.2351 20.2398 45.4049 20.1057C45.5837 19.9626 45.8072 19.8911 46.0754 19.8911H49.9508C50.4156 19.8911 50.7464 19.9894 50.9431 20.1861C51.1487 20.3828 51.2515 20.7091 51.2515 21.165V22.6132C51.2515 23.0692 51.1487 23.3999 50.9431 23.6056C50.7464 23.8022 50.4156 23.9006 49.9508 23.9006H47.2555C47.1839 23.9006 47.1392 23.9095 47.1214 23.9274C47.1035 23.9453 47.0945 23.99 47.0945 24.0615V24.6649C47.0945 24.7364 47.1035 24.7811 47.1214 24.799C47.1392 24.8169 47.1839 24.8258 47.2555 24.8258H47.765C48.3819 24.8258 48.9763 24.8035 49.5485 24.7588C50.1206 24.7141 50.6749 24.6515 51.2113 24.571C51.4705 24.5263 51.694 24.5487 51.8817 24.6381C52.0695 24.7275 52.1902 24.9063 52.2438 25.1745C52.2974 25.4427 52.2483 25.6617 52.0963 25.8315C51.9443 25.9925 51.7387 26.0953 51.4795 26.14Z" fill="black"/>
</g>
<path d="M95.7031 30.4688V31.7129H84.4102V30.4688H89.2773V27.7754H85.6543V21.8145H94.4043V27.7754H90.7812V30.4688H95.7031ZM87.1445 23.0312V26.5859H92.9004V23.0312H87.1445ZM106.805 20.8711V27.8711H105.273V20.8711H106.805ZM106.805 28.4727V33.0664H98.6016V28.4727H106.805ZM100.105 29.6758V31.8359H105.314V29.6758H100.105ZM100.064 21.459C101.965 21.459 103.387 22.6621 103.387 24.4121C103.387 26.1074 101.965 27.3379 100.064 27.3379C98.1504 27.3379 96.7285 26.1074 96.7285 24.4121C96.7285 22.6621 98.1504 21.459 100.064 21.459ZM100.064 22.7441C98.9844 22.7441 98.2051 23.3867 98.2188 24.4121C98.2051 25.4102 98.9844 26.0527 100.064 26.0527C101.131 26.0527 101.896 25.4102 101.896 24.4121C101.896 23.3867 101.131 22.7441 100.064 22.7441ZM116.375 23.3867C116.375 24.7129 117.373 26.0117 119.314 26.5312L118.631 27.6934C117.195 27.3174 116.184 26.4971 115.637 25.4375C115.083 26.5996 114.044 27.502 112.588 27.9258L111.863 26.7227C113.818 26.2031 114.857 24.8359 114.857 23.3867V23.3457H112.273V22.1426H114.857V20.8027H116.389V22.1426H118.959V23.3457H116.375V23.3867ZM121.68 20.8574V23.7285H123.402V24.9863H121.68V27.9395H120.162V20.8574H121.68ZM121.857 28.5137V29.7305H118.59C118.877 30.7559 120.265 31.7129 122.377 32.0137L121.83 33.1758C119.896 32.9023 118.433 32.0752 117.715 30.9473C117.004 32.0684 115.555 32.875 113.641 33.1484L113.08 32C115.199 31.7061 116.573 30.7832 116.867 29.7305H113.586V28.5137H121.857ZM134.354 20.8574V33.2168H132.822V20.8574H134.354ZM130.662 22.1699C130.662 25.8477 129.24 28.9785 124.906 31.0293L124.113 29.8125C127.347 28.2744 128.851 26.1826 129.117 23.373H124.742V22.1699H130.662Z" fill="#171717"/>
<path d="M151.527 22.9766C151.527 23.9541 151.76 25.2119 152.594 26.1074C153.407 25.2256 153.619 23.9814 153.633 22.9766V22.8672H152.854V21.6504H156.408V22.8672H155.082V22.9766C155.082 24.3027 155.561 25.8477 156.969 26.5586L156.176 27.666C155.253 27.1738 154.686 26.3604 154.371 25.4102C154.063 26.3877 153.53 27.2695 152.594 27.8027C151.671 27.2764 151.131 26.4014 150.83 25.4512C150.502 26.3877 149.935 27.1943 149.025 27.666L148.219 26.5586C149.613 25.8203 150.119 24.2891 150.119 22.9766V22.8672H148.684V21.6504H152.32V22.8672H151.527V22.9766ZM158.91 20.8574V28.0625H157.393V20.8574H158.91ZM158.91 28.6777V33.0664H150.461V28.6777H158.91ZM151.965 29.8672V31.8359H157.434V29.8672H151.965ZM170.258 20.8711V24.7539H171.98V26.0117H170.258V30.0996H168.74V20.8711H170.258ZM167.852 22.2383V23.4551H160.523V22.2383H163.436V20.8574H164.953V22.2383H167.852ZM164.188 23.9609C165.965 23.9609 167.195 24.9043 167.209 26.3262C167.195 27.7344 165.965 28.6641 164.188 28.6641C162.396 28.6641 161.152 27.7344 161.152 26.3262C161.152 24.9043 162.396 23.9609 164.188 23.9609ZM164.188 25.1367C163.244 25.1367 162.629 25.5742 162.629 26.3262C162.629 27.0645 163.244 27.502 164.188 27.4883C165.131 27.502 165.76 27.0645 165.76 26.3262C165.76 25.5742 165.131 25.1367 164.188 25.1367ZM170.75 31.7402V32.9707H162.342V29.375H163.859V31.7402H170.75ZM187.225 30.4688V31.7129H175.932V30.4688H180.799V27.7754H177.176V21.8145H185.926V27.7754H182.303V30.4688H187.225ZM178.666 23.0312V26.5859H184.422V23.0312H178.666ZM198.326 20.8711V27.8711H196.795V20.8711H198.326ZM198.326 28.4727V33.0664H190.123V28.4727H198.326ZM191.627 29.6758V31.8359H196.836V29.6758H191.627ZM191.586 21.459C193.486 21.459 194.908 22.6621 194.908 24.4121C194.908 26.1074 193.486 27.3379 191.586 27.3379C189.672 27.3379 188.25 26.1074 188.25 24.4121C188.25 22.6621 189.672 21.459 191.586 21.459ZM191.586 22.7441C190.506 22.7441 189.727 23.3867 189.74 24.4121C189.727 25.4102 190.506 26.0527 191.586 26.0527C192.652 26.0527 193.418 25.4102 193.418 24.4121C193.418 23.3867 192.652 22.7441 191.586 22.7441Z" fill="#171717"/>
<path d="M223.703 30.4688V31.7129H212.41V30.4688H217.277V27.7754H213.654V21.8145H222.404V27.7754H218.781V30.4688H223.703ZM215.145 23.0312V26.5859H220.9V23.0312H215.145ZM235.789 27.0098V28.2266H224.51V27.0098H235.789ZM234.531 24.6582V25.8887H225.891V21.3496H234.422V22.5527H227.408V24.6582H234.531ZM234.613 31.7266V32.957H225.904V29.3066H227.395V31.7266H234.613ZM250.227 20.8574V33.2305H248.723V20.8574H250.227ZM246.426 21.9375V26.5723H242.174V29.0605C244.122 29.0469 245.804 28.9512 247.725 28.623L247.861 29.8672C245.756 30.2363 243.91 30.3047 241.695 30.3047H240.615V25.3691H244.881V23.168H240.602V21.9375H246.426ZM263.311 27.9258V29.1562H260.658V33.2168H259.141V29.1562H256.215V33.2168H254.656V29.1562H252.018V27.9258H263.311ZM254.889 21.3359V22.8125H260.412V21.3359H261.943V26.668H253.385V21.3359H254.889ZM254.889 25.4512H260.412V24.002H254.889V25.4512Z" fill="#171717"/>
<path d="M333.703 30.5234V31.7812H322.41V30.5234H327.277V28.5137H323.75V24.4668H330.859V22.9355H323.723V21.7051H332.363V25.6699H325.268V27.2695H332.65V28.5137H328.781V30.5234H333.703ZM344.34 22.0605V23.4551C344.34 25.1094 344.34 26.8184 343.889 29.416L342.344 29.2793C342.822 26.8457 342.822 25.0547 342.822 23.4551V23.291H335.699V22.0605H344.34ZM345.775 30.2773V31.5215H334.51V30.2773H345.775ZM356.904 20.8711V29.7988H355.373V20.8711H356.904ZM357.246 31.7402V32.9707H348.729V28.8965H350.26V31.7402H357.246ZM350.164 21.6777C352.037 21.6777 353.486 22.9766 353.486 24.7676C353.486 26.5996 352.037 27.8711 350.164 27.8711C348.277 27.8711 346.828 26.5996 346.828 24.7676C346.828 22.9766 348.277 21.6777 350.164 21.6777ZM350.164 23.0039C349.111 23.0039 348.305 23.7012 348.318 24.7676C348.305 25.8613 349.111 26.5449 350.164 26.5449C351.189 26.5449 351.996 25.8613 351.996 24.7676C351.996 23.7012 351.189 23.0039 350.164 23.0039Z" fill="black"/>
</g>
<path d="M375 53H0V57H375V53Z" fill="#D1D5DB" mask="url(#path-2-inside-1_523_11923)"/>
<rect x="16" y="55" width="343" height="682" rx="24" fill="white"/>
<path d="M167.793 92.082V109.738H165.625V92.082H167.793ZM153.164 104.836C154.57 104.826 156.162 104.826 157.832 104.777V103.156C155.84 102.844 154.551 101.623 154.551 99.9531C154.551 97.9609 156.309 96.6328 158.887 96.6328C161.484 96.6328 163.281 97.9609 163.281 99.9531C163.281 101.613 161.982 102.824 160 103.137V104.699C161.553 104.631 163.115 104.504 164.59 104.309L164.746 105.93C160.859 106.594 156.66 106.633 153.477 106.633L153.164 104.836ZM164.277 94.1133V95.832H153.535V94.1133H157.832V92.1406H160V94.1133H164.277ZM158.887 98.293C157.559 98.3125 156.602 98.918 156.621 99.9531C156.602 100.969 157.559 101.574 158.887 101.555C160.273 101.574 161.191 100.969 161.191 99.9531C161.191 98.918 160.273 98.3125 158.887 98.293ZM185.176 92.1016V105.461H182.988V103.918H179.531V102.395H182.988V92.1016H185.176ZM185.586 107.629V109.387H172.637V104.172H174.805V107.629H185.586ZM170.293 100.031C173.555 100.012 177.93 99.9727 181.68 99.5039L181.797 101.066C180.342 101.311 178.838 101.477 177.344 101.574V104.973H175.176V101.691C173.525 101.76 171.953 101.77 170.566 101.77L170.293 100.031ZM176.055 92.7461C178.633 92.7461 180.43 94.0156 180.449 95.8711C180.43 97.7656 178.633 98.9766 176.055 98.9766C173.438 98.9766 171.641 97.7656 171.641 95.8711C171.641 94.0156 173.438 92.7461 176.055 92.7461ZM176.055 94.3477C174.648 94.3477 173.691 94.9141 173.691 95.8711C173.691 96.8281 174.648 97.3945 176.055 97.3945C177.402 97.3945 178.359 96.8281 178.379 95.8711C178.359 94.9141 177.402 94.3477 176.055 94.3477ZM201.484 92.082V98.9766H204.102V100.793H201.484V109.699H199.316V92.082H201.484ZM196.816 93.918C196.816 99.1133 194.668 103.664 188.789 106.555L187.559 104.875C191.855 102.736 194.18 99.7285 194.629 95.7148H188.516V93.918H196.816ZM219.648 92.082V101.555H217.461V92.082H219.648ZM210.117 102.375V104.191H217.48V102.375H219.648V109.523H207.969V102.375H210.117ZM210.117 107.766H217.48V105.891H210.117V107.766ZM210.02 92.8633C212.734 92.8438 214.766 94.543 214.766 97.0039C214.766 99.4062 212.734 101.105 210.02 101.105C207.285 101.105 205.254 99.4062 205.254 97.0039C205.254 94.543 207.285 92.8438 210.02 92.8633ZM210.02 94.6797C208.477 94.6797 207.363 95.5781 207.383 97.0039C207.363 98.4102 208.477 99.3086 210.02 99.3281C211.543 99.3086 212.637 98.4102 212.637 97.0039C212.637 95.5781 211.543 94.6797 210.02 94.6797Z" fill="#1F2937"/>
<path d="M42.6914 150.857V163.23H41.1602V150.857H42.6914ZM36.0332 151.76C37.8926 151.76 39.2461 153.455 39.2598 156.121C39.2461 158.814 37.8926 160.496 36.0332 160.496C34.1602 160.496 32.8066 158.814 32.8066 156.121C32.8066 153.455 34.1602 151.76 36.0332 151.76ZM36.0332 153.127C34.9805 153.127 34.2695 154.234 34.2695 156.121C34.2695 158.021 34.9805 159.129 36.0332 159.129C37.0723 159.129 37.7832 158.021 37.7832 156.121C37.7832 154.234 37.0723 153.127 36.0332 153.127ZM55.7891 157.146V158.35H44.4961V157.146H55.7891ZM54.3945 151.117V154.289H47.4355V155.178H54.6406V156.34H45.9316V153.182H52.877V152.307H45.8906V151.117H54.3945ZM54.4355 159.238V163.066H45.9727V159.238H54.4355ZM47.4629 160.441V161.836H52.9316V160.441H47.4629Z" fill="#111827"/>
<rect x="32" y="175" width="311" height="40" rx="12" fill="#F9FAFB"/>
<path d="M58.5957 188.912V201.189H57.2969V188.912H58.5957ZM52.0469 189.828C53.8652 189.828 55.2051 191.496 55.2051 194.121C55.2051 196.76 53.8652 198.428 52.0469 198.428C50.2012 198.428 48.875 196.76 48.875 194.121C48.875 191.496 50.2012 189.828 52.0469 189.828ZM52.0469 190.99C50.9121 190.99 50.1328 192.193 50.1328 194.121C50.1328 196.062 50.9121 197.266 52.0469 197.266C53.168 197.266 53.9473 196.062 53.9473 194.121C53.9473 192.193 53.168 190.99 52.0469 190.99ZM71.748 195.188V196.227H60.5371V195.188H71.748ZM70.3398 189.186V192.207H63.2578V193.26H70.5859V194.258H61.9727V191.25H69.041V190.211H61.9453V189.186H70.3398ZM70.3535 197.225V201.012H62.0273V197.225H70.3535ZM63.3125 198.264V199.959H69.0684V198.264H63.3125ZM78.2285 189.117C80.9902 189.117 82.6035 189.855 82.6035 191.223C82.6035 192.59 80.9902 193.342 78.2285 193.342C75.4668 193.342 73.8535 192.59 73.8535 191.223C73.8535 189.855 75.4668 189.117 78.2285 189.117ZM78.2285 190.074C76.2734 190.074 75.1934 190.498 75.207 191.223C75.1934 191.975 76.2734 192.371 78.2285 192.371C80.1836 192.371 81.2637 191.975 81.2637 191.223C81.2637 190.498 80.1836 190.074 78.2285 190.074ZM83.8203 194.094V195.133H72.6504V194.094H83.8203ZM82.4121 196.076V198.947H75.2754V200.041H82.7539V201.039H74.0039V198.004H81.127V197.047H73.9902V196.076H82.4121ZM98.3262 188.912V195.488H97.0273V188.912H98.3262ZM91.5859 196.076V197.457H97.041V196.076H98.3262V201.012H90.3145V196.076H91.5859ZM91.5859 199.945H97.041V198.482H91.5859V199.945ZM91.6816 189.473C93.5547 189.473 94.9355 190.635 94.9355 192.316C94.9355 193.998 93.5547 195.16 91.6816 195.146C89.8086 195.16 88.4141 193.998 88.4141 192.316C88.4141 190.635 89.8086 189.473 91.6816 189.473ZM91.6816 190.566C90.5195 190.553 89.6855 191.277 89.6855 192.316C89.6855 193.369 90.5195 194.08 91.6816 194.08C92.8301 194.08 93.6641 193.369 93.6641 192.316C93.6641 191.277 92.8301 190.553 91.6816 190.566ZM106.105 189.65V193.219H102.059V194.914C104.191 194.921 105.354 194.873 106.734 194.613L106.857 195.666C105.367 195.926 104.109 195.967 101.662 195.967H100.773V192.234H104.807V190.689H100.76V189.65H106.105ZM110.48 188.926V196.459H109.182V194.299H106.885V193.26H109.182V191.742H106.885V190.703H109.182V188.926H110.48ZM110.48 197.074V201.176H109.182V198.127H102.168V197.074H110.48ZM118.424 190.936V191.988H112.34V190.936H114.746V189.268H116.031V190.936H118.424ZM115.389 192.727C116.947 192.727 118.041 193.889 118.055 195.543C118.041 197.211 116.947 198.387 115.389 198.387C113.857 198.387 112.723 197.211 112.736 195.543C112.723 193.889 113.857 192.727 115.389 192.727ZM115.389 193.807C114.5 193.807 113.885 194.531 113.885 195.543C113.885 196.582 114.5 197.279 115.389 197.279C116.264 197.279 116.906 196.582 116.906 195.543C116.906 194.531 116.264 193.807 115.389 193.807ZM122.854 188.912V201.162H121.623V195.078H120.215V200.588H118.984V189.186H120.215V194.012H121.623V188.912H122.854ZM135.637 195.816V196.869H130.66V201.148H129.389V196.869H124.467V195.816H135.637ZM134.584 189.637V190.676H130.797C130.817 192.193 132.704 193.547 135.021 193.861L134.543 194.887C132.533 194.572 130.797 193.581 130.059 192.18C129.3 193.581 127.57 194.572 125.588 194.887L125.096 193.861C127.386 193.547 129.272 192.193 129.32 190.676H125.506V189.637H134.584ZM140.299 192.262C140.299 194.217 141.119 196.309 142.76 197.307L142.035 198.305C140.887 197.614 140.107 196.391 139.697 194.969C139.239 196.527 138.398 197.854 137.209 198.578L136.402 197.607C138.139 196.568 139.041 194.408 139.041 192.316V190.033H140.299V192.262ZM147.107 188.912V201.162H145.863V188.912H147.107ZM144.564 189.145V200.561H143.334V194.299H141.434V193.219H143.334V189.145H144.564ZM159.877 198.551V199.631H148.666V198.551H151.346V195.352C150.341 194.798 149.732 193.916 149.732 192.822C149.732 190.895 151.619 189.623 154.244 189.623C156.883 189.623 158.77 190.895 158.77 192.822C158.77 193.902 158.182 194.771 157.197 195.324V198.551H159.877ZM154.244 190.662C152.316 190.662 150.99 191.496 150.99 192.822C150.99 194.135 152.316 194.996 154.244 194.996C156.158 194.996 157.512 194.135 157.512 192.822C157.512 191.496 156.158 190.662 154.244 190.662ZM152.631 198.551H155.885V195.816C155.386 195.946 154.832 196.008 154.244 196.008C153.67 196.008 153.123 195.946 152.631 195.83V198.551Z" fill="#9CA3AF"/>
<path d="M35.7324 243.76C37.5918 243.76 38.9316 245.455 38.9453 248.121C38.9316 250.814 37.5918 252.496 35.7324 252.496C33.8594 252.496 32.5059 250.814 32.5195 248.121C32.5059 245.455 33.8594 243.76 35.7324 243.76ZM35.7324 245.127C34.6934 245.127 33.9824 246.234 33.9824 248.121C33.9824 250.021 34.6934 251.129 35.7324 251.129C36.7852 251.129 37.4824 250.021 37.4824 248.121C37.4824 246.234 36.7852 245.127 35.7324 245.127ZM42.0898 242.857V247.602H43.9902V248.887H42.0898V255.217H40.5723V242.857H42.0898ZM54.791 242.857V255.23H53.2598V242.857H54.791ZM48.1328 243.76C49.9922 243.76 51.3457 245.455 51.3594 248.121C51.3457 250.814 49.9922 252.496 48.1328 252.496C46.2598 252.496 44.9062 250.814 44.9062 248.121C44.9062 245.455 46.2598 243.76 48.1328 243.76ZM48.1328 245.127C47.0801 245.127 46.3691 246.234 46.3691 248.121C46.3691 250.021 47.0801 251.129 48.1328 251.129C49.1719 251.129 49.8828 250.021 49.8828 248.121C49.8828 246.234 49.1719 245.127 48.1328 245.127ZM66.8906 242.857V255.23H65.3594V242.857H66.8906ZM63.3359 243.979V245.223H58.9062V250.965C61.1826 250.958 62.6113 250.89 64.252 250.596L64.4023 251.854C62.6387 252.182 61.0391 252.25 58.4277 252.25H57.375V243.979H63.3359Z" fill="#111827"/>
<rect x="32" y="267" width="311" height="40" rx="12" fill="#F9FAFB"/>
<path d="M58.5957 280.912V293.189H57.2969V280.912H58.5957ZM52.0469 281.828C53.8652 281.828 55.2051 283.496 55.2051 286.121C55.2051 288.76 53.8652 290.428 52.0469 290.428C50.2012 290.428 48.875 288.76 48.875 286.121C48.875 283.496 50.2012 281.828 52.0469 281.828ZM52.0469 282.99C50.9121 282.99 50.1328 284.193 50.1328 286.121C50.1328 288.062 50.9121 289.266 52.0469 289.266C53.168 289.266 53.9473 288.062 53.9473 286.121C53.9473 284.193 53.168 282.99 52.0469 282.99ZM65.7188 282.293V285.479H67.3594V281.145H68.6035V292.561H67.3594V286.545H65.7188V289.936H60.9609V282.293H65.7188ZM62.1914 283.318V288.896H64.502V283.318H62.1914ZM71.0918 280.912V293.162H69.8477V280.912H71.0918ZM76.123 281.322C77.9688 281.336 79.3223 282.471 79.3359 284.07C79.3223 285.684 77.9688 286.805 76.123 286.805C74.2637 286.805 72.8965 285.684 72.8965 284.07C72.8965 282.471 74.2637 281.336 76.123 281.322ZM76.123 282.416C74.9883 282.402 74.1543 283.072 74.168 284.07C74.1543 285.082 74.9883 285.752 76.123 285.752C77.2441 285.752 78.0781 285.082 78.0781 284.07C78.0781 283.072 77.2441 282.402 76.123 282.416ZM82.8086 280.912V287.146H81.5098V280.912H82.8086ZM82.8086 287.707V290.797H76.0547V291.973H83.2188V293.012H74.7969V289.826H81.5234V288.746H74.7559V287.707H82.8086ZM90.3281 281.117C93.0898 281.117 94.7031 281.855 94.7031 283.223C94.7031 284.59 93.0898 285.342 90.3281 285.342C87.5664 285.342 85.9531 284.59 85.9531 283.223C85.9531 281.855 87.5664 281.117 90.3281 281.117ZM90.3281 282.074C88.373 282.074 87.293 282.498 87.3066 283.223C87.293 283.975 88.373 284.371 90.3281 284.371C92.2832 284.371 93.3633 283.975 93.3633 283.223C93.3633 282.498 92.2832 282.074 90.3281 282.074ZM95.9199 286.094V287.133H84.75V286.094H95.9199ZM94.5117 288.076V290.947H87.375V292.041H94.8535V293.039H86.1035V290.004H93.2266V289.047H86.0898V288.076H94.5117ZM110.426 280.912V287.488H109.127V280.912H110.426ZM103.686 288.076V289.457H109.141V288.076H110.426V293.012H102.414V288.076H103.686ZM103.686 291.945H109.141V290.482H103.686V291.945ZM103.781 281.473C105.654 281.473 107.035 282.635 107.035 284.316C107.035 285.998 105.654 287.16 103.781 287.146C101.908 287.16 100.514 285.998 100.514 284.316C100.514 282.635 101.908 281.473 103.781 281.473ZM103.781 282.566C102.619 282.553 101.785 283.277 101.785 284.316C101.785 285.369 102.619 286.08 103.781 286.08C104.93 286.08 105.764 285.369 105.764 284.316C105.764 283.277 104.93 282.553 103.781 282.566ZM118.205 281.65V285.219H114.158V286.914C116.291 286.921 117.453 286.873 118.834 286.613L118.957 287.666C117.467 287.926 116.209 287.967 113.762 287.967H112.873V284.234H116.906V282.689H112.859V281.65H118.205ZM122.58 280.926V288.459H121.281V286.299H118.984V285.26H121.281V283.742H118.984V282.703H121.281V280.926H122.58ZM122.58 289.074V293.176H121.281V290.127H114.268V289.074H122.58ZM130.523 282.936V283.988H124.439V282.936H126.846V281.268H128.131V282.936H130.523ZM127.488 284.727C129.047 284.727 130.141 285.889 130.154 287.543C130.141 289.211 129.047 290.387 127.488 290.387C125.957 290.387 124.822 289.211 124.836 287.543C124.822 285.889 125.957 284.727 127.488 284.727ZM127.488 285.807C126.6 285.807 125.984 286.531 125.984 287.543C125.984 288.582 126.6 289.279 127.488 289.279C128.363 289.279 129.006 288.582 129.006 287.543C129.006 286.531 128.363 285.807 127.488 285.807ZM134.953 280.912V293.162H133.723V287.078H132.314V292.588H131.084V281.186H132.314V286.012H133.723V280.912H134.953ZM147.736 287.816V288.869H142.76V293.148H141.488V288.869H136.566V287.816H147.736ZM146.684 281.637V282.676H142.896C142.917 284.193 144.804 285.547 147.121 285.861L146.643 286.887C144.633 286.572 142.896 285.581 142.158 284.18C141.399 285.581 139.67 286.572 137.688 286.887L137.195 285.861C139.485 285.547 141.372 284.193 141.42 282.676H137.605V281.637H146.684ZM152.398 284.262C152.398 286.217 153.219 288.309 154.859 289.307L154.135 290.305C152.986 289.614 152.207 288.391 151.797 286.969C151.339 288.527 150.498 289.854 149.309 290.578L148.502 289.607C150.238 288.568 151.141 286.408 151.141 284.316V282.033H152.398V284.262ZM159.207 280.912V293.162H157.963V280.912H159.207ZM156.664 281.145V292.561H155.434V286.299H153.533V285.219H155.434V281.145H156.664ZM171.977 290.551V291.631H160.766V290.551H163.445V287.352C162.44 286.798 161.832 285.916 161.832 284.822C161.832 282.895 163.719 281.623 166.344 281.623C168.982 281.623 170.869 282.895 170.869 284.822C170.869 285.902 170.281 286.771 169.297 287.324V290.551H171.977ZM166.344 282.662C164.416 282.662 163.09 283.496 163.09 284.822C163.09 286.135 164.416 286.996 166.344 286.996C168.258 286.996 169.611 286.135 169.611 284.822C169.611 283.496 168.258 282.662 166.344 282.662ZM164.73 290.551H167.984V287.816C167.485 287.946 166.932 288.008 166.344 288.008C165.77 288.008 165.223 287.946 164.73 287.83V290.551Z" fill="#9CA3AF"/>
<path d="M42.7051 334.857V347.217H41.1875V334.857H42.7051ZM32.4648 343.785C33.4492 343.778 34.5635 343.778 35.7324 343.744V342.609C34.3379 342.391 33.4355 341.536 33.4355 340.367C33.4355 338.973 34.666 338.043 36.4707 338.043C38.2891 338.043 39.5469 338.973 39.5469 340.367C39.5469 341.529 38.6377 342.377 37.25 342.596V343.689C38.3369 343.642 39.4307 343.553 40.4629 343.416L40.5723 344.551C37.8516 345.016 34.9121 345.043 32.6836 345.043L32.4648 343.785ZM40.2441 336.279V337.482H32.7246V336.279H35.7324V334.898H37.25V336.279H40.2441ZM36.4707 339.205C35.541 339.219 34.8711 339.643 34.8848 340.367C34.8711 341.078 35.541 341.502 36.4707 341.488C37.4414 341.502 38.084 341.078 38.084 340.367C38.084 339.643 37.4414 339.219 36.4707 339.205ZM48.9258 337.824C48.9121 340.025 50.0195 342.268 51.9336 343.184L51.0039 344.4C49.6641 343.724 48.7002 342.418 48.1738 340.846C47.6338 342.527 46.6221 343.922 45.207 344.633L44.2773 343.416C46.2598 342.473 47.3945 340.107 47.4082 337.824V335.855H48.9258V337.824ZM54.1895 334.857V339.697H56.0898V340.996H54.1895V347.217H52.6719V334.857H54.1895ZM66.959 334.857V342.131H65.4414V340.422H62.9531V341.379H57.1426V335.787H62.9531V336.744H65.4414V334.857H66.959ZM58.6602 336.99V340.162H61.4492V336.99H58.6602ZM62.7754 342.459C65.4004 342.459 67 343.334 67 344.838C67 346.342 65.4004 347.203 62.7754 347.203C60.1641 347.203 58.5645 346.342 58.5781 344.838C58.5645 343.334 60.1641 342.459 62.7754 342.459ZM62.7754 343.621C61.0527 343.621 60.082 344.045 60.082 344.838C60.082 345.604 61.0527 346.027 62.7754 346.027C64.498 346.027 65.4824 345.604 65.4824 344.838C65.4824 344.045 64.498 343.621 62.7754 343.621ZM62.9531 339.191H65.4414V337.947H62.9531V339.191Z" fill="#111827"/>
<rect x="32" y="359" width="311" height="40" rx="12" fill="#F9FAFB"/>
<path d="M58.582 372.912V385.162H57.2832V372.912H58.582ZM48.5195 381.826C49.5244 381.819 50.6797 381.812 51.8828 381.771V380.555C50.4473 380.37 49.5176 379.529 49.5312 378.326C49.5176 376.945 50.7207 376.029 52.498 376.029C54.2891 376.029 55.5195 376.945 55.5195 378.326C55.5195 379.516 54.5898 380.35 53.168 380.541V381.73C54.3027 381.683 55.4512 381.594 56.5312 381.457L56.627 382.428C53.9062 382.879 50.9395 382.906 48.6973 382.906L48.5195 381.826ZM56.2578 374.375V375.414H48.7793V374.375H51.8828V372.939H53.1816V374.375H56.2578ZM52.498 377.041C51.4727 377.041 50.748 377.547 50.7617 378.326C50.748 379.105 51.4727 379.584 52.498 379.584C53.5508 379.584 54.2754 379.105 54.2754 378.326C54.2754 377.547 53.5508 377.041 52.498 377.041ZM64.8027 376.029C64.7891 378.203 66.0469 380.418 67.8789 381.307L67.0723 382.346C65.7393 381.655 64.707 380.281 64.1738 378.641C63.6201 380.391 62.5469 381.854 61.1523 382.578L60.3457 381.525C62.2324 380.623 63.5039 378.271 63.5039 376.029V373.938H64.8027V376.029ZM70.0938 372.912V377.793H72.0625V378.9H70.0938V385.162H68.7949V372.912H70.0938ZM82.8633 372.912V380.145H81.5645V378.326H78.8984V379.324H73.2109V373.828H78.8984V374.84H81.5645V372.912H82.8633ZM74.4961 374.867V378.285H77.627V374.867H74.4961ZM78.7617 380.486C81.332 380.486 82.9043 381.334 82.9043 382.824C82.9043 384.301 81.332 385.148 78.7617 385.135C76.1914 385.148 74.6055 384.301 74.6191 382.824C74.6055 381.334 76.1914 380.486 78.7617 380.486ZM78.7617 381.484C76.9707 381.498 75.9043 381.963 75.9043 382.824C75.9043 383.645 76.9707 384.137 78.7617 384.137C80.5527 384.137 81.6191 383.645 81.6191 382.824C81.6191 381.963 80.5527 381.498 78.7617 381.484ZM78.8984 377.273H81.5645V375.879H78.8984V377.273ZM90.3281 373.117C93.0898 373.117 94.7031 373.855 94.7031 375.223C94.7031 376.59 93.0898 377.342 90.3281 377.342C87.5664 377.342 85.9531 376.59 85.9531 375.223C85.9531 373.855 87.5664 373.117 90.3281 373.117ZM90.3281 374.074C88.373 374.074 87.293 374.498 87.3066 375.223C87.293 375.975 88.373 376.371 90.3281 376.371C92.2832 376.371 93.3633 375.975 93.3633 375.223C93.3633 374.498 92.2832 374.074 90.3281 374.074ZM95.9199 378.094V379.133H84.75V378.094H95.9199ZM94.5117 380.076V382.947H87.375V384.041H94.8535V385.039H86.1035V382.004H93.2266V381.047H86.0898V380.076H94.5117ZM110.426 372.912V379.488H109.127V372.912H110.426ZM103.686 380.076V381.457H109.141V380.076H110.426V385.012H102.414V380.076H103.686ZM103.686 383.945H109.141V382.482H103.686V383.945ZM103.781 373.473C105.654 373.473 107.035 374.635 107.035 376.316C107.035 377.998 105.654 379.16 103.781 379.146C101.908 379.16 100.514 377.998 100.514 376.316C100.514 374.635 101.908 373.473 103.781 373.473ZM103.781 374.566C102.619 374.553 101.785 375.277 101.785 376.316C101.785 377.369 102.619 378.08 103.781 378.08C104.93 378.08 105.764 377.369 105.764 376.316C105.764 375.277 104.93 374.553 103.781 374.566ZM118.205 373.65V377.219H114.158V378.914C116.291 378.921 117.453 378.873 118.834 378.613L118.957 379.666C117.467 379.926 116.209 379.967 113.762 379.967H112.873V376.234H116.906V374.689H112.859V373.65H118.205ZM122.58 372.926V380.459H121.281V378.299H118.984V377.26H121.281V375.742H118.984V374.703H121.281V372.926H122.58ZM122.58 381.074V385.176H121.281V382.127H114.268V381.074H122.58ZM130.523 374.936V375.988H124.439V374.936H126.846V373.268H128.131V374.936H130.523ZM127.488 376.727C129.047 376.727 130.141 377.889 130.154 379.543C130.141 381.211 129.047 382.387 127.488 382.387C125.957 382.387 124.822 381.211 124.836 379.543C124.822 377.889 125.957 376.727 127.488 376.727ZM127.488 377.807C126.6 377.807 125.984 378.531 125.984 379.543C125.984 380.582 126.6 381.279 127.488 381.279C128.363 381.279 129.006 380.582 129.006 379.543C129.006 378.531 128.363 377.807 127.488 377.807ZM134.953 372.912V385.162H133.723V379.078H132.314V384.588H131.084V373.186H132.314V378.012H133.723V372.912H134.953ZM147.736 379.816V380.869H142.76V385.148H141.488V380.869H136.566V379.816H147.736ZM146.684 373.637V374.676H142.896C142.917 376.193 144.804 377.547 147.121 377.861L146.643 378.887C144.633 378.572 142.896 377.581 142.158 376.18C141.399 377.581 139.67 378.572 137.688 378.887L137.195 377.861C139.485 377.547 141.372 376.193 141.42 374.676H137.605V373.637H146.684ZM152.398 376.262C152.398 378.217 153.219 380.309 154.859 381.307L154.135 382.305C152.986 381.614 152.207 380.391 151.797 378.969C151.339 380.527 150.498 381.854 149.309 382.578L148.502 381.607C150.238 380.568 151.141 378.408 151.141 376.316V374.033H152.398V376.262ZM159.207 372.912V385.162H157.963V372.912H159.207ZM156.664 373.145V384.561H155.434V378.299H153.533V377.219H155.434V373.145H156.664ZM171.977 382.551V383.631H160.766V382.551H163.445V379.352C162.44 378.798 161.832 377.916 161.832 376.822C161.832 374.895 163.719 373.623 166.344 373.623C168.982 373.623 170.869 374.895 170.869 376.822C170.869 377.902 170.281 378.771 169.297 379.324V382.551H171.977ZM166.344 374.662C164.416 374.662 163.09 375.496 163.09 376.822C163.09 378.135 164.416 378.996 166.344 378.996C168.258 378.996 169.611 378.135 169.611 376.822C169.611 375.496 168.258 374.662 166.344 374.662ZM164.73 382.551H167.984V379.816C167.485 379.946 166.932 380.008 166.344 380.008C165.77 380.008 165.223 379.946 164.73 379.83V382.551Z" fill="#9CA3AF"/>
<path d="M42.6914 426.857V439.23H41.1602V426.857H42.6914ZM34.584 427.869V430.959H37.5781V427.869H39.082V436.318H33.0664V427.869H34.584ZM34.584 435.074H37.5781V432.148H34.584V435.074ZM51.0996 427.5V432.654H45.1387V427.5H51.0996ZM46.6426 428.717V431.465H49.5957V428.717H46.6426ZM54.7773 426.857V433.146H53.2734V426.857H54.7773ZM54.7773 433.707V436.906H48.1191V437.904H55.1465V439.107H46.6152V435.812H53.3008V434.896H46.6016V433.707H54.7773ZM66.959 426.871V435.99H65.4414V431.438H62.9531V433.98H57.1699V427.678H58.6875V429.674H61.4492V427.678H62.9531V430.207H65.4414V426.871H66.959ZM67.2324 437.74V438.971H58.8105V435.088H60.3555V437.74H67.2324ZM58.6875 432.777H61.4492V430.85H58.6875V432.777ZM79.4277 428.512V429.742H69.2148V428.512H73.5762V427.021H75.0801V428.512H79.4277ZM80.002 436.66V437.891H68.709V436.66H73.5762V435.143C71.4365 434.972 70.1445 434.117 70.1582 432.75C70.1445 431.26 71.7441 430.371 74.3281 430.371C76.8711 430.371 78.4844 431.26 78.4844 432.75C78.4844 434.11 77.1855 434.965 75.0801 435.129V436.66H80.002ZM74.3281 431.561C72.6465 431.574 71.7031 431.971 71.7168 432.75C71.7031 433.543 72.6465 433.939 74.3281 433.953C75.9824 433.939 76.9258 433.543 76.9258 432.75C76.9258 431.971 75.9824 431.574 74.3281 431.561Z" fill="#111827"/>
<rect x="32" y="451" width="311" height="40" rx="12" fill="#F9FAFB"/>
<path d="M58.5957 464.912V477.189H57.2969V464.912H58.5957ZM50.4336 465.938V469.082H53.7285V465.938H55.0137V474.25H49.1348V465.938H50.4336ZM50.4336 473.184H53.7285V470.107H50.4336V473.184ZM67.0176 465.568V470.613H61.1934V465.568H67.0176ZM62.4648 466.621V469.602H65.7324V466.621H62.4648ZM70.6953 464.912V471.188H69.4102V464.912H70.6953ZM70.6953 471.775V474.824H63.9551V476H71.0918V477.039H62.6836V473.881H69.4238V472.787H62.6562V471.775H70.6953ZM82.8633 464.926V473.977H81.5645V469.355H78.8848V471.939H73.2383V465.732H74.5371V467.811H77.5996V465.732H78.8848V468.303H81.5645V464.926H82.8633ZM83.1367 475.85V476.902H74.8652V473.088H76.1777V475.85H83.1367ZM74.5371 470.887H77.5996V468.809H74.5371V470.887ZM95.3594 466.635V467.688H85.2832V466.635H89.6855V465.09H90.9707V466.635H95.3594ZM95.9609 474.729V475.781H84.75V474.729H89.6855V473.102C87.5391 472.972 86.2402 472.124 86.2402 470.764C86.2402 469.287 87.7988 468.426 90.3281 468.426C92.8301 468.426 94.4023 469.287 94.4023 470.764C94.4023 472.124 93.0967 472.972 90.9707 473.102V474.729H95.9609ZM90.3281 469.451C88.5781 469.451 87.5527 469.916 87.5664 470.764C87.5527 471.611 88.5781 472.076 90.3281 472.09C92.0508 472.076 93.0762 471.611 93.0762 470.764C93.0762 469.916 92.0508 469.451 90.3281 469.451ZM108.047 470.531V471.529H96.8359V470.531H108.047ZM106.666 472.391V475.084H99.4746V476.096H107.049V477.012H98.1758V474.223H105.381V473.32H98.1621V472.391H106.666ZM106.639 465.227V467.879H99.5566V468.809H106.844V469.725H98.2715V467.018H105.34V466.143H98.2441V465.227H106.639ZM122.525 464.912V471.488H121.227V464.912H122.525ZM115.785 472.076V473.457H121.24V472.076H122.525V477.012H114.514V472.076H115.785ZM115.785 475.945H121.24V474.482H115.785V475.945ZM115.881 465.473C117.754 465.473 119.135 466.635 119.135 468.316C119.135 469.998 117.754 471.16 115.881 471.146C114.008 471.16 112.613 469.998 112.613 468.316C112.613 466.635 114.008 465.473 115.881 465.473ZM115.881 466.566C114.719 466.553 113.885 467.277 113.885 468.316C113.885 469.369 114.719 470.08 115.881 470.08C117.029 470.08 117.863 469.369 117.863 468.316C117.863 467.277 117.029 466.553 115.881 466.566ZM130.305 465.65V469.219H126.258V470.914C128.391 470.921 129.553 470.873 130.934 470.613L131.057 471.666C129.566 471.926 128.309 471.967 125.861 471.967H124.973V468.234H129.006V466.689H124.959V465.65H130.305ZM134.68 464.926V472.459H133.381V470.299H131.084V469.26H133.381V467.742H131.084V466.703H133.381V464.926H134.68ZM134.68 473.074V477.176H133.381V474.127H126.367V473.074H134.68ZM142.623 466.936V467.988H136.539V466.936H138.945V465.268H140.23V466.936H142.623ZM139.588 468.727C141.146 468.727 142.24 469.889 142.254 471.543C142.24 473.211 141.146 474.387 139.588 474.387C138.057 474.387 136.922 473.211 136.936 471.543C136.922 469.889 138.057 468.727 139.588 468.727ZM139.588 469.807C138.699 469.807 138.084 470.531 138.084 471.543C138.084 472.582 138.699 473.279 139.588 473.279C140.463 473.279 141.105 472.582 141.105 471.543C141.105 470.531 140.463 469.807 139.588 469.807ZM147.053 464.912V477.162H145.822V471.078H144.414V476.588H143.184V465.186H144.414V470.012H145.822V464.912H147.053ZM159.836 471.816V472.869H154.859V477.148H153.588V472.869H148.666V471.816H159.836ZM158.783 465.637V466.676H154.996C155.017 468.193 156.903 469.547 159.221 469.861L158.742 470.887C156.732 470.572 154.996 469.581 154.258 468.18C153.499 469.581 151.77 470.572 149.787 470.887L149.295 469.861C151.585 469.547 153.472 468.193 153.52 466.676H149.705V465.637H158.783ZM164.498 468.262C164.498 470.217 165.318 472.309 166.959 473.307L166.234 474.305C165.086 473.614 164.307 472.391 163.896 470.969C163.438 472.527 162.598 473.854 161.408 474.578L160.602 473.607C162.338 472.568 163.24 470.408 163.24 468.316V466.033H164.498V468.262ZM171.307 464.912V477.162H170.062V464.912H171.307ZM168.764 465.145V476.561H167.533V470.299H165.633V469.219H167.533V465.145H168.764ZM184.076 474.551V475.631H172.865V474.551H175.545V471.352C174.54 470.798 173.932 469.916 173.932 468.822C173.932 466.895 175.818 465.623 178.443 465.623C181.082 465.623 182.969 466.895 182.969 468.822C182.969 469.902 182.381 470.771 181.396 471.324V474.551H184.076ZM178.443 466.662C176.516 466.662 175.189 467.496 175.189 468.822C175.189 470.135 176.516 470.996 178.443 470.996C180.357 470.996 181.711 470.135 181.711 468.822C181.711 467.496 180.357 466.662 178.443 466.662ZM176.83 474.551H180.084V471.816C179.585 471.946 179.031 472.008 178.443 472.008C177.869 472.008 177.322 471.946 176.83 471.83V474.551ZM186.359 476.096C185.826 476.096 185.375 475.658 185.389 475.125C185.375 474.592 185.826 474.154 186.359 474.154C186.879 474.154 187.33 474.592 187.33 475.125C187.33 475.658 186.879 476.096 186.359 476.096Z" fill="#9CA3AF"/>
<path d="M318.774 471.973L317.651 470.85C317.821 469.96 317.587 469.201 316.949 468.573C316.31 467.945 315.544 467.704 314.651 467.85L313.528 466.727C313.76 466.619 313.998 466.542 314.244 466.494C314.489 466.447 314.742 466.423 315.001 466.423C316.135 466.423 317.098 466.819 317.89 467.61C318.682 468.402 319.077 469.365 319.077 470.5C319.077 470.759 319.055 471.011 319.011 471.257C318.967 471.502 318.888 471.741 318.774 471.973ZM321.954 475.084L320.851 474.05C321.484 473.567 322.051 473.029 322.551 472.437C323.051 471.846 323.467 471.2 323.801 470.5C322.967 468.817 321.763 467.479 320.188 466.487C318.613 465.496 316.884 465 315.001 465C314.517 465 314.046 465.033 313.588 465.1C313.13 465.167 312.667 465.267 312.201 465.4L311.035 464.235C311.671 463.983 312.319 463.798 312.98 463.679C313.641 463.56 314.315 463.5 315.001 463.5C317.149 463.5 319.123 464.058 320.922 465.175C322.72 466.292 324.104 467.802 325.072 469.708C325.138 469.835 325.187 469.962 325.217 470.091C325.247 470.22 325.262 470.356 325.262 470.5C325.262 470.643 325.25 470.78 325.225 470.909C325.2 471.037 325.154 471.165 325.087 471.292C324.733 472.045 324.289 472.74 323.754 473.377C323.22 474.014 322.62 474.583 321.954 475.084ZM315.001 477.5C312.895 477.5 310.966 476.937 309.212 475.812C307.458 474.687 306.064 473.206 305.029 471.367C304.946 471.24 304.885 471.102 304.847 470.954C304.808 470.805 304.789 470.654 304.789 470.5C304.789 470.346 304.806 470.197 304.839 470.054C304.872 469.91 304.931 469.77 305.014 469.633C305.386 468.953 305.807 468.306 306.278 467.691C306.748 467.076 307.289 466.526 307.901 466.038L305.643 463.765C305.504 463.617 305.436 463.44 305.438 463.235C305.44 463.031 305.513 462.856 305.658 462.711C305.803 462.567 305.979 462.494 306.185 462.494C306.392 462.494 306.567 462.567 306.712 462.711L323.289 479.288C323.427 479.427 323.501 479.598 323.509 479.803C323.518 480.007 323.444 480.187 323.289 480.342C323.144 480.487 322.969 480.559 322.762 480.559C322.556 480.559 322.38 480.487 322.235 480.342L318.716 476.854C318.126 477.082 317.52 477.247 316.898 477.348C316.275 477.449 315.643 477.5 315.001 477.5ZM308.954 467.092C308.369 467.545 307.842 468.057 307.375 468.628C306.907 469.199 306.516 469.823 306.201 470.5C307.034 472.183 308.238 473.521 309.813 474.512C311.388 475.504 313.117 476 315.001 476C315.43 476 315.853 475.971 316.269 475.913C316.685 475.856 317.098 475.767 317.508 475.646L316.243 474.35C316.04 474.438 315.838 474.498 315.636 474.53C315.434 474.561 315.222 474.577 315.001 474.577C313.866 474.577 312.903 474.181 312.111 473.389C311.319 472.598 310.924 471.634 310.924 470.5C310.924 470.278 310.941 470.066 310.976 469.864C311.01 469.662 311.069 469.46 311.151 469.258L308.954 467.092Z" fill="#111827"/>
<path d="M42.6914 518.857V531.23H41.1602V518.857H42.6914ZM34.584 519.869V522.959H37.5781V519.869H39.082V528.318H33.0664V519.869H34.584ZM34.584 527.074H37.5781V524.148H34.584V527.074ZM51.0996 519.5V524.654H45.1387V519.5H51.0996ZM46.6426 520.717V523.465H49.5957V520.717H46.6426ZM54.7773 518.857V525.146H53.2734V518.857H54.7773ZM54.7773 525.707V528.906H48.1191V529.904H55.1465V531.107H46.6152V527.812H53.3008V526.896H46.6016V525.707H54.7773ZM66.959 518.871V527.99H65.4414V523.438H62.9531V525.98H57.1699V519.678H58.6875V521.674H61.4492V519.678H62.9531V522.207H65.4414V518.871H66.959ZM67.2324 529.74V530.971H58.8105V527.088H60.3555V529.74H67.2324ZM58.6875 524.777H61.4492V522.85H58.6875V524.777ZM79.4277 520.512V521.742H69.2148V520.512H73.5762V519.021H75.0801V520.512H79.4277ZM80.002 528.66V529.891H68.709V528.66H73.5762V527.143C71.4365 526.972 70.1445 526.117 70.1582 524.75C70.1445 523.26 71.7441 522.371 74.3281 522.371C76.8711 522.371 78.4844 523.26 78.4844 524.75C78.4844 526.11 77.1855 526.965 75.0801 527.129V528.66H80.002ZM74.3281 523.561C72.6465 523.574 71.7031 523.971 71.7168 524.75C71.7031 525.543 72.6465 525.939 74.3281 525.953C75.9824 525.939 76.9258 525.543 76.9258 524.75C76.9258 523.971 75.9824 523.574 74.3281 523.561ZM93.9199 518.871V522.467H95.5879V523.725H93.9199V527.225H92.4023V518.871H93.9199ZM84.0215 525.748C84.9512 525.748 86.0244 525.741 87.1387 525.707V524.955C85.7646 524.784 84.8965 524.121 84.8965 523.15C84.8965 522.016 86.0859 521.305 87.877 521.318C89.6816 521.305 90.8574 522.016 90.8574 523.15C90.8574 524.114 90.0098 524.771 88.6562 524.941V525.652C89.709 525.604 90.7686 525.522 91.7598 525.393L91.8828 526.445C89.2441 526.91 86.3594 526.938 84.1855 526.938L84.0215 525.748ZM93.9199 527.758V531.217H92.4023V528.947H85.5801V527.758H93.9199ZM91.4316 519.842V520.963H84.3359V519.842H87.1387V518.762H88.6562V519.842H91.4316ZM87.877 522.344C86.9199 522.33 86.3457 522.617 86.3594 523.15C86.3457 523.656 86.9199 523.984 87.877 523.971C88.834 523.984 89.4082 523.656 89.4082 523.15C89.4082 522.617 88.834 522.33 87.877 522.344ZM106.525 518.871V527.799H104.994V518.871H106.525ZM106.867 529.74V530.971H98.3496V526.896H99.8809V529.74H106.867ZM99.7852 519.678C101.658 519.678 103.107 520.977 103.107 522.768C103.107 524.6 101.658 525.871 99.7852 525.871C97.8984 525.871 96.4492 524.6 96.4492 522.768C96.4492 520.977 97.8984 519.678 99.7852 519.678ZM99.7852 521.004C98.7324 521.004 97.9258 521.701 97.9395 522.768C97.9258 523.861 98.7324 524.545 99.7852 524.545C100.811 524.545 101.617 523.861 101.617 522.768C101.617 521.701 100.811 521.004 99.7852 521.004Z" fill="#111827"/>
<rect x="32" y="543" width="311" height="40" rx="12" fill="#F9FAFB"/>
<path d="M58.5957 556.912V569.189H57.2969V556.912H58.5957ZM50.4336 557.938V561.082H53.7285V557.938H55.0137V566.25H49.1348V557.938H50.4336ZM50.4336 565.184H53.7285V562.107H50.4336V565.184ZM67.0176 557.568V562.613H61.1934V557.568H67.0176ZM62.4648 558.621V561.602H65.7324V558.621H62.4648ZM70.6953 556.912V563.188H69.4102V556.912H70.6953ZM70.6953 563.775V566.824H63.9551V568H71.0918V569.039H62.6836V565.881H69.4238V564.787H62.6562V563.775H70.6953ZM82.8633 556.926V565.977H81.5645V561.355H78.8848V563.939H73.2383V557.732H74.5371V559.811H77.5996V557.732H78.8848V560.303H81.5645V556.926H82.8633ZM83.1367 567.85V568.902H74.8652V565.088H76.1777V567.85H83.1367ZM74.5371 562.887H77.5996V560.809H74.5371V562.887ZM95.3594 558.635V559.688H85.2832V558.635H89.6855V557.09H90.9707V558.635H95.3594ZM95.9609 566.729V567.781H84.75V566.729H89.6855V565.102C87.5391 564.972 86.2402 564.124 86.2402 562.764C86.2402 561.287 87.7988 560.426 90.3281 560.426C92.8301 560.426 94.4023 561.287 94.4023 562.764C94.4023 564.124 93.0967 564.972 90.9707 565.102V566.729H95.9609ZM90.3281 561.451C88.5781 561.451 87.5527 561.916 87.5664 562.764C87.5527 563.611 88.5781 564.076 90.3281 564.09C92.0508 564.076 93.0762 563.611 93.0762 562.764C93.0762 561.916 92.0508 561.451 90.3281 561.451ZM108.047 562.531V563.529H96.8359V562.531H108.047ZM106.666 564.391V567.084H99.4746V568.096H107.049V569.012H98.1758V566.223H105.381V565.32H98.1621V564.391H106.666ZM106.639 557.227V559.879H99.5566V560.809H106.844V561.725H98.2715V559.018H105.34V558.143H98.2441V557.227H106.639ZM121.91 556.912V561.656H123.879V562.723H121.91V569.189H120.611V556.912H121.91ZM118.615 558.088V559.141H114.186V565.061C116.243 565.054 117.788 564.965 119.531 564.65L119.695 565.744C117.781 566.086 116.154 566.154 113.871 566.141H112.887V558.088H118.615ZM128.965 560.029C128.951 562.271 130.305 564.514 132.205 565.361L131.426 566.387C130.018 565.717 128.903 564.343 128.336 562.668C127.762 564.459 126.634 565.942 125.164 566.66L124.371 565.566C126.299 564.705 127.652 562.367 127.652 560.029V557.938H128.965V560.029ZM134.611 556.912V569.189H133.312V556.912H134.611ZM149.609 556.926V560.863H151.387V561.943H149.609V566.086H148.311V556.926H149.609ZM147.299 558.348V559.4H139.998V558.348H143.006V556.912H144.305V558.348H147.299ZM143.648 559.988C145.412 559.988 146.615 560.904 146.615 562.299C146.615 563.693 145.412 564.596 143.648 564.596C141.871 564.596 140.668 563.693 140.668 562.299C140.668 560.904 141.871 559.988 143.648 559.988ZM143.648 560.986C142.609 560.986 141.912 561.492 141.926 562.299C141.912 563.092 142.609 563.584 143.648 563.584C144.688 563.584 145.385 563.092 145.398 562.299C145.385 561.492 144.688 560.986 143.648 560.986ZM150.129 567.85V568.902H141.844V565.361H143.143V567.85H150.129ZM165.715 556.926V565.977H164.416V561.355H161.736V563.939H156.09V557.732H157.389V559.811H160.451V557.732H161.736V560.303H164.416V556.926H165.715ZM165.988 567.85V568.902H157.717V565.088H159.029V567.85H165.988ZM157.389 562.887H160.451V560.809H157.389V562.887ZM181.178 556.912V563.488H179.879V556.912H181.178ZM174.438 564.076V565.457H179.893V564.076H181.178V569.012H173.166V564.076H174.438ZM174.438 567.945H179.893V566.482H174.438V567.945ZM174.533 557.473C176.406 557.473 177.787 558.635 177.787 560.316C177.787 561.998 176.406 563.16 174.533 563.146C172.66 563.16 171.266 561.998 171.266 560.316C171.266 558.635 172.66 557.473 174.533 557.473ZM174.533 558.566C173.371 558.553 172.537 559.277 172.537 560.316C172.537 561.369 173.371 562.08 174.533 562.08C175.682 562.08 176.516 561.369 176.516 560.316C176.516 559.277 175.682 558.553 174.533 558.566ZM188.957 557.65V561.219H184.91V562.914C187.043 562.921 188.205 562.873 189.586 562.613L189.709 563.666C188.219 563.926 186.961 563.967 184.514 563.967H183.625V560.234H187.658V558.689H183.611V557.65H188.957ZM193.332 556.926V564.459H192.033V562.299H189.736V561.26H192.033V559.742H189.736V558.703H192.033V556.926H193.332ZM193.332 565.074V569.176H192.033V566.127H185.02V565.074H193.332ZM201.275 558.936V559.988H195.191V558.936H197.598V557.268H198.883V558.936H201.275ZM198.24 560.727C199.799 560.727 200.893 561.889 200.906 563.543C200.893 565.211 199.799 566.387 198.24 566.387C196.709 566.387 195.574 565.211 195.588 563.543C195.574 561.889 196.709 560.727 198.24 560.727ZM198.24 561.807C197.352 561.807 196.736 562.531 196.736 563.543C196.736 564.582 197.352 565.279 198.24 565.279C199.115 565.279 199.758 564.582 199.758 563.543C199.758 562.531 199.115 561.807 198.24 561.807ZM205.705 556.912V569.162H204.475V563.078H203.066V568.588H201.836V557.186H203.066V562.012H204.475V556.912H205.705ZM218.488 563.816V564.869H213.512V569.148H212.24V564.869H207.318V563.816H218.488ZM217.436 557.637V558.676H213.648C213.669 560.193 215.556 561.547 217.873 561.861L217.395 562.887C215.385 562.572 213.648 561.581 212.91 560.18C212.151 561.581 210.422 562.572 208.439 562.887L207.947 561.861C210.237 561.547 212.124 560.193 212.172 558.676H208.357V557.637H217.436ZM223.15 560.262C223.15 562.217 223.971 564.309 225.611 565.307L224.887 566.305C223.738 565.614 222.959 564.391 222.549 562.969C222.091 564.527 221.25 565.854 220.061 566.578L219.254 565.607C220.99 564.568 221.893 562.408 221.893 560.316V558.033H223.15V560.262ZM229.959 556.912V569.162H228.715V556.912H229.959ZM227.416 557.145V568.561H226.186V562.299H224.285V561.219H226.186V557.145H227.416ZM242.729 566.551V567.631H231.518V566.551H234.197V563.352C233.192 562.798 232.584 561.916 232.584 560.822C232.584 558.895 234.471 557.623 237.096 557.623C239.734 557.623 241.621 558.895 241.621 560.822C241.621 561.902 241.033 562.771 240.049 563.324V566.551H242.729ZM237.096 558.662C235.168 558.662 233.842 559.496 233.842 560.822C233.842 562.135 235.168 562.996 237.096 562.996C239.01 562.996 240.363 562.135 240.363 560.822C240.363 559.496 239.01 558.662 237.096 558.662ZM235.482 566.551H238.736V563.816C238.237 563.946 237.684 564.008 237.096 564.008C236.521 564.008 235.975 563.946 235.482 563.83V566.551ZM245.012 568.096C244.479 568.096 244.027 567.658 244.041 567.125C244.027 566.592 244.479 566.154 245.012 566.154C245.531 566.154 245.982 566.592 245.982 567.125C245.982 567.658 245.531 568.096 245.012 568.096Z" fill="#9CA3AF"/>
<path d="M318.774 563.973L317.651 562.85C317.821 561.96 317.587 561.201 316.949 560.573C316.31 559.945 315.544 559.704 314.651 559.85L313.528 558.727C313.76 558.619 313.998 558.542 314.244 558.494C314.489 558.447 314.742 558.423 315.001 558.423C316.135 558.423 317.098 558.819 317.89 559.61C318.682 560.402 319.077 561.365 319.077 562.5C319.077 562.759 319.055 563.011 319.011 563.257C318.967 563.502 318.888 563.741 318.774 563.973ZM321.954 567.084L320.851 566.05C321.484 565.567 322.051 565.029 322.551 564.437C323.051 563.846 323.467 563.2 323.801 562.5C322.967 560.817 321.763 559.479 320.188 558.487C318.613 557.496 316.884 557 315.001 557C314.517 557 314.046 557.033 313.588 557.1C313.13 557.167 312.667 557.267 312.201 557.4L311.035 556.235C311.671 555.983 312.319 555.798 312.98 555.679C313.641 555.56 314.315 555.5 315.001 555.5C317.149 555.5 319.123 556.058 320.922 557.175C322.72 558.292 324.104 559.802 325.072 561.708C325.138 561.835 325.187 561.962 325.217 562.091C325.247 562.22 325.262 562.356 325.262 562.5C325.262 562.643 325.25 562.78 325.225 562.909C325.2 563.037 325.154 563.165 325.087 563.292C324.733 564.045 324.289 564.74 323.754 565.377C323.22 566.014 322.62 566.583 321.954 567.084ZM315.001 569.5C312.895 569.5 310.966 568.937 309.212 567.812C307.458 566.687 306.064 565.206 305.029 563.367C304.946 563.24 304.885 563.102 304.847 562.954C304.808 562.805 304.789 562.654 304.789 562.5C304.789 562.346 304.806 562.197 304.839 562.054C304.872 561.91 304.931 561.77 305.014 561.633C305.386 560.953 305.807 560.306 306.278 559.691C306.748 559.076 307.289 558.526 307.901 558.038L305.643 555.765C305.504 555.617 305.436 555.44 305.438 555.235C305.44 555.031 305.513 554.856 305.658 554.711C305.803 554.567 305.979 554.494 306.185 554.494C306.392 554.494 306.567 554.567 306.712 554.711L323.289 571.288C323.427 571.427 323.501 571.598 323.509 571.803C323.518 572.007 323.444 572.187 323.289 572.342C323.144 572.487 322.969 572.559 322.762 572.559C322.556 572.559 322.38 572.487 322.235 572.342L318.716 568.854C318.126 569.082 317.52 569.247 316.898 569.348C316.275 569.449 315.643 569.5 315.001 569.5ZM308.954 559.092C308.369 559.545 307.842 560.057 307.375 560.628C306.907 561.199 306.516 561.823 306.201 562.5C307.034 564.183 308.238 565.521 309.813 566.512C311.388 567.504 313.117 568 315.001 568C315.43 568 315.853 567.971 316.269 567.913C316.685 567.856 317.098 567.767 317.508 567.646L316.243 566.35C316.04 566.438 315.838 566.498 315.636 566.53C315.434 566.561 315.222 566.577 315.001 566.577C313.866 566.577 312.903 566.181 312.111 565.389C311.319 564.598 310.924 563.634 310.924 562.5C310.924 562.278 310.941 562.066 310.976 561.864C311.01 561.662 311.069 561.46 311.151 561.258L308.954 559.092Z" fill="#111827"/>
<rect x="32" y="623" width="311" height="40" rx="12" fill="#9CA3AF"/>
<path d="M185.6 636.871V640.467H187.268V641.725H185.6V645.225H184.082V636.871H185.6ZM175.701 643.748C176.631 643.748 177.704 643.741 178.818 643.707V642.955C177.444 642.784 176.576 642.121 176.576 641.15C176.576 640.016 177.766 639.305 179.557 639.318C181.361 639.305 182.537 640.016 182.537 641.15C182.537 642.114 181.689 642.771 180.336 642.941V643.652C181.389 643.604 182.448 643.522 183.439 643.393L183.562 644.445C180.924 644.91 178.039 644.938 175.865 644.938L175.701 643.748ZM185.6 645.758V649.217H184.082V646.947H177.26V645.758H185.6ZM183.111 637.842V638.963H176.016V637.842H178.818V636.762H180.336V637.842H183.111ZM179.557 640.344C178.6 640.33 178.025 640.617 178.039 641.15C178.025 641.656 178.6 641.984 179.557 641.971C180.514 641.984 181.088 641.656 181.088 641.15C181.088 640.617 180.514 640.33 179.557 640.344ZM198.205 636.871V645.799H196.674V636.871H198.205ZM198.547 647.74V648.971H190.029V644.896H191.561V647.74H198.547ZM191.465 637.678C193.338 637.678 194.787 638.977 194.787 640.768C194.787 642.6 193.338 643.871 191.465 643.871C189.578 643.871 188.129 642.6 188.129 640.768C188.129 638.977 189.578 637.678 191.465 637.678ZM191.465 639.004C190.412 639.004 189.605 639.701 189.619 640.768C189.605 641.861 190.412 642.545 191.465 642.545C192.49 642.545 193.297 641.861 193.297 640.768C193.297 639.701 192.49 639.004 191.465 639.004Z" fill="white"/>
</g>
<defs>
<clipPath id="clip0_523_11923">
<rect width="375" height="667" rx="20" fill="white"/>
</clipPath>
<clipPath id="clip1_523_11923">
<path d="M0 -1H375V55H0V-1Z" fill="white"/>
</clipPath>
<clipPath id="clip2_523_11923">
<rect width="56" height="27" fill="white" transform="translate(16 13.5)"/>
</clipPath>
</defs>
</svg>
