<svg width="375" height="667" viewBox="0 0 375 667" fill="none" xmlns="http://www.w3.org/2000/svg">
<g clip-path="url(#clip0_523_12155)">
<rect width="375" height="667" rx="20" fill="#F9FAFB"/>
<g clip-path="url(#clip1_523_12155)">
<mask id="path-2-inside-1_523_12155" fill="white">
<path d="M0 -1H375V55H0V-1Z"/>
</mask>
<path d="M0 -1H375V55H0V-1Z" fill="white"/>
<g clip-path="url(#clip2_523_12155)">
<path d="M27.2392 30.7931C27.2392 31.097 27.1543 31.325 26.9844 31.477C26.8235 31.6289 26.5911 31.7049 26.2871 31.7049C25.9832 31.7049 25.7463 31.6289 25.5764 31.477C25.4155 31.325 25.335 31.097 25.335 30.7931V25.322H24.3159C24.2801 25.8852 24.2042 26.3947 24.0879 26.8507C23.9717 27.3066 23.7974 27.691 23.565 28.0039C23.3415 28.3168 23.0599 28.5581 22.7202 28.728C22.3805 28.8979 21.9737 28.9828 21.4999 28.9828C20.9725 28.9828 20.5255 28.88 20.1589 28.6744C19.7924 28.4598 19.4929 28.1603 19.2605 27.7759C19.037 27.3915 18.8761 26.9267 18.7778 26.3813C18.6794 25.8271 18.6302 25.2102 18.6302 24.5308C18.6302 23.8514 18.6794 23.239 18.7778 22.6937C18.8761 22.1394 19.037 21.6701 19.2605 21.2857C19.4929 20.9013 19.7924 20.6063 20.1589 20.4007C20.5255 20.1861 20.9725 20.0788 21.4999 20.0788C21.9648 20.0788 22.367 20.1638 22.7068 20.3336C23.0465 20.4945 23.3281 20.7314 23.5516 21.0443C23.775 21.3483 23.9449 21.7237 24.0611 22.1707C24.1863 22.6088 24.2712 23.1049 24.3159 23.6592H25.335V20.6957C25.335 20.3917 25.4155 20.1638 25.5764 20.0118C25.7463 19.8598 25.9832 19.7838 26.2871 19.7838C26.5911 19.7838 26.8235 19.8598 26.9844 20.0118C27.1543 20.1638 27.2392 20.3917 27.2392 20.6957V30.7931ZM29.8809 31.1685C29.8809 31.4725 29.7959 31.7005 29.6261 31.8524C29.4562 32.0133 29.2193 32.0938 28.9154 32.0938C28.6114 32.0938 28.3745 32.0133 28.2047 31.8524C28.0348 31.7005 27.9499 31.4725 27.9499 31.1685V20.575C27.9499 20.271 28.0348 20.0431 28.2047 19.8911C28.3745 19.7302 28.6114 19.6497 28.9154 19.6497C29.2193 19.6497 29.4562 19.7302 29.6261 19.8911C29.7959 20.0431 29.8809 20.271 29.8809 20.575V31.1685ZM20.4942 24.5308C20.4942 25.398 20.5657 26.0729 20.7087 26.5557C20.8518 27.0295 21.1155 27.2664 21.4999 27.2664C21.8843 27.2664 22.148 27.0295 22.2911 26.5557C22.4341 26.0729 22.5056 25.398 22.5056 24.5308C22.5056 23.6637 22.4341 22.9932 22.2911 22.5194C22.148 22.0366 21.8843 21.7953 21.4999 21.7953C21.1155 21.7953 20.8518 22.0366 20.7087 22.5194C20.5657 22.9932 20.4942 23.6637 20.4942 24.5308ZM32.0093 21.1382C32.0093 20.8342 32.0987 20.6063 32.2775 20.4543C32.4652 20.2934 32.7111 20.2129 33.015 20.2129C33.319 20.2129 33.5604 20.2934 33.7391 20.4543C33.9269 20.6063 34.0207 20.8342 34.0207 21.1382V23.0155H36.3272V21.1382C36.3272 20.8342 36.4166 20.6063 36.5954 20.4543C36.7831 20.2934 37.029 20.2129 37.3329 20.2129C37.6369 20.2129 37.8782 20.2934 38.057 20.4543C38.2448 20.6063 38.3386 20.8342 38.3386 21.1382V23.4983H40.4171V20.6286C40.4171 20.3157 40.5154 20.0744 40.7121 19.9045C40.9177 19.7347 41.177 19.6497 41.4899 19.6497C41.8028 19.6497 42.0575 19.7347 42.2542 19.9045C42.4598 20.0744 42.5626 20.3157 42.5626 20.6286V31.1149C42.5626 31.4278 42.4598 31.6692 42.2542 31.839C42.0575 32.0089 41.8028 32.0938 41.4899 32.0938C41.177 32.0938 40.9177 32.0089 40.7121 31.839C40.5154 31.6692 40.4171 31.4278 40.4171 31.1149V25.2817H38.3386V27.5748C38.3386 28.4598 37.8916 28.9023 36.9977 28.9023H33.3503C32.4563 28.9023 32.0093 28.4598 32.0093 27.5748V21.1382ZM34.0207 24.7588V26.9177C34.0207 27.016 34.0342 27.0831 34.061 27.1189C34.0878 27.1457 34.1504 27.1591 34.2487 27.1591H36.0992C36.1976 27.1591 36.2601 27.1457 36.287 27.1189C36.3138 27.0831 36.3272 27.016 36.3272 26.9177V24.7588H34.0207ZM53.1422 20.6286C53.1422 20.3157 53.2406 20.0744 53.4373 19.9045C53.6429 19.7347 53.9021 19.6497 54.215 19.6497C54.5279 19.6497 54.7827 19.7347 54.9794 19.9045C55.185 20.0744 55.2878 20.3157 55.2878 20.6286V25.9254C55.2878 26.2383 55.185 26.4797 54.9794 26.6495C54.7827 26.8194 54.5279 26.9043 54.215 26.9043C53.9021 26.9043 53.6429 26.8194 53.4373 26.6495C53.2406 26.4797 53.1422 26.2383 53.1422 25.9254V20.6286ZM50.9028 27.1054C51.5465 27.1054 52.1365 27.1546 52.6729 27.253C53.2182 27.3423 53.6831 27.4899 54.0675 27.6955C54.4519 27.9011 54.7514 28.1648 54.9659 28.4866C55.1805 28.8085 55.2878 29.2018 55.2878 29.6667C55.2878 30.1315 55.1805 30.5249 54.9659 30.8467C54.7514 31.1685 54.4519 31.4323 54.0675 31.6379C53.6831 31.8435 53.2182 31.991 52.6729 32.0804C52.1365 32.1787 51.5465 32.2279 50.9028 32.2279C50.2592 32.2279 49.6647 32.1787 49.1194 32.0804C48.583 31.991 48.1226 31.8435 47.7382 31.6379C47.3538 31.4323 47.0543 31.1685 46.8398 30.8467C46.6252 30.5249 46.5179 30.1315 46.5179 29.6667C46.5179 29.2018 46.6252 28.8085 46.8398 28.4866C47.0543 28.1648 47.3538 27.9011 47.7382 27.6955C48.1226 27.4899 48.583 27.3423 49.1194 27.253C49.6647 27.1546 50.2592 27.1054 50.9028 27.1054ZM50.9028 30.5919C51.18 30.5919 51.4526 30.5785 51.7208 30.5517C51.989 30.5249 52.2259 30.4757 52.4315 30.4042C52.6461 30.3327 52.8159 30.2388 52.9411 30.1226C53.0752 29.9974 53.1422 29.8455 53.1422 29.6667C53.1422 29.4879 53.0752 29.3404 52.9411 29.2242C52.8159 29.099 52.6461 29.0007 52.4315 28.9291C52.2259 28.8576 51.989 28.8085 51.7208 28.7816C51.4526 28.7548 51.18 28.7414 50.9028 28.7414C50.6257 28.7414 50.3531 28.7548 50.0849 28.7816C49.8167 28.8085 49.5753 28.8576 49.3608 28.9291C49.1551 29.0007 48.9853 29.099 48.8512 29.2242C48.726 29.3404 48.6635 29.4879 48.6635 29.6667C48.6635 29.8455 48.726 29.9974 48.8512 30.1226C48.9853 30.2388 49.1551 30.3327 49.3608 30.4042C49.5753 30.4757 49.8167 30.5249 50.0849 30.5517C50.3531 30.5785 50.6257 30.5919 50.9028 30.5919ZM51.4795 26.14C50.8 26.2383 50.134 26.3098 49.4814 26.3545C48.8378 26.3903 48.1494 26.4081 47.4164 26.4081H46.3838C45.9279 26.4081 45.5971 26.3098 45.3915 26.1131C45.1859 25.9075 45.0831 25.5857 45.0831 25.1477V23.6056C45.0831 23.1675 45.1859 22.8457 45.3915 22.6401C45.5971 22.4345 45.9279 22.3316 46.3838 22.3316H49.0657C49.182 22.3316 49.2401 22.2735 49.2401 22.1573V21.6746C49.2401 21.6031 49.2267 21.5584 49.1998 21.5405C49.182 21.5226 49.1373 21.5137 49.0657 21.5137H46.0754C45.8072 21.5137 45.5837 21.4466 45.4049 21.3125C45.2351 21.1695 45.1502 20.9683 45.1502 20.7091C45.1502 20.4409 45.2351 20.2398 45.4049 20.1057C45.5837 19.9626 45.8072 19.8911 46.0754 19.8911H49.9508C50.4156 19.8911 50.7464 19.9894 50.9431 20.1861C51.1487 20.3828 51.2515 20.7091 51.2515 21.165V22.6132C51.2515 23.0692 51.1487 23.3999 50.9431 23.6056C50.7464 23.8022 50.4156 23.9006 49.9508 23.9006H47.2555C47.1839 23.9006 47.1392 23.9095 47.1214 23.9274C47.1035 23.9453 47.0945 23.99 47.0945 24.0615V24.6649C47.0945 24.7364 47.1035 24.7811 47.1214 24.799C47.1392 24.8169 47.1839 24.8258 47.2555 24.8258H47.765C48.3819 24.8258 48.9763 24.8035 49.5485 24.7588C50.1206 24.7141 50.6749 24.6515 51.2113 24.571C51.4705 24.5263 51.694 24.5487 51.8817 24.6381C52.0695 24.7275 52.1902 24.9063 52.2438 25.1745C52.2974 25.4427 52.2483 25.6617 52.0963 25.8315C51.9443 25.9925 51.7387 26.0953 51.4795 26.14Z" fill="black"/>
</g>
<path d="M95.7031 30.4688V31.7129H84.4102V30.4688H89.2773V27.7754H85.6543V21.8145H94.4043V27.7754H90.7812V30.4688H95.7031ZM87.1445 23.0312V26.5859H92.9004V23.0312H87.1445ZM106.805 20.8711V27.8711H105.273V20.8711H106.805ZM106.805 28.4727V33.0664H98.6016V28.4727H106.805ZM100.105 29.6758V31.8359H105.314V29.6758H100.105ZM100.064 21.459C101.965 21.459 103.387 22.6621 103.387 24.4121C103.387 26.1074 101.965 27.3379 100.064 27.3379C98.1504 27.3379 96.7285 26.1074 96.7285 24.4121C96.7285 22.6621 98.1504 21.459 100.064 21.459ZM100.064 22.7441C98.9844 22.7441 98.2051 23.3867 98.2188 24.4121C98.2051 25.4102 98.9844 26.0527 100.064 26.0527C101.131 26.0527 101.896 25.4102 101.896 24.4121C101.896 23.3867 101.131 22.7441 100.064 22.7441ZM116.375 23.3867C116.375 24.7129 117.373 26.0117 119.314 26.5312L118.631 27.6934C117.195 27.3174 116.184 26.4971 115.637 25.4375C115.083 26.5996 114.044 27.502 112.588 27.9258L111.863 26.7227C113.818 26.2031 114.857 24.8359 114.857 23.3867V23.3457H112.273V22.1426H114.857V20.8027H116.389V22.1426H118.959V23.3457H116.375V23.3867ZM121.68 20.8574V23.7285H123.402V24.9863H121.68V27.9395H120.162V20.8574H121.68ZM121.857 28.5137V29.7305H118.59C118.877 30.7559 120.265 31.7129 122.377 32.0137L121.83 33.1758C119.896 32.9023 118.433 32.0752 117.715 30.9473C117.004 32.0684 115.555 32.875 113.641 33.1484L113.08 32C115.199 31.7061 116.573 30.7832 116.867 29.7305H113.586V28.5137H121.857ZM134.354 20.8574V33.2168H132.822V20.8574H134.354ZM130.662 22.1699C130.662 25.8477 129.24 28.9785 124.906 31.0293L124.113 29.8125C127.347 28.2744 128.851 26.1826 129.117 23.373H124.742V22.1699H130.662Z" fill="#171717"/>
<path d="M151.527 22.9766C151.527 23.9541 151.76 25.2119 152.594 26.1074C153.407 25.2256 153.619 23.9814 153.633 22.9766V22.8672H152.854V21.6504H156.408V22.8672H155.082V22.9766C155.082 24.3027 155.561 25.8477 156.969 26.5586L156.176 27.666C155.253 27.1738 154.686 26.3604 154.371 25.4102C154.063 26.3877 153.53 27.2695 152.594 27.8027C151.671 27.2764 151.131 26.4014 150.83 25.4512C150.502 26.3877 149.935 27.1943 149.025 27.666L148.219 26.5586C149.613 25.8203 150.119 24.2891 150.119 22.9766V22.8672H148.684V21.6504H152.32V22.8672H151.527V22.9766ZM158.91 20.8574V28.0625H157.393V20.8574H158.91ZM158.91 28.6777V33.0664H150.461V28.6777H158.91ZM151.965 29.8672V31.8359H157.434V29.8672H151.965ZM170.258 20.8711V24.7539H171.98V26.0117H170.258V30.0996H168.74V20.8711H170.258ZM167.852 22.2383V23.4551H160.523V22.2383H163.436V20.8574H164.953V22.2383H167.852ZM164.188 23.9609C165.965 23.9609 167.195 24.9043 167.209 26.3262C167.195 27.7344 165.965 28.6641 164.188 28.6641C162.396 28.6641 161.152 27.7344 161.152 26.3262C161.152 24.9043 162.396 23.9609 164.188 23.9609ZM164.188 25.1367C163.244 25.1367 162.629 25.5742 162.629 26.3262C162.629 27.0645 163.244 27.502 164.188 27.4883C165.131 27.502 165.76 27.0645 165.76 26.3262C165.76 25.5742 165.131 25.1367 164.188 25.1367ZM170.75 31.7402V32.9707H162.342V29.375H163.859V31.7402H170.75ZM187.225 30.4688V31.7129H175.932V30.4688H180.799V27.7754H177.176V21.8145H185.926V27.7754H182.303V30.4688H187.225ZM178.666 23.0312V26.5859H184.422V23.0312H178.666ZM198.326 20.8711V27.8711H196.795V20.8711H198.326ZM198.326 28.4727V33.0664H190.123V28.4727H198.326ZM191.627 29.6758V31.8359H196.836V29.6758H191.627ZM191.586 21.459C193.486 21.459 194.908 22.6621 194.908 24.4121C194.908 26.1074 193.486 27.3379 191.586 27.3379C189.672 27.3379 188.25 26.1074 188.25 24.4121C188.25 22.6621 189.672 21.459 191.586 21.459ZM191.586 22.7441C190.506 22.7441 189.727 23.3867 189.74 24.4121C189.727 25.4102 190.506 26.0527 191.586 26.0527C192.652 26.0527 193.418 25.4102 193.418 24.4121C193.418 23.3867 192.652 22.7441 191.586 22.7441Z" fill="#171717"/>
<path d="M223.703 30.4688V31.7129H212.41V30.4688H217.277V27.7754H213.654V21.8145H222.404V27.7754H218.781V30.4688H223.703ZM215.145 23.0312V26.5859H220.9V23.0312H215.145ZM235.789 27.0098V28.2266H224.51V27.0098H235.789ZM234.531 24.6582V25.8887H225.891V21.3496H234.422V22.5527H227.408V24.6582H234.531ZM234.613 31.7266V32.957H225.904V29.3066H227.395V31.7266H234.613ZM250.227 20.8574V33.2305H248.723V20.8574H250.227ZM246.426 21.9375V26.5723H242.174V29.0605C244.122 29.0469 245.804 28.9512 247.725 28.623L247.861 29.8672C245.756 30.2363 243.91 30.3047 241.695 30.3047H240.615V25.3691H244.881V23.168H240.602V21.9375H246.426ZM263.311 27.9258V29.1562H260.658V33.2168H259.141V29.1562H256.215V33.2168H254.656V29.1562H252.018V27.9258H263.311ZM254.889 21.3359V22.8125H260.412V21.3359H261.943V26.668H253.385V21.3359H254.889ZM254.889 25.4512H260.412V24.002H254.889V25.4512Z" fill="#171717"/>
<path d="M333.703 30.5234V31.7812H322.41V30.5234H327.277V28.5137H323.75V24.4668H330.859V22.9355H323.723V21.7051H332.363V25.6699H325.268V27.2695H332.65V28.5137H328.781V30.5234H333.703ZM344.34 22.0605V23.4551C344.34 25.1094 344.34 26.8184 343.889 29.416L342.344 29.2793C342.822 26.8457 342.822 25.0547 342.822 23.4551V23.291H335.699V22.0605H344.34ZM345.775 30.2773V31.5215H334.51V30.2773H345.775ZM356.904 20.8711V29.7988H355.373V20.8711H356.904ZM357.246 31.7402V32.9707H348.729V28.8965H350.26V31.7402H357.246ZM350.164 21.6777C352.037 21.6777 353.486 22.9766 353.486 24.7676C353.486 26.5996 352.037 27.8711 350.164 27.8711C348.277 27.8711 346.828 26.5996 346.828 24.7676C346.828 22.9766 348.277 21.6777 350.164 21.6777ZM350.164 23.0039C349.111 23.0039 348.305 23.7012 348.318 24.7676C348.305 25.8613 349.111 26.5449 350.164 26.5449C351.189 26.5449 351.996 25.8613 351.996 24.7676C351.996 23.7012 351.189 23.0039 350.164 23.0039Z" fill="black"/>
</g>
<path d="M375 53H0V57H375V53Z" fill="#D1D5DB" mask="url(#path-2-inside-1_523_12155)"/>
<rect x="16" y="261" width="343" height="406" rx="24" fill="white"/>
<path d="M178.219 311.891V313.688H162.086V311.891H169.039V309.02H164V303.238H174.156V301.051H163.961V299.293H176.305V304.957H166.168V307.242H176.715V309.02H171.188V311.891H178.219ZM193.414 299.801V301.793C193.414 304.156 193.414 306.598 192.77 310.309L190.562 310.113C191.246 306.637 191.246 304.078 191.246 301.793V301.559H181.07V299.801H193.414ZM195.465 311.539V313.316H179.371V311.539H195.465ZM211.363 298.102V310.855H209.176V298.102H211.363ZM211.852 313.629V315.387H199.684V309.566H201.871V313.629H211.852ZM201.734 299.254C204.41 299.254 206.48 301.109 206.48 303.668C206.48 306.285 204.41 308.102 201.734 308.102C199.039 308.102 196.969 306.285 196.969 303.668C196.969 301.109 199.039 299.254 201.734 299.254ZM201.734 301.148C200.23 301.148 199.078 302.145 199.098 303.668C199.078 305.23 200.23 306.207 201.734 306.207C203.199 306.207 204.352 305.23 204.352 303.668C204.352 302.145 203.199 301.148 201.734 301.148Z" fill="#1F2937"/>
<path d="M35.7324 357.76C37.5918 357.76 38.9316 359.455 38.9453 362.121C38.9316 364.814 37.5918 366.496 35.7324 366.496C33.8594 366.496 32.5059 364.814 32.5195 362.121C32.5059 359.455 33.8594 357.76 35.7324 357.76ZM35.7324 359.127C34.6934 359.127 33.9824 360.234 33.9824 362.121C33.9824 364.021 34.6934 365.129 35.7324 365.129C36.7852 365.129 37.4824 364.021 37.4824 362.121C37.4824 360.234 36.7852 359.127 35.7324 359.127ZM42.0898 356.857V361.602H43.9902V362.887H42.0898V369.217H40.5723V356.857H42.0898ZM54.791 356.857V369.23H53.2598V356.857H54.791ZM48.1328 357.76C49.9922 357.76 51.3457 359.455 51.3594 362.121C51.3457 364.814 49.9922 366.496 48.1328 366.496C46.2598 366.496 44.9062 364.814 44.9062 362.121C44.9062 359.455 46.2598 357.76 48.1328 357.76ZM48.1328 359.127C47.0801 359.127 46.3691 360.234 46.3691 362.121C46.3691 364.021 47.0801 365.129 48.1328 365.129C49.1719 365.129 49.8828 364.021 49.8828 362.121C49.8828 360.234 49.1719 359.127 48.1328 359.127ZM66.8906 356.857V369.23H65.3594V356.857H66.8906ZM63.3359 357.979V359.223H58.9062V364.965C61.1826 364.958 62.6113 364.89 64.252 364.596L64.4023 365.854C62.6387 366.182 61.0391 366.25 58.4277 366.25H57.375V357.979H63.3359Z" fill="#111827"/>
<rect x="32" y="381" width="311" height="40" rx="12" fill="#F9FAFB"/>
<path d="M58.5957 394.912V407.189H57.2969V394.912H58.5957ZM52.0469 395.828C53.8652 395.828 55.2051 397.496 55.2051 400.121C55.2051 402.76 53.8652 404.428 52.0469 404.428C50.2012 404.428 48.875 402.76 48.875 400.121C48.875 397.496 50.2012 395.828 52.0469 395.828ZM52.0469 396.99C50.9121 396.99 50.1328 398.193 50.1328 400.121C50.1328 402.062 50.9121 403.266 52.0469 403.266C53.168 403.266 53.9473 402.062 53.9473 400.121C53.9473 398.193 53.168 396.99 52.0469 396.99ZM65.7188 396.293V399.479H67.3594V395.145H68.6035V406.561H67.3594V400.545H65.7188V403.936H60.9609V396.293H65.7188ZM62.1914 397.318V402.896H64.502V397.318H62.1914ZM71.0918 394.912V407.162H69.8477V394.912H71.0918ZM76.123 395.322C77.9688 395.336 79.3223 396.471 79.3359 398.07C79.3223 399.684 77.9688 400.805 76.123 400.805C74.2637 400.805 72.8965 399.684 72.8965 398.07C72.8965 396.471 74.2637 395.336 76.123 395.322ZM76.123 396.416C74.9883 396.402 74.1543 397.072 74.168 398.07C74.1543 399.082 74.9883 399.752 76.123 399.752C77.2441 399.752 78.0781 399.082 78.0781 398.07C78.0781 397.072 77.2441 396.402 76.123 396.416ZM82.8086 394.912V401.146H81.5098V394.912H82.8086ZM82.8086 401.707V404.797H76.0547V405.973H83.2188V407.012H74.7969V403.826H81.5234V402.746H74.7559V401.707H82.8086ZM90.3281 395.117C93.0898 395.117 94.7031 395.855 94.7031 397.223C94.7031 398.59 93.0898 399.342 90.3281 399.342C87.5664 399.342 85.9531 398.59 85.9531 397.223C85.9531 395.855 87.5664 395.117 90.3281 395.117ZM90.3281 396.074C88.373 396.074 87.293 396.498 87.3066 397.223C87.293 397.975 88.373 398.371 90.3281 398.371C92.2832 398.371 93.3633 397.975 93.3633 397.223C93.3633 396.498 92.2832 396.074 90.3281 396.074ZM95.9199 400.094V401.133H84.75V400.094H95.9199ZM94.5117 402.076V404.947H87.375V406.041H94.8535V407.039H86.1035V404.004H93.2266V403.047H86.0898V402.076H94.5117ZM110.426 394.912V401.488H109.127V394.912H110.426ZM103.686 402.076V403.457H109.141V402.076H110.426V407.012H102.414V402.076H103.686ZM103.686 405.945H109.141V404.482H103.686V405.945ZM103.781 395.473C105.654 395.473 107.035 396.635 107.035 398.316C107.035 399.998 105.654 401.16 103.781 401.146C101.908 401.16 100.514 399.998 100.514 398.316C100.514 396.635 101.908 395.473 103.781 395.473ZM103.781 396.566C102.619 396.553 101.785 397.277 101.785 398.316C101.785 399.369 102.619 400.08 103.781 400.08C104.93 400.08 105.764 399.369 105.764 398.316C105.764 397.277 104.93 396.553 103.781 396.566ZM118.205 395.65V399.219H114.158V400.914C116.291 400.921 117.453 400.873 118.834 400.613L118.957 401.666C117.467 401.926 116.209 401.967 113.762 401.967H112.873V398.234H116.906V396.689H112.859V395.65H118.205ZM122.58 394.926V402.459H121.281V400.299H118.984V399.26H121.281V397.742H118.984V396.703H121.281V394.926H122.58ZM122.58 403.074V407.176H121.281V404.127H114.268V403.074H122.58ZM130.523 396.936V397.988H124.439V396.936H126.846V395.268H128.131V396.936H130.523ZM127.488 398.727C129.047 398.727 130.141 399.889 130.154 401.543C130.141 403.211 129.047 404.387 127.488 404.387C125.957 404.387 124.822 403.211 124.836 401.543C124.822 399.889 125.957 398.727 127.488 398.727ZM127.488 399.807C126.6 399.807 125.984 400.531 125.984 401.543C125.984 402.582 126.6 403.279 127.488 403.279C128.363 403.279 129.006 402.582 129.006 401.543C129.006 400.531 128.363 399.807 127.488 399.807ZM134.953 394.912V407.162H133.723V401.078H132.314V406.588H131.084V395.186H132.314V400.012H133.723V394.912H134.953ZM147.736 401.816V402.869H142.76V407.148H141.488V402.869H136.566V401.816H147.736ZM146.684 395.637V396.676H142.896C142.917 398.193 144.804 399.547 147.121 399.861L146.643 400.887C144.633 400.572 142.896 399.581 142.158 398.18C141.399 399.581 139.67 400.572 137.688 400.887L137.195 399.861C139.485 399.547 141.372 398.193 141.42 396.676H137.605V395.637H146.684ZM152.398 398.262C152.398 400.217 153.219 402.309 154.859 403.307L154.135 404.305C152.986 403.614 152.207 402.391 151.797 400.969C151.339 402.527 150.498 403.854 149.309 404.578L148.502 403.607C150.238 402.568 151.141 400.408 151.141 398.316V396.033H152.398V398.262ZM159.207 394.912V407.162H157.963V394.912H159.207ZM156.664 395.145V406.561H155.434V400.299H153.533V399.219H155.434V395.145H156.664ZM171.977 404.551V405.631H160.766V404.551H163.445V401.352C162.44 400.798 161.832 399.916 161.832 398.822C161.832 396.895 163.719 395.623 166.344 395.623C168.982 395.623 170.869 396.895 170.869 398.822C170.869 399.902 170.281 400.771 169.297 401.324V404.551H171.977ZM166.344 396.662C164.416 396.662 163.09 397.496 163.09 398.822C163.09 400.135 164.416 400.996 166.344 400.996C168.258 400.996 169.611 400.135 169.611 398.822C169.611 397.496 168.258 396.662 166.344 396.662ZM164.73 404.551H167.984V401.816C167.485 401.946 166.932 402.008 166.344 402.008C165.77 402.008 165.223 401.946 164.73 401.83V404.551Z" fill="#9CA3AF"/>
<path d="M42.6914 448.857V461.23H41.1602V448.857H42.6914ZM34.584 449.869V452.959H37.5781V449.869H39.082V458.318H33.0664V449.869H34.584ZM34.584 457.074H37.5781V454.148H34.584V457.074ZM51.0996 449.5V454.654H45.1387V449.5H51.0996ZM46.6426 450.717V453.465H49.5957V450.717H46.6426ZM54.7773 448.857V455.146H53.2734V448.857H54.7773ZM54.7773 455.707V458.906H48.1191V459.904H55.1465V461.107H46.6152V457.812H53.3008V456.896H46.6016V455.707H54.7773ZM66.959 448.871V457.99H65.4414V453.438H62.9531V455.98H57.1699V449.678H58.6875V451.674H61.4492V449.678H62.9531V452.207H65.4414V448.871H66.959ZM67.2324 459.74V460.971H58.8105V457.088H60.3555V459.74H67.2324ZM58.6875 454.777H61.4492V452.85H58.6875V454.777ZM79.4277 450.512V451.742H69.2148V450.512H73.5762V449.021H75.0801V450.512H79.4277ZM80.002 458.66V459.891H68.709V458.66H73.5762V457.143C71.4365 456.972 70.1445 456.117 70.1582 454.75C70.1445 453.26 71.7441 452.371 74.3281 452.371C76.8711 452.371 78.4844 453.26 78.4844 454.75C78.4844 456.11 77.1855 456.965 75.0801 457.129V458.66H80.002ZM74.3281 453.561C72.6465 453.574 71.7031 453.971 71.7168 454.75C71.7031 455.543 72.6465 455.939 74.3281 455.953C75.9824 455.939 76.9258 455.543 76.9258 454.75C76.9258 453.971 75.9824 453.574 74.3281 453.561Z" fill="#111827"/>
<rect x="32" y="473" width="311" height="40" rx="12" fill="#F9FAFB"/>
<path d="M58.5957 486.912V499.189H57.2969V486.912H58.5957ZM50.4336 487.938V491.082H53.7285V487.938H55.0137V496.25H49.1348V487.938H50.4336ZM50.4336 495.184H53.7285V492.107H50.4336V495.184ZM67.0176 487.568V492.613H61.1934V487.568H67.0176ZM62.4648 488.621V491.602H65.7324V488.621H62.4648ZM70.6953 486.912V493.188H69.4102V486.912H70.6953ZM70.6953 493.775V496.824H63.9551V498H71.0918V499.039H62.6836V495.881H69.4238V494.787H62.6562V493.775H70.6953ZM82.8633 486.926V495.977H81.5645V491.355H78.8848V493.939H73.2383V487.732H74.5371V489.811H77.5996V487.732H78.8848V490.303H81.5645V486.926H82.8633ZM83.1367 497.85V498.902H74.8652V495.088H76.1777V497.85H83.1367ZM74.5371 492.887H77.5996V490.809H74.5371V492.887ZM95.3594 488.635V489.688H85.2832V488.635H89.6855V487.09H90.9707V488.635H95.3594ZM95.9609 496.729V497.781H84.75V496.729H89.6855V495.102C87.5391 494.972 86.2402 494.124 86.2402 492.764C86.2402 491.287 87.7988 490.426 90.3281 490.426C92.8301 490.426 94.4023 491.287 94.4023 492.764C94.4023 494.124 93.0967 494.972 90.9707 495.102V496.729H95.9609ZM90.3281 491.451C88.5781 491.451 87.5527 491.916 87.5664 492.764C87.5527 493.611 88.5781 494.076 90.3281 494.09C92.0508 494.076 93.0762 493.611 93.0762 492.764C93.0762 491.916 92.0508 491.451 90.3281 491.451ZM108.047 492.531V493.529H96.8359V492.531H108.047ZM106.666 494.391V497.084H99.4746V498.096H107.049V499.012H98.1758V496.223H105.381V495.32H98.1621V494.391H106.666ZM106.639 487.227V489.879H99.5566V490.809H106.844V491.725H98.2715V489.018H105.34V488.143H98.2441V487.227H106.639ZM122.525 486.912V493.488H121.227V486.912H122.525ZM115.785 494.076V495.457H121.24V494.076H122.525V499.012H114.514V494.076H115.785ZM115.785 497.945H121.24V496.482H115.785V497.945ZM115.881 487.473C117.754 487.473 119.135 488.635 119.135 490.316C119.135 491.998 117.754 493.16 115.881 493.146C114.008 493.16 112.613 491.998 112.613 490.316C112.613 488.635 114.008 487.473 115.881 487.473ZM115.881 488.566C114.719 488.553 113.885 489.277 113.885 490.316C113.885 491.369 114.719 492.08 115.881 492.08C117.029 492.08 117.863 491.369 117.863 490.316C117.863 489.277 117.029 488.553 115.881 488.566ZM130.305 487.65V491.219H126.258V492.914C128.391 492.921 129.553 492.873 130.934 492.613L131.057 493.666C129.566 493.926 128.309 493.967 125.861 493.967H124.973V490.234H129.006V488.689H124.959V487.65H130.305ZM134.68 486.926V494.459H133.381V492.299H131.084V491.26H133.381V489.742H131.084V488.703H133.381V486.926H134.68ZM134.68 495.074V499.176H133.381V496.127H126.367V495.074H134.68ZM142.623 488.936V489.988H136.539V488.936H138.945V487.268H140.23V488.936H142.623ZM139.588 490.727C141.146 490.727 142.24 491.889 142.254 493.543C142.24 495.211 141.146 496.387 139.588 496.387C138.057 496.387 136.922 495.211 136.936 493.543C136.922 491.889 138.057 490.727 139.588 490.727ZM139.588 491.807C138.699 491.807 138.084 492.531 138.084 493.543C138.084 494.582 138.699 495.279 139.588 495.279C140.463 495.279 141.105 494.582 141.105 493.543C141.105 492.531 140.463 491.807 139.588 491.807ZM147.053 486.912V499.162H145.822V493.078H144.414V498.588H143.184V487.186H144.414V492.012H145.822V486.912H147.053ZM159.836 493.816V494.869H154.859V499.148H153.588V494.869H148.666V493.816H159.836ZM158.783 487.637V488.676H154.996C155.017 490.193 156.903 491.547 159.221 491.861L158.742 492.887C156.732 492.572 154.996 491.581 154.258 490.18C153.499 491.581 151.77 492.572 149.787 492.887L149.295 491.861C151.585 491.547 153.472 490.193 153.52 488.676H149.705V487.637H158.783ZM164.498 490.262C164.498 492.217 165.318 494.309 166.959 495.307L166.234 496.305C165.086 495.614 164.307 494.391 163.896 492.969C163.438 494.527 162.598 495.854 161.408 496.578L160.602 495.607C162.338 494.568 163.24 492.408 163.24 490.316V488.033H164.498V490.262ZM171.307 486.912V499.162H170.062V486.912H171.307ZM168.764 487.145V498.561H167.533V492.299H165.633V491.219H167.533V487.145H168.764ZM184.076 496.551V497.631H172.865V496.551H175.545V493.352C174.54 492.798 173.932 491.916 173.932 490.822C173.932 488.895 175.818 487.623 178.443 487.623C181.082 487.623 182.969 488.895 182.969 490.822C182.969 491.902 182.381 492.771 181.396 493.324V496.551H184.076ZM178.443 488.662C176.516 488.662 175.189 489.496 175.189 490.822C175.189 492.135 176.516 492.996 178.443 492.996C180.357 492.996 181.711 492.135 181.711 490.822C181.711 489.496 180.357 488.662 178.443 488.662ZM176.83 496.551H180.084V493.816C179.585 493.946 179.031 494.008 178.443 494.008C177.869 494.008 177.322 493.946 176.83 493.83V496.551ZM186.359 498.096C185.826 498.096 185.375 497.658 185.389 497.125C185.375 496.592 185.826 496.154 186.359 496.154C186.879 496.154 187.33 496.592 187.33 497.125C187.33 497.658 186.879 498.096 186.359 498.096Z" fill="#9CA3AF"/>
<path d="M318.774 493.973L317.651 492.85C317.821 491.96 317.587 491.201 316.949 490.573C316.31 489.945 315.544 489.704 314.651 489.85L313.528 488.727C313.76 488.619 313.998 488.542 314.244 488.494C314.489 488.447 314.742 488.423 315.001 488.423C316.135 488.423 317.098 488.819 317.89 489.61C318.682 490.402 319.077 491.365 319.077 492.5C319.077 492.759 319.055 493.011 319.011 493.257C318.967 493.502 318.888 493.741 318.774 493.973ZM321.954 497.084L320.851 496.05C321.484 495.567 322.051 495.029 322.551 494.437C323.051 493.846 323.467 493.2 323.801 492.5C322.967 490.817 321.763 489.479 320.188 488.487C318.613 487.496 316.884 487 315.001 487C314.517 487 314.046 487.033 313.588 487.1C313.13 487.167 312.667 487.267 312.201 487.4L311.035 486.235C311.671 485.983 312.319 485.798 312.98 485.679C313.641 485.56 314.315 485.5 315.001 485.5C317.149 485.5 319.123 486.058 320.922 487.175C322.72 488.292 324.104 489.802 325.072 491.708C325.138 491.835 325.187 491.962 325.217 492.091C325.247 492.22 325.262 492.356 325.262 492.5C325.262 492.643 325.25 492.78 325.225 492.909C325.2 493.037 325.154 493.165 325.087 493.292C324.733 494.045 324.289 494.74 323.754 495.377C323.22 496.014 322.62 496.583 321.954 497.084ZM315.001 499.5C312.895 499.5 310.966 498.937 309.212 497.812C307.458 496.687 306.064 495.206 305.029 493.367C304.946 493.24 304.885 493.102 304.847 492.954C304.808 492.805 304.789 492.654 304.789 492.5C304.789 492.346 304.806 492.197 304.839 492.054C304.872 491.91 304.931 491.77 305.014 491.633C305.386 490.953 305.807 490.306 306.278 489.691C306.748 489.076 307.289 488.526 307.901 488.038L305.643 485.765C305.504 485.617 305.436 485.44 305.438 485.235C305.44 485.031 305.513 484.856 305.658 484.711C305.803 484.567 305.979 484.494 306.185 484.494C306.392 484.494 306.567 484.567 306.712 484.711L323.289 501.288C323.427 501.427 323.501 501.598 323.509 501.803C323.518 502.007 323.444 502.187 323.289 502.342C323.144 502.487 322.969 502.559 322.762 502.559C322.556 502.559 322.38 502.487 322.235 502.342L318.716 498.854C318.126 499.082 317.52 499.247 316.898 499.348C316.275 499.449 315.643 499.5 315.001 499.5ZM308.954 489.092C308.369 489.545 307.842 490.057 307.375 490.628C306.907 491.199 306.516 491.823 306.201 492.5C307.034 494.183 308.238 495.521 309.813 496.512C311.388 497.504 313.117 498 315.001 498C315.43 498 315.853 497.971 316.269 497.913C316.685 497.856 317.098 497.767 317.508 497.646L316.243 496.35C316.04 496.438 315.838 496.498 315.636 496.53C315.434 496.561 315.222 496.577 315.001 496.577C313.866 496.577 312.903 496.181 312.111 495.389C311.319 494.598 310.924 493.634 310.924 492.5C310.924 492.278 310.941 492.066 310.976 491.864C311.01 491.662 311.069 491.46 311.151 491.258L308.954 489.092Z" fill="#111827"/>
<rect x="32" y="553" width="311" height="40" rx="12" fill="#9CA3AF"/>
<path d="M185.6 566.871V570.467H187.268V571.725H185.6V575.225H184.082V566.871H185.6ZM175.701 573.748C176.631 573.748 177.704 573.741 178.818 573.707V572.955C177.444 572.784 176.576 572.121 176.576 571.15C176.576 570.016 177.766 569.305 179.557 569.318C181.361 569.305 182.537 570.016 182.537 571.15C182.537 572.114 181.689 572.771 180.336 572.941V573.652C181.389 573.604 182.448 573.522 183.439 573.393L183.562 574.445C180.924 574.91 178.039 574.938 175.865 574.938L175.701 573.748ZM185.6 575.758V579.217H184.082V576.947H177.26V575.758H185.6ZM183.111 567.842V568.963H176.016V567.842H178.818V566.762H180.336V567.842H183.111ZM179.557 570.344C178.6 570.33 178.025 570.617 178.039 571.15C178.025 571.656 178.6 571.984 179.557 571.971C180.514 571.984 181.088 571.656 181.088 571.15C181.088 570.617 180.514 570.33 179.557 570.344ZM198.205 566.871V575.799H196.674V566.871H198.205ZM198.547 577.74V578.971H190.029V574.896H191.561V577.74H198.547ZM191.465 567.678C193.338 567.678 194.787 568.977 194.787 570.768C194.787 572.6 193.338 573.871 191.465 573.871C189.578 573.871 188.129 572.6 188.129 570.768C188.129 568.977 189.578 567.678 191.465 567.678ZM191.465 569.004C190.412 569.004 189.605 569.701 189.619 570.768C189.605 571.861 190.412 572.545 191.465 572.545C192.49 572.545 193.297 571.861 193.297 570.768C193.297 569.701 192.49 569.004 191.465 569.004Z" fill="white"/>
<path d="M100.777 619.12V632.245H99.4443V619.12H100.777ZM98.1113 619.369V631.601H96.7783V625.272H95.2988C95.1816 627.836 94.083 629.433 92.457 629.418C90.7432 629.433 89.6299 627.631 89.6299 624.789C89.6299 621.947 90.7432 620.16 92.457 620.175C94.0537 620.16 95.1377 621.676 95.2988 624.145H96.7783V619.369H98.1113ZM92.457 621.479C91.5049 621.479 90.9189 622.694 90.9189 624.789C90.9189 626.884 91.5049 628.1 92.457 628.1C93.4238 628.1 94.0244 626.884 94.0244 624.789C94.0244 622.694 93.4238 621.479 92.457 621.479ZM113.39 619.12V632.274H112.013V625.053H109.112V629.022H102.96V620.131H104.366V623.485H107.75V620.131H109.112V623.91H112.013V619.12H113.39ZM104.366 627.88H107.75V624.584H104.366V627.88ZM126.295 619.135V627.177H124.903V619.135H126.295ZM122.105 619.94V623.661H117.462V625.302C119.754 625.28 121.446 625.214 123.438 624.906L123.614 626.034C121.476 626.386 119.674 626.444 117.198 626.444H116.1V622.592H120.729V621.083H116.07V619.94H122.105ZM121.915 627.426C124.684 627.426 126.383 628.29 126.383 629.828C126.383 631.337 124.684 632.23 121.915 632.216C119.132 632.23 117.447 631.337 117.447 629.828C117.447 628.29 119.132 627.426 121.915 627.426ZM121.915 628.524C119.967 628.524 118.824 628.993 118.824 629.828C118.824 630.663 119.967 631.117 121.915 631.117C123.863 631.117 124.991 630.663 124.991 629.828C124.991 628.993 123.863 628.524 121.915 628.524ZM139.244 619.12V632.274H137.853V619.12H139.244ZM132.228 620.102C134.176 620.102 135.611 621.889 135.611 624.701C135.611 627.528 134.176 629.315 132.228 629.315C130.25 629.315 128.829 627.528 128.829 624.701C128.829 621.889 130.25 620.102 132.228 620.102ZM132.228 621.347C131.012 621.347 130.177 622.636 130.177 624.701C130.177 626.781 131.012 628.07 132.228 628.07C133.429 628.07 134.264 626.781 134.264 624.701C134.264 622.636 133.429 621.347 132.228 621.347ZM155.958 619.12V632.274H154.566V625.448H151.856V624.32H154.566V619.12H155.958ZM149.659 623.339C149.659 625.419 150.992 627.543 153.014 628.437L152.237 629.506C150.736 628.839 149.579 627.47 149 625.814C148.421 627.565 147.271 629.03 145.763 629.726L145.001 628.656C146.993 627.748 148.282 625.507 148.282 623.339V622.475H145.367V621.361H148.297V619.384H149.688V621.361H152.53V622.475H149.659V623.339ZM163.941 619.398C166.827 619.398 168.629 620.336 168.629 621.918C168.629 623.471 166.827 624.394 163.941 624.394C161.07 624.394 159.254 623.471 159.254 621.918C159.254 620.336 161.07 619.398 163.941 619.398ZM163.941 620.497C161.92 620.497 160.675 621.01 160.689 621.918C160.675 622.797 161.92 623.295 163.941 623.31C165.948 623.295 167.193 622.797 167.193 621.918C167.193 621.01 165.948 620.497 163.941 620.497ZM168.468 627.704V632.084H159.4V627.704H168.468ZM160.777 628.817V630.956H167.12V628.817H160.777ZM169.933 625.404V626.532H157.965V625.404H169.933ZM181.798 619.12V632.274H180.406V619.12H181.798ZM174.781 620.102C176.729 620.102 178.165 621.889 178.165 624.701C178.165 627.528 176.729 629.315 174.781 629.315C172.804 629.315 171.383 627.528 171.383 624.701C171.383 621.889 172.804 620.102 174.781 620.102ZM174.781 621.347C173.565 621.347 172.73 622.636 172.73 624.701C172.73 626.781 173.565 628.07 174.781 628.07C175.982 628.07 176.817 626.781 176.817 624.701C176.817 622.636 175.982 621.347 174.781 621.347ZM194.776 619.135V628.744H193.385V619.135H194.776ZM195.172 630.839V631.967H186.192V627.836H187.599V630.839H195.172ZM188.668 621.156C188.653 623.075 189.884 624.833 191.905 625.536L191.188 626.649C189.671 626.085 188.551 624.972 187.965 623.544C187.386 625.067 186.251 626.291 184.713 626.884L183.966 625.785C186.031 625.023 187.247 623.134 187.247 621.156V619.853H188.668V621.156ZM207.081 619.12V624.35H209.117V625.507H207.081V632.23H205.689V619.12H207.081ZM203.653 620.497C203.639 624.291 201.969 627.675 197.647 629.813L196.871 628.729C200.16 627.089 201.947 624.716 202.232 621.654H197.53V620.497H203.653ZM221.832 629.447V630.604H209.82V629.447H212.691V626.02C211.615 625.426 210.963 624.481 210.963 623.31C210.963 621.244 212.984 619.882 215.797 619.882C218.624 619.882 220.646 621.244 220.646 623.31C220.646 624.467 220.016 625.397 218.961 625.99V629.447H221.832ZM215.797 620.995C213.731 620.995 212.311 621.889 212.311 623.31C212.311 624.716 213.731 625.639 215.797 625.639C217.848 625.639 219.298 624.716 219.298 623.31C219.298 621.889 217.848 620.995 215.797 620.995ZM214.068 629.447H217.555V626.518C217.02 626.657 216.427 626.723 215.797 626.723C215.182 626.723 214.596 626.657 214.068 626.532V629.447ZM224.938 627.851C224.952 625.932 225.523 625.346 226.49 624.745C227.105 624.364 227.574 623.837 227.574 623.061C227.574 622.138 226.871 621.566 225.992 621.566C225.201 621.566 224.439 622.05 224.366 623.134H222.784C222.843 621.273 224.249 620.248 225.992 620.248C227.896 620.248 229.171 621.391 229.171 623.061C229.171 624.232 228.614 625.023 227.677 625.595C226.798 626.122 226.461 626.664 226.432 627.851V627.938H224.938V627.851ZM225.743 631.103C225.172 631.103 224.688 630.634 224.703 630.062C224.688 629.491 225.172 629.022 225.743 629.022C226.3 629.022 226.783 629.491 226.783 630.062C226.783 630.634 226.3 631.103 225.743 631.103Z" fill="#1F2937"/>
<path d="M245.338 632.245H243.946V619.12H245.338V632.245ZM234.557 628.671C236.134 628.661 237.335 628.644 238.16 628.62V627.309C237.647 627.245 237.201 627.106 236.82 626.891C236.439 626.676 236.146 626.4 235.941 626.063C235.736 625.727 235.636 625.346 235.641 624.921C235.636 624.433 235.765 624.003 236.029 623.632C236.292 623.261 236.666 622.973 237.149 622.768C237.633 622.562 238.189 622.46 238.819 622.46C239.454 622.46 240.016 622.562 240.504 622.768C240.997 622.973 241.378 623.261 241.646 623.632C241.92 624.003 242.057 624.433 242.057 624.921C242.057 625.341 241.952 625.719 241.742 626.056C241.537 626.388 241.244 626.662 240.863 626.876C240.487 627.091 240.045 627.233 239.537 627.301V628.568C240.826 628.515 242.027 628.417 243.141 628.275L243.243 629.315C241.949 629.53 240.616 629.669 239.244 629.733C237.872 629.796 236.373 629.828 234.747 629.828L234.557 628.671ZM242.848 621.801H234.835V620.688H238.16V619.149H239.552V620.688H242.848V621.801ZM238.819 623.544C238.453 623.544 238.128 623.603 237.845 623.72C237.562 623.832 237.342 623.993 237.186 624.203C237.03 624.408 236.954 624.647 236.959 624.921C236.954 625.194 237.03 625.434 237.186 625.639C237.342 625.839 237.562 625.995 237.845 626.107C238.128 626.215 238.453 626.269 238.819 626.269C239.195 626.269 239.527 626.215 239.815 626.107C240.104 625.995 240.326 625.839 240.482 625.639C240.643 625.434 240.724 625.194 240.724 624.921C240.724 624.647 240.643 624.408 240.482 624.203C240.321 623.993 240.096 623.832 239.808 623.72C239.52 623.603 239.19 623.544 238.819 623.544ZM258.36 629.081H256.969V627.821H254.332V626.84H256.969V619.135H258.36V629.081ZM258.683 631.967H249.205V628.114H250.582V630.839H258.683V631.967ZM247.389 625.126C249.098 625.116 250.631 625.087 251.988 625.038C253.351 624.989 254.649 624.887 255.885 624.73L255.973 625.727C254.894 625.902 253.741 626.029 252.516 626.107V628.671H251.124V626.188C250.182 626.222 249.22 626.239 248.238 626.239H247.564L247.389 625.126ZM251.681 619.633C252.315 619.633 252.879 619.73 253.373 619.926C253.866 620.116 254.249 620.387 254.522 620.739C254.796 621.085 254.933 621.488 254.933 621.947C254.933 622.406 254.796 622.809 254.522 623.156C254.249 623.498 253.866 623.764 253.373 623.954C252.879 624.14 252.315 624.232 251.681 624.232C251.036 624.232 250.467 624.14 249.974 623.954C249.481 623.764 249.098 623.498 248.824 623.156C248.551 622.809 248.414 622.406 248.414 621.947C248.414 621.488 248.551 621.085 248.824 620.739C249.098 620.387 249.481 620.116 249.974 619.926C250.467 619.73 251.036 619.633 251.681 619.633ZM251.681 620.673C251.295 620.668 250.953 620.717 250.655 620.819C250.357 620.922 250.128 621.071 249.967 621.266C249.806 621.461 249.728 621.688 249.732 621.947C249.728 622.201 249.806 622.423 249.967 622.614C250.128 622.804 250.355 622.951 250.648 623.053C250.946 623.156 251.29 623.207 251.681 623.207C252.057 623.207 252.389 623.156 252.677 623.053C252.97 622.951 253.197 622.804 253.358 622.614C253.524 622.423 253.609 622.201 253.614 621.947C253.609 621.688 253.524 621.461 253.358 621.266C253.197 621.071 252.97 620.922 252.677 620.819C252.389 620.717 252.057 620.668 251.681 620.673ZM270.636 624.35H272.672V625.507H270.636V632.23H269.244V619.12H270.636V624.35ZM267.208 620.497C267.198 622.499 266.712 624.296 265.75 625.888C264.789 627.479 263.272 628.788 261.202 629.813L260.426 628.729C262.066 627.909 263.333 626.908 264.227 625.727C265.125 624.545 265.646 623.188 265.787 621.654H261.085V620.497H267.208ZM284.259 626.166H282.867V619.12H284.259V626.166ZM277.037 628.275H282.882V626.796H284.259V632.084H275.675V626.796H277.037V628.275ZM282.882 630.941V629.374H277.037V630.941H282.882ZM277.14 619.721C277.804 619.721 278.399 619.85 278.927 620.109C279.459 620.368 279.874 620.729 280.172 621.193C280.475 621.652 280.626 622.177 280.626 622.768C280.626 623.358 280.475 623.886 280.172 624.35C279.874 624.809 279.459 625.167 278.927 625.426C278.399 625.68 277.804 625.805 277.14 625.8C276.476 625.805 275.877 625.68 275.345 625.426C274.813 625.167 274.396 624.809 274.093 624.35C273.79 623.886 273.639 623.358 273.639 622.768C273.639 622.177 273.79 621.652 274.093 621.193C274.396 620.729 274.813 620.368 275.345 620.109C275.877 619.85 276.476 619.721 277.14 619.721ZM277.14 620.893C276.729 620.888 276.361 620.966 276.034 621.127C275.711 621.283 275.458 621.505 275.272 621.793C275.091 622.077 275.001 622.401 275.001 622.768C275.001 623.139 275.091 623.468 275.272 623.756C275.458 624.04 275.711 624.262 276.034 624.423C276.361 624.579 276.729 624.657 277.14 624.657C277.545 624.657 277.909 624.579 278.231 624.423C278.553 624.262 278.805 624.04 278.985 623.756C279.171 623.468 279.264 623.139 279.264 622.768C279.264 622.401 279.171 622.077 278.985 621.793C278.805 621.505 278.553 621.283 278.231 621.127C277.909 620.966 277.545 620.888 277.14 620.893Z" fill="#34B17B"/>
<path d="M234 633.351H285.855V634.486H234V633.351Z" fill="#34B17B"/>
<path d="M283.606 113.425C279.967 115.412 278.047 120.229 277.946 127.572C277.845 133.163 278.62 133.23 283.1 128.11C288.187 122.283 290.31 116.153 287.985 113.863C287.076 112.954 284.852 112.718 283.606 113.425ZM286.469 114.705C287.311 115.547 287.379 117.703 286.638 119.757C285.998 121.576 283.572 125.146 281.416 127.504L279.698 129.357L279.866 125.82C280.169 120.094 281.551 116.49 284.077 114.806C285.459 113.863 285.627 113.863 286.469 114.705Z" fill="#1F2937"/>
<path d="M265.143 125.585C262.818 127.875 263.122 134.443 265.951 143.234C266.928 146.232 267.03 146.4 267.838 146.299C268.613 146.198 268.849 145.861 269.523 143.84C270.904 139.798 271.712 135.858 271.746 132.894C271.847 127.774 270.5 125.248 267.501 124.911C266.187 124.742 265.85 124.844 265.143 125.585ZM268.377 126.763C270.23 128.818 270.466 133.197 269.051 138.99C268.546 141.011 268.04 142.661 267.905 142.661C267.636 142.661 266.962 140.539 266.053 136.767C265.278 133.567 265.278 128.683 266.019 127.235C266.693 126.022 267.535 125.854 268.377 126.763Z" fill="#1F2937"/>
<path d="M281.922 139.596C279.429 140.775 276.902 143.941 274.207 149.364C272.623 152.463 270.299 157.953 270.299 158.525C270.299 159.772 275.757 157.279 280.069 154.079C285.055 150.374 287.278 147.006 287.312 143.099C287.312 141.28 287.177 140.876 286.436 140.135C285.291 138.99 283.606 138.788 281.922 139.596ZM284.988 141.011C286.638 142.829 285.021 147.41 281.517 150.812C279.395 152.9 273.23 157.01 273.061 156.504C272.859 155.932 276.835 147.983 278.62 145.322C280.507 142.526 282.764 140.303 283.707 140.303C284.078 140.303 284.617 140.606 284.988 141.011Z" fill="#1F2937"/>
<path d="M258.607 170.921C253.486 171.763 249.241 173.851 245.703 177.354C242.941 180.082 241.661 182.474 241.661 185.033C241.661 187.358 242.436 188.974 244.086 190.187C246.95 192.241 250.757 192.14 253.654 189.951L255.136 188.806L255.339 190.187C255.608 191.804 256.686 193.521 257.832 194.094C259.92 195.138 263.66 194.195 265.378 192.14C266.22 191.164 266.22 191.164 266.591 191.837C266.894 192.41 266.827 193.016 266.254 194.633C263.054 204.165 250.454 213.697 232.16 220.467C228.353 221.848 227.073 222.825 229.027 222.825C230.442 222.825 238.123 219.793 243.682 217.065C255.777 211.137 265.547 202.548 267.736 195.946L268.309 194.296L270.297 194.33C271.476 194.33 272.453 194.195 272.722 193.926C274.036 192.612 273.935 193.993 272.453 198.473C268.781 209.52 261.74 218.716 252.138 225.115C249.611 226.799 249.376 227.035 250.016 227.305C250.555 227.54 251.161 227.338 252.778 226.361C259.954 222.016 267.332 213.865 271.341 205.95C272.722 203.188 275.35 195.913 275.35 194.835C275.35 194.027 275.755 194.027 276.529 194.869C278.079 196.586 281.347 196.418 283.301 194.498L284.413 193.42L284.884 194.599C285.154 195.273 285.558 195.913 285.76 196.014C286.232 196.317 286.232 200.291 285.794 203.458C284.312 213.731 278.82 222.993 270.836 228.686C268.478 230.37 268.275 230.706 269.185 231.043C269.926 231.346 272.79 229.359 275.99 226.361C283.099 219.692 287.276 210.666 287.714 201.167L287.916 197.226H289.567C291.42 197.226 293.543 196.317 294.351 195.138C295.699 193.252 294.216 192.915 292.431 194.7C291.454 195.677 291.016 195.879 289.769 195.879C288.557 195.879 288.085 195.677 287.276 194.835C286.333 193.858 286.299 193.69 286.299 190.625C286.299 187.459 286.299 187.425 285.491 187.526C284.851 187.593 284.581 187.998 284.11 189.547C283.503 191.534 282.425 193.319 281.28 194.262C279.427 195.778 277.136 194.195 276.765 191.13C276.63 190.119 276.63 188.469 276.732 187.459C276.833 186.448 276.866 185.505 276.799 185.337C276.563 184.932 275.35 185.067 275.215 185.505C275.148 185.741 274.811 186.987 274.508 188.267C273.767 191.13 272.049 193.185 270.364 193.185C268.814 193.185 268.174 192.006 267.939 188.671C267.804 186.313 267.669 185.943 267.164 185.943C266.726 185.943 266.355 186.448 265.883 187.795C264.266 192.41 260.493 194.667 258.202 192.376C257.36 191.534 257.326 191.298 257.293 188.031C257.293 185.168 257.192 184.562 256.754 184.495C256.45 184.427 255.945 184.798 255.574 185.303C253.115 188.873 250.251 190.793 248.028 190.355C245.164 189.783 243.076 187.021 243.48 184.326C244.221 179.745 250.016 174.558 256.484 172.773C259.516 171.931 270.701 171.897 275.249 172.773C281.28 173.885 285.592 175.501 289.702 178.23C295.059 181.766 297.855 185.808 298.832 191.366C300.617 201.706 294.318 217.806 284.851 227.001C283.065 228.719 282.93 229.224 284.211 229.224C285.457 229.224 289.972 224.239 292.97 219.591C300.685 207.634 303.11 193.151 298.731 185.135C295.126 178.499 286.67 173.514 275.687 171.561C271.442 170.82 261.639 170.449 258.607 170.921Z" fill="#1F2937"/>
<path d="M110.327 128.239C102.608 129.402 98.6869 130.505 93.2958 133.047C88.3335 135.405 84.9334 137.793 81.0432 141.652C75.6215 147.011 72.6502 152.156 70.7511 159.567C70.0772 162.14 69.8321 163.916 69.8015 166.152L69.7402 169.214L83.3099 169.306L96.849 169.367V167.162C96.8796 158.434 101.995 151.299 109.898 148.971C112.103 148.328 116.821 148.236 119.21 148.818C121.691 149.431 125.06 151.054 127.174 152.677C128.736 153.871 132.381 157.883 132.381 158.404C132.381 158.496 131.371 158.618 130.115 158.71C124.815 159.047 121.14 162.967 121.415 167.928L121.507 169.52L147.207 169.612C165.923 169.643 172.999 169.582 173.305 169.337C173.979 168.785 173.856 164.621 173.121 162.262C171.59 157.271 166.934 155.096 162.308 157.209L160.562 158.006V156.107C160.532 151.911 158.939 147.287 156.58 144.745C153.915 141.866 149.351 140.58 145.553 141.621L143.868 142.081L143.286 141.254C142.153 139.692 138.048 135.803 136.088 134.486C131.432 131.332 125.306 129.096 119.363 128.361C116.759 128.055 111.981 127.963 110.327 128.239ZM123.131 129.831C127.787 130.995 132.626 133.322 136.088 136.048C139.457 138.682 143.01 142.693 142.214 142.969C142 143.03 141.356 143.52 140.774 144.01L139.733 144.929L138.293 143.735C131.677 138.345 124.478 135.374 115.779 134.425C108.366 133.659 100.188 135.435 93.7246 139.263C84.4433 144.806 77.7657 155.249 76.6936 165.999L76.4791 168.295L74.0593 168.387C72.7115 168.449 71.5169 168.357 71.3637 168.204C70.9655 167.806 71.6087 162.293 72.3745 159.384C75.3458 147.961 82.7279 139.294 93.9084 133.996C98.7481 131.699 104.476 129.923 109.224 129.249C112.44 128.79 120.251 129.127 123.131 129.831ZM116.147 135.497C122.641 135.956 130.85 139.386 136.731 144.133L138.814 145.817L137.711 147.471L136.578 149.155L135.169 147.961C129.686 143.398 123.743 141.407 115.687 141.438C107.907 141.468 100.402 143.826 94.8886 147.991C89.9569 151.697 86.1586 158.22 85.2091 164.621C84.9947 165.968 84.7802 167.377 84.719 167.744C84.5964 168.418 84.4739 168.449 81.3495 168.449H78.072L78.2864 166.519C78.9603 160.639 80.8594 155.341 84.0145 150.564C89.9876 141.56 98.9932 136.201 109.408 135.405C110.848 135.282 112.44 135.221 112.93 135.282C113.451 135.313 114.891 135.405 116.147 135.497ZM152.169 143.061C154.038 143.826 155.845 145.786 157.04 148.267C158.204 150.748 158.724 153.32 158.816 157.424C158.878 160.854 159.153 161.099 161.114 159.445C163.625 157.363 166.627 156.873 168.496 158.281C169.752 159.2 171.222 161.313 171.62 162.722C171.835 163.426 172.018 164.957 172.018 166.152L172.049 168.295L147.421 168.387L122.794 168.449L123.008 167.009C123.284 164.896 124.662 162.354 126.163 161.221C128.43 159.506 131.187 159.231 135.046 160.364C135.873 160.609 135.873 160.609 136.333 156.964C137.374 149.033 141.356 143.306 146.441 142.418C148.248 142.081 150.546 142.356 152.169 143.061ZM122.733 143.03C126.684 143.888 131.064 146.123 133.852 148.696C135.904 150.594 135.996 150.778 135.72 151.544C135.261 152.738 134.526 156.383 134.526 157.454C134.526 158.588 134.189 158.588 133.515 157.454C130.85 152.922 124.938 148.91 119.21 147.746C112.287 146.368 104.476 148.818 100.065 153.841C97.3697 156.903 95.0417 163.12 95.0111 167.285V168.449H90.6921H86.3424L86.5569 166.458C86.8325 163.732 88.0884 159.537 89.3749 157.118C94.3066 147.685 103.71 142.479 115.84 142.448C118.842 142.448 120.711 142.601 122.733 143.03Z" fill="#1F2937"/>
<path d="M143.304 91.8018C142.722 91.662 142.189 91.9994 141.722 92.7492C141.176 93.624 141.094 95.5062 141.481 98.4248C141.806 101.007 142.12 101.178 143.954 99.8668C144.703 99.3418 145.904 98.3301 146.642 97.6246C147.867 96.4545 147.956 96.3117 148.096 95.531C148.213 94.7861 148.15 94.6479 147.579 94.2918C146.918 93.8801 145.83 93.9952 145.181 94.5579C144.731 94.922 144.557 94.7638 144.659 94.0836C144.729 93.5327 144.197 92.1597 143.818 91.9728C143.728 91.9172 143.481 91.8372 143.304 91.8018ZM143.444 94.8388C143.265 96.4379 143.313 96.8393 143.621 96.9816C143.911 97.1128 144.25 96.9273 144.983 96.2685C146.061 95.2548 146.794 94.7945 147.044 94.9503C147.473 95.2174 145.836 97.048 143.696 98.6897L142.647 99.4982L142.407 98.1338C142.04 95.8975 142.449 92.8554 143.163 92.7051C143.609 92.5863 143.66 92.9408 143.444 94.8388Z" fill="#1F2937"/>
<path d="M138.15 103.413C137.735 103.601 137.47 103.906 137.196 104.504L136.825 105.339L135.798 104.6C134.914 103.95 134.695 103.863 134.069 103.993C132.739 104.256 132.525 105.634 133.54 107.308C134.074 108.161 135.624 109.771 137.137 110.963L138.077 111.722L138.389 111.222C138.767 110.615 139.71 107.831 140.011 106.432C140.457 104.405 139.474 102.8 138.15 103.413ZM138.745 106.833C138.527 107.739 138.172 108.905 137.936 109.403C137.531 110.291 137.509 110.327 137.063 110.048C136.366 109.614 134.675 107.594 134.232 106.673C133.763 105.637 133.889 104.997 134.618 104.782C135.289 104.58 135.439 104.698 136.123 105.868C136.431 106.408 136.845 106.938 137.059 107.071C137.363 107.26 137.443 107.211 137.621 106.727C137.734 106.426 138.061 105.663 138.375 105.04L138.953 103.914L139.054 104.547C139.117 104.883 138.973 105.909 138.745 106.833Z" fill="#1F2937"/>
<path d="M146.285 117.804C145.944 117.914 145.556 118.218 145.289 118.646C144.877 119.307 144.837 119.331 144.486 118.939C143.816 118.224 143.071 117.908 142.465 118.125C140.795 118.696 141.386 120.651 144.095 123.504C144.801 124.242 145.497 124.874 145.656 124.898C146.055 124.974 147.696 122.302 148.069 120.948C148.584 119.088 147.634 117.43 146.285 117.804ZM146.746 121.041C146.484 121.82 146.064 122.773 145.808 123.183C145.374 123.88 145.345 123.886 144.947 123.49C144.031 122.572 143.059 121.149 142.833 120.437C142.312 118.848 143.337 118.198 144.03 119.671C144.656 121.053 144.833 121.287 145.139 121.353C145.315 121.389 145.486 121.273 145.526 121.05C145.653 120.409 146.418 118.903 146.754 118.642C147.069 118.416 147.093 118.456 147.163 119.021C147.208 119.346 147.026 120.274 146.746 121.041Z" fill="#1F2937"/>
<path d="M103.963 62.2553C103.776 62.5673 102.559 67.7467 102.527 68.3084C102.527 68.4644 102.902 68.5268 103.37 68.4644C104.15 68.3708 104.244 68.1836 104.774 65.8747C105.586 62.2553 105.586 62.1617 104.806 62.0369C104.462 61.9745 104.057 62.0681 103.963 62.2553Z" fill="#1F2937" stroke="#1F2937" stroke-width="0.415453"/>
<path d="M88.4844 64.0027C88.4844 64.1275 89.1397 65.3131 89.9512 66.686C91.1059 68.5581 91.6052 69.1509 92.1357 69.1509C92.5102 69.1509 92.8847 69.0573 92.9472 68.9013C93.0408 68.7765 92.4478 67.622 91.6364 66.3428C90.4817 64.4707 90.0136 63.9715 89.327 63.9091C88.8589 63.8467 88.4844 63.9091 88.4844 64.0027Z" fill="#1F2937" stroke="#1F2937" stroke-width="0.415453"/>
<path d="M114.137 70.7109C112.702 71.7094 111.547 72.6454 111.547 72.8014C111.547 72.9262 111.89 73.0822 112.265 73.1446C113.014 73.207 117.82 69.9621 118.069 69.2132C118.35 68.3084 116.571 68.9948 114.137 70.7109Z" fill="#1F2937" stroke="#1F2937" stroke-width="0.415453"/>
<path d="M97.5646 75.8901C94.7246 76.6389 92.7897 78.4798 91.5726 81.5376C90.9796 83.0352 90.8548 83.9401 90.8548 86.9354C90.8236 90.1179 90.9172 90.7107 91.6038 92.0836C93.4138 95.7654 96.878 97.9183 101.122 97.9183C108.019 97.9807 112.732 93.7997 112.076 88.2458C111.483 83.1288 106.584 79.9775 101.559 81.4127C98.7193 82.2552 97.1276 84.3769 97.1276 87.3098C97.1276 88.7139 97.2837 89.3379 97.939 90.3363C99.7803 93.1132 103.244 93.5501 105.179 91.2724C106.459 89.7435 106.084 87.2474 104.586 87.2474C103.557 87.2474 103.463 87.497 104.025 88.4955C104.43 89.2131 104.462 89.5251 104.149 90.1803C103.806 90.9292 103.619 90.9916 101.934 90.9916C100.28 90.9916 100.061 90.898 99.5307 90.1491C98.8129 89.0571 98.5944 86.5922 99.0938 85.3753C99.9676 83.2848 102.995 81.6624 105.117 82.1304C106.646 82.4424 108.363 83.6904 109.299 85.0945C110.516 86.9354 110.703 90.0555 109.705 92.0524C108.238 95.1101 104.992 96.9198 100.997 96.9198C97.3461 96.9198 94.8806 95.2661 93.289 91.7716C91.8846 88.6515 92.0719 84.4705 93.7571 80.8199C95.2863 77.5126 97.3461 76.5141 102.152 76.6701C105.585 76.7949 106.428 76.3581 103.775 75.7965C101.434 75.3285 99.5619 75.3597 97.5646 75.8901Z" fill="#1F2937" stroke="#1F2937" stroke-width="0.415453"/>
<path d="M78.1855 78.0122C78.1855 78.6986 78.3728 78.7298 82.4923 78.9794C85.4571 79.1354 85.9876 79.1042 85.9876 78.6986C85.9876 78.0122 85.8316 77.981 81.8681 77.7314C78.5913 77.5442 78.1855 77.5754 78.1855 78.0122Z" fill="#1F2937" stroke="#1F2937" stroke-width="0.415453"/>
<path d="M122.094 78.8546C121.782 79.0418 120.472 79.385 119.161 79.6034C116.695 80.0402 116.29 80.2274 116.758 80.6955C117.413 81.3507 124.061 79.7906 124.061 78.9482C124.061 78.4178 122.906 78.3866 122.094 78.8546Z" fill="#1F2937" stroke="#1F2937" stroke-width="0.415453"/>
<path d="M118.443 93.0198C118.162 93.363 118.255 93.5502 119.004 93.9246C120.814 94.8606 124.715 96.2959 125.464 96.2959C126.401 96.2959 126.806 95.7343 126.026 95.4847C125.34 95.2663 121.47 93.7374 119.941 93.051C118.973 92.6453 118.755 92.6453 118.443 93.0198Z" fill="#1F2937" stroke="#1F2937" stroke-width="0.415453"/>
<path d="M83.6465 94.7045C82.9599 95.0165 81.4307 95.5157 80.2136 95.8277C77.8105 96.4517 77.1864 96.795 77.9354 97.0758C78.934 97.4814 86.6113 95.0789 86.6113 94.3925C86.6113 93.9244 84.9884 94.1116 83.6465 94.7045Z" fill="#1F2937" stroke="#1F2937" stroke-width="0.415453"/>
<path d="M111.421 101.6C111.171 101.975 111.889 102.599 114.76 104.627C116.539 105.844 116.976 106.031 117.569 105.75C118.224 105.469 118.162 105.407 116.695 104.408C115.853 103.816 114.604 102.879 113.886 102.318C112.576 101.257 111.764 101.039 111.421 101.6Z" fill="#1F2937" stroke="#1F2937" stroke-width="0.415453"/>
<path d="M91.0105 108.027C90.199 110.711 90.0742 111.428 90.4175 111.615C90.9793 111.99 91.1665 111.959 91.5098 111.491C91.9467 110.96 93.7568 105.094 93.5383 104.876C93.4447 104.782 93.0702 104.72 92.6957 104.72C92.1028 104.72 91.8843 105.157 91.0105 108.027Z" fill="#1F2937" stroke="#1F2937" stroke-width="0.415453"/>
<path d="M102.965 105.812C102.715 106.405 103.308 109.338 103.963 110.898C104.307 111.709 104.556 111.927 105.087 111.834C105.898 111.709 105.898 111.74 104.962 108.152C104.431 106.249 104.088 105.469 103.682 105.406C103.401 105.344 103.058 105.531 102.965 105.812Z" fill="#1F2937" stroke="#1F2937" stroke-width="0.415453"/>
<path d="M70.4395 246.484H83.7887H110.294V250.43H70.4395V246.484Z" fill="#34B17B"/>
<path d="M83.8555 246.484L84.6447 227.149H111.675L110.293 246.484H83.8555Z" fill="#73CFA5"/>
<path d="M86.8164 244.117L87.8029 229.714H108.914L107.73 244.117H86.8164Z" fill="#EAF8F2"/>
<rect x="131.512" y="230.697" width="77.8949" height="8.65498" fill="#68BA95"/>
<rect x="131.512" y="239.353" width="7.69332" height="48.0832" fill="#68BA95"/>
<rect x="161.322" y="239.353" width="7.69332" height="48.0832" fill="#68BA95"/>
<rect x="209.406" y="239.353" width="7.69332" height="48.0832" fill="#A8E0C5"/>
<rect x="243.064" y="239.353" width="7.69332" height="48.0832" fill="#A8E0C5"/>
<rect x="209.406" y="230.697" width="41.3516" height="8.65498" fill="#A8E0C5"/>
<rect x="44" y="215.311" width="35.5816" height="35.1008" fill="#68BA95"/>
<rect x="44" y="250.412" width="35.5816" height="8.65498" fill="#A8E0C5"/>
<rect x="79.582" y="250.412" width="23.08" height="8.65498" fill="#68BA95"/>
<rect x="71.8887" y="259.066" width="7.69332" height="28.8499" fill="#68BA95"/>
<rect x="44" y="259.066" width="7.69332" height="28.8499" fill="#68BA95"/>
<rect x="94.9688" y="259.066" width="7.69332" height="28.8499" fill="#68BA95"/>
<path d="M329.096 265.325C323.888 265.641 324.032 257.301 324.756 253.092V252.106L331.267 252.895L333.634 258.814C334.292 260.853 334.305 265.009 329.096 265.325Z" fill="#1F2937"/>
<path d="M326.925 247.173C313.824 245.753 308.839 261.181 307.984 269.073H313.509C315.021 263.812 319.467 253.329 325.149 253.487C330.831 253.645 333.173 257.499 333.633 259.406C333.304 255.591 331.502 247.805 326.925 247.173Z" fill="#26A275"/>
<path d="M293.977 223.301C287.19 224.09 293.648 254.013 297.726 268.876H302.066C302.198 253.356 300.764 222.511 293.977 223.301Z" fill="#26A275"/>
<path d="M308.972 269.073H303.842C305.749 251.251 303.842 216.789 316.469 218.96C323.23 220.122 314.101 253.487 308.972 269.073Z" fill="#26A275"/>
<path d="M288.848 254.671C289.966 254.868 293.188 256.841 293.977 263.155C294.767 269.468 294.043 270.389 293.977 270.06" stroke="#1F2937" stroke-width="1.12281" stroke-linecap="round"/>
<path d="M320.217 240.86C317.969 241.253 311.49 245.184 309.904 257.764C308.317 270.344 309.771 272.179 309.904 271.524" stroke="#1F2937" stroke-width="1.12281" stroke-linecap="round"/>
<circle cx="323.177" cy="238.295" r="5.32705" fill="#EA580C"/>
<circle cx="285.69" cy="251.317" r="5.32705" fill="#EA580C"/>
<rect x="285.492" y="268.876" width="39.4596" height="19.3352" rx="9.66761" fill="#73CFA5"/>
<path d="M104.583 170.448C104.668 170.292 104.892 170.292 104.977 170.448C106.352 172.961 108.418 175.027 110.931 176.402C111.087 176.487 111.087 176.711 110.931 176.796C108.418 178.17 106.352 180.236 104.977 182.749C104.892 182.905 104.668 182.905 104.583 182.749C103.209 180.236 101.143 178.17 98.6299 176.796C98.4741 176.711 98.4741 176.487 98.6299 176.402C101.143 175.027 103.209 172.961 104.583 170.448Z" fill="#FB923C"/>
<path d="M251.95 96.5298C252.036 96.374 252.259 96.374 252.345 96.5298C253.719 99.0427 255.785 101.109 258.298 102.483C258.454 102.568 258.454 102.792 258.298 102.877C255.785 104.252 253.719 106.318 252.345 108.831C252.259 108.987 252.036 108.987 251.95 108.831C250.576 106.318 248.51 104.252 245.997 102.877C245.841 102.792 245.841 102.568 245.997 102.483C248.51 101.109 250.576 99.0427 251.95 96.5298Z" fill="#FB923C"/>
<path d="M252.565 260.829C247.83 257.409 239.543 246.821 245.857 244.058C251.698 241.503 253.617 254.12 252.565 260.829Z" fill="#339C73"/>
<path d="M254.932 260.434C255.129 256.357 256.549 248.557 260.653 249.977C264.757 251.398 258.549 257.54 254.932 260.434Z" fill="#339C73"/>
<path d="M252.565 264.972C252.762 262.736 252.801 257.79 251.381 255.896" stroke="#1F2937" stroke-width="1.12281" stroke-linecap="round"/>
<path d="M254.631 264.775C254.449 263.511 254.413 260.716 255.723 259.645" stroke="#1F2937" stroke-width="1.12281" stroke-linecap="round"/>
<path d="M266.968 264.972H240.727C240.004 272.798 237.176 288.45 254.736 288.45C267.678 288.45 268.283 272.798 266.968 264.972Z" fill="#34B17B"/>
<path fill-rule="evenodd" clip-rule="evenodd" d="M205.118 136.692C202.208 143.125 195.733 147.601 188.213 147.601C180.225 147.601 173.417 142.551 170.806 135.47C167.45 135.403 164.75 132.661 164.75 129.289C164.75 125.973 167.361 123.267 170.639 123.114C173.116 115.785 180.048 110.509 188.213 110.509C196.838 110.509 204.088 116.397 206.163 124.373C209.29 124.679 211.734 127.317 211.734 130.525C211.734 133.939 208.966 136.707 205.552 136.707C205.406 136.707 205.262 136.702 205.118 136.692Z" fill="#FED7AA"/>
<path fill-rule="evenodd" clip-rule="evenodd" d="M186.54 128.107C185.955 126.937 184.688 126.132 183.194 126.132C182.539 126.132 181.527 126.57 181.11 127.282C181.051 127.446 180.813 127.446 180.753 127.282C180.277 126.625 179.324 126.187 178.61 126.187C176.645 126.187 174.978 127.666 174.918 129.473V129.583C174.918 130.514 175.335 131.39 176.049 132.048V132.102C176.109 132.157 178.967 134.458 180.277 135.499C180.634 135.772 181.17 135.772 181.527 135.499C182.077 135.061 182.89 134.402 183.657 133.78L183.657 133.78L183.657 133.78C184.715 132.921 185.685 132.134 185.755 132.102V132.048C186.469 131.445 186.886 130.569 186.886 129.583V129.473C186.885 129.447 186.884 129.421 186.882 129.394C187.284 129.327 187.735 129.289 188.242 129.289C189.086 129.289 189.776 129.395 190.337 129.565C190.303 129.73 190.283 129.899 190.277 130.071V130.181C190.277 131.112 190.694 131.988 191.408 132.645V132.7C191.468 132.755 194.326 135.056 195.636 136.096C195.993 136.37 196.529 136.37 196.886 136.096C197.436 135.659 198.249 135 199.016 134.378C200.074 133.519 201.045 132.732 201.114 132.7V132.645C201.828 132.043 202.245 131.167 202.245 130.181V130.071C202.185 128.209 200.578 126.73 198.553 126.73C197.898 126.73 196.886 127.168 196.469 127.88C196.41 128.044 196.172 128.044 196.112 127.88C195.636 127.223 194.683 126.784 193.969 126.784C192.7 126.784 191.555 127.401 190.887 128.325C190.248 128.122 189.387 127.987 188.242 127.987C187.585 127.987 187.022 128.031 186.54 128.107Z" fill="#EA580C"/>
<path d="M185.15 136.642C185.356 137.054 186.263 137.878 188.241 137.878C190.22 137.878 191.126 137.054 191.332 136.642" stroke="#EA580C" stroke-width="1.12281" stroke-linecap="round" stroke-linejoin="round"/>
<path d="M185.238 113.256C184.589 113.765 183.569 115.812 184.131 117.253C184.693 118.694 185.572 119.051 186.018 119.165" stroke="#EA580C" stroke-width="1.12281" stroke-linecap="round"/>
<path d="M189.206 114.424C188.556 114.867 188.09 116.772 188.712 118.103C189.175 119.093 190.359 119.478 190.736 119.575" stroke="#EA580C" stroke-width="1.12281" stroke-linecap="round"/>
<path d="M192.483 115.101C192.172 115.509 192.4 116.685 192.934 117.481C193.25 117.951 194.207 118.639 194.46 118.621" stroke="#EA580C" stroke-width="1.12281" stroke-linecap="round"/>
<rect x="173.432" y="149.413" width="31.1731" height="69.0543" rx="15.5866" fill="#FED7AA"/>
<rect x="126.867" y="201.105" width="127.06" height="29.5947" rx="14.7974" fill="#319E73"/>
<path d="M215.059 206.63H163.564" stroke="#1F2937" stroke-width="1.12281"/>
<path d="M198.486 218.863C198.486 225.401 193.483 230.701 189.015 230.701C184.548 230.701 179.742 225.401 179.742 218.863C179.742 212.325 184.548 207.025 189.015 207.025C193.483 207.025 198.486 212.325 198.486 218.863Z" fill="#A8E0C5"/>
<path d="M189.016 207.025V230.701" stroke="#1F2937" stroke-width="1.12281"/>
<path d="M210.127 158.891C204.129 150.999 194.211 149.289 190.002 149.42L203.813 180.791C204.734 184.474 207.286 192.865 210.127 196.969C212.968 201.073 228.212 203.21 236.762 206.235L247.416 194.799L223.346 182.566C221.438 177.963 216.125 166.783 210.127 158.891Z" fill="#FED7AA"/>
<path fill-rule="evenodd" clip-rule="evenodd" d="M257.242 204.249C258.197 204.059 259.062 203.454 259.539 202.532L259.894 201.846C260.712 200.264 260.078 198.349 258.477 197.569L253.251 195.022C252.888 194.797 252.506 194.582 252.111 194.372C252.764 193.666 253.108 192.685 252.965 191.672L252.858 190.907C252.611 189.143 250.986 187.948 249.228 188.237L242.855 189.287C241.358 189.434 237.767 189.334 236.044 189.259L236.045 189.276C236.038 189.274 236.031 189.273 236.023 189.272L228.984 203.868C230.009 206.096 231.367 208.306 232.937 210.26C233.062 210.466 233.216 210.665 233.401 210.855L233.647 211.109C234.982 212.643 236.449 213.981 237.981 214.994C239.411 216.064 240.932 217.018 242.529 217.846L243.613 218.408C245.114 219.186 246.987 218.693 247.907 217.278L248.454 216.436C248.727 216.017 248.888 215.56 248.945 215.1L249.758 215.507C251.351 216.304 253.319 215.675 254.154 214.102L254.516 213.42C254.917 212.664 254.984 211.829 254.769 211.075C256.318 211.712 258.146 211.07 258.943 209.57L259.305 208.888C260.141 207.315 259.527 205.393 257.934 204.596L257.242 204.249Z" fill="#FED7AA"/>
<path d="M252.121 194.387C251.143 194.763 248.923 195.501 247.867 195.446" stroke="#1F2937" stroke-width="1.12281" stroke-linecap="round"/>
<path d="M257.305 204.153C255.651 203.626 252.07 202.418 250.979 201.8" stroke="#1F2937" stroke-width="1.12281" stroke-linecap="round"/>
<path d="M254.79 211.225C253.232 210.46 249.869 208.737 248.88 207.965" stroke="#1F2937" stroke-width="1.12281" stroke-linecap="round"/>
<path d="M248.844 215.329C247.371 214.411 244.2 212.356 243.295 211.488" stroke="#1F2937" stroke-width="1.12281" stroke-linecap="round"/>
<path d="M167.823 158.891C173.82 150.999 183.738 149.289 187.947 149.42L174.136 180.791C173.215 184.474 170.664 192.865 167.823 196.969C164.981 201.073 149.737 203.21 141.187 206.235L130.533 194.799L154.604 182.566C156.511 177.963 161.825 166.783 167.823 158.891Z" fill="#FED7AA"/>
<path fill-rule="evenodd" clip-rule="evenodd" d="M120.707 204.249C119.752 204.059 118.887 203.454 118.41 202.532L118.056 201.846C117.237 200.264 117.872 198.349 119.473 197.569L124.698 195.022C125.061 194.797 125.444 194.582 125.838 194.372C125.186 193.666 124.842 192.685 124.984 191.672L125.091 190.907C125.338 189.143 126.963 187.948 128.721 188.237L135.094 189.287C136.591 189.434 140.182 189.334 141.906 189.259L141.904 189.276C141.911 189.274 141.919 189.273 141.926 189.272L148.965 203.868C147.94 206.096 146.583 208.306 145.012 210.26C144.887 210.466 144.734 210.665 144.549 210.855L144.303 211.109C142.967 212.643 141.5 213.981 139.968 214.994C138.538 216.064 137.017 217.018 135.42 217.846L134.336 218.408C132.835 219.186 130.963 218.693 130.042 217.278L129.495 216.436C129.223 216.017 129.061 215.56 129.004 215.1L128.191 215.507C126.598 216.304 124.63 215.675 123.795 214.102L123.433 213.42C123.032 212.664 122.965 211.829 123.18 211.075C121.631 211.712 119.803 211.07 119.006 209.57L118.644 208.888C117.809 207.315 118.423 205.393 120.015 204.596L120.707 204.249Z" fill="#FED7AA"/>
<path d="M125.83 194.387C126.808 194.763 129.028 195.501 130.085 195.446" stroke="#1F2937" stroke-width="1.12281" stroke-linecap="round"/>
<path d="M120.645 204.153C122.299 203.626 125.879 202.418 126.97 201.8" stroke="#1F2937" stroke-width="1.12281" stroke-linecap="round"/>
<path d="M123.161 211.225C124.719 210.46 128.083 208.737 129.071 207.965" stroke="#1F2937" stroke-width="1.12281" stroke-linecap="round"/>
<path d="M129.107 215.33C130.58 214.411 133.751 212.357 134.656 211.488" stroke="#1F2937" stroke-width="1.12281" stroke-linecap="round"/>
<path fill-rule="evenodd" clip-rule="evenodd" d="M188.07 157.576C191.775 157.576 194.778 154.573 194.778 150.868C194.778 150.535 194.754 150.208 194.707 149.888C199.487 150.795 205.794 153.283 210.09 158.951C216.088 166.864 221.402 178.074 223.309 182.69L210.09 197.131C207.919 193.987 205.917 188.333 204.683 184.193V201.105H173.51V183.112C172.32 187.292 170.154 193.703 167.787 197.131L154.568 182.69C156.476 178.074 161.789 166.864 167.787 158.951C171.567 153.964 176.904 151.439 181.387 150.286C181.37 150.478 181.362 150.672 181.362 150.868C181.362 154.573 184.365 157.576 188.07 157.576Z" fill="#8DD7E2"/>
<rect x="183.688" y="145.467" width="8.68112" height="7.10273" fill="#FED7AA"/>
<circle cx="62.0444" cy="204.945" r="9.47031" transform="rotate(-22.9297 62.0444 204.945)" fill="#F1FAF6" stroke="#34B17B" stroke-width="1.97298"/>
<rect x="58.0078" y="197.202" width="1.12353" height="8.48766" rx="0.561766" transform="rotate(-22.9297 58.0078 197.202)" fill="#34B17B"/>
<rect x="63.4141" y="199.614" width="1.10237" height="5.40746" rx="0.551187" transform="rotate(22.3107 63.4141 199.614)" fill="#34B17B"/>
<circle cx="0.995661" cy="0.995661" r="0.995661" transform="matrix(0.920983 -0.389603 0.3896 0.920984 60.543 204.028)" fill="#34B17B"/>
<path d="M194.735 149.808C194.735 153.512 191.731 157.305 188.026 157.305C184.322 157.305 181.318 153.951 181.318 150.202" stroke="#1F2937" stroke-width="1.12281"/>
<path d="M204.602 184.335C206.114 188.347 209.337 196.489 210.126 196.962C212.336 195.226 220.517 185.914 223.345 182.559L218.018 171.511" stroke="#1F2937" stroke-width="1.12281"/>
<path d="M204.602 184.335V195.581" stroke="#1F2937" stroke-width="1.12281"/>
<path d="M173.428 183.151C171.915 187.163 168.495 196.489 167.706 196.962C165.496 195.226 157.315 185.914 154.487 182.559L159.814 171.511" stroke="#1F2937" stroke-width="1.12281"/>
<path d="M173.428 183.349L173.23 195.581" stroke="#1F2937" stroke-width="1.12281"/>
</g>
<defs>
<clipPath id="clip0_523_12155">
<rect width="375" height="667" rx="20" fill="white"/>
</clipPath>
<clipPath id="clip1_523_12155">
<path d="M0 -1H375V55H0V-1Z" fill="white"/>
</clipPath>
<clipPath id="clip2_523_12155">
<rect width="56" height="27" fill="white" transform="translate(16 13.5)"/>
</clipPath>
</defs>
</svg>
