<svg width="375" height="667" viewBox="0 0 375 667" fill="none" xmlns="http://www.w3.org/2000/svg">
<g clip-path="url(#clip0_523_15486)">
<rect width="375" height="667" rx="20" fill="#F9FAFB"/>
<g clip-path="url(#clip1_523_15486)">
<mask id="path-2-inside-1_523_15486" fill="white">
<path d="M0 0H375V56H0V0Z"/>
</mask>
<path d="M0 0H375V56H0V0Z" fill="#34B17B"/>
<g clip-path="url(#clip2_523_15486)">
<path d="M20.3735 28.5077C20.3735 28.0786 20.4539 27.7747 20.6149 27.5959C20.7758 27.4171 21.0708 27.3277 21.4999 27.3277H28.151C28.4013 27.3277 28.6025 27.3903 28.7545 27.5154C28.9154 27.6406 28.9958 27.8283 28.9958 28.0786C28.9958 28.3289 28.9198 28.5167 28.7679 28.6418C28.6159 28.767 28.4103 28.8296 28.151 28.8296H22.5995C22.5101 28.8296 22.4654 28.8787 22.4654 28.9771V29.433H28.084C28.3432 29.433 28.5488 29.4911 28.7008 29.6073C28.8528 29.7235 28.9288 29.9113 28.9288 30.1705C28.9288 30.4298 28.8528 30.6175 28.7008 30.7337C28.5488 30.8499 28.3432 30.908 28.084 30.908H22.452V31.4444C22.452 31.5338 22.4967 31.5785 22.5861 31.5785H28.3254C28.5846 31.5785 28.7902 31.6411 28.9422 31.7663C29.0942 31.8914 29.1702 32.0836 29.1702 32.3429C29.1702 32.6021 29.0942 32.7898 28.9422 32.9061C28.7902 33.0312 28.5846 33.0938 28.3254 33.0938H21.4999C21.0708 33.0938 20.7758 33.0044 20.6149 32.8256C20.4539 32.6468 20.3735 32.3429 20.3735 31.9138V28.5077ZM25.3082 22.6612C25.3082 23.2422 25.1696 23.7742 24.8925 24.2569C24.6243 24.7396 24.2533 25.1688 23.7795 25.5442C23.3057 25.9197 22.7515 26.246 22.1167 26.5231C21.482 26.7913 20.8071 27.0059 20.0919 27.1668C19.8237 27.2294 19.5779 27.2159 19.3544 27.1265C19.1309 27.0372 18.9834 26.8539 18.9118 26.5768C18.8314 26.2996 18.8537 26.0672 18.9789 25.8795C19.1041 25.6828 19.3052 25.5487 19.5823 25.4772C20.0114 25.3699 20.445 25.2403 20.8831 25.0883C21.3211 24.9363 21.7144 24.762 22.0631 24.5653C22.4207 24.3597 22.7112 24.1228 22.9347 23.8546C23.1582 23.5864 23.27 23.278 23.27 22.9294V22.7819C23.27 22.6835 23.2521 22.6165 23.2163 22.5807C23.1895 22.536 23.1269 22.5137 23.0286 22.5137H19.998C19.712 22.5137 19.484 22.4511 19.3141 22.3259C19.1532 22.1918 19.0728 21.9818 19.0728 21.6957C19.0728 21.4096 19.1532 21.1995 19.3141 21.0654C19.484 20.9313 19.712 20.8643 19.998 20.8643H24.1148C24.526 20.8643 24.8255 20.9582 25.0132 21.1459C25.2099 21.3247 25.3082 21.5795 25.3082 21.9102V22.6612ZM26.8503 21.6152C26.8503 21.3023 26.9486 21.0654 27.1453 20.9045C27.3509 20.7347 27.6102 20.6497 27.9231 20.6497C28.236 20.6497 28.4907 20.7347 28.6874 20.9045C28.893 21.0654 28.9958 21.3023 28.9958 21.6152V22.7282H29.9211C30.2072 22.7282 30.4396 22.7997 30.6184 22.9428C30.7972 23.0858 30.8866 23.3093 30.8866 23.6132C30.8866 23.9172 30.7972 24.1407 30.6184 24.2837C30.4396 24.4268 30.2072 24.4983 29.9211 24.4983H28.9958V25.8526C28.9958 26.1655 28.893 26.4069 28.6874 26.5768C28.4907 26.7466 28.236 26.8315 27.9231 26.8315C27.6102 26.8315 27.3509 26.7466 27.1453 26.5768C26.9486 26.4069 26.8503 26.1655 26.8503 25.8526V21.6152ZM40.2964 21.642C40.2964 21.3202 40.3948 21.0744 40.5914 20.9045C40.797 20.7347 41.0563 20.6497 41.3692 20.6497C41.691 20.6497 41.9503 20.7347 42.1469 20.9045C42.3436 21.0744 42.4419 21.3202 42.4419 21.642V32.1015C42.4419 32.4233 42.3436 32.6692 42.1469 32.839C41.9503 33.0089 41.691 33.0938 41.3692 33.0938C41.0563 33.0938 40.797 33.0089 40.5914 32.839C40.3948 32.6692 40.2964 32.4233 40.2964 32.1015V21.642ZM38.7141 25.5576C38.7141 26.2281 38.6426 26.836 38.4995 27.3813C38.3565 27.9177 38.142 28.3781 37.8559 28.7625C37.5698 29.1469 37.2033 29.4464 36.7563 29.661C36.3183 29.8666 35.8042 29.9694 35.2142 29.9694C34.6242 29.9694 34.1057 29.8666 33.6587 29.661C33.2206 29.4464 32.8586 29.1469 32.5725 28.7625C32.2864 28.3781 32.0719 27.9177 31.9289 27.3813C31.7858 26.836 31.7143 26.2281 31.7143 25.5576C31.7143 24.8872 31.7858 24.2837 31.9289 23.7473C32.0719 23.202 32.2864 22.7372 32.5725 22.3527C32.8586 21.9683 33.2206 21.6733 33.6587 21.4677C34.1057 21.2532 34.6242 21.1459 35.2142 21.1459C35.8042 21.1459 36.3183 21.2532 36.7563 21.4677C37.2033 21.6733 37.5698 21.9683 37.8559 22.3527C38.142 22.7372 38.3565 23.202 38.4995 23.7473C38.6426 24.2837 38.7141 24.8872 38.7141 25.5576ZM35.2142 28.1725C35.4824 28.1725 35.7059 28.1054 35.8847 27.9714C36.0635 27.8283 36.2065 27.6406 36.3138 27.4081C36.43 27.1757 36.5105 26.9031 36.5552 26.5902C36.5999 26.2683 36.6222 25.9242 36.6222 25.5576C36.6222 25.2 36.5999 24.8603 36.5552 24.5385C36.5105 24.2167 36.43 23.9395 36.3138 23.7071C36.2065 23.4747 36.0635 23.2914 35.8847 23.1573C35.7059 23.0143 35.4824 22.9428 35.2142 22.9428C34.946 22.9428 34.7225 23.0143 34.5437 23.1573C34.3649 23.2914 34.2174 23.4747 34.1012 23.7071C33.9939 23.9395 33.9179 24.2167 33.8732 24.5385C33.8285 24.8603 33.8062 25.2 33.8062 25.5576C33.8062 25.9242 33.8285 26.2683 33.8732 26.5902C33.9179 26.9031 33.9939 27.1757 34.1012 27.4081C34.2174 27.6406 34.3649 27.8283 34.5437 27.9714C34.7225 28.1054 34.946 28.1725 35.2142 28.1725ZM47.0811 28.8296C46.8129 28.8296 46.6073 28.7715 46.4643 28.6552C46.3213 28.539 46.2497 28.3468 46.2497 28.0786C46.2497 27.8104 46.3213 27.6182 46.4643 27.502C46.6073 27.3858 46.8129 27.3277 47.0811 27.3277H53.7725C53.987 27.3277 54.1658 27.3456 54.3089 27.3813C54.4519 27.4081 54.5637 27.4618 54.6441 27.5422C54.7335 27.6227 54.7916 27.7344 54.8184 27.8775C54.8542 28.0116 54.8721 28.1859 54.8721 28.4005V29.7548C54.8721 30.1929 54.7871 30.4923 54.6173 30.6533C54.4564 30.8052 54.1569 30.8812 53.7189 30.8812H48.355C48.2925 30.8812 48.2612 30.9125 48.2612 30.9751V31.4981C48.2612 31.5517 48.2925 31.5785 48.355 31.5785H54.2955C54.5637 31.5785 54.7693 31.6366 54.9123 31.7528C55.0643 31.878 55.1403 32.0747 55.1403 32.3429C55.1403 32.6111 55.0643 32.8033 54.9123 32.9195C54.7693 33.0357 54.5637 33.0938 54.2955 33.0938H47.3895C46.9515 33.0938 46.652 33.0133 46.4911 32.8524C46.3302 32.7005 46.2497 32.4054 46.2497 31.9674V30.5192C46.2497 30.0811 46.3257 29.7861 46.4777 29.6341C46.6386 29.4822 46.9381 29.4062 47.3761 29.4062H52.7534C52.8249 29.4062 52.8606 29.3749 52.8606 29.3123V28.9234C52.8606 28.8609 52.8249 28.8296 52.7534 28.8296H47.0811ZM51.1576 26.1208C50.5855 26.2281 49.991 26.3041 49.3742 26.3488C48.7663 26.3846 48.1762 26.4024 47.6041 26.4024H46.2766C45.3915 26.4024 44.949 25.9644 44.949 25.0883V22.1784C44.949 21.3023 45.3915 20.8643 46.2766 20.8643H50.3531C50.6212 20.8643 50.8358 20.9358 50.9967 21.0788C51.1666 21.2219 51.2515 21.4275 51.2515 21.6957C51.2515 21.9639 51.1666 22.1695 50.9967 22.3125C50.8358 22.4556 50.6212 22.5271 50.3531 22.5271H47.175C47.1035 22.5271 47.0588 22.5405 47.0409 22.5673C47.023 22.5852 47.0141 22.6299 47.0141 22.7014V24.5519C47.0141 24.6771 47.0722 24.7396 47.1884 24.7396H47.7516C48.2969 24.7396 48.8512 24.7173 49.4144 24.6726C49.9865 24.619 50.4872 24.5564 50.9163 24.4849C51.1576 24.4402 51.3722 24.4625 51.5599 24.5519C51.7566 24.6324 51.8773 24.8067 51.922 25.0749C51.9756 25.352 51.9264 25.5844 51.7745 25.7722C51.6225 25.9599 51.4169 26.0761 51.1576 26.1208ZM52.7265 21.6152C52.7265 21.3023 52.8249 21.0654 53.0216 20.9045C53.2272 20.7347 53.4864 20.6497 53.7993 20.6497C54.1122 20.6497 54.367 20.7347 54.5637 20.9045C54.7693 21.0654 54.8721 21.3023 54.8721 21.6152V22.7282H55.7973C56.0834 22.7282 56.3158 22.7997 56.4946 22.9428C56.6734 23.0858 56.7628 23.3093 56.7628 23.6132C56.7628 23.9172 56.6734 24.1407 56.4946 24.2837C56.3158 24.4268 56.0834 24.4983 55.7973 24.4983H54.8721V25.8526C54.8721 26.1655 54.7693 26.4069 54.5637 26.5768C54.367 26.7466 54.1122 26.8315 53.7993 26.8315C53.4864 26.8315 53.2272 26.7466 53.0216 26.5768C52.8249 26.4069 52.7265 26.1655 52.7265 25.8526V21.6152ZM60.9563 33.0133C60.5183 33.0133 60.2054 32.9239 60.0177 32.7452C59.8299 32.5664 59.7361 32.2579 59.7361 31.8199V29.4196C59.7361 28.9815 59.8299 28.6776 60.0177 28.5077C60.2054 28.3289 60.5183 28.2395 60.9563 28.2395H67.3527C67.7907 28.2395 68.0992 28.3289 68.278 28.5077C68.4657 28.6776 68.5596 28.9815 68.5596 29.4196V31.8199C68.5596 32.2579 68.4657 32.5664 68.278 32.7452C68.0992 32.9239 67.7907 33.0133 67.3527 33.0133H60.9563ZM62.8203 27.2472C62.3643 27.3188 61.9308 27.3769 61.5195 27.4216C61.1083 27.4573 60.6479 27.4752 60.1384 27.4752H59.374C58.9181 27.4752 58.5873 27.3769 58.3817 27.1802C58.1761 26.9746 58.0733 26.6527 58.0733 26.2147V24.6592C58.0733 24.2211 58.1761 23.8993 58.3817 23.6937C58.5873 23.4881 58.9181 23.3853 59.374 23.3853H61.01C61.1262 23.3853 61.1843 23.3272 61.1843 23.211V22.6478C61.1843 22.5762 61.1709 22.5315 61.1441 22.5137C61.1262 22.4958 61.0815 22.4868 61.01 22.4868H59.0656C58.7974 22.4868 58.5739 22.4198 58.3951 22.2857C58.2253 22.1516 58.1403 21.9549 58.1403 21.6957C58.1403 21.4275 58.2253 21.2263 58.3951 21.0922C58.5739 20.9582 58.7974 20.8911 59.0656 20.8911H61.8146C62.2794 20.8911 62.6102 20.9894 62.8069 21.1861C63.0125 21.3828 63.1153 21.7091 63.1153 22.165V23.6401C63.1153 24.096 63.0125 24.4268 62.8069 24.6324C62.6102 24.829 62.2794 24.9274 61.8146 24.9274H60.1652C60.0937 24.9274 60.049 24.9363 60.0311 24.9542C60.0132 24.9721 60.0043 25.0168 60.0043 25.0883V25.7588C60.0043 25.8303 60.0132 25.875 60.0311 25.8929C60.049 25.9107 60.0937 25.9197 60.1652 25.9197H60.4066C60.7731 25.9197 61.1262 25.9018 61.4659 25.8661C61.8146 25.8303 62.1766 25.7901 62.5521 25.7454C62.8113 25.7185 63.0393 25.7409 63.236 25.8124C63.4326 25.875 63.5533 26.0404 63.598 26.3086C63.6427 26.5768 63.5891 26.7913 63.4371 26.9522C63.2851 27.1042 63.0795 27.2025 62.8203 27.2472ZM64.0137 21.6823C64.0137 21.3962 64.0942 21.1772 64.2551 21.0252C64.4249 20.8643 64.6529 20.7838 64.939 20.7838C65.2251 20.7838 65.4485 20.8643 65.6095 21.0252C65.7793 21.1772 65.8642 21.3962 65.8642 21.6823V23.2512H66.6956V21.5616C66.6956 21.2755 66.7806 21.052 66.9504 20.8911C67.1203 20.7302 67.3482 20.6497 67.6343 20.6497C67.9204 20.6497 68.1439 20.7302 68.3048 20.8911C68.4746 21.052 68.5596 21.2755 68.5596 21.5616V26.6706C68.5596 26.9567 68.4746 27.1802 68.3048 27.3411C68.1439 27.4931 67.9204 27.5691 67.6343 27.5691C67.3482 27.5691 67.1203 27.4931 66.9504 27.3411C66.7806 27.1802 66.6956 26.9567 66.6956 26.6706V24.8335H65.8642V26.6438C65.8642 26.9299 65.7838 27.1534 65.6229 27.3143C65.462 27.4663 65.234 27.5422 64.939 27.5422C64.6529 27.5422 64.4249 27.4663 64.2551 27.3143C64.0942 27.1534 64.0137 26.9299 64.0137 26.6438V21.6823ZM62.0157 29.8487C61.9263 29.8487 61.8816 29.8934 61.8816 29.9828V31.2701C61.8816 31.3595 61.9263 31.4042 62.0157 31.4042H66.2799C66.3693 31.4042 66.414 31.3595 66.414 31.2701V29.9828C66.414 29.8934 66.3693 29.8487 66.2799 29.8487H62.0157Z" fill="white"/>
</g>
<path d="M95.7031 31.4688V32.7129H84.4102V31.4688H89.2773V28.7754H85.6543V22.8145H94.4043V28.7754H90.7812V31.4688H95.7031ZM87.1445 24.0312V27.5859H92.9004V24.0312H87.1445ZM106.805 21.8711V28.8711H105.273V21.8711H106.805ZM106.805 29.4727V34.0664H98.6016V29.4727H106.805ZM100.105 30.6758V32.8359H105.314V30.6758H100.105ZM100.064 22.459C101.965 22.459 103.387 23.6621 103.387 25.4121C103.387 27.1074 101.965 28.3379 100.064 28.3379C98.1504 28.3379 96.7285 27.1074 96.7285 25.4121C96.7285 23.6621 98.1504 22.459 100.064 22.459ZM100.064 23.7441C98.9844 23.7441 98.2051 24.3867 98.2188 25.4121C98.2051 26.4102 98.9844 27.0527 100.064 27.0527C101.131 27.0527 101.896 26.4102 101.896 25.4121C101.896 24.3867 101.131 23.7441 100.064 23.7441ZM116.375 24.3867C116.375 25.7129 117.373 27.0117 119.314 27.5312L118.631 28.6934C117.195 28.3174 116.184 27.4971 115.637 26.4375C115.083 27.5996 114.044 28.502 112.588 28.9258L111.863 27.7227C113.818 27.2031 114.857 25.8359 114.857 24.3867V24.3457H112.273V23.1426H114.857V21.8027H116.389V23.1426H118.959V24.3457H116.375V24.3867ZM121.68 21.8574V24.7285H123.402V25.9863H121.68V28.9395H120.162V21.8574H121.68ZM121.857 29.5137V30.7305H118.59C118.877 31.7559 120.265 32.7129 122.377 33.0137L121.83 34.1758C119.896 33.9023 118.433 33.0752 117.715 31.9473C117.004 33.0684 115.555 33.875 113.641 34.1484L113.08 33C115.199 32.7061 116.573 31.7832 116.867 30.7305H113.586V29.5137H121.857ZM134.354 21.8574V34.2168H132.822V21.8574H134.354ZM130.662 23.1699C130.662 26.8477 129.24 29.9785 124.906 32.0293L124.113 30.8125C127.347 29.2744 128.851 27.1826 129.117 24.373H124.742V23.1699H130.662Z" fill="#F1FAF6"/>
<path d="M151.527 23.9766C151.527 24.9541 151.76 26.2119 152.594 27.1074C153.407 26.2256 153.619 24.9814 153.633 23.9766V23.8672H152.854V22.6504H156.408V23.8672H155.082V23.9766C155.082 25.3027 155.561 26.8477 156.969 27.5586L156.176 28.666C155.253 28.1738 154.686 27.3604 154.371 26.4102C154.063 27.3877 153.53 28.2695 152.594 28.8027C151.671 28.2764 151.131 27.4014 150.83 26.4512C150.502 27.3877 149.935 28.1943 149.025 28.666L148.219 27.5586C149.613 26.8203 150.119 25.2891 150.119 23.9766V23.8672H148.684V22.6504H152.32V23.8672H151.527V23.9766ZM158.91 21.8574V29.0625H157.393V21.8574H158.91ZM158.91 29.6777V34.0664H150.461V29.6777H158.91ZM151.965 30.8672V32.8359H157.434V30.8672H151.965ZM170.258 21.8711V25.7539H171.98V27.0117H170.258V31.0996H168.74V21.8711H170.258ZM167.852 23.2383V24.4551H160.523V23.2383H163.436V21.8574H164.953V23.2383H167.852ZM164.188 24.9609C165.965 24.9609 167.195 25.9043 167.209 27.3262C167.195 28.7344 165.965 29.6641 164.188 29.6641C162.396 29.6641 161.152 28.7344 161.152 27.3262C161.152 25.9043 162.396 24.9609 164.188 24.9609ZM164.188 26.1367C163.244 26.1367 162.629 26.5742 162.629 27.3262C162.629 28.0645 163.244 28.502 164.188 28.4883C165.131 28.502 165.76 28.0645 165.76 27.3262C165.76 26.5742 165.131 26.1367 164.188 26.1367ZM170.75 32.7402V33.9707H162.342V30.375H163.859V32.7402H170.75ZM187.225 31.4688V32.7129H175.932V31.4688H180.799V28.7754H177.176V22.8145H185.926V28.7754H182.303V31.4688H187.225ZM178.666 24.0312V27.5859H184.422V24.0312H178.666ZM198.326 21.8711V28.8711H196.795V21.8711H198.326ZM198.326 29.4727V34.0664H190.123V29.4727H198.326ZM191.627 30.6758V32.8359H196.836V30.6758H191.627ZM191.586 22.459C193.486 22.459 194.908 23.6621 194.908 25.4121C194.908 27.1074 193.486 28.3379 191.586 28.3379C189.672 28.3379 188.25 27.1074 188.25 25.4121C188.25 23.6621 189.672 22.459 191.586 22.459ZM191.586 23.7441C190.506 23.7441 189.727 24.3867 189.74 25.4121C189.727 26.4102 190.506 27.0527 191.586 27.0527C192.652 27.0527 193.418 26.4102 193.418 25.4121C193.418 24.3867 192.652 23.7441 191.586 23.7441Z" fill="#F1FAF6"/>
<path d="M223.703 31.4688V32.7129H212.41V31.4688H217.277V28.7754H213.654V22.8145H222.404V28.7754H218.781V31.4688H223.703ZM215.145 24.0312V27.5859H220.9V24.0312H215.145ZM235.789 28.0098V29.2266H224.51V28.0098H235.789ZM234.531 25.6582V26.8887H225.891V22.3496H234.422V23.5527H227.408V25.6582H234.531ZM234.613 32.7266V33.957H225.904V30.3066H227.395V32.7266H234.613ZM250.227 21.8574V34.2305H248.723V21.8574H250.227ZM246.426 22.9375V27.5723H242.174V30.0605C244.122 30.0469 245.804 29.9512 247.725 29.623L247.861 30.8672C245.756 31.2363 243.91 31.3047 241.695 31.3047H240.615V26.3691H244.881V24.168H240.602V22.9375H246.426ZM263.311 28.9258V30.1562H260.658V34.2168H259.141V30.1562H256.215V34.2168H254.656V30.1562H252.018V28.9258H263.311ZM254.889 22.3359V23.8125H260.412V22.3359H261.943V27.668H253.385V22.3359H254.889ZM254.889 26.4512H260.412V25.002H254.889V26.4512Z" fill="#111827"/>
<path d="M333.703 31.5234V32.7812H322.41V31.5234H327.277V29.5137H323.75V25.4668H330.859V23.9355H323.723V22.7051H332.363V26.6699H325.268V28.2695H332.65V29.5137H328.781V31.5234H333.703ZM344.34 23.0605V24.4551C344.34 26.1094 344.34 27.8184 343.889 30.416L342.344 30.2793C342.822 27.8457 342.822 26.0547 342.822 24.4551V24.291H335.699V23.0605H344.34ZM345.775 31.2773V32.5215H334.51V31.2773H345.775ZM356.904 21.8711V30.7988H355.373V21.8711H356.904ZM357.246 32.7402V33.9707H348.729V29.8965H350.26V32.7402H357.246ZM350.164 22.6777C352.037 22.6777 353.486 23.9766 353.486 25.7676C353.486 27.5996 352.037 28.8711 350.164 28.8711C348.277 28.8711 346.828 27.5996 346.828 25.7676C346.828 23.9766 348.277 22.6777 350.164 22.6777ZM350.164 24.0039C349.111 24.0039 348.305 24.7012 348.318 25.7676C348.305 26.8613 349.111 27.5449 350.164 27.5449C351.189 27.5449 351.996 26.8613 351.996 25.7676C351.996 24.7012 351.189 24.0039 350.164 24.0039Z" fill="white"/>
</g>
<path d="M375 54H0V58H375V54Z" fill="#111827" mask="url(#path-2-inside-1_523_15486)"/>
<circle cx="52" cy="116" r="35" fill="#F1FAF6" stroke="#1F2937" stroke-width="2"/>
<path d="M35.004 98.2797C34.9456 98.4548 34.9456 98.6299 35.004 98.6883C35.0623 98.7467 34.6343 100.206 34.0506 101.937C33.4669 103.669 33 105.245 33 105.44C33 105.634 33.5253 106.918 34.1479 108.261C36.5799 113.455 44.1483 130.227 44.4207 130.985C44.8098 132.133 45.3157 132.522 47.6115 133.476C48.7205 133.943 50.5104 134.721 51.561 135.227C53.4483 136.102 53.9347 136.2 54.1098 135.694C54.1487 135.557 54.6935 134.098 55.2966 132.464C55.9387 130.693 56.3472 129.312 56.2889 129.059C56.2305 128.826 55.4717 126.919 54.5962 124.837C53.7207 122.755 50.9968 116.199 48.5454 110.265C46.0939 104.331 44.0121 99.3887 43.9343 99.3109C43.837 99.2136 42.0665 98.9996 39.9847 98.8245C37.3776 98.6299 36.113 98.4548 35.8989 98.2603C35.5098 97.9101 35.1596 97.9101 35.004 98.2797ZM39.7512 99.4665C41.0548 99.5444 42.2222 99.6611 42.3583 99.7389C42.5335 99.8557 42.1638 100.692 41.0548 102.755C40.1987 104.331 39.4205 105.615 39.3232 105.615C39.1286 105.615 36.5215 99.8168 36.5021 99.3693C36.5021 99.1942 36.6383 99.1553 36.9496 99.2136C37.183 99.272 38.4477 99.3887 39.7512 99.4665ZM37.0858 103.455C37.7862 105.05 38.3699 106.432 38.4088 106.529C38.4282 106.626 37.5138 106.315 36.3659 105.848C35.218 105.381 34.2646 104.934 34.2646 104.836C34.2646 104.506 35.6071 100.517 35.7044 100.517C35.7822 100.517 36.3853 101.84 37.0858 103.455ZM47.8839 111.315C50.2186 116.977 52.7673 123.164 53.565 125.032C54.3627 126.9 55.0631 128.689 55.102 129.02C55.1993 129.643 53.8179 133.806 53.5066 133.826C53.1175 133.845 46.4441 121.082 42.1249 111.996L39.8485 107.23L41.4245 104.214C43.1366 100.906 43.3117 100.614 43.5063 100.848C43.5841 100.926 45.5491 105.634 47.8839 111.315ZM36.5021 106.724C37.4749 107.132 38.4477 107.599 38.7006 107.774C38.9535 107.949 39.7707 109.389 40.763 111.529C43.156 116.607 47.2224 124.662 50.0435 129.896C51.3859 132.406 52.5533 134.585 52.6117 134.721C52.67 134.896 52.3587 134.818 51.7556 134.507C51.2108 134.234 49.9657 133.67 48.9539 133.242C47.9422 132.814 46.8721 132.367 46.5803 132.23C46.1328 132.016 45.2184 130.129 40.2182 119.098C36.9885 112.016 34.3619 106.159 34.3619 106.082C34.3619 105.848 34.751 105.965 36.5021 106.724Z" fill="#111827"/>
<path d="M68.4654 122.205C68.2928 122.254 67.6567 122.719 67.0422 123.221C66.4278 123.724 65.4789 124.308 64.9504 124.541C64.0713 124.914 63.6666 124.926 62.506 124.598C62.031 124.469 62.0315 124.89 62.5014 125.203C63.506 125.87 63.0778 128.342 61.3716 131.507C60.9464 132.322 60.8174 132.727 60.9418 132.927C61.25 133.342 61.5034 133.206 62.554 132.012C63.8255 130.592 65.4646 129.602 67.2609 129.184C68.0539 129.01 68.6957 128.782 68.6794 128.702C68.6524 128.637 68.4359 128.189 68.1763 127.736C67.5866 126.69 67.709 125.417 68.5809 123.753C69.0437 122.846 69.1511 122.474 68.9782 122.312C68.8431 122.199 68.6218 122.145 68.4654 122.205ZM66.8996 125.439C66.7922 125.812 66.8472 126.573 66.9991 127.117L67.281 128.099L65.7708 128.614C64.9456 128.906 64.1205 129.269 63.9264 129.42C63.4791 129.777 63.4031 129.47 63.7258 128.703C63.8656 128.352 63.9455 127.564 63.9068 126.954L63.8351 125.832L64.7252 125.583C65.2052 125.458 65.9064 125.176 66.246 124.982C66.5803 124.76 66.9039 124.625 66.9687 124.668C67.0173 124.7 66.9908 125.056 66.8996 125.439Z" fill="#111827"/>
<path d="M64.8495 109.713C64.2075 110.258 63.5654 110.705 63.4292 110.705C63.1374 110.705 61.6393 109.713 61.2696 109.266C60.9583 108.896 60.0828 108.857 60.0828 109.207C60.0828 109.363 60.2968 110.122 60.5692 110.9C60.8416 111.678 61.0556 112.437 61.0556 112.573C61.0556 112.709 60.219 113.488 59.2073 114.324C57.9426 115.336 57.3979 115.881 57.5341 116.017C57.6703 116.153 58.429 116.134 59.8882 115.959C61.0751 115.822 62.0673 115.744 62.1062 115.783C62.1451 115.822 62.5148 116.912 62.9428 118.196C63.6238 120.297 63.76 120.531 64.188 120.589C64.6744 120.647 64.6939 120.57 65.2192 118.254C65.511 116.931 65.8223 115.725 65.9002 115.569C66.0169 115.355 66.5811 115.239 67.9819 115.122C69.7135 114.986 70.6474 114.694 70.1027 114.46C70.0054 114.421 69.1688 113.974 68.2543 113.468L66.6006 112.534V111.678C66.62 111.192 66.6589 110.355 66.6978 109.83C66.7757 108.974 66.7562 108.857 66.406 108.799C66.1725 108.779 65.5499 109.129 64.8495 109.713ZM65.4527 111.6C65.3554 111.853 65.2776 111.834 64.869 111.561L64.3826 111.25L64.9079 110.803L65.4332 110.336L65.4916 110.842C65.5305 111.095 65.511 111.445 65.4527 111.6ZM62.5343 111.309C62.5926 111.425 62.5537 111.62 62.437 111.737C62.1841 111.989 61.9311 111.775 61.7366 111.133C61.6198 110.725 61.6393 110.686 61.9895 110.88C62.223 110.997 62.4564 111.192 62.5343 111.309ZM64.4409 112.281C65.1997 112.729 65.3359 113.293 64.9468 114.285C64.7912 114.733 64.655 114.791 63.8184 114.791H62.8845L62.651 113.877C62.4175 113.021 62.4175 112.962 62.9234 112.418C63.5654 111.756 63.5654 111.756 64.4409 112.281ZM67.301 113.838C67.7485 114.052 68.0598 114.266 68.0209 114.285C68.0014 114.324 67.5539 114.421 67.0481 114.48L66.1142 114.616V114.032C66.1142 113.312 66.2698 113.293 67.301 113.838ZM61.7366 114.441C61.8533 114.888 61.7949 114.986 61.4058 115.064C60.5692 115.239 59.6937 115.316 59.6937 115.2C59.6937 114.966 61.3474 113.663 61.4836 113.779C61.5615 113.857 61.6782 114.149 61.7366 114.441ZM64.7522 115.55C64.7522 115.939 64.2853 117.807 64.1491 117.962C64.0713 118.06 63.8573 117.671 63.6822 117.087C63.4876 116.523 63.293 115.959 63.2541 115.822C63.1763 115.608 63.5849 115.472 64.4215 115.394C64.5966 115.394 64.7522 115.453 64.7522 115.55Z" fill="#111827"/>
<path d="M49.2695 133.897L53.4283 135.429L54.7415 131.708L49.2695 133.897Z" fill="#111827"/>
<path d="M119.047 106.031V107.631H104.527V106.031H110.785V102.568H106.127V94.9043H117.377V102.568H112.719V106.031H119.047ZM108.043 96.4688V101.039H115.443V96.4688H108.043ZM134.586 101.584V103.148H120.084V101.584H134.586ZM132.969 98.5605V100.143H121.859V94.3066H132.828V95.8535H123.811V98.5605H132.969ZM133.074 107.648V109.23H121.877V104.537H123.793V107.648H133.074ZM153.148 93.6738V109.582H151.215V93.6738H153.148ZM148.262 95.0625V101.021H142.795V104.221C145.3 104.203 147.462 104.08 149.932 103.658L150.107 105.258C147.4 105.732 145.027 105.82 142.18 105.82H140.791V99.4746H146.275V96.6445H140.773V95.0625H148.262ZM169.971 102.762V104.344H166.561V109.564H164.609V104.344H160.848V109.564H158.844V104.344H155.451V102.762H169.971ZM159.143 94.2891V96.1875H166.244V94.2891H168.213V101.145H157.209V94.2891H159.143ZM159.143 99.5801H166.244V97.7168H159.143V99.5801Z" fill="#111827"/>
<path d="M114.992 127.912V140.162H113.748V127.912H114.992ZM112.504 128.145V139.561H111.26V133.654H109.879C109.77 136.047 108.744 137.537 107.227 137.523C105.627 137.537 104.588 135.855 104.588 133.203C104.588 130.551 105.627 128.883 107.227 128.896C108.717 128.883 109.729 130.298 109.879 132.602H111.26V128.145H112.504ZM107.227 130.113C106.338 130.113 105.791 131.248 105.791 133.203C105.791 135.158 106.338 136.293 107.227 136.293C108.129 136.293 108.689 135.158 108.689 133.203C108.689 131.248 108.129 130.113 107.227 130.113ZM126.764 127.912V140.189H125.479V133.449H122.771V137.154H117.029V128.855H118.342V131.986H121.5V128.855H122.771V132.383H125.479V127.912H126.764ZM118.342 136.088H121.5V133.012H118.342V136.088ZM138.809 127.926V135.432H137.51V127.926H138.809ZM134.898 128.678V132.15H130.564V133.682C132.704 133.661 134.283 133.6 136.143 133.312L136.307 134.365C134.311 134.693 132.629 134.748 130.318 134.748H129.293V131.152H133.613V129.744H129.266V128.678H134.898ZM134.721 135.664C137.305 135.664 138.891 136.471 138.891 137.906C138.891 139.314 137.305 140.148 134.721 140.135C132.123 140.148 130.551 139.314 130.551 137.906C130.551 136.471 132.123 135.664 134.721 135.664ZM134.721 136.689C132.902 136.689 131.836 137.127 131.836 137.906C131.836 138.686 132.902 139.109 134.721 139.109C136.539 139.109 137.592 138.686 137.592 137.906C137.592 137.127 136.539 136.689 134.721 136.689ZM146.328 128.117C149.09 128.117 150.703 128.855 150.703 130.223C150.703 131.59 149.09 132.342 146.328 132.342C143.566 132.342 141.953 131.59 141.953 130.223C141.953 128.855 143.566 128.117 146.328 128.117ZM146.328 129.074C144.373 129.074 143.293 129.498 143.307 130.223C143.293 130.975 144.373 131.371 146.328 131.371C148.283 131.371 149.363 130.975 149.363 130.223C149.363 129.498 148.283 129.074 146.328 129.074ZM151.92 133.094V134.133H140.75V133.094H151.92ZM150.512 135.076V137.947H143.375V139.041H150.854V140.039H142.104V137.004H149.227V136.047H142.09V135.076H150.512ZM166.412 127.912V140.189H165.113V127.912H166.412ZM159.863 128.828C161.682 128.828 163.021 130.496 163.021 133.121C163.021 135.76 161.682 137.428 159.863 137.428C158.018 137.428 156.691 135.76 156.691 133.121C156.691 130.496 158.018 128.828 159.863 128.828ZM159.863 129.99C158.729 129.99 157.949 131.193 157.949 133.121C157.949 135.062 158.729 136.266 159.863 136.266C160.984 136.266 161.764 135.062 161.764 133.121C161.764 131.193 160.984 129.99 159.863 129.99ZM179.537 133.887V134.939H168.367V133.887H171.047V132.232C170.104 131.85 169.57 131.234 169.57 130.428C169.57 128.979 171.252 128.131 173.945 128.131C176.625 128.131 178.32 128.979 178.32 130.428C178.32 131.234 177.78 131.856 176.83 132.232V133.887H179.537ZM173.945 135.773C176.584 135.773 178.17 136.553 178.17 137.947C178.17 139.369 176.584 140.135 173.945 140.135C171.279 140.135 169.693 139.369 169.693 137.947C169.693 136.553 171.279 135.773 173.945 135.773ZM173.945 136.771C172.072 136.771 171.006 137.195 171.006 137.947C171.006 138.713 172.072 139.15 173.945 139.137C175.791 139.15 176.871 138.713 176.871 137.947C176.871 137.195 175.791 136.771 173.945 136.771ZM173.945 129.129C172.045 129.129 170.896 129.607 170.91 130.428C170.896 131.248 172.045 131.713 173.945 131.713C175.846 131.713 176.98 131.248 176.98 130.428C176.98 129.607 175.846 129.129 173.945 129.129ZM172.359 133.887H175.545V132.574C175.066 132.656 174.526 132.697 173.945 132.697C173.371 132.697 172.838 132.656 172.359 132.588V133.887ZM190.092 127.926V131.863H191.869V132.943H190.092V137.086H188.793V127.926H190.092ZM187.781 129.348V130.4H180.48V129.348H183.488V127.912H184.787V129.348H187.781ZM184.131 130.988C185.895 130.988 187.098 131.904 187.098 133.299C187.098 134.693 185.895 135.596 184.131 135.596C182.354 135.596 181.15 134.693 181.15 133.299C181.15 131.904 182.354 130.988 184.131 130.988ZM184.131 131.986C183.092 131.986 182.395 132.492 182.408 133.299C182.395 134.092 183.092 134.584 184.131 134.584C185.17 134.584 185.867 134.092 185.881 133.299C185.867 132.492 185.17 131.986 184.131 131.986ZM190.611 138.85V139.902H182.326V136.361H183.625V138.85H190.611ZM207.182 134.324V135.363H202.314V137.619H201.029V135.363H195.971V134.324H207.182ZM205.938 138.85V139.902H197.365V136.553H198.65V138.85H205.938ZM198.732 128.295V129.785H204.406V128.295H205.705V133.244H197.447V128.295H198.732ZM198.732 132.205H204.406V130.756H198.732V132.205ZM219.268 132.93V133.969H208.084V132.93H219.268ZM217.941 131.002V132.041H209.547V128.268H217.818V129.32H210.846V131.002H217.941ZM217.846 134.939V137.906H210.709V139H218.188V140.025H209.438V136.949H216.561V135.938H209.424V134.939H217.846ZM231.354 134.311V135.35H220.184V134.311H231.354ZM230.096 138.85V139.902H221.592V136.348H222.904V138.85H230.096ZM225.762 128.322C228.414 128.309 230.137 129.238 230.137 130.77C230.137 132.314 228.414 133.244 225.762 133.258C223.096 133.244 221.387 132.314 221.387 130.77C221.387 129.238 223.096 128.309 225.762 128.322ZM225.762 129.361C223.889 129.361 222.713 129.895 222.727 130.77C222.713 131.672 223.889 132.191 225.762 132.191C227.635 132.191 228.797 131.672 228.797 130.77C228.797 129.895 227.635 129.361 225.762 129.361ZM245.846 127.912V140.189H244.547V127.912H245.846ZM239.297 128.828C241.115 128.828 242.455 130.496 242.455 133.121C242.455 135.76 241.115 137.428 239.297 137.428C237.451 137.428 236.125 135.76 236.125 133.121C236.125 130.496 237.451 128.828 239.297 128.828ZM239.297 129.99C238.162 129.99 237.383 131.193 237.383 133.121C237.383 135.062 238.162 136.266 239.297 136.266C240.418 136.266 241.197 135.062 241.197 133.121C241.197 131.193 240.418 129.99 239.297 129.99ZM258.014 127.912V134.598H256.715V131.289H254.514V130.236H256.715V127.912H258.014ZM258.26 135.268V136.252H249.633V135.268H253.311V134.174H254.609V135.268H258.26ZM253.939 136.717C256.141 136.703 257.426 137.305 257.426 138.426C257.426 139.561 256.141 140.148 253.939 140.135C251.752 140.148 250.48 139.561 250.48 138.426C250.48 137.305 251.752 136.703 253.939 136.717ZM253.939 137.619C252.504 137.619 251.738 137.92 251.738 138.426C251.738 138.959 252.504 139.232 253.939 139.232C255.389 139.232 256.154 138.959 256.154 138.426C256.154 137.92 255.389 137.619 253.939 137.619ZM253.775 128.473V131.59H249.592V132.861C251.608 132.854 253.051 132.8 254.732 132.492L254.855 133.518C253.023 133.832 251.479 133.887 249.25 133.887H248.293V130.66H252.49V129.457H248.266V128.473H253.775ZM270.428 127.912V140.162H269.197V127.912H270.428ZM267.844 128.227V139.561H266.613V133.873H264.221C263.489 135.295 262.327 136.539 260.598 137.551L259.859 136.621C262.457 135.076 263.708 133.019 263.934 130.496H260.434V129.43H265.219C265.212 130.626 265.048 131.768 264.672 132.834H266.613V128.227H267.844ZM285.357 133.408V134.475H276.758V128.979H278.057V133.408H285.357ZM286.629 137.455V138.549H275.418V137.455H286.629ZM291.154 128.705C291.154 131.18 290.43 132.875 288.365 134.338L287.504 133.518C289.021 132.506 289.732 131.433 289.91 129.758H287.9V128.705H291.154ZM294.531 128.705C294.531 129.108 294.511 129.505 294.477 129.881H296.377V127.926H297.676V134.939H296.377V133.559H294.176V132.506H296.377V130.934H294.312C293.991 132.431 293.273 133.695 291.92 134.83L290.99 134.078C292.501 132.889 293.144 131.562 293.301 129.758H291.605V128.705H294.531ZM291.783 136.02C291.77 137.079 292.289 138.207 293.396 138.877C294.518 138.146 295.051 136.942 295.051 136.02V135.35H296.322V136.02C296.322 137.291 297.156 138.549 298.756 139.055L298.1 140.025C296.896 139.602 296.083 138.768 295.666 137.742C295.283 138.74 294.545 139.663 293.41 140.135C292.241 139.69 291.503 138.822 291.127 137.811C290.683 138.781 289.876 139.595 288.734 140.025L288.064 139.055C289.65 138.508 290.512 137.195 290.512 136.02V135.35H291.783V136.02ZM302.939 128.828C304.601 128.828 305.817 130.236 306.016 132.506H308.545V127.912H309.83V140.189H308.545V133.559H306.029C305.886 135.944 304.642 137.428 302.939 137.428C301.107 137.428 299.822 135.76 299.836 133.121C299.822 130.496 301.107 128.828 302.939 128.828ZM302.939 129.99C301.832 129.99 301.066 131.193 301.066 133.121C301.066 135.062 301.832 136.266 302.939 136.266C304.047 136.266 304.812 135.062 304.812 133.121C304.812 131.193 304.047 129.99 302.939 129.99ZM322.928 137.551V138.631H311.717V137.551H314.396V134.352C313.392 133.798 312.783 132.916 312.783 131.822C312.783 129.895 314.67 128.623 317.295 128.623C319.934 128.623 321.82 129.895 321.82 131.822C321.82 132.902 321.232 133.771 320.248 134.324V137.551H322.928ZM317.295 129.662C315.367 129.662 314.041 130.496 314.041 131.822C314.041 133.135 315.367 133.996 317.295 133.996C319.209 133.996 320.562 133.135 320.562 131.822C320.562 130.496 319.209 129.662 317.295 129.662ZM315.682 137.551H318.936V134.816C318.437 134.946 317.883 135.008 317.295 135.008C316.721 135.008 316.174 134.946 315.682 134.83V137.551ZM326.783 139.98H340.783V125.98H326.783V139.98Z" fill="#374151"/>
<mask id="path-16-inside-2_523_15486" fill="white">
<path d="M16 302H359V482H16V302Z"/>
</mask>
<path d="M16 302H359V482H16V302Z" fill="white"/>
<path d="M16 304H359V300H16V304ZM359 480H16V484H359V480Z" fill="#E5E7EB" mask="url(#path-16-inside-2_523_15486)"/>
<path d="M79.418 380.363V378.332L85.5312 368.859H88.6953V378.273H90.5508V380.363H88.6953V383H86.2734V380.363H79.418ZM82.0156 378.273H86.3125V371.75H86.1562L82.0156 378.176V378.273ZM93.7344 383.156C92.8945 383.156 92.2109 382.473 92.2109 381.633C92.2109 380.812 92.8945 380.129 93.7344 380.129C94.5352 380.129 95.2383 380.812 95.2383 381.633C95.2383 382.473 94.5352 383.156 93.7344 383.156ZM102.27 383.195C98.8711 383.195 96.8398 380.559 96.8398 375.93C96.8398 371.32 98.8711 368.664 102.27 368.664C105.648 368.664 107.699 371.32 107.699 375.93C107.699 380.559 105.668 383.195 102.27 383.195ZM102.27 381.066C104.047 381.066 105.141 379.328 105.141 375.93C105.141 372.551 104.027 370.773 102.27 370.773C100.512 370.773 99.3984 372.551 99.3984 375.93C99.3984 379.328 100.492 381.066 102.27 381.066Z" fill="#111827"/>
<path d="M118.453 368.195L113.902 385.129H111.715L116.285 368.195H118.453ZM124.859 383.195C122.027 383.195 119.957 381.516 119.879 379.172H122.359C122.438 380.324 123.512 381.145 124.859 381.145C126.441 381.145 127.574 379.992 127.574 378.43C127.574 376.809 126.402 375.656 124.781 375.656C123.688 375.637 122.887 376.027 122.438 376.867H120.074L120.934 368.859H129.293V370.988H123.023L122.594 374.738H122.73C123.277 374.113 124.312 373.664 125.465 373.664C128.102 373.664 130.035 375.637 130.035 378.352C130.035 381.184 127.906 383.195 124.859 383.195Z" fill="#9CA3AF"/>
<path d="M63.1 407.1C63 403.7 60.3 401 56.9 401C55.8 401 54.1 401.8 53.4 403.1C53.3 403.4 52.9 403.4 52.8 403.1C52 401.9 50.4 401.1 49.2 401.1C45.9 401.1 43.1 403.8 43 407.1V407.3C43 409 43.7 410.6 44.9 411.8C44.9 411.8 44.9 411.8 44.9 411.9C45 412 49.8 416.2 52 418.1C52.6 418.6 53.5 418.6 54.1 418.1C56.3 416.2 61 412 61.2 411.9C61.2 411.9 61.2 411.9 61.2 411.8C62.4 410.7 63.1 409.1 63.1 407.3V407.1Z" fill="#73CFA5"/>
<path d="M89.1 407.1C89 403.7 86.3 401 82.9 401C81.8 401 80.1 401.8 79.4 403.1C79.3 403.4 78.9 403.4 78.8 403.1C78 401.9 76.4 401.1 75.2 401.1C71.9 401.1 69.1 403.8 69 407.1V407.3C69 409 69.7 410.6 70.9 411.8C70.9 411.8 70.9 411.8 70.9 411.9C71 412 75.8 416.2 78 418.1C78.6 418.6 79.5 418.6 80.1 418.1C82.3 416.2 87 412 87.2 411.9C87.2 411.9 87.2 411.9 87.2 411.8C88.4 410.7 89.1 409.1 89.1 407.3V407.1Z" fill="#73CFA5"/>
<path d="M115.1 407.1C115 403.7 112.3 401 108.9 401C107.8 401 106.1 401.8 105.4 403.1C105.3 403.4 104.9 403.4 104.8 403.1C104 401.9 102.4 401.1 101.2 401.1C97.9 401.1 95.1 403.8 95 407.1V407.3C95 409 95.7 410.6 96.9 411.8C96.9 411.8 96.9 411.8 96.9 411.9C97 412 101.8 416.2 104 418.1C104.6 418.6 105.5 418.6 106.1 418.1C108.3 416.2 113 412 113.2 411.9C113.2 411.9 113.2 411.9 113.2 411.8C114.4 410.7 115.1 409.1 115.1 407.3V407.1Z" fill="#73CFA5"/>
<path d="M141.1 407.1C141 403.7 138.3 401 134.9 401C133.8 401 132.1 401.8 131.4 403.1C131.3 403.4 130.9 403.4 130.8 403.1C130 401.9 128.4 401.1 127.2 401.1C123.9 401.1 121.1 403.8 121 407.1V407.3C121 409 121.7 410.6 122.9 411.8C122.9 411.8 122.9 411.8 122.9 411.9C123 412 127.8 416.2 130 418.1C130.6 418.6 131.5 418.6 132.1 418.1C134.3 416.2 139 412 139.2 411.9C139.2 411.9 139.2 411.9 139.2 411.8C140.4 410.7 141.1 409.1 141.1 407.3V407.1Z" fill="#73CFA5"/>
<path d="M167.1 407.1C167 403.7 164.3 401 160.9 401C159.8 401 158.1 401.8 157.4 403.1C157.3 403.4 156.9 403.4 156.8 403.1C156 401.9 154.4 401.1 153.2 401.1C149.9 401.1 147.1 403.8 147 407.1V407.3C147 409 147.7 410.6 148.9 411.8C148.9 411.8 148.9 411.8 148.9 411.9C149 412 153.8 416.2 156 418.1C156.6 418.6 157.5 418.6 158.1 418.1C160.3 416.2 165 412 165.2 411.9C165.2 411.9 165.2 411.9 165.2 411.8C166.4 410.7 167.1 409.1 167.1 407.3V407.1Z" fill="#E5E7EB"/>
<path d="M193.238 349.137C191.365 349.137 189.957 347.988 189.889 346.416H191.352C191.434 347.264 192.24 347.879 193.238 347.879C194.441 347.879 195.303 347.004 195.303 345.828C195.303 344.625 194.414 343.75 193.17 343.736C192.377 343.736 191.775 343.996 191.434 344.611H190.012L190.654 339.102H196.26V340.387H191.898L191.57 343.162H191.666C192.076 342.766 192.773 342.492 193.525 342.492C195.385 342.492 196.766 343.873 196.766 345.787C196.766 347.742 195.303 349.137 193.238 349.137ZM208.154 337.912V345.049H206.855V341.973H204.559V340.893H206.855V337.912H208.154ZM208.154 345.623V350.012H200.074V345.623H208.154ZM201.359 346.648V348.959H206.883V346.648H201.359ZM202.33 340.004C202.33 341.535 203.438 343.053 205.283 343.695L204.613 344.721C203.239 344.235 202.221 343.251 201.688 342.041C201.154 343.388 200.081 344.468 198.625 344.98L197.955 343.955C199.842 343.312 201.004 341.686 201.004 340.004V339.717H198.352V338.65H204.955V339.717H202.33V340.004Z" fill="#374151"/>
<rect x="222" y="342" width="84" height="4" rx="2" fill="#E5E7EB"/>
<path fill-rule="evenodd" clip-rule="evenodd" d="M277.22 342C278.325 342 279.22 342.895 279.22 344C279.22 345.105 278.325 346 277.22 346H224C222.895 346 222 345.105 222 344C222 342.895 222.895 342 224 342H277.22Z" fill="#111827"/>
<path d="M318.875 349V347.906L322.307 344.447C323.387 343.312 323.934 342.684 323.934 341.822C323.934 340.852 323.141 340.223 322.102 340.223C321.008 340.223 320.297 340.92 320.297 341.973H318.875C318.861 340.168 320.242 338.965 322.129 338.965C324.043 338.965 325.355 340.168 325.369 341.781C325.355 342.889 324.836 343.764 322.977 345.596L320.967 347.633V347.715H325.533V349H318.875ZM327.543 349L331.959 340.469V340.387H326.859V339.102H333.518V340.441L329.115 349H327.543Z" fill="#9CA3AF"/>
<path d="M189.656 371.072V369.855L194.031 363.102H195.891V369.801H197.244V371.072H195.891V373H194.469V371.072H189.656ZM191.242 369.801H194.469V364.893H194.359L191.242 369.719V369.801ZM208.551 361.912V369.049H207.252V365.973H204.955V364.893H207.252V361.912H208.551ZM208.551 369.623V374.012H200.471V369.623H208.551ZM201.756 370.648V372.959H207.279V370.648H201.756ZM202.727 364.004C202.727 365.535 203.834 367.053 205.68 367.695L205.01 368.721C203.636 368.235 202.617 367.251 202.084 366.041C201.551 367.388 200.478 368.468 199.021 368.98L198.352 367.955C200.238 367.312 201.4 365.686 201.4 364.004V363.717H198.748V362.65H205.352V363.717H202.727V364.004Z" fill="#374151"/>
<rect x="222" y="366" width="84" height="4" rx="2" fill="#E5E7EB"/>
<path fill-rule="evenodd" clip-rule="evenodd" d="M274.454 366C275.558 366 276.454 366.895 276.454 368C276.454 369.105 275.558 370 274.454 370H224C222.895 370 222 369.105 222 368C222 366.895 222.895 366 224 366H274.454Z" fill="#111827"/>
<path d="M322.635 363.102V373H321.117V364.605H321.062L318.697 366.15V364.715L321.158 363.102H322.635ZM328.555 362.965C330.373 362.979 332.287 364.072 332.287 367.695C332.287 371.168 330.797 373.137 328.418 373.137C326.6 373.137 325.314 372.016 325.082 370.402H326.572C326.777 371.236 327.42 371.824 328.418 371.824C329.949 371.824 330.838 370.484 330.852 368.229H330.729C330.195 369.062 329.266 369.568 328.199 369.568C326.422 369.568 325 368.215 325 366.314C325 364.428 326.408 362.951 328.555 362.965ZM328.555 364.223C327.352 364.223 326.463 365.152 326.463 366.287C326.463 367.436 327.324 368.338 328.527 368.338C329.717 368.338 330.646 367.367 330.646 366.273C330.646 365.207 329.771 364.223 328.555 364.223Z" fill="#9CA3AF"/>
<path d="M193.389 397.137C191.338 397.137 189.875 396.029 189.82 394.416H191.352C191.406 395.291 192.268 395.838 193.375 395.838C194.564 395.838 195.439 395.182 195.439 394.225C195.439 393.254 194.619 392.543 193.211 392.543H192.363V391.312H193.211C194.332 391.312 195.125 390.684 195.125 389.74C195.125 388.838 194.455 388.223 193.402 388.223C192.404 388.223 191.529 388.77 191.488 389.672H190.039C190.08 388.059 191.57 386.965 193.416 386.965C195.357 386.965 196.588 388.195 196.574 389.658C196.588 390.779 195.891 391.6 194.824 391.859V391.928C196.178 392.119 196.957 393.021 196.957 394.279C196.957 395.934 195.439 397.137 193.389 397.137ZM208.4 385.912V393.049H207.102V389.973H204.805V388.893H207.102V385.912H208.4ZM208.4 393.623V398.012H200.32V393.623H208.4ZM201.605 394.648V396.959H207.129V394.648H201.605ZM202.576 388.004C202.576 389.535 203.684 391.053 205.529 391.695L204.859 392.721C203.485 392.235 202.467 391.251 201.934 390.041C201.4 391.388 200.327 392.468 198.871 392.98L198.201 391.955C200.088 391.312 201.25 389.686 201.25 388.004V387.717H198.598V386.65H205.201V387.717H202.576V388.004Z" fill="#374151"/>
<rect x="222" y="390" width="84" height="4" rx="2" fill="#E5E7EB"/>
<path fill-rule="evenodd" clip-rule="evenodd" d="M227.815 390C228.919 390 229.815 390.895 229.815 392C229.815 393.105 228.919 394 227.815 394H224C222.895 394 222 393.105 222 392C222 390.895 222.895 390 224 390H227.815Z" fill="#111827"/>
<path d="M318.875 397V395.906L322.307 392.447C323.387 391.312 323.934 390.684 323.934 389.822C323.934 388.852 323.141 388.223 322.102 388.223C321.008 388.223 320.297 388.92 320.297 389.973H318.875C318.861 388.168 320.242 386.965 322.129 386.965C324.043 386.965 325.355 388.168 325.369 389.781C325.355 390.889 324.836 391.764 322.977 393.596L320.967 395.633V395.715H325.533V397H318.875Z" fill="#9CA3AF"/>
<path d="M189.875 421V419.906L193.307 416.447C194.387 415.312 194.934 414.684 194.934 413.822C194.934 412.852 194.141 412.223 193.102 412.223C192.008 412.223 191.297 412.92 191.297 413.973H189.875C189.861 412.168 191.242 410.965 193.129 410.965C195.043 410.965 196.355 412.168 196.369 413.781C196.355 414.889 195.836 415.764 193.977 417.596L191.967 419.633V419.715H196.533V421H189.875ZM207.99 409.912V417.049H206.691V413.973H204.395V412.893H206.691V409.912H207.99ZM207.99 417.623V422.012H199.91V417.623H207.99ZM201.195 418.648V420.959H206.719V418.648H201.195ZM202.166 412.004C202.166 413.535 203.273 415.053 205.119 415.695L204.449 416.721C203.075 416.235 202.057 415.251 201.523 414.041C200.99 415.388 199.917 416.468 198.461 416.98L197.791 415.955C199.678 415.312 200.84 413.686 200.84 412.004V411.717H198.188V410.65H204.791V411.717H202.166V412.004Z" fill="#374151"/>
<rect x="222" y="414" width="84" height="4" rx="2" fill="#E5E7EB"/>
<path d="M322.32 421.137C320.023 421.137 318.684 419.291 318.684 416.051C318.684 412.838 320.051 410.965 322.32 410.965C324.59 410.965 325.957 412.838 325.957 416.051C325.957 419.291 324.604 421.137 322.32 421.137ZM322.32 419.838C323.66 419.838 324.453 418.525 324.453 416.051C324.453 413.59 323.646 412.236 322.32 412.236C320.994 412.236 320.188 413.59 320.188 416.051C320.188 418.525 320.98 419.838 322.32 419.838Z" fill="#9CA3AF"/>
<path d="M193.635 435.102V445H192.117V436.605H192.062L189.697 438.15V436.715L192.158 435.102H193.635ZM205.939 433.912V441.049H204.641V437.973H202.344V436.893H204.641V433.912H205.939ZM205.939 441.623V446.012H197.859V441.623H205.939ZM199.145 442.648V444.959H204.668V442.648H199.145ZM200.115 436.004C200.115 437.535 201.223 439.053 203.068 439.695L202.398 440.721C201.024 440.235 200.006 439.251 199.473 438.041C198.939 439.388 197.866 440.468 196.41 440.98L195.74 439.955C197.627 439.312 198.789 437.686 198.789 436.004V435.717H196.137V434.65H202.74V435.717H200.115V436.004Z" fill="#374151"/>
<rect x="220" y="438" width="84" height="4" rx="2" fill="#E5E7EB"/>
<path d="M322.32 445.137C320.023 445.137 318.684 443.291 318.684 440.051C318.684 436.838 320.051 434.965 322.32 434.965C324.59 434.965 325.957 436.838 325.957 440.051C325.957 443.291 324.604 445.137 322.32 445.137ZM322.32 443.838C323.66 443.838 324.453 442.525 324.453 440.051C324.453 437.59 323.646 436.236 322.32 436.236C320.994 436.236 320.188 437.59 320.188 440.051C320.188 442.525 320.98 443.838 322.32 443.838Z" fill="#9CA3AF"/>
<mask id="path-43-inside-3_523_15486" fill="white">
<path d="M16 498H359V1698H16V498Z"/>
</mask>
<path d="M16 498H359V1698H16V498Z" fill="white"/>
<path d="M16 500H359V496H16V500Z" fill="#111827" mask="url(#path-43-inside-3_523_15486)"/>
<rect x="33" y="523" width="108" height="34" rx="11" fill="white"/>
<rect x="33" y="523" width="108" height="34" rx="11" stroke="#F3F4F6" stroke-width="2"/>
<path d="M48.9629 537.521C48.9629 539.572 50.3027 541.691 52.1895 542.498L51.4785 543.51C50.0361 542.874 48.8877 541.527 48.3203 539.887C47.7529 541.637 46.5977 543.127 45.1758 543.824L44.4238 542.799C46.2695 541.938 47.6367 539.627 47.6504 537.521V536.223H44.8477V535.143H51.752V536.223H48.9629V537.521ZM54.5957 533.912V546.162H53.2969V533.912H54.5957ZM66.7637 541.773V546.162H65.4648V542.799H58.4648V541.773H66.7637ZM66.7637 533.912V541.131H65.4648V539.449H62.4434C61.876 540.119 60.9805 540.522 59.9414 540.516C58.0957 540.529 56.7285 539.299 56.7285 537.549C56.7285 535.826 58.0957 534.582 59.9414 534.596C60.9805 534.589 61.8691 534.992 62.4434 535.662H65.4648V533.912H66.7637ZM59.9414 535.689C58.793 535.689 57.9727 536.455 57.9727 537.549C57.9727 538.67 58.793 539.422 59.9414 539.422C61.0488 539.422 61.8828 538.67 61.8828 537.549C61.8828 536.455 61.0488 535.689 59.9414 535.689ZM63.0176 538.383H65.4648V536.729H63.0176C63.0859 536.988 63.127 537.262 63.127 537.549C63.127 537.843 63.0859 538.123 63.0176 538.383ZM76.3887 536.154C76.3887 537.809 77.4961 539.422 79.3418 540.064L78.6309 541.076C77.291 540.563 76.293 539.552 75.7734 538.273C75.2402 539.695 74.1943 540.816 72.752 541.363L72.0547 540.338C73.9551 539.654 75.0898 537.959 75.1035 536.113V534.664H76.3887V536.154ZM82.2812 533.926V543.059H80.9824V537.781H78.3984V536.715H80.9824V533.926H82.2812ZM82.5547 544.85V545.902H74.2832V542.033H75.5957V544.85H82.5547ZM89.459 534.787V535.84H85.918V537.207H89.3223V538.205H85.918V539.695C87.5586 539.682 88.6387 539.62 89.8965 539.381L90.0195 540.447C88.584 540.721 87.4219 540.775 85.4668 540.762H84.6738V534.787H89.459ZM94.6133 533.926V541.363H93.3828V538.096H91.8789V541.268H90.6621V534.145H91.8789V537.043H93.3828V533.926H94.6133ZM94.6133 541.951V546.162H93.3281V543.004H86.2871V541.951H94.6133Z" fill="#1F2937"/>
<path d="M118.715 543.465C118.397 543.765 117.901 543.765 117.583 543.465L111.805 538.006C111.263 537.494 111.625 536.583 112.371 536.583L123.928 536.583C124.673 536.583 125.036 537.494 124.494 538.006L118.715 543.465Z" fill="#1F2937"/>
<rect x="151" y="523" width="108" height="34" rx="11" fill="white"/>
<rect x="151" y="523" width="108" height="34" rx="11" stroke="#F3F4F6" stroke-width="2"/>
<path d="M172.076 533.912V536.373H173.854V537.467H172.076V540.051H170.777V533.912H172.076ZM164.311 534.459V538.451C165.958 538.438 167.694 538.308 169.574 537.932L169.738 539.012C167.674 539.422 165.814 539.545 164.01 539.545H163.012V534.459H164.311ZM172.076 540.611V543.729H165.473V544.959H172.5V546.012H164.188V542.73H170.777V541.637H164.16V540.611H172.076ZM184.422 533.912V538.697H186.035V539.791H184.422V546.162H183.123V533.912H184.422ZM177.449 537.385C177.449 538.759 177.613 540.639 178.57 541.965C179.479 540.666 179.664 538.807 179.678 537.385V536.154H178.803V535.102H182.221V536.154H180.908V537.385C180.908 539.271 181.264 541.514 182.795 542.635L181.961 543.578C181.086 542.901 180.573 541.828 180.279 540.611C179.999 541.855 179.479 542.99 178.557 543.688C177.647 542.997 177.128 541.855 176.848 540.625C176.54 541.828 176.027 542.908 175.166 543.578L174.332 542.635C175.85 541.5 176.219 539.217 176.219 537.385V536.154H174.756V535.102H178.311V536.154H177.449V537.385ZM194.389 536.154C194.389 537.809 195.496 539.422 197.342 540.064L196.631 541.076C195.291 540.563 194.293 539.552 193.773 538.273C193.24 539.695 192.194 540.816 190.752 541.363L190.055 540.338C191.955 539.654 193.09 537.959 193.104 536.113V534.664H194.389V536.154ZM200.281 533.926V543.059H198.982V537.781H196.398V536.715H198.982V533.926H200.281ZM200.555 544.85V545.902H192.283V542.033H193.596V544.85H200.555ZM207.459 534.787V535.84H203.918V537.207H207.322V538.205H203.918V539.695C205.559 539.682 206.639 539.62 207.896 539.381L208.02 540.447C206.584 540.721 205.422 540.775 203.467 540.762H202.674V534.787H207.459ZM212.613 533.926V541.363H211.383V538.096H209.879V541.268H208.662V534.145H209.879V537.043H211.383V533.926H212.613ZM212.613 541.951V546.162H211.328V543.004H204.287V541.951H212.613Z" fill="#1F2937"/>
<path d="M236.715 543.465C236.397 543.765 235.901 543.765 235.583 543.465L229.805 538.006C229.263 537.494 229.625 536.583 230.371 536.583L241.928 536.583C242.673 536.583 243.036 537.494 242.494 538.006L236.715 543.465Z" fill="#1F2937"/>
<rect x="308" y="523" width="34" height="34" rx="11" fill="white"/>
<rect x="308" y="523" width="34" height="34" rx="11" stroke="#F3F4F6" stroke-width="2"/>
<path d="M316 539L320 535M320 535L324 539M320 535V545" stroke="#111827" stroke-width="1.8" stroke-linecap="round"/>
<path d="M334 541L330 545M330 545L326 541M330 545V535" stroke="#111827" stroke-width="1.8" stroke-linecap="round"/>
<g clip-path="url(#clip3_523_15486)">
<path d="M-5 546H373V751H-5V546Z" fill="#E8E8E8"/>
</g>
<path d="M31.3281 187.809V189.408H28.9727V197.529H27.0215V181.674H28.9727V187.809H31.3281ZM19.0234 183.221V191.992C21.1416 191.957 23.4004 191.772 25.791 191.271L26.002 192.924C23.3301 193.451 20.7812 193.609 18.4258 193.609H17.0898V183.221H19.0234ZM46.5859 190.674V192.256H40.2578V197.547H38.3242V192.256H32.0664V190.674H46.5859ZM44.8105 182.482V188.811H33.8418V182.482H44.8105ZM35.7578 184.047V187.281H42.8594V184.047H35.7578ZM60.877 181.691V191.377H58.9082V181.691H60.877ZM55.7793 182.641V187.299H50.4004V189.004C53.125 188.995 55.0498 188.907 57.3262 188.564L57.5723 190.129C55.0586 190.533 52.9141 190.604 49.8379 190.604H48.4844V185.84H53.8457V184.24H48.4492V182.641H55.7793ZM55.5332 191.658C58.9082 191.658 60.9648 192.73 60.9648 194.611C60.9648 196.457 58.9082 197.547 55.5332 197.547C52.1406 197.547 50.1016 196.457 50.1016 194.611C50.1016 192.73 52.1406 191.658 55.5332 191.658ZM55.5332 193.188C53.2832 193.188 52.0352 193.68 52.0352 194.611C52.0352 195.525 53.2832 196.018 55.5332 196.018C57.7656 196.018 59.0137 195.525 59.0137 194.611C59.0137 193.68 57.7656 193.188 55.5332 193.188Z" fill="#111827"/>
<g clip-path="url(#clip4_523_15486)">
<mask id="mask0_523_15486" style="mask-type:luminance" maskUnits="userSpaceOnUse" x="67" y="178" width="24" height="24">
<path d="M91 178H67V202H91V178Z" fill="white"/>
</mask>
<g mask="url(#mask0_523_15486)">
<path d="M79 195.611C79.2406 195.771 79.4911 195.916 79.75 196.044V199.75C79.75 199.949 79.671 200.14 79.5303 200.28C79.3897 200.421 79.1989 200.5 79 200.5C78.8012 200.5 78.6104 200.421 78.4697 200.28C78.329 200.14 78.25 199.949 78.25 199.75V196.044C78.5089 195.916 78.7595 195.771 79 195.611ZM85.5719 183.868C85.0293 182.572 84.116 181.466 82.9468 180.688C81.7775 179.91 80.4045 179.495 79 179.495C77.5956 179.495 76.2225 179.91 75.0532 180.688C73.884 181.466 72.9707 182.572 72.4281 183.868C71.2565 184.403 70.2633 185.264 69.5669 186.348C68.8705 187.432 68.5002 188.693 68.5 189.981C68.4906 193.562 71.5 196.656 75.0756 196.75C76.1754 196.776 77.265 196.534 78.25 196.044V192.713L74.1644 190.671C73.9864 190.582 73.851 190.426 73.7881 190.237C73.7251 190.048 73.7398 189.842 73.8288 189.664C73.9178 189.486 74.0739 189.351 74.2627 189.288C74.4515 189.225 74.6576 189.24 74.8356 189.329L78.25 191.037V186.25C78.25 186.051 78.329 185.86 78.4697 185.72C78.6104 185.579 78.8012 185.5 79 185.5C79.1989 185.5 79.3897 185.579 79.5303 185.72C79.671 185.86 79.75 186.051 79.75 186.25V188.787L83.1644 187.079C83.2525 187.035 83.3485 187.008 83.4468 187.001C83.5451 186.994 83.6438 187.007 83.7374 187.038C83.8308 187.069 83.9173 187.118 83.9917 187.183C84.0662 187.247 84.1272 187.326 84.1713 187.414C84.2153 187.502 84.2417 187.598 84.2486 187.697C84.2556 187.795 84.2432 187.894 84.212 187.987C84.1808 188.081 84.1316 188.167 84.067 188.242C84.0024 188.316 83.9238 188.377 83.8356 188.421L79.75 190.463V196.044C80.6824 196.507 81.709 196.748 82.75 196.75H82.9206C86.5 196.656 89.5103 193.562 89.5 189.981C89.4998 188.693 89.1295 187.432 88.4331 186.348C87.7368 185.264 86.7436 184.403 85.5719 183.868Z" fill="black"/>
</g>
</g>
<path d="M16 209C16 208.448 16.4477 208 17 208H90C90.5523 208 91 208.448 91 209V209C91 209.552 90.5523 210 90 210H17C16.4477 210 16 209.552 16 209V209Z" fill="#111827"/>
<path d="M116.236 182.641V184.064C116.236 185.55 116.236 187.176 115.814 189.426H118.012V191.008H111.701V197.582H109.732V191.008H103.527V189.426H113.828C114.268 187.264 114.285 185.646 114.285 184.223H105.232V182.641H116.236ZM133.586 189.76V191.307H119.066V189.76H133.586ZM131.793 182.008V186.086H122.846V187.229H132.109V188.723H120.912V184.662H129.842V183.537H120.859V182.008H131.793ZM131.846 192.449V197.371H120.965V192.449H131.846ZM122.881 193.996V195.789H129.912V193.996H122.881ZM147.877 181.691V191.377H145.908V181.691H147.877ZM142.779 182.641V187.299H137.4V189.004C140.125 188.995 142.05 188.907 144.326 188.564L144.572 190.129C142.059 190.533 139.914 190.604 136.838 190.604H135.484V185.84H140.846V184.24H135.449V182.641H142.779ZM142.533 191.658C145.908 191.658 147.965 192.73 147.965 194.611C147.965 196.457 145.908 197.547 142.533 197.547C139.141 197.547 137.102 196.457 137.102 194.611C137.102 192.73 139.141 191.658 142.533 191.658ZM142.533 193.188C140.283 193.188 139.035 193.68 139.035 194.611C139.035 195.525 140.283 196.018 142.533 196.018C144.766 196.018 146.014 195.525 146.014 194.611C146.014 193.68 144.766 193.188 142.533 193.188Z" fill="#9CA3AF"/>
<g clip-path="url(#clip5_523_15486)">
<mask id="mask1_523_15486" style="mask-type:luminance" maskUnits="userSpaceOnUse" x="154" y="178" width="24" height="24">
<path d="M178 178H154V202H178V178Z" fill="white"/>
</mask>
<g mask="url(#mask1_523_15486)">
<path d="M164.04 182.305C166.235 181.638 168.655 182.081 170.4 183.481C171.786 184.589 172.588 186.167 172.652 187.821L172.655 188.033L172.746 188.036C175.046 188.143 176.889 189.997 176.996 192.306L177 192.517C177 194.924 175.115 196.889 172.745 196.999L172.535 197.004H160.657L160.435 196.996C157.495 196.886 155.118 194.597 155.005 191.733L155 191.517C155 188.77 157.08 186.507 159.784 186.1L159.898 186.084L159.968 185.903C160.631 184.283 162.024 182.997 163.797 182.385L164.041 182.305H164.04Z" fill="#9CA3AF"/>
</g>
</g>
<rect x="16" y="222" width="49" height="36" rx="12" fill="#111827"/>
<path d="M38.6641 233.926V242.895H37.3652V238.287H35.0273V237.234H37.3652V233.926H38.6641ZM38.9922 244.85V245.902H30.707V242.088H32.0059V244.85H38.9922ZM32.8398 236.4C32.8398 237.932 33.9473 239.463 35.793 240.078L35.123 241.117C33.749 240.632 32.7305 239.647 32.1973 238.438C31.6641 239.784 30.5908 240.871 29.1348 241.391L28.4648 240.338C30.3516 239.695 31.5137 238.082 31.5137 236.4V235.922H28.8613V234.855H35.4648V235.922H32.8398V236.4ZM44.2148 237.672C44.2148 239.6 45.1035 241.568 46.7988 242.471L46.0742 243.428C44.8916 242.799 44.0645 241.623 43.627 240.229C43.1826 241.726 42.3623 243.011 41.1797 243.715L40.4141 242.73C42.1094 241.746 42.9844 239.654 42.998 237.672V237.18H40.7832V236.113H42.998V234.35H44.2148V236.113H46.3887V237.18H44.2148V237.672ZM51.0645 233.912V246.162H49.8203V233.912H51.0645ZM48.5762 234.172V245.547H47.3457V239.764H45.582V238.684H47.3457V234.172H48.5762Z" fill="white"/>
<rect x="73" y="222" width="101" height="36" rx="12" fill="#E5E7EB"/>
<path d="M95.9922 233.912V246.162H94.748V233.912H95.9922ZM93.5039 234.145V245.561H92.2598V239.654H90.8789C90.7695 242.047 89.7441 243.537 88.2266 243.523C86.627 243.537 85.5879 241.855 85.5879 239.203C85.5879 236.551 86.627 234.883 88.2266 234.896C89.7168 234.883 90.7285 236.298 90.8789 238.602H92.2598V234.145H93.5039ZM88.2266 236.113C87.3379 236.113 86.791 237.248 86.791 239.203C86.791 241.158 87.3379 242.293 88.2266 242.293C89.1289 242.293 89.6895 241.158 89.6895 239.203C89.6895 237.248 89.1289 236.113 88.2266 236.113ZM107.764 233.912V246.189H106.479V239.449H103.771V243.154H98.0293V234.855H99.3418V237.986H102.5V234.855H103.771V238.383H106.479V233.912H107.764ZM99.3418 242.088H102.5V239.012H99.3418V242.088ZM119.289 235.648C119.289 237.645 121.422 239.531 123.773 239.955L123.172 241.035C121.217 240.611 119.412 239.326 118.619 237.604C117.812 239.312 116.015 240.598 114.053 241.035L113.479 239.955C115.803 239.518 117.922 237.645 117.922 235.648V234.719H119.289V235.648ZM124.279 243.469V244.549H113.068V243.469H124.279ZM135.107 240.434V241.473H126.576V234.924H134.984V235.977H127.889V237.631H134.725V238.656H127.889V240.434H135.107ZM136.379 243.551V244.617H125.168V243.551H136.379ZM142.012 235.225V239.586H138.908V242.102C140.241 242.095 141.513 242.047 143.023 241.773L143.133 242.84C141.438 243.141 140.043 243.182 138.498 243.195H137.65V238.547H140.768V236.277H137.637V235.225H142.012ZM147.781 233.912V246.162H146.537V233.912H147.781ZM145.266 234.186V245.533H144.035V239.299H142.586V238.246H144.035V234.186H145.266ZM153.92 236.455C153.92 237.918 155.123 239.285 157.023 239.805L156.408 240.816C154.973 240.42 153.879 239.531 153.305 238.369C152.758 239.647 151.678 240.652 150.201 241.117L149.559 240.092C151.445 239.518 152.621 238.041 152.621 236.455V236.387H149.9V235.348H152.621V233.912H153.934V235.348H156.627V236.387H153.92V236.455ZM159.525 233.926V241.391H158.227V233.926H159.525ZM155.41 241.623C157.98 241.623 159.566 242.457 159.566 243.879C159.566 245.314 157.98 246.148 155.41 246.135C152.826 246.148 151.24 245.314 151.24 243.879C151.24 242.457 152.826 241.623 155.41 241.623ZM155.41 242.648C153.592 242.648 152.553 243.1 152.553 243.879C152.553 244.686 153.592 245.137 155.41 245.137C157.229 245.137 158.281 244.686 158.281 243.879C158.281 243.1 157.229 242.648 155.41 242.648Z" fill="#111827"/>
<rect x="182" y="222" width="101" height="36" rx="12" fill="#E5E7EB"/>
<path d="M204.992 233.912V246.162H203.748V233.912H204.992ZM202.504 234.145V245.561H201.26V239.654H199.879C199.77 242.047 198.744 243.537 197.227 243.523C195.627 243.537 194.588 241.855 194.588 239.203C194.588 236.551 195.627 234.883 197.227 234.896C198.717 234.883 199.729 236.298 199.879 238.602H201.26V234.145H202.504ZM197.227 236.113C196.338 236.113 195.791 237.248 195.791 239.203C195.791 241.158 196.338 242.293 197.227 242.293C198.129 242.293 198.689 241.158 198.689 239.203C198.689 237.248 198.129 236.113 197.227 236.113ZM216.764 233.912V246.189H215.479V239.449H212.771V243.154H207.029V234.855H208.342V237.986H211.5V234.855H212.771V238.383H215.479V233.912H216.764ZM208.342 242.088H211.5V239.012H208.342V242.088ZM232.213 234.568V235.621H230.422V238.793H232.145V239.818H223.162V238.793H224.898V235.621H223.107V234.568H232.213ZM233.266 241.117V242.197H228.289V246.148H227.004V242.197H222.055V241.117H233.266ZM226.197 238.793H229.15V235.621H226.197V238.793ZM244.094 239.723V240.789H235.562V235.006H243.984V236.072H236.848V239.723H244.094ZM245.379 243.469V244.549H234.168V243.469H245.379ZM256.207 240.434V241.473H247.676V234.924H256.084V235.977H248.988V237.631H255.824V238.656H248.988V240.434H256.207ZM257.479 243.551V244.617H246.268V243.551H257.479ZM268.525 233.926V240.68H267.227V233.926H268.525ZM264.615 234.5V237.918H260.281V239.367C262.421 239.354 264 239.299 265.859 238.998L266.023 240.051C264.027 240.379 262.346 240.434 260.035 240.447H259.01V236.906H263.33V235.553H258.982V234.5H264.615ZM261.785 241.254V242.58H267.24V241.254H268.525V246.012H260.486V241.254H261.785ZM261.785 244.959H267.24V243.605H261.785V244.959Z" fill="#111827"/>
<path d="M16 274H359" stroke="#E5E7EB" stroke-width="2"/>
<g filter="url(#filter0_d_523_15486)">
<mask id="path-70-inside-4_523_15486" fill="white">
<path d="M233 576C233 569.373 238.373 564 245 564H331C337.627 564 343 569.373 343 576V604H233V576Z"/>
</mask>
<path d="M233 576C233 569.373 238.373 564 245 564H331C337.627 564 343 569.373 343 576V604H233V576Z" fill="white"/>
<path d="M343 604V605H344V604H343ZM233 604H232V605H233V604ZM245 565H331V563H245V565ZM342 576V604H344V576H342ZM343 603H233V605H343V603ZM234 604V576H232V604H234ZM331 565C337.075 565 342 569.925 342 576H344C344 568.82 338.18 563 331 563V565ZM245 563C237.82 563 232 568.82 232 576H234C234 569.925 238.925 565 245 565V563Z" fill="white" mask="url(#path-70-inside-4_523_15486)"/>
<rect x="237" y="568" width="102" height="32" rx="12" fill="#EAF8F2"/>
<path d="M250.195 584.42V586.539C251.316 586.478 252.451 586.382 253.518 586.225L253.613 587.182C250.838 587.688 247.871 587.715 245.684 587.715L245.52 586.648C246.504 586.642 247.666 586.635 248.896 586.594V584.42H250.195ZM252.943 579.471V580.523H250.195C250.264 581.959 251.426 583.203 253.258 583.695L252.656 584.707C251.193 584.29 250.1 583.401 249.553 582.232C249.013 583.463 247.939 584.393 246.463 584.816L245.848 583.832C247.673 583.312 248.821 582.027 248.883 580.523H246.176V579.471H248.896V578.008H250.195V579.471H252.943ZM255.582 577.912V590.189H254.283V577.912H255.582ZM267.709 577.926V586.895H266.41V577.926H267.709ZM268.078 588.85V589.902H259.697V586.047H261.01V588.85H268.078ZM262.008 579.812C261.994 581.604 263.143 583.244 265.029 583.9L264.359 584.939C262.944 584.413 261.898 583.374 261.352 582.041C260.812 583.463 259.752 584.604 258.316 585.158L257.619 584.133C259.547 583.422 260.682 581.658 260.682 579.812V578.596H262.008V579.812ZM279.316 578.76C279.316 580.291 281.285 581.768 283.609 582.109L283.104 583.135C281.162 582.813 279.446 581.809 278.66 580.428C277.881 581.836 276.151 582.841 274.203 583.162L273.711 582.137C276.035 581.781 277.99 580.346 277.99 578.76V578.227H279.316V578.76ZM284.266 584.078V585.131H279.398V587.496H278.113V585.131H273.055V584.078H284.266ZM283.021 588.85V589.902H274.449V586.348H275.748V588.85H283.021Z" fill="#1F2937"/>
<path d="M233 604H343V644H233V604Z" fill="white"/>
<path d="M255.623 617.912V630.189H254.324V617.912H255.623ZM251.877 619.02V623.49H247.475V626.17C249.457 626.163 251.193 626.074 253.244 625.732L253.367 626.799C251.193 627.168 249.348 627.25 247.188 627.25H246.148V622.451H250.551V620.072H246.135V619.02H251.877ZM268.748 624.994V626.061H266V630.162H264.701V626.061H261.598V630.162H260.271V626.061H257.537V624.994H268.748ZM260.217 618.391V619.949H266.041V618.391H267.34V623.641H258.932V618.391H260.217ZM260.217 622.602H266.041V620.975H260.217V622.602ZM283.008 620.947V621.986H279.303V623.381H284.238V624.434H273.068V623.381H278.004V621.986H274.559V618.172H275.844V620.947H283.008ZM283.021 625.541V626.553H281.203V628.959H283.131V630.012H274.189V628.959H276.117V626.553H274.299V625.541H283.021ZM277.402 628.959H279.918V626.553H277.402V628.959ZM296.338 624.311V625.35H285.168V624.311H296.338ZM295.08 628.85V629.902H286.576V626.348H287.889V628.85H295.08ZM290.746 618.322C293.398 618.309 295.121 619.238 295.121 620.77C295.121 622.314 293.398 623.244 290.746 623.258C288.08 623.244 286.371 622.314 286.371 620.77C286.371 619.238 288.08 618.309 290.746 618.322ZM290.746 619.361C288.873 619.361 287.697 619.895 287.711 620.77C287.697 621.672 288.873 622.191 290.746 622.191C292.619 622.191 293.781 621.672 293.781 620.77C293.781 619.895 292.619 619.361 290.746 619.361ZM306.934 618.76C306.934 620.291 308.902 621.768 311.227 622.109L310.721 623.135C308.779 622.813 307.063 621.809 306.277 620.428C305.498 621.836 303.769 622.841 301.82 623.162L301.328 622.137C303.652 621.781 305.607 620.346 305.607 618.76V618.227H306.934V618.76ZM311.883 624.078V625.131H307.016V627.496H305.73V625.131H300.672V624.078H311.883ZM310.639 628.85V629.902H302.066V626.348H303.365V628.85H310.639Z" fill="#1F2937"/>
<path d="M233 644H343V672C343 678.627 337.627 684 331 684H245C238.373 684 233 678.627 233 672V644Z" fill="white"/>
<path d="M249.744 660.441C249.744 661.863 250.852 663.176 252.725 663.709L252.123 664.721C250.708 664.304 249.662 663.442 249.115 662.328C248.582 663.559 247.509 664.509 246.053 664.953L245.424 663.941C247.297 663.395 248.459 661.986 248.459 660.441V660.318H245.793V659.279H248.459V657.857H249.758V659.279H252.41V660.318H249.744V660.441ZM255.076 657.912V660.947H256.854V662.027H255.076V665.145H253.777V657.912H255.076ZM255.076 665.691V670.012H247.256V665.691H255.076ZM248.527 666.717V668.959H253.791V666.717H248.527ZM260.873 658.828C261.987 658.828 262.91 659.471 263.457 660.578H266.479V657.912H267.764V670.189H266.479V665.486H263.539C263.013 666.717 262.049 667.428 260.873 667.428C259.041 667.428 257.756 665.76 257.77 663.121C257.756 660.496 259.041 658.828 260.873 658.828ZM260.873 659.99C259.766 659.99 259 661.193 259 663.121C259 665.062 259.766 666.266 260.873 666.266C261.98 666.266 262.746 665.062 262.746 663.121C262.746 661.193 261.98 659.99 260.873 659.99ZM263.826 661.645C263.915 662.096 263.977 662.588 263.977 663.121C263.977 663.586 263.936 664.017 263.854 664.42H266.479V661.645H263.826ZM283.227 657.926V666.826H281.928V657.926H283.227ZM283.596 668.85V669.902H275.215V665.924H276.527V668.85H283.596ZM276.582 658.746C278.428 658.746 279.836 660.004 279.836 661.781C279.836 663.586 278.428 664.83 276.582 664.83C274.736 664.83 273.314 663.586 273.314 661.781C273.314 660.004 274.736 658.746 276.582 658.746ZM276.582 659.881C275.434 659.881 274.586 660.66 274.586 661.781C274.586 662.93 275.434 663.695 276.582 663.695C277.703 663.695 278.564 662.93 278.564 661.781C278.564 660.66 277.703 659.881 276.582 659.881ZM295.354 657.926V667.209H294.055V666.033H291.594V665.117H294.055V657.926H295.354ZM295.654 668.85V669.902H286.809V666.307H288.094V668.85H295.654ZM285.113 663.518C287.383 663.504 290.432 663.477 293.043 663.148L293.125 664.078C292.079 664.249 290.979 664.365 289.898 664.434V666.826H288.6V664.502C287.41 664.557 286.269 664.563 285.277 664.557L285.113 663.518ZM289.119 658.391C290.91 658.391 292.154 659.252 292.154 660.551C292.154 661.85 290.91 662.684 289.119 662.684C287.301 662.684 286.07 661.85 286.07 660.551C286.07 659.252 287.301 658.391 289.119 658.391ZM289.119 659.361C288.025 659.348 287.287 659.812 287.301 660.551C287.287 661.275 288.025 661.727 289.119 661.727C290.172 661.727 290.91 661.275 290.924 660.551C290.91 659.812 290.172 659.348 289.119 659.361ZM306.934 658.76C306.934 660.291 308.902 661.768 311.227 662.109L310.721 663.135C308.779 662.813 307.063 661.809 306.277 660.428C305.498 661.836 303.769 662.841 301.82 663.162L301.328 662.137C303.652 661.781 305.607 660.346 305.607 658.76V658.227H306.934V658.76ZM311.883 664.078V665.131H307.016V667.496H305.73V665.131H300.672V664.078H311.883ZM310.639 668.85V669.902H302.066V666.348H303.365V668.85H310.639Z" fill="#1F2937"/>
</g>
<g clip-path="url(#clip6_523_15486)">
<mask id="path-78-inside-5_523_15486" fill="white">
<path d="M0 0H375V56H0V0Z"/>
</mask>
<path d="M0 0H375V56H0V0Z" fill="white"/>
<g clip-path="url(#clip7_523_15486)">
<path d="M27.2392 31.7931C27.2392 32.097 27.1543 32.325 26.9844 32.477C26.8235 32.6289 26.5911 32.7049 26.2871 32.7049C25.9832 32.7049 25.7463 32.6289 25.5764 32.477C25.4155 32.325 25.335 32.097 25.335 31.7931V26.322H24.3159C24.2801 26.8852 24.2042 27.3947 24.0879 27.8507C23.9717 28.3066 23.7974 28.691 23.565 29.0039C23.3415 29.3168 23.0599 29.5581 22.7202 29.728C22.3805 29.8979 21.9737 29.9828 21.4999 29.9828C20.9725 29.9828 20.5255 29.88 20.1589 29.6744C19.7924 29.4598 19.4929 29.1603 19.2605 28.7759C19.037 28.3915 18.8761 27.9267 18.7778 27.3813C18.6794 26.8271 18.6302 26.2102 18.6302 25.5308C18.6302 24.8514 18.6794 24.239 18.7778 23.6937C18.8761 23.1394 19.037 22.6701 19.2605 22.2857C19.4929 21.9013 19.7924 21.6063 20.1589 21.4007C20.5255 21.1861 20.9725 21.0788 21.4999 21.0788C21.9648 21.0788 22.367 21.1638 22.7068 21.3336C23.0465 21.4945 23.3281 21.7314 23.5516 22.0443C23.775 22.3483 23.9449 22.7237 24.0611 23.1707C24.1863 23.6088 24.2712 24.1049 24.3159 24.6592H25.335V21.6957C25.335 21.3917 25.4155 21.1638 25.5764 21.0118C25.7463 20.8598 25.9832 20.7838 26.2871 20.7838C26.5911 20.7838 26.8235 20.8598 26.9844 21.0118C27.1543 21.1638 27.2392 21.3917 27.2392 21.6957V31.7931ZM29.8809 32.1685C29.8809 32.4725 29.7959 32.7005 29.6261 32.8524C29.4562 33.0133 29.2193 33.0938 28.9154 33.0938C28.6114 33.0938 28.3745 33.0133 28.2047 32.8524C28.0348 32.7005 27.9499 32.4725 27.9499 32.1685V21.575C27.9499 21.271 28.0348 21.0431 28.2047 20.8911C28.3745 20.7302 28.6114 20.6497 28.9154 20.6497C29.2193 20.6497 29.4562 20.7302 29.6261 20.8911C29.7959 21.0431 29.8809 21.271 29.8809 21.575V32.1685ZM20.4942 25.5308C20.4942 26.398 20.5657 27.0729 20.7087 27.5557C20.8518 28.0295 21.1155 28.2664 21.4999 28.2664C21.8843 28.2664 22.148 28.0295 22.2911 27.5557C22.4341 27.0729 22.5056 26.398 22.5056 25.5308C22.5056 24.6637 22.4341 23.9932 22.2911 23.5194C22.148 23.0366 21.8843 22.7953 21.4999 22.7953C21.1155 22.7953 20.8518 23.0366 20.7087 23.5194C20.5657 23.9932 20.4942 24.6637 20.4942 25.5308ZM32.0093 22.1382C32.0093 21.8342 32.0987 21.6063 32.2775 21.4543C32.4652 21.2934 32.7111 21.2129 33.015 21.2129C33.319 21.2129 33.5604 21.2934 33.7391 21.4543C33.9269 21.6063 34.0207 21.8342 34.0207 22.1382V24.0155H36.3272V22.1382C36.3272 21.8342 36.4166 21.6063 36.5954 21.4543C36.7831 21.2934 37.029 21.2129 37.3329 21.2129C37.6369 21.2129 37.8782 21.2934 38.057 21.4543C38.2448 21.6063 38.3386 21.8342 38.3386 22.1382V24.4983H40.4171V21.6286C40.4171 21.3157 40.5154 21.0744 40.7121 20.9045C40.9177 20.7347 41.177 20.6497 41.4899 20.6497C41.8028 20.6497 42.0575 20.7347 42.2542 20.9045C42.4598 21.0744 42.5626 21.3157 42.5626 21.6286V32.1149C42.5626 32.4278 42.4598 32.6692 42.2542 32.839C42.0575 33.0089 41.8028 33.0938 41.4899 33.0938C41.177 33.0938 40.9177 33.0089 40.7121 32.839C40.5154 32.6692 40.4171 32.4278 40.4171 32.1149V26.2817H38.3386V28.5748C38.3386 29.4598 37.8916 29.9023 36.9977 29.9023H33.3503C32.4563 29.9023 32.0093 29.4598 32.0093 28.5748V22.1382ZM34.0207 25.7588V27.9177C34.0207 28.016 34.0342 28.0831 34.061 28.1189C34.0878 28.1457 34.1504 28.1591 34.2487 28.1591H36.0992C36.1976 28.1591 36.2601 28.1457 36.287 28.1189C36.3138 28.0831 36.3272 28.016 36.3272 27.9177V25.7588H34.0207ZM53.1422 21.6286C53.1422 21.3157 53.2406 21.0744 53.4373 20.9045C53.6429 20.7347 53.9021 20.6497 54.215 20.6497C54.5279 20.6497 54.7827 20.7347 54.9794 20.9045C55.185 21.0744 55.2878 21.3157 55.2878 21.6286V26.9254C55.2878 27.2383 55.185 27.4797 54.9794 27.6495C54.7827 27.8194 54.5279 27.9043 54.215 27.9043C53.9021 27.9043 53.6429 27.8194 53.4373 27.6495C53.2406 27.4797 53.1422 27.2383 53.1422 26.9254V21.6286ZM50.9028 28.1054C51.5465 28.1054 52.1365 28.1546 52.6729 28.253C53.2182 28.3423 53.6831 28.4899 54.0675 28.6955C54.4519 28.9011 54.7514 29.1648 54.9659 29.4866C55.1805 29.8085 55.2878 30.2018 55.2878 30.6667C55.2878 31.1315 55.1805 31.5249 54.9659 31.8467C54.7514 32.1685 54.4519 32.4323 54.0675 32.6379C53.6831 32.8435 53.2182 32.991 52.6729 33.0804C52.1365 33.1787 51.5465 33.2279 50.9028 33.2279C50.2592 33.2279 49.6647 33.1787 49.1194 33.0804C48.583 32.991 48.1226 32.8435 47.7382 32.6379C47.3538 32.4323 47.0543 32.1685 46.8398 31.8467C46.6252 31.5249 46.5179 31.1315 46.5179 30.6667C46.5179 30.2018 46.6252 29.8085 46.8398 29.4866C47.0543 29.1648 47.3538 28.9011 47.7382 28.6955C48.1226 28.4899 48.583 28.3423 49.1194 28.253C49.6647 28.1546 50.2592 28.1054 50.9028 28.1054ZM50.9028 31.5919C51.18 31.5919 51.4526 31.5785 51.7208 31.5517C51.989 31.5249 52.2259 31.4757 52.4315 31.4042C52.6461 31.3327 52.8159 31.2388 52.9411 31.1226C53.0752 30.9974 53.1422 30.8455 53.1422 30.6667C53.1422 30.4879 53.0752 30.3404 52.9411 30.2242C52.8159 30.099 52.6461 30.0007 52.4315 29.9291C52.2259 29.8576 51.989 29.8085 51.7208 29.7816C51.4526 29.7548 51.18 29.7414 50.9028 29.7414C50.6257 29.7414 50.3531 29.7548 50.0849 29.7816C49.8167 29.8085 49.5753 29.8576 49.3608 29.9291C49.1551 30.0007 48.9853 30.099 48.8512 30.2242C48.726 30.3404 48.6635 30.4879 48.6635 30.6667C48.6635 30.8455 48.726 30.9974 48.8512 31.1226C48.9853 31.2388 49.1551 31.3327 49.3608 31.4042C49.5753 31.4757 49.8167 31.5249 50.0849 31.5517C50.3531 31.5785 50.6257 31.5919 50.9028 31.5919ZM51.4795 27.14C50.8 27.2383 50.134 27.3098 49.4814 27.3545C48.8378 27.3903 48.1494 27.4081 47.4164 27.4081H46.3838C45.9279 27.4081 45.5971 27.3098 45.3915 27.1131C45.1859 26.9075 45.0831 26.5857 45.0831 26.1477V24.6056C45.0831 24.1675 45.1859 23.8457 45.3915 23.6401C45.5971 23.4345 45.9279 23.3316 46.3838 23.3316H49.0657C49.182 23.3316 49.2401 23.2735 49.2401 23.1573V22.6746C49.2401 22.6031 49.2267 22.5584 49.1998 22.5405C49.182 22.5226 49.1373 22.5137 49.0657 22.5137H46.0754C45.8072 22.5137 45.5837 22.4466 45.4049 22.3125C45.2351 22.1695 45.1502 21.9683 45.1502 21.7091C45.1502 21.4409 45.2351 21.2398 45.4049 21.1057C45.5837 20.9626 45.8072 20.8911 46.0754 20.8911H49.9508C50.4156 20.8911 50.7464 20.9894 50.9431 21.1861C51.1487 21.3828 51.2515 21.7091 51.2515 22.165V23.6132C51.2515 24.0692 51.1487 24.3999 50.9431 24.6056C50.7464 24.8022 50.4156 24.9006 49.9508 24.9006H47.2555C47.1839 24.9006 47.1392 24.9095 47.1214 24.9274C47.1035 24.9453 47.0945 24.99 47.0945 25.0615V25.6649C47.0945 25.7364 47.1035 25.7811 47.1214 25.799C47.1392 25.8169 47.1839 25.8258 47.2555 25.8258H47.765C48.3819 25.8258 48.9763 25.8035 49.5485 25.7588C50.1206 25.7141 50.6749 25.6515 51.2113 25.571C51.4705 25.5263 51.694 25.5487 51.8817 25.6381C52.0695 25.7275 52.1902 25.9063 52.2438 26.1745C52.2974 26.4427 52.2483 26.6617 52.0963 26.8315C51.9443 26.9925 51.7387 27.0953 51.4795 27.14Z" fill="black"/>
</g>
<path d="M95.7031 31.4688V32.7129H84.4102V31.4688H89.2773V28.7754H85.6543V22.8145H94.4043V28.7754H90.7812V31.4688H95.7031ZM87.1445 24.0312V27.5859H92.9004V24.0312H87.1445ZM106.805 21.8711V28.8711H105.273V21.8711H106.805ZM106.805 29.4727V34.0664H98.6016V29.4727H106.805ZM100.105 30.6758V32.8359H105.314V30.6758H100.105ZM100.064 22.459C101.965 22.459 103.387 23.6621 103.387 25.4121C103.387 27.1074 101.965 28.3379 100.064 28.3379C98.1504 28.3379 96.7285 27.1074 96.7285 25.4121C96.7285 23.6621 98.1504 22.459 100.064 22.459ZM100.064 23.7441C98.9844 23.7441 98.2051 24.3867 98.2188 25.4121C98.2051 26.4102 98.9844 27.0527 100.064 27.0527C101.131 27.0527 101.896 26.4102 101.896 25.4121C101.896 24.3867 101.131 23.7441 100.064 23.7441ZM116.375 24.3867C116.375 25.7129 117.373 27.0117 119.314 27.5312L118.631 28.6934C117.195 28.3174 116.184 27.4971 115.637 26.4375C115.083 27.5996 114.044 28.502 112.588 28.9258L111.863 27.7227C113.818 27.2031 114.857 25.8359 114.857 24.3867V24.3457H112.273V23.1426H114.857V21.8027H116.389V23.1426H118.959V24.3457H116.375V24.3867ZM121.68 21.8574V24.7285H123.402V25.9863H121.68V28.9395H120.162V21.8574H121.68ZM121.857 29.5137V30.7305H118.59C118.877 31.7559 120.265 32.7129 122.377 33.0137L121.83 34.1758C119.896 33.9023 118.433 33.0752 117.715 31.9473C117.004 33.0684 115.555 33.875 113.641 34.1484L113.08 33C115.199 32.7061 116.573 31.7832 116.867 30.7305H113.586V29.5137H121.857ZM134.354 21.8574V34.2168H132.822V21.8574H134.354ZM130.662 23.1699C130.662 26.8477 129.24 29.9785 124.906 32.0293L124.113 30.8125C127.347 29.2744 128.851 27.1826 129.117 24.373H124.742V23.1699H130.662Z" fill="#171717"/>
<path d="M151.527 23.9766C151.527 24.9541 151.76 26.2119 152.594 27.1074C153.407 26.2256 153.619 24.9814 153.633 23.9766V23.8672H152.854V22.6504H156.408V23.8672H155.082V23.9766C155.082 25.3027 155.561 26.8477 156.969 27.5586L156.176 28.666C155.253 28.1738 154.686 27.3604 154.371 26.4102C154.063 27.3877 153.53 28.2695 152.594 28.8027C151.671 28.2764 151.131 27.4014 150.83 26.4512C150.502 27.3877 149.935 28.1943 149.025 28.666L148.219 27.5586C149.613 26.8203 150.119 25.2891 150.119 23.9766V23.8672H148.684V22.6504H152.32V23.8672H151.527V23.9766ZM158.91 21.8574V29.0625H157.393V21.8574H158.91ZM158.91 29.6777V34.0664H150.461V29.6777H158.91ZM151.965 30.8672V32.8359H157.434V30.8672H151.965ZM170.258 21.8711V25.7539H171.98V27.0117H170.258V31.0996H168.74V21.8711H170.258ZM167.852 23.2383V24.4551H160.523V23.2383H163.436V21.8574H164.953V23.2383H167.852ZM164.188 24.9609C165.965 24.9609 167.195 25.9043 167.209 27.3262C167.195 28.7344 165.965 29.6641 164.188 29.6641C162.396 29.6641 161.152 28.7344 161.152 27.3262C161.152 25.9043 162.396 24.9609 164.188 24.9609ZM164.188 26.1367C163.244 26.1367 162.629 26.5742 162.629 27.3262C162.629 28.0645 163.244 28.502 164.188 28.4883C165.131 28.502 165.76 28.0645 165.76 27.3262C165.76 26.5742 165.131 26.1367 164.188 26.1367ZM170.75 32.7402V33.9707H162.342V30.375H163.859V32.7402H170.75ZM187.225 31.4688V32.7129H175.932V31.4688H180.799V28.7754H177.176V22.8145H185.926V28.7754H182.303V31.4688H187.225ZM178.666 24.0312V27.5859H184.422V24.0312H178.666ZM198.326 21.8711V28.8711H196.795V21.8711H198.326ZM198.326 29.4727V34.0664H190.123V29.4727H198.326ZM191.627 30.6758V32.8359H196.836V30.6758H191.627ZM191.586 22.459C193.486 22.459 194.908 23.6621 194.908 25.4121C194.908 27.1074 193.486 28.3379 191.586 28.3379C189.672 28.3379 188.25 27.1074 188.25 25.4121C188.25 23.6621 189.672 22.459 191.586 22.459ZM191.586 23.7441C190.506 23.7441 189.727 24.3867 189.74 25.4121C189.727 26.4102 190.506 27.0527 191.586 27.0527C192.652 27.0527 193.418 26.4102 193.418 25.4121C193.418 24.3867 192.652 23.7441 191.586 23.7441Z" fill="#171717"/>
<path d="M223.703 31.4688V32.7129H212.41V31.4688H217.277V28.7754H213.654V22.8145H222.404V28.7754H218.781V31.4688H223.703ZM215.145 24.0312V27.5859H220.9V24.0312H215.145ZM235.789 28.0098V29.2266H224.51V28.0098H235.789ZM234.531 25.6582V26.8887H225.891V22.3496H234.422V23.5527H227.408V25.6582H234.531ZM234.613 32.7266V33.957H225.904V30.3066H227.395V32.7266H234.613ZM250.227 21.8574V34.2305H248.723V21.8574H250.227ZM246.426 22.9375V27.5723H242.174V30.0605C244.122 30.0469 245.804 29.9512 247.725 29.623L247.861 30.8672C245.756 31.2363 243.91 31.3047 241.695 31.3047H240.615V26.3691H244.881V24.168H240.602V22.9375H246.426ZM263.311 28.9258V30.1562H260.658V34.2168H259.141V30.1562H256.215V34.2168H254.656V30.1562H252.018V28.9258H263.311ZM254.889 22.3359V23.8125H260.412V22.3359H261.943V27.668H253.385V22.3359H254.889ZM254.889 26.4512H260.412V25.002H254.889V26.4512Z" fill="#171717"/>
<path d="M333.703 31.5234V32.7812H322.41V31.5234H327.277V29.5137H323.75V25.4668H330.859V23.9355H323.723V22.7051H332.363V26.6699H325.268V28.2695H332.65V29.5137H328.781V31.5234H333.703ZM344.34 23.0605V24.4551C344.34 26.1094 344.34 27.8184 343.889 30.416L342.344 30.2793C342.822 27.8457 342.822 26.0547 342.822 24.4551V24.291H335.699V23.0605H344.34ZM345.775 31.2773V32.5215H334.51V31.2773H345.775ZM356.904 21.8711V30.7988H355.373V21.8711H356.904ZM357.246 32.7402V33.9707H348.729V29.8965H350.26V32.7402H357.246ZM350.164 22.6777C352.037 22.6777 353.486 23.9766 353.486 25.7676C353.486 27.5996 352.037 28.8711 350.164 28.8711C348.277 28.8711 346.828 27.5996 346.828 25.7676C346.828 23.9766 348.277 22.6777 350.164 22.6777ZM350.164 24.0039C349.111 24.0039 348.305 24.7012 348.318 25.7676C348.305 26.8613 349.111 27.5449 350.164 27.5449C351.189 27.5449 351.996 26.8613 351.996 25.7676C351.996 24.7012 351.189 24.0039 350.164 24.0039Z" fill="black"/>
</g>
<path d="M375 54H0V58H375V54Z" fill="#D1D5DB" mask="url(#path-78-inside-5_523_15486)"/>
</g>
<defs>
<filter id="filter0_d_523_15486" x="228" y="564" width="120" height="135" filterUnits="userSpaceOnUse" color-interpolation-filters="sRGB">
<feFlood flood-opacity="0" result="BackgroundImageFix"/>
<feColorMatrix in="SourceAlpha" type="matrix" values="0 0 0 0 0 0 0 0 0 0 0 0 0 0 0 0 0 0 127 0" result="hardAlpha"/>
<feMorphology radius="5" operator="erode" in="SourceAlpha" result="effect1_dropShadow_523_15486"/>
<feOffset dy="10"/>
<feGaussianBlur stdDeviation="5"/>
<feColorMatrix type="matrix" values="0 0 0 0 0 0 0 0 0 0 0 0 0 0 0 0 0 0 0.04 0"/>
<feBlend mode="normal" in2="BackgroundImageFix" result="effect1_dropShadow_523_15486"/>
<feBlend mode="normal" in="SourceGraphic" in2="effect1_dropShadow_523_15486" result="shape"/>
</filter>
<clipPath id="clip0_523_15486">
<rect width="375" height="667" rx="20" fill="white"/>
</clipPath>
<clipPath id="clip1_523_15486">
<path d="M0 0H375V56H0V0Z" fill="white"/>
</clipPath>
<clipPath id="clip2_523_15486">
<rect width="56" height="27" fill="white" transform="translate(16 14.5)"/>
</clipPath>
<clipPath id="clip3_523_15486">
<path d="M32 606C32 592.745 42.7452 582 56 582H319C332.255 582 343 592.745 343 606V714C343 727.255 332.255 738 319 738H56C42.7452 738 32 727.255 32 714V606Z" fill="white"/>
</clipPath>
<clipPath id="clip4_523_15486">
<rect width="24" height="24" fill="white" transform="translate(67 178)"/>
</clipPath>
<clipPath id="clip5_523_15486">
<rect width="24" height="24" fill="white" transform="translate(154 178)"/>
</clipPath>
<clipPath id="clip6_523_15486">
<path d="M0 0H375V56H0V0Z" fill="white"/>
</clipPath>
<clipPath id="clip7_523_15486">
<rect width="56" height="27" fill="white" transform="translate(16 14.5)"/>
</clipPath>
</defs>
</svg>
