<svg width="1920" height="1080" viewBox="0 0 1920 1080" fill="none" xmlns="http://www.w3.org/2000/svg">
<g clip-path="url(#clip0_518_13379)">
<rect width="1920" height="1080" rx="40" fill="#F3F4F6"/>
<rect x="355" y="60" width="1200" height="1021" fill="#F9FAFB"/>
<path d="M473.484 99.9609V113.836H463.453V99.9609H473.484ZM466.008 102V111.75H470.883V102H466.008ZM479.297 97.8984V106.031H482.555V108.234H479.297V119.086H476.695V97.8984H479.297ZM501.07 97.8984V119.109H498.445V97.8984H501.07ZM489.656 99.4453C492.844 99.4453 495.164 102.352 495.188 106.922C495.164 111.539 492.844 114.422 489.656 114.422C486.445 114.422 484.125 111.539 484.125 106.922C484.125 102.352 486.445 99.4453 489.656 99.4453ZM489.656 101.789C487.852 101.789 486.633 103.688 486.633 106.922C486.633 110.18 487.852 112.078 489.656 112.078C491.438 112.078 492.656 110.18 492.656 106.922C492.656 103.688 491.438 101.789 489.656 101.789ZM528.281 97.8984V119.086H525.797V97.8984H528.281ZM524.062 98.3438V118.031H521.578V108.047H519.234V105.727H521.578V98.3438H524.062ZM519.773 100.406V102.516H518.273V111.656C518.941 111.598 519.574 111.527 520.172 111.445L520.336 113.344C517.008 114.023 512.648 114.094 509.953 114.094L509.648 111.938L511.57 111.914V102.516H510.07V100.406H519.773ZM513.914 111.867L515.883 111.797V102.516H513.914V111.867ZM548.25 97.8984V119.109H545.625V97.8984H548.25ZM536.836 99.4453C540.023 99.4453 542.344 102.352 542.367 106.922C542.344 111.539 540.023 114.422 536.836 114.422C533.625 114.422 531.305 111.539 531.305 106.922C531.305 102.352 533.625 99.4453 536.836 99.4453ZM536.836 101.789C535.031 101.789 533.812 103.688 533.812 106.922C533.812 110.18 535.031 112.078 536.836 112.078C538.617 112.078 539.836 110.18 539.836 106.922C539.836 103.688 538.617 101.789 536.836 101.789ZM559.359 103.922C559.359 107.391 561.398 111.047 564.82 112.477L563.391 114.539C560.883 113.461 559.055 111.234 558.094 108.539C557.109 111.445 555.258 113.883 552.773 115.055L551.273 113.016C554.625 111.469 556.711 107.531 556.711 103.922V102.141H552.047V99.9844H564V102.141H559.359V103.922ZM568.992 97.8984V119.086H566.367V97.8984H568.992Z" fill="#111827"/>
<mask id="path-4-inside-1_518_13379" fill="white">
<path d="M462 350H1458V1080H462V350Z"/>
</mask>
<path d="M462 350H1458V1080H462V350Z" fill="white"/>
<path d="M462 352H1458V348H462V352Z" fill="#111827" mask="url(#path-4-inside-1_518_13379)"/>
<g clip-path="url(#clip1_518_13379)">
<path d="M449 395H827V600H449V395Z" fill="#E8E8E8"/>
</g>
<path d="M797.223 438.801V440.4H795.061V442.211H797.223V443.828H795.061V446.008H793.109V436.674H795.061V438.801H797.223ZM786.992 437.588C789.436 437.57 791.264 439.135 791.281 441.385C791.264 443.617 789.436 445.182 786.992 445.199C784.531 445.182 782.686 443.617 782.703 441.385C782.686 439.135 784.531 437.57 786.992 437.588ZM786.992 439.223C785.621 439.223 784.602 440.084 784.619 441.385C784.602 442.703 785.621 443.529 786.992 443.547C788.346 443.529 789.365 442.703 789.365 441.385C789.365 440.084 788.346 439.223 786.992 439.223ZM789.893 446.377C793.145 446.377 795.201 447.537 795.219 449.471C795.201 451.404 793.145 452.547 789.893 452.547C786.605 452.547 784.514 451.404 784.514 449.471C784.514 447.537 786.605 446.377 789.893 446.377ZM789.893 447.941C787.713 447.941 786.465 448.469 786.465 449.471C786.465 450.473 787.713 450.982 789.893 450.982C792.072 450.982 793.285 450.473 793.285 449.471C793.285 448.469 792.072 447.941 789.893 447.941ZM800.422 438.133V441.807H803.006V438.133H804.816V448.715H798.576V438.133H800.422ZM800.422 447.133H803.006V443.354H800.422V447.133ZM811.795 436.674V452.564H809.914V444.426H808.227V451.791H806.381V436.955H808.227V442.809H809.914V436.674H811.795ZM828.125 446.219V447.818H821.832V452.582H819.898V447.818H813.641V446.219H828.125ZM826.771 438.555V440.102H821.867C822.052 441.675 824.117 443.318 827.299 443.705L826.578 445.252C823.95 444.918 821.911 443.758 820.883 442.229C819.837 443.775 817.78 444.918 815.135 445.252L814.432 443.705C817.604 443.318 819.688 441.701 819.881 440.102H814.977V438.555H819.898V436.691H821.832V438.555H826.771ZM841.432 437.816V445.059H834.014V437.816H841.432ZM835.93 439.381V443.494H839.498V439.381H835.93ZM846.002 436.674V440.77H848.217V442.404H846.002V447.186H844.051V436.674H846.002ZM841.977 446.869C841.959 448.785 843.928 450.49 847.127 450.947L846.354 452.477C843.893 452.081 841.977 450.965 841.027 449.383C840.043 450.965 838.127 452.081 835.666 452.477L834.893 450.947C838.074 450.49 840.025 448.785 840.025 446.869V446.43H841.977V446.869ZM854.668 447.01C854.668 448.328 855.274 449.717 856.637 450.578C858.017 449.655 858.658 448.214 858.676 447.01V446.359H860.592V447.01C860.574 448.68 861.559 450.227 863.65 450.895L862.701 452.318C861.154 451.8 860.126 450.789 859.572 449.523C859.062 450.771 858.122 451.888 856.689 452.459C855.178 451.914 854.229 450.842 853.736 449.576C853.165 450.798 852.154 451.791 850.678 452.318L849.711 450.895C851.768 450.174 852.752 448.557 852.77 447.01V446.359H854.668V447.01ZM862.262 436.691V445.691H860.293V436.691H862.262ZM853.596 437.535C856.039 437.535 857.867 439.082 857.867 441.314C857.867 443.529 856.039 445.076 853.596 445.076C851.135 445.076 849.307 443.529 849.307 441.314C849.307 439.082 851.135 437.535 853.596 437.535ZM853.596 439.188C852.207 439.188 851.205 440.014 851.223 441.314C851.205 442.615 852.207 443.459 853.596 443.459C854.967 443.459 855.951 442.615 855.951 441.314C855.951 440.014 854.967 439.188 853.596 439.188ZM878.293 436.674V452.564H876.43V436.674H878.293ZM874.918 437.061V451.809H873.072V444.496H870.242C869.311 446.324 867.816 447.906 865.566 449.207L864.459 447.818C867.755 445.876 869.258 443.389 869.557 440.189H865.268V438.607H871.49C871.49 440.146 871.306 441.587 870.875 442.932H873.072V437.061H874.918ZM897.717 446.834V452.582H895.766V448.398H886.889V446.834H897.717ZM897.717 436.674V446.061H895.766V442.123H892.566V445.129H885.096V437.834H892.566V440.541H895.766V436.674H897.717ZM887.047 439.416V443.582H890.633V439.416H887.047ZM912.834 441.174V442.721H901.83V437.254H903.764V441.174H912.834ZM914.469 444.566V446.113H899.949V444.566H914.469ZM912.939 450.613V452.195H901.689V447.52H903.641V450.613H912.939ZM922.467 437.5V439.662H926.018V437.5H927.951V440.4H931.15V436.674H933.102V445.357H931.15V442.018H927.951V444.865H920.516V437.5H922.467ZM922.467 443.283H926.018V441.174H922.467V443.283ZM924.576 446.061V447.678H931.15V446.061H933.102V452.336H922.625V446.061H924.576ZM924.576 450.754H931.15V449.189H924.576V450.754Z" fill="#111827"/>
<path d="M947.096 436.48V452.793H945.004V436.48H947.096Z" fill="#111827"/>
<path d="M969.621 445.365V446.432H958.451V445.365H963.387V444.176C961.09 444.046 959.654 443.157 959.654 441.715C959.654 440.197 961.363 439.268 964.029 439.254C966.682 439.268 968.404 440.197 968.404 441.715C968.404 443.157 966.955 444.046 964.672 444.176V445.365H969.621ZM968.363 449.85V450.902H959.859V447.348H961.172V449.85H968.363ZM964.029 440.307C962.156 440.307 960.98 440.84 960.994 441.715C960.98 442.645 962.156 443.15 964.029 443.15C965.902 443.15 967.064 442.645 967.064 441.715C967.064 440.84 965.902 440.307 964.029 440.307ZM980.094 438.912V443.697H982.062V444.791H980.094V451.189H978.809V438.912H980.094ZM976.635 440.02V444.518H972.342V447.17C974.447 447.163 976.006 447.088 977.797 446.76L977.92 447.812C976.006 448.168 974.352 448.25 972.055 448.264H971.057V443.465H975.35V441.072H971.029V440.02H976.635ZM992.809 438.926V447.826H991.51V438.926H992.809ZM993.178 449.85V450.902H984.797V446.924H986.109V449.85H993.178ZM986.164 439.746C988.01 439.746 989.418 441.004 989.418 442.781C989.418 444.586 988.01 445.83 986.164 445.83C984.318 445.83 982.896 444.586 982.896 442.781C982.896 441.004 984.318 439.746 986.164 439.746ZM986.164 440.881C985.016 440.881 984.168 441.66 984.168 442.781C984.168 443.93 985.016 444.695 986.164 444.695C987.285 444.695 988.146 443.93 988.146 442.781C988.146 441.66 987.285 440.881 986.164 440.881Z" fill="#374151"/>
<path d="M786.635 470.102V480H785.117V471.605H785.062L782.697 473.15V471.715L785.158 470.102H786.635ZM798.912 468.926V476.104H797.613V475.516H795.221V474.695H797.613V468.926H798.912ZM788.699 473.438C791.064 473.451 794.072 473.424 796.711 473.137L796.779 473.971C795.624 474.128 794.428 474.224 793.252 474.285V476.131H791.967V474.34C790.859 474.367 789.807 474.374 788.85 474.367L788.699 473.438ZM798.912 476.514V479.152H791.857V480.096H799.281V481.039H790.586V478.291H797.627V477.416H790.531V476.514H798.912ZM792.678 469.131C794.496 469.131 795.727 469.855 795.74 470.977C795.727 472.125 794.496 472.809 792.678 472.809C790.818 472.809 789.602 472.125 789.615 470.977C789.602 469.855 790.818 469.131 792.678 469.131ZM792.678 470.006C791.543 470.006 790.832 470.389 790.832 470.977C790.832 471.564 791.543 471.934 792.678 471.934C793.785 471.934 794.51 471.564 794.51 470.977C794.51 470.389 793.785 470.006 792.678 470.006ZM805.01 480L809.426 471.469V471.387H804.326V470.102H810.984V471.441L806.582 480H805.01ZM815.551 469.322C817.396 469.336 818.75 470.471 818.764 472.07C818.75 473.684 817.396 474.805 815.551 474.805C813.691 474.805 812.324 473.684 812.324 472.07C812.324 470.471 813.691 469.336 815.551 469.322ZM815.551 470.416C814.416 470.402 813.582 471.072 813.596 472.07C813.582 473.082 814.416 473.752 815.551 473.752C816.672 473.752 817.506 473.082 817.506 472.07C817.506 471.072 816.672 470.402 815.551 470.416ZM822.236 468.912V475.146H820.938V468.912H822.236ZM822.236 475.707V478.797H815.482V479.973H822.646V481.012H814.225V477.826H820.951V476.746H814.184V475.707H822.236Z" fill="#374151"/>
<path d="M829.846 476.637C829.312 476.637 828.861 476.199 828.875 475.666C828.861 475.133 829.312 474.695 829.846 474.695C830.365 474.695 830.816 475.133 830.816 475.666C830.816 476.199 830.365 476.637 829.846 476.637Z" fill="#374151"/>
<path d="M840.635 470.102V480H839.117V471.605H839.062L836.697 473.15V471.715L839.158 470.102H840.635ZM843.492 480L847.908 471.469V471.387H842.809V470.102H849.467V471.441L845.064 480H843.492ZM851.49 478.729C850.957 478.729 850.506 478.291 850.52 477.758C850.506 477.225 850.957 476.787 851.49 476.787C852.01 476.787 852.461 477.225 852.461 477.758C852.461 478.291 852.01 478.729 851.49 478.729ZM851.49 473.328C850.957 473.328 850.506 472.891 850.52 472.357C850.506 471.824 850.957 471.387 851.49 471.387C852.01 471.387 852.461 471.824 852.461 472.357C852.461 472.891 852.01 473.328 851.49 473.328ZM857.725 480.137C855.674 480.137 854.211 479.029 854.156 477.416H855.688C855.742 478.291 856.604 478.838 857.711 478.838C858.9 478.838 859.775 478.182 859.775 477.225C859.775 476.254 858.955 475.543 857.547 475.543H856.699V474.312H857.547C858.668 474.312 859.461 473.684 859.461 472.74C859.461 471.838 858.791 471.223 857.738 471.223C856.74 471.223 855.865 471.77 855.824 472.672H854.375C854.416 471.059 855.906 469.965 857.752 469.965C859.693 469.965 860.924 471.195 860.91 472.658C860.924 473.779 860.227 474.6 859.16 474.859V474.928C860.514 475.119 861.293 476.021 861.293 477.279C861.293 478.934 859.775 480.137 857.725 480.137ZM866.393 480.137C864.096 480.137 862.756 478.291 862.756 475.051C862.756 471.838 864.123 469.965 866.393 469.965C868.662 469.965 870.029 471.838 870.029 475.051C870.029 478.291 868.676 480.137 866.393 480.137ZM866.393 478.838C867.732 478.838 868.525 477.525 868.525 475.051C868.525 472.59 867.719 471.236 866.393 471.236C865.066 471.236 864.26 472.59 864.26 475.051C864.26 477.525 865.053 478.838 866.393 478.838Z" fill="#374151"/>
<circle cx="891" cy="472.334" r="2.66667" fill="#374151"/>
<path d="M886.558 478.547C886.999 476.685 888.847 475.667 890.761 475.667H891.238C893.152 475.667 895 476.685 895.441 478.547C895.526 478.908 895.594 479.285 895.632 479.668C895.669 480.034 895.368 480.334 895 480.334H887C886.631 480.334 886.331 480.034 886.367 479.668C886.405 479.285 886.473 478.908 886.558 478.547Z" fill="#374151"/>
<path d="M903.875 480V478.906L907.307 475.447C908.387 474.312 908.934 473.684 908.934 472.822C908.934 471.852 908.141 471.223 907.102 471.223C906.008 471.223 905.297 471.92 905.297 472.973H903.875C903.861 471.168 905.242 469.965 907.129 469.965C909.043 469.965 910.355 471.168 910.369 472.781C910.355 473.889 909.836 474.764 907.977 476.596L905.967 478.633V478.715H910.533V480H903.875ZM915.646 480.137C913.35 480.137 912.01 478.291 912.01 475.051C912.01 471.838 913.377 469.965 915.646 469.965C917.916 469.965 919.283 471.838 919.283 475.051C919.283 478.291 917.93 480.137 915.646 480.137ZM915.646 478.838C916.986 478.838 917.779 477.525 917.779 475.051C917.779 472.59 916.973 471.236 915.646 471.236C914.32 471.236 913.514 472.59 913.514 475.051C913.514 477.525 914.307 478.838 915.646 478.838ZM924.629 469.637L921.443 481.49H920.145L923.33 469.637H924.629ZM925.695 480V478.906L929.127 475.447C930.207 474.312 930.754 473.684 930.754 472.822C930.754 471.852 929.961 471.223 928.922 471.223C927.828 471.223 927.117 471.92 927.117 472.973H925.695C925.682 471.168 927.062 469.965 928.949 469.965C930.863 469.965 932.176 471.168 932.189 472.781C932.176 473.889 931.656 474.764 929.797 476.596L927.787 478.633V478.715H932.354V480H925.695ZM937.467 480.137C935.17 480.137 933.83 478.291 933.83 475.051C933.83 471.838 935.197 469.965 937.467 469.965C939.736 469.965 941.104 471.838 941.104 475.051C941.104 478.291 939.75 480.137 937.467 480.137ZM937.467 478.838C938.807 478.838 939.6 477.525 939.6 475.051C939.6 472.59 938.793 471.236 937.467 471.236C936.141 471.236 935.334 472.59 935.334 475.051C935.334 477.525 936.127 478.838 937.467 478.838Z" fill="#374151"/>
<path d="M486 611L1434 611" stroke="#E5E7EB" stroke-width="2" stroke-dasharray="4 4"/>
<g clip-path="url(#clip2_518_13379)">
<path d="M449 599H827V804H449V599Z" fill="#E8E8E8"/>
</g>
<path d="M795.061 640.674V645.139H797.293V646.756H795.061V652.17H793.109V640.674H795.061ZM790.314 641.992V643.557H785.129V647.881C788.117 647.89 789.778 647.784 791.668 647.389L791.879 648.971C789.805 649.375 787.941 649.48 784.479 649.48H783.195V641.992H790.314ZM795.693 654.666V656.248H784.883V650.957H786.834V654.666H795.693ZM800.545 641.693V644.031H803.164V641.693H804.975V649.27H798.699V641.693H800.545ZM800.545 647.723H803.164V645.543H800.545V647.723ZM811.672 640.691V650.236H809.809V646.246H808.227V650.148H806.398V640.99H808.227V644.646H809.809V640.691H811.672ZM811.672 651.045V656.564H809.721V652.627H800.791V651.045H811.672ZM826.842 640.674V648.865H824.908V640.674H826.842ZM826.877 649.533V653.629H818.281V654.912H827.352V656.424H816.365V652.205H824.926V651.027H816.33V649.533H826.877ZM823.01 641.465V643.047H819.688C819.767 644.805 821.111 646.466 823.572 647.143L822.623 648.654C820.769 648.118 819.441 646.984 818.721 645.543C818.009 647.134 816.62 648.399 814.66 648.988L813.764 647.441C816.225 646.712 817.596 644.928 817.701 643.047H814.273V641.465H823.01ZM846.617 641.219V642.801H844.438V645.719H846.529V647.248H841.678V648.83H847.953V650.395H833.469V648.83H839.709V647.248H834.857V645.719H836.949V642.801H834.77V641.219H846.617ZM846.178 651.643V656.564H844.227V653.207H835.068V651.643H846.178ZM838.9 645.719H842.469V642.801H838.9V645.719ZM857.111 641.922V643.469H851.627V645.244H856.795V646.791H851.627V648.637C854.404 648.628 856.092 648.54 858.025 648.215L858.236 649.744C856.074 650.148 854.193 650.219 850.941 650.219H849.676V641.922H857.111ZM861.559 640.674V645.455H863.773V647.072H861.559V652.434H859.607V640.674H861.559ZM862.191 654.666V656.248H851.381V651.361H853.332V654.666H862.191ZM881.615 646.422V647.969H870.734V641.553H881.439V643.117H872.738V646.422H881.615ZM883.355 649.727V651.309H877.027V656.529H875.094V651.309H868.836V649.727H883.355ZM898.912 649.92V651.467H892.584V656.564H890.65V651.467H884.393V649.92H898.912ZM888.084 641.307V643.258H895.186V641.307H897.154V648.268H886.15V641.307H888.084ZM888.084 646.686H895.186V644.805H888.084V646.686ZM906.084 642.326V648.162H902.322V651.15C903.966 651.133 905.521 651.062 907.314 650.729L907.473 652.328C905.346 652.715 903.553 652.768 901.549 652.768H900.441V646.615H904.203V643.891H900.424V642.326H906.084ZM913.643 640.674V656.564H911.779V640.674H913.643ZM910.373 641.008V655.756H908.527V647.793H906.787V646.193H908.527V641.008H910.373ZM921.535 644.488C921.518 647.406 923.047 650.324 925.631 651.432L924.471 652.996C922.643 652.152 921.298 650.465 920.568 648.391C919.839 650.632 918.477 652.46 916.543 653.365L915.348 651.73C918.002 650.588 919.549 647.547 919.549 644.488V641.957H921.535V644.488ZM928.742 640.674V656.582H926.773V640.674H928.742ZM944.352 640.674V656.564H942.383V640.674H944.352ZM940.484 642.221V643.82H938.955V650.939C939.72 650.887 940.467 650.816 941.188 650.729L941.293 652.188C937.883 652.732 934.156 652.803 931.238 652.803L931.045 651.203L933.014 651.186V643.82H931.467V642.221H940.484ZM934.895 651.133C935.598 651.124 936.318 651.098 937.039 651.062V643.82H934.895V651.133Z" fill="#111827"/>
<path d="M959.096 640.48V656.793H957.004V640.48H959.096Z" fill="#111827"/>
<path d="M976.029 651.375C978.723 651.375 980.254 652.031 980.254 653.275C980.254 654.506 978.723 655.148 976.029 655.135C973.309 655.148 971.777 654.506 971.777 653.275C971.777 652.031 973.309 651.375 976.029 651.375ZM976.029 652.332C974.115 652.332 973.104 652.66 973.104 653.275C973.104 653.877 974.115 654.191 976.029 654.178C977.93 654.191 978.941 653.877 978.941 653.275C978.941 652.66 977.93 652.332 976.029 652.332ZM980.992 643.896V644.895H971.025V643.896H975.387V642.762H976.686V643.896H980.992ZM976.029 645.346C978.613 645.346 980.049 645.934 980.049 647.109C980.049 648.142 978.853 648.736 976.686 648.832V649.68H981.621V650.705H970.451V649.68H975.387V648.832C973.22 648.736 971.996 648.148 972.01 647.109C971.996 645.934 973.459 645.346 976.029 645.346ZM976.029 646.234C974.32 646.234 973.391 646.535 973.391 647.109C973.391 647.643 974.32 647.93 976.029 647.943C977.752 647.93 978.668 647.643 978.668 647.109C978.668 646.535 977.752 646.234 976.029 646.234ZM993.064 642.912V655.162H991.82V648.832H990.234V654.533H989.045V643.158H990.234V647.766H991.82V642.912H993.064ZM987.555 644.389V645.441H984.26V651.115C985.764 651.102 986.898 651.033 988.211 650.787L988.307 651.854C986.83 652.154 985.572 652.209 983.781 652.223H982.961V644.389H987.555ZM1004.81 642.912V649.488H1003.51V642.912H1004.81ZM998.068 650.076V651.457H1003.52V650.076H1004.81V655.012H996.797V650.076H998.068ZM998.068 653.945H1003.52V652.482H998.068V653.945ZM998.164 643.473C1000.04 643.473 1001.42 644.635 1001.42 646.316C1001.42 647.998 1000.04 649.16 998.164 649.146C996.291 649.16 994.896 647.998 994.896 646.316C994.896 644.635 996.291 643.473 998.164 643.473ZM998.164 644.566C997.002 644.553 996.168 645.277 996.168 646.316C996.168 647.369 997.002 648.08 998.164 648.08C999.312 648.08 1000.15 647.369 1000.15 646.316C1000.15 645.277 999.312 644.553 998.164 644.566ZM1016.5 643.678V644.758C1016.5 645.92 1016.5 647.178 1016.16 648.928H1017.92V649.994H1012.96V655.176H1011.64V649.994H1006.75V648.928H1014.84C1015.21 647.185 1015.21 645.899 1015.21 644.758V644.744H1008.12V643.678H1016.5Z" fill="#374151"/>
<path d="M786.635 674.102V684H785.117V675.605H785.062L782.697 677.15V675.715L785.158 674.102H786.635ZM798.912 672.926V680.104H797.613V679.516H795.221V678.695H797.613V672.926H798.912ZM788.699 677.438C791.064 677.451 794.072 677.424 796.711 677.137L796.779 677.971C795.624 678.128 794.428 678.224 793.252 678.285V680.131H791.967V678.34C790.859 678.367 789.807 678.374 788.85 678.367L788.699 677.438ZM798.912 680.514V683.152H791.857V684.096H799.281V685.039H790.586V682.291H797.627V681.416H790.531V680.514H798.912ZM792.678 673.131C794.496 673.131 795.727 673.855 795.74 674.977C795.727 676.125 794.496 676.809 792.678 676.809C790.818 676.809 789.602 676.125 789.615 674.977C789.602 673.855 790.818 673.131 792.678 673.131ZM792.678 674.006C791.543 674.006 790.832 674.389 790.832 674.977C790.832 675.564 791.543 675.934 792.678 675.934C793.785 675.934 794.51 675.564 794.51 674.977C794.51 674.389 793.785 674.006 792.678 674.006ZM805.01 684L809.426 675.469V675.387H804.326V674.102H810.984V675.441L806.582 684H805.01ZM815.551 673.322C817.396 673.336 818.75 674.471 818.764 676.07C818.75 677.684 817.396 678.805 815.551 678.805C813.691 678.805 812.324 677.684 812.324 676.07C812.324 674.471 813.691 673.336 815.551 673.322ZM815.551 674.416C814.416 674.402 813.582 675.072 813.596 676.07C813.582 677.082 814.416 677.752 815.551 677.752C816.672 677.752 817.506 677.082 817.506 676.07C817.506 675.072 816.672 674.402 815.551 674.416ZM822.236 672.912V679.146H820.938V672.912H822.236ZM822.236 679.707V682.797H815.482V683.973H822.646V685.012H814.225V681.826H820.951V680.746H814.184V679.707H822.236Z" fill="#374151"/>
<path d="M829.846 680.637C829.312 680.637 828.861 680.199 828.875 679.666C828.861 679.133 829.312 678.695 829.846 678.695C830.365 678.695 830.816 679.133 830.816 679.666C830.816 680.199 830.365 680.637 829.846 680.637Z" fill="#374151"/>
<path d="M840.635 674.102V684H839.117V675.605H839.062L836.697 677.15V675.715L839.158 674.102H840.635ZM843.492 684L847.908 675.469V675.387H842.809V674.102H849.467V675.441L845.064 684H843.492ZM851.49 682.729C850.957 682.729 850.506 682.291 850.52 681.758C850.506 681.225 850.957 680.787 851.49 680.787C852.01 680.787 852.461 681.225 852.461 681.758C852.461 682.291 852.01 682.729 851.49 682.729ZM851.49 677.328C850.957 677.328 850.506 676.891 850.52 676.357C850.506 675.824 850.957 675.387 851.49 675.387C852.01 675.387 852.461 675.824 852.461 676.357C852.461 676.891 852.01 677.328 851.49 677.328ZM857.725 684.137C855.674 684.137 854.211 683.029 854.156 681.416H855.688C855.742 682.291 856.604 682.838 857.711 682.838C858.9 682.838 859.775 682.182 859.775 681.225C859.775 680.254 858.955 679.543 857.547 679.543H856.699V678.312H857.547C858.668 678.312 859.461 677.684 859.461 676.74C859.461 675.838 858.791 675.223 857.738 675.223C856.74 675.223 855.865 675.77 855.824 676.672H854.375C854.416 675.059 855.906 673.965 857.752 673.965C859.693 673.965 860.924 675.195 860.91 676.658C860.924 677.779 860.227 678.6 859.16 678.859V678.928C860.514 679.119 861.293 680.021 861.293 681.279C861.293 682.934 859.775 684.137 857.725 684.137ZM866.393 684.137C864.096 684.137 862.756 682.291 862.756 679.051C862.756 675.838 864.123 673.965 866.393 673.965C868.662 673.965 870.029 675.838 870.029 679.051C870.029 682.291 868.676 684.137 866.393 684.137ZM866.393 682.838C867.732 682.838 868.525 681.525 868.525 679.051C868.525 676.59 867.719 675.236 866.393 675.236C865.066 675.236 864.26 676.59 864.26 679.051C864.26 681.525 865.053 682.838 866.393 682.838Z" fill="#374151"/>
<circle cx="891" cy="676.334" r="2.66667" fill="#374151"/>
<path d="M886.558 682.547C886.999 680.685 888.847 679.667 890.761 679.667H891.238C893.152 679.667 895 680.685 895.441 682.547C895.526 682.908 895.594 683.285 895.632 683.668C895.669 684.034 895.368 684.334 895 684.334H887C886.631 684.334 886.331 684.034 886.367 683.668C886.405 683.285 886.473 682.908 886.558 682.547Z" fill="#374151"/>
<path d="M903.875 684V682.906L907.307 679.447C908.387 678.312 908.934 677.684 908.934 676.822C908.934 675.852 908.141 675.223 907.102 675.223C906.008 675.223 905.297 675.92 905.297 676.973H903.875C903.861 675.168 905.242 673.965 907.129 673.965C909.043 673.965 910.355 675.168 910.369 676.781C910.355 677.889 909.836 678.764 907.977 680.596L905.967 682.633V682.715H910.533V684H903.875ZM915.646 684.137C913.35 684.137 912.01 682.291 912.01 679.051C912.01 675.838 913.377 673.965 915.646 673.965C917.916 673.965 919.283 675.838 919.283 679.051C919.283 682.291 917.93 684.137 915.646 684.137ZM915.646 682.838C916.986 682.838 917.779 681.525 917.779 679.051C917.779 676.59 916.973 675.236 915.646 675.236C914.32 675.236 913.514 676.59 913.514 679.051C913.514 681.525 914.307 682.838 915.646 682.838ZM924.629 673.637L921.443 685.49H920.145L923.33 673.637H924.629ZM925.695 684V682.906L929.127 679.447C930.207 678.312 930.754 677.684 930.754 676.822C930.754 675.852 929.961 675.223 928.922 675.223C927.828 675.223 927.117 675.92 927.117 676.973H925.695C925.682 675.168 927.062 673.965 928.949 673.965C930.863 673.965 932.176 675.168 932.189 676.781C932.176 677.889 931.656 678.764 929.797 680.596L927.787 682.633V682.715H932.354V684H925.695ZM937.467 684.137C935.17 684.137 933.83 682.291 933.83 679.051C933.83 675.838 935.197 673.965 937.467 673.965C939.736 673.965 941.104 675.838 941.104 679.051C941.104 682.291 939.75 684.137 937.467 684.137ZM937.467 682.838C938.807 682.838 939.6 681.525 939.6 679.051C939.6 676.59 938.793 675.236 937.467 675.236C936.141 675.236 935.334 676.59 935.334 679.051C935.334 681.525 936.127 682.838 937.467 682.838Z" fill="#374151"/>
<path d="M486 815L1434 815" stroke="#E5E7EB" stroke-width="2" stroke-dasharray="4 4"/>
<path d="M501.328 384.809V386.408H498.973V394.529H497.021V378.674H498.973V384.809H501.328ZM489.023 380.221V388.992C491.142 388.957 493.4 388.772 495.791 388.271L496.002 389.924C493.33 390.451 490.781 390.609 488.426 390.609H487.09V380.221H489.023ZM507.234 379.781C509.748 379.764 511.594 381.363 511.611 383.613C511.594 385.881 509.748 387.463 507.234 387.463C504.738 387.463 502.875 385.881 502.875 383.613C502.875 381.363 504.738 379.764 507.234 379.781ZM507.234 381.469C505.846 381.469 504.809 382.295 504.809 383.613C504.809 384.949 505.846 385.758 507.234 385.758C508.641 385.758 509.695 384.949 509.695 383.613C509.695 382.295 508.641 381.469 507.234 381.469ZM515.32 378.674V394.582H513.369V378.674H515.32ZM502.154 389.66C505.02 389.66 508.992 389.625 512.42 389.133L512.578 390.557C509.01 391.242 505.195 391.26 502.4 391.26L502.154 389.66ZM536.432 391.031V392.631H521.912V391.031H528.17V387.568H523.512V379.904H534.762V387.568H530.104V391.031H536.432ZM525.428 381.469V386.039H532.828V381.469H525.428ZM550.705 378.691V387.691H548.736V378.691H550.705ZM550.705 388.465V394.371H540.158V388.465H550.705ZM542.092 390.012V392.789H548.789V390.012H542.092ZM542.039 379.447C544.482 379.447 546.311 380.994 546.311 383.244C546.311 385.424 544.482 387.006 542.039 387.006C539.578 387.006 537.75 385.424 537.75 383.244C537.75 380.994 539.578 379.447 542.039 379.447ZM542.039 381.1C540.65 381.1 539.648 381.926 539.666 383.244C539.648 384.527 540.65 385.354 542.039 385.354C543.41 385.354 544.395 384.527 544.395 383.244C544.395 381.926 543.41 381.1 542.039 381.1Z" fill="#9CA3AF"/>
<path d="M580.328 384.809V386.408H577.973V394.529H576.021V378.674H577.973V384.809H580.328ZM568.023 380.221V388.992C570.142 388.957 572.4 388.772 574.791 388.271L575.002 389.924C572.33 390.451 569.781 390.609 567.426 390.609H566.09V380.221H568.023ZM586.234 379.781C588.748 379.764 590.594 381.363 590.611 383.613C590.594 385.881 588.748 387.463 586.234 387.463C583.738 387.463 581.875 385.881 581.875 383.613C581.875 381.363 583.738 379.764 586.234 379.781ZM586.234 381.469C584.846 381.469 583.809 382.295 583.809 383.613C583.809 384.949 584.846 385.758 586.234 385.758C587.641 385.758 588.695 384.949 588.695 383.613C588.695 382.295 587.641 381.469 586.234 381.469ZM594.32 378.674V394.582H592.369V378.674H594.32ZM581.154 389.66C584.02 389.66 587.992 389.625 591.42 389.133L591.578 390.557C588.01 391.242 584.195 391.26 581.4 391.26L581.154 389.66ZM614.148 378.674V394.582H612.215V378.674H614.148ZM609.262 380.062V386.021H603.795V389.221C606.3 389.203 608.462 389.08 610.932 388.658L611.107 390.258C608.4 390.732 606.027 390.82 603.18 390.82H601.791V384.475H607.275V381.645H601.773V380.062H609.262ZM630.971 387.762V389.344H627.561V394.564H625.609V389.344H621.848V394.564H619.844V389.344H616.451V387.762H630.971ZM620.143 379.289V381.188H627.244V379.289H629.213V386.145H618.209V379.289H620.143ZM620.143 384.58H627.244V382.717H620.143V384.58Z" fill="#9CA3AF"/>
<path d="M658.168 378.674V394.564H656.287V386.531H654.529V393.756H652.701V378.973H654.529V384.932H656.287V378.674H658.168ZM647.182 380.502V388.887C648.553 388.86 650.056 388.746 651.717 388.412L651.91 390.117C649.766 390.504 647.955 390.609 646.268 390.609H645.213V380.502H647.182ZM672.529 378.674V384.879H674.885V386.514H672.529V394.529H670.578V378.674H672.529ZM668.328 380.326C668.328 385.002 666.395 389.098 661.104 391.699L659.996 390.188C663.863 388.263 665.955 385.556 666.359 381.943H660.857V380.326H668.328ZM687.98 380.045V387.551H680.457V380.045H687.98ZM682.373 381.609V386.004H686.064V381.609H682.373ZM692.445 378.674V383.332H694.66V384.967H692.445V390.275H690.494V378.674H692.445ZM693.078 392.666V394.248H682.268V389.15H684.219V392.666H693.078ZM709.971 386.584V388.148H695.469V386.584H709.971ZM708.354 383.561V385.143H697.244V379.307H708.213V380.854H699.195V383.561H708.354ZM708.459 392.648V394.23H697.262V389.537H699.178V392.648H708.459ZM729.816 391.031V392.631H715.297V391.031H721.555V387.568H716.896V379.904H728.146V387.568H723.488V391.031H729.816ZM718.812 381.469V386.039H726.213V381.469H718.812ZM744.09 378.691V387.691H742.121V378.691H744.09ZM744.09 388.465V394.371H733.543V388.465H744.09ZM735.477 390.012V392.789H742.174V390.012H735.477ZM735.424 379.447C737.867 379.447 739.695 380.994 739.695 383.244C739.695 385.424 737.867 387.006 735.424 387.006C732.963 387.006 731.135 385.424 731.135 383.244C731.135 380.994 732.963 379.447 735.424 379.447ZM735.424 381.1C734.035 381.1 733.033 381.926 733.051 383.244C733.033 384.527 734.035 385.354 735.424 385.354C736.795 385.354 737.779 384.527 737.779 383.244C737.779 381.926 736.795 381.1 735.424 381.1Z" fill="#111827"/>
<path d="M644 406C644 405.448 644.448 405 645 405H745C745.552 405 746 405.448 746 406C746 406.552 745.552 407 745 407H645C644.448 407 644 406.552 644 406Z" fill="#111827"/>
<g clip-path="url(#clip3_518_13379)">
<path d="M463 172C463 159.297 473.297 149 486 149H1434C1446.7 149 1457 159.297 1457 172V296C1457 308.703 1446.7 319 1434 319H486C473.297 319 463 308.703 463 296V172Z" fill="white" stroke="#E5E7EB" stroke-width="2"/>
<path d="M566.297 232.281V240.062H564.562V236.484H562.156V235.062H564.562V232.281H566.297ZM558.625 240.672V242.094H564.578V240.672H566.297V246.219H556.891V240.672H558.625ZM558.625 244.812H564.578V243.453H558.625V244.812ZM561.375 232.828V236.906H556.766V238.375C558.961 238.359 560.578 238.289 562.453 237.984L562.578 239.391C560.5 239.719 558.703 239.781 556.156 239.766H555.047V235.609H559.672V234.219H555.016V232.828H561.375ZM572.953 232.828C575.094 232.812 576.562 233.859 576.562 235.469C576.562 237.062 575.094 238.125 572.953 238.125C570.812 238.125 569.328 237.062 569.344 235.469C569.328 233.859 570.812 232.812 572.953 232.828ZM572.953 234.125C571.781 234.125 570.984 234.625 571 235.469C570.984 236.297 571.781 236.828 572.953 236.828C574.141 236.828 574.922 236.297 574.938 235.469C574.922 234.625 574.141 234.125 572.953 234.125ZM580.047 232.266V242.984H578.312V232.266H580.047ZM568.312 238.984C570.938 238.969 574.422 238.953 577.422 238.531L577.531 239.781C576.391 239.977 575.203 240.109 574.031 240.188V242.531H572.297V240.281C570.953 240.344 569.672 240.359 568.547 240.375L568.312 238.984ZM580.391 244.703V246.109H570.172V242.031H571.891V244.703H580.391ZM595.031 243.188V244.625H582.125V243.188H595.031ZM589.469 235.156C589.469 237.234 591.578 239.109 594.516 239.562L593.828 240.938C591.438 240.516 589.484 239.242 588.578 237.469C587.664 239.266 585.727 240.578 583.375 241.016L582.688 239.609C585.547 239.172 587.641 237.234 587.641 235.156V234.938H583.203V233.547H593.922V234.938H589.469V235.156ZM602.375 232.406C605.594 232.406 607.453 233.266 607.469 234.828C607.453 236.266 605.914 237.094 603.219 237.234V238.141H608.828V239.531H595.953V238.141H601.5V237.234C598.82 237.086 597.281 236.258 597.281 234.828C597.281 233.266 599.156 232.406 602.375 232.406ZM602.375 233.703C600.219 233.703 599.094 234.094 599.109 234.828C599.094 235.609 600.219 235.969 602.375 235.984C604.562 235.969 605.672 235.609 605.672 234.828C605.672 234.094 604.562 233.703 602.375 233.703ZM607.219 240.438V243.891H599.188V244.938H607.609V246.266H597.484V242.656H605.516V241.75H597.469V240.438H607.219Z" fill="#1F2937"/>
<path d="M558.99 266.113C558.99 267.686 560.166 269.189 562.053 269.791L561.383 270.803C559.975 270.338 558.908 269.367 558.361 268.137C557.808 269.47 556.721 270.522 555.258 271.035L554.588 270.037C556.488 269.381 557.664 267.781 557.678 266.113V265.771H554.93V264.719H561.684V265.771H558.99V266.113ZM564.609 263.912V271.309H563.311V263.912H564.609ZM564.609 271.924V276.162H563.311V272.977H556.311V271.924H564.609ZM569.941 264.473C571.555 264.459 572.799 265.396 573.072 266.77H575.465V263.912H576.764V270.488H575.465V267.836H573.086C572.819 269.244 571.568 270.188 569.941 270.188C568.068 270.188 566.729 269.012 566.729 267.316C566.729 265.648 568.068 264.459 569.941 264.473ZM569.941 265.553C568.779 265.553 567.973 266.264 567.973 267.316C567.973 268.369 568.779 269.094 569.941 269.094C571.076 269.094 571.883 268.369 571.883 267.316C571.883 266.264 571.076 265.553 569.941 265.553ZM570.064 271.076V272.498H575.465V271.076H576.764V276.012H568.779V271.076H570.064ZM570.064 274.945H575.465V273.523H570.064V274.945ZM582.861 264.637L579.676 276.49H578.377L581.562 264.637H582.861ZM594.715 273.537V274.604H583.504V273.537H588.412V270.625H589.697V273.537H594.715ZM589.725 265.621C589.725 267.562 591.857 269.381 594.223 269.777L593.662 270.844C591.68 270.447 589.854 269.224 589.041 267.535C588.234 269.217 586.43 270.461 584.461 270.844L583.887 269.777C586.238 269.381 588.357 267.562 588.357 265.621V264.691H589.725V265.621ZM606.801 269.996V271.062H595.604V269.996H600.539V268.205H601.824V269.996H606.801ZM601.838 264.623C601.838 266.182 603.752 267.549 606.117 267.85L605.611 268.875C603.663 268.567 601.947 267.617 601.182 266.264C600.396 267.617 598.68 268.567 596.725 268.875L596.246 267.85C598.598 267.549 600.512 266.168 600.525 264.623V264.104H601.838V264.623ZM605.406 272.143V276.162H604.094V273.168H596.848V272.143H605.406Z" fill="#1F2937"/>
<path d="M624.459 263.953V276.107H623.393V263.953H624.459ZM614.561 272.867C615.6 272.86 616.789 272.854 618.02 272.812V271.486C616.563 271.329 615.613 270.502 615.627 269.285C615.613 267.918 616.789 267.029 618.539 267.029C620.289 267.029 621.479 267.918 621.479 269.285C621.479 270.488 620.535 271.315 619.1 271.473V272.771C620.275 272.724 621.465 272.635 622.586 272.484L622.668 273.305C619.961 273.742 616.98 273.783 614.725 273.783L614.561 272.867ZM622.271 265.457V266.332H614.82V265.457H618.02V263.967H619.1V265.457H622.271ZM618.539 267.863C617.418 267.863 616.625 268.438 616.625 269.285C616.625 270.133 617.418 270.68 618.539 270.666C619.674 270.68 620.453 270.133 620.453 269.285C620.453 268.438 619.674 267.863 618.539 267.863ZM630.666 267.221C630.666 269.367 632.088 271.568 633.811 272.416L633.154 273.277C631.814 272.573 630.693 271.138 630.16 269.449C629.613 271.247 628.465 272.778 627.098 273.51L626.414 272.648C628.191 271.773 629.6 269.436 629.613 267.221V265.006H630.666V267.221ZM635.998 263.953V268.889H638.035V269.818H635.998V276.107H634.932V263.953H635.998ZM648.713 263.967V273.195H647.633V271.938H645.117V271.158H647.633V263.967H648.713ZM649.014 274.945V275.848H640.373V272.293H641.453V274.945H649.014ZM638.623 269.6C640.893 269.586 643.928 269.572 646.539 269.244L646.607 270.023C645.521 270.194 644.386 270.304 643.271 270.365V272.771H642.191V270.42C640.961 270.475 639.792 270.481 638.773 270.475L638.623 269.6ZM642.615 264.459C644.393 264.459 645.609 265.307 645.623 266.578C645.609 267.877 644.393 268.684 642.615 268.684C640.824 268.684 639.607 267.877 639.607 266.578C639.607 265.307 640.824 264.459 642.615 264.459ZM642.615 265.279C641.426 265.266 640.619 265.799 640.633 266.578C640.619 267.371 641.426 267.891 642.615 267.891C643.764 267.891 644.584 267.371 644.598 266.578C644.584 265.799 643.764 265.266 642.615 265.279Z" fill="#374151"/>
<path d="M564.596 287.912V300.189H563.297V287.912H564.596ZM558.047 288.828C559.865 288.828 561.205 290.496 561.205 293.121C561.205 295.76 559.865 297.428 558.047 297.428C556.201 297.428 554.875 295.76 554.875 293.121C554.875 290.496 556.201 288.828 558.047 288.828ZM558.047 289.99C556.912 289.99 556.133 291.193 556.133 293.121C556.133 295.062 556.912 296.266 558.047 296.266C559.168 296.266 559.947 295.062 559.947 293.121C559.947 291.193 559.168 289.99 558.047 289.99ZM571.719 289.293V292.479H573.359V288.145H574.604V299.561H573.359V293.545H571.719V296.936H566.961V289.293H571.719ZM568.191 290.318V295.896H570.502V290.318H568.191ZM577.092 287.912V300.162H575.848V287.912H577.092ZM582.123 288.322C583.969 288.336 585.322 289.471 585.336 291.07C585.322 292.684 583.969 293.805 582.123 293.805C580.264 293.805 578.896 292.684 578.896 291.07C578.896 289.471 580.264 288.336 582.123 288.322ZM582.123 289.416C580.988 289.402 580.154 290.072 580.168 291.07C580.154 292.082 580.988 292.752 582.123 292.752C583.244 292.752 584.078 292.082 584.078 291.07C584.078 290.072 583.244 289.402 582.123 289.416ZM588.809 287.912V294.146H587.51V287.912H588.809ZM588.809 294.707V297.797H582.055V298.973H589.219V300.012H580.797V296.826H587.523V295.746H580.756V294.707H588.809Z" fill="#1F2937"/>
<path d="M617.119 289.102V299H615.943V289.102H617.119ZM622.027 299.15C620.004 299.15 618.637 297.633 618.637 295.322C618.637 293.012 620.004 291.48 622.027 291.48C624.037 291.48 625.391 293.012 625.391 295.322C625.391 297.633 624.037 299.15 622.027 299.15ZM622.027 298.111C623.518 298.111 624.215 296.799 624.215 295.322C624.215 293.846 623.518 292.52 622.027 292.52C620.51 292.52 619.812 293.846 619.812 295.322C619.812 296.799 620.51 298.111 622.027 298.111ZM632.773 291.576L630.025 299H628.809L626.074 291.576H627.359L629.383 297.469H629.465L631.488 291.576H632.773ZM636.916 299.15C634.77 299.15 633.443 297.633 633.443 295.35C633.443 293.066 634.783 291.48 636.807 291.48C638.365 291.48 640.006 292.438 640.006 295.186V295.678H634.619C634.674 297.25 635.59 298.111 636.916 298.111C637.805 298.111 638.365 297.729 638.639 297.264H639.896C639.541 298.385 638.447 299.15 636.916 299.15ZM634.633 294.68H638.816C638.816 293.436 638.023 292.52 636.807 292.52C635.521 292.52 634.701 293.531 634.633 294.68ZM646.432 297.701C645.064 297.701 644.066 296.594 644.066 294.816C644.066 293.053 645.078 291.945 646.445 291.945C647.43 291.945 647.84 292.574 648.004 292.889H648.072V292.055H649.111V296.047C649.125 296.58 649.357 296.84 649.795 296.84C650.643 296.84 651.203 295.855 651.217 294.434C651.23 291.85 649.357 290.168 646.746 290.168C644.039 290.182 642.289 292.273 642.289 294.816C642.289 297.592 643.807 299.506 646.691 299.479C647.648 299.465 648.277 299.41 649.111 299.178V300.107C648.4 300.299 647.594 300.422 646.691 300.422C643.355 300.422 641.305 298.289 641.305 294.816C641.291 291.59 643.561 289.225 646.746 289.225C650.014 289.225 652.215 291.453 652.201 294.393C652.201 296.512 651.107 297.756 649.727 297.756C648.865 297.756 648.216 297.271 648.168 296.635H648.072C647.908 296.936 647.498 297.701 646.432 297.701ZM646.609 296.703C647.58 296.703 648.072 295.938 648.086 294.803C648.072 293.695 647.594 292.943 646.609 292.943C645.652 292.943 645.133 293.764 645.133 294.803C645.133 295.869 645.666 296.703 646.609 296.703ZM656.973 299.15C654.826 299.15 653.5 297.633 653.5 295.35C653.5 293.066 654.84 291.48 656.863 291.48C658.422 291.48 660.062 292.438 660.062 295.186V295.678H654.676C654.73 297.25 655.646 298.111 656.973 298.111C657.861 298.111 658.422 297.729 658.695 297.264H659.953C659.598 298.385 658.504 299.15 656.973 299.15ZM654.689 294.68H658.873C658.873 293.436 658.08 292.52 656.863 292.52C655.578 292.52 654.758 293.531 654.689 294.68ZM667.473 291.576L664.725 299H663.508L660.773 291.576H662.059L664.082 297.469H664.164L666.188 291.576H667.473ZM671.615 299.15C669.469 299.15 668.143 297.633 668.143 295.35C668.143 293.066 669.482 291.48 671.506 291.48C673.064 291.48 674.705 292.438 674.705 295.186V295.678H669.318C669.373 297.25 670.289 298.111 671.615 298.111C672.504 298.111 673.064 297.729 673.338 297.264H674.596C674.24 298.385 673.146 299.15 671.615 299.15ZM669.332 294.68H673.516C673.516 293.436 672.723 292.52 671.506 292.52C670.221 292.52 669.4 293.531 669.332 294.68ZM676.236 299V291.576H677.371V292.711H677.453C677.727 291.959 678.492 291.453 679.367 291.453C679.545 291.453 679.846 291.467 679.982 291.48V292.67C679.9 292.643 679.572 292.588 679.271 292.588C678.205 292.588 677.412 293.326 677.412 294.324V299H676.236ZM681.131 299V291.576H682.307V299H681.131ZM681.719 290.346C681.268 290.346 680.898 290.004 680.898 289.566C680.898 289.129 681.268 288.787 681.719 288.787C682.17 288.787 682.553 289.129 682.553 289.566C682.553 290.004 682.17 290.346 681.719 290.346ZM685.355 294.543V299H684.18V291.576H685.314V292.738H685.41C685.766 291.986 686.449 291.48 687.584 291.48C689.088 291.48 690.086 292.396 690.086 294.283V299H688.91V294.365C688.91 293.217 688.281 292.533 687.229 292.533C686.148 292.533 685.355 293.258 685.355 294.543ZM694.98 301.939C693.189 301.939 691.973 301.16 691.836 299.779H693.066C693.23 300.531 693.928 300.914 694.98 300.914C696.252 300.914 697.031 300.367 697.031 299.137V297.633H696.936C696.689 298.043 696.211 298.891 694.775 298.891C692.971 298.891 691.617 297.523 691.617 295.186C691.617 292.902 692.93 291.48 694.789 291.48C696.225 291.48 696.689 292.355 696.963 292.752H697.059V291.576H698.207V299.205C698.207 301.119 696.785 301.939 694.98 301.939ZM694.939 297.838C696.293 297.838 697.059 296.867 697.059 295.227C697.059 293.641 696.32 292.533 694.939 292.533C693.518 292.533 692.807 293.736 692.807 295.227C692.807 296.771 693.531 297.838 694.939 297.838ZM700.914 299.082C700.436 299.082 700.025 298.686 700.039 298.193C700.025 297.715 700.436 297.318 700.914 297.318C701.393 297.318 701.789 297.715 701.789 298.193C701.789 298.686 701.393 299.082 700.914 299.082ZM706.67 299.15C704.564 299.15 703.279 297.551 703.279 295.322C703.279 293.066 704.619 291.48 706.643 291.48C708.229 291.48 709.404 292.41 709.596 293.818H708.42C708.256 293.135 707.654 292.52 706.67 292.52C705.344 292.52 704.455 293.613 704.455 295.281C704.455 297.004 705.316 298.098 706.67 298.098C707.545 298.098 708.215 297.633 708.42 296.812H709.596C709.404 298.139 708.324 299.15 706.67 299.15ZM714.08 299.15C712.057 299.15 710.689 297.633 710.689 295.322C710.689 293.012 712.057 291.48 714.08 291.48C716.09 291.48 717.443 293.012 717.443 295.322C717.443 297.633 716.09 299.15 714.08 299.15ZM714.08 298.111C715.57 298.111 716.268 296.799 716.268 295.322C716.268 293.846 715.57 292.52 714.08 292.52C712.562 292.52 711.865 293.846 711.865 295.322C711.865 296.799 712.562 298.111 714.08 298.111ZM718.988 299V291.576H720.123V292.738H720.219C720.533 291.945 721.244 291.48 722.215 291.48C723.186 291.48 723.842 291.945 724.197 292.738H724.279C724.662 291.973 725.441 291.48 726.508 291.48C727.834 291.48 728.777 292.287 728.777 294.037V299H727.602V294.051C727.602 292.957 726.904 292.533 726.098 292.533C725.059 292.533 724.471 293.23 724.471 294.174V299H723.281V293.928C723.281 293.094 722.68 292.533 721.832 292.533C720.943 292.533 720.164 293.285 720.164 294.365V299H718.988Z" fill="#374151"/>
<path d="M464 172C464 159.85 473.85 150 486 150H1434C1446.15 150 1456 159.85 1456 172V215H464V172Z" fill="#73CFA5"/>
<path d="M465 208L1455 208" stroke="#34B17B" stroke-width="2" stroke-linecap="square" stroke-linejoin="round"/>
<path d="M502.168 171.674V187.564H500.287V179.531H498.529V186.756H496.701V171.973H498.529V177.932H500.287V171.674H502.168ZM491.182 173.502V181.887C492.553 181.86 494.056 181.746 495.717 181.412L495.91 183.117C493.766 183.504 491.955 183.609 490.268 183.609H489.213V173.502H491.182ZM522.875 184.014V185.648H508.355V184.014H522.875ZM521.609 173.15V174.715H519.289V179.777H521.557V181.324H509.604V179.777H511.836V174.715H509.551V173.15H521.609ZM513.787 179.777H517.355V174.715H513.787V179.777ZM538.432 184.102V185.719H523.912V184.102H530.17V181.518H525.635V176.314H534.775V174.346H525.6V172.764H536.709V177.861H527.586V179.918H537.078V181.518H532.104V184.102H538.432ZM552.723 171.674V179.865H550.771V171.674H552.723ZM552.723 180.533V184.629H544.039V185.877H553.232V187.424H542.105V183.205H550.789V182.062H542.07V180.533H552.723ZM548.785 172.693V174.205H547.361V177.668C548.082 177.606 548.785 177.536 549.453 177.457L549.541 178.863C546.377 179.355 542.721 179.461 539.943 179.461L539.732 177.914L541.543 177.896V174.205H540.154V172.693H548.785ZM543.424 177.861C544.109 177.844 544.804 177.817 545.498 177.773V174.205H543.424V177.861Z" fill="#111827"/>
<circle cx="1418" cy="180" r="15" fill="#E5E7EB" stroke="#E5E7EB" stroke-width="2"/>
<path d="M1418.02 173.226C1418.21 172.825 1418.68 172.652 1419.08 172.84L1422.53 174.454C1422.93 174.641 1423.1 175.118 1422.91 175.519L1418.15 185.796C1418.06 185.991 1417.89 186.142 1417.69 186.213L1415.18 187.094C1414.77 187.238 1414.32 187.027 1414.17 186.619L1413.23 184.123C1413.16 183.922 1413.16 183.698 1413.25 183.503L1418.02 173.226Z" fill="#9CA3AF"/>
<path d="M1414.67 173.566L1424.2 178.04" stroke="#E5E7EB"/>
<circle cx="516" cy="234" r="29.5" fill="#D9D9D9" stroke="white" stroke-width="3"/>
<g clip-path="url(#clip4_518_13379)">
<circle cx="516" cy="234" r="27" fill="white" stroke="#E5E7EB" stroke-width="2"/>
<path fill-rule="evenodd" clip-rule="evenodd" d="M532.047 240.993C529.348 247.177 523.179 251.5 516 251.5C508.379 251.5 501.897 246.629 499.495 239.831C496.353 239.74 493.833 237.165 493.833 234C493.833 230.836 496.352 228.26 499.495 228.169C501.896 221.371 508.379 216.5 516 216.5C524.058 216.5 530.844 221.946 532.878 229.358C535.844 229.633 538.167 232.128 538.167 235.166C538.167 238.388 535.555 241 532.333 241C532.237 241 532.142 240.997 532.047 240.993Z" fill="#E5E7EB"/>
<path fill-rule="evenodd" clip-rule="evenodd" d="M514.367 231.202C513.816 230.095 512.619 229.333 511.208 229.333C510.59 229.333 509.635 229.747 509.242 230.418C509.186 230.573 508.961 230.573 508.905 230.418C508.456 229.798 507.557 229.385 506.883 229.385C505.029 229.385 503.457 230.78 503.4 232.486V232.589C503.4 233.468 503.794 234.295 504.468 234.915V234.967C504.524 235.019 507.22 237.189 508.456 238.171C508.793 238.43 509.298 238.43 509.635 238.171C510.154 237.759 510.921 237.137 511.644 236.55L511.645 236.55C512.643 235.74 513.558 234.997 513.623 234.967V234.915C514.22 234.412 514.596 233.708 514.675 232.908C515.064 232.86 515.504 232.833 516.001 232.833C516.755 232.833 517.379 232.895 517.892 232.998C517.892 233.015 517.891 233.033 517.89 233.05V233.153C517.89 234.032 518.283 234.859 518.958 235.479V235.531C519.014 235.583 521.71 237.753 522.946 238.736C523.283 238.994 523.788 238.994 524.125 238.736C524.644 238.323 525.411 237.701 526.134 237.114C527.133 236.304 528.048 235.561 528.113 235.531V235.479C528.787 234.911 529.181 234.084 529.181 233.153V233.05C529.124 231.293 527.608 229.897 525.698 229.897C525.08 229.897 524.125 230.311 523.732 230.982C523.676 231.138 523.451 231.138 523.395 230.982C522.946 230.362 522.047 229.949 521.373 229.949C520.179 229.949 519.102 230.527 518.472 231.395C517.871 231.207 517.066 231.083 516.001 231.083C515.368 231.083 514.828 231.127 514.367 231.202Z" fill="#6B7280"/>
<path d="M513.083 239.25C513.277 239.639 514.133 240.417 516 240.417C517.866 240.417 518.722 239.639 518.916 239.25" stroke="#6B7280" stroke-width="1.75" stroke-linecap="round" stroke-linejoin="round"/>
<path d="M513.191 219.016C512.579 219.496 511.617 221.428 512.147 222.788C512.677 224.147 513.506 224.484 513.927 224.592" stroke="#6B7280" stroke-width="1.39112" stroke-linecap="round"/>
<path d="M516.91 219.974C516.297 220.392 515.857 222.19 516.444 223.445C516.881 224.38 517.998 224.743 518.354 224.834" stroke="#6B7280" stroke-width="1.39112" stroke-linecap="round"/>
<path d="M520.002 220.613C519.708 220.998 519.923 222.107 520.428 222.858C520.726 223.302 521.629 223.951 521.868 223.934" stroke="#6B7280" stroke-width="1.38833" stroke-linecap="round"/>
</g>
</g>
<mask id="path-55-inside-2_518_13379" fill="white">
<path d="M-5 -1H1915V59H-5V-1Z"/>
</mask>
<path d="M-5 -1H1915V59H-5V-1Z" fill="white"/>
<path d="M1915 57H-5V61H1915V57Z" fill="#D1D5DB" mask="url(#path-55-inside-2_518_13379)"/>
<g clip-path="url(#clip5_518_13379)">
<path d="M370.611 34.3089C370.611 34.6909 370.504 34.9773 370.291 35.1683C370.089 35.3593 369.796 35.4548 369.414 35.4548C369.032 35.4548 368.735 35.3593 368.521 35.1683C368.319 34.9773 368.218 34.6909 368.218 34.3089V27.4333H366.937C366.892 28.1411 366.797 28.7815 366.651 29.3544C366.505 29.9274 366.286 30.4105 365.994 30.8037C365.713 31.1969 365.359 31.5002 364.932 31.7137C364.505 31.9272 363.994 32.0339 363.398 32.0339C362.735 32.0339 362.174 31.9047 361.713 31.6463C361.253 31.3767 360.876 31.0003 360.584 30.5172C360.303 30.0341 360.101 29.4499 359.977 28.7646C359.854 28.0681 359.792 27.2929 359.792 26.4391C359.792 25.5852 359.854 24.8157 359.977 24.1304C360.101 23.4338 360.303 22.844 360.584 22.3609C360.876 21.8778 361.253 21.5071 361.713 21.2487C362.174 20.9791 362.735 20.8443 363.398 20.8443C363.983 20.8443 364.488 20.951 364.915 21.1644C365.342 21.3667 365.696 21.6644 365.977 22.0576C366.258 22.4396 366.471 22.9114 366.617 23.4731C366.774 24.0236 366.881 24.6472 366.937 25.3437H368.218V21.6194C368.218 21.2375 368.319 20.951 368.521 20.76C368.735 20.569 369.032 20.4735 369.414 20.4735C369.796 20.4735 370.089 20.569 370.291 20.76C370.504 20.951 370.611 21.2375 370.611 21.6194V34.3089ZM373.931 34.7807C373.931 35.1627 373.824 35.4492 373.611 35.6402C373.397 35.8424 373.099 35.9435 372.717 35.9435C372.335 35.9435 372.038 35.8424 371.824 35.6402C371.611 35.4492 371.504 35.1627 371.504 34.7807V21.4678C371.504 21.0858 371.611 20.7993 371.824 20.6083C372.038 20.4061 372.335 20.305 372.717 20.305C373.099 20.305 373.397 20.4061 373.611 20.6083C373.824 20.7993 373.931 21.0858 373.931 21.4678V34.7807ZM362.134 26.4391C362.134 27.5288 362.224 28.377 362.404 28.9837C362.584 29.5791 362.915 29.8769 363.398 29.8769C363.881 29.8769 364.213 29.5791 364.393 28.9837C364.572 28.377 364.662 27.5288 364.662 26.4391C364.662 25.3493 364.572 24.5067 364.393 23.9113C364.213 23.3046 363.881 23.0013 363.398 23.0013C362.915 23.0013 362.584 23.3046 362.404 23.9113C362.224 24.5067 362.134 25.3493 362.134 26.4391ZM376.606 22.1756C376.606 21.7936 376.718 21.5071 376.943 21.3161C377.179 21.1139 377.487 21.0128 377.869 21.0128C378.251 21.0128 378.555 21.1139 378.779 21.3161C379.015 21.5071 379.133 21.7936 379.133 22.1756V24.5348H382.032V22.1756C382.032 21.7936 382.144 21.5071 382.369 21.3161C382.605 21.1139 382.914 21.0128 383.296 21.0128C383.678 21.0128 383.981 21.1139 384.206 21.3161C384.442 21.5071 384.56 21.7936 384.56 22.1756V25.1415H387.172V21.5352C387.172 21.142 387.295 20.8386 387.542 20.6252C387.801 20.4117 388.127 20.305 388.52 20.305C388.913 20.305 389.233 20.4117 389.48 20.6252C389.739 20.8386 389.868 21.142 389.868 21.5352V34.7133C389.868 35.1065 389.739 35.4099 389.48 35.6233C389.233 35.8368 388.913 35.9435 388.52 35.9435C388.127 35.9435 387.801 35.8368 387.542 35.6233C387.295 35.4099 387.172 35.1065 387.172 34.7133V27.3828H384.56V30.2644C384.56 31.3767 383.998 31.9328 382.874 31.9328H378.291C377.167 31.9328 376.606 31.3767 376.606 30.2644V22.1756ZM379.133 26.7256V29.4387C379.133 29.5623 379.15 29.6465 379.184 29.6915C379.218 29.7252 379.296 29.742 379.42 29.742H381.745C381.869 29.742 381.948 29.7252 381.981 29.6915C382.015 29.6465 382.032 29.5623 382.032 29.4387V26.7256H379.133ZM403.163 21.5352C403.163 21.142 403.287 20.8386 403.534 20.6252C403.793 20.4117 404.118 20.305 404.512 20.305C404.905 20.305 405.225 20.4117 405.472 20.6252C405.731 20.8386 405.86 21.142 405.86 21.5352V28.1917C405.86 28.5849 405.731 28.8882 405.472 29.1017C405.225 29.3151 404.905 29.4219 404.512 29.4219C404.118 29.4219 403.793 29.3151 403.534 29.1017C403.287 28.8882 403.163 28.5849 403.163 28.1917V21.5352ZM400.349 29.6746C401.158 29.6746 401.9 29.7364 402.574 29.86C403.259 29.9723 403.843 30.1577 404.326 30.4161C404.809 30.6745 405.186 31.0059 405.455 31.4104C405.725 31.8148 405.86 32.3091 405.86 32.8933C405.86 33.4775 405.725 33.9719 405.455 34.3763C405.186 34.7807 404.809 35.1122 404.326 35.3706C403.843 35.629 403.259 35.8143 402.574 35.9267C401.9 36.0502 401.158 36.112 400.349 36.112C399.54 36.112 398.793 36.0502 398.108 35.9267C397.434 35.8143 396.855 35.629 396.372 35.3706C395.889 35.1122 395.513 34.7807 395.243 34.3763C394.973 33.9719 394.839 33.4775 394.839 32.8933C394.839 32.3091 394.973 31.8148 395.243 31.4104C395.513 31.0059 395.889 30.6745 396.372 30.4161C396.855 30.1577 397.434 29.9723 398.108 29.86C398.793 29.7364 399.54 29.6746 400.349 29.6746ZM400.349 34.0561C400.697 34.0561 401.04 34.0393 401.377 34.0056C401.714 33.9719 402.012 33.9101 402.27 33.8202C402.54 33.7303 402.753 33.6123 402.911 33.4663C403.079 33.309 403.163 33.118 403.163 32.8933C403.163 32.6686 403.079 32.4833 402.911 32.3372C402.753 32.1799 402.54 32.0564 402.27 31.9665C402.012 31.8766 401.714 31.8148 401.377 31.7811C401.04 31.7474 400.697 31.7306 400.349 31.7306C400.001 31.7306 399.658 31.7474 399.321 31.7811C398.984 31.8148 398.681 31.8766 398.411 31.9665C398.153 32.0564 397.939 32.1799 397.771 32.3372C397.614 32.4833 397.535 32.6686 397.535 32.8933C397.535 33.118 397.614 33.309 397.771 33.4663C397.939 33.6123 398.153 33.7303 398.411 33.8202C398.681 33.9101 398.984 33.9719 399.321 34.0056C399.658 34.0393 400.001 34.0561 400.349 34.0561ZM401.074 28.4613C400.22 28.5849 399.383 28.6748 398.563 28.7309C397.754 28.7759 396.889 28.7983 395.968 28.7983H394.67C394.097 28.7983 393.681 28.6748 393.423 28.4276C393.165 28.1692 393.035 27.7648 393.035 27.2143V25.2763C393.035 24.7258 393.165 24.3214 393.423 24.063C393.681 23.8046 394.097 23.6754 394.67 23.6754H398.04C398.187 23.6754 398.26 23.6023 398.26 23.4563V22.8496C398.26 22.7598 398.243 22.7036 398.209 22.6811C398.187 22.6586 398.13 22.6474 398.04 22.6474H394.283C393.945 22.6474 393.665 22.5631 393.44 22.3946C393.226 22.2149 393.12 21.9621 393.12 21.6363C393.12 21.2993 393.226 21.0465 393.44 20.878C393.665 20.6982 393.945 20.6083 394.283 20.6083H399.153C399.737 20.6083 400.153 20.7319 400.4 20.9791C400.658 21.2262 400.787 21.6363 400.787 22.2093V24.0293C400.787 24.6022 400.658 25.0179 400.4 25.2763C400.153 25.5235 399.737 25.647 399.153 25.647H395.765C395.676 25.647 395.619 25.6583 395.597 25.6807C395.574 25.7032 395.563 25.7594 395.563 25.8493V26.6076C395.563 26.6975 395.574 26.7536 395.597 26.7761C395.619 26.7986 395.676 26.8098 395.765 26.8098H396.406C397.181 26.8098 397.928 26.7817 398.647 26.7256C399.366 26.6694 400.063 26.5907 400.737 26.4896C401.063 26.4335 401.343 26.4615 401.579 26.5739C401.815 26.6862 401.967 26.9109 402.034 27.248C402.102 27.585 402.04 27.8602 401.849 28.0737C401.658 28.2759 401.4 28.4051 401.074 28.4613Z" fill="black"/>
</g>
<path d="M461.375 33.25V34.6719H448.469V33.25H454.031V30.1719H449.891V23.3594H459.891V30.1719H455.75V33.25H461.375ZM451.594 24.75V28.8125H458.172V24.75H451.594ZM474.062 22.2812V30.2812H472.312V22.2812H474.062ZM474.062 30.9688V36.2188H464.688V30.9688H474.062ZM466.406 32.3438V34.8125H472.359V32.3438H466.406ZM466.359 22.9531C468.531 22.9531 470.156 24.3281 470.156 26.3281C470.156 28.2656 468.531 29.6719 466.359 29.6719C464.172 29.6719 462.547 28.2656 462.547 26.3281C462.547 24.3281 464.172 22.9531 466.359 22.9531ZM466.359 24.4219C465.125 24.4219 464.234 25.1562 464.25 26.3281C464.234 27.4688 465.125 28.2031 466.359 28.2031C467.578 28.2031 468.453 27.4688 468.453 26.3281C468.453 25.1562 467.578 24.4219 466.359 24.4219ZM485 25.1562C485 26.6719 486.141 28.1562 488.359 28.75L487.578 30.0781C485.938 29.6484 484.781 28.7109 484.156 27.5C483.523 28.8281 482.336 29.8594 480.672 30.3438L479.844 28.9688C482.078 28.375 483.266 26.8125 483.266 25.1562V25.1094H480.312V23.7344H483.266V22.2031H485.016V23.7344H487.953V25.1094H485V25.1562ZM491.062 22.2656V25.5469H493.031V26.9844H491.062V30.3594H489.328V22.2656H491.062ZM491.266 31.0156V32.4062H487.531C487.859 33.5781 489.445 34.6719 491.859 35.0156L491.234 36.3438C489.023 36.0312 487.352 35.0859 486.531 33.7969C485.719 35.0781 484.062 36 481.875 36.3125L481.234 35C483.656 34.6641 485.227 33.6094 485.562 32.4062H481.812V31.0156H491.266ZM505.547 22.2656V36.3906H503.797V22.2656H505.547ZM501.328 23.7656C501.328 27.9688 499.703 31.5469 494.75 33.8906L493.844 32.5C497.539 30.7422 499.258 28.3516 499.562 25.1406H494.562V23.7656H501.328Z" fill="#111827"/>
<path d="M536.031 24.6875C536.031 25.8047 536.297 27.2422 537.25 28.2656C538.18 27.2578 538.422 25.8359 538.438 24.6875V24.5625H537.547V23.1719H541.609V24.5625H540.094V24.6875C540.094 26.2031 540.641 27.9688 542.25 28.7812L541.344 30.0469C540.289 29.4844 539.641 28.5547 539.281 27.4688C538.93 28.5859 538.32 29.5938 537.25 30.2031C536.195 29.6016 535.578 28.6016 535.234 27.5156C534.859 28.5859 534.211 29.5078 533.172 30.0469L532.25 28.7812C533.844 27.9375 534.422 26.1875 534.422 24.6875V24.5625H532.781V23.1719H536.938V24.5625H536.031V24.6875ZM544.469 22.2656V30.5H542.734V22.2656H544.469ZM544.469 31.2031V36.2188H534.812V31.2031H544.469ZM536.531 32.5625V34.8125H542.781V32.5625H536.531ZM557.438 22.2812V26.7188H559.406V28.1562H557.438V32.8281H555.703V22.2812H557.438ZM554.688 23.8438V25.2344H546.312V23.8438H549.641V22.2656H551.375V23.8438H554.688ZM550.5 25.8125C552.531 25.8125 553.938 26.8906 553.953 28.5156C553.938 30.125 552.531 31.1875 550.5 31.1875C548.453 31.1875 547.031 30.125 547.031 28.5156C547.031 26.8906 548.453 25.8125 550.5 25.8125ZM550.5 27.1562C549.422 27.1562 548.719 27.6562 548.719 28.5156C548.719 29.3594 549.422 29.8594 550.5 29.8438C551.578 29.8594 552.297 29.3594 552.297 28.5156C552.297 27.6562 551.578 27.1562 550.5 27.1562ZM558 34.7031V36.1094H548.391V32H550.125V34.7031H558ZM576.828 33.25V34.6719H563.922V33.25H569.484V30.1719H565.344V23.3594H575.344V30.1719H571.203V33.25H576.828ZM567.047 24.75V28.8125H573.625V24.75H567.047ZM589.516 22.2812V30.2812H587.766V22.2812H589.516ZM589.516 30.9688V36.2188H580.141V30.9688H589.516ZM581.859 32.3438V34.8125H587.812V32.3438H581.859ZM581.812 22.9531C583.984 22.9531 585.609 24.3281 585.609 26.3281C585.609 28.2656 583.984 29.6719 581.812 29.6719C579.625 29.6719 578 28.2656 578 26.3281C578 24.3281 579.625 22.9531 581.812 22.9531ZM581.812 24.4219C580.578 24.4219 579.688 25.1562 579.703 26.3281C579.688 27.4688 580.578 28.2031 581.812 28.2031C583.031 28.2031 583.906 27.4688 583.906 26.3281C583.906 25.1562 583.031 24.4219 581.812 24.4219Z" fill="#111827"/>
<path d="M629.375 33.25V34.6719H616.469V33.25H622.031V30.1719H617.891V23.3594H627.891V30.1719H623.75V33.25H629.375ZM619.594 24.75V28.8125H626.172V24.75H619.594ZM643.188 29.2969V30.6875H630.297V29.2969H643.188ZM641.75 26.6094V28.0156H631.875V22.8281H641.625V24.2031H633.609V26.6094H641.75ZM641.844 34.6875V36.0938H631.891V31.9219H633.594V34.6875H641.844ZM659.688 22.2656V36.4062H657.969V22.2656H659.688ZM655.344 23.5V28.7969H650.484V31.6406C652.711 31.625 654.633 31.5156 656.828 31.1406L656.984 32.5625C654.578 32.9844 652.469 33.0625 649.938 33.0625H648.703V27.4219H653.578V24.9062H648.688V23.5H655.344ZM674.641 30.3438V31.75H671.609V36.3906H669.875V31.75H666.531V36.3906H664.75V31.75H661.734V30.3438H674.641ZM665.016 22.8125V24.5H671.328V22.8125H673.078V28.9062H663.297V22.8125H665.016ZM665.016 27.5156H671.328V25.8594H665.016V27.5156Z" fill="#111827"/>
<g clip-path="url(#clip6_518_13379)">
<circle cx="1533" cy="29" r="19.5" fill="#F9FAFB" stroke="#9CA3AF"/>
<circle cx="1533" cy="29" r="19" stroke="#E5E7EB" stroke-width="2"/>
<path fill-rule="evenodd" clip-rule="evenodd" d="M1544.46 33.9949C1542.53 38.4124 1538.13 41.5 1533 41.5C1527.56 41.5 1522.93 38.0209 1521.21 33.1651C1518.97 33.1003 1517.17 31.2604 1517.17 29.0002C1517.17 26.74 1518.97 24.9001 1521.21 24.8353C1522.93 19.9793 1527.56 16.5 1533 16.5C1538.76 16.5 1543.6 20.39 1545.06 25.6844C1547.17 25.8805 1548.83 27.6631 1548.83 29.8332C1548.83 32.1344 1546.97 33.9998 1544.67 33.9998C1544.6 33.9998 1544.53 33.9982 1544.46 33.9949Z" fill="#E5E7EB"/>
<path fill-rule="evenodd" clip-rule="evenodd" d="M1531.83 27.0017C1531.44 26.2112 1530.58 25.667 1529.58 25.667C1529.14 25.667 1528.45 25.9623 1528.17 26.4423C1528.13 26.5531 1527.97 26.5531 1527.93 26.4423C1527.61 25.9993 1526.97 25.7039 1526.49 25.7039C1525.16 25.7039 1524.04 26.7007 1524 27.9191V27.9929C1524 28.6205 1524.28 29.2112 1524.76 29.6543V29.6912C1524.8 29.7281 1526.73 31.2787 1527.61 31.9802C1527.85 32.1648 1528.21 32.1648 1528.45 31.9802C1528.82 31.6855 1529.37 31.2411 1529.89 30.8219L1529.89 30.8218C1530.6 30.2431 1531.26 29.7126 1531.3 29.6912V29.6543C1531.73 29.2951 1532 28.7917 1532.05 28.2204C1532.33 28.1863 1532.65 28.1671 1533 28.1671C1533.54 28.1671 1533.98 28.2115 1534.35 28.2851C1534.35 28.2973 1534.35 28.3096 1534.35 28.322V28.3958C1534.35 29.0234 1534.63 29.6141 1535.11 30.0571V30.0941C1535.15 30.131 1537.08 31.6816 1537.96 32.3831C1538.2 32.5676 1538.56 32.5676 1538.8 32.3831C1539.17 32.0884 1539.72 31.6439 1540.24 31.2247C1540.95 30.646 1541.61 30.1155 1541.65 30.0941V30.0571C1542.13 29.651 1542.41 29.0603 1542.41 28.3958V28.322C1542.37 27.0667 1541.29 26.0699 1539.93 26.0699C1539.49 26.0699 1538.8 26.3652 1538.52 26.8452C1538.48 26.9559 1538.32 26.9559 1538.28 26.8452C1537.96 26.4022 1537.32 26.1068 1536.84 26.1068C1535.98 26.1068 1535.22 26.52 1534.76 27.1396C1534.34 27.0057 1533.76 26.9171 1533 26.9171C1532.55 26.9171 1532.16 26.9483 1531.83 27.0017Z" fill="#6B7280"/>
<path d="M1530.92 32.75C1531.06 33.0278 1531.67 33.5833 1533 33.5833C1534.33 33.5833 1534.94 33.0278 1535.08 32.75" stroke="#6B7280" stroke-width="1.25" stroke-linecap="round" stroke-linejoin="round"/>
<path d="M1530.99 18.2973C1530.56 18.6399 1529.87 20.0201 1530.25 20.9911C1530.63 21.9621 1531.22 22.2026 1531.52 22.28" stroke="#6B7280" stroke-width="0.993658" stroke-linecap="round"/>
<path d="M1533.65 18.9818C1533.21 19.2803 1532.9 20.5641 1533.32 21.4612C1533.63 22.1288 1534.43 22.3879 1534.68 22.4532" stroke="#6B7280" stroke-width="0.993658" stroke-linecap="round"/>
<path d="M1535.86 19.4377C1535.65 19.7126 1535.8 20.505 1536.16 21.0414C1536.38 21.3586 1537.02 21.8217 1537.19 21.8099" stroke="#6B7280" stroke-width="0.991667" stroke-linecap="round"/>
</g>
</g>
<defs>
<clipPath id="clip0_518_13379">
<rect width="1920" height="1080" rx="40" fill="white"/>
</clipPath>
<clipPath id="clip1_518_13379">
<path d="M486 455C486 441.745 496.745 431 510 431H742C755.255 431 766 441.745 766 455V563C766 576.255 755.255 587 742 587H510C496.745 587 486 576.255 486 563V455Z" fill="white"/>
</clipPath>
<clipPath id="clip2_518_13379">
<path d="M486 659C486 645.745 496.745 635 510 635H742C755.255 635 766 645.745 766 659V767C766 780.255 755.255 791 742 791H510C496.745 791 486 780.255 486 767V659Z" fill="white"/>
</clipPath>
<clipPath id="clip3_518_13379">
<path d="M462 172C462 158.745 472.745 148 486 148H1434C1447.25 148 1458 158.745 1458 172V296C1458 309.255 1447.25 320 1434 320H486C472.745 320 462 309.255 462 296V172Z" fill="white"/>
</clipPath>
<clipPath id="clip4_518_13379">
<rect width="56" height="56" fill="white" transform="translate(488 206)"/>
</clipPath>
<clipPath id="clip5_518_13379">
<rect width="73" height="35" fill="white" transform="translate(355 11.5)"/>
</clipPath>
<clipPath id="clip6_518_13379">
<rect width="40" height="40" fill="white" transform="translate(1513 9)"/>
</clipPath>
</defs>
</svg>
