<svg width="1920" height="1080" viewBox="0 0 1920 1080" fill="none" xmlns="http://www.w3.org/2000/svg">
<rect width="1920" height="1080" rx="40" fill="#F3F4F6"/>
<rect x="1050" y="329" width="510" height="422" rx="24" fill="white"/>
<path d="M1293.56 383.469V385.625H1274.2V383.469H1282.55V380.023H1276.5V373.086H1288.69V370.461H1276.45V368.352H1291.27V375.148H1279.1V377.891H1291.76V380.023H1285.12V383.469H1293.56ZM1311.8 368.961V371.352C1311.8 374.188 1311.8 377.117 1311.02 381.57L1308.38 381.336C1309.2 377.164 1309.2 374.094 1309.2 371.352V371.07H1296.98V368.961H1311.8ZM1314.26 383.047V385.18H1294.95V383.047H1314.26ZM1333.34 366.922V382.227H1330.71V366.922H1333.34ZM1333.92 385.555V387.664H1319.32V380.68H1321.95V385.555H1333.92ZM1321.78 368.305C1324.99 368.305 1327.48 370.531 1327.48 373.602C1327.48 376.742 1324.99 378.922 1321.78 378.922C1318.55 378.922 1316.06 376.742 1316.06 373.602C1316.06 370.531 1318.55 368.305 1321.78 368.305ZM1321.78 370.578C1319.98 370.578 1318.59 371.773 1318.62 373.602C1318.59 375.477 1319.98 376.648 1321.78 376.648C1323.54 376.648 1324.92 375.477 1324.92 373.602C1324.92 371.773 1323.54 370.578 1321.78 370.578Z" fill="#1F2937"/>
<path d="M1107.73 429.76C1109.59 429.76 1110.93 431.455 1110.95 434.121C1110.93 436.814 1109.59 438.496 1107.73 438.496C1105.86 438.496 1104.51 436.814 1104.52 434.121C1104.51 431.455 1105.86 429.76 1107.73 429.76ZM1107.73 431.127C1106.69 431.127 1105.98 432.234 1105.98 434.121C1105.98 436.021 1106.69 437.129 1107.73 437.129C1108.79 437.129 1109.48 436.021 1109.48 434.121C1109.48 432.234 1108.79 431.127 1107.73 431.127ZM1114.09 428.857V433.602H1115.99V434.887H1114.09V441.217H1112.57V428.857H1114.09ZM1126.79 428.857V441.23H1125.26V428.857H1126.79ZM1120.13 429.76C1121.99 429.76 1123.35 431.455 1123.36 434.121C1123.35 436.814 1121.99 438.496 1120.13 438.496C1118.26 438.496 1116.91 436.814 1116.91 434.121C1116.91 431.455 1118.26 429.76 1120.13 429.76ZM1120.13 431.127C1119.08 431.127 1118.37 432.234 1118.37 434.121C1118.37 436.021 1119.08 437.129 1120.13 437.129C1121.17 437.129 1121.88 436.021 1121.88 434.121C1121.88 432.234 1121.17 431.127 1120.13 431.127ZM1138.89 428.857V441.23H1137.36V428.857H1138.89ZM1135.34 429.979V431.223H1130.91V436.965C1133.18 436.958 1134.61 436.89 1136.25 436.596L1136.4 437.854C1134.64 438.182 1133.04 438.25 1130.43 438.25H1129.38V429.979H1135.34Z" fill="#111827"/>
<rect x="1104" y="453" width="402" height="44" rx="12" fill="#F9FAFB"/>
<path d="M1132.11 468.328V482.359H1130.62V468.328H1132.11ZM1124.62 469.375C1126.7 469.375 1128.23 471.281 1128.23 474.281C1128.23 477.297 1126.7 479.203 1124.62 479.203C1122.52 479.203 1121 477.297 1121 474.281C1121 471.281 1122.52 469.375 1124.62 469.375ZM1124.62 470.703C1123.33 470.703 1122.44 472.078 1122.44 474.281C1122.44 476.5 1123.33 477.875 1124.62 477.875C1125.91 477.875 1126.8 476.5 1126.8 474.281C1126.8 472.078 1125.91 470.703 1124.62 470.703ZM1140.25 469.906V473.547H1142.12V468.594H1143.55V481.641H1142.12V474.766H1140.25V478.641H1134.81V469.906H1140.25ZM1136.22 471.078V477.453H1138.86V471.078H1136.22ZM1146.39 468.328V482.328H1144.97V468.328H1146.39ZM1152.14 468.797C1154.25 468.812 1155.8 470.109 1155.81 471.938C1155.8 473.781 1154.25 475.062 1152.14 475.062C1150.02 475.062 1148.45 473.781 1148.45 471.938C1148.45 470.109 1150.02 468.812 1152.14 468.797ZM1152.14 470.047C1150.84 470.031 1149.89 470.797 1149.91 471.938C1149.89 473.094 1150.84 473.859 1152.14 473.859C1153.42 473.859 1154.38 473.094 1154.38 471.938C1154.38 470.797 1153.42 470.031 1152.14 470.047ZM1159.78 468.328V475.453H1158.3V468.328H1159.78ZM1159.78 476.094V479.625H1152.06V480.969H1160.25V482.156H1150.62V478.516H1158.31V477.281H1150.58V476.094H1159.78ZM1168.38 468.562C1171.53 468.562 1173.38 469.406 1173.38 470.969C1173.38 472.531 1171.53 473.391 1168.38 473.391C1165.22 473.391 1163.38 472.531 1163.38 470.969C1163.38 469.406 1165.22 468.562 1168.38 468.562ZM1168.38 469.656C1166.14 469.656 1164.91 470.141 1164.92 470.969C1164.91 471.828 1166.14 472.281 1168.38 472.281C1170.61 472.281 1171.84 471.828 1171.84 470.969C1171.84 470.141 1170.61 469.656 1168.38 469.656ZM1174.77 474.25V475.438H1162V474.25H1174.77ZM1173.16 476.516V479.797H1165V481.047H1173.55V482.188H1163.55V478.719H1171.69V477.625H1163.53V476.516H1173.16ZM1191.34 468.328V475.844H1189.86V468.328H1191.34ZM1183.64 476.516V478.094H1189.88V476.516H1191.34V482.156H1182.19V476.516H1183.64ZM1183.64 480.938H1189.88V479.266H1183.64V480.938ZM1183.75 468.969C1185.89 468.969 1187.47 470.297 1187.47 472.219C1187.47 474.141 1185.89 475.469 1183.75 475.453C1181.61 475.469 1180.02 474.141 1180.02 472.219C1180.02 470.297 1181.61 468.969 1183.75 468.969ZM1183.75 470.219C1182.42 470.203 1181.47 471.031 1181.47 472.219C1181.47 473.422 1182.42 474.234 1183.75 474.234C1185.06 474.234 1186.02 473.422 1186.02 472.219C1186.02 471.031 1185.06 470.203 1183.75 470.219ZM1200.23 469.172V473.25H1195.61V475.188C1198.05 475.195 1199.38 475.141 1200.95 474.844L1201.09 476.047C1199.39 476.344 1197.95 476.391 1195.16 476.391H1194.14V472.125H1198.75V470.359H1194.12V469.172H1200.23ZM1205.23 468.344V476.953H1203.75V474.484H1201.12V473.297H1203.75V471.562H1201.12V470.375H1203.75V468.344H1205.23ZM1205.23 477.656V482.344H1203.75V478.859H1195.73V477.656H1205.23ZM1214.31 470.641V471.844H1207.36V470.641H1210.11V468.734H1211.58V470.641H1214.31ZM1210.84 472.688C1212.62 472.688 1213.88 474.016 1213.89 475.906C1213.88 477.812 1212.62 479.156 1210.84 479.156C1209.09 479.156 1207.8 477.812 1207.81 475.906C1207.8 474.016 1209.09 472.688 1210.84 472.688ZM1210.84 473.922C1209.83 473.922 1209.12 474.75 1209.12 475.906C1209.12 477.094 1209.83 477.891 1210.84 477.891C1211.84 477.891 1212.58 477.094 1212.58 475.906C1212.58 474.75 1211.84 473.922 1210.84 473.922ZM1219.38 468.328V482.328H1217.97V475.375H1216.36V481.672H1214.95V468.641H1216.36V474.156H1217.97V468.328H1219.38ZM1233.98 476.219V477.422H1228.3V482.312H1226.84V477.422H1221.22V476.219H1233.98ZM1232.78 469.156V470.344H1228.45C1228.48 472.078 1230.63 473.625 1233.28 473.984L1232.73 475.156C1230.44 474.797 1228.45 473.664 1227.61 472.062C1226.74 473.664 1224.77 474.797 1222.5 475.156L1221.94 473.984C1224.55 473.625 1226.71 472.078 1226.77 470.344H1222.41V469.156H1232.78ZM1239.31 472.156C1239.31 474.391 1240.25 476.781 1242.12 477.922L1241.3 479.062C1239.98 478.273 1239.09 476.875 1238.62 475.25C1238.1 477.031 1237.14 478.547 1235.78 479.375L1234.86 478.266C1236.84 477.078 1237.88 474.609 1237.88 472.219V469.609H1239.31V472.156ZM1247.09 468.328V482.328H1245.67V468.328H1247.09ZM1244.19 468.594V481.641H1242.78V474.484H1240.61V473.25H1242.78V468.594H1244.19ZM1261.69 479.344V480.578H1248.88V479.344H1251.94V475.688C1250.79 475.055 1250.09 474.047 1250.09 472.797C1250.09 470.594 1252.25 469.141 1255.25 469.141C1258.27 469.141 1260.42 470.594 1260.42 472.797C1260.42 474.031 1259.75 475.023 1258.62 475.656V479.344H1261.69ZM1255.25 470.328C1253.05 470.328 1251.53 471.281 1251.53 472.797C1251.53 474.297 1253.05 475.281 1255.25 475.281C1257.44 475.281 1258.98 474.297 1258.98 472.797C1258.98 471.281 1257.44 470.328 1255.25 470.328ZM1253.41 479.344H1257.12V476.219C1256.55 476.367 1255.92 476.438 1255.25 476.438C1254.59 476.438 1253.97 476.367 1253.41 476.234V479.344Z" fill="#9CA3AF"/>
<path d="M1114.69 524.857V537.23H1113.16V524.857H1114.69ZM1106.58 525.869V528.959H1109.58V525.869H1111.08V534.318H1105.07V525.869H1106.58ZM1106.58 533.074H1109.58V530.148H1106.58V533.074ZM1123.1 525.5V530.654H1117.14V525.5H1123.1ZM1118.64 526.717V529.465H1121.6V526.717H1118.64ZM1126.78 524.857V531.146H1125.27V524.857H1126.78ZM1126.78 531.707V534.906H1120.12V535.904H1127.15V537.107H1118.62V533.812H1125.3V532.896H1118.6V531.707H1126.78ZM1138.96 524.871V533.99H1137.44V529.438H1134.95V531.98H1129.17V525.678H1130.69V527.674H1133.45V525.678H1134.95V528.207H1137.44V524.871H1138.96ZM1139.23 535.74V536.971H1130.81V533.088H1132.36V535.74H1139.23ZM1130.69 530.777H1133.45V528.85H1130.69V530.777ZM1151.43 526.512V527.742H1141.21V526.512H1145.58V525.021H1147.08V526.512H1151.43ZM1152 534.66V535.891H1140.71V534.66H1145.58V533.143C1143.44 532.972 1142.14 532.117 1142.16 530.75C1142.14 529.26 1143.74 528.371 1146.33 528.371C1148.87 528.371 1150.48 529.26 1150.48 530.75C1150.48 532.11 1149.19 532.965 1147.08 533.129V534.66H1152ZM1146.33 529.561C1144.65 529.574 1143.7 529.971 1143.72 530.75C1143.7 531.543 1144.65 531.939 1146.33 531.953C1147.98 531.939 1148.93 531.543 1148.93 530.75C1148.93 529.971 1147.98 529.574 1146.33 529.561Z" fill="#111827"/>
<rect x="1104" y="549" width="402" height="44" rx="12" fill="#F9FAFB"/>
<path d="M1132.11 564.328V578.359H1130.62V564.328H1132.11ZM1122.78 565.5V569.094H1126.55V565.5H1128.02V575H1121.3V565.5H1122.78ZM1122.78 573.781H1126.55V570.266H1122.78V573.781ZM1141.73 565.078V570.844H1135.08V565.078H1141.73ZM1136.53 566.281V569.688H1140.27V566.281H1136.53ZM1145.94 564.328V571.5H1144.47V564.328H1145.94ZM1145.94 572.172V575.656H1138.23V577H1146.39V578.188H1136.78V574.578H1144.48V573.328H1136.75V572.172H1145.94ZM1159.84 564.344V574.688H1158.36V569.406H1155.3V572.359H1148.84V565.266H1150.33V567.641H1153.83V565.266H1155.3V568.203H1158.36V564.344H1159.84ZM1160.16 576.828V578.031H1150.7V573.672H1152.2V576.828H1160.16ZM1150.33 571.156H1153.83V568.781H1150.33V571.156ZM1174.12 566.297V567.5H1162.61V566.297H1167.64V564.531H1169.11V566.297H1174.12ZM1174.81 575.547V576.75H1162V575.547H1167.64V573.688C1165.19 573.539 1163.7 572.57 1163.7 571.016C1163.7 569.328 1165.48 568.344 1168.38 568.344C1171.23 568.344 1173.03 569.328 1173.03 571.016C1173.03 572.57 1171.54 573.539 1169.11 573.688V575.547H1174.81ZM1168.38 569.516C1166.38 569.516 1165.2 570.047 1165.22 571.016C1165.2 571.984 1166.38 572.516 1168.38 572.531C1170.34 572.516 1171.52 571.984 1171.52 571.016C1171.52 570.047 1170.34 569.516 1168.38 569.516ZM1188.62 570.75V571.891H1175.81V570.75H1188.62ZM1187.05 572.875V575.953H1178.83V577.109H1187.48V578.156H1177.34V574.969H1185.58V573.938H1177.33V572.875H1187.05ZM1187.02 564.688V567.719H1178.92V568.781H1187.25V569.828H1177.45V566.734H1185.53V565.734H1177.42V564.688H1187.02ZM1205.17 564.328V571.844H1203.69V564.328H1205.17ZM1197.47 572.516V574.094H1203.7V572.516H1205.17V578.156H1196.02V572.516H1197.47ZM1197.47 576.938H1203.7V575.266H1197.47V576.938ZM1197.58 564.969C1199.72 564.969 1201.3 566.297 1201.3 568.219C1201.3 570.141 1199.72 571.469 1197.58 571.453C1195.44 571.469 1193.84 570.141 1193.84 568.219C1193.84 566.297 1195.44 564.969 1197.58 564.969ZM1197.58 566.219C1196.25 566.203 1195.3 567.031 1195.3 568.219C1195.3 569.422 1196.25 570.234 1197.58 570.234C1198.89 570.234 1199.84 569.422 1199.84 568.219C1199.84 567.031 1198.89 566.203 1197.58 566.219ZM1214.06 565.172V569.25H1209.44V571.188C1211.88 571.195 1213.2 571.141 1214.78 570.844L1214.92 572.047C1213.22 572.344 1211.78 572.391 1208.98 572.391H1207.97V568.125H1212.58V566.359H1207.95V565.172H1214.06ZM1219.06 564.344V572.953H1217.58V570.484H1214.95V569.297H1217.58V567.562H1214.95V566.375H1217.58V564.344H1219.06ZM1219.06 573.656V578.344H1217.58V574.859H1209.56V573.656H1219.06ZM1228.14 566.641V567.844H1221.19V566.641H1223.94V564.734H1225.41V566.641H1228.14ZM1224.67 568.688C1226.45 568.688 1227.7 570.016 1227.72 571.906C1227.7 573.812 1226.45 575.156 1224.67 575.156C1222.92 575.156 1221.62 573.812 1221.64 571.906C1221.62 570.016 1222.92 568.688 1224.67 568.688ZM1224.67 569.922C1223.66 569.922 1222.95 570.75 1222.95 571.906C1222.95 573.094 1223.66 573.891 1224.67 573.891C1225.67 573.891 1226.41 573.094 1226.41 571.906C1226.41 570.75 1225.67 569.922 1224.67 569.922ZM1233.2 564.328V578.328H1231.8V571.375H1230.19V577.672H1228.78V564.641H1230.19V570.156H1231.8V564.328H1233.2ZM1247.81 572.219V573.422H1242.12V578.312H1240.67V573.422H1235.05V572.219H1247.81ZM1246.61 565.156V566.344H1242.28C1242.3 568.078 1244.46 569.625 1247.11 569.984L1246.56 571.156C1244.27 570.797 1242.28 569.664 1241.44 568.062C1240.57 569.664 1238.59 570.797 1236.33 571.156L1235.77 569.984C1238.38 569.625 1240.54 568.078 1240.59 566.344H1236.23V565.156H1246.61ZM1253.14 568.156C1253.14 570.391 1254.08 572.781 1255.95 573.922L1255.12 575.062C1253.81 574.273 1252.92 572.875 1252.45 571.25C1251.93 573.031 1250.97 574.547 1249.61 575.375L1248.69 574.266C1250.67 573.078 1251.7 570.609 1251.7 568.219V565.609H1253.14V568.156ZM1260.92 564.328V578.328H1259.5V564.328H1260.92ZM1258.02 564.594V577.641H1256.61V570.484H1254.44V569.25H1256.61V564.594H1258.02ZM1275.52 575.344V576.578H1262.7V575.344H1265.77V571.688C1264.62 571.055 1263.92 570.047 1263.92 568.797C1263.92 566.594 1266.08 565.141 1269.08 565.141C1272.09 565.141 1274.25 566.594 1274.25 568.797C1274.25 570.031 1273.58 571.023 1272.45 571.656V575.344H1275.52ZM1269.08 566.328C1266.88 566.328 1265.36 567.281 1265.36 568.797C1265.36 570.297 1266.88 571.281 1269.08 571.281C1271.27 571.281 1272.81 570.297 1272.81 568.797C1272.81 567.281 1271.27 566.328 1269.08 566.328ZM1267.23 575.344H1270.95V572.219C1270.38 572.367 1269.75 572.438 1269.08 572.438C1268.42 572.438 1267.8 572.367 1267.23 572.234V575.344ZM1278.12 577.109C1277.52 577.109 1277 576.609 1277.02 576C1277 575.391 1277.52 574.891 1278.12 574.891C1278.72 574.891 1279.23 575.391 1279.23 576C1279.23 576.609 1278.72 577.109 1278.12 577.109Z" fill="#9CA3AF"/>
<path d="M1481.77 571.973L1480.65 570.85C1480.82 569.96 1480.59 569.201 1479.95 568.573C1479.31 567.945 1478.54 567.704 1477.65 567.85L1476.53 566.727C1476.76 566.619 1477 566.542 1477.24 566.494C1477.49 566.447 1477.74 566.423 1478 566.423C1479.13 566.423 1480.1 566.819 1480.89 567.61C1481.68 568.402 1482.08 569.365 1482.08 570.5C1482.08 570.759 1482.05 571.011 1482.01 571.257C1481.97 571.502 1481.89 571.741 1481.77 571.973ZM1484.95 575.084L1483.85 574.05C1484.48 573.567 1485.05 573.029 1485.55 572.437C1486.05 571.846 1486.47 571.2 1486.8 570.5C1485.97 568.817 1484.76 567.479 1483.19 566.487C1481.61 565.496 1479.88 565 1478 565C1477.52 565 1477.05 565.033 1476.59 565.1C1476.13 565.167 1475.67 565.267 1475.2 565.4L1474.03 564.235C1474.67 563.983 1475.32 563.798 1475.98 563.679C1476.64 563.56 1477.31 563.5 1478 563.5C1480.15 563.5 1482.12 564.058 1483.92 565.175C1485.72 566.292 1487.1 567.802 1488.07 569.708C1488.14 569.835 1488.19 569.962 1488.22 570.091C1488.25 570.22 1488.26 570.356 1488.26 570.5C1488.26 570.643 1488.25 570.78 1488.22 570.909C1488.2 571.037 1488.15 571.165 1488.09 571.292C1487.73 572.045 1487.29 572.74 1486.75 573.377C1486.22 574.014 1485.62 574.583 1484.95 575.084ZM1478 577.5C1475.89 577.5 1473.97 576.937 1472.21 575.812C1470.46 574.687 1469.06 573.206 1468.03 571.367C1467.95 571.24 1467.88 571.102 1467.85 570.954C1467.81 570.805 1467.79 570.654 1467.79 570.5C1467.79 570.346 1467.81 570.197 1467.84 570.054C1467.87 569.91 1467.93 569.77 1468.01 569.633C1468.39 568.953 1468.81 568.306 1469.28 567.691C1469.75 567.076 1470.29 566.526 1470.9 566.038L1468.64 563.765C1468.5 563.617 1468.44 563.44 1468.44 563.235C1468.44 563.031 1468.51 562.856 1468.66 562.711C1468.8 562.567 1468.98 562.494 1469.18 562.494C1469.39 562.494 1469.57 562.567 1469.71 562.711L1486.29 579.288C1486.43 579.427 1486.5 579.598 1486.51 579.803C1486.52 580.007 1486.44 580.187 1486.29 580.342C1486.14 580.487 1485.97 580.559 1485.76 580.559C1485.56 580.559 1485.38 580.487 1485.23 580.342L1481.72 576.854C1481.13 577.082 1480.52 577.247 1479.9 577.348C1479.27 577.449 1478.64 577.5 1478 577.5ZM1471.95 567.092C1471.37 567.545 1470.84 568.057 1470.37 568.628C1469.91 569.199 1469.52 569.823 1469.2 570.5C1470.03 572.183 1471.24 573.521 1472.81 574.512C1474.39 575.504 1476.12 576 1478 576C1478.43 576 1478.85 575.971 1479.27 575.913C1479.68 575.856 1480.1 575.767 1480.51 575.646L1479.24 574.35C1479.04 574.438 1478.84 574.498 1478.64 574.53C1478.43 574.561 1478.22 574.577 1478 574.577C1476.87 574.577 1475.9 574.181 1475.11 573.389C1474.32 572.598 1473.92 571.634 1473.92 570.5C1473.92 570.278 1473.94 570.066 1473.98 569.864C1474.01 569.662 1474.07 569.46 1474.15 569.258L1471.95 567.092Z" fill="#111827"/>
<rect x="1104" y="633" width="402" height="44" rx="12" fill="#9CA3AF"/>
<path d="M1297.63 659.312V660.75H1284.73V659.312H1290.29V657.016H1286.26V652.391H1294.38V650.641H1286.23V649.234H1296.1V653.766H1287.99V655.594H1296.43V657.016H1292.01V659.312H1297.63ZM1309.79 649.641V651.234C1309.79 653.125 1309.79 655.078 1309.27 658.047L1307.51 657.891C1308.05 655.109 1308.05 653.062 1308.05 651.234V651.047H1299.91V649.641H1309.79ZM1311.43 659.031V660.453H1298.55V659.031H1311.43ZM1324.15 648.281V658.484H1322.4V648.281H1324.15ZM1324.54 660.703V662.109H1314.8V657.453H1316.55V660.703H1324.54ZM1316.45 649.203C1318.59 649.203 1320.24 650.688 1320.24 652.734C1320.24 654.828 1318.59 656.281 1316.45 656.281C1314.29 656.281 1312.63 654.828 1312.63 652.734C1312.63 650.688 1314.29 649.203 1316.45 649.203ZM1316.45 650.719C1315.24 650.719 1314.32 651.516 1314.34 652.734C1314.32 653.984 1315.24 654.766 1316.45 654.766C1317.62 654.766 1318.54 653.984 1318.54 652.734C1318.54 651.516 1317.62 650.719 1316.45 650.719Z" fill="white"/>
<path d="M1208.8 703.12V706.079H1210.7V707.207H1208.8V710.093H1207.4V703.12H1208.8ZM1205.25 704.028C1205.25 707.383 1202.98 709.507 1199.08 710.342L1198.5 709.214C1201.81 708.547 1203.52 707.002 1203.71 705.142H1199.08V704.028H1205.25ZM1208.85 710.649V711.704H1201.76V712.832H1208.71V713.843H1201.76V715.029H1209.15V716.084H1200.37V710.649H1208.85ZM1222.32 703.12V716.274H1220.92V703.12H1222.32ZM1215.3 704.102C1217.25 704.102 1218.68 705.889 1218.68 708.701C1218.68 711.528 1217.25 713.315 1215.3 713.315C1213.32 713.315 1211.9 711.528 1211.9 708.701C1211.9 705.889 1213.32 704.102 1215.3 704.102ZM1215.3 705.347C1214.08 705.347 1213.25 706.636 1213.25 708.701C1213.25 710.781 1214.08 712.07 1215.3 712.07C1216.5 712.07 1217.34 710.781 1217.34 708.701C1217.34 706.636 1216.5 705.347 1215.3 705.347ZM1234.49 703.853V704.966H1230.01V708.159C1232.48 708.167 1233.98 708.057 1235.68 707.72L1235.84 708.818C1234.02 709.214 1232.42 709.272 1229.67 709.272H1228.63V703.853H1234.49ZM1238.39 703.12V705.801H1240.29V706.943H1238.39V709.712H1236.99V703.12H1238.39ZM1238.39 710.327V713.682H1231.3V714.956H1238.84V716.084H1229.93V712.612H1237.01V711.44H1229.9V710.327H1238.39ZM1252.23 703.135V710.928H1250.91V707.515H1249.3V710.781H1248V703.369H1249.3V706.372H1250.91V703.135H1252.23ZM1252.23 711.514V716.084H1243.45V711.514H1252.23ZM1244.85 712.627V714.956H1250.87V712.627H1244.85ZM1246.57 703.955V707.646H1242.97V709.287C1244.6 709.272 1245.83 709.199 1247.28 708.921L1247.42 710.034C1245.77 710.342 1244.41 710.386 1242.49 710.386H1241.62V706.577H1245.24V705.068H1241.59V703.955H1246.57ZM1264.87 703.12V716.274H1263.48V703.12H1264.87ZM1257.85 704.102C1259.8 704.102 1261.24 705.889 1261.24 708.701C1261.24 711.528 1259.8 713.315 1257.85 713.315C1255.88 713.315 1254.46 711.528 1254.46 708.701C1254.46 705.889 1255.88 704.102 1257.85 704.102ZM1257.85 705.347C1256.64 705.347 1255.8 706.636 1255.8 708.701C1255.8 710.781 1256.64 712.07 1257.85 712.07C1259.05 712.07 1259.89 710.781 1259.89 708.701C1259.89 706.636 1259.05 705.347 1257.85 705.347ZM1281.58 703.12V716.274H1280.19V709.448H1277.48V708.32H1280.19V703.12H1281.58ZM1275.29 707.339C1275.29 709.419 1276.62 711.543 1278.64 712.437L1277.86 713.506C1276.36 712.839 1275.2 711.47 1274.63 709.814C1274.05 711.565 1272.9 713.03 1271.39 713.726L1270.63 712.656C1272.62 711.748 1273.91 709.507 1273.91 707.339V706.475H1270.99V705.361H1273.92V703.384H1275.31V705.361H1278.16V706.475H1275.29V707.339ZM1289.57 703.398C1292.45 703.398 1294.25 704.336 1294.25 705.918C1294.25 707.471 1292.45 708.394 1289.57 708.394C1286.7 708.394 1284.88 707.471 1284.88 705.918C1284.88 704.336 1286.7 703.398 1289.57 703.398ZM1289.57 704.497C1287.55 704.497 1286.3 705.01 1286.32 705.918C1286.3 706.797 1287.55 707.295 1289.57 707.31C1291.57 707.295 1292.82 706.797 1292.82 705.918C1292.82 705.01 1291.57 704.497 1289.57 704.497ZM1294.09 711.704V716.084H1285.03V711.704H1294.09ZM1286.4 712.817V714.956H1292.75V712.817H1286.4ZM1295.56 709.404V710.532H1283.59V709.404H1295.56ZM1307.42 703.12V716.274H1306.03V703.12H1307.42ZM1300.41 704.102C1302.36 704.102 1303.79 705.889 1303.79 708.701C1303.79 711.528 1302.36 713.315 1300.41 713.315C1298.43 713.315 1297.01 711.528 1297.01 708.701C1297.01 705.889 1298.43 704.102 1300.41 704.102ZM1300.41 705.347C1299.19 705.347 1298.36 706.636 1298.36 708.701C1298.36 710.781 1299.19 712.07 1300.41 712.07C1301.61 712.07 1302.44 710.781 1302.44 708.701C1302.44 706.636 1301.61 705.347 1300.41 705.347ZM1320.4 703.135V712.744H1319.01V703.135H1320.4ZM1320.8 714.839V715.967H1311.82V711.836H1313.22V714.839H1320.8ZM1314.29 705.156C1314.28 707.075 1315.51 708.833 1317.53 709.536L1316.81 710.649C1315.3 710.085 1314.18 708.972 1313.59 707.544C1313.01 709.067 1311.88 710.291 1310.34 710.884L1309.59 709.785C1311.66 709.023 1312.87 707.134 1312.87 705.156V703.853H1314.29V705.156ZM1332.71 703.12V708.35H1334.74V709.507H1332.71V716.23H1331.32V703.12H1332.71ZM1329.28 704.497C1329.26 708.291 1327.59 711.675 1323.27 713.813L1322.5 712.729C1325.79 711.089 1327.57 708.716 1327.86 705.654H1323.16V704.497H1329.28ZM1347.46 713.447V714.604H1335.45V713.447H1338.32V710.02C1337.24 709.426 1336.59 708.481 1336.59 707.31C1336.59 705.244 1338.61 703.882 1341.42 703.882C1344.25 703.882 1346.27 705.244 1346.27 707.31C1346.27 708.467 1345.64 709.397 1344.59 709.99V713.447H1347.46ZM1341.42 704.995C1339.36 704.995 1337.94 705.889 1337.94 707.31C1337.94 708.716 1339.36 709.639 1341.42 709.639C1343.47 709.639 1344.92 708.716 1344.92 707.31C1344.92 705.889 1343.47 704.995 1341.42 704.995ZM1339.69 713.447H1343.18V710.518C1342.65 710.657 1342.05 710.723 1341.42 710.723C1340.81 710.723 1340.22 710.657 1339.69 710.532V713.447ZM1350.56 711.851C1350.58 709.932 1351.15 709.346 1352.12 708.745C1352.73 708.364 1353.2 707.837 1353.2 707.061C1353.2 706.138 1352.5 705.566 1351.62 705.566C1350.83 705.566 1350.07 706.05 1349.99 707.134H1348.41C1348.47 705.273 1349.88 704.248 1351.62 704.248C1353.52 704.248 1354.8 705.391 1354.8 707.061C1354.8 708.232 1354.24 709.023 1353.3 709.595C1352.42 710.122 1352.09 710.664 1352.06 711.851V711.938H1350.56V711.851ZM1351.37 715.103C1350.8 715.103 1350.31 714.634 1350.33 714.062C1350.31 713.491 1350.8 713.022 1351.37 713.022C1351.93 713.022 1352.41 713.491 1352.41 714.062C1352.41 714.634 1351.93 715.103 1351.37 715.103Z" fill="#1F2937"/>
<path d="M1371.34 716.245H1369.95V703.12H1371.34V716.245ZM1360.56 712.671C1362.13 712.661 1363.33 712.644 1364.16 712.62V711.309C1363.65 711.245 1363.2 711.106 1362.82 710.891C1362.44 710.676 1362.15 710.4 1361.94 710.063C1361.74 709.727 1361.64 709.346 1361.64 708.921C1361.64 708.433 1361.77 708.003 1362.03 707.632C1362.29 707.261 1362.67 706.973 1363.15 706.768C1363.63 706.562 1364.19 706.46 1364.82 706.46C1365.45 706.46 1366.02 706.562 1366.5 706.768C1367 706.973 1367.38 707.261 1367.65 707.632C1367.92 708.003 1368.06 708.433 1368.06 708.921C1368.06 709.341 1367.95 709.719 1367.74 710.056C1367.54 710.388 1367.24 710.662 1366.86 710.876C1366.49 711.091 1366.04 711.233 1365.54 711.301V712.568C1366.83 712.515 1368.03 712.417 1369.14 712.275L1369.24 713.315C1367.95 713.53 1366.62 713.669 1365.24 713.733C1363.87 713.796 1362.37 713.828 1360.75 713.828L1360.56 712.671ZM1368.85 705.801H1360.83V704.688H1364.16V703.149H1365.55V704.688H1368.85V705.801ZM1364.82 707.544C1364.45 707.544 1364.13 707.603 1363.85 707.72C1363.56 707.832 1363.34 707.993 1363.19 708.203C1363.03 708.408 1362.95 708.647 1362.96 708.921C1362.95 709.194 1363.03 709.434 1363.19 709.639C1363.34 709.839 1363.56 709.995 1363.85 710.107C1364.13 710.215 1364.45 710.269 1364.82 710.269C1365.2 710.269 1365.53 710.215 1365.82 710.107C1366.1 709.995 1366.33 709.839 1366.48 709.639C1366.64 709.434 1366.72 709.194 1366.72 708.921C1366.72 708.647 1366.64 708.408 1366.48 708.203C1366.32 707.993 1366.1 707.832 1365.81 707.72C1365.52 707.603 1365.19 707.544 1364.82 707.544ZM1384.36 713.081H1382.97V711.821H1380.33V710.84H1382.97V703.135H1384.36V713.081ZM1384.68 715.967H1375.21V712.114H1376.58V714.839H1384.68V715.967ZM1373.39 709.126C1375.1 709.116 1376.63 709.087 1377.99 709.038C1379.35 708.989 1380.65 708.887 1381.88 708.73L1381.97 709.727C1380.89 709.902 1379.74 710.029 1378.52 710.107V712.671H1377.12V710.188C1376.18 710.222 1375.22 710.239 1374.24 710.239H1373.56L1373.39 709.126ZM1377.68 703.633C1378.32 703.633 1378.88 703.73 1379.37 703.926C1379.87 704.116 1380.25 704.387 1380.52 704.739C1380.8 705.085 1380.93 705.488 1380.93 705.947C1380.93 706.406 1380.8 706.809 1380.52 707.156C1380.25 707.498 1379.87 707.764 1379.37 707.954C1378.88 708.14 1378.32 708.232 1377.68 708.232C1377.04 708.232 1376.47 708.14 1375.97 707.954C1375.48 707.764 1375.1 707.498 1374.82 707.156C1374.55 706.809 1374.41 706.406 1374.41 705.947C1374.41 705.488 1374.55 705.085 1374.82 704.739C1375.1 704.387 1375.48 704.116 1375.97 703.926C1376.47 703.73 1377.04 703.633 1377.68 703.633ZM1377.68 704.673C1377.29 704.668 1376.95 704.717 1376.66 704.819C1376.36 704.922 1376.13 705.071 1375.97 705.266C1375.81 705.461 1375.73 705.688 1375.73 705.947C1375.73 706.201 1375.81 706.423 1375.97 706.614C1376.13 706.804 1376.35 706.951 1376.65 707.053C1376.95 707.156 1377.29 707.207 1377.68 707.207C1378.06 707.207 1378.39 707.156 1378.68 707.053C1378.97 706.951 1379.2 706.804 1379.36 706.614C1379.52 706.423 1379.61 706.201 1379.61 705.947C1379.61 705.688 1379.52 705.461 1379.36 705.266C1379.2 705.071 1378.97 704.922 1378.68 704.819C1378.39 704.717 1378.06 704.668 1377.68 704.673ZM1396.64 708.35H1398.67V709.507H1396.64V716.23H1395.24V703.12H1396.64V708.35ZM1393.21 704.497C1393.2 706.499 1392.71 708.296 1391.75 709.888C1390.79 711.479 1389.27 712.788 1387.2 713.813L1386.43 712.729C1388.07 711.909 1389.33 710.908 1390.23 709.727C1391.13 708.545 1391.65 707.188 1391.79 705.654H1387.08V704.497H1393.21ZM1410.26 710.166H1408.87V703.12H1410.26V710.166ZM1403.04 712.275H1408.88V710.796H1410.26V716.084H1401.67V710.796H1403.04V712.275ZM1408.88 714.941V713.374H1403.04V714.941H1408.88ZM1403.14 703.721C1403.8 703.721 1404.4 703.85 1404.93 704.109C1405.46 704.368 1405.87 704.729 1406.17 705.193C1406.47 705.652 1406.63 706.177 1406.63 706.768C1406.63 707.358 1406.47 707.886 1406.17 708.35C1405.87 708.809 1405.46 709.167 1404.93 709.426C1404.4 709.68 1403.8 709.805 1403.14 709.8C1402.48 709.805 1401.88 709.68 1401.35 709.426C1400.81 709.167 1400.4 708.809 1400.09 708.35C1399.79 707.886 1399.64 707.358 1399.64 706.768C1399.64 706.177 1399.79 705.652 1400.09 705.193C1400.4 704.729 1400.81 704.368 1401.35 704.109C1401.88 703.85 1402.48 703.721 1403.14 703.721ZM1403.14 704.893C1402.73 704.888 1402.36 704.966 1402.03 705.127C1401.71 705.283 1401.46 705.505 1401.27 705.793C1401.09 706.077 1401 706.401 1401 706.768C1401 707.139 1401.09 707.468 1401.27 707.756C1401.46 708.04 1401.71 708.262 1402.03 708.423C1402.36 708.579 1402.73 708.657 1403.14 708.657C1403.54 708.657 1403.91 708.579 1404.23 708.423C1404.55 708.262 1404.8 708.04 1404.99 707.756C1405.17 707.468 1405.26 707.139 1405.26 706.768C1405.26 706.401 1405.17 706.077 1404.99 705.793C1404.8 705.505 1404.55 705.283 1404.23 705.127C1403.91 704.966 1403.54 704.888 1403.14 704.893Z" fill="#34B17B"/>
<path d="M1360 717.351H1411.86V718.486H1360V717.351Z" fill="#34B17B"/>
<path d="M555.656 290L550.875 273.031H554.156L557.227 285.523H557.391L560.648 273.031H563.648L566.93 285.547H567.07L570.141 273.031H573.422L568.641 290H565.617L562.219 278.07H562.102L558.68 290H555.656ZM579.562 290.258C575.719 290.258 573.375 287.703 573.375 283.719C573.375 279.781 575.766 277.109 579.398 277.109C582.516 277.109 585.211 279.055 585.211 283.531V284.469H576.328C576.363 286.637 577.641 287.914 579.586 287.914C580.898 287.914 581.789 287.352 582.164 286.602H585.094C584.555 288.805 582.516 290.258 579.562 290.258ZM576.352 282.43H582.352C582.328 280.695 581.18 279.43 579.445 279.43C577.641 279.43 576.445 280.801 576.352 282.43ZM590.531 273.031V290H587.531V273.031H590.531ZM598.945 290.258C595.148 290.258 592.852 287.539 592.852 283.695C592.852 279.805 595.219 277.109 598.945 277.109C602.039 277.109 604.195 278.914 604.406 281.656H601.547C601.312 280.438 600.422 279.5 598.969 279.5C597.117 279.5 595.875 281.07 595.875 283.625C595.875 286.25 597.094 287.82 598.969 287.82C600.305 287.82 601.289 287.047 601.547 285.664H604.406C604.172 288.359 602.133 290.258 598.945 290.258ZM612.211 290.258C608.508 290.258 606.117 287.633 606.117 283.695C606.117 279.734 608.508 277.109 612.211 277.109C615.938 277.109 618.305 279.734 618.305 283.695C618.305 287.633 615.938 290.258 612.211 290.258ZM612.234 287.867C614.273 287.867 615.281 286.016 615.281 283.672C615.281 281.352 614.273 279.477 612.234 279.477C610.148 279.477 609.141 281.352 609.141 283.672C609.141 286.016 610.148 287.867 612.234 287.867ZM620.625 290V277.273H623.484V279.43H623.648C624.164 277.977 625.453 277.109 627.141 277.109C628.875 277.109 630.094 277.977 630.586 279.43H630.727C631.289 278.023 632.695 277.109 634.547 277.109C636.867 277.109 638.508 278.609 638.508 281.445V290H635.531V281.914C635.531 280.32 634.57 279.617 633.352 279.617C631.875 279.617 631.031 280.625 631.031 282.055V290H628.125V281.797C628.125 280.484 627.234 279.617 625.969 279.617C624.68 279.617 623.625 280.672 623.625 282.266V290H620.625ZM647.016 290.258C643.172 290.258 640.828 287.703 640.828 283.719C640.828 279.781 643.219 277.109 646.852 277.109C649.969 277.109 652.664 279.055 652.664 283.531V284.469H643.781C643.816 286.637 645.094 287.914 647.039 287.914C648.352 287.914 649.242 287.352 649.617 286.602H652.547C652.008 288.805 649.969 290.258 647.016 290.258ZM643.805 282.43H649.805C649.781 280.695 648.633 279.43 646.898 279.43C645.094 279.43 643.898 280.801 643.805 282.43ZM667.031 277.273V279.57H664.523V286.18C664.523 287.398 665.133 287.656 665.883 287.656C666.234 287.656 666.82 287.633 667.195 287.609V290.047C666.844 290.117 666.258 290.164 665.508 290.164C663.258 290.164 661.523 289.062 661.547 286.672V279.57H659.719V277.273H661.547V274.227H664.523V277.273H667.031ZM674.742 290.258C671.039 290.258 668.648 287.633 668.648 283.695C668.648 279.734 671.039 277.109 674.742 277.109C678.469 277.109 680.836 279.734 680.836 283.695C680.836 287.633 678.469 290.258 674.742 290.258ZM674.766 287.867C676.805 287.867 677.812 286.016 677.812 283.672C677.812 281.352 676.805 279.477 674.766 279.477C672.68 279.477 671.672 281.352 671.672 283.672C671.672 286.016 672.68 287.867 674.766 287.867ZM706.406 270.898V292.086H703.898V270.898H706.406ZM702.047 271.273V291.055H699.562V280.977H697.547C697.301 285.102 695.531 287.656 692.906 287.633C690.141 287.656 688.336 284.727 688.336 280.062C688.336 275.398 690.141 272.516 692.906 272.516C695.473 272.516 697.219 274.906 697.523 278.867H699.562V271.273H702.047ZM692.906 274.977C691.57 274.953 690.727 276.758 690.75 280.062C690.727 283.367 691.57 285.172 692.906 285.148C694.312 285.172 695.156 283.367 695.156 280.062C695.156 276.758 694.312 274.953 692.906 274.977ZM726.633 270.898V292.109H724.055V280.625H719.742V286.977H709.664V272.539H712.289V277.812H717.188V272.539H719.742V278.492H724.055V270.898H726.633ZM712.289 284.891H717.188V279.852H712.289V284.891ZM747.258 270.922V283.836H744.633V270.922H747.258ZM740.461 272.188V278.398H733.289V280.672C736.922 280.66 739.488 280.543 742.523 280.086L742.852 282.172C739.5 282.711 736.641 282.805 732.539 282.805H730.734V276.453H737.883V274.32H730.688V272.188H740.461ZM740.133 284.211C744.633 284.211 747.375 285.641 747.375 288.148C747.375 290.609 744.633 292.062 740.133 292.062C735.609 292.062 732.891 290.609 732.891 288.148C732.891 285.641 735.609 284.211 740.133 284.211ZM740.133 286.25C737.133 286.25 735.469 286.906 735.469 288.148C735.469 289.367 737.133 290.023 740.133 290.023C743.109 290.023 744.773 289.367 744.773 288.148C744.773 286.906 743.109 286.25 740.133 286.25ZM754.711 273.031L754.453 285.008H751.805L751.523 273.031H754.711ZM753.141 290.188C752.133 290.188 751.312 289.367 751.312 288.359C751.312 287.375 752.133 286.555 753.141 286.555C754.102 286.555 754.945 287.375 754.945 288.359C754.945 289.367 754.102 290.188 753.141 290.188Z" fill="#1F2937"/>
<path d="M500.312 310.344V320.656H498.828V315.797H495.922V314.562H498.828V310.344H500.312ZM496.016 311.391C496 315.047 493.484 317.797 489.469 319.094L488.844 317.906C491.961 316.898 494.078 314.992 494.391 312.625H489.562V311.391H496.016ZM500.672 322.828V324.031H491.297V319.594H492.797V322.828H500.672ZM513.469 310.328V313.859H515.5V315.062H513.469V318.641H511.984V310.328H513.469ZM509.625 311.328C509.625 314.953 507.172 317.562 503.062 318.75L502.453 317.547C505.727 316.617 507.75 314.797 508.016 312.531H503.078V311.328H509.625ZM509 318.797C511.828 318.797 513.625 319.844 513.625 321.547C513.625 323.266 511.828 324.312 509 324.312C506.188 324.312 504.344 323.266 504.359 321.547C504.344 319.844 506.188 318.797 509 318.797ZM509 319.969C507.047 319.969 505.812 320.562 505.828 321.547C505.812 322.531 507.047 323.141 509 323.141C510.938 323.141 512.172 322.531 512.172 321.547C512.172 320.562 510.938 319.969 509 319.969ZM522.672 310.562C525.828 310.562 527.672 311.406 527.672 312.969C527.672 314.531 525.828 315.391 522.672 315.391C519.516 315.391 517.672 314.531 517.672 312.969C517.672 311.406 519.516 310.562 522.672 310.562ZM522.672 311.656C520.438 311.656 519.203 312.141 519.219 312.969C519.203 313.828 520.438 314.281 522.672 314.281C524.906 314.281 526.141 313.828 526.141 312.969C526.141 312.141 524.906 311.656 522.672 311.656ZM529.062 316.25V317.438H516.297V316.25H529.062ZM527.453 318.516V321.797H519.297V323.047H527.844V324.188H517.844V320.719H525.984V319.625H517.828V318.516H527.453ZM538.625 310.969C540.734 310.969 542.266 312.141 542.266 313.875C542.266 315.594 540.734 316.781 538.625 316.766C536.516 316.781 535.016 315.594 535.016 313.875C535.016 312.141 536.516 310.969 538.625 310.969ZM538.625 312.172C537.359 312.172 536.438 312.844 536.453 313.875C536.438 314.891 537.359 315.562 538.625 315.547C539.922 315.562 540.844 314.891 540.844 313.875C540.844 312.844 539.922 312.172 538.625 312.172ZM545.672 310.344V324.328H544.203V310.344H545.672ZM534.016 317.859C536.594 317.859 540.172 317.797 543.234 317.344L543.344 318.453C542.07 318.695 540.742 318.844 539.453 318.938V323.891H537.969V319.016C536.609 319.078 535.328 319.086 534.219 319.094L534.016 317.859ZM558.859 310.344V314.844H560.891V316.078H558.859V320.812H557.375V310.344H558.859ZM556.219 311.969V313.172H547.875V311.969H551.312V310.328H552.797V311.969H556.219ZM552.047 313.844C554.062 313.844 555.438 314.891 555.438 316.484C555.438 318.078 554.062 319.109 552.047 319.109C550.016 319.109 548.641 318.078 548.641 316.484C548.641 314.891 550.016 313.844 552.047 313.844ZM552.047 314.984C550.859 314.984 550.062 315.562 550.078 316.484C550.062 317.391 550.859 317.953 552.047 317.953C553.234 317.953 554.031 317.391 554.047 316.484C554.031 315.562 553.234 314.984 552.047 314.984ZM559.453 322.828V324.031H549.984V319.984H551.469V322.828H559.453ZM577.281 310.328V324.359H575.797V316.578H572.906V315.359H575.797V310.328H577.281ZM570.594 314.266C570.594 316.641 572.078 319.188 574.234 320.141L573.344 321.328C571.727 320.547 570.477 318.914 569.859 317C569.234 319.039 567.961 320.781 566.344 321.609L565.438 320.453C567.578 319.438 569.078 316.781 569.094 314.266V312.953H566V311.734H573.703V312.953H570.594V314.266ZM592.219 317.281V318.5H579.422V317.281H585.062V315.234H586.531V317.281H592.219ZM586.547 311.141C586.547 312.922 588.734 314.484 591.438 314.828L590.859 316C588.633 315.648 586.672 314.562 585.797 313.016C584.898 314.562 582.938 315.648 580.703 316L580.156 314.828C582.844 314.484 585.031 312.906 585.047 311.141V310.547H586.547V311.141ZM590.625 319.734V324.328H589.125V320.906H580.844V319.734H590.625ZM604.609 316.578V317.797H600.375V321.359H606.062V322.578H593.25V321.359H598.891V317.797H594.781V311.484H596.281V316.578H604.609ZM618.047 310.328V316.188H620.156V317.438H618.047V324.328H616.562V310.328H618.047ZM606.906 320.516C608.008 320.516 609.289 320.516 610.625 320.469V319.047C609.047 318.828 608.016 317.875 608.031 316.516C608.016 314.938 609.375 313.891 611.375 313.891C613.359 313.891 614.734 314.938 614.75 316.516C614.734 317.875 613.688 318.836 612.109 319.062V320.406C613.352 320.359 614.602 320.258 615.766 320.094L615.859 321.188C612.828 321.734 609.547 321.75 607.141 321.75L606.906 320.516ZM615.562 311.984V313.172H607.172V311.984H610.625V310.359H612.109V311.984H615.562ZM611.375 315.047C610.203 315.047 609.422 315.625 609.422 316.516C609.422 317.406 610.203 317.953 611.375 317.953C612.547 317.953 613.328 317.406 613.328 316.516C613.328 315.625 612.547 315.047 611.375 315.047ZM623.422 321.922L622.172 326.234H620.844L621.672 321.922H623.422ZM640.5 310.328V324.359H639.016V310.328H640.5ZM633.016 311.375C635.094 311.375 636.625 313.281 636.625 316.281C636.625 319.297 635.094 321.203 633.016 321.203C630.906 321.203 629.391 319.297 629.391 316.281C629.391 313.281 630.906 311.375 633.016 311.375ZM633.016 312.703C631.719 312.703 630.828 314.078 630.828 316.281C630.828 318.5 631.719 319.875 633.016 319.875C634.297 319.875 635.188 318.5 635.188 316.281C635.188 314.078 634.297 312.703 633.016 312.703ZM654.75 310.328V324.328H653.328V310.328H654.75ZM651.906 310.625V323.625H650.5V316.5H648.328V315.281H650.5V310.625H651.906ZM646.953 314.234C646.953 316.625 647.922 319.016 649.891 320.156L649 321.25C647.664 320.453 646.742 319.039 646.266 317.344C645.758 319.172 644.805 320.727 643.438 321.578L642.531 320.469C644.516 319.266 645.531 316.719 645.531 314.234V313.109H642.953V311.906H649.359V313.109H646.953V314.234ZM667.891 314.422V315.609H658.25V310.828H659.719V314.422H667.891ZM669.359 317.375V318.562H656.547V317.375H669.359ZM667.984 322.781V324H658.141V319.891H659.625V322.781H667.984ZM686.344 310.328V324.328H684.922V310.328H686.344ZM683.5 310.594V323.641H682.078V316.891H680.5C680.375 319.625 679.203 321.328 677.469 321.312C675.641 321.328 674.453 319.406 674.453 316.375C674.453 313.344 675.641 311.438 677.469 311.453C679.172 311.438 680.328 313.055 680.5 315.688H682.078V310.594H683.5ZM677.469 312.844C676.453 312.844 675.828 314.141 675.828 316.375C675.828 318.609 676.453 319.906 677.469 319.906C678.5 319.906 679.141 318.609 679.141 316.375C679.141 314.141 678.5 312.844 677.469 312.844ZM699.797 310.328V324.359H698.328V316.656H695.234V320.891H688.672V311.406H690.172V314.984H693.781V311.406H695.234V315.438H698.328V310.328H699.797ZM690.172 319.672H693.781V316.156H690.172V319.672ZM713.562 310.344V318.922H712.078V310.344H713.562ZM709.094 311.203V315.172H704.141V316.922C706.586 316.898 708.391 316.828 710.516 316.5L710.703 317.703C708.422 318.078 706.5 318.141 703.859 318.141H702.688V314.031H707.625V312.422H702.656V311.203H709.094ZM708.891 319.188C711.844 319.188 713.656 320.109 713.656 321.75C713.656 323.359 711.844 324.312 708.891 324.297C705.922 324.312 704.125 323.359 704.125 321.75C704.125 320.109 705.922 319.188 708.891 319.188ZM708.891 320.359C706.812 320.359 705.594 320.859 705.594 321.75C705.594 322.641 706.812 323.125 708.891 323.125C710.969 323.125 712.172 322.641 712.172 321.75C712.172 320.859 710.969 320.359 708.891 320.359ZM723.578 311.828V312.688C723.578 313.859 723.578 315.672 723.172 318.172L721.703 318.062C722.055 315.82 722.094 314.203 722.109 313.031H716.422V311.828H723.578ZM719.984 315.828V320.016C721.477 319.969 722.992 319.867 724.391 319.688L724.469 320.797C721.547 321.266 718.297 321.328 715.812 321.312L715.641 320.109C716.516 320.102 717.492 320.094 718.516 320.062V315.828H719.984ZM726.688 310.328V316.109H728.828V317.375H726.688V324.328H725.188V310.328H726.688ZM744.516 310.328V313.953H746.547V315.219H744.516V318.766H743.031V310.328H744.516ZM744.516 319.5V324.156H735.578V319.5H744.516ZM737.031 320.672V322.953H743.047V320.672H737.031ZM741.875 311.75V312.938H733.531V311.75H736.969V310.219H738.453V311.75H741.875ZM737.703 313.547C739.719 313.547 741.094 314.547 741.094 316.047C741.094 317.562 739.719 318.547 737.703 318.562C735.656 318.547 734.297 317.562 734.297 316.047C734.297 314.547 735.656 313.547 737.703 313.547ZM737.703 314.688C736.516 314.672 735.719 315.203 735.734 316.047C735.719 316.922 736.516 317.438 737.703 317.438C738.891 317.438 739.688 316.922 739.703 316.047C739.688 315.203 738.891 314.672 737.703 314.688ZM750.812 311.984C750.797 315.125 750.406 318.359 748.453 321.109L747.297 320.453C748.93 318.266 749.422 315.844 749.531 313.203H747.625V311.984H750.812ZM753.922 311.984C753.922 313.164 753.898 314.453 753.75 315.75H755.391V310.688H756.797V323.641H755.391V316.953H753.578C753.258 318.695 752.672 320.422 751.594 321.953L750.438 321.281C752.25 318.852 752.578 315.906 752.641 313.203H751.234V311.984H753.922ZM759.453 310.328V324.328H758.031V310.328H759.453ZM772 312.641V313.844H765.047V312.641H767.797V310.734H769.266V312.641H772ZM768.531 314.688C770.312 314.688 771.562 316.016 771.578 317.906C771.562 319.812 770.312 321.156 768.531 321.156C766.781 321.156 765.484 319.812 765.5 317.906C765.484 316.016 766.781 314.688 768.531 314.688ZM768.531 315.922C767.516 315.922 766.812 316.75 766.812 317.906C766.812 319.094 767.516 319.891 768.531 319.891C769.531 319.891 770.266 319.094 770.266 317.906C770.266 316.75 769.531 315.922 768.531 315.922ZM777.062 310.328V324.328H775.656V317.375H774.047V323.672H772.641V310.641H774.047V316.156H775.656V310.328H777.062ZM791.719 321.359V322.594H778.906V321.359H784.547V318.484H780.375V311.281H781.859V313.688H788.734V311.281H790.203V318.484H786.016V321.359H791.719ZM781.859 317.281H788.734V314.891H781.859V317.281ZM797 314.156C797 316.391 797.938 318.781 799.812 319.922L798.984 321.062C797.672 320.273 796.781 318.875 796.312 317.25C795.789 319.031 794.828 320.547 793.469 321.375L792.547 320.266C794.531 319.078 795.562 316.609 795.562 314.219V311.609H797V314.156ZM804.781 310.328V324.328H803.359V310.328H804.781ZM801.875 310.594V323.641H800.469V316.484H798.297V315.25H800.469V310.594H801.875ZM819.375 321.344V322.578H806.562V321.344H809.625V317.688C808.477 317.055 807.781 316.047 807.781 314.797C807.781 312.594 809.938 311.141 812.938 311.141C815.953 311.141 818.109 312.594 818.109 314.797C818.109 316.031 817.438 317.023 816.312 317.656V321.344H819.375ZM812.938 312.328C810.734 312.328 809.219 313.281 809.219 314.797C809.219 316.297 810.734 317.281 812.938 317.281C815.125 317.281 816.672 316.297 816.672 314.797C816.672 313.281 815.125 312.328 812.938 312.328ZM811.094 321.344H814.812V318.219C814.242 318.367 813.609 318.438 812.938 318.438C812.281 318.438 811.656 318.367 811.094 318.234V321.344Z" fill="#1F2937"/>
<path d="M845.825 447.312C838.447 451.336 834.554 461.09 834.349 475.959C834.144 487.281 835.715 487.417 844.8 477.05C855.115 465.25 859.418 452.837 854.705 448.199C852.86 446.357 848.352 445.88 845.825 447.312ZM851.631 449.904C853.339 451.609 853.475 455.974 851.972 460.135C850.675 463.818 845.756 471.048 841.385 475.822L837.901 479.574L838.242 472.412C838.857 460.817 841.658 453.519 846.781 450.109C849.582 448.199 849.923 448.199 851.631 449.904Z" fill="#1F2937"/>
<path d="M808.391 471.935C803.678 476.573 804.293 489.873 810.031 507.675C812.012 513.745 812.216 514.086 813.856 513.882C815.427 513.677 815.905 512.995 817.271 508.903C820.072 500.718 821.711 492.738 821.78 486.736C821.985 476.368 819.252 471.253 813.173 470.571C810.509 470.23 809.826 470.434 808.391 471.935ZM814.949 474.322C818.706 478.483 819.184 487.349 816.315 499.081C815.29 503.173 814.266 506.515 813.992 506.515C813.446 506.515 812.08 502.218 810.235 494.579C808.664 488.1 808.664 478.21 810.167 475.277C811.533 472.822 813.241 472.48 814.949 474.322Z" fill="#1F2937"/>
<path d="M842.409 500.308C837.354 502.695 832.231 509.107 826.767 520.088C823.556 526.363 818.843 537.481 818.843 538.64C818.843 541.164 829.909 536.116 838.652 529.637C848.762 522.134 853.27 515.314 853.339 507.402C853.339 503.718 853.065 502.9 851.563 501.399C849.24 499.08 845.825 498.671 842.409 500.308ZM848.625 503.173C851.972 506.856 848.694 516.132 841.59 523.021C837.286 527.25 824.786 535.571 824.444 534.548C824.034 533.388 832.095 517.291 835.715 511.903C839.54 506.242 844.117 501.74 846.03 501.74C846.781 501.74 847.874 502.354 848.625 503.173Z" fill="#1F2937"/>
<path d="M795.14 563.74C784.757 565.445 776.15 569.674 768.978 576.767C763.376 582.292 760.781 587.135 760.781 592.318C760.781 597.025 762.352 600.298 765.699 602.754C771.505 606.914 779.224 606.71 785.099 602.276L788.104 599.957L788.514 602.754C789.06 606.028 791.246 609.506 793.569 610.666C797.804 612.78 805.386 610.87 808.87 606.71C810.578 604.732 810.578 604.732 811.329 606.096C811.944 607.255 811.807 608.483 810.646 611.757C804.157 631.059 778.609 650.362 741.518 664.071C733.799 666.868 731.203 668.846 735.165 668.846C738.034 668.846 753.608 662.707 764.879 657.182C789.402 645.178 809.211 627.786 813.652 614.417L814.813 611.075L818.843 611.143C821.234 611.143 823.215 610.87 823.761 610.325C826.425 607.665 826.22 610.461 823.215 619.533C815.769 641.904 801.493 660.525 782.025 673.484C776.902 676.894 776.423 677.372 777.721 677.917C778.814 678.395 780.044 677.985 783.323 676.007C797.872 667.209 812.832 650.703 820.961 634.674C823.761 629.081 829.089 614.349 829.089 612.166C829.089 610.529 829.909 610.529 831.48 612.235C834.622 615.713 841.248 615.372 845.21 611.484L847.464 609.302L848.421 611.689C848.967 613.053 849.787 614.349 850.197 614.554C851.153 615.167 851.153 623.216 850.265 629.627C847.259 650.43 836.125 669.187 819.936 680.714C815.154 684.124 814.744 684.806 816.589 685.488C818.092 686.102 823.898 682.078 830.387 676.007C844.8 662.503 853.271 644.223 854.159 624.989L854.568 617.009H857.916C861.672 617.009 865.976 615.167 867.615 612.78C870.348 608.961 867.342 608.279 863.722 611.894C861.741 613.871 860.853 614.281 858.325 614.281C855.866 614.281 854.91 613.871 853.271 612.166C851.358 610.188 851.29 609.847 851.29 603.641C851.29 597.229 851.29 597.161 849.65 597.366C848.352 597.502 847.806 598.32 846.85 601.458C845.62 605.482 843.434 609.097 841.112 611.007C837.355 614.076 832.71 610.87 831.958 604.664C831.685 602.617 831.685 599.275 831.89 597.229C832.095 595.183 832.163 593.273 832.027 592.932C831.548 592.114 829.089 592.387 828.816 593.273C828.679 593.751 827.996 596.274 827.382 598.866C825.879 604.664 822.395 608.824 818.98 608.824C815.837 608.824 814.54 606.437 814.061 599.685C813.788 594.91 813.515 594.16 812.49 594.16C811.602 594.16 810.851 595.183 809.895 597.911C806.616 607.255 798.965 611.825 794.32 607.187C792.613 605.482 792.544 605.005 792.476 598.389C792.476 592.591 792.271 591.363 791.383 591.227C790.768 591.091 789.744 591.841 788.992 592.864C784.006 600.094 778.199 603.982 773.691 603.095C767.885 601.935 763.65 596.342 764.469 590.886C765.972 581.61 777.721 571.106 790.836 567.491C796.984 565.786 819.663 565.718 828.884 567.491C841.112 569.742 849.855 573.016 858.189 578.541C869.05 585.702 874.719 593.887 876.7 605.141C880.321 626.08 867.547 658.683 848.352 677.303C844.732 680.782 844.459 681.805 847.054 681.805C849.582 681.805 858.735 671.71 864.815 662.298C880.457 638.085 885.376 608.756 876.495 592.523C869.186 579.086 852.041 568.992 829.772 565.036C821.166 563.535 801.288 562.785 795.14 563.74Z" fill="#1F2937"/>
<path d="M494.489 477.309C478.838 479.665 470.888 481.898 459.957 487.045C449.896 491.82 443.002 496.657 435.114 504.471C424.121 515.324 418.097 525.742 414.246 540.75C412.879 545.959 412.383 549.556 412.321 554.083L412.196 560.285L439.71 560.471L467.162 560.595V556.13C467.224 538.455 477.596 524.006 493.62 519.293C498.091 517.99 507.656 517.804 512.5 518.983C517.531 520.223 524.363 523.51 528.648 526.797C531.816 529.215 539.207 537.339 539.207 538.393C539.207 538.579 537.157 538.827 534.611 539.013C523.866 539.696 516.413 547.634 516.972 557.68L517.158 560.905L569.267 561.091C607.215 561.153 621.561 561.029 622.183 560.533C623.549 559.416 623.301 550.982 621.81 546.207C618.705 536.099 609.264 531.696 599.886 535.975L596.346 537.587V533.742C596.284 525.246 593.054 515.882 588.272 510.735C582.868 504.905 573.614 502.301 565.913 504.409L562.497 505.339L561.317 503.665C559.019 500.502 550.697 492.626 546.722 489.96C537.281 483.572 524.86 479.045 512.811 477.557C507.532 476.937 497.843 476.751 494.489 477.309ZM520.45 480.534C529.89 482.89 539.703 487.603 546.722 493.123C553.554 498.456 560.758 506.58 559.143 507.138C558.708 507.262 557.404 508.254 556.224 509.246L554.112 511.107L551.193 508.688C537.778 497.774 523.183 491.758 505.544 489.836C490.514 488.285 473.931 491.882 460.827 499.634C442.008 510.859 428.469 532.006 426.295 553.773L425.86 558.424L420.953 558.61C418.221 558.734 415.799 558.548 415.488 558.238C414.681 557.432 415.985 546.269 417.538 540.378C423.562 517.246 438.53 499.696 461.199 488.968C471.012 484.316 482.626 480.72 492.253 479.355C498.774 478.425 514.612 479.107 520.45 480.534ZM506.29 492.006C519.456 492.937 536.101 499.882 548.026 509.494L552.249 512.905L550.013 516.254L547.715 519.665L544.858 517.246C533.741 508.006 521.692 503.975 505.358 504.037C489.583 504.099 474.366 508.874 463.187 517.308C453.187 524.812 445.486 538.021 443.561 550.982C443.126 553.711 442.691 556.564 442.567 557.308C442.319 558.672 442.07 558.734 435.735 558.734H429.09L429.524 554.827C430.891 542.92 434.741 532.192 441.138 522.518C453.25 504.285 471.509 493.433 492.626 491.82C495.545 491.572 498.774 491.448 499.768 491.572C500.824 491.634 503.743 491.82 506.29 492.006ZM579.328 507.324C583.117 508.874 586.781 512.843 589.203 517.866C591.563 522.89 592.619 528.099 592.806 536.409C592.93 543.355 593.489 543.851 597.464 540.502C602.557 536.285 608.643 535.293 612.432 538.145C614.978 540.006 617.959 544.285 618.767 547.137C619.201 548.564 619.574 551.664 619.574 554.083L619.636 558.424L569.702 558.61L519.767 558.734L520.202 555.819C520.761 551.54 523.555 546.393 526.599 544.099C531.195 540.626 536.784 540.068 544.61 542.362C546.287 542.858 546.287 542.858 547.219 535.479C549.33 519.417 557.404 507.82 567.714 506.022C571.378 505.339 576.037 505.898 579.328 507.324ZM519.643 507.262C527.655 508.998 536.536 513.525 542.188 518.735C546.349 522.58 546.535 522.952 545.976 524.502C545.045 526.921 543.554 534.3 543.554 536.471C543.554 538.765 542.871 538.765 541.505 536.471C536.101 527.293 524.114 519.169 512.5 516.812C498.464 514.022 482.626 518.983 473.683 529.153C468.217 535.355 463.497 547.944 463.435 556.378V558.734H454.678H445.859L446.293 554.703C446.852 549.184 449.399 540.688 452.007 535.789C462.007 516.688 481.074 506.146 505.668 506.084C511.755 506.084 515.544 506.394 519.643 507.262Z" fill="#1F2937"/>
<path d="M561.353 403.524C560.172 403.241 559.092 403.924 558.144 405.443C557.038 407.214 556.871 411.026 557.656 416.936C558.314 422.164 558.952 422.511 562.671 419.856C564.189 418.793 566.624 416.744 568.119 415.315C570.604 412.946 570.784 412.657 571.067 411.076C571.305 409.568 571.178 409.288 570.019 408.567C568.68 407.733 566.473 407.966 565.158 409.105C564.246 409.843 563.893 409.522 564.099 408.145C564.242 407.029 563.163 404.249 562.393 403.871C562.212 403.758 561.71 403.596 561.353 403.524ZM561.636 409.674C561.274 412.912 561.37 413.725 561.994 414.013C562.583 414.279 563.27 413.903 564.756 412.569C566.942 410.517 568.429 409.585 568.936 409.9C569.805 410.441 566.485 414.148 562.148 417.472L560.02 419.11L559.532 416.347C558.79 411.818 559.619 405.658 561.066 405.353C561.97 405.113 562.075 405.831 561.636 409.674Z" fill="#1F2937"/>
<path d="M550.899 427.037C550.058 427.417 549.521 428.037 548.966 429.247L548.213 430.937L546.131 429.441C544.338 428.124 543.895 427.949 542.624 428.212C539.93 428.744 539.494 431.535 541.552 434.924C542.635 436.652 545.778 439.913 548.847 442.325L550.753 443.863L551.384 442.85C552.152 441.621 554.062 435.983 554.674 433.151C555.578 429.045 553.584 425.796 550.899 427.037ZM552.106 433.962C551.665 435.796 550.945 438.159 550.466 439.167C549.646 440.965 549.6 441.037 548.695 440.474C547.283 439.595 543.855 435.503 542.957 433.64C542.004 431.541 542.261 430.245 543.739 429.809C545.1 429.401 545.403 429.64 546.79 432.009C547.415 433.101 548.253 434.175 548.688 434.445C549.303 434.828 549.466 434.729 549.827 433.749C550.056 433.139 550.719 431.593 551.355 430.333L552.528 428.051L552.734 429.333C552.861 430.015 552.57 432.092 552.106 433.962Z" fill="#1F2937"/>
<path d="M567.397 456.179C566.705 456.401 565.919 457.016 565.377 457.883C564.542 459.221 564.461 459.271 563.75 458.477C562.391 457.029 560.88 456.39 559.65 456.829C556.264 457.985 557.463 461.944 562.956 467.722C564.387 469.215 565.8 470.495 566.121 470.545C566.931 470.697 570.257 465.288 571.013 462.546C572.058 458.778 570.132 455.421 567.397 456.179ZM568.332 462.734C567.8 464.311 566.948 466.24 566.429 467.072C565.549 468.482 565.49 468.495 564.684 467.692C562.827 465.834 560.856 462.951 560.398 461.511C559.34 458.293 561.419 456.976 562.824 459.959C564.094 462.758 564.452 463.231 565.072 463.366C565.429 463.438 565.777 463.202 565.858 462.751C566.114 461.455 567.666 458.404 568.348 457.875C568.985 457.418 569.035 457.5 569.177 458.642C569.268 459.301 568.9 461.18 568.332 462.734Z" fill="#1F2937"/>
<path d="M481.584 343.693C481.204 344.324 478.736 354.813 478.673 355.95C478.673 356.266 479.432 356.392 480.381 356.266C481.963 356.076 482.153 355.697 483.229 351.022C484.874 343.693 484.874 343.503 483.292 343.25C482.596 343.124 481.773 343.314 481.584 343.693Z" fill="#1F2937" stroke="#1F2937" stroke-width="0.842197"/>
<path d="M450.197 347.231C450.197 347.484 451.526 349.885 453.171 352.665C455.513 356.456 456.525 357.656 457.601 357.656C458.36 357.656 459.119 357.467 459.246 357.151C459.436 356.898 458.234 354.56 456.588 351.97C454.247 348.179 453.298 347.168 451.906 347.042C450.957 346.915 450.197 347.042 450.197 347.231Z" fill="#1F2937" stroke="#1F2937" stroke-width="0.842197"/>
<path d="M502.211 360.815C499.3 362.837 496.959 364.732 496.959 365.048C496.959 365.301 497.655 365.617 498.414 365.743C499.933 365.87 509.678 359.299 510.184 357.782C510.753 355.95 507.147 357.34 502.211 360.815Z" fill="#1F2937" stroke="#1F2937" stroke-width="0.842197"/>
<path d="M468.611 371.303C462.853 372.819 458.93 376.547 456.462 382.739C455.26 385.772 455.007 387.604 455.007 393.669C454.943 400.114 455.133 401.315 456.525 404.095C460.195 411.55 467.219 415.91 475.825 415.91C489.809 416.036 499.364 407.57 498.035 396.323C496.833 385.961 486.898 379.58 476.711 382.486C470.952 384.192 467.725 388.488 467.725 394.428C467.725 397.271 468.042 398.534 469.371 400.556C473.104 406.18 480.128 407.064 484.051 402.452C486.645 399.356 485.886 394.301 482.849 394.301C480.76 394.301 480.571 394.807 481.71 396.829C482.532 398.282 482.596 398.914 481.963 400.24C481.267 401.757 480.887 401.883 477.47 401.883C474.116 401.883 473.673 401.694 472.598 400.177C471.142 397.966 470.699 392.974 471.712 390.51C473.484 386.277 479.622 382.992 483.924 383.939C487.025 384.571 490.505 387.098 492.404 389.942C494.871 393.669 495.251 399.988 493.226 404.031C490.252 410.223 483.671 413.888 475.572 413.888C468.168 413.888 463.169 410.539 459.942 403.463C457.095 397.144 457.474 388.678 460.891 381.286C463.992 374.588 468.168 372.566 477.913 372.882C484.874 373.135 486.582 372.25 481.203 371.113C476.458 370.165 472.661 370.229 468.611 371.303Z" fill="#1F2937" stroke="#1F2937" stroke-width="0.842197"/>
<path d="M429.316 375.6C429.316 376.99 429.696 377.053 438.049 377.558C444.06 377.874 445.136 377.811 445.136 376.99C445.136 375.6 444.819 375.536 436.783 375.031C430.139 374.652 429.316 374.715 429.316 375.6Z" fill="#1F2937" stroke="#1F2937" stroke-width="0.842197"/>
<path d="M518.348 377.306C517.715 377.685 515.057 378.38 512.399 378.822C507.401 379.707 506.578 380.086 507.527 381.033C508.856 382.36 522.334 379.201 522.334 377.495C522.334 376.421 519.993 376.358 518.348 377.306Z" fill="#1F2937" stroke="#1F2937" stroke-width="0.842197"/>
<path d="M510.944 405.99C510.374 406.685 510.564 407.064 512.083 407.822C515.753 409.718 523.663 412.624 525.181 412.624C527.079 412.624 527.902 411.487 526.32 410.981C524.928 410.539 517.082 407.443 513.981 406.053C512.019 405.232 511.577 405.232 510.944 405.99Z" fill="#1F2937" stroke="#1F2937" stroke-width="0.842197"/>
<path d="M440.389 409.402C438.997 410.034 435.897 411.045 433.429 411.677C428.557 412.94 427.291 413.635 428.81 414.204C430.834 415.025 446.401 410.16 446.401 408.77C446.401 407.823 443.11 408.202 440.389 409.402Z" fill="#1F2937" stroke="#1F2937" stroke-width="0.842197"/>
<path d="M496.707 423.366C496.2 424.125 497.656 425.388 503.477 429.495C507.084 431.959 507.97 432.338 509.172 431.77C510.501 431.201 510.375 431.075 507.401 429.053C505.692 427.852 503.161 425.957 501.706 424.82C499.048 422.671 497.403 422.229 496.707 423.366Z" fill="#1F2937" stroke="#1F2937" stroke-width="0.842197"/>
<path d="M455.323 436.382C453.678 441.816 453.425 443.269 454.121 443.648C455.26 444.406 455.64 444.343 456.336 443.395C457.222 442.321 460.892 430.443 460.449 430.001C460.259 429.811 459.5 429.685 458.74 429.685C457.538 429.685 457.095 430.569 455.323 436.382Z" fill="#1F2937" stroke="#1F2937" stroke-width="0.842197"/>
<path d="M479.559 431.896C479.052 433.096 480.255 439.035 481.584 442.194C482.28 443.837 482.786 444.28 483.862 444.09C485.507 443.837 485.507 443.9 483.608 436.634C482.533 432.78 481.837 431.201 481.014 431.074C480.445 430.948 479.749 431.327 479.559 431.896Z" fill="#1F2937" stroke="#1F2937" stroke-width="0.842197"/>
<path d="M413.596 717.173H440.657H494.387V725.172H413.596V717.173Z" fill="#34B17B"/>
<path d="M440.793 717.172L442.393 677.977H497.187L494.387 717.172H440.793Z" fill="#73CFA5"/>
<path d="M446.792 712.373L448.792 683.176H491.587L489.188 712.373H446.792Z" fill="#EAF8F2"/>
<rect x="537.401" y="685.169" width="157.907" height="17.5452" fill="#68BA95"/>
<rect x="537.401" y="702.714" width="15.5957" height="97.4733" fill="#68BA95"/>
<rect x="597.835" y="702.714" width="15.5957" height="97.4733" fill="#68BA95"/>
<rect x="695.308" y="702.714" width="15.5957" height="97.4733" fill="#A8E0C5"/>
<rect x="763.54" y="702.714" width="15.5957" height="97.4733" fill="#A8E0C5"/>
<rect x="695.308" y="685.169" width="83.827" height="17.5452" fill="#A8E0C5"/>
<rect x="360" y="653.978" width="72.1302" height="71.1555" fill="#68BA95"/>
<rect x="360" y="725.134" width="72.1302" height="17.5452" fill="#A8E0C5"/>
<rect x="432.13" y="725.134" width="46.7872" height="17.5452" fill="#68BA95"/>
<rect x="416.534" y="742.679" width="15.5957" height="58.484" fill="#68BA95"/>
<rect x="360" y="742.679" width="15.5957" height="58.484" fill="#68BA95"/>
<rect x="463.321" y="742.679" width="15.5957" height="58.484" fill="#68BA95"/>
<path d="M937.94 755.366C927.381 756.005 927.674 739.101 929.14 730.568V728.568L942.339 730.168L947.139 742.167C948.472 746.3 948.498 754.726 937.94 755.366Z" fill="#1F2937"/>
<path d="M933.541 718.57C906.983 715.69 896.878 746.967 895.145 762.965H906.343C909.41 752.3 918.422 731.049 929.941 731.368C941.46 731.688 946.206 739.501 947.139 743.367C946.473 735.635 942.82 719.85 933.541 718.57Z" fill="#26A275"/>
<path d="M866.747 670.175C852.989 671.774 866.081 732.435 874.346 762.565H883.146C883.412 731.102 880.506 668.575 866.747 670.175Z" fill="#26A275"/>
<path d="M897.145 762.966H886.746C890.612 726.836 886.746 656.977 912.343 661.376C926.049 663.732 907.544 731.369 897.145 762.966Z" fill="#26A275"/>
<path d="M856.349 733.769C858.615 734.169 865.148 738.168 866.748 750.967C868.347 763.765 866.881 765.632 866.748 764.965" stroke="#1F2937" stroke-width="2.27613" stroke-linecap="round"/>
<path d="M919.942 705.771C915.386 706.568 902.252 714.538 899.036 740.04C895.819 765.541 898.768 769.26 899.036 767.932" stroke="#1F2937" stroke-width="2.27613" stroke-linecap="round"/>
<circle cx="925.941" cy="700.571" r="10.7989" fill="#EA580C"/>
<circle cx="849.949" cy="726.969" r="10.7989" fill="#EA580C"/>
<rect x="849.549" y="762.565" width="79.9917" height="39.1959" rx="19.598" fill="#73CFA5"/>
<path d="M482.812 563.034C482.985 562.718 483.438 562.718 483.611 563.034V563.034C486.397 568.128 490.585 572.317 495.679 575.103V575.103C495.995 575.276 495.995 575.729 495.679 575.902V575.902C490.585 578.688 486.397 582.876 483.611 587.97V587.97C483.438 588.286 482.985 588.286 482.812 587.97V587.97C480.026 582.876 475.837 578.688 470.743 575.902V575.902C470.427 575.729 470.427 575.276 470.743 575.103V575.103C475.837 572.317 480.026 568.128 482.812 563.034V563.034Z" fill="#FB923C"/>
<path d="M781.554 413.189C781.727 412.873 782.18 412.873 782.353 413.189V413.189C785.139 418.283 789.327 422.471 794.422 425.257V425.257C794.737 425.43 794.737 425.883 794.422 426.056V426.056C789.327 428.842 785.139 433.031 782.353 438.125V438.125C782.18 438.441 781.727 438.441 781.554 438.125V438.125C778.768 433.031 774.58 428.842 769.485 426.056V426.056C769.17 425.883 769.17 425.43 769.485 425.257V425.257C774.58 422.471 778.768 418.283 781.554 413.189V413.189Z" fill="#FB923C"/>
<path d="M782.797 746.251C773.198 739.318 756.399 717.854 769.198 712.255C781.038 707.075 784.93 732.652 782.797 746.251Z" fill="#339C73"/>
<path d="M787.597 745.452C787.997 737.186 790.876 721.374 799.195 724.254C807.515 727.134 794.929 739.586 787.597 745.452Z" fill="#339C73"/>
<path d="M782.797 754.651C783.197 750.118 783.277 740.093 780.397 736.253" stroke="#1F2937" stroke-width="2.27613" stroke-linecap="round"/>
<path d="M786.984 754.25C786.615 751.688 786.541 746.022 789.196 743.852" stroke="#1F2937" stroke-width="2.27613" stroke-linecap="round"/>
<path d="M811.994 754.65H758.8C757.333 770.515 751.601 802.245 787.197 802.245C813.434 802.245 814.661 770.515 811.994 754.65Z" fill="#34B17B"/>
<path fill-rule="evenodd" clip-rule="evenodd" d="M686.553 494.6C680.597 507.503 667.544 516.457 652.4 516.457C636.307 516.457 622.575 506.345 617.212 492.128C610.336 492.076 604.777 486.485 604.777 479.597C604.777 472.884 610.055 467.404 616.687 467.08C621.63 452.087 635.751 441.265 652.4 441.265C669.984 441.265 684.748 453.336 688.858 469.644C695.135 470.326 700.021 475.643 700.021 482.102C700.021 489.023 694.41 494.634 687.489 494.634C687.174 494.634 686.862 494.622 686.553 494.6Z" fill="#FED7AA"/>
<path fill-rule="evenodd" clip-rule="evenodd" d="M649.078 477.183C647.923 474.738 645.313 473.043 642.225 473.043C640.897 473.043 638.845 473.93 638 475.372C637.879 475.705 637.396 475.705 637.275 475.372C636.31 474.041 634.378 473.154 632.929 473.154C628.945 473.154 625.565 476.149 625.444 479.809V480.031C625.444 481.917 626.289 483.691 627.738 485.023V485.133C627.859 485.244 633.654 489.903 636.31 492.011C637.034 492.565 638.121 492.565 638.845 492.011C639.96 491.125 641.609 489.79 643.163 488.531L643.163 488.53L643.163 488.53C645.309 486.792 647.276 485.198 647.416 485.133V485.023C648.865 483.802 649.71 482.028 649.71 480.031V479.809C649.71 479.807 649.71 479.804 649.71 479.801C650.507 479.671 651.401 479.597 652.402 479.597C654.127 479.597 655.534 479.816 656.675 480.165C656.626 480.445 656.596 480.73 656.586 481.02V481.242C656.586 483.127 657.432 484.902 658.88 486.233V486.344C659.001 486.455 664.796 491.114 667.452 493.221C668.176 493.776 669.263 493.776 669.987 493.221C671.103 492.336 672.751 491 674.305 489.741L674.305 489.741C676.451 488.002 678.418 486.408 678.558 486.344V486.233C680.007 485.013 680.852 483.238 680.852 481.242V481.02C680.732 477.248 677.472 474.253 673.367 474.253C672.039 474.253 669.987 475.141 669.142 476.583C669.021 476.916 668.538 476.916 668.418 476.583C667.452 475.252 665.52 474.364 664.071 474.364C661.432 474.364 659.058 475.679 657.721 477.63C656.429 477.226 654.697 476.958 652.402 476.958C651.127 476.958 650.026 477.041 649.078 477.183Z" fill="#EA580C"/>
<path d="M646.133 494.502C646.551 495.337 648.389 497.008 652.399 497.008C656.409 497.008 658.247 495.337 658.665 494.502" stroke="#EA580C" stroke-width="2.27613" stroke-linecap="round" stroke-linejoin="round"/>
<path d="M646.307 447.095C644.992 448.125 642.925 452.276 644.064 455.197C645.203 458.117 646.984 458.841 647.889 459.073" stroke="#EA580C" stroke-width="2.27613" stroke-linecap="round"/>
<path d="M654.355 449.463C653.038 450.36 652.092 454.222 653.353 456.92C654.291 458.928 656.692 459.707 657.456 459.903" stroke="#EA580C" stroke-width="2.27613" stroke-linecap="round"/>
<path d="M660.996 450.834C660.366 451.661 660.828 454.045 661.911 455.658C662.552 456.612 664.491 458.005 665.005 457.969" stroke="#EA580C" stroke-width="2.27613" stroke-linecap="round"/>
<rect x="622.376" y="520.393" width="63.1934" height="139.985" rx="31.5967" fill="#FED7AA"/>
<rect x="527.984" y="625.183" width="257.573" height="59.9937" rx="29.9969" fill="#319E73"/>
<path d="M706.765 636.382H602.376" stroke="#1F2937" stroke-width="2.27613"/>
<path d="M673.17 661.178C673.17 674.432 663.028 685.176 653.972 685.176C644.915 685.176 635.174 674.432 635.174 661.178C635.174 647.925 644.915 637.181 653.972 637.181C663.028 637.181 673.17 647.925 673.17 661.178Z" fill="#A8E0C5"/>
<path d="M653.971 637.181V685.176" stroke="#1F2937" stroke-width="2.27613"/>
<path d="M696.767 539.604C684.609 523.606 664.504 520.14 655.972 520.406L683.969 584C685.835 591.466 691.008 608.477 696.767 616.796C702.527 625.116 733.43 629.448 750.762 635.581L772.359 612.397L723.564 587.599C719.698 578.267 708.926 555.603 696.767 539.604Z" fill="#FED7AA"/>
<path fill-rule="evenodd" clip-rule="evenodd" d="M792.282 631.557C794.219 631.171 795.973 629.944 796.94 628.075L797.659 626.685C799.318 623.478 798.032 619.596 794.787 618.014L784.186 612.847C783.451 612.392 782.678 611.959 781.882 611.535C783.204 610.104 783.902 608.115 783.613 606.059L783.396 604.509C782.895 600.934 779.6 598.511 776.038 599.097L763.127 601.224C760.097 601.524 752.807 601.32 749.309 601.168L749.312 601.202C749.297 601.2 749.283 601.197 749.268 601.195L734.998 630.782C737.075 635.299 739.827 639.779 743.011 643.74C743.263 644.157 743.575 644.562 743.951 644.949L744.454 645.466C747.159 648.572 750.129 651.283 753.231 653.334C756.132 655.504 759.217 657.44 762.457 659.12L764.654 660.258C767.697 661.836 771.492 660.837 773.358 657.968L774.467 656.262C775.02 655.412 775.347 654.486 775.463 653.552L777.111 654.377C780.339 655.993 784.329 654.718 786.022 651.529L786.757 650.147C787.57 648.615 787.705 646.921 787.269 645.394C790.41 646.684 794.115 645.384 795.73 642.342L796.465 640.959C798.158 637.77 796.913 633.875 793.684 632.258L792.282 631.557Z" fill="#FED7AA"/>
<path d="M781.896 611.562C779.914 612.324 775.413 613.821 773.272 613.709" stroke="#1F2937" stroke-width="2.27613" stroke-linecap="round"/>
<path d="M792.407 631.359C789.055 630.291 781.796 627.843 779.584 626.59" stroke="#1F2937" stroke-width="2.27613" stroke-linecap="round"/>
<path d="M787.308 645.695C784.15 644.144 777.332 640.652 775.329 639.087" stroke="#1F2937" stroke-width="2.27613" stroke-linecap="round"/>
<path d="M775.256 654.017C772.271 652.154 765.842 647.99 764.007 646.23" stroke="#1F2937" stroke-width="2.27613" stroke-linecap="round"/>
<path d="M611.012 539.604C623.171 523.606 643.275 520.14 651.808 520.406L623.811 584C621.944 591.466 616.771 608.477 611.012 616.796C605.253 625.116 574.349 629.448 557.018 635.581L535.42 612.397L584.215 587.599C588.081 578.267 598.853 555.603 611.012 539.604Z" fill="#FED7AA"/>
<path fill-rule="evenodd" clip-rule="evenodd" d="M515.497 631.557C513.56 631.171 511.806 629.944 510.84 628.075L510.12 626.685C508.461 623.478 509.747 619.596 512.993 618.014L523.594 612.847C524.329 612.392 525.101 611.959 525.897 611.535C524.575 610.104 523.878 608.115 524.166 606.059L524.383 604.509C524.884 600.934 528.179 598.511 531.741 599.097L544.653 601.224C547.683 601.524 554.972 601.32 558.47 601.168L558.467 601.202C558.482 601.2 558.497 601.197 558.511 601.195L572.781 630.782C570.704 635.299 567.952 639.779 564.769 643.74C564.516 644.157 564.204 644.562 563.828 644.949L563.326 645.466C560.621 648.572 557.651 651.283 554.548 653.333C551.647 655.504 548.562 657.44 545.322 659.12L543.126 660.258C540.082 661.836 536.287 660.837 534.422 657.968L533.312 656.262C532.759 655.412 532.433 654.486 532.316 653.552L530.669 654.377C527.44 655.993 523.45 654.718 521.757 651.529L521.023 650.147C520.21 648.615 520.074 646.921 520.51 645.394C517.37 646.684 513.664 645.384 512.049 642.342L511.315 640.959C509.622 637.77 510.866 633.875 514.095 632.258L515.497 631.557Z" fill="#FED7AA"/>
<path d="M525.882 611.562C527.864 612.324 532.365 613.821 534.506 613.709" stroke="#1F2937" stroke-width="2.27613" stroke-linecap="round"/>
<path d="M515.371 631.359C518.724 630.291 525.982 627.843 528.194 626.59" stroke="#1F2937" stroke-width="2.27613" stroke-linecap="round"/>
<path d="M520.471 645.696C523.63 644.145 530.448 640.653 532.451 639.088" stroke="#1F2937" stroke-width="2.27613" stroke-linecap="round"/>
<path d="M532.522 654.017C535.507 652.154 541.937 647.99 543.771 646.23" stroke="#1F2937" stroke-width="2.27613" stroke-linecap="round"/>
<path fill-rule="evenodd" clip-rule="evenodd" d="M652.052 536.941C659.562 536.941 665.65 530.853 665.65 523.342C665.65 522.668 665.601 522.005 665.507 521.356C675.196 523.196 687.979 528.239 696.687 539.727C708.846 555.768 719.618 578.493 723.484 587.851L696.687 617.126C692.287 610.753 688.229 599.293 685.726 590.901V625.182H622.533V588.71C620.121 597.183 615.731 610.178 610.934 617.126L584.137 587.851C588.003 578.493 598.775 555.768 610.934 539.727C618.597 529.618 629.415 524.499 638.504 522.163C638.47 522.552 638.453 522.945 638.453 523.342C638.453 530.853 644.542 536.941 652.052 536.941Z" fill="#8DD7E2"/>
<rect x="643.171" y="512.393" width="17.5982" height="14.3985" fill="#FED7AA"/>
<circle cx="396.579" cy="632.965" r="19.198" transform="rotate(-22.9297 396.579 632.965)" fill="#F1FAF6" stroke="#34B17B" stroke-width="3.99958"/>
<rect x="388.396" y="617.271" width="2.2776" height="17.206" rx="1.1388" transform="rotate(-22.9297 388.396 617.271)" fill="#34B17B"/>
<rect x="399.356" y="622.159" width="2.23471" height="10.9619" rx="1.11735" transform="rotate(22.3107 399.356 622.159)" fill="#34B17B"/>
<ellipse cx="2.01838" cy="2.01838" rx="2.01838" ry="2.01838" transform="matrix(0.920984 -0.389601 0.389602 0.920983 393.595 630.845)" fill="#34B17B"/>
<path d="M665.568 521.192C665.568 528.703 659.48 536.391 651.97 536.391C644.459 536.391 638.371 529.592 638.371 521.992" stroke="#1F2937" stroke-width="2.27613"/>
<path d="M685.566 591.185C688.633 599.317 695.165 615.822 696.765 616.782C701.245 613.262 717.83 594.384 723.562 587.585L712.764 565.188" stroke="#1F2937" stroke-width="2.27613"/>
<path d="M685.566 591.185V613.982" stroke="#1F2937" stroke-width="2.27613"/>
<path d="M622.372 588.785C619.306 596.918 612.373 615.822 610.773 616.782C606.294 613.262 589.709 594.384 583.976 587.585L594.775 565.188" stroke="#1F2937" stroke-width="2.27613"/>
<path d="M622.372 589.186L621.972 613.983" stroke="#1F2937" stroke-width="2.27613"/>
</svg>
