<svg width="1920" height="1080" viewBox="0 0 1920 1080" fill="none" xmlns="http://www.w3.org/2000/svg">
<g clip-path="url(#clip0_518_12495)">
<rect width="1920" height="1080" rx="40" fill="#F3F4F6"/>
<rect x="355" y="60" width="1200" height="1021" fill="#F9FAFB"/>
<path d="M473.484 99.9609V113.836H463.453V99.9609H473.484ZM466.008 102V111.75H470.883V102H466.008ZM479.297 97.8984V106.031H482.555V108.234H479.297V119.086H476.695V97.8984H479.297ZM501.07 97.8984V119.109H498.445V97.8984H501.07ZM489.656 99.4453C492.844 99.4453 495.164 102.352 495.188 106.922C495.164 111.539 492.844 114.422 489.656 114.422C486.445 114.422 484.125 111.539 484.125 106.922C484.125 102.352 486.445 99.4453 489.656 99.4453ZM489.656 101.789C487.852 101.789 486.633 103.688 486.633 106.922C486.633 110.18 487.852 112.078 489.656 112.078C491.438 112.078 492.656 110.18 492.656 106.922C492.656 103.688 491.438 101.789 489.656 101.789ZM528.281 97.8984V119.086H525.797V97.8984H528.281ZM524.062 98.3438V118.031H521.578V108.047H519.234V105.727H521.578V98.3438H524.062ZM519.773 100.406V102.516H518.273V111.656C518.941 111.598 519.574 111.527 520.172 111.445L520.336 113.344C517.008 114.023 512.648 114.094 509.953 114.094L509.648 111.938L511.57 111.914V102.516H510.07V100.406H519.773ZM513.914 111.867L515.883 111.797V102.516H513.914V111.867ZM548.25 97.8984V119.109H545.625V97.8984H548.25ZM536.836 99.4453C540.023 99.4453 542.344 102.352 542.367 106.922C542.344 111.539 540.023 114.422 536.836 114.422C533.625 114.422 531.305 111.539 531.305 106.922C531.305 102.352 533.625 99.4453 536.836 99.4453ZM536.836 101.789C535.031 101.789 533.812 103.688 533.812 106.922C533.812 110.18 535.031 112.078 536.836 112.078C538.617 112.078 539.836 110.18 539.836 106.922C539.836 103.688 538.617 101.789 536.836 101.789ZM559.359 103.922C559.359 107.391 561.398 111.047 564.82 112.477L563.391 114.539C560.883 113.461 559.055 111.234 558.094 108.539C557.109 111.445 555.258 113.883 552.773 115.055L551.273 113.016C554.625 111.469 556.711 107.531 556.711 103.922V102.141H552.047V99.9844H564V102.141H559.359V103.922ZM568.992 97.8984V119.086H566.367V97.8984H568.992Z" fill="#111827"/>
<mask id="path-4-inside-1_518_12495" fill="white">
<path d="M0 0H1920V60H0V0Z"/>
</mask>
<path d="M0 0H1920V60H0V0Z" fill="white"/>
<path d="M1920 58H0V62H1920V58Z" fill="#D1D5DB" mask="url(#path-4-inside-1_518_12495)"/>
<g clip-path="url(#clip1_518_12495)">
<path d="M366.983 31.1802C366.983 30.6409 367.084 30.259 367.286 30.0343C367.488 29.8096 367.859 29.6972 368.398 29.6972H376.757C377.071 29.6972 377.324 29.7759 377.515 29.9331C377.717 30.0904 377.819 30.3264 377.819 30.6409C377.819 30.9555 377.723 31.1914 377.532 31.3487C377.341 31.506 377.083 31.5846 376.757 31.5846H369.78C369.668 31.5846 369.612 31.6464 369.612 31.77V32.343H376.673C376.998 32.343 377.257 32.416 377.448 32.562C377.639 32.7081 377.734 32.944 377.734 33.2698C377.734 33.5956 377.639 33.8315 377.448 33.9776C377.257 34.1236 376.998 34.1967 376.673 34.1967H369.595V34.8707C369.595 34.9831 369.651 35.0393 369.763 35.0393H376.976C377.302 35.0393 377.56 35.1179 377.751 35.2752C377.942 35.4325 378.038 35.674 378.038 35.9998C378.038 36.3256 377.942 36.5615 377.751 36.7076C377.56 36.8649 377.302 36.9435 376.976 36.9435H368.398C367.859 36.9435 367.488 36.8312 367.286 36.6065C367.084 36.3818 366.983 35.9998 366.983 35.4606V31.1802ZM373.184 23.8328C373.184 24.563 373.01 25.2315 372.662 25.8381C372.325 26.4448 371.859 26.9841 371.263 27.4559C370.668 27.9278 369.971 28.3378 369.174 28.6861C368.376 29.0231 367.528 29.2928 366.629 29.495C366.292 29.5736 365.983 29.5568 365.702 29.4444C365.421 29.3321 365.236 29.1018 365.146 28.7535C365.045 28.4052 365.073 28.1131 365.23 27.8772C365.387 27.6301 365.64 27.4615 365.989 27.3717C366.528 27.2369 367.073 27.074 367.623 26.883C368.174 26.692 368.668 26.4729 369.106 26.2257C369.555 25.9673 369.921 25.6696 370.201 25.3326C370.482 24.9956 370.623 24.608 370.623 24.1698V23.9844C370.623 23.8609 370.6 23.7766 370.555 23.7317C370.522 23.6755 370.443 23.6474 370.319 23.6474H366.511C366.151 23.6474 365.865 23.5688 365.651 23.4115C365.449 23.243 365.348 22.979 365.348 22.6194C365.348 22.2599 365.449 21.9959 365.651 21.8274C365.865 21.6589 366.151 21.5746 366.511 21.5746H371.684C372.201 21.5746 372.578 21.6926 372.814 21.9285C373.061 22.1532 373.184 22.4734 373.184 22.8891V23.8328ZM375.122 22.5183C375.122 22.1251 375.246 21.8274 375.493 21.6252C375.751 21.4117 376.077 21.305 376.47 21.305C376.864 21.305 377.184 21.4117 377.431 21.6252C377.689 21.8274 377.819 22.1251 377.819 22.5183V23.917H378.981C379.341 23.917 379.633 24.0069 379.858 24.1867C380.082 24.3664 380.195 24.6473 380.195 25.0293C380.195 25.4112 380.082 25.6921 379.858 25.8719C379.633 26.0516 379.341 26.1415 378.981 26.1415H377.819V27.8435C377.819 28.2367 377.689 28.5401 377.431 28.7535C377.184 28.967 376.864 29.0737 376.47 29.0737C376.077 29.0737 375.751 28.967 375.493 28.7535C375.246 28.5401 375.122 28.2367 375.122 27.8435V22.5183ZM392.02 22.552C392.02 22.1476 392.144 21.8386 392.391 21.6252C392.649 21.4117 392.975 21.305 393.368 21.305C393.773 21.305 394.098 21.4117 394.346 21.6252C394.593 21.8386 394.716 22.1476 394.716 22.552V35.6965C394.716 36.1009 394.593 36.4099 394.346 36.6233C394.098 36.8368 393.773 36.9435 393.368 36.9435C392.975 36.9435 392.649 36.8368 392.391 36.6233C392.144 36.4099 392.02 36.1009 392.02 35.6965V22.552ZM390.032 27.4728C390.032 28.3154 389.942 29.0793 389.762 29.7646C389.582 30.4387 389.312 31.0173 388.953 31.5004C388.593 31.9835 388.133 32.3598 387.571 32.6294C387.021 32.8878 386.375 33.017 385.633 33.017C384.892 33.017 384.24 32.8878 383.678 32.6294C383.128 32.3598 382.673 31.9835 382.313 31.5004C381.954 31.0173 381.684 30.4387 381.504 29.7646C381.325 29.0793 381.235 28.3154 381.235 27.4728C381.235 26.6302 381.325 25.8719 381.504 25.1978C381.684 24.5125 381.954 23.9283 382.313 23.4452C382.673 22.9621 383.128 22.5914 383.678 22.333C384.24 22.0633 384.892 21.9285 385.633 21.9285C386.375 21.9285 387.021 22.0633 387.571 22.333C388.133 22.5914 388.593 22.9621 388.953 23.4452C389.312 23.9283 389.582 24.5125 389.762 25.1978C389.942 25.8719 390.032 26.6302 390.032 27.4728ZM385.633 30.7589C385.97 30.7589 386.251 30.6746 386.476 30.5061C386.7 30.3264 386.88 30.0904 387.015 29.7983C387.161 29.5062 387.262 29.1636 387.318 28.7704C387.375 28.3659 387.403 27.9334 387.403 27.4728C387.403 27.0234 387.375 26.5965 387.318 26.192C387.262 25.7876 387.161 25.4393 387.015 25.1472C386.88 24.8551 386.7 24.6248 386.476 24.4563C386.251 24.2765 385.97 24.1867 385.633 24.1867C385.296 24.1867 385.015 24.2765 384.791 24.4563C384.566 24.6248 384.381 24.8551 384.234 25.1472C384.1 25.4393 384.004 25.7876 383.948 26.192C383.892 26.5965 383.864 27.0234 383.864 27.4728C383.864 27.9334 383.892 28.3659 383.948 28.7704C384.004 29.1636 384.1 29.5062 384.234 29.7983C384.381 30.0904 384.566 30.3264 384.791 30.5061C385.015 30.6746 385.296 30.7589 385.633 30.7589ZM400.546 31.5846C400.209 31.5846 399.951 31.5116 399.771 31.3656C399.591 31.2195 399.502 30.978 399.502 30.6409C399.502 30.3039 399.591 30.0623 399.771 29.9163C399.951 29.7702 400.209 29.6972 400.546 29.6972H408.955C409.225 29.6972 409.45 29.7197 409.63 29.7646C409.809 29.7983 409.95 29.8657 410.051 29.9669C410.163 30.068 410.236 30.2084 410.27 30.3881C410.315 30.5567 410.337 30.7757 410.337 31.0454V32.7474C410.337 33.2979 410.231 33.6743 410.017 33.8765C409.815 34.0675 409.439 34.163 408.888 34.163H402.147C402.069 34.163 402.029 34.2023 402.029 34.2809V34.9381C402.029 35.0056 402.069 35.0393 402.147 35.0393H409.613C409.95 35.0393 410.208 35.1123 410.388 35.2583C410.579 35.4156 410.674 35.6628 410.674 35.9998C410.674 36.3369 410.579 36.5784 410.388 36.7244C410.208 36.8705 409.95 36.9435 409.613 36.9435H400.934C400.383 36.9435 400.007 36.8424 399.805 36.6402C399.603 36.4492 399.502 36.0785 399.502 35.528V33.708C399.502 33.1575 399.597 32.7867 399.788 32.5957C399.99 32.4048 400.367 32.3093 400.917 32.3093H407.675C407.765 32.3093 407.81 32.2699 407.81 32.1913V31.7026C407.81 31.624 407.765 31.5846 407.675 31.5846H400.546ZM405.669 28.1806C404.95 28.3154 404.203 28.4109 403.428 28.467C402.664 28.512 401.923 28.5344 401.204 28.5344H399.535C398.423 28.5344 397.867 27.984 397.867 26.883V23.2261C397.867 22.1251 398.423 21.5746 399.535 21.5746H404.658C404.995 21.5746 405.265 21.6645 405.467 21.8443C405.681 22.024 405.787 22.2824 405.787 22.6194C405.787 22.9565 405.681 23.2149 405.467 23.3946C405.265 23.5744 404.995 23.6643 404.658 23.6643H400.664C400.574 23.6643 400.518 23.6811 400.496 23.7148C400.473 23.7373 400.462 23.7935 400.462 23.8833V26.2089C400.462 26.3662 400.535 26.4448 400.681 26.4448H401.389C402.074 26.4448 402.771 26.4167 403.479 26.3606C404.198 26.2931 404.827 26.2145 405.366 26.1246C405.669 26.0685 405.939 26.0965 406.175 26.2089C406.422 26.31 406.574 26.5291 406.63 26.8661C406.697 27.2144 406.636 27.5065 406.445 27.7424C406.254 27.9783 405.995 28.1244 405.669 28.1806ZM407.641 22.5183C407.641 22.1251 407.765 21.8274 408.012 21.6252C408.27 21.4117 408.596 21.305 408.989 21.305C409.382 21.305 409.703 21.4117 409.95 21.6252C410.208 21.8274 410.337 22.1251 410.337 22.5183V23.917H411.5C411.86 23.917 412.152 24.0069 412.376 24.1867C412.601 24.3664 412.713 24.6473 412.713 25.0293C412.713 25.4112 412.601 25.6921 412.376 25.8719C412.152 26.0516 411.86 26.1415 411.5 26.1415H410.337V27.8435C410.337 28.2367 410.208 28.5401 409.95 28.7535C409.703 28.967 409.382 29.0737 408.989 29.0737C408.596 29.0737 408.27 28.967 408.012 28.7535C407.765 28.5401 407.641 28.2367 407.641 27.8435V22.5183ZM417.983 36.8424C417.433 36.8424 417.04 36.7301 416.804 36.5054C416.568 36.2807 416.45 35.8931 416.45 35.3426V32.3261C416.45 31.7756 416.568 31.3936 416.804 31.1802C417.04 30.9555 417.433 30.8431 417.983 30.8431H426.022C426.572 30.8431 426.96 30.9555 427.185 31.1802C427.42 31.3936 427.538 31.7756 427.538 32.3261V35.3426C427.538 35.8931 427.42 36.2807 427.185 36.5054C426.96 36.7301 426.572 36.8424 426.022 36.8424H417.983ZM420.326 29.5961C419.753 29.686 419.208 29.759 418.691 29.8152C418.174 29.8601 417.596 29.8826 416.955 29.8826H415.995C415.422 29.8826 415.006 29.759 414.748 29.5119C414.49 29.2535 414.36 28.849 414.36 28.2985V26.3437C414.36 25.7932 414.49 25.3888 414.748 25.1304C415.006 24.872 415.422 24.7428 415.995 24.7428H418.051C418.197 24.7428 418.27 24.6698 418.27 24.5237V23.8159C418.27 23.7261 418.253 23.6699 418.219 23.6474C418.197 23.6249 418.141 23.6137 418.051 23.6137H415.607C415.27 23.6137 414.989 23.5294 414.765 23.3609C414.551 23.1924 414.445 22.9452 414.445 22.6194C414.445 22.2824 414.551 22.0296 414.765 21.8611C414.989 21.6926 415.27 21.6083 415.607 21.6083H419.062C419.646 21.6083 420.062 21.7319 420.309 21.9791C420.567 22.2262 420.697 22.6363 420.697 23.2093V25.063C420.697 25.6359 420.567 26.0516 420.309 26.31C420.062 26.5572 419.646 26.6807 419.062 26.6807H416.989C416.899 26.6807 416.843 26.692 416.821 26.7144C416.798 26.7369 416.787 26.7931 416.787 26.883V27.7256C416.787 27.8154 416.798 27.8716 416.821 27.8941C416.843 27.9165 416.899 27.9278 416.989 27.9278H417.293C417.753 27.9278 418.197 27.9053 418.624 27.8604C419.062 27.8154 419.517 27.7649 419.989 27.7087C420.315 27.675 420.601 27.7031 420.848 27.793C421.095 27.8716 421.247 28.0794 421.303 28.4165C421.359 28.7535 421.292 29.0231 421.101 29.2254C420.91 29.4164 420.652 29.5399 420.326 29.5961ZM421.826 22.6026C421.826 22.2431 421.927 21.9678 422.129 21.7769C422.342 21.5746 422.629 21.4735 422.988 21.4735C423.348 21.4735 423.629 21.5746 423.831 21.7769C424.045 21.9678 424.151 22.2431 424.151 22.6026V24.5743H425.196V22.4509C425.196 22.0914 425.303 21.8106 425.516 21.6083C425.73 21.4061 426.016 21.305 426.376 21.305C426.735 21.305 427.016 21.4061 427.218 21.6083C427.432 21.8106 427.538 22.0914 427.538 22.4509V28.8715C427.538 29.231 427.432 29.5119 427.218 29.7141C427.016 29.9051 426.735 30.0006 426.376 30.0006C426.016 30.0006 425.73 29.9051 425.516 29.7141C425.303 29.5119 425.196 29.231 425.196 28.8715V26.5628H424.151V28.8378C424.151 29.1973 424.05 29.4781 423.848 29.6804C423.646 29.8714 423.359 29.9669 422.988 29.9669C422.629 29.9669 422.342 29.8714 422.129 29.6804C421.927 29.4781 421.826 29.1973 421.826 28.8378V22.6026ZM419.315 32.8654C419.202 32.8654 419.146 32.9215 419.146 33.0339V34.6517C419.146 34.764 419.202 34.8202 419.315 34.8202H424.674C424.786 34.8202 424.842 34.764 424.842 34.6517V33.0339C424.842 32.9215 424.786 32.8654 424.674 32.8654H419.315Z" fill="black"/>
</g>
<path d="M466.375 34.25V35.6719H453.469V34.25H459.031V31.1719H454.891V24.3594H464.891V31.1719H460.75V34.25H466.375ZM456.594 25.75V29.8125H463.172V25.75H456.594ZM479.062 23.2812V31.2812H477.312V23.2812H479.062ZM479.062 31.9688V37.2188H469.688V31.9688H479.062ZM471.406 33.3438V35.8125H477.359V33.3438H471.406ZM471.359 23.9531C473.531 23.9531 475.156 25.3281 475.156 27.3281C475.156 29.2656 473.531 30.6719 471.359 30.6719C469.172 30.6719 467.547 29.2656 467.547 27.3281C467.547 25.3281 469.172 23.9531 471.359 23.9531ZM471.359 25.4219C470.125 25.4219 469.234 26.1562 469.25 27.3281C469.234 28.4688 470.125 29.2031 471.359 29.2031C472.578 29.2031 473.453 28.4688 473.453 27.3281C473.453 26.1562 472.578 25.4219 471.359 25.4219ZM490 26.1562C490 27.6719 491.141 29.1562 493.359 29.75L492.578 31.0781C490.938 30.6484 489.781 29.7109 489.156 28.5C488.523 29.8281 487.336 30.8594 485.672 31.3438L484.844 29.9688C487.078 29.375 488.266 27.8125 488.266 26.1562V26.1094H485.312V24.7344H488.266V23.2031H490.016V24.7344H492.953V26.1094H490V26.1562ZM496.062 23.2656V26.5469H498.031V27.9844H496.062V31.3594H494.328V23.2656H496.062ZM496.266 32.0156V33.4062H492.531C492.859 34.5781 494.445 35.6719 496.859 36.0156L496.234 37.3438C494.023 37.0312 492.352 36.0859 491.531 34.7969C490.719 36.0781 489.062 37 486.875 37.3125L486.234 36C488.656 35.6641 490.227 34.6094 490.562 33.4062H486.812V32.0156H496.266ZM510.547 23.2656V37.3906H508.797V23.2656H510.547ZM506.328 24.7656C506.328 28.9688 504.703 32.5469 499.75 34.8906L498.844 33.5C502.539 31.7422 504.258 29.3516 504.562 26.1406H499.562V24.7656H506.328Z" fill="#111827"/>
<path d="M541.031 25.6875C541.031 26.8047 541.297 28.2422 542.25 29.2656C543.18 28.2578 543.422 26.8359 543.438 25.6875V25.5625H542.547V24.1719H546.609V25.5625H545.094V25.6875C545.094 27.2031 545.641 28.9688 547.25 29.7812L546.344 31.0469C545.289 30.4844 544.641 29.5547 544.281 28.4688C543.93 29.5859 543.32 30.5938 542.25 31.2031C541.195 30.6016 540.578 29.6016 540.234 28.5156C539.859 29.5859 539.211 30.5078 538.172 31.0469L537.25 29.7812C538.844 28.9375 539.422 27.1875 539.422 25.6875V25.5625H537.781V24.1719H541.938V25.5625H541.031V25.6875ZM549.469 23.2656V31.5H547.734V23.2656H549.469ZM549.469 32.2031V37.2188H539.812V32.2031H549.469ZM541.531 33.5625V35.8125H547.781V33.5625H541.531ZM562.438 23.2812V27.7188H564.406V29.1562H562.438V33.8281H560.703V23.2812H562.438ZM559.688 24.8438V26.2344H551.312V24.8438H554.641V23.2656H556.375V24.8438H559.688ZM555.5 26.8125C557.531 26.8125 558.938 27.8906 558.953 29.5156C558.938 31.125 557.531 32.1875 555.5 32.1875C553.453 32.1875 552.031 31.125 552.031 29.5156C552.031 27.8906 553.453 26.8125 555.5 26.8125ZM555.5 28.1562C554.422 28.1562 553.719 28.6562 553.719 29.5156C553.719 30.3594 554.422 30.8594 555.5 30.8438C556.578 30.8594 557.297 30.3594 557.297 29.5156C557.297 28.6562 556.578 28.1562 555.5 28.1562ZM563 35.7031V37.1094H553.391V33H555.125V35.7031H563ZM581.828 34.25V35.6719H568.922V34.25H574.484V31.1719H570.344V24.3594H580.344V31.1719H576.203V34.25H581.828ZM572.047 25.75V29.8125H578.625V25.75H572.047ZM594.516 23.2812V31.2812H592.766V23.2812H594.516ZM594.516 31.9688V37.2188H585.141V31.9688H594.516ZM586.859 33.3438V35.8125H592.812V33.3438H586.859ZM586.812 23.9531C588.984 23.9531 590.609 25.3281 590.609 27.3281C590.609 29.2656 588.984 30.6719 586.812 30.6719C584.625 30.6719 583 29.2656 583 27.3281C583 25.3281 584.625 23.9531 586.812 23.9531ZM586.812 25.4219C585.578 25.4219 584.688 26.1562 584.703 27.3281C584.688 28.4688 585.578 29.2031 586.812 29.2031C588.031 29.2031 588.906 28.4688 588.906 27.3281C588.906 26.1562 588.031 25.4219 586.812 25.4219Z" fill="#111827"/>
<path d="M634.375 34.25V35.6719H621.469V34.25H627.031V31.1719H622.891V24.3594H632.891V31.1719H628.75V34.25H634.375ZM624.594 25.75V29.8125H631.172V25.75H624.594ZM648.188 30.2969V31.6875H635.297V30.2969H648.188ZM646.75 27.6094V29.0156H636.875V23.8281H646.625V25.2031H638.609V27.6094H646.75ZM646.844 35.6875V37.0938H636.891V32.9219H638.594V35.6875H646.844ZM664.688 23.2656V37.4062H662.969V23.2656H664.688ZM660.344 24.5V29.7969H655.484V32.6406C657.711 32.625 659.633 32.5156 661.828 32.1406L661.984 33.5625C659.578 33.9844 657.469 34.0625 654.938 34.0625H653.703V28.4219H658.578V25.9062H653.688V24.5H660.344ZM679.641 31.3438V32.75H676.609V37.3906H674.875V32.75H671.531V37.3906H669.75V32.75H666.734V31.3438H679.641ZM670.016 23.8125V25.5H676.328V23.8125H678.078V29.9062H668.297V23.8125H670.016ZM670.016 28.5156H676.328V26.8594H670.016V28.5156Z" fill="#111827"/>
<g clip-path="url(#clip2_518_12495)">
<circle cx="1538" cy="30" r="19.5" fill="#F9FAFB" stroke="#9CA3AF"/>
<circle cx="1538" cy="30" r="19" stroke="#E5E7EB" stroke-width="2"/>
<path fill-rule="evenodd" clip-rule="evenodd" d="M1549.46 34.9949C1547.53 39.4124 1543.13 42.5 1538 42.5C1532.56 42.5 1527.93 39.0209 1526.21 34.1651C1523.97 34.1003 1522.17 32.2604 1522.17 30.0002C1522.17 27.74 1523.97 25.9001 1526.21 25.8353C1527.93 20.9793 1532.56 17.5 1538 17.5C1543.76 17.5 1548.6 21.39 1550.06 26.6844C1552.17 26.8805 1553.83 28.6631 1553.83 30.8332C1553.83 33.1344 1551.97 34.9998 1549.67 34.9998C1549.6 34.9998 1549.53 34.9982 1549.46 34.9949Z" fill="#E5E7EB"/>
<path fill-rule="evenodd" clip-rule="evenodd" d="M1536.83 28.0017C1536.44 27.2112 1535.58 26.667 1534.58 26.667C1534.14 26.667 1533.45 26.9623 1533.17 27.4423C1533.13 27.5531 1532.97 27.5531 1532.93 27.4423C1532.61 26.9993 1531.97 26.7039 1531.49 26.7039C1530.16 26.7039 1529.04 27.7007 1529 28.9191V28.9929C1529 29.6205 1529.28 30.2112 1529.76 30.6543V30.6912C1529.8 30.7281 1531.73 32.2787 1532.61 32.9802C1532.85 33.1648 1533.21 33.1648 1533.45 32.9802C1533.82 32.6855 1534.37 32.2411 1534.89 31.8219L1534.89 31.8218C1535.6 31.2431 1536.26 30.7126 1536.3 30.6912V30.6543C1536.73 30.2951 1537 29.7917 1537.05 29.2204C1537.33 29.1863 1537.65 29.1671 1538 29.1671C1538.54 29.1671 1538.98 29.2115 1539.35 29.2851C1539.35 29.2973 1539.35 29.3096 1539.35 29.322V29.3958C1539.35 30.0234 1539.63 30.6141 1540.11 31.0571V31.0941C1540.15 31.131 1542.08 32.6816 1542.96 33.3831C1543.2 33.5676 1543.56 33.5676 1543.8 33.3831C1544.17 33.0884 1544.72 32.6439 1545.24 32.2247C1545.95 31.646 1546.61 31.1155 1546.65 31.0941V31.0571C1547.13 30.651 1547.41 30.0603 1547.41 29.3958V29.322C1547.37 28.0667 1546.29 27.0699 1544.93 27.0699C1544.49 27.0699 1543.8 27.3652 1543.52 27.8452C1543.48 27.9559 1543.32 27.9559 1543.28 27.8452C1542.96 27.4022 1542.32 27.1068 1541.84 27.1068C1540.98 27.1068 1540.22 27.52 1539.76 28.1396C1539.34 28.0057 1538.76 27.9171 1538 27.9171C1537.55 27.9171 1537.16 27.9483 1536.83 28.0017Z" fill="#6B7280"/>
<path d="M1535.92 33.75C1536.06 34.0278 1536.67 34.5833 1538 34.5833C1539.33 34.5833 1539.94 34.0278 1540.08 33.75" stroke="#6B7280" stroke-width="1.25" stroke-linecap="round" stroke-linejoin="round"/>
<path d="M1535.99 19.2973C1535.56 19.6399 1534.87 21.0201 1535.25 21.9911C1535.63 22.9621 1536.22 23.2026 1536.52 23.28" stroke="#6B7280" stroke-width="0.993658" stroke-linecap="round"/>
<path d="M1538.65 19.9818C1538.21 20.2803 1537.9 21.5641 1538.32 22.4612C1538.63 23.1288 1539.43 23.3879 1539.68 23.4532" stroke="#6B7280" stroke-width="0.993658" stroke-linecap="round"/>
<path d="M1540.86 20.4377C1540.65 20.7126 1540.8 21.505 1541.16 22.0414C1541.38 22.3586 1542.02 22.8217 1542.19 22.8099" stroke="#6B7280" stroke-width="0.991667" stroke-linecap="round"/>
</g>
<mask id="path-18-inside-2_518_12495" fill="white">
<path d="M462 349H1458V1160H462V349Z"/>
</mask>
<path d="M462 349H1458V1160H462V349Z" fill="white"/>
<path d="M462 351H1458V347H462V351Z" fill="#111827" mask="url(#path-18-inside-2_518_12495)"/>
<path d="M501.328 384.809V386.408H498.973V394.529H497.021V378.674H498.973V384.809H501.328ZM489.023 380.221V388.992C491.142 388.957 493.4 388.772 495.791 388.271L496.002 389.924C493.33 390.451 490.781 390.609 488.426 390.609H487.09V380.221H489.023ZM507.234 379.781C509.748 379.764 511.594 381.363 511.611 383.613C511.594 385.881 509.748 387.463 507.234 387.463C504.738 387.463 502.875 385.881 502.875 383.613C502.875 381.363 504.738 379.764 507.234 379.781ZM507.234 381.469C505.846 381.469 504.809 382.295 504.809 383.613C504.809 384.949 505.846 385.758 507.234 385.758C508.641 385.758 509.695 384.949 509.695 383.613C509.695 382.295 508.641 381.469 507.234 381.469ZM515.32 378.674V394.582H513.369V378.674H515.32ZM502.154 389.66C505.02 389.66 508.992 389.625 512.42 389.133L512.578 390.557C509.01 391.242 505.195 391.26 502.4 391.26L502.154 389.66ZM536.432 391.031V392.631H521.912V391.031H528.17V387.568H523.512V379.904H534.762V387.568H530.104V391.031H536.432ZM525.428 381.469V386.039H532.828V381.469H525.428ZM550.705 378.691V387.691H548.736V378.691H550.705ZM550.705 388.465V394.371H540.158V388.465H550.705ZM542.092 390.012V392.789H548.789V390.012H542.092ZM542.039 379.447C544.482 379.447 546.311 380.994 546.311 383.244C546.311 385.424 544.482 387.006 542.039 387.006C539.578 387.006 537.75 385.424 537.75 383.244C537.75 380.994 539.578 379.447 542.039 379.447ZM542.039 381.1C540.65 381.1 539.648 381.926 539.666 383.244C539.648 384.527 540.65 385.354 542.039 385.354C543.41 385.354 544.395 384.527 544.395 383.244C544.395 381.926 543.41 381.1 542.039 381.1Z" fill="#9CA3AF"/>
<path d="M580.328 384.809V386.408H577.973V394.529H576.021V378.674H577.973V384.809H580.328ZM568.023 380.221V388.992C570.142 388.957 572.4 388.772 574.791 388.271L575.002 389.924C572.33 390.451 569.781 390.609 567.426 390.609H566.09V380.221H568.023ZM586.234 379.781C588.748 379.764 590.594 381.363 590.611 383.613C590.594 385.881 588.748 387.463 586.234 387.463C583.738 387.463 581.875 385.881 581.875 383.613C581.875 381.363 583.738 379.764 586.234 379.781ZM586.234 381.469C584.846 381.469 583.809 382.295 583.809 383.613C583.809 384.949 584.846 385.758 586.234 385.758C587.641 385.758 588.695 384.949 588.695 383.613C588.695 382.295 587.641 381.469 586.234 381.469ZM594.32 378.674V394.582H592.369V378.674H594.32ZM581.154 389.66C584.02 389.66 587.992 389.625 591.42 389.133L591.578 390.557C588.01 391.242 584.195 391.26 581.4 391.26L581.154 389.66ZM614.148 378.674V394.582H612.215V378.674H614.148ZM609.262 380.062V386.021H603.795V389.221C606.3 389.203 608.462 389.08 610.932 388.658L611.107 390.258C608.4 390.732 606.027 390.82 603.18 390.82H601.791V384.475H607.275V381.645H601.773V380.062H609.262ZM630.971 387.762V389.344H627.561V394.564H625.609V389.344H621.848V394.564H619.844V389.344H616.451V387.762H630.971ZM620.143 379.289V381.188H627.244V379.289H629.213V386.145H618.209V379.289H620.143ZM620.143 384.58H627.244V382.717H620.143V384.58Z" fill="#111827"/>
<path d="M565 406C565 405.448 565.448 405 566 405H631C631.552 405 632 405.448 632 406C632 406.552 631.552 407 631 407H566C565.448 407 565 406.552 565 406Z" fill="#111827"/>
<path d="M658.168 378.674V394.564H656.287V386.531H654.529V393.756H652.701V378.973H654.529V384.932H656.287V378.674H658.168ZM647.182 380.502V388.887C648.553 388.86 650.056 388.746 651.717 388.412L651.91 390.117C649.766 390.504 647.955 390.609 646.268 390.609H645.213V380.502H647.182ZM672.529 378.674V384.879H674.885V386.514H672.529V394.529H670.578V378.674H672.529ZM668.328 380.326C668.328 385.002 666.395 389.098 661.104 391.699L659.996 390.188C663.863 388.263 665.955 385.556 666.359 381.943H660.857V380.326H668.328ZM687.98 380.045V387.551H680.457V380.045H687.98ZM682.373 381.609V386.004H686.064V381.609H682.373ZM692.445 378.674V383.332H694.66V384.967H692.445V390.275H690.494V378.674H692.445ZM693.078 392.666V394.248H682.268V389.15H684.219V392.666H693.078ZM709.971 386.584V388.148H695.469V386.584H709.971ZM708.354 383.561V385.143H697.244V379.307H708.213V380.854H699.195V383.561H708.354ZM708.459 392.648V394.23H697.262V389.537H699.178V392.648H708.459ZM729.816 391.031V392.631H715.297V391.031H721.555V387.568H716.896V379.904H728.146V387.568H723.488V391.031H729.816ZM718.812 381.469V386.039H726.213V381.469H718.812ZM744.09 378.691V387.691H742.121V378.691H744.09ZM744.09 388.465V394.371H733.543V388.465H744.09ZM735.477 390.012V392.789H742.174V390.012H735.477ZM735.424 379.447C737.867 379.447 739.695 380.994 739.695 383.244C739.695 385.424 737.867 387.006 735.424 387.006C732.963 387.006 731.135 385.424 731.135 383.244C731.135 380.994 732.963 379.447 735.424 379.447ZM735.424 381.1C734.035 381.1 733.033 381.926 733.051 383.244C733.033 384.527 734.035 385.354 735.424 385.354C736.795 385.354 737.779 384.527 737.779 383.244C737.779 381.926 736.795 381.1 735.424 381.1Z" fill="#9CA3AF"/>
<rect x="486" y="423" width="124" height="40" rx="12" fill="#111827"/>
<path d="M506.73 439.113C506.73 440.672 507.811 442.162 509.684 442.791L509.027 443.803C507.64 443.324 506.621 442.367 506.088 441.164C505.555 442.49 504.495 443.529 503.053 444.035L502.355 443.023C504.27 442.367 505.418 440.795 505.432 439.1V438.771H502.738V437.719H509.369V438.771H506.73V439.113ZM512.076 436.912V440.057H513.854V441.15H512.076V444.295H510.777V436.912H512.076ZM512.076 444.896V449.162H510.777V445.949H503.982V444.896H512.076ZM518.898 438.744C518.898 440.467 520.006 441.998 521.865 442.6L521.154 443.611C519.808 443.126 518.816 442.183 518.283 440.959C517.75 442.36 516.684 443.447 515.207 443.98L514.51 442.941C516.465 442.271 517.6 440.645 517.613 438.799V437.596H518.898V438.744ZM524.764 436.912V444.145H523.465V440.467H520.881V439.4H523.465V436.912H524.764ZM520.662 444.486C523.232 444.486 524.805 445.334 524.805 446.824C524.805 448.301 523.232 449.148 520.662 449.135C518.092 449.148 516.506 448.301 516.52 446.824C516.506 445.334 518.092 444.486 520.662 444.486ZM520.662 445.498C518.871 445.498 517.805 445.977 517.805 446.824C517.805 447.645 518.871 448.109 520.662 448.109C522.453 448.109 523.52 447.645 523.52 446.824C523.52 445.977 522.453 445.498 520.662 445.498ZM539.611 436.912V441.793H541.512V442.873H539.611V449.148H538.312V436.912H539.611ZM536.412 438.197C536.398 441.738 534.84 444.896 530.807 446.893L530.082 445.881C533.151 444.35 534.819 442.135 535.086 439.277H530.697V438.197H536.412ZM552.066 440.221V441.273H543.658V437.131H544.943V440.221H552.066ZM553.352 442.572V443.639H542.168V442.572H553.352ZM547.746 444.637C550.385 444.637 551.971 445.443 551.971 446.865C551.971 448.301 550.385 449.107 547.746 449.107C545.094 449.107 543.494 448.301 543.494 446.865C543.494 445.443 545.094 444.637 547.746 444.637ZM547.746 445.648C545.873 445.662 544.807 446.072 544.807 446.865C544.807 447.645 545.873 448.109 547.746 448.109C549.592 448.109 550.672 447.645 550.672 446.865C550.672 446.072 549.592 445.662 547.746 445.648ZM563.893 436.926V440.863H565.67V441.943H563.893V446.086H562.594V436.926H563.893ZM561.582 438.348V439.4H554.281V438.348H557.289V436.912H558.588V438.348H561.582ZM557.932 439.988C559.695 439.988 560.898 440.904 560.898 442.299C560.898 443.693 559.695 444.596 557.932 444.596C556.154 444.596 554.951 443.693 554.951 442.299C554.951 440.904 556.154 439.988 557.932 439.988ZM557.932 440.986C556.893 440.986 556.195 441.492 556.209 442.299C556.195 443.092 556.893 443.584 557.932 443.584C558.971 443.584 559.668 443.092 559.682 442.299C559.668 441.492 558.971 440.986 557.932 440.986ZM564.412 447.85V448.902H556.127V445.361H557.426V447.85H564.412ZM579.957 436.912V449.189H578.658V436.912H579.957ZM576.211 438.02V442.49H571.809V445.17C573.791 445.163 575.527 445.074 577.578 444.732L577.701 445.799C575.527 446.168 573.682 446.25 571.521 446.25H570.482V441.451H574.885V439.072H570.469V438.02H576.211ZM593.082 443.994V445.061H590.334V449.162H589.035V445.061H585.932V449.162H584.605V445.061H581.871V443.994H593.082ZM584.551 437.391V438.949H590.375V437.391H591.674V442.641H583.266V437.391H584.551ZM584.551 441.602H590.375V439.975H584.551V441.602Z" fill="white"/>
<rect x="618" y="423" width="96" height="40" rx="12" fill="#E5E7EB"/>
<path d="M638.73 439.113C638.73 440.672 639.811 442.162 641.684 442.791L641.027 443.803C639.64 443.324 638.621 442.367 638.088 441.164C637.555 442.49 636.495 443.529 635.053 444.035L634.355 443.023C636.27 442.367 637.418 440.795 637.432 439.1V438.771H634.738V437.719H641.369V438.771H638.73V439.113ZM644.076 436.912V440.057H645.854V441.15H644.076V444.295H642.777V436.912H644.076ZM644.076 444.896V449.162H642.777V445.949H635.982V444.896H644.076ZM650.898 438.744C650.898 440.467 652.006 441.998 653.865 442.6L653.154 443.611C651.808 443.126 650.816 442.183 650.283 440.959C649.75 442.36 648.684 443.447 647.207 443.98L646.51 442.941C648.465 442.271 649.6 440.645 649.613 438.799V437.596H650.898V438.744ZM656.764 436.912V444.145H655.465V440.467H652.881V439.4H655.465V436.912H656.764ZM652.662 444.486C655.232 444.486 656.805 445.334 656.805 446.824C656.805 448.301 655.232 449.148 652.662 449.135C650.092 449.148 648.506 448.301 648.52 446.824C648.506 445.334 650.092 444.486 652.662 444.486ZM652.662 445.498C650.871 445.498 649.805 445.977 649.805 446.824C649.805 447.645 650.871 448.109 652.662 448.109C654.453 448.109 655.52 447.645 655.52 446.824C655.52 445.977 654.453 445.498 652.662 445.498ZM668.275 436.926V440.863H670.053V441.943H668.275V446.086H666.977V436.926H668.275ZM665.965 438.348V439.4H658.664V438.348H661.672V436.912H662.971V438.348H665.965ZM662.314 439.988C664.078 439.988 665.281 440.904 665.281 442.299C665.281 443.693 664.078 444.596 662.314 444.596C660.537 444.596 659.334 443.693 659.334 442.299C659.334 440.904 660.537 439.988 662.314 439.988ZM662.314 440.986C661.275 440.986 660.578 441.492 660.592 442.299C660.578 443.092 661.275 443.584 662.314 443.584C663.354 443.584 664.051 443.092 664.064 442.299C664.051 441.492 663.354 440.986 662.314 440.986ZM668.795 447.85V448.902H660.51V445.361H661.809V447.85H668.795ZM684.34 436.912V449.189H683.041V436.912H684.34ZM680.594 438.02V442.49H676.191V445.17C678.174 445.163 679.91 445.074 681.961 444.732L682.084 445.799C679.91 446.168 678.064 446.25 675.904 446.25H674.865V441.451H679.268V439.072H674.852V438.02H680.594ZM697.465 443.994V445.061H694.717V449.162H693.418V445.061H690.314V449.162H688.988V445.061H686.254V443.994H697.465ZM688.934 437.391V438.949H694.758V437.391H696.057V442.641H687.648V437.391H688.934ZM688.934 441.602H694.758V439.975H688.934V441.602Z" fill="#111827"/>
<g clip-path="url(#clip3_518_12495)">
<path d="M449 451H827V656H449V451Z" fill="#E8E8E8"/>
</g>
<path d="M795.289 498.422V499.969H784.408V493.553H795.113V495.117H786.412V498.422H795.289ZM797.029 501.727V503.309H790.701V508.529H788.768V503.309H782.51V501.727H797.029ZM812.586 501.92V503.467H806.258V508.564H804.324V503.467H798.066V501.92H812.586ZM801.758 493.307V495.258H808.859V493.307H810.828V500.268H799.824V493.307H801.758ZM801.758 498.686H808.859V496.805H801.758V498.686ZM828.16 505.102V506.719H813.641V505.102H819.898V502.518H815.363V497.314H824.504V495.346H815.328V493.764H826.438V498.861H817.314V500.918H826.807V502.518H821.832V505.102H828.16ZM841.537 494.045V501.551H834.014V494.045H841.537ZM835.93 495.609V500.004H839.621V495.609H835.93ZM846.002 492.674V497.332H848.217V498.967H846.002V504.275H844.051V492.674H846.002ZM846.635 506.666V508.248H835.824V503.15H837.775V506.666H846.635ZM863.527 499.037V500.584H849.025V499.037H863.527ZM861.805 496.471V498.018H850.871V493.078H861.664V494.643H852.822V496.471H861.805ZM861.699 501.674V505.664H852.664V506.877H862.139V508.406H850.748V504.258H859.783V503.15H850.73V501.674H861.699ZM877.133 493.992C877.133 495.996 879.365 498.018 882.758 498.457L881.984 500.039C879.286 499.635 877.142 498.308 876.113 496.506C875.067 498.308 872.932 499.635 870.26 500.039L869.486 498.457C872.844 498.018 875.076 495.996 875.076 493.992V493.184H877.133V493.992ZM883.338 501.41V503.027H877.027V508.564H875.094V503.027H868.854V501.41H883.338ZM894.324 503.01C894.324 504.328 894.931 505.717 896.293 506.578C897.673 505.655 898.314 504.214 898.332 503.01V502.359H900.248V503.01C900.23 504.68 901.215 506.227 903.307 506.895L902.357 508.318C900.811 507.8 899.782 506.789 899.229 505.523C898.719 506.771 897.778 507.888 896.346 508.459C894.834 507.914 893.885 506.842 893.393 505.576C892.821 506.798 891.811 507.791 890.334 508.318L889.367 506.895C891.424 506.174 892.408 504.557 892.426 503.01V502.359H894.324V503.01ZM901.918 492.691V501.691H899.949V492.691H901.918ZM893.252 493.535C895.695 493.535 897.523 495.082 897.523 497.314C897.523 499.529 895.695 501.076 893.252 501.076C890.791 501.076 888.963 499.529 888.963 497.314C888.963 495.082 890.791 493.535 893.252 493.535ZM893.252 495.188C891.863 495.188 890.861 496.014 890.879 497.314C890.861 498.615 891.863 499.459 893.252 499.459C894.623 499.459 895.607 498.615 895.607 497.314C895.607 496.014 894.623 495.188 893.252 495.188ZM917.105 497.174V498.721H906.102V493.254H908.035V497.174H917.105ZM918.74 500.566V502.113H904.221V500.566H918.74ZM917.211 506.613V508.195H905.961V503.52H907.912V506.613H917.211ZM930.184 494.326V500.162H926.422V503.15C928.065 503.133 929.621 503.062 931.414 502.729L931.572 504.328C929.445 504.715 927.652 504.768 925.648 504.768H924.541V498.615H928.303V495.891H924.523V494.326H930.184ZM937.742 492.674V508.564H935.879V492.674H937.742ZM934.473 493.008V507.756H932.627V499.793H930.887V498.193H932.627V493.008H934.473ZM945.635 496.488C945.617 499.406 947.146 502.324 949.73 503.432L948.57 504.996C946.742 504.152 945.397 502.465 944.668 500.391C943.938 502.632 942.576 504.46 940.643 505.365L939.447 503.73C942.102 502.588 943.648 499.547 943.648 496.488V493.957H945.635V496.488ZM952.842 492.674V508.582H950.873V492.674H952.842ZM968.451 492.674V508.564H966.482V492.674H968.451ZM964.584 494.221V495.82H963.055V502.939C963.819 502.887 964.566 502.816 965.287 502.729L965.393 504.188C961.982 504.732 958.256 504.803 955.338 504.803L955.145 503.203L957.113 503.186V495.82H955.566V494.221H964.584ZM958.994 503.133C959.697 503.124 960.418 503.098 961.139 503.062V495.82H958.994V503.133Z" fill="#111827"/>
<path d="M983.096 492.48V508.793H981.004V492.48H983.096Z" fill="#111827"/>
<path d="M1000.03 495.117C1002.79 495.117 1004.4 495.855 1004.4 497.223C1004.4 498.59 1002.79 499.342 1000.03 499.342C997.268 499.342 995.654 498.59 995.654 497.223C995.654 495.855 997.268 495.117 1000.03 495.117ZM1000.03 496.074C998.074 496.074 996.994 496.498 997.008 497.223C996.994 497.975 998.074 498.371 1000.03 498.371C1001.98 498.371 1003.06 497.975 1003.06 497.223C1003.06 496.498 1001.98 496.074 1000.03 496.074ZM1005.62 500.094V501.133H994.451V500.094H1005.62ZM1004.21 502.076V504.947H997.076V506.041H1004.55V507.039H995.805V504.004H1002.93V503.047H995.791V502.076H1004.21ZM1011.06 498.521C1011.06 500.572 1012.4 502.691 1014.29 503.498L1013.58 504.51C1012.14 503.874 1010.99 502.527 1010.42 500.887C1009.85 502.637 1008.7 504.127 1007.28 504.824L1006.52 503.799C1008.37 502.938 1009.74 500.627 1009.75 498.521V497.223H1006.95V496.143H1013.85V497.223H1011.06V498.521ZM1016.7 494.912V507.162H1015.4V494.912H1016.7ZM1029.86 504.605V505.699H1018.65V504.605H1023.59V502.459H1020.02V498.562H1027.21V496.84H1019.99V495.773H1028.49V499.602H1021.3V501.393H1028.78V502.459H1024.87V504.605H1029.86ZM1038.11 506.137C1036.05 506.137 1034.59 505.029 1034.54 503.416H1036.07C1036.12 504.291 1036.98 504.838 1038.09 504.838C1039.28 504.838 1040.16 504.182 1040.16 503.225C1040.16 502.254 1039.34 501.543 1037.93 501.543H1037.08V500.312H1037.93C1039.05 500.312 1039.84 499.684 1039.84 498.74C1039.84 497.838 1039.17 497.223 1038.12 497.223C1037.12 497.223 1036.25 497.77 1036.21 498.672H1034.76C1034.8 497.059 1036.29 495.965 1038.13 495.965C1040.07 495.965 1041.3 497.195 1041.29 498.658C1041.3 499.779 1040.61 500.6 1039.54 500.859V500.928C1040.89 501.119 1041.67 502.021 1041.67 503.279C1041.67 504.934 1040.16 506.137 1038.11 506.137ZM1052.45 494.912V499.793H1054.35V500.873H1052.45V507.148H1051.15V494.912H1052.45ZM1049.25 496.197C1049.23 499.738 1047.68 502.896 1043.64 504.893L1042.92 503.881C1045.99 502.35 1047.66 500.135 1047.92 497.277H1043.53V496.197H1049.25Z" fill="#374151"/>
<path d="M786.635 526.102V536H785.117V527.605H785.062L782.697 529.15V527.715L785.158 526.102H786.635ZM798.912 524.926V532.104H797.613V531.516H795.221V530.695H797.613V524.926H798.912ZM788.699 529.438C791.064 529.451 794.072 529.424 796.711 529.137L796.779 529.971C795.624 530.128 794.428 530.224 793.252 530.285V532.131H791.967V530.34C790.859 530.367 789.807 530.374 788.85 530.367L788.699 529.438ZM798.912 532.514V535.152H791.857V536.096H799.281V537.039H790.586V534.291H797.627V533.416H790.531V532.514H798.912ZM792.678 525.131C794.496 525.131 795.727 525.855 795.74 526.977C795.727 528.125 794.496 528.809 792.678 528.809C790.818 528.809 789.602 528.125 789.615 526.977C789.602 525.855 790.818 525.131 792.678 525.131ZM792.678 526.006C791.543 526.006 790.832 526.389 790.832 526.977C790.832 527.564 791.543 527.934 792.678 527.934C793.785 527.934 794.51 527.564 794.51 526.977C794.51 526.389 793.785 526.006 792.678 526.006ZM805.01 536L809.426 527.469V527.387H804.326V526.102H810.984V527.441L806.582 536H805.01ZM815.551 525.322C817.396 525.336 818.75 526.471 818.764 528.07C818.75 529.684 817.396 530.805 815.551 530.805C813.691 530.805 812.324 529.684 812.324 528.07C812.324 526.471 813.691 525.336 815.551 525.322ZM815.551 526.416C814.416 526.402 813.582 527.072 813.596 528.07C813.582 529.082 814.416 529.752 815.551 529.752C816.672 529.752 817.506 529.082 817.506 528.07C817.506 527.072 816.672 526.402 815.551 526.416ZM822.236 524.912V531.146H820.938V524.912H822.236ZM822.236 531.707V534.797H815.482V535.973H822.646V537.012H814.225V533.826H820.951V532.746H814.184V531.707H822.236Z" fill="#374151"/>
<path d="M829.846 532.637C829.312 532.637 828.861 532.199 828.875 531.666C828.861 531.133 829.312 530.695 829.846 530.695C830.365 530.695 830.816 531.133 830.816 531.666C830.816 532.199 830.365 532.637 829.846 532.637Z" fill="#374151"/>
<path d="M840.635 526.102V536H839.117V527.605H839.062L836.697 529.15V527.715L839.158 526.102H840.635ZM843.492 536L847.908 527.469V527.387H842.809V526.102H849.467V527.441L845.064 536H843.492ZM851.49 534.729C850.957 534.729 850.506 534.291 850.52 533.758C850.506 533.225 850.957 532.787 851.49 532.787C852.01 532.787 852.461 533.225 852.461 533.758C852.461 534.291 852.01 534.729 851.49 534.729ZM851.49 529.328C850.957 529.328 850.506 528.891 850.52 528.357C850.506 527.824 850.957 527.387 851.49 527.387C852.01 527.387 852.461 527.824 852.461 528.357C852.461 528.891 852.01 529.328 851.49 529.328ZM857.725 536.137C855.674 536.137 854.211 535.029 854.156 533.416H855.688C855.742 534.291 856.604 534.838 857.711 534.838C858.9 534.838 859.775 534.182 859.775 533.225C859.775 532.254 858.955 531.543 857.547 531.543H856.699V530.312H857.547C858.668 530.312 859.461 529.684 859.461 528.74C859.461 527.838 858.791 527.223 857.738 527.223C856.74 527.223 855.865 527.77 855.824 528.672H854.375C854.416 527.059 855.906 525.965 857.752 525.965C859.693 525.965 860.924 527.195 860.91 528.658C860.924 529.779 860.227 530.6 859.16 530.859V530.928C860.514 531.119 861.293 532.021 861.293 533.279C861.293 534.934 859.775 536.137 857.725 536.137ZM866.393 536.137C864.096 536.137 862.756 534.291 862.756 531.051C862.756 527.838 864.123 525.965 866.393 525.965C868.662 525.965 870.029 527.838 870.029 531.051C870.029 534.291 868.676 536.137 866.393 536.137ZM866.393 534.838C867.732 534.838 868.525 533.525 868.525 531.051C868.525 528.59 867.719 527.236 866.393 527.236C865.066 527.236 864.26 528.59 864.26 531.051C864.26 533.525 865.053 534.838 866.393 534.838Z" fill="#374151"/>
<circle cx="891" cy="528.334" r="2.66667" fill="#374151"/>
<path d="M886.558 534.547C886.999 532.685 888.847 531.667 890.761 531.667H891.238C893.152 531.667 895 532.685 895.441 534.547C895.526 534.908 895.594 535.285 895.632 535.668C895.669 536.034 895.368 536.334 895 536.334H887C886.631 536.334 886.331 536.034 886.367 535.668C886.405 535.285 886.473 534.908 886.558 534.547Z" fill="#374151"/>
<path d="M903.875 536V534.906L907.307 531.447C908.387 530.312 908.934 529.684 908.934 528.822C908.934 527.852 908.141 527.223 907.102 527.223C906.008 527.223 905.297 527.92 905.297 528.973H903.875C903.861 527.168 905.242 525.965 907.129 525.965C909.043 525.965 910.355 527.168 910.369 528.781C910.355 529.889 909.836 530.764 907.977 532.596L905.967 534.633V534.715H910.533V536H903.875ZM915.646 536.137C913.35 536.137 912.01 534.291 912.01 531.051C912.01 527.838 913.377 525.965 915.646 525.965C917.916 525.965 919.283 527.838 919.283 531.051C919.283 534.291 917.93 536.137 915.646 536.137ZM915.646 534.838C916.986 534.838 917.779 533.525 917.779 531.051C917.779 528.59 916.973 527.236 915.646 527.236C914.32 527.236 913.514 528.59 913.514 531.051C913.514 533.525 914.307 534.838 915.646 534.838ZM924.629 525.637L921.443 537.49H920.145L923.33 525.637H924.629ZM925.695 536V534.906L929.127 531.447C930.207 530.312 930.754 529.684 930.754 528.822C930.754 527.852 929.961 527.223 928.922 527.223C927.828 527.223 927.117 527.92 927.117 528.973H925.695C925.682 527.168 927.062 525.965 928.949 525.965C930.863 525.965 932.176 527.168 932.189 528.781C932.176 529.889 931.656 530.764 929.797 532.596L927.787 534.633V534.715H932.354V536H925.695ZM937.467 536.137C935.17 536.137 933.83 534.291 933.83 531.051C933.83 527.838 935.197 525.965 937.467 525.965C939.736 525.965 941.104 527.838 941.104 531.051C941.104 534.291 939.75 536.137 937.467 536.137ZM937.467 534.838C938.807 534.838 939.6 533.525 939.6 531.051C939.6 528.59 938.793 527.236 937.467 527.236C936.141 527.236 935.334 528.59 935.334 531.051C935.334 533.525 936.127 534.838 937.467 534.838Z" fill="#374151"/>
<rect x="782" y="603" width="120" height="40" rx="12" fill="#34B17B"/>
<path d="M814.745 616.857V629.23H813.241V616.857H814.745ZM810.944 617.938V622.572H806.692V625.061C808.641 625.047 810.322 624.951 812.243 624.623L812.38 625.867C810.274 626.236 808.429 626.305 806.214 626.305H805.134V621.369H809.399V619.168H805.12V617.938H810.944ZM827.829 623.926V625.156H825.177V629.217H823.659V625.156H820.733V629.217H819.175V625.156H816.536V623.926H827.829ZM819.407 617.336V618.812H824.931V617.336H826.462V622.668H817.903V617.336H819.407ZM819.407 621.451H824.931V620.002H819.407V621.451ZM836.401 619.004C836.401 620.521 837.386 622.025 839.327 622.668L838.562 623.844C837.181 623.386 836.196 622.456 835.663 621.301C835.109 622.565 834.084 623.57 832.642 624.062L831.835 622.887C833.831 622.23 834.87 620.631 834.87 619.004V618.854H832.259V617.637H838.972V618.854H836.401V619.004ZM841.72 616.857V619.947H843.442V621.219H841.72V624.309H840.202V616.857H841.72ZM841.72 624.883V629.217H840.202V626.1H833.489V624.883H841.72ZM848.597 618.635C848.583 620.316 849.567 621.848 851.509 622.463L850.688 623.652C849.342 623.181 848.398 622.285 847.872 621.109C847.325 622.456 846.293 623.516 844.796 624.035L843.989 622.805C846.04 622.135 847.065 620.48 847.065 618.703V617.527H848.597V618.635ZM854.421 616.857V624.131H852.903V620.494H850.442V619.25H852.903V616.857H854.421ZM850.237 624.459C852.862 624.459 854.462 625.334 854.462 626.838C854.462 628.342 852.862 629.203 850.237 629.203C847.626 629.203 846.026 628.342 846.04 626.838C846.026 625.334 847.626 624.459 850.237 624.459ZM850.237 625.635C848.515 625.635 847.544 626.059 847.544 626.838C847.544 627.59 848.515 628.014 850.237 628.014C851.96 628.014 852.944 627.59 852.944 626.838C852.944 626.059 851.96 625.635 850.237 625.635ZM865.851 616.857V621.779H867.751V623.037H865.851V629.217H864.347V616.857H865.851ZM863.39 618.758V619.975H856.103V618.758H859.028V617.035H860.546V618.758H863.39ZM859.794 620.781C861.571 620.781 862.897 621.984 862.897 623.693C862.897 625.402 861.571 626.592 859.794 626.592C857.989 626.592 856.663 625.402 856.677 623.693C856.663 621.984 857.989 620.781 859.794 620.781ZM859.794 622.025C858.823 622.025 858.126 622.682 858.126 623.693C858.126 624.705 858.823 625.348 859.794 625.334C860.737 625.348 861.435 624.705 861.448 623.693C861.435 622.682 860.737 622.025 859.794 622.025ZM878.593 616.857V629.217H877.062V616.857H878.593ZM874.901 618.17C874.901 621.848 873.479 624.979 869.146 627.029L868.353 625.812C871.586 624.274 873.09 622.183 873.356 619.373H868.981V618.17H874.901Z" fill="white"/>
<path d="M486 667L1434 667" stroke="#E5E7EB" stroke-width="2" stroke-dasharray="4 4"/>
<g clip-path="url(#clip4_518_12495)">
<path d="M449 655H827V860H449V655Z" fill="#E8E8E8"/>
</g>
<path d="M795.852 696.674V712.582H793.9V703.898H790.842V702.299H793.9V696.674H795.852ZM788.363 700.893C788.363 703.635 789.84 706.553 792.406 707.66L791.246 709.225C789.4 708.346 788.082 706.579 787.396 704.479C786.685 706.72 785.34 708.609 783.494 709.541L782.316 708.012C784.865 706.816 786.359 703.793 786.377 700.893V699.838H782.967V698.238H791.773V699.838H788.363V700.893ZM812.568 704.479V706.061H798.084V704.479H804.342V702.264H806.275V704.479H812.568ZM806.293 697.535C806.293 699.469 808.42 701.227 811.742 701.648L810.986 703.178C808.376 702.773 806.302 701.596 805.291 699.926C804.271 701.596 802.197 702.773 799.578 703.178L798.875 701.648C802.145 701.227 804.307 699.434 804.307 697.535V696.938H806.293V697.535ZM810.793 707.326V712.564H808.842V708.855H799.684V707.326H810.793ZM826.561 703.652V705.234H821.867V709.084H828.16V710.666H813.641V709.084H819.898V705.234H815.311V697.939H817.314V703.652H826.561ZM841.766 696.674V703.23H843.998V704.865H841.766V712.564H839.797V696.674H841.766ZM829.004 708.152C830.208 708.152 831.605 708.152 833.064 708.117V706.623C831.333 706.333 830.199 705.243 830.217 703.758C830.199 701.965 831.781 700.77 834.066 700.77C836.316 700.77 837.916 701.965 837.934 703.758C837.916 705.252 836.765 706.342 835.033 706.623V708.047C836.369 707.977 837.705 707.871 838.953 707.695L839.076 709.119C835.666 709.734 831.992 709.77 829.285 709.77L829.004 708.152ZM838.777 698.502V700.049H829.303V698.502H833.064V696.744H835.033V698.502H838.777ZM834.066 702.264C832.854 702.281 832.062 702.826 832.062 703.758C832.062 704.672 832.854 705.217 834.066 705.199C835.262 705.217 836.053 704.672 836.053 703.758C836.053 702.826 835.262 702.281 834.066 702.264ZM854.949 698.941C854.949 701.033 856.25 703.002 858.781 703.793L857.814 705.34C855.978 704.725 854.668 703.521 853.965 701.965C853.235 703.635 851.908 704.962 850.027 705.604L849.043 704.074C851.609 703.195 852.928 701.104 852.928 698.941V697.43H854.949V698.941ZM862.262 706.904V712.564H860.293V708.469H851.416V706.904H862.262ZM862.262 696.674V706.184H860.293V696.674H862.262ZM870.26 700.488C870.242 703.318 871.666 706.201 874.127 707.379L872.932 708.943C871.209 708.073 869.97 706.395 869.293 704.373C868.599 706.535 867.298 708.328 865.479 709.242L864.283 707.678C866.832 706.465 868.291 703.424 868.309 700.488V697.957H870.26V700.488ZM877.027 696.674V702.896H879.471V704.566H877.027V712.564H875.076V696.674H877.027ZM882.811 697.5V699.662H886.361V697.5H888.295V700.4H891.494V696.674H893.445V705.357H891.494V702.018H888.295V704.865H880.859V697.5H882.811ZM882.811 703.283H886.361V701.174H882.811V703.283ZM884.92 706.061V707.678H891.494V706.061H893.445V712.336H882.969V706.061H884.92ZM884.92 710.754H891.494V709.189H884.92V710.754ZM901.9 709.418C901.145 709.418 900.529 708.803 900.529 708.047C900.529 707.309 901.145 706.693 901.9 706.693C902.621 706.693 903.254 707.309 903.254 708.047C903.254 708.803 902.621 709.418 901.9 709.418ZM901.9 702.598C901.145 702.598 900.529 701.982 900.529 701.227C900.529 700.488 901.145 699.873 901.9 699.873C902.621 699.873 903.254 700.488 903.254 701.227C903.254 701.982 902.621 702.598 901.9 702.598ZM917.352 698.854C917.352 701.314 919.76 703.775 923.082 704.355L922.203 705.99C919.54 705.428 917.36 703.819 916.332 701.684C915.277 703.802 913.098 705.419 910.443 705.99L909.582 704.355C912.869 703.758 915.26 701.297 915.277 698.854V697.676H917.352V698.854ZM923.662 708.926V710.543H909.143V708.926H923.662ZM938.023 696.674V712.582H936.09V704.004H933.102V702.422H936.09V696.674H938.023ZM932.855 698.045V699.645H927.389V702.492H932.223V704.039H927.389V707.309C929.806 707.3 931.616 707.221 933.664 706.887L933.857 708.469C931.537 708.82 929.516 708.908 926.668 708.926H925.42V698.045H932.855ZM953.475 696.674V712.582H951.506V696.674H953.475ZM948.904 698.115V699.715H943.209V707.098C946.136 707.089 947.973 707.001 950.082 706.623L950.275 708.24C948.008 708.662 945.951 708.75 942.594 708.75H941.24V698.115H948.904Z" fill="#111827"/>
<path d="M968.096 696.48V712.793H966.004V696.48H968.096Z" fill="#111827"/>
<path d="M985.029 699.117C987.791 699.117 989.404 699.855 989.404 701.223C989.404 702.59 987.791 703.342 985.029 703.342C982.268 703.342 980.654 702.59 980.654 701.223C980.654 699.855 982.268 699.117 985.029 699.117ZM985.029 700.074C983.074 700.074 981.994 700.498 982.008 701.223C981.994 701.975 983.074 702.371 985.029 702.371C986.984 702.371 988.064 701.975 988.064 701.223C988.064 700.498 986.984 700.074 985.029 700.074ZM990.621 704.094V705.133H979.451V704.094H990.621ZM989.213 706.076V708.947H982.076V710.041H989.555V711.039H980.805V708.004H987.928V707.047H980.791V706.076H989.213ZM996.062 702.521C996.062 704.572 997.402 706.691 999.289 707.498L998.578 708.51C997.136 707.874 995.987 706.527 995.42 704.887C994.853 706.637 993.697 708.127 992.275 708.824L991.523 707.799C993.369 706.938 994.736 704.627 994.75 702.521V701.223H991.947V700.143H998.852V701.223H996.062V702.521ZM1001.7 698.912V711.162H1000.4V698.912H1001.7ZM1014.86 708.605V709.699H1003.65V708.605H1008.59V706.459H1005.02V702.562H1012.21V700.84H1004.99V699.773H1013.49V703.602H1006.3V705.393H1013.78V706.459H1009.87V708.605H1014.86ZM1023.11 710.137C1021.05 710.137 1019.59 709.029 1019.54 707.416H1021.07C1021.12 708.291 1021.98 708.838 1023.09 708.838C1024.28 708.838 1025.16 708.182 1025.16 707.225C1025.16 706.254 1024.34 705.543 1022.93 705.543H1022.08V704.312H1022.93C1024.05 704.312 1024.84 703.684 1024.84 702.74C1024.84 701.838 1024.17 701.223 1023.12 701.223C1022.12 701.223 1021.25 701.77 1021.21 702.672H1019.76C1019.8 701.059 1021.29 699.965 1023.13 699.965C1025.07 699.965 1026.3 701.195 1026.29 702.658C1026.3 703.779 1025.61 704.6 1024.54 704.859V704.928C1025.89 705.119 1026.67 706.021 1026.67 707.279C1026.67 708.934 1025.16 710.137 1023.11 710.137ZM1037.45 698.912V703.793H1039.35V704.873H1037.45V711.148H1036.15V698.912H1037.45ZM1034.25 700.197C1034.23 703.738 1032.68 706.896 1028.64 708.893L1027.92 707.881C1030.99 706.35 1032.66 704.135 1032.92 701.277H1028.53V700.197H1034.25Z" fill="#374151"/>
<path d="M786.635 730.102V740H785.117V731.605H785.062L782.697 733.15V731.715L785.158 730.102H786.635ZM798.912 728.926V736.104H797.613V735.516H795.221V734.695H797.613V728.926H798.912ZM788.699 733.438C791.064 733.451 794.072 733.424 796.711 733.137L796.779 733.971C795.624 734.128 794.428 734.224 793.252 734.285V736.131H791.967V734.34C790.859 734.367 789.807 734.374 788.85 734.367L788.699 733.438ZM798.912 736.514V739.152H791.857V740.096H799.281V741.039H790.586V738.291H797.627V737.416H790.531V736.514H798.912ZM792.678 729.131C794.496 729.131 795.727 729.855 795.74 730.977C795.727 732.125 794.496 732.809 792.678 732.809C790.818 732.809 789.602 732.125 789.615 730.977C789.602 729.855 790.818 729.131 792.678 729.131ZM792.678 730.006C791.543 730.006 790.832 730.389 790.832 730.977C790.832 731.564 791.543 731.934 792.678 731.934C793.785 731.934 794.51 731.564 794.51 730.977C794.51 730.389 793.785 730.006 792.678 730.006ZM805.01 740L809.426 731.469V731.387H804.326V730.102H810.984V731.441L806.582 740H805.01ZM815.551 729.322C817.396 729.336 818.75 730.471 818.764 732.07C818.75 733.684 817.396 734.805 815.551 734.805C813.691 734.805 812.324 733.684 812.324 732.07C812.324 730.471 813.691 729.336 815.551 729.322ZM815.551 730.416C814.416 730.402 813.582 731.072 813.596 732.07C813.582 733.082 814.416 733.752 815.551 733.752C816.672 733.752 817.506 733.082 817.506 732.07C817.506 731.072 816.672 730.402 815.551 730.416ZM822.236 728.912V735.146H820.938V728.912H822.236ZM822.236 735.707V738.797H815.482V739.973H822.646V741.012H814.225V737.826H820.951V736.746H814.184V735.707H822.236Z" fill="#374151"/>
<path d="M829.846 736.637C829.312 736.637 828.861 736.199 828.875 735.666C828.861 735.133 829.312 734.695 829.846 734.695C830.365 734.695 830.816 735.133 830.816 735.666C830.816 736.199 830.365 736.637 829.846 736.637Z" fill="#374151"/>
<path d="M840.635 730.102V740H839.117V731.605H839.062L836.697 733.15V731.715L839.158 730.102H840.635ZM843.492 740L847.908 731.469V731.387H842.809V730.102H849.467V731.441L845.064 740H843.492ZM851.49 738.729C850.957 738.729 850.506 738.291 850.52 737.758C850.506 737.225 850.957 736.787 851.49 736.787C852.01 736.787 852.461 737.225 852.461 737.758C852.461 738.291 852.01 738.729 851.49 738.729ZM851.49 733.328C850.957 733.328 850.506 732.891 850.52 732.357C850.506 731.824 850.957 731.387 851.49 731.387C852.01 731.387 852.461 731.824 852.461 732.357C852.461 732.891 852.01 733.328 851.49 733.328ZM857.725 740.137C855.674 740.137 854.211 739.029 854.156 737.416H855.688C855.742 738.291 856.604 738.838 857.711 738.838C858.9 738.838 859.775 738.182 859.775 737.225C859.775 736.254 858.955 735.543 857.547 735.543H856.699V734.312H857.547C858.668 734.312 859.461 733.684 859.461 732.74C859.461 731.838 858.791 731.223 857.738 731.223C856.74 731.223 855.865 731.77 855.824 732.672H854.375C854.416 731.059 855.906 729.965 857.752 729.965C859.693 729.965 860.924 731.195 860.91 732.658C860.924 733.779 860.227 734.6 859.16 734.859V734.928C860.514 735.119 861.293 736.021 861.293 737.279C861.293 738.934 859.775 740.137 857.725 740.137ZM866.393 740.137C864.096 740.137 862.756 738.291 862.756 735.051C862.756 731.838 864.123 729.965 866.393 729.965C868.662 729.965 870.029 731.838 870.029 735.051C870.029 738.291 868.676 740.137 866.393 740.137ZM866.393 738.838C867.732 738.838 868.525 737.525 868.525 735.051C868.525 732.59 867.719 731.236 866.393 731.236C865.066 731.236 864.26 732.59 864.26 735.051C864.26 737.525 865.053 738.838 866.393 738.838Z" fill="#374151"/>
<circle cx="891" cy="732.334" r="2.66667" fill="#374151"/>
<path d="M886.558 738.547C886.999 736.685 888.847 735.667 890.761 735.667H891.238C893.152 735.667 895 736.685 895.441 738.547C895.526 738.908 895.594 739.285 895.632 739.668C895.669 740.034 895.368 740.334 895 740.334H887C886.631 740.334 886.331 740.034 886.367 739.668C886.405 739.285 886.473 738.908 886.558 738.547Z" fill="#374151"/>
<path d="M903.875 740V738.906L907.307 735.447C908.387 734.312 908.934 733.684 908.934 732.822C908.934 731.852 908.141 731.223 907.102 731.223C906.008 731.223 905.297 731.92 905.297 732.973H903.875C903.861 731.168 905.242 729.965 907.129 729.965C909.043 729.965 910.355 731.168 910.369 732.781C910.355 733.889 909.836 734.764 907.977 736.596L905.967 738.633V738.715H910.533V740H903.875ZM915.646 740.137C913.35 740.137 912.01 738.291 912.01 735.051C912.01 731.838 913.377 729.965 915.646 729.965C917.916 729.965 919.283 731.838 919.283 735.051C919.283 738.291 917.93 740.137 915.646 740.137ZM915.646 738.838C916.986 738.838 917.779 737.525 917.779 735.051C917.779 732.59 916.973 731.236 915.646 731.236C914.32 731.236 913.514 732.59 913.514 735.051C913.514 737.525 914.307 738.838 915.646 738.838ZM924.629 729.637L921.443 741.49H920.145L923.33 729.637H924.629ZM925.695 740V738.906L929.127 735.447C930.207 734.312 930.754 733.684 930.754 732.822C930.754 731.852 929.961 731.223 928.922 731.223C927.828 731.223 927.117 731.92 927.117 732.973H925.695C925.682 731.168 927.062 729.965 928.949 729.965C930.863 729.965 932.176 731.168 932.189 732.781C932.176 733.889 931.656 734.764 929.797 736.596L927.787 738.633V738.715H932.354V740H925.695ZM937.467 740.137C935.17 740.137 933.83 738.291 933.83 735.051C933.83 731.838 935.197 729.965 937.467 729.965C939.736 729.965 941.104 731.838 941.104 735.051C941.104 738.291 939.75 740.137 937.467 740.137ZM937.467 738.838C938.807 738.838 939.6 737.525 939.6 735.051C939.6 732.59 938.793 731.236 937.467 731.236C936.141 731.236 935.334 732.59 935.334 735.051C935.334 737.525 936.127 738.838 937.467 738.838Z" fill="#374151"/>
<rect x="782" y="807" width="120" height="40" rx="12" fill="#34B17B"/>
<path d="M814.745 820.857V833.23H813.241V820.857H814.745ZM810.944 821.938V826.572H806.692V829.061C808.641 829.047 810.322 828.951 812.243 828.623L812.38 829.867C810.274 830.236 808.429 830.305 806.214 830.305H805.134V825.369H809.399V823.168H805.12V821.938H810.944ZM827.829 827.926V829.156H825.177V833.217H823.659V829.156H820.733V833.217H819.175V829.156H816.536V827.926H827.829ZM819.407 821.336V822.812H824.931V821.336H826.462V826.668H817.903V821.336H819.407ZM819.407 825.451H824.931V824.002H819.407V825.451ZM836.401 823.004C836.401 824.521 837.386 826.025 839.327 826.668L838.562 827.844C837.181 827.386 836.196 826.456 835.663 825.301C835.109 826.565 834.084 827.57 832.642 828.062L831.835 826.887C833.831 826.23 834.87 824.631 834.87 823.004V822.854H832.259V821.637H838.972V822.854H836.401V823.004ZM841.72 820.857V823.947H843.442V825.219H841.72V828.309H840.202V820.857H841.72ZM841.72 828.883V833.217H840.202V830.1H833.489V828.883H841.72ZM848.597 822.635C848.583 824.316 849.567 825.848 851.509 826.463L850.688 827.652C849.342 827.181 848.398 826.285 847.872 825.109C847.325 826.456 846.293 827.516 844.796 828.035L843.989 826.805C846.04 826.135 847.065 824.48 847.065 822.703V821.527H848.597V822.635ZM854.421 820.857V828.131H852.903V824.494H850.442V823.25H852.903V820.857H854.421ZM850.237 828.459C852.862 828.459 854.462 829.334 854.462 830.838C854.462 832.342 852.862 833.203 850.237 833.203C847.626 833.203 846.026 832.342 846.04 830.838C846.026 829.334 847.626 828.459 850.237 828.459ZM850.237 829.635C848.515 829.635 847.544 830.059 847.544 830.838C847.544 831.59 848.515 832.014 850.237 832.014C851.96 832.014 852.944 831.59 852.944 830.838C852.944 830.059 851.96 829.635 850.237 829.635ZM865.851 820.857V825.779H867.751V827.037H865.851V833.217H864.347V820.857H865.851ZM863.39 822.758V823.975H856.103V822.758H859.028V821.035H860.546V822.758H863.39ZM859.794 824.781C861.571 824.781 862.897 825.984 862.897 827.693C862.897 829.402 861.571 830.592 859.794 830.592C857.989 830.592 856.663 829.402 856.677 827.693C856.663 825.984 857.989 824.781 859.794 824.781ZM859.794 826.025C858.823 826.025 858.126 826.682 858.126 827.693C858.126 828.705 858.823 829.348 859.794 829.334C860.737 829.348 861.435 828.705 861.448 827.693C861.435 826.682 860.737 826.025 859.794 826.025ZM878.593 820.857V833.217H877.062V820.857H878.593ZM874.901 822.17C874.901 825.848 873.479 828.979 869.146 831.029L868.353 829.812C871.586 828.274 873.09 826.183 873.356 823.373H868.981V822.17H874.901Z" fill="white"/>
<path d="M486 871L1434 871" stroke="#E5E7EB" stroke-width="2" stroke-dasharray="4 4"/>
<g clip-path="url(#clip5_518_12495)">
<path d="M463 172C463 159.297 473.297 149 486 149H1434C1446.7 149 1457 159.297 1457 172V296C1457 308.703 1446.7 319 1434 319H486C473.297 319 463 308.703 463 296V172Z" fill="white" stroke="#E5E7EB" stroke-width="2"/>
<path d="M566.297 232.281V240.062H564.562V236.484H562.156V235.062H564.562V232.281H566.297ZM558.625 240.672V242.094H564.578V240.672H566.297V246.219H556.891V240.672H558.625ZM558.625 244.812H564.578V243.453H558.625V244.812ZM561.375 232.828V236.906H556.766V238.375C558.961 238.359 560.578 238.289 562.453 237.984L562.578 239.391C560.5 239.719 558.703 239.781 556.156 239.766H555.047V235.609H559.672V234.219H555.016V232.828H561.375ZM572.953 232.828C575.094 232.812 576.562 233.859 576.562 235.469C576.562 237.062 575.094 238.125 572.953 238.125C570.812 238.125 569.328 237.062 569.344 235.469C569.328 233.859 570.812 232.812 572.953 232.828ZM572.953 234.125C571.781 234.125 570.984 234.625 571 235.469C570.984 236.297 571.781 236.828 572.953 236.828C574.141 236.828 574.922 236.297 574.938 235.469C574.922 234.625 574.141 234.125 572.953 234.125ZM580.047 232.266V242.984H578.312V232.266H580.047ZM568.312 238.984C570.938 238.969 574.422 238.953 577.422 238.531L577.531 239.781C576.391 239.977 575.203 240.109 574.031 240.188V242.531H572.297V240.281C570.953 240.344 569.672 240.359 568.547 240.375L568.312 238.984ZM580.391 244.703V246.109H570.172V242.031H571.891V244.703H580.391ZM595.031 243.188V244.625H582.125V243.188H595.031ZM589.469 235.156C589.469 237.234 591.578 239.109 594.516 239.562L593.828 240.938C591.438 240.516 589.484 239.242 588.578 237.469C587.664 239.266 585.727 240.578 583.375 241.016L582.688 239.609C585.547 239.172 587.641 237.234 587.641 235.156V234.938H583.203V233.547H593.922V234.938H589.469V235.156ZM602.375 232.406C605.594 232.406 607.453 233.266 607.469 234.828C607.453 236.266 605.914 237.094 603.219 237.234V238.141H608.828V239.531H595.953V238.141H601.5V237.234C598.82 237.086 597.281 236.258 597.281 234.828C597.281 233.266 599.156 232.406 602.375 232.406ZM602.375 233.703C600.219 233.703 599.094 234.094 599.109 234.828C599.094 235.609 600.219 235.969 602.375 235.984C604.562 235.969 605.672 235.609 605.672 234.828C605.672 234.094 604.562 233.703 602.375 233.703ZM607.219 240.438V243.891H599.188V244.938H607.609V246.266H597.484V242.656H605.516V241.75H597.469V240.438H607.219Z" fill="#1F2937"/>
<path d="M558.99 266.113C558.99 267.686 560.166 269.189 562.053 269.791L561.383 270.803C559.975 270.338 558.908 269.367 558.361 268.137C557.808 269.47 556.721 270.522 555.258 271.035L554.588 270.037C556.488 269.381 557.664 267.781 557.678 266.113V265.771H554.93V264.719H561.684V265.771H558.99V266.113ZM564.609 263.912V271.309H563.311V263.912H564.609ZM564.609 271.924V276.162H563.311V272.977H556.311V271.924H564.609ZM569.941 264.473C571.555 264.459 572.799 265.396 573.072 266.77H575.465V263.912H576.764V270.488H575.465V267.836H573.086C572.819 269.244 571.568 270.188 569.941 270.188C568.068 270.188 566.729 269.012 566.729 267.316C566.729 265.648 568.068 264.459 569.941 264.473ZM569.941 265.553C568.779 265.553 567.973 266.264 567.973 267.316C567.973 268.369 568.779 269.094 569.941 269.094C571.076 269.094 571.883 268.369 571.883 267.316C571.883 266.264 571.076 265.553 569.941 265.553ZM570.064 271.076V272.498H575.465V271.076H576.764V276.012H568.779V271.076H570.064ZM570.064 274.945H575.465V273.523H570.064V274.945ZM582.861 264.637L579.676 276.49H578.377L581.562 264.637H582.861ZM594.715 273.537V274.604H583.504V273.537H588.412V270.625H589.697V273.537H594.715ZM589.725 265.621C589.725 267.562 591.857 269.381 594.223 269.777L593.662 270.844C591.68 270.447 589.854 269.224 589.041 267.535C588.234 269.217 586.43 270.461 584.461 270.844L583.887 269.777C586.238 269.381 588.357 267.562 588.357 265.621V264.691H589.725V265.621ZM606.801 269.996V271.062H595.604V269.996H600.539V268.205H601.824V269.996H606.801ZM601.838 264.623C601.838 266.182 603.752 267.549 606.117 267.85L605.611 268.875C603.663 268.567 601.947 267.617 601.182 266.264C600.396 267.617 598.68 268.567 596.725 268.875L596.246 267.85C598.598 267.549 600.512 266.168 600.525 264.623V264.104H601.838V264.623ZM605.406 272.143V276.162H604.094V273.168H596.848V272.143H605.406Z" fill="#1F2937"/>
<path d="M624.459 263.953V276.107H623.393V263.953H624.459ZM614.561 272.867C615.6 272.86 616.789 272.854 618.02 272.812V271.486C616.563 271.329 615.613 270.502 615.627 269.285C615.613 267.918 616.789 267.029 618.539 267.029C620.289 267.029 621.479 267.918 621.479 269.285C621.479 270.488 620.535 271.315 619.1 271.473V272.771C620.275 272.724 621.465 272.635 622.586 272.484L622.668 273.305C619.961 273.742 616.98 273.783 614.725 273.783L614.561 272.867ZM622.271 265.457V266.332H614.82V265.457H618.02V263.967H619.1V265.457H622.271ZM618.539 267.863C617.418 267.863 616.625 268.438 616.625 269.285C616.625 270.133 617.418 270.68 618.539 270.666C619.674 270.68 620.453 270.133 620.453 269.285C620.453 268.438 619.674 267.863 618.539 267.863ZM630.666 267.221C630.666 269.367 632.088 271.568 633.811 272.416L633.154 273.277C631.814 272.573 630.693 271.138 630.16 269.449C629.613 271.247 628.465 272.778 627.098 273.51L626.414 272.648C628.191 271.773 629.6 269.436 629.613 267.221V265.006H630.666V267.221ZM635.998 263.953V268.889H638.035V269.818H635.998V276.107H634.932V263.953H635.998ZM648.713 263.967V273.195H647.633V271.938H645.117V271.158H647.633V263.967H648.713ZM649.014 274.945V275.848H640.373V272.293H641.453V274.945H649.014ZM638.623 269.6C640.893 269.586 643.928 269.572 646.539 269.244L646.607 270.023C645.521 270.194 644.386 270.304 643.271 270.365V272.771H642.191V270.42C640.961 270.475 639.792 270.481 638.773 270.475L638.623 269.6ZM642.615 264.459C644.393 264.459 645.609 265.307 645.623 266.578C645.609 267.877 644.393 268.684 642.615 268.684C640.824 268.684 639.607 267.877 639.607 266.578C639.607 265.307 640.824 264.459 642.615 264.459ZM642.615 265.279C641.426 265.266 640.619 265.799 640.633 266.578C640.619 267.371 641.426 267.891 642.615 267.891C643.764 267.891 644.584 267.371 644.598 266.578C644.584 265.799 643.764 265.266 642.615 265.279Z" fill="#374151"/>
<path d="M564.596 287.912V300.189H563.297V287.912H564.596ZM558.047 288.828C559.865 288.828 561.205 290.496 561.205 293.121C561.205 295.76 559.865 297.428 558.047 297.428C556.201 297.428 554.875 295.76 554.875 293.121C554.875 290.496 556.201 288.828 558.047 288.828ZM558.047 289.99C556.912 289.99 556.133 291.193 556.133 293.121C556.133 295.062 556.912 296.266 558.047 296.266C559.168 296.266 559.947 295.062 559.947 293.121C559.947 291.193 559.168 289.99 558.047 289.99ZM571.719 289.293V292.479H573.359V288.145H574.604V299.561H573.359V293.545H571.719V296.936H566.961V289.293H571.719ZM568.191 290.318V295.896H570.502V290.318H568.191ZM577.092 287.912V300.162H575.848V287.912H577.092ZM582.123 288.322C583.969 288.336 585.322 289.471 585.336 291.07C585.322 292.684 583.969 293.805 582.123 293.805C580.264 293.805 578.896 292.684 578.896 291.07C578.896 289.471 580.264 288.336 582.123 288.322ZM582.123 289.416C580.988 289.402 580.154 290.072 580.168 291.07C580.154 292.082 580.988 292.752 582.123 292.752C583.244 292.752 584.078 292.082 584.078 291.07C584.078 290.072 583.244 289.402 582.123 289.416ZM588.809 287.912V294.146H587.51V287.912H588.809ZM588.809 294.707V297.797H582.055V298.973H589.219V300.012H580.797V296.826H587.523V295.746H580.756V294.707H588.809Z" fill="#1F2937"/>
<path d="M617.119 289.102V299H615.943V289.102H617.119ZM622.027 299.15C620.004 299.15 618.637 297.633 618.637 295.322C618.637 293.012 620.004 291.48 622.027 291.48C624.037 291.48 625.391 293.012 625.391 295.322C625.391 297.633 624.037 299.15 622.027 299.15ZM622.027 298.111C623.518 298.111 624.215 296.799 624.215 295.322C624.215 293.846 623.518 292.52 622.027 292.52C620.51 292.52 619.812 293.846 619.812 295.322C619.812 296.799 620.51 298.111 622.027 298.111ZM632.773 291.576L630.025 299H628.809L626.074 291.576H627.359L629.383 297.469H629.465L631.488 291.576H632.773ZM636.916 299.15C634.77 299.15 633.443 297.633 633.443 295.35C633.443 293.066 634.783 291.48 636.807 291.48C638.365 291.48 640.006 292.438 640.006 295.186V295.678H634.619C634.674 297.25 635.59 298.111 636.916 298.111C637.805 298.111 638.365 297.729 638.639 297.264H639.896C639.541 298.385 638.447 299.15 636.916 299.15ZM634.633 294.68H638.816C638.816 293.436 638.023 292.52 636.807 292.52C635.521 292.52 634.701 293.531 634.633 294.68ZM646.432 297.701C645.064 297.701 644.066 296.594 644.066 294.816C644.066 293.053 645.078 291.945 646.445 291.945C647.43 291.945 647.84 292.574 648.004 292.889H648.072V292.055H649.111V296.047C649.125 296.58 649.357 296.84 649.795 296.84C650.643 296.84 651.203 295.855 651.217 294.434C651.23 291.85 649.357 290.168 646.746 290.168C644.039 290.182 642.289 292.273 642.289 294.816C642.289 297.592 643.807 299.506 646.691 299.479C647.648 299.465 648.277 299.41 649.111 299.178V300.107C648.4 300.299 647.594 300.422 646.691 300.422C643.355 300.422 641.305 298.289 641.305 294.816C641.291 291.59 643.561 289.225 646.746 289.225C650.014 289.225 652.215 291.453 652.201 294.393C652.201 296.512 651.107 297.756 649.727 297.756C648.865 297.756 648.216 297.271 648.168 296.635H648.072C647.908 296.936 647.498 297.701 646.432 297.701ZM646.609 296.703C647.58 296.703 648.072 295.938 648.086 294.803C648.072 293.695 647.594 292.943 646.609 292.943C645.652 292.943 645.133 293.764 645.133 294.803C645.133 295.869 645.666 296.703 646.609 296.703ZM656.973 299.15C654.826 299.15 653.5 297.633 653.5 295.35C653.5 293.066 654.84 291.48 656.863 291.48C658.422 291.48 660.062 292.438 660.062 295.186V295.678H654.676C654.73 297.25 655.646 298.111 656.973 298.111C657.861 298.111 658.422 297.729 658.695 297.264H659.953C659.598 298.385 658.504 299.15 656.973 299.15ZM654.689 294.68H658.873C658.873 293.436 658.08 292.52 656.863 292.52C655.578 292.52 654.758 293.531 654.689 294.68ZM667.473 291.576L664.725 299H663.508L660.773 291.576H662.059L664.082 297.469H664.164L666.188 291.576H667.473ZM671.615 299.15C669.469 299.15 668.143 297.633 668.143 295.35C668.143 293.066 669.482 291.48 671.506 291.48C673.064 291.48 674.705 292.438 674.705 295.186V295.678H669.318C669.373 297.25 670.289 298.111 671.615 298.111C672.504 298.111 673.064 297.729 673.338 297.264H674.596C674.24 298.385 673.146 299.15 671.615 299.15ZM669.332 294.68H673.516C673.516 293.436 672.723 292.52 671.506 292.52C670.221 292.52 669.4 293.531 669.332 294.68ZM676.236 299V291.576H677.371V292.711H677.453C677.727 291.959 678.492 291.453 679.367 291.453C679.545 291.453 679.846 291.467 679.982 291.48V292.67C679.9 292.643 679.572 292.588 679.271 292.588C678.205 292.588 677.412 293.326 677.412 294.324V299H676.236ZM681.131 299V291.576H682.307V299H681.131ZM681.719 290.346C681.268 290.346 680.898 290.004 680.898 289.566C680.898 289.129 681.268 288.787 681.719 288.787C682.17 288.787 682.553 289.129 682.553 289.566C682.553 290.004 682.17 290.346 681.719 290.346ZM685.355 294.543V299H684.18V291.576H685.314V292.738H685.41C685.766 291.986 686.449 291.48 687.584 291.48C689.088 291.48 690.086 292.396 690.086 294.283V299H688.91V294.365C688.91 293.217 688.281 292.533 687.229 292.533C686.148 292.533 685.355 293.258 685.355 294.543ZM694.98 301.939C693.189 301.939 691.973 301.16 691.836 299.779H693.066C693.23 300.531 693.928 300.914 694.98 300.914C696.252 300.914 697.031 300.367 697.031 299.137V297.633H696.936C696.689 298.043 696.211 298.891 694.775 298.891C692.971 298.891 691.617 297.523 691.617 295.186C691.617 292.902 692.93 291.48 694.789 291.48C696.225 291.48 696.689 292.355 696.963 292.752H697.059V291.576H698.207V299.205C698.207 301.119 696.785 301.939 694.98 301.939ZM694.939 297.838C696.293 297.838 697.059 296.867 697.059 295.227C697.059 293.641 696.32 292.533 694.939 292.533C693.518 292.533 692.807 293.736 692.807 295.227C692.807 296.771 693.531 297.838 694.939 297.838ZM700.914 299.082C700.436 299.082 700.025 298.686 700.039 298.193C700.025 297.715 700.436 297.318 700.914 297.318C701.393 297.318 701.789 297.715 701.789 298.193C701.789 298.686 701.393 299.082 700.914 299.082ZM706.67 299.15C704.564 299.15 703.279 297.551 703.279 295.322C703.279 293.066 704.619 291.48 706.643 291.48C708.229 291.48 709.404 292.41 709.596 293.818H708.42C708.256 293.135 707.654 292.52 706.67 292.52C705.344 292.52 704.455 293.613 704.455 295.281C704.455 297.004 705.316 298.098 706.67 298.098C707.545 298.098 708.215 297.633 708.42 296.812H709.596C709.404 298.139 708.324 299.15 706.67 299.15ZM714.08 299.15C712.057 299.15 710.689 297.633 710.689 295.322C710.689 293.012 712.057 291.48 714.08 291.48C716.09 291.48 717.443 293.012 717.443 295.322C717.443 297.633 716.09 299.15 714.08 299.15ZM714.08 298.111C715.57 298.111 716.268 296.799 716.268 295.322C716.268 293.846 715.57 292.52 714.08 292.52C712.562 292.52 711.865 293.846 711.865 295.322C711.865 296.799 712.562 298.111 714.08 298.111ZM718.988 299V291.576H720.123V292.738H720.219C720.533 291.945 721.244 291.48 722.215 291.48C723.186 291.48 723.842 291.945 724.197 292.738H724.279C724.662 291.973 725.441 291.48 726.508 291.48C727.834 291.48 728.777 292.287 728.777 294.037V299H727.602V294.051C727.602 292.957 726.904 292.533 726.098 292.533C725.059 292.533 724.471 293.23 724.471 294.174V299H723.281V293.928C723.281 293.094 722.68 292.533 721.832 292.533C720.943 292.533 720.164 293.285 720.164 294.365V299H718.988Z" fill="#374151"/>
<path d="M464 172C464 159.85 473.85 150 486 150H1434C1446.15 150 1456 159.85 1456 172V215H464V172Z" fill="#73CFA5"/>
<path d="M465 208L1455 208" stroke="#34B17B" stroke-width="2" stroke-linecap="square" stroke-linejoin="round"/>
<path d="M502.168 171.674V187.564H500.287V179.531H498.529V186.756H496.701V171.973H498.529V177.932H500.287V171.674H502.168ZM491.182 173.502V181.887C492.553 181.86 494.056 181.746 495.717 181.412L495.91 183.117C493.766 183.504 491.955 183.609 490.268 183.609H489.213V173.502H491.182ZM522.875 184.014V185.648H508.355V184.014H522.875ZM521.609 173.15V174.715H519.289V179.777H521.557V181.324H509.604V179.777H511.836V174.715H509.551V173.15H521.609ZM513.787 179.777H517.355V174.715H513.787V179.777ZM538.432 184.102V185.719H523.912V184.102H530.17V181.518H525.635V176.314H534.775V174.346H525.6V172.764H536.709V177.861H527.586V179.918H537.078V181.518H532.104V184.102H538.432ZM552.723 171.674V179.865H550.771V171.674H552.723ZM552.723 180.533V184.629H544.039V185.877H553.232V187.424H542.105V183.205H550.789V182.062H542.07V180.533H552.723ZM548.785 172.693V174.205H547.361V177.668C548.082 177.606 548.785 177.536 549.453 177.457L549.541 178.863C546.377 179.355 542.721 179.461 539.943 179.461L539.732 177.914L541.543 177.896V174.205H540.154V172.693H548.785ZM543.424 177.861C544.109 177.844 544.804 177.817 545.498 177.773V174.205H543.424V177.861Z" fill="#111827"/>
<circle cx="1418" cy="180" r="15" fill="#E5E7EB" stroke="#E5E7EB" stroke-width="2"/>
<path d="M1418.02 173.226C1418.21 172.825 1418.68 172.652 1419.08 172.84L1422.53 174.454C1422.93 174.641 1423.1 175.118 1422.91 175.519L1418.15 185.796C1418.06 185.991 1417.89 186.142 1417.69 186.213L1415.18 187.094C1414.77 187.238 1414.32 187.027 1414.17 186.619L1413.23 184.123C1413.16 183.922 1413.16 183.698 1413.25 183.503L1418.02 173.226Z" fill="#9CA3AF"/>
<path d="M1414.67 173.566L1424.2 178.04" stroke="#E5E7EB"/>
<circle cx="516" cy="234" r="29.5" fill="#D9D9D9" stroke="white" stroke-width="3"/>
<g clip-path="url(#clip6_518_12495)">
<circle cx="516" cy="234" r="27" fill="white" stroke="#E5E7EB" stroke-width="2"/>
<path fill-rule="evenodd" clip-rule="evenodd" d="M532.047 240.993C529.348 247.177 523.179 251.5 516 251.5C508.379 251.5 501.897 246.629 499.495 239.831C496.353 239.74 493.833 237.165 493.833 234C493.833 230.836 496.352 228.26 499.495 228.169C501.896 221.371 508.379 216.5 516 216.5C524.058 216.5 530.844 221.946 532.878 229.358C535.844 229.633 538.167 232.128 538.167 235.166C538.167 238.388 535.555 241 532.333 241C532.237 241 532.142 240.997 532.047 240.993Z" fill="#E5E7EB"/>
<path fill-rule="evenodd" clip-rule="evenodd" d="M514.367 231.202C513.816 230.095 512.619 229.333 511.208 229.333C510.59 229.333 509.635 229.747 509.242 230.418C509.186 230.573 508.961 230.573 508.905 230.418C508.456 229.798 507.557 229.385 506.883 229.385C505.029 229.385 503.457 230.78 503.4 232.486V232.589C503.4 233.468 503.794 234.295 504.468 234.915V234.967C504.524 235.019 507.22 237.189 508.456 238.171C508.793 238.43 509.298 238.43 509.635 238.171C510.154 237.759 510.921 237.137 511.644 236.55L511.645 236.55C512.643 235.74 513.558 234.997 513.623 234.967V234.915C514.22 234.412 514.596 233.708 514.675 232.908C515.064 232.86 515.504 232.833 516.001 232.833C516.755 232.833 517.379 232.895 517.892 232.998C517.892 233.015 517.891 233.033 517.89 233.05V233.153C517.89 234.032 518.283 234.859 518.958 235.479V235.531C519.014 235.583 521.71 237.753 522.946 238.736C523.283 238.994 523.788 238.994 524.125 238.736C524.644 238.323 525.411 237.701 526.134 237.114C527.133 236.304 528.048 235.561 528.113 235.531V235.479C528.787 234.911 529.181 234.084 529.181 233.153V233.05C529.124 231.293 527.608 229.897 525.698 229.897C525.08 229.897 524.125 230.311 523.732 230.982C523.676 231.138 523.451 231.138 523.395 230.982C522.946 230.362 522.047 229.949 521.373 229.949C520.179 229.949 519.102 230.527 518.472 231.395C517.871 231.207 517.066 231.083 516.001 231.083C515.368 231.083 514.828 231.127 514.367 231.202Z" fill="#6B7280"/>
<path d="M513.083 239.25C513.277 239.639 514.133 240.417 516 240.417C517.866 240.417 518.722 239.639 518.916 239.25" stroke="#6B7280" stroke-width="1.75" stroke-linecap="round" stroke-linejoin="round"/>
<path d="M513.191 219.016C512.579 219.496 511.617 221.428 512.147 222.788C512.677 224.147 513.506 224.484 513.927 224.592" stroke="#6B7280" stroke-width="1.39112" stroke-linecap="round"/>
<path d="M516.91 219.974C516.297 220.392 515.857 222.19 516.444 223.445C516.881 224.38 517.998 224.743 518.354 224.834" stroke="#6B7280" stroke-width="1.39112" stroke-linecap="round"/>
<path d="M520.002 220.613C519.708 220.998 519.923 222.107 520.428 222.858C520.726 223.302 521.629 223.951 521.868 223.934" stroke="#6B7280" stroke-width="1.38833" stroke-linecap="round"/>
</g>
</g>
</g>
<defs>
<clipPath id="clip0_518_12495">
<rect width="1920" height="1080" rx="40" fill="white"/>
</clipPath>
<clipPath id="clip1_518_12495">
<rect width="73" height="35" fill="white" transform="translate(360 12.5)"/>
</clipPath>
<clipPath id="clip2_518_12495">
<rect width="40" height="40" fill="white" transform="translate(1518 10)"/>
</clipPath>
<clipPath id="clip3_518_12495">
<path d="M486 511C486 497.745 496.745 487 510 487H742C755.255 487 766 497.745 766 511V619C766 632.255 755.255 643 742 643H510C496.745 643 486 632.255 486 619V511Z" fill="white"/>
</clipPath>
<clipPath id="clip4_518_12495">
<path d="M486 715C486 701.745 496.745 691 510 691H742C755.255 691 766 701.745 766 715V823C766 836.255 755.255 847 742 847H510C496.745 847 486 836.255 486 823V715Z" fill="white"/>
</clipPath>
<clipPath id="clip5_518_12495">
<path d="M462 172C462 158.745 472.745 148 486 148H1434C1447.25 148 1458 158.745 1458 172V296C1458 309.255 1447.25 320 1434 320H486C472.745 320 462 309.255 462 296V172Z" fill="white"/>
</clipPath>
<clipPath id="clip6_518_12495">
<rect width="56" height="56" fill="white" transform="translate(488 206)"/>
</clipPath>
</defs>
</svg>
