<svg width="375" height="667" viewBox="0 0 375 667" fill="none" xmlns="http://www.w3.org/2000/svg">
<g clip-path="url(#clip0_523_14003)">
<rect width="375" height="667" rx="20" fill="#F9FAFB"/>
<g clip-path="url(#clip1_523_14003)">
<mask id="path-2-inside-1_523_14003" fill="white">
<path d="M0 0H375V56H0V0Z"/>
</mask>
<path d="M0 0H375V56H0V0Z" fill="white"/>
<g clip-path="url(#clip2_523_14003)">
<path d="M27.2392 31.7931C27.2392 32.097 27.1543 32.325 26.9844 32.477C26.8235 32.6289 26.5911 32.7049 26.2871 32.7049C25.9832 32.7049 25.7463 32.6289 25.5764 32.477C25.4155 32.325 25.335 32.097 25.335 31.7931V26.322H24.3159C24.2801 26.8852 24.2042 27.3947 24.0879 27.8507C23.9717 28.3066 23.7974 28.691 23.565 29.0039C23.3415 29.3168 23.0599 29.5581 22.7202 29.728C22.3805 29.8979 21.9737 29.9828 21.4999 29.9828C20.9725 29.9828 20.5255 29.88 20.1589 29.6744C19.7924 29.4598 19.4929 29.1603 19.2605 28.7759C19.037 28.3915 18.8761 27.9267 18.7778 27.3813C18.6794 26.8271 18.6302 26.2102 18.6302 25.5308C18.6302 24.8514 18.6794 24.239 18.7778 23.6937C18.8761 23.1394 19.037 22.6701 19.2605 22.2857C19.4929 21.9013 19.7924 21.6063 20.1589 21.4007C20.5255 21.1861 20.9725 21.0788 21.4999 21.0788C21.9648 21.0788 22.367 21.1638 22.7068 21.3336C23.0465 21.4945 23.3281 21.7314 23.5516 22.0443C23.775 22.3483 23.9449 22.7237 24.0611 23.1707C24.1863 23.6088 24.2712 24.1049 24.3159 24.6592H25.335V21.6957C25.335 21.3917 25.4155 21.1638 25.5764 21.0118C25.7463 20.8598 25.9832 20.7838 26.2871 20.7838C26.5911 20.7838 26.8235 20.8598 26.9844 21.0118C27.1543 21.1638 27.2392 21.3917 27.2392 21.6957V31.7931ZM29.8809 32.1685C29.8809 32.4725 29.7959 32.7005 29.6261 32.8524C29.4562 33.0133 29.2193 33.0938 28.9154 33.0938C28.6114 33.0938 28.3745 33.0133 28.2047 32.8524C28.0348 32.7005 27.9499 32.4725 27.9499 32.1685V21.575C27.9499 21.271 28.0348 21.0431 28.2047 20.8911C28.3745 20.7302 28.6114 20.6497 28.9154 20.6497C29.2193 20.6497 29.4562 20.7302 29.6261 20.8911C29.7959 21.0431 29.8809 21.271 29.8809 21.575V32.1685ZM20.4942 25.5308C20.4942 26.398 20.5657 27.0729 20.7087 27.5557C20.8518 28.0295 21.1155 28.2664 21.4999 28.2664C21.8843 28.2664 22.148 28.0295 22.2911 27.5557C22.4341 27.0729 22.5056 26.398 22.5056 25.5308C22.5056 24.6637 22.4341 23.9932 22.2911 23.5194C22.148 23.0366 21.8843 22.7953 21.4999 22.7953C21.1155 22.7953 20.8518 23.0366 20.7087 23.5194C20.5657 23.9932 20.4942 24.6637 20.4942 25.5308ZM32.0093 22.1382C32.0093 21.8342 32.0987 21.6063 32.2775 21.4543C32.4652 21.2934 32.7111 21.2129 33.015 21.2129C33.319 21.2129 33.5604 21.2934 33.7391 21.4543C33.9269 21.6063 34.0207 21.8342 34.0207 22.1382V24.0155H36.3272V22.1382C36.3272 21.8342 36.4166 21.6063 36.5954 21.4543C36.7831 21.2934 37.029 21.2129 37.3329 21.2129C37.6369 21.2129 37.8782 21.2934 38.057 21.4543C38.2448 21.6063 38.3386 21.8342 38.3386 22.1382V24.4983H40.4171V21.6286C40.4171 21.3157 40.5154 21.0744 40.7121 20.9045C40.9177 20.7347 41.177 20.6497 41.4899 20.6497C41.8028 20.6497 42.0575 20.7347 42.2542 20.9045C42.4598 21.0744 42.5626 21.3157 42.5626 21.6286V32.1149C42.5626 32.4278 42.4598 32.6692 42.2542 32.839C42.0575 33.0089 41.8028 33.0938 41.4899 33.0938C41.177 33.0938 40.9177 33.0089 40.7121 32.839C40.5154 32.6692 40.4171 32.4278 40.4171 32.1149V26.2817H38.3386V28.5748C38.3386 29.4598 37.8916 29.9023 36.9977 29.9023H33.3503C32.4563 29.9023 32.0093 29.4598 32.0093 28.5748V22.1382ZM34.0207 25.7588V27.9177C34.0207 28.016 34.0342 28.0831 34.061 28.1189C34.0878 28.1457 34.1504 28.1591 34.2487 28.1591H36.0992C36.1976 28.1591 36.2601 28.1457 36.287 28.1189C36.3138 28.0831 36.3272 28.016 36.3272 27.9177V25.7588H34.0207ZM53.1422 21.6286C53.1422 21.3157 53.2406 21.0744 53.4373 20.9045C53.6429 20.7347 53.9021 20.6497 54.215 20.6497C54.5279 20.6497 54.7827 20.7347 54.9794 20.9045C55.185 21.0744 55.2878 21.3157 55.2878 21.6286V26.9254C55.2878 27.2383 55.185 27.4797 54.9794 27.6495C54.7827 27.8194 54.5279 27.9043 54.215 27.9043C53.9021 27.9043 53.6429 27.8194 53.4373 27.6495C53.2406 27.4797 53.1422 27.2383 53.1422 26.9254V21.6286ZM50.9028 28.1054C51.5465 28.1054 52.1365 28.1546 52.6729 28.253C53.2182 28.3423 53.6831 28.4899 54.0675 28.6955C54.4519 28.9011 54.7514 29.1648 54.9659 29.4866C55.1805 29.8085 55.2878 30.2018 55.2878 30.6667C55.2878 31.1315 55.1805 31.5249 54.9659 31.8467C54.7514 32.1685 54.4519 32.4323 54.0675 32.6379C53.6831 32.8435 53.2182 32.991 52.6729 33.0804C52.1365 33.1787 51.5465 33.2279 50.9028 33.2279C50.2592 33.2279 49.6647 33.1787 49.1194 33.0804C48.583 32.991 48.1226 32.8435 47.7382 32.6379C47.3538 32.4323 47.0543 32.1685 46.8398 31.8467C46.6252 31.5249 46.5179 31.1315 46.5179 30.6667C46.5179 30.2018 46.6252 29.8085 46.8398 29.4866C47.0543 29.1648 47.3538 28.9011 47.7382 28.6955C48.1226 28.4899 48.583 28.3423 49.1194 28.253C49.6647 28.1546 50.2592 28.1054 50.9028 28.1054ZM50.9028 31.5919C51.18 31.5919 51.4526 31.5785 51.7208 31.5517C51.989 31.5249 52.2259 31.4757 52.4315 31.4042C52.6461 31.3327 52.8159 31.2388 52.9411 31.1226C53.0752 30.9974 53.1422 30.8455 53.1422 30.6667C53.1422 30.4879 53.0752 30.3404 52.9411 30.2242C52.8159 30.099 52.6461 30.0007 52.4315 29.9291C52.2259 29.8576 51.989 29.8085 51.7208 29.7816C51.4526 29.7548 51.18 29.7414 50.9028 29.7414C50.6257 29.7414 50.3531 29.7548 50.0849 29.7816C49.8167 29.8085 49.5753 29.8576 49.3608 29.9291C49.1551 30.0007 48.9853 30.099 48.8512 30.2242C48.726 30.3404 48.6635 30.4879 48.6635 30.6667C48.6635 30.8455 48.726 30.9974 48.8512 31.1226C48.9853 31.2388 49.1551 31.3327 49.3608 31.4042C49.5753 31.4757 49.8167 31.5249 50.0849 31.5517C50.3531 31.5785 50.6257 31.5919 50.9028 31.5919ZM51.4795 27.14C50.8 27.2383 50.134 27.3098 49.4814 27.3545C48.8378 27.3903 48.1494 27.4081 47.4164 27.4081H46.3838C45.9279 27.4081 45.5971 27.3098 45.3915 27.1131C45.1859 26.9075 45.0831 26.5857 45.0831 26.1477V24.6056C45.0831 24.1675 45.1859 23.8457 45.3915 23.6401C45.5971 23.4345 45.9279 23.3316 46.3838 23.3316H49.0657C49.182 23.3316 49.2401 23.2735 49.2401 23.1573V22.6746C49.2401 22.6031 49.2267 22.5584 49.1998 22.5405C49.182 22.5226 49.1373 22.5137 49.0657 22.5137H46.0754C45.8072 22.5137 45.5837 22.4466 45.4049 22.3125C45.2351 22.1695 45.1502 21.9683 45.1502 21.7091C45.1502 21.4409 45.2351 21.2398 45.4049 21.1057C45.5837 20.9626 45.8072 20.8911 46.0754 20.8911H49.9508C50.4156 20.8911 50.7464 20.9894 50.9431 21.1861C51.1487 21.3828 51.2515 21.7091 51.2515 22.165V23.6132C51.2515 24.0692 51.1487 24.3999 50.9431 24.6056C50.7464 24.8022 50.4156 24.9006 49.9508 24.9006H47.2555C47.1839 24.9006 47.1392 24.9095 47.1214 24.9274C47.1035 24.9453 47.0945 24.99 47.0945 25.0615V25.6649C47.0945 25.7364 47.1035 25.7811 47.1214 25.799C47.1392 25.8169 47.1839 25.8258 47.2555 25.8258H47.765C48.3819 25.8258 48.9763 25.8035 49.5485 25.7588C50.1206 25.7141 50.6749 25.6515 51.2113 25.571C51.4705 25.5263 51.694 25.5487 51.8817 25.6381C52.0695 25.7275 52.1902 25.9063 52.2438 26.1745C52.2974 26.4427 52.2483 26.6617 52.0963 26.8315C51.9443 26.9925 51.7387 27.0953 51.4795 27.14Z" fill="black"/>
</g>
<path d="M95.7031 31.4688V32.7129H84.4102V31.4688H89.2773V28.7754H85.6543V22.8145H94.4043V28.7754H90.7812V31.4688H95.7031ZM87.1445 24.0312V27.5859H92.9004V24.0312H87.1445ZM106.805 21.8711V28.8711H105.273V21.8711H106.805ZM106.805 29.4727V34.0664H98.6016V29.4727H106.805ZM100.105 30.6758V32.8359H105.314V30.6758H100.105ZM100.064 22.459C101.965 22.459 103.387 23.6621 103.387 25.4121C103.387 27.1074 101.965 28.3379 100.064 28.3379C98.1504 28.3379 96.7285 27.1074 96.7285 25.4121C96.7285 23.6621 98.1504 22.459 100.064 22.459ZM100.064 23.7441C98.9844 23.7441 98.2051 24.3867 98.2188 25.4121C98.2051 26.4102 98.9844 27.0527 100.064 27.0527C101.131 27.0527 101.896 26.4102 101.896 25.4121C101.896 24.3867 101.131 23.7441 100.064 23.7441ZM116.375 24.3867C116.375 25.7129 117.373 27.0117 119.314 27.5312L118.631 28.6934C117.195 28.3174 116.184 27.4971 115.637 26.4375C115.083 27.5996 114.044 28.502 112.588 28.9258L111.863 27.7227C113.818 27.2031 114.857 25.8359 114.857 24.3867V24.3457H112.273V23.1426H114.857V21.8027H116.389V23.1426H118.959V24.3457H116.375V24.3867ZM121.68 21.8574V24.7285H123.402V25.9863H121.68V28.9395H120.162V21.8574H121.68ZM121.857 29.5137V30.7305H118.59C118.877 31.7559 120.265 32.7129 122.377 33.0137L121.83 34.1758C119.896 33.9023 118.433 33.0752 117.715 31.9473C117.004 33.0684 115.555 33.875 113.641 34.1484L113.08 33C115.199 32.7061 116.573 31.7832 116.867 30.7305H113.586V29.5137H121.857ZM134.354 21.8574V34.2168H132.822V21.8574H134.354ZM130.662 23.1699C130.662 26.8477 129.24 29.9785 124.906 32.0293L124.113 30.8125C127.347 29.2744 128.851 27.1826 129.117 24.373H124.742V23.1699H130.662Z" fill="#111827"/>
<path d="M151.527 23.9766C151.527 24.9541 151.76 26.2119 152.594 27.1074C153.407 26.2256 153.619 24.9814 153.633 23.9766V23.8672H152.854V22.6504H156.408V23.8672H155.082V23.9766C155.082 25.3027 155.561 26.8477 156.969 27.5586L156.176 28.666C155.253 28.1738 154.686 27.3604 154.371 26.4102C154.063 27.3877 153.53 28.2695 152.594 28.8027C151.671 28.2764 151.131 27.4014 150.83 26.4512C150.502 27.3877 149.935 28.1943 149.025 28.666L148.219 27.5586C149.613 26.8203 150.119 25.2891 150.119 23.9766V23.8672H148.684V22.6504H152.32V23.8672H151.527V23.9766ZM158.91 21.8574V29.0625H157.393V21.8574H158.91ZM158.91 29.6777V34.0664H150.461V29.6777H158.91ZM151.965 30.8672V32.8359H157.434V30.8672H151.965ZM170.258 21.8711V25.7539H171.98V27.0117H170.258V31.0996H168.74V21.8711H170.258ZM167.852 23.2383V24.4551H160.523V23.2383H163.436V21.8574H164.953V23.2383H167.852ZM164.188 24.9609C165.965 24.9609 167.195 25.9043 167.209 27.3262C167.195 28.7344 165.965 29.6641 164.188 29.6641C162.396 29.6641 161.152 28.7344 161.152 27.3262C161.152 25.9043 162.396 24.9609 164.188 24.9609ZM164.188 26.1367C163.244 26.1367 162.629 26.5742 162.629 27.3262C162.629 28.0645 163.244 28.502 164.188 28.4883C165.131 28.502 165.76 28.0645 165.76 27.3262C165.76 26.5742 165.131 26.1367 164.188 26.1367ZM170.75 32.7402V33.9707H162.342V30.375H163.859V32.7402H170.75ZM187.225 31.4688V32.7129H175.932V31.4688H180.799V28.7754H177.176V22.8145H185.926V28.7754H182.303V31.4688H187.225ZM178.666 24.0312V27.5859H184.422V24.0312H178.666ZM198.326 21.8711V28.8711H196.795V21.8711H198.326ZM198.326 29.4727V34.0664H190.123V29.4727H198.326ZM191.627 30.6758V32.8359H196.836V30.6758H191.627ZM191.586 22.459C193.486 22.459 194.908 23.6621 194.908 25.4121C194.908 27.1074 193.486 28.3379 191.586 28.3379C189.672 28.3379 188.25 27.1074 188.25 25.4121C188.25 23.6621 189.672 22.459 191.586 22.459ZM191.586 23.7441C190.506 23.7441 189.727 24.3867 189.74 25.4121C189.727 26.4102 190.506 27.0527 191.586 27.0527C192.652 27.0527 193.418 26.4102 193.418 25.4121C193.418 24.3867 192.652 23.7441 191.586 23.7441Z" fill="#111827"/>
<path d="M223.703 31.4688V32.7129H212.41V31.4688H217.277V28.7754H213.654V22.8145H222.404V28.7754H218.781V31.4688H223.703ZM215.145 24.0312V27.5859H220.9V24.0312H215.145ZM235.789 28.0098V29.2266H224.51V28.0098H235.789ZM234.531 25.6582V26.8887H225.891V22.3496H234.422V23.5527H227.408V25.6582H234.531ZM234.613 32.7266V33.957H225.904V30.3066H227.395V32.7266H234.613ZM250.227 21.8574V34.2305H248.723V21.8574H250.227ZM246.426 22.9375V27.5723H242.174V30.0605C244.122 30.0469 245.804 29.9512 247.725 29.623L247.861 30.8672C245.756 31.2363 243.91 31.3047 241.695 31.3047H240.615V26.3691H244.881V24.168H240.602V22.9375H246.426ZM263.311 28.9258V30.1562H260.658V34.2168H259.141V30.1562H256.215V34.2168H254.656V30.1562H252.018V28.9258H263.311ZM254.889 22.3359V23.8125H260.412V22.3359H261.943V27.668H253.385V22.3359H254.889ZM254.889 26.4512H260.412V25.002H254.889V26.4512Z" fill="#111827"/>
<g clip-path="url(#clip3_523_14003)">
<circle cx="339" cy="28" r="19.5" fill="#F9FAFB" stroke="#9CA3AF"/>
<circle cx="339" cy="28" r="19" stroke="#E5E7EB" stroke-width="2"/>
<path fill-rule="evenodd" clip-rule="evenodd" d="M350.462 32.9949C348.534 37.4124 344.127 40.5 339 40.5C333.556 40.5 328.926 37.0209 327.21 32.1651C324.966 32.1003 323.166 30.2604 323.166 28.0002C323.166 25.74 324.966 23.9001 327.21 23.8353C328.926 18.9793 333.556 15.5 339 15.5C344.755 15.5 349.602 19.39 351.055 24.6844C353.174 24.8805 354.833 26.6631 354.833 28.8332C354.833 31.1344 352.967 32.9998 350.666 32.9998C350.598 32.9998 350.529 32.9982 350.462 32.9949Z" fill="#E5E7EB"/>
<path fill-rule="evenodd" clip-rule="evenodd" d="M337.833 26.0017C337.439 25.2112 336.585 24.667 335.577 24.667C335.136 24.667 334.454 24.9623 334.173 25.4423C334.133 25.5531 333.972 25.5531 333.932 25.4423C333.611 24.9993 332.969 24.7039 332.488 24.7039C331.164 24.7039 330.04 25.7007 330 26.9191V26.9929C330 27.6205 330.281 28.2112 330.762 28.6543V28.6912C330.802 28.7281 332.728 30.2787 333.611 30.9802C333.852 31.1648 334.213 31.1648 334.454 30.9802C334.824 30.6855 335.372 30.2411 335.889 29.8219L335.889 29.8218C336.602 29.2431 337.256 28.7126 337.302 28.6912V28.6543C337.728 28.2951 337.997 27.7917 338.053 27.2204C338.331 27.1863 338.645 27.1671 339 27.1671C339.539 27.1671 339.985 27.2115 340.351 27.2851C340.351 27.2973 340.35 27.3096 340.35 27.322V27.3958C340.35 28.0234 340.631 28.6141 341.112 29.0571V29.0941C341.152 29.131 343.078 30.6816 343.961 31.3831C344.202 31.5676 344.563 31.5676 344.803 31.3831C345.174 31.0884 345.722 30.6439 346.238 30.2247C346.952 29.646 347.605 29.1155 347.652 29.0941V29.0571C348.133 28.651 348.414 28.0603 348.414 27.3958V27.322C348.374 26.0667 347.291 25.0699 345.927 25.0699C345.485 25.0699 344.803 25.3652 344.522 25.8452C344.482 25.9559 344.322 25.9559 344.282 25.8452C343.961 25.4022 343.319 25.1068 342.837 25.1068C341.985 25.1068 341.216 25.52 340.765 26.1396C340.336 26.0057 339.761 25.9171 339 25.9171C338.548 25.9171 338.162 25.9483 337.833 26.0017Z" fill="#6B7280"/>
<path d="M336.916 31.75C337.055 32.0278 337.666 32.5833 338.999 32.5833C340.333 32.5833 340.944 32.0278 341.083 31.75" stroke="#6B7280" stroke-width="1.25" stroke-linecap="round" stroke-linejoin="round"/>
<path d="M336.995 17.2973C336.557 17.6399 335.87 19.0201 336.249 19.9911C336.627 20.9621 337.22 21.2026 337.52 21.28" stroke="#6B7280" stroke-width="0.993658" stroke-linecap="round"/>
<path d="M339.65 17.9818C339.212 18.2803 338.897 19.5641 339.317 20.4612C339.629 21.1288 340.427 21.3879 340.681 21.4532" stroke="#6B7280" stroke-width="0.993658" stroke-linecap="round"/>
<path d="M341.858 18.4377C341.649 18.7126 341.802 19.505 342.163 20.0414C342.376 20.3586 343.02 20.8217 343.191 20.8099" stroke="#6B7280" stroke-width="0.991667" stroke-linecap="round"/>
</g>
</g>
<path d="M375 54H0V58H375V54Z" fill="#DADBD8" mask="url(#path-2-inside-1_523_14003)"/>
<g clip-path="url(#clip4_523_14003)">
<path d="M17 148C17 135.297 27.2975 125 40 125H335C347.703 125 358 135.297 358 148V278C358 290.703 347.703 301 335 301H40C27.2975 301 17 290.703 17 278V148Z" fill="white" stroke="#E5E7EB" stroke-width="2"/>
<path d="M17 148C17 135.85 26.8497 126 39 126H335C347.15 126 357 135.85 357 148V191H17V148Z" fill="#73CFA5"/>
<path d="M56.168 145.674V161.564H54.2871V153.531H52.5293V160.756H50.7012V145.973H52.5293V151.932H54.2871V145.674H56.168ZM45.1816 147.502V155.887C46.5527 155.86 48.0557 155.746 49.7168 155.412L49.9102 157.117C47.7656 157.504 45.9551 157.609 44.2676 157.609H43.2129V147.502H45.1816ZM76.875 158.014V159.648H62.3555V158.014H76.875ZM75.6094 147.15V148.715H73.2891V153.777H75.5566V155.324H63.6035V153.777H65.8359V148.715H63.5508V147.15H75.6094ZM67.7871 153.777H71.3555V148.715H67.7871V153.777ZM92.4316 158.102V159.719H77.9121V158.102H84.1699V155.518H79.6348V150.314H88.7754V148.346H79.5996V146.764H90.709V151.861H81.5859V153.918H91.0781V155.518H86.1035V158.102H92.4316ZM106.723 145.674V153.865H104.771V145.674H106.723ZM106.723 154.533V158.629H98.0391V159.877H107.232V161.424H96.1055V157.205H104.789V156.062H96.0703V154.533H106.723ZM102.785 146.693V148.205H101.361V151.668C102.082 151.606 102.785 151.536 103.453 151.457L103.541 152.863C100.377 153.355 96.7207 153.461 93.9434 153.461L93.7324 151.914L95.543 151.896V148.205H94.1543V146.693H102.785ZM97.4238 151.861C98.1094 151.844 98.8037 151.817 99.498 151.773V148.205H97.4238V151.861Z" fill="#111827"/>
<path d="M120.297 211.281V219.062H118.562V215.484H116.156V214.062H118.562V211.281H120.297ZM112.625 219.672V221.094H118.578V219.672H120.297V225.219H110.891V219.672H112.625ZM112.625 223.812H118.578V222.453H112.625V223.812ZM115.375 211.828V215.906H110.766V217.375C112.961 217.359 114.578 217.289 116.453 216.984L116.578 218.391C114.5 218.719 112.703 218.781 110.156 218.766H109.047V214.609H113.672V213.219H109.016V211.828H115.375ZM126.953 211.828C129.094 211.812 130.562 212.859 130.562 214.469C130.562 216.062 129.094 217.125 126.953 217.125C124.812 217.125 123.328 216.062 123.344 214.469C123.328 212.859 124.812 211.812 126.953 211.828ZM126.953 213.125C125.781 213.125 124.984 213.625 125 214.469C124.984 215.297 125.781 215.828 126.953 215.828C128.141 215.828 128.922 215.297 128.938 214.469C128.922 213.625 128.141 213.125 126.953 213.125ZM134.047 211.266V221.984H132.312V211.266H134.047ZM122.312 217.984C124.938 217.969 128.422 217.953 131.422 217.531L131.531 218.781C130.391 218.977 129.203 219.109 128.031 219.188V221.531H126.297V219.281C124.953 219.344 123.672 219.359 122.547 219.375L122.312 217.984ZM134.391 223.703V225.109H124.172V221.031H125.891V223.703H134.391ZM149.031 222.188V223.625H136.125V222.188H149.031ZM143.469 214.156C143.469 216.234 145.578 218.109 148.516 218.562L147.828 219.938C145.438 219.516 143.484 218.242 142.578 216.469C141.664 218.266 139.727 219.578 137.375 220.016L136.688 218.609C139.547 218.172 141.641 216.234 141.641 214.156V213.938H137.203V212.547H147.922V213.938H143.469V214.156ZM156.375 211.406C159.594 211.406 161.453 212.266 161.469 213.828C161.453 215.266 159.914 216.094 157.219 216.234V217.141H162.828V218.531H149.953V217.141H155.5V216.234C152.82 216.086 151.281 215.258 151.281 213.828C151.281 212.266 153.156 211.406 156.375 211.406ZM156.375 212.703C154.219 212.703 153.094 213.094 153.109 213.828C153.094 214.609 154.219 214.969 156.375 214.984C158.562 214.969 159.672 214.609 159.672 213.828C159.672 213.094 158.562 212.703 156.375 212.703ZM161.219 219.438V222.891H153.188V223.938H161.609V225.266H151.484V221.656H159.516V220.75H151.469V219.438H161.219Z" fill="#1F2937"/>
<path d="M112.99 245.113C112.99 246.686 114.166 248.189 116.053 248.791L115.383 249.803C113.975 249.338 112.908 248.367 112.361 247.137C111.808 248.47 110.721 249.522 109.258 250.035L108.588 249.037C110.488 248.381 111.664 246.781 111.678 245.113V244.771H108.93V243.719H115.684V244.771H112.99V245.113ZM118.609 242.912V250.309H117.311V242.912H118.609ZM118.609 250.924V255.162H117.311V251.977H110.311V250.924H118.609ZM123.941 243.473C125.555 243.459 126.799 244.396 127.072 245.77H129.465V242.912H130.764V249.488H129.465V246.836H127.086C126.819 248.244 125.568 249.188 123.941 249.188C122.068 249.188 120.729 248.012 120.729 246.316C120.729 244.648 122.068 243.459 123.941 243.473ZM123.941 244.553C122.779 244.553 121.973 245.264 121.973 246.316C121.973 247.369 122.779 248.094 123.941 248.094C125.076 248.094 125.883 247.369 125.883 246.316C125.883 245.264 125.076 244.553 123.941 244.553ZM124.064 250.076V251.498H129.465V250.076H130.764V255.012H122.779V250.076H124.064ZM124.064 253.945H129.465V252.523H124.064V253.945ZM136.861 243.637L133.676 255.49H132.377L135.562 243.637H136.861ZM148.715 252.537V253.604H137.504V252.537H142.412V249.625H143.697V252.537H148.715ZM143.725 244.621C143.725 246.562 145.857 248.381 148.223 248.777L147.662 249.844C145.68 249.447 143.854 248.224 143.041 246.535C142.234 248.217 140.43 249.461 138.461 249.844L137.887 248.777C140.238 248.381 142.357 246.562 142.357 244.621V243.691H143.725V244.621ZM160.801 248.996V250.062H149.604V248.996H154.539V247.205H155.824V248.996H160.801ZM155.838 243.623C155.838 245.182 157.752 246.549 160.117 246.85L159.611 247.875C157.663 247.567 155.947 246.617 155.182 245.264C154.396 246.617 152.68 247.567 150.725 247.875L150.246 246.85C152.598 246.549 154.512 245.168 154.525 243.623V243.104H155.838V243.623ZM159.406 251.143V255.162H158.094V252.168H150.848V251.143H159.406Z" fill="#1F2937"/>
<path d="M178.459 242.953V255.107H177.393V242.953H178.459ZM168.561 251.867C169.6 251.86 170.789 251.854 172.02 251.812V250.486C170.563 250.329 169.613 249.502 169.627 248.285C169.613 246.918 170.789 246.029 172.539 246.029C174.289 246.029 175.479 246.918 175.479 248.285C175.479 249.488 174.535 250.315 173.1 250.473V251.771C174.275 251.724 175.465 251.635 176.586 251.484L176.668 252.305C173.961 252.742 170.98 252.783 168.725 252.783L168.561 251.867ZM176.271 244.457V245.332H168.82V244.457H172.02V242.967H173.1V244.457H176.271ZM172.539 246.863C171.418 246.863 170.625 247.438 170.625 248.285C170.625 249.133 171.418 249.68 172.539 249.666C173.674 249.68 174.453 249.133 174.453 248.285C174.453 247.438 173.674 246.863 172.539 246.863ZM184.666 246.221C184.666 248.367 186.088 250.568 187.811 251.416L187.154 252.277C185.814 251.573 184.693 250.138 184.16 248.449C183.613 250.247 182.465 251.778 181.098 252.51L180.414 251.648C182.191 250.773 183.6 248.436 183.613 246.221V244.006H184.666V246.221ZM189.998 242.953V247.889H192.035V248.818H189.998V255.107H188.932V242.953H189.998ZM202.713 242.967V252.195H201.633V250.938H199.117V250.158H201.633V242.967H202.713ZM203.014 253.945V254.848H194.373V251.293H195.453V253.945H203.014ZM192.623 248.6C194.893 248.586 197.928 248.572 200.539 248.244L200.607 249.023C199.521 249.194 198.386 249.304 197.271 249.365V251.771H196.191V249.42C194.961 249.475 193.792 249.481 192.773 249.475L192.623 248.6ZM196.615 243.459C198.393 243.459 199.609 244.307 199.623 245.578C199.609 246.877 198.393 247.684 196.615 247.684C194.824 247.684 193.607 246.877 193.607 245.578C193.607 244.307 194.824 243.459 196.615 243.459ZM196.615 244.279C195.426 244.266 194.619 244.799 194.633 245.578C194.619 246.371 195.426 246.891 196.615 246.891C197.764 246.891 198.584 246.371 198.598 245.578C198.584 244.799 197.764 244.266 196.615 244.279Z" fill="#374151"/>
<path d="M118.596 266.912V279.189H117.297V266.912H118.596ZM112.047 267.828C113.865 267.828 115.205 269.496 115.205 272.121C115.205 274.76 113.865 276.428 112.047 276.428C110.201 276.428 108.875 274.76 108.875 272.121C108.875 269.496 110.201 267.828 112.047 267.828ZM112.047 268.99C110.912 268.99 110.133 270.193 110.133 272.121C110.133 274.062 110.912 275.266 112.047 275.266C113.168 275.266 113.947 274.062 113.947 272.121C113.947 270.193 113.168 268.99 112.047 268.99ZM125.719 268.293V271.479H127.359V267.145H128.604V278.561H127.359V272.545H125.719V275.936H120.961V268.293H125.719ZM122.191 269.318V274.896H124.502V269.318H122.191ZM131.092 266.912V279.162H129.848V266.912H131.092ZM136.123 267.322C137.969 267.336 139.322 268.471 139.336 270.07C139.322 271.684 137.969 272.805 136.123 272.805C134.264 272.805 132.896 271.684 132.896 270.07C132.896 268.471 134.264 267.336 136.123 267.322ZM136.123 268.416C134.988 268.402 134.154 269.072 134.168 270.07C134.154 271.082 134.988 271.752 136.123 271.752C137.244 271.752 138.078 271.082 138.078 270.07C138.078 269.072 137.244 268.402 136.123 268.416ZM142.809 266.912V273.146H141.51V266.912H142.809ZM142.809 273.707V276.797H136.055V277.973H143.219V279.012H134.797V275.826H141.523V274.746H134.756V273.707H142.809Z" fill="#1F2937"/>
<path d="M171.119 268.102V278H169.943V268.102H171.119ZM176.027 278.15C174.004 278.15 172.637 276.633 172.637 274.322C172.637 272.012 174.004 270.48 176.027 270.48C178.037 270.48 179.391 272.012 179.391 274.322C179.391 276.633 178.037 278.15 176.027 278.15ZM176.027 277.111C177.518 277.111 178.215 275.799 178.215 274.322C178.215 272.846 177.518 271.52 176.027 271.52C174.51 271.52 173.812 272.846 173.812 274.322C173.812 275.799 174.51 277.111 176.027 277.111ZM186.773 270.576L184.025 278H182.809L180.074 270.576H181.359L183.383 276.469H183.465L185.488 270.576H186.773ZM190.916 278.15C188.77 278.15 187.443 276.633 187.443 274.35C187.443 272.066 188.783 270.48 190.807 270.48C192.365 270.48 194.006 271.438 194.006 274.186V274.678H188.619C188.674 276.25 189.59 277.111 190.916 277.111C191.805 277.111 192.365 276.729 192.639 276.264H193.896C193.541 277.385 192.447 278.15 190.916 278.15ZM188.633 273.68H192.816C192.816 272.436 192.023 271.52 190.807 271.52C189.521 271.52 188.701 272.531 188.633 273.68ZM200.432 276.701C199.064 276.701 198.066 275.594 198.066 273.816C198.066 272.053 199.078 270.945 200.445 270.945C201.43 270.945 201.84 271.574 202.004 271.889H202.072V271.055H203.111V275.047C203.125 275.58 203.357 275.84 203.795 275.84C204.643 275.84 205.203 274.855 205.217 273.434C205.23 270.85 203.357 269.168 200.746 269.168C198.039 269.182 196.289 271.273 196.289 273.816C196.289 276.592 197.807 278.506 200.691 278.479C201.648 278.465 202.277 278.41 203.111 278.178V279.107C202.4 279.299 201.594 279.422 200.691 279.422C197.355 279.422 195.305 277.289 195.305 273.816C195.291 270.59 197.561 268.225 200.746 268.225C204.014 268.225 206.215 270.453 206.201 273.393C206.201 275.512 205.107 276.756 203.727 276.756C202.865 276.756 202.216 276.271 202.168 275.635H202.072C201.908 275.936 201.498 276.701 200.432 276.701ZM200.609 275.703C201.58 275.703 202.072 274.938 202.086 273.803C202.072 272.695 201.594 271.943 200.609 271.943C199.652 271.943 199.133 272.764 199.133 273.803C199.133 274.869 199.666 275.703 200.609 275.703ZM210.973 278.15C208.826 278.15 207.5 276.633 207.5 274.35C207.5 272.066 208.84 270.48 210.863 270.48C212.422 270.48 214.062 271.438 214.062 274.186V274.678H208.676C208.73 276.25 209.646 277.111 210.973 277.111C211.861 277.111 212.422 276.729 212.695 276.264H213.953C213.598 277.385 212.504 278.15 210.973 278.15ZM208.689 273.68H212.873C212.873 272.436 212.08 271.52 210.863 271.52C209.578 271.52 208.758 272.531 208.689 273.68ZM221.473 270.576L218.725 278H217.508L214.773 270.576H216.059L218.082 276.469H218.164L220.188 270.576H221.473ZM225.615 278.15C223.469 278.15 222.143 276.633 222.143 274.35C222.143 272.066 223.482 270.48 225.506 270.48C227.064 270.48 228.705 271.438 228.705 274.186V274.678H223.318C223.373 276.25 224.289 277.111 225.615 277.111C226.504 277.111 227.064 276.729 227.338 276.264H228.596C228.24 277.385 227.146 278.15 225.615 278.15ZM223.332 273.68H227.516C227.516 272.436 226.723 271.52 225.506 271.52C224.221 271.52 223.4 272.531 223.332 273.68ZM230.236 278V270.576H231.371V271.711H231.453C231.727 270.959 232.492 270.453 233.367 270.453C233.545 270.453 233.846 270.467 233.982 270.48V271.67C233.9 271.643 233.572 271.588 233.271 271.588C232.205 271.588 231.412 272.326 231.412 273.324V278H230.236ZM235.131 278V270.576H236.307V278H235.131ZM235.719 269.346C235.268 269.346 234.898 269.004 234.898 268.566C234.898 268.129 235.268 267.787 235.719 267.787C236.17 267.787 236.553 268.129 236.553 268.566C236.553 269.004 236.17 269.346 235.719 269.346ZM239.355 273.543V278H238.18V270.576H239.314V271.738H239.41C239.766 270.986 240.449 270.48 241.584 270.48C243.088 270.48 244.086 271.396 244.086 273.283V278H242.91V273.365C242.91 272.217 242.281 271.533 241.229 271.533C240.148 271.533 239.355 272.258 239.355 273.543ZM248.98 280.939C247.189 280.939 245.973 280.16 245.836 278.779H247.066C247.23 279.531 247.928 279.914 248.98 279.914C250.252 279.914 251.031 279.367 251.031 278.137V276.633H250.936C250.689 277.043 250.211 277.891 248.775 277.891C246.971 277.891 245.617 276.523 245.617 274.186C245.617 271.902 246.93 270.48 248.789 270.48C250.225 270.48 250.689 271.355 250.963 271.752H251.059V270.576H252.207V278.205C252.207 280.119 250.785 280.939 248.98 280.939ZM248.939 276.838C250.293 276.838 251.059 275.867 251.059 274.227C251.059 272.641 250.32 271.533 248.939 271.533C247.518 271.533 246.807 272.736 246.807 274.227C246.807 275.771 247.531 276.838 248.939 276.838ZM254.914 278.082C254.436 278.082 254.025 277.686 254.039 277.193C254.025 276.715 254.436 276.318 254.914 276.318C255.393 276.318 255.789 276.715 255.789 277.193C255.789 277.686 255.393 278.082 254.914 278.082ZM260.67 278.15C258.564 278.15 257.279 276.551 257.279 274.322C257.279 272.066 258.619 270.48 260.643 270.48C262.229 270.48 263.404 271.41 263.596 272.818H262.42C262.256 272.135 261.654 271.52 260.67 271.52C259.344 271.52 258.455 272.613 258.455 274.281C258.455 276.004 259.316 277.098 260.67 277.098C261.545 277.098 262.215 276.633 262.42 275.812H263.596C263.404 277.139 262.324 278.15 260.67 278.15ZM268.08 278.15C266.057 278.15 264.689 276.633 264.689 274.322C264.689 272.012 266.057 270.48 268.08 270.48C270.09 270.48 271.443 272.012 271.443 274.322C271.443 276.633 270.09 278.15 268.08 278.15ZM268.08 277.111C269.57 277.111 270.268 275.799 270.268 274.322C270.268 272.846 269.57 271.52 268.08 271.52C266.562 271.52 265.865 272.846 265.865 274.322C265.865 275.799 266.562 277.111 268.08 277.111ZM272.988 278V270.576H274.123V271.738H274.219C274.533 270.945 275.244 270.48 276.215 270.48C277.186 270.48 277.842 270.945 278.197 271.738H278.279C278.662 270.973 279.441 270.48 280.508 270.48C281.834 270.48 282.777 271.287 282.777 273.037V278H281.602V273.051C281.602 271.957 280.904 271.533 280.098 271.533C279.059 271.533 278.471 272.23 278.471 273.174V278H277.281V272.928C277.281 272.094 276.68 271.533 275.832 271.533C274.943 271.533 274.164 272.285 274.164 273.365V278H272.988Z" fill="#374151"/>
<path d="M19 184.003L356 184.003" stroke="#34B17B" stroke-width="2" stroke-linecap="square" stroke-linejoin="round"/>
<circle cx="68" cy="206" r="29.5" fill="#D9D9D9" stroke="white" stroke-width="3"/>
<circle cx="319" cy="158" r="15" fill="#E5E7EB" stroke="#E5E7EB" stroke-width="2"/>
<path d="M319.021 151.226C319.207 150.825 319.682 150.652 320.082 150.84L323.525 152.454C323.925 152.641 324.099 153.118 323.913 153.519L319.146 163.796C319.056 163.991 318.89 164.142 318.688 164.213L316.183 165.094C315.773 165.238 315.323 165.027 315.17 164.619L314.231 162.123C314.155 161.922 314.164 161.698 314.254 161.503L319.021 151.226Z" fill="#9CA3AF"/>
<path d="M315.668 151.566L325.203 156.04" stroke="#E5E7EB"/>
<g clip-path="url(#clip5_523_14003)">
<circle cx="68" cy="206" r="27" fill="white" stroke="#E5E7EB" stroke-width="2"/>
<path fill-rule="evenodd" clip-rule="evenodd" d="M84.0478 212.993C81.349 219.177 75.1798 223.5 68.0009 223.5C60.3804 223.5 53.8976 218.629 51.4959 211.831C48.3535 211.74 45.834 209.165 45.834 206C45.834 202.836 48.3534 200.26 51.4957 200.169C53.8973 193.371 60.3803 188.5 68.0009 188.5C76.0588 188.5 82.8447 193.946 84.8786 201.358C87.845 201.633 90.1675 204.128 90.1675 207.166C90.1675 210.388 87.5559 213 84.3342 213C84.2382 213 84.1427 212.997 84.0478 212.993Z" fill="#E5E7EB"/>
<path fill-rule="evenodd" clip-rule="evenodd" d="M66.3669 203.202C65.8157 202.095 64.6192 201.333 63.2081 201.333C62.5902 201.333 61.6353 201.747 61.2421 202.418C61.186 202.573 60.9613 202.573 60.9051 202.418C60.4558 201.798 59.557 201.385 58.883 201.385C57.0293 201.385 55.4566 202.78 55.4004 204.486V204.589C55.4004 205.468 55.7936 206.295 56.4676 206.915V206.967C56.5238 207.019 59.22 209.189 60.4558 210.171C60.7928 210.43 61.2983 210.43 61.6353 210.171C62.1544 209.759 62.9213 209.137 63.6445 208.55L63.6445 208.55C64.643 207.74 65.5583 206.997 65.6235 206.967V206.915C66.2195 206.412 66.596 205.708 66.6751 204.908C67.0642 204.86 67.5041 204.833 68.0007 204.833C68.7553 204.833 69.3792 204.895 69.8925 204.998C69.8916 205.015 69.8909 205.033 69.8903 205.05V205.153C69.8903 206.032 70.2835 206.859 70.9575 207.479V207.531C71.0137 207.583 73.7099 209.753 74.9457 210.736C75.2827 210.994 75.7882 210.994 76.1252 210.736C76.6443 210.323 77.4112 209.701 78.1344 209.114C79.1329 208.304 80.0482 207.561 80.1134 207.531V207.479C80.7874 206.911 81.1806 206.084 81.1806 205.153V205.05C81.1244 203.293 79.6078 201.897 77.698 201.897C77.0801 201.897 76.1252 202.311 75.732 202.982C75.6759 203.138 75.4512 203.138 75.395 202.982C74.9457 202.362 74.0469 201.949 73.3729 201.949C72.1794 201.949 71.1023 202.527 70.4716 203.395C69.8707 203.207 69.066 203.083 68.0007 203.083C67.3682 203.083 66.8276 203.127 66.3669 203.202Z" fill="#6B7280"/>
<path d="M65.084 211.25C65.2784 211.639 66.134 212.417 68.0007 212.417C69.8673 212.417 70.7229 211.639 70.9173 211.25" stroke="#6B7280" stroke-width="1.75" stroke-linecap="round" stroke-linejoin="round"/>
<path d="M65.1921 191.015C64.58 191.495 63.6178 193.427 64.1479 194.787C64.6781 196.146 65.5072 196.483 65.9282 196.591" stroke="#6B7280" stroke-width="1.39112" stroke-linecap="round"/>
<path d="M68.9101 191.973C68.2972 192.391 67.857 194.189 68.4439 195.444C68.8807 196.379 69.9979 196.742 70.3536 196.833" stroke="#6B7280" stroke-width="1.39112" stroke-linecap="round"/>
<path d="M72.0018 192.612C71.7083 192.997 71.9234 194.106 72.4277 194.857C72.7258 195.301 73.6286 195.95 73.8676 195.933" stroke="#6B7280" stroke-width="1.38833" stroke-linecap="round"/>
<circle cx="83" cy="221" r="10" fill="#E5E7EB" stroke="white" stroke-width="2"/>
<path d="M83.0118 217.189C83.1164 216.964 83.3836 216.867 83.6086 216.972L85.5454 217.88C85.7705 217.986 85.8681 218.254 85.7635 218.48L83.0823 224.26C83.0314 224.37 82.9385 224.455 82.8245 224.495L81.4156 224.99C81.1852 225.071 80.932 224.953 80.8456 224.723L80.3177 223.319C80.275 223.206 80.2796 223.08 80.3306 222.97L83.0118 217.189Z" fill="#9CA3AF"/>
<path d="M81.127 217.381L86.4906 219.897" stroke="#E5E7EB" stroke-width="0.5625"/>
</g>
</g>
<path d="M24.6133 87.2207V97.627H17.0898V87.2207H24.6133ZM19.0059 88.75V96.0625H22.6621V88.75H19.0059ZM28.9727 85.6738V91.7734H31.416V93.4258H28.9727V101.564H27.0215V85.6738H28.9727ZM45.3027 85.6738V101.582H43.334V85.6738H45.3027ZM36.7422 86.834C39.1328 86.834 40.873 89.0137 40.8906 92.4414C40.873 95.9043 39.1328 98.0664 36.7422 98.0664C34.334 98.0664 32.5938 95.9043 32.5938 92.4414C32.5938 89.0137 34.334 86.834 36.7422 86.834ZM36.7422 88.5918C35.3887 88.5918 34.4746 90.0156 34.4746 92.4414C34.4746 94.8848 35.3887 96.3086 36.7422 96.3086C38.0781 96.3086 38.9922 94.8848 38.9922 92.4414C38.9922 90.0156 38.0781 88.5918 36.7422 88.5918ZM65.7109 85.6738V101.564H63.8477V85.6738H65.7109ZM62.5469 86.0078V100.773H60.6836V93.2852H58.9258V91.5449H60.6836V86.0078H62.5469ZM59.3301 87.5547V89.1367H58.2051V95.9922C58.7061 95.9482 59.1807 95.8955 59.6289 95.834L59.752 97.2578C57.2559 97.7676 53.9863 97.8203 51.9648 97.8203L51.7363 96.2031L53.1777 96.1855V89.1367H52.0527V87.5547H59.3301ZM54.9355 96.1504L56.4121 96.0977V89.1367H54.9355V96.1504ZM80.6875 85.6738V101.582H78.7188V85.6738H80.6875ZM72.127 86.834C74.5176 86.834 76.2578 89.0137 76.2754 92.4414C76.2578 95.9043 74.5176 98.0664 72.127 98.0664C69.7188 98.0664 67.9785 95.9043 67.9785 92.4414C67.9785 89.0137 69.7188 86.834 72.127 86.834ZM72.127 88.5918C70.7734 88.5918 69.8594 90.0156 69.8594 92.4414C69.8594 94.8848 70.7734 96.3086 72.127 96.3086C73.4629 96.3086 74.377 94.8848 74.377 92.4414C74.377 90.0156 73.4629 88.5918 72.127 88.5918ZM89.0195 90.1914C89.0195 92.793 90.5488 95.5352 93.1152 96.6074L92.043 98.1543C90.1621 97.3457 88.791 95.6758 88.0703 93.6543C87.332 95.834 85.9434 97.6621 84.0801 98.541L82.9551 97.0117C85.4688 95.8516 87.0332 92.8984 87.0332 90.1914V88.8555H83.5352V87.2383H92.5V88.8555H89.0195V90.1914ZM96.2441 85.6738V101.564H94.2754V85.6738H96.2441Z" fill="#111827"/>
<mask id="path-40-inside-2_523_14003" fill="white">
<path d="M16 318H359V1904H16V318Z"/>
</mask>
<path d="M16 318H359V1904H16V318Z" fill="white"/>
<path d="M16 320H359V316H16V320Z" fill="#111827" mask="url(#path-40-inside-2_523_14003)"/>
<path d="M47.3281 353.809V355.408H44.9727V363.529H43.0215V347.674H44.9727V353.809H47.3281ZM35.0234 349.221V357.992C37.1416 357.957 39.4004 357.772 41.791 357.271L42.002 358.924C39.3301 359.451 36.7812 359.609 34.4258 359.609H33.0898V349.221H35.0234ZM53.2344 348.781C55.748 348.764 57.5938 350.363 57.6113 352.613C57.5938 354.881 55.748 356.463 53.2344 356.463C50.7383 356.463 48.875 354.881 48.875 352.613C48.875 350.363 50.7383 348.764 53.2344 348.781ZM53.2344 350.469C51.8457 350.469 50.8086 351.295 50.8086 352.613C50.8086 353.949 51.8457 354.758 53.2344 354.758C54.6406 354.758 55.6953 353.949 55.6953 352.613C55.6953 351.295 54.6406 350.469 53.2344 350.469ZM61.3203 347.674V363.582H59.3691V347.674H61.3203ZM48.1543 358.66C51.0195 358.66 54.9922 358.625 58.4199 358.133L58.5781 359.557C55.0098 360.242 51.1953 360.26 48.4004 360.26L48.1543 358.66ZM82.4316 360.031V361.631H67.9121V360.031H74.1699V356.568H69.5117V348.904H80.7617V356.568H76.1035V360.031H82.4316ZM71.4277 350.469V355.039H78.8281V350.469H71.4277ZM96.7051 347.691V356.691H94.7363V347.691H96.7051ZM96.7051 357.465V363.371H86.1582V357.465H96.7051ZM88.0918 359.012V361.789H94.7891V359.012H88.0918ZM88.0391 348.447C90.4824 348.447 92.3105 349.994 92.3105 352.244C92.3105 354.424 90.4824 356.006 88.0391 356.006C85.5781 356.006 83.75 354.424 83.75 352.244C83.75 349.994 85.5781 348.447 88.0391 348.447ZM88.0391 350.1C86.6504 350.1 85.6484 350.926 85.666 352.244C85.6484 353.527 86.6504 354.354 88.0391 354.354C89.4102 354.354 90.3945 353.527 90.3945 352.244C90.3945 350.926 89.4102 350.1 88.0391 350.1Z" fill="#111827"/>
<path d="M32 375C32 374.448 32.4477 374 33 374H98C98.5523 374 99 374.448 99 375C99 375.552 98.5523 376 98 376H33C32.4477 376 32 375.552 32 375Z" fill="#111827"/>
<path d="M126.328 353.809V355.408H123.973V363.529H122.021V347.674H123.973V353.809H126.328ZM114.023 349.221V357.992C116.142 357.957 118.4 357.772 120.791 357.271L121.002 358.924C118.33 359.451 115.781 359.609 113.426 359.609H112.09V349.221H114.023ZM132.234 348.781C134.748 348.764 136.594 350.363 136.611 352.613C136.594 354.881 134.748 356.463 132.234 356.463C129.738 356.463 127.875 354.881 127.875 352.613C127.875 350.363 129.738 348.764 132.234 348.781ZM132.234 350.469C130.846 350.469 129.809 351.295 129.809 352.613C129.809 353.949 130.846 354.758 132.234 354.758C133.641 354.758 134.695 353.949 134.695 352.613C134.695 351.295 133.641 350.469 132.234 350.469ZM140.32 347.674V363.582H138.369V347.674H140.32ZM127.154 358.66C130.02 358.66 133.992 358.625 137.42 358.133L137.578 359.557C134.01 360.242 130.195 360.26 127.4 360.26L127.154 358.66ZM160.148 347.674V363.582H158.215V347.674H160.148ZM155.262 349.062V355.021H149.795V358.221C152.3 358.203 154.462 358.08 156.932 357.658L157.107 359.258C154.4 359.732 152.027 359.82 149.18 359.82H147.791V353.475H153.275V350.645H147.773V349.062H155.262ZM176.971 356.762V358.344H173.561V363.564H171.609V358.344H167.848V363.564H165.844V358.344H162.451V356.762H176.971ZM166.143 348.289V350.188H173.244V348.289H175.213V355.145H164.209V348.289H166.143ZM166.143 353.58H173.244V351.717H166.143V353.58Z" fill="#9CA3AF"/>
<path d="M204.168 347.674V363.564H202.287V355.531H200.529V362.756H198.701V347.973H200.529V353.932H202.287V347.674H204.168ZM193.182 349.502V357.887C194.553 357.86 196.056 357.746 197.717 357.412L197.91 359.117C195.766 359.504 193.955 359.609 192.268 359.609H191.213V349.502H193.182ZM218.529 347.674V353.879H220.885V355.514H218.529V363.529H216.578V347.674H218.529ZM214.328 349.326C214.328 354.002 212.395 358.098 207.104 360.699L205.996 359.188C209.863 357.263 211.955 354.556 212.359 350.943H206.857V349.326H214.328ZM233.98 349.045V356.551H226.457V349.045H233.98ZM228.373 350.609V355.004H232.064V350.609H228.373ZM238.445 347.674V352.332H240.66V353.967H238.445V359.275H236.494V347.674H238.445ZM239.078 361.666V363.248H228.268V358.15H230.219V361.666H239.078ZM255.971 355.584V357.148H241.469V355.584H255.971ZM254.354 352.561V354.143H243.244V348.307H254.213V349.854H245.195V352.561H254.354ZM254.459 361.648V363.23H243.262V358.537H245.178V361.648H254.459ZM275.816 360.031V361.631H261.297V360.031H267.555V356.568H262.896V348.904H274.146V356.568H269.488V360.031H275.816ZM264.812 350.469V355.039H272.213V350.469H264.812ZM290.09 347.691V356.691H288.121V347.691H290.09ZM290.09 357.465V363.371H279.543V357.465H290.09ZM281.477 359.012V361.789H288.174V359.012H281.477ZM281.424 348.447C283.867 348.447 285.695 349.994 285.695 352.244C285.695 354.424 283.867 356.006 281.424 356.006C278.963 356.006 277.135 354.424 277.135 352.244C277.135 349.994 278.963 348.447 281.424 348.447ZM281.424 350.1C280.035 350.1 279.033 350.926 279.051 352.244C279.033 353.527 280.035 354.354 281.424 354.354C282.795 354.354 283.779 353.527 283.779 352.244C283.779 350.926 282.795 350.1 281.424 350.1Z" fill="#9CA3AF"/>
<g clip-path="url(#clip6_523_14003)">
<path d="M-5 364H373V569H-5V364Z" fill="#E8E8E8"/>
</g>
<rect x="32" y="572" width="76" height="32" rx="16" fill="#EAF8F2"/>
<path d="M54.5957 581.912V594.189H53.2969V581.912H54.5957ZM48.0469 582.828C49.8652 582.828 51.2051 584.496 51.2051 587.121C51.2051 589.76 49.8652 591.428 48.0469 591.428C46.2012 591.428 44.875 589.76 44.875 587.121C44.875 584.496 46.2012 582.828 48.0469 582.828ZM48.0469 583.99C46.9121 583.99 46.1328 585.193 46.1328 587.121C46.1328 589.062 46.9121 590.266 48.0469 590.266C49.168 590.266 49.9473 589.062 49.9473 587.121C49.9473 585.193 49.168 583.99 48.0469 583.99ZM67.7207 587.887V588.939H56.5508V587.887H59.2305V586.232C58.2871 585.85 57.7539 585.234 57.7539 584.428C57.7539 582.979 59.4355 582.131 62.1289 582.131C64.8086 582.131 66.5039 582.979 66.5039 584.428C66.5039 585.234 65.9639 585.856 65.0137 586.232V587.887H67.7207ZM62.1289 589.773C64.7676 589.773 66.3535 590.553 66.3535 591.947C66.3535 593.369 64.7676 594.135 62.1289 594.135C59.4629 594.135 57.877 593.369 57.877 591.947C57.877 590.553 59.4629 589.773 62.1289 589.773ZM62.1289 590.771C60.2559 590.771 59.1895 591.195 59.1895 591.947C59.1895 592.713 60.2559 593.15 62.1289 593.137C63.9746 593.15 65.0547 592.713 65.0547 591.947C65.0547 591.195 63.9746 590.771 62.1289 590.771ZM62.1289 583.129C60.2285 583.129 59.0801 583.607 59.0938 584.428C59.0801 585.248 60.2285 585.713 62.1289 585.713C64.0293 585.713 65.1641 585.248 65.1641 584.428C65.1641 583.607 64.0293 583.129 62.1289 583.129ZM60.543 587.887H63.7285V586.574C63.25 586.656 62.71 586.697 62.1289 586.697C61.5547 586.697 61.0215 586.656 60.543 586.588V587.887ZM82.6094 581.912V594.162H81.3652V581.912H82.6094ZM80.1484 582.145V593.561H78.918V589.609H77.1406C76.7031 590.826 75.8896 591.53 74.8438 591.523C73.2441 591.537 72.2051 589.855 72.2051 587.203C72.2051 584.551 73.2441 582.883 74.8438 582.896C75.8896 582.89 76.6963 583.587 77.1406 584.797H78.918V582.145H80.1484ZM74.8438 584.113C73.9414 584.113 73.3945 585.248 73.3945 587.203C73.3945 589.158 73.9414 590.293 74.8438 590.293C75.7461 590.293 76.3203 589.158 76.3203 587.203C76.3203 585.248 75.7461 584.113 74.8438 584.113ZM77.4141 585.85C77.4756 586.267 77.5098 586.718 77.5098 587.203C77.5098 587.682 77.4756 588.133 77.4141 588.543H78.918V585.85H77.4141ZM94.3809 581.912V589.199H93.082V586.096H90.7988V585.029H93.082V581.912H94.3809ZM90.2793 589.541C92.8496 589.541 94.4219 590.389 94.4219 591.852C94.4219 593.314 92.8496 594.148 90.2793 594.162C87.709 594.148 86.123 593.314 86.1367 591.852C86.123 590.389 87.709 589.541 90.2793 589.541ZM90.2793 590.553C88.4883 590.553 87.4219 591.018 87.4219 591.852C87.4219 592.672 88.4883 593.15 90.2793 593.137C92.0703 593.15 93.1367 592.672 93.1367 591.852C93.1367 591.018 92.0703 590.553 90.2793 590.553ZM88.5566 584.072C88.5566 585.631 89.6641 587.135 91.5098 587.764L90.8398 588.789C89.4658 588.311 88.4541 587.333 87.9277 586.123C87.3877 587.497 86.3145 588.598 84.8516 589.131L84.168 588.092C86.0684 587.436 87.2305 585.781 87.2305 584.086V583.812H84.5781V582.76H91.1816V583.812H88.5566V584.072Z" fill="#34B17B"/>
<rect x="116.5" y="572.5" width="92" height="31" rx="15.5" fill="white"/>
<rect x="116.5" y="572.5" width="92" height="31" rx="15.5" stroke="#EAF8F2"/>
<path d="M132 587.246L135.088 590.333L140.421 585" stroke="#68BA95" stroke-width="1.8" stroke-linecap="round" stroke-linejoin="round"/>
<path d="M158.938 581.912V594.162H157.693V587.805H156.176V593.574H154.959V582.24H156.176V586.752H157.693V581.912H158.938ZM153.742 583.471C153.729 586.697 152.662 589.582 149.162 591.564L148.41 590.662C151.131 589.124 152.279 587.039 152.484 584.537H148.93V583.471H153.742ZM170.764 581.912V588.215H169.465V585.07H166.881V584.018H169.465V581.912H170.764ZM170.764 588.789V591.838H164.051V592.973H171.188V594.012H162.779V590.854H169.479V589.814H162.752V588.789H170.764ZM164.857 583.375C164.857 584.934 165.979 586.383 167.824 586.971L167.141 587.982C165.794 587.518 164.775 586.595 164.242 585.426C163.702 586.738 162.649 587.771 161.207 588.27L160.51 587.23C162.424 586.615 163.559 585.098 163.572 583.375V582.309H164.857V583.375ZM182.289 581.926V585.562H184.039V586.629H182.289V590.17H180.99V581.926H182.289ZM172.568 588.803C173.519 588.803 174.619 588.803 175.768 588.762V587.941C174.373 587.798 173.484 587.142 173.498 586.15C173.484 585.029 174.646 584.332 176.41 584.346C178.16 584.332 179.322 585.029 179.322 586.15C179.322 587.135 178.447 587.791 177.066 587.941V588.721C178.16 588.666 179.268 588.577 180.293 588.434L180.402 589.363C177.764 589.828 174.865 589.842 172.705 589.842L172.568 588.803ZM182.289 590.744V594.162H180.99V591.756H174.1V590.744H182.289ZM179.951 582.965V583.936H172.883V582.965H175.768V581.816H177.066V582.965H179.951ZM176.41 585.234C175.357 585.221 174.729 585.562 174.729 586.15C174.729 586.725 175.357 587.094 176.41 587.094C177.449 587.094 178.078 586.725 178.078 586.15C178.078 585.562 177.449 585.221 176.41 585.234ZM194.963 581.912V589.199H193.664V586.096H191.381V585.029H193.664V581.912H194.963ZM190.861 589.541C193.432 589.541 195.004 590.389 195.004 591.852C195.004 593.314 193.432 594.148 190.861 594.162C188.291 594.148 186.705 593.314 186.719 591.852C186.705 590.389 188.291 589.541 190.861 589.541ZM190.861 590.553C189.07 590.553 188.004 591.018 188.004 591.852C188.004 592.672 189.07 593.15 190.861 593.137C192.652 593.15 193.719 592.672 193.719 591.852C193.719 591.018 192.652 590.553 190.861 590.553ZM189.139 584.072C189.139 585.631 190.246 587.135 192.092 587.764L191.422 588.789C190.048 588.311 189.036 587.333 188.51 586.123C187.97 587.497 186.896 588.598 185.434 589.131L184.75 588.092C186.65 587.436 187.812 585.781 187.812 584.086V583.812H185.16V582.76H191.764V583.812H189.139V584.072Z" fill="#68BA95"/>
<path d="M44.9727 621.674V627.879H47.3281V629.514H44.9727V637.529H43.0215V621.674H44.9727ZM40.7715 623.326C40.7715 628.002 38.8379 632.098 33.5469 634.699L32.4395 633.188C36.3066 631.263 38.3984 628.556 38.8027 624.943H33.3008V623.326H40.7715ZM54.0781 626.191C54.0781 628.793 55.6074 631.535 58.1738 632.607L57.1016 634.154C55.2207 633.346 53.8496 631.676 53.1289 629.654C52.3906 631.834 51.002 633.662 49.1387 634.541L48.0137 633.012C50.5273 631.852 52.0918 628.898 52.0918 626.191V624.855H48.5938V623.238H57.5586V624.855H54.0781V626.191ZM61.3027 621.674V637.564H59.334V621.674H61.3027ZM78.1602 634.102V635.719H63.6406V634.102H69.8984V631.518H65.3633V626.314H74.5039V624.346H65.3281V622.764H76.4375V627.861H67.3145V629.918H76.8066V631.518H71.832V634.102H78.1602ZM91.5371 623.045V630.551H84.0137V623.045H91.5371ZM85.9297 624.609V629.004H89.6211V624.609H85.9297ZM96.002 621.674V626.332H98.2168V627.967H96.002V633.275H94.0508V621.674H96.002ZM96.6348 635.666V637.248H85.8242V632.15H87.7754V635.666H96.6348ZM111.928 629.127V630.691H100.783V623.062H111.805V624.645H102.717V629.127H111.928ZM113.545 633.926V635.543H99.0254V633.926H113.545ZM127.449 626.174V627.721H116.445V622.254H118.379V626.174H127.449ZM129.084 629.566V631.113H114.564V629.566H129.084ZM127.555 635.613V637.195H116.305V632.52H118.256V635.613H127.555ZM138.822 622.166C140.149 622.166 141.283 622.632 142.039 623.414H145.766V621.674H147.717V629.707H145.766V628.178H142.074C141.318 628.986 140.167 629.461 138.822 629.461C136.414 629.461 134.621 627.967 134.621 625.805C134.621 623.66 136.414 622.166 138.822 622.166ZM138.822 623.748C137.451 623.748 136.484 624.557 136.484 625.805C136.484 627.07 137.451 627.879 138.822 627.879C140.141 627.879 141.107 627.07 141.125 625.805C141.107 624.557 140.141 623.748 138.822 623.748ZM147.717 630.428V634.541H139.209V635.824H148.227V637.371H137.258V633.1H145.766V631.939H137.24V630.428H147.717ZM142.883 624.926C142.944 625.207 142.988 625.497 142.988 625.805C142.988 626.095 142.953 626.385 142.883 626.648H145.766V624.926H142.883ZM162.412 621.674V627.879H164.768V629.514H162.412V637.529H160.461V621.674H162.412ZM158.211 623.326C158.211 628.002 156.277 632.098 150.986 634.699L149.879 633.188C153.746 631.263 155.838 628.556 156.242 624.943H150.74V623.326H158.211ZM171.518 626.191C171.518 628.793 173.047 631.535 175.613 632.607L174.541 634.154C172.66 633.346 171.289 631.676 170.568 629.654C169.83 631.834 168.441 633.662 166.578 634.541L165.453 633.012C167.967 631.852 169.531 628.898 169.531 626.191V624.855H166.033V623.238H174.998V624.855H171.518V626.191ZM178.742 621.674V637.564H176.773V621.674H178.742ZM199.871 634.031V635.631H185.352V634.031H188.709V630.006C187.443 629.285 186.679 628.151 186.688 626.736C186.67 624.205 189.166 622.535 192.576 622.535C196.004 622.535 198.5 624.205 198.5 626.736C198.5 628.125 197.762 629.241 196.531 629.971V634.031H199.871ZM192.576 624.082C190.203 624.082 188.586 625.084 188.604 626.736C188.586 628.371 190.203 629.391 192.576 629.391C194.949 629.391 196.584 628.371 196.584 626.736C196.584 625.084 194.949 624.082 192.576 624.082ZM190.643 634.031H194.545V630.709C193.938 630.85 193.279 630.92 192.576 630.92C191.891 630.92 191.24 630.85 190.643 630.727V634.031ZM214.145 621.674V637.582H212.211V621.674H214.145ZM209.258 623.062V629.021H203.791V632.221C206.296 632.203 208.458 632.08 210.928 631.658L211.104 633.258C208.396 633.732 206.023 633.82 203.176 633.82H201.787V627.475H207.271V624.645H201.77V623.062H209.258Z" fill="#111827"/>
<path d="M228.096 621.48V637.793H226.004V621.48H228.096Z" fill="#111827"/>
<path d="M245.029 624.117C247.791 624.117 249.404 624.855 249.404 626.223C249.404 627.59 247.791 628.342 245.029 628.342C242.268 628.342 240.654 627.59 240.654 626.223C240.654 624.855 242.268 624.117 245.029 624.117ZM245.029 625.074C243.074 625.074 241.994 625.498 242.008 626.223C241.994 626.975 243.074 627.371 245.029 627.371C246.984 627.371 248.064 626.975 248.064 626.223C248.064 625.498 246.984 625.074 245.029 625.074ZM250.621 629.094V630.133H239.451V629.094H250.621ZM249.213 631.076V633.947H242.076V635.041H249.555V636.039H240.805V633.004H247.928V632.047H240.791V631.076H249.213ZM256.062 627.521C256.062 629.572 257.402 631.691 259.289 632.498L258.578 633.51C257.136 632.874 255.987 631.527 255.42 629.887C254.853 631.637 253.697 633.127 252.275 633.824L251.523 632.799C253.369 631.938 254.736 629.627 254.75 627.521V626.223H251.947V625.143H258.852V626.223H256.062V627.521ZM261.695 623.912V636.162H260.396V623.912H261.695ZM274.861 633.605V634.699H263.65V633.605H268.586V631.459H265.018V627.562H272.209V625.84H264.99V624.773H273.494V628.602H266.303V630.393H273.781V631.459H269.871V633.605H274.861ZM283.105 635.137C281.055 635.137 279.592 634.029 279.537 632.416H281.068C281.123 633.291 281.984 633.838 283.092 633.838C284.281 633.838 285.156 633.182 285.156 632.225C285.156 631.254 284.336 630.543 282.928 630.543H282.08V629.312H282.928C284.049 629.312 284.842 628.684 284.842 627.74C284.842 626.838 284.172 626.223 283.119 626.223C282.121 626.223 281.246 626.77 281.205 627.672H279.756C279.797 626.059 281.287 624.965 283.133 624.965C285.074 624.965 286.305 626.195 286.291 627.658C286.305 628.779 285.607 629.6 284.541 629.859V629.928C285.895 630.119 286.674 631.021 286.674 632.279C286.674 633.934 285.156 635.137 283.105 635.137ZM297.447 623.912V628.793H299.348V629.873H297.447V636.148H296.148V623.912H297.447ZM294.248 625.197C294.234 628.738 292.676 631.896 288.643 633.893L287.918 632.881C290.987 631.35 292.655 629.135 292.922 626.277H288.533V625.197H294.248Z" fill="#374151"/>
<path d="M36.6348 655.102V665H35.1172V656.605H35.0625L32.6973 658.15V656.715L35.1582 655.102H36.6348ZM48.9121 653.926V661.104H47.6133V660.516H45.2207V659.695H47.6133V653.926H48.9121ZM38.6992 658.438C41.0645 658.451 44.0723 658.424 46.7109 658.137L46.7793 658.971C45.624 659.128 44.4277 659.224 43.252 659.285V661.131H41.9668V659.34C40.8594 659.367 39.8066 659.374 38.8496 659.367L38.6992 658.438ZM48.9121 661.514V664.152H41.8574V665.096H49.2812V666.039H40.5859V663.291H47.627V662.416H40.5312V661.514H48.9121ZM42.6777 654.131C44.4961 654.131 45.7266 654.855 45.7402 655.977C45.7266 657.125 44.4961 657.809 42.6777 657.809C40.8184 657.809 39.6016 657.125 39.6152 655.977C39.6016 654.855 40.8184 654.131 42.6777 654.131ZM42.6777 655.006C41.543 655.006 40.832 655.389 40.832 655.977C40.832 656.564 41.543 656.934 42.6777 656.934C43.7852 656.934 44.5098 656.564 44.5098 655.977C44.5098 655.389 43.7852 655.006 42.6777 655.006ZM55.0098 665L59.4258 656.469V656.387H54.3262V655.102H60.9844V656.441L56.582 665H55.0098ZM65.5508 654.322C67.3965 654.336 68.75 655.471 68.7637 657.07C68.75 658.684 67.3965 659.805 65.5508 659.805C63.6914 659.805 62.3242 658.684 62.3242 657.07C62.3242 655.471 63.6914 654.336 65.5508 654.322ZM65.5508 655.416C64.416 655.402 63.582 656.072 63.5957 657.07C63.582 658.082 64.416 658.752 65.5508 658.752C66.6719 658.752 67.5059 658.082 67.5059 657.07C67.5059 656.072 66.6719 655.402 65.5508 655.416ZM72.2363 653.912V660.146H70.9375V653.912H72.2363ZM72.2363 660.707V663.797H65.4824V664.973H72.6465V666.012H64.2246V662.826H70.9512V661.746H64.1836V660.707H72.2363Z" fill="#374151"/>
<path d="M79.8457 661.637C79.3125 661.637 78.8613 661.199 78.875 660.666C78.8613 660.133 79.3125 659.695 79.8457 659.695C80.3652 659.695 80.8164 660.133 80.8164 660.666C80.8164 661.199 80.3652 661.637 79.8457 661.637Z" fill="#374151"/>
<path d="M90.6348 655.102V665H89.1172V656.605H89.0625L86.6973 658.15V656.715L89.1582 655.102H90.6348ZM93.4922 665L97.9082 656.469V656.387H92.8086V655.102H99.4668V656.441L95.0645 665H93.4922ZM101.49 663.729C100.957 663.729 100.506 663.291 100.52 662.758C100.506 662.225 100.957 661.787 101.49 661.787C102.01 661.787 102.461 662.225 102.461 662.758C102.461 663.291 102.01 663.729 101.49 663.729ZM101.49 658.328C100.957 658.328 100.506 657.891 100.52 657.357C100.506 656.824 100.957 656.387 101.49 656.387C102.01 656.387 102.461 656.824 102.461 657.357C102.461 657.891 102.01 658.328 101.49 658.328ZM107.725 665.137C105.674 665.137 104.211 664.029 104.156 662.416H105.688C105.742 663.291 106.604 663.838 107.711 663.838C108.9 663.838 109.775 663.182 109.775 662.225C109.775 661.254 108.955 660.543 107.547 660.543H106.699V659.312H107.547C108.668 659.312 109.461 658.684 109.461 657.74C109.461 656.838 108.791 656.223 107.738 656.223C106.74 656.223 105.865 656.77 105.824 657.672H104.375C104.416 656.059 105.906 654.965 107.752 654.965C109.693 654.965 110.924 656.195 110.91 657.658C110.924 658.779 110.227 659.6 109.16 659.859V659.928C110.514 660.119 111.293 661.021 111.293 662.279C111.293 663.934 109.775 665.137 107.725 665.137ZM116.393 665.137C114.096 665.137 112.756 663.291 112.756 660.051C112.756 656.838 114.123 654.965 116.393 654.965C118.662 654.965 120.029 656.838 120.029 660.051C120.029 663.291 118.676 665.137 116.393 665.137ZM116.393 663.838C117.732 663.838 118.525 662.525 118.525 660.051C118.525 657.59 117.719 656.236 116.393 656.236C115.066 656.236 114.26 657.59 114.26 660.051C114.26 662.525 115.053 663.838 116.393 663.838Z" fill="#374151"/>
<circle cx="141.001" cy="657.334" r="2.66667" fill="#374151"/>
<path d="M136.559 663.547C137 661.685 138.848 660.667 140.762 660.667H141.239C143.153 660.667 145.001 661.685 145.442 663.547C145.527 663.908 145.595 664.285 145.633 664.668C145.67 665.034 145.369 665.334 145.001 665.334H137.001C136.632 665.334 136.332 665.034 136.368 664.668C136.406 664.285 136.474 663.908 136.559 663.547Z" fill="#374151"/>
<path d="M153.875 665V663.906L157.307 660.447C158.387 659.312 158.934 658.684 158.934 657.822C158.934 656.852 158.141 656.223 157.102 656.223C156.008 656.223 155.297 656.92 155.297 657.973H153.875C153.861 656.168 155.242 654.965 157.129 654.965C159.043 654.965 160.355 656.168 160.369 657.781C160.355 658.889 159.836 659.764 157.977 661.596L155.967 663.633V663.715H160.533V665H153.875ZM165.646 665.137C163.35 665.137 162.01 663.291 162.01 660.051C162.01 656.838 163.377 654.965 165.646 654.965C167.916 654.965 169.283 656.838 169.283 660.051C169.283 663.291 167.93 665.137 165.646 665.137ZM165.646 663.838C166.986 663.838 167.779 662.525 167.779 660.051C167.779 657.59 166.973 656.236 165.646 656.236C164.32 656.236 163.514 657.59 163.514 660.051C163.514 662.525 164.307 663.838 165.646 663.838ZM174.629 654.637L171.443 666.49H170.145L173.33 654.637H174.629ZM175.695 665V663.906L179.127 660.447C180.207 659.312 180.754 658.684 180.754 657.822C180.754 656.852 179.961 656.223 178.922 656.223C177.828 656.223 177.117 656.92 177.117 657.973H175.695C175.682 656.168 177.062 654.965 178.949 654.965C180.863 654.965 182.176 656.168 182.189 657.781C182.176 658.889 181.656 659.764 179.797 661.596L177.787 663.633V663.715H182.354V665H175.695ZM187.467 665.137C185.17 665.137 183.83 663.291 183.83 660.051C183.83 656.838 185.197 654.965 187.467 654.965C189.736 654.965 191.104 656.838 191.104 660.051C191.104 663.291 189.75 665.137 187.467 665.137ZM187.467 663.838C188.807 663.838 189.6 662.525 189.6 660.051C189.6 657.59 188.793 656.236 187.467 656.236C186.141 656.236 185.334 657.59 185.334 660.051C185.334 662.525 186.127 663.838 187.467 663.838Z" fill="#374151"/>
</g>
<defs>
<clipPath id="clip0_523_14003">
<rect width="375" height="667" rx="20" fill="white"/>
</clipPath>
<clipPath id="clip1_523_14003">
<path d="M0 0H375V56H0V0Z" fill="white"/>
</clipPath>
<clipPath id="clip2_523_14003">
<rect width="56" height="27" fill="white" transform="translate(16 14.5)"/>
</clipPath>
<clipPath id="clip3_523_14003">
<rect width="40" height="40" fill="white" transform="translate(319 8)"/>
</clipPath>
<clipPath id="clip4_523_14003">
<rect width="343" height="178" fill="white" transform="translate(16 124)"/>
</clipPath>
<clipPath id="clip5_523_14003">
<rect width="56" height="56" fill="white" transform="translate(40 178)"/>
</clipPath>
<clipPath id="clip6_523_14003">
<path d="M32 424C32 410.745 42.7452 400 56 400H319C332.255 400 343 410.745 343 424V532C343 545.255 332.255 556 319 556H56C42.7452 556 32 545.255 32 532V424Z" fill="white"/>
</clipPath>
</defs>
</svg>
