<svg width="1920" height="1080" viewBox="0 0 1920 1080" fill="none" xmlns="http://www.w3.org/2000/svg">
<rect width="1920" height="1080" rx="40" fill="#F3F4F6"/>
<path d="M555.656 265L550.875 248.031H554.156L557.227 260.523H557.391L560.648 248.031H563.648L566.93 260.547H567.07L570.141 248.031H573.422L568.641 265H565.617L562.219 253.07H562.102L558.68 265H555.656ZM579.562 265.258C575.719 265.258 573.375 262.703 573.375 258.719C573.375 254.781 575.766 252.109 579.398 252.109C582.516 252.109 585.211 254.055 585.211 258.531V259.469H576.328C576.363 261.637 577.641 262.914 579.586 262.914C580.898 262.914 581.789 262.352 582.164 261.602H585.094C584.555 263.805 582.516 265.258 579.562 265.258ZM576.352 257.43H582.352C582.328 255.695 581.18 254.43 579.445 254.43C577.641 254.43 576.445 255.801 576.352 257.43ZM590.531 248.031V265H587.531V248.031H590.531ZM598.945 265.258C595.148 265.258 592.852 262.539 592.852 258.695C592.852 254.805 595.219 252.109 598.945 252.109C602.039 252.109 604.195 253.914 604.406 256.656H601.547C601.312 255.438 600.422 254.5 598.969 254.5C597.117 254.5 595.875 256.07 595.875 258.625C595.875 261.25 597.094 262.82 598.969 262.82C600.305 262.82 601.289 262.047 601.547 260.664H604.406C604.172 263.359 602.133 265.258 598.945 265.258ZM612.211 265.258C608.508 265.258 606.117 262.633 606.117 258.695C606.117 254.734 608.508 252.109 612.211 252.109C615.938 252.109 618.305 254.734 618.305 258.695C618.305 262.633 615.938 265.258 612.211 265.258ZM612.234 262.867C614.273 262.867 615.281 261.016 615.281 258.672C615.281 256.352 614.273 254.477 612.234 254.477C610.148 254.477 609.141 256.352 609.141 258.672C609.141 261.016 610.148 262.867 612.234 262.867ZM620.625 265V252.273H623.484V254.43H623.648C624.164 252.977 625.453 252.109 627.141 252.109C628.875 252.109 630.094 252.977 630.586 254.43H630.727C631.289 253.023 632.695 252.109 634.547 252.109C636.867 252.109 638.508 253.609 638.508 256.445V265H635.531V256.914C635.531 255.32 634.57 254.617 633.352 254.617C631.875 254.617 631.031 255.625 631.031 257.055V265H628.125V256.797C628.125 255.484 627.234 254.617 625.969 254.617C624.68 254.617 623.625 255.672 623.625 257.266V265H620.625ZM647.016 265.258C643.172 265.258 640.828 262.703 640.828 258.719C640.828 254.781 643.219 252.109 646.852 252.109C649.969 252.109 652.664 254.055 652.664 258.531V259.469H643.781C643.816 261.637 645.094 262.914 647.039 262.914C648.352 262.914 649.242 262.352 649.617 261.602H652.547C652.008 263.805 649.969 265.258 647.016 265.258ZM643.805 257.43H649.805C649.781 255.695 648.633 254.43 646.898 254.43C645.094 254.43 643.898 255.801 643.805 257.43ZM667.031 252.273V254.57H664.523V261.18C664.523 262.398 665.133 262.656 665.883 262.656C666.234 262.656 666.82 262.633 667.195 262.609V265.047C666.844 265.117 666.258 265.164 665.508 265.164C663.258 265.164 661.523 264.062 661.547 261.672V254.57H659.719V252.273H661.547V249.227H664.523V252.273H667.031ZM674.742 265.258C671.039 265.258 668.648 262.633 668.648 258.695C668.648 254.734 671.039 252.109 674.742 252.109C678.469 252.109 680.836 254.734 680.836 258.695C680.836 262.633 678.469 265.258 674.742 265.258ZM674.766 262.867C676.805 262.867 677.812 261.016 677.812 258.672C677.812 256.352 676.805 254.477 674.766 254.477C672.68 254.477 671.672 256.352 671.672 258.672C671.672 261.016 672.68 262.867 674.766 262.867ZM706.406 245.898V267.086H703.898V245.898H706.406ZM702.047 246.273V266.055H699.562V255.977H697.547C697.301 260.102 695.531 262.656 692.906 262.633C690.141 262.656 688.336 259.727 688.336 255.062C688.336 250.398 690.141 247.516 692.906 247.516C695.473 247.516 697.219 249.906 697.523 253.867H699.562V246.273H702.047ZM692.906 249.977C691.57 249.953 690.727 251.758 690.75 255.062C690.727 258.367 691.57 260.172 692.906 260.148C694.312 260.172 695.156 258.367 695.156 255.062C695.156 251.758 694.312 249.953 692.906 249.977ZM726.633 245.898V267.109H724.055V255.625H719.742V261.977H709.664V247.539H712.289V252.812H717.188V247.539H719.742V253.492H724.055V245.898H726.633ZM712.289 259.891H717.188V254.852H712.289V259.891ZM747.258 245.922V258.836H744.633V245.922H747.258ZM740.461 247.188V253.398H733.289V255.672C736.922 255.66 739.488 255.543 742.523 255.086L742.852 257.172C739.5 257.711 736.641 257.805 732.539 257.805H730.734V251.453H737.883V249.32H730.688V247.188H740.461ZM740.133 259.211C744.633 259.211 747.375 260.641 747.375 263.148C747.375 265.609 744.633 267.062 740.133 267.062C735.609 267.062 732.891 265.609 732.891 263.148C732.891 260.641 735.609 259.211 740.133 259.211ZM740.133 261.25C737.133 261.25 735.469 261.906 735.469 263.148C735.469 264.367 737.133 265.023 740.133 265.023C743.109 265.023 744.773 264.367 744.773 263.148C744.773 261.906 743.109 261.25 740.133 261.25ZM754.711 248.031L754.453 260.008H751.805L751.523 248.031H754.711ZM753.141 265.188C752.133 265.188 751.312 264.367 751.312 263.359C751.312 262.375 752.133 261.555 753.141 261.555C754.102 261.555 754.945 262.375 754.945 263.359C754.945 264.367 754.102 265.188 753.141 265.188Z" fill="#1F2937"/>
<path d="M500.312 285.344V295.656H498.828V290.797H495.922V289.562H498.828V285.344H500.312ZM496.016 286.391C496 290.047 493.484 292.797 489.469 294.094L488.844 292.906C491.961 291.898 494.078 289.992 494.391 287.625H489.562V286.391H496.016ZM500.672 297.828V299.031H491.297V294.594H492.797V297.828H500.672ZM513.469 285.328V288.859H515.5V290.062H513.469V293.641H511.984V285.328H513.469ZM509.625 286.328C509.625 289.953 507.172 292.562 503.062 293.75L502.453 292.547C505.727 291.617 507.75 289.797 508.016 287.531H503.078V286.328H509.625ZM509 293.797C511.828 293.797 513.625 294.844 513.625 296.547C513.625 298.266 511.828 299.312 509 299.312C506.188 299.312 504.344 298.266 504.359 296.547C504.344 294.844 506.188 293.797 509 293.797ZM509 294.969C507.047 294.969 505.812 295.562 505.828 296.547C505.812 297.531 507.047 298.141 509 298.141C510.938 298.141 512.172 297.531 512.172 296.547C512.172 295.562 510.938 294.969 509 294.969ZM522.672 285.562C525.828 285.562 527.672 286.406 527.672 287.969C527.672 289.531 525.828 290.391 522.672 290.391C519.516 290.391 517.672 289.531 517.672 287.969C517.672 286.406 519.516 285.562 522.672 285.562ZM522.672 286.656C520.438 286.656 519.203 287.141 519.219 287.969C519.203 288.828 520.438 289.281 522.672 289.281C524.906 289.281 526.141 288.828 526.141 287.969C526.141 287.141 524.906 286.656 522.672 286.656ZM529.062 291.25V292.438H516.297V291.25H529.062ZM527.453 293.516V296.797H519.297V298.047H527.844V299.188H517.844V295.719H525.984V294.625H517.828V293.516H527.453ZM538.625 285.969C540.734 285.969 542.266 287.141 542.266 288.875C542.266 290.594 540.734 291.781 538.625 291.766C536.516 291.781 535.016 290.594 535.016 288.875C535.016 287.141 536.516 285.969 538.625 285.969ZM538.625 287.172C537.359 287.172 536.438 287.844 536.453 288.875C536.438 289.891 537.359 290.562 538.625 290.547C539.922 290.562 540.844 289.891 540.844 288.875C540.844 287.844 539.922 287.172 538.625 287.172ZM545.672 285.344V299.328H544.203V285.344H545.672ZM534.016 292.859C536.594 292.859 540.172 292.797 543.234 292.344L543.344 293.453C542.07 293.695 540.742 293.844 539.453 293.938V298.891H537.969V294.016C536.609 294.078 535.328 294.086 534.219 294.094L534.016 292.859ZM558.859 285.344V289.844H560.891V291.078H558.859V295.812H557.375V285.344H558.859ZM556.219 286.969V288.172H547.875V286.969H551.312V285.328H552.797V286.969H556.219ZM552.047 288.844C554.062 288.844 555.438 289.891 555.438 291.484C555.438 293.078 554.062 294.109 552.047 294.109C550.016 294.109 548.641 293.078 548.641 291.484C548.641 289.891 550.016 288.844 552.047 288.844ZM552.047 289.984C550.859 289.984 550.062 290.562 550.078 291.484C550.062 292.391 550.859 292.953 552.047 292.953C553.234 292.953 554.031 292.391 554.047 291.484C554.031 290.562 553.234 289.984 552.047 289.984ZM559.453 297.828V299.031H549.984V294.984H551.469V297.828H559.453ZM577.281 285.328V299.359H575.797V291.578H572.906V290.359H575.797V285.328H577.281ZM570.594 289.266C570.594 291.641 572.078 294.188 574.234 295.141L573.344 296.328C571.727 295.547 570.477 293.914 569.859 292C569.234 294.039 567.961 295.781 566.344 296.609L565.438 295.453C567.578 294.438 569.078 291.781 569.094 289.266V287.953H566V286.734H573.703V287.953H570.594V289.266ZM592.219 292.281V293.5H579.422V292.281H585.062V290.234H586.531V292.281H592.219ZM586.547 286.141C586.547 287.922 588.734 289.484 591.438 289.828L590.859 291C588.633 290.648 586.672 289.562 585.797 288.016C584.898 289.562 582.938 290.648 580.703 291L580.156 289.828C582.844 289.484 585.031 287.906 585.047 286.141V285.547H586.547V286.141ZM590.625 294.734V299.328H589.125V295.906H580.844V294.734H590.625ZM604.609 291.578V292.797H600.375V296.359H606.062V297.578H593.25V296.359H598.891V292.797H594.781V286.484H596.281V291.578H604.609ZM618.047 285.328V291.188H620.156V292.438H618.047V299.328H616.562V285.328H618.047ZM606.906 295.516C608.008 295.516 609.289 295.516 610.625 295.469V294.047C609.047 293.828 608.016 292.875 608.031 291.516C608.016 289.938 609.375 288.891 611.375 288.891C613.359 288.891 614.734 289.938 614.75 291.516C614.734 292.875 613.688 293.836 612.109 294.062V295.406C613.352 295.359 614.602 295.258 615.766 295.094L615.859 296.188C612.828 296.734 609.547 296.75 607.141 296.75L606.906 295.516ZM615.562 286.984V288.172H607.172V286.984H610.625V285.359H612.109V286.984H615.562ZM611.375 290.047C610.203 290.047 609.422 290.625 609.422 291.516C609.422 292.406 610.203 292.953 611.375 292.953C612.547 292.953 613.328 292.406 613.328 291.516C613.328 290.625 612.547 290.047 611.375 290.047ZM623.422 296.922L622.172 301.234H620.844L621.672 296.922H623.422ZM640.5 285.328V299.359H639.016V285.328H640.5ZM633.016 286.375C635.094 286.375 636.625 288.281 636.625 291.281C636.625 294.297 635.094 296.203 633.016 296.203C630.906 296.203 629.391 294.297 629.391 291.281C629.391 288.281 630.906 286.375 633.016 286.375ZM633.016 287.703C631.719 287.703 630.828 289.078 630.828 291.281C630.828 293.5 631.719 294.875 633.016 294.875C634.297 294.875 635.188 293.5 635.188 291.281C635.188 289.078 634.297 287.703 633.016 287.703ZM654.75 285.328V299.328H653.328V285.328H654.75ZM651.906 285.625V298.625H650.5V291.5H648.328V290.281H650.5V285.625H651.906ZM646.953 289.234C646.953 291.625 647.922 294.016 649.891 295.156L649 296.25C647.664 295.453 646.742 294.039 646.266 292.344C645.758 294.172 644.805 295.727 643.438 296.578L642.531 295.469C644.516 294.266 645.531 291.719 645.531 289.234V288.109H642.953V286.906H649.359V288.109H646.953V289.234ZM667.891 289.422V290.609H658.25V285.828H659.719V289.422H667.891ZM669.359 292.375V293.562H656.547V292.375H669.359ZM667.984 297.781V299H658.141V294.891H659.625V297.781H667.984ZM686.344 285.328V299.328H684.922V285.328H686.344ZM683.5 285.594V298.641H682.078V291.891H680.5C680.375 294.625 679.203 296.328 677.469 296.312C675.641 296.328 674.453 294.406 674.453 291.375C674.453 288.344 675.641 286.438 677.469 286.453C679.172 286.438 680.328 288.055 680.5 290.688H682.078V285.594H683.5ZM677.469 287.844C676.453 287.844 675.828 289.141 675.828 291.375C675.828 293.609 676.453 294.906 677.469 294.906C678.5 294.906 679.141 293.609 679.141 291.375C679.141 289.141 678.5 287.844 677.469 287.844ZM699.797 285.328V299.359H698.328V291.656H695.234V295.891H688.672V286.406H690.172V289.984H693.781V286.406H695.234V290.438H698.328V285.328H699.797ZM690.172 294.672H693.781V291.156H690.172V294.672ZM713.562 285.344V293.922H712.078V285.344H713.562ZM709.094 286.203V290.172H704.141V291.922C706.586 291.898 708.391 291.828 710.516 291.5L710.703 292.703C708.422 293.078 706.5 293.141 703.859 293.141H702.688V289.031H707.625V287.422H702.656V286.203H709.094ZM708.891 294.188C711.844 294.188 713.656 295.109 713.656 296.75C713.656 298.359 711.844 299.312 708.891 299.297C705.922 299.312 704.125 298.359 704.125 296.75C704.125 295.109 705.922 294.188 708.891 294.188ZM708.891 295.359C706.812 295.359 705.594 295.859 705.594 296.75C705.594 297.641 706.812 298.125 708.891 298.125C710.969 298.125 712.172 297.641 712.172 296.75C712.172 295.859 710.969 295.359 708.891 295.359ZM723.578 286.828V287.688C723.578 288.859 723.578 290.672 723.172 293.172L721.703 293.062C722.055 290.82 722.094 289.203 722.109 288.031H716.422V286.828H723.578ZM719.984 290.828V295.016C721.477 294.969 722.992 294.867 724.391 294.688L724.469 295.797C721.547 296.266 718.297 296.328 715.812 296.312L715.641 295.109C716.516 295.102 717.492 295.094 718.516 295.062V290.828H719.984ZM726.688 285.328V291.109H728.828V292.375H726.688V299.328H725.188V285.328H726.688ZM744.516 285.328V288.953H746.547V290.219H744.516V293.766H743.031V285.328H744.516ZM744.516 294.5V299.156H735.578V294.5H744.516ZM737.031 295.672V297.953H743.047V295.672H737.031ZM741.875 286.75V287.938H733.531V286.75H736.969V285.219H738.453V286.75H741.875ZM737.703 288.547C739.719 288.547 741.094 289.547 741.094 291.047C741.094 292.562 739.719 293.547 737.703 293.562C735.656 293.547 734.297 292.562 734.297 291.047C734.297 289.547 735.656 288.547 737.703 288.547ZM737.703 289.688C736.516 289.672 735.719 290.203 735.734 291.047C735.719 291.922 736.516 292.438 737.703 292.438C738.891 292.438 739.688 291.922 739.703 291.047C739.688 290.203 738.891 289.672 737.703 289.688ZM750.812 286.984C750.797 290.125 750.406 293.359 748.453 296.109L747.297 295.453C748.93 293.266 749.422 290.844 749.531 288.203H747.625V286.984H750.812ZM753.922 286.984C753.922 288.164 753.898 289.453 753.75 290.75H755.391V285.688H756.797V298.641H755.391V291.953H753.578C753.258 293.695 752.672 295.422 751.594 296.953L750.438 296.281C752.25 293.852 752.578 290.906 752.641 288.203H751.234V286.984H753.922ZM759.453 285.328V299.328H758.031V285.328H759.453ZM772 287.641V288.844H765.047V287.641H767.797V285.734H769.266V287.641H772ZM768.531 289.688C770.312 289.688 771.562 291.016 771.578 292.906C771.562 294.812 770.312 296.156 768.531 296.156C766.781 296.156 765.484 294.812 765.5 292.906C765.484 291.016 766.781 289.688 768.531 289.688ZM768.531 290.922C767.516 290.922 766.812 291.75 766.812 292.906C766.812 294.094 767.516 294.891 768.531 294.891C769.531 294.891 770.266 294.094 770.266 292.906C770.266 291.75 769.531 290.922 768.531 290.922ZM777.062 285.328V299.328H775.656V292.375H774.047V298.672H772.641V285.641H774.047V291.156H775.656V285.328H777.062ZM791.719 296.359V297.594H778.906V296.359H784.547V293.484H780.375V286.281H781.859V288.688H788.734V286.281H790.203V293.484H786.016V296.359H791.719ZM781.859 292.281H788.734V289.891H781.859V292.281ZM797 289.156C797 291.391 797.938 293.781 799.812 294.922L798.984 296.062C797.672 295.273 796.781 293.875 796.312 292.25C795.789 294.031 794.828 295.547 793.469 296.375L792.547 295.266C794.531 294.078 795.562 291.609 795.562 289.219V286.609H797V289.156ZM804.781 285.328V299.328H803.359V285.328H804.781ZM801.875 285.594V298.641H800.469V291.484H798.297V290.25H800.469V285.594H801.875ZM819.375 296.344V297.578H806.562V296.344H809.625V292.688C808.477 292.055 807.781 291.047 807.781 289.797C807.781 287.594 809.938 286.141 812.938 286.141C815.953 286.141 818.109 287.594 818.109 289.797C818.109 291.031 817.438 292.023 816.312 292.656V296.344H819.375ZM812.938 287.328C810.734 287.328 809.219 288.281 809.219 289.797C809.219 291.297 810.734 292.281 812.938 292.281C815.125 292.281 816.672 291.297 816.672 289.797C816.672 288.281 815.125 287.328 812.938 287.328ZM811.094 296.344H814.812V293.219C814.242 293.367 813.609 293.438 812.938 293.438C812.281 293.438 811.656 293.367 811.094 293.234V296.344Z" fill="#1F2937"/>
<path d="M845.825 422.312C838.447 426.336 834.554 436.09 834.349 450.959C834.144 462.281 835.715 462.417 844.8 452.05C855.115 440.25 859.418 427.837 854.705 423.199C852.86 421.357 848.352 420.88 845.825 422.312ZM851.631 424.904C853.339 426.609 853.475 430.974 851.972 435.135C850.675 438.818 845.756 446.048 841.385 450.822L837.901 454.574L838.242 447.412C838.857 435.817 841.658 428.519 846.781 425.109C849.582 423.199 849.923 423.199 851.631 424.904Z" fill="#1F2937"/>
<path d="M808.391 446.935C803.678 451.573 804.293 464.873 810.031 482.675C812.012 488.745 812.216 489.086 813.856 488.882C815.427 488.677 815.905 487.995 817.271 483.903C820.072 475.718 821.711 467.738 821.78 461.736C821.985 451.368 819.252 446.253 813.173 445.571C810.509 445.23 809.826 445.434 808.391 446.935ZM814.949 449.322C818.706 453.483 819.184 462.349 816.315 474.081C815.29 478.173 814.266 481.515 813.992 481.515C813.446 481.515 812.08 477.218 810.235 469.579C808.664 463.1 808.664 453.21 810.167 450.277C811.533 447.822 813.241 447.48 814.949 449.322Z" fill="#1F2937"/>
<path d="M842.409 475.308C837.354 477.695 832.231 484.107 826.767 495.088C823.556 501.363 818.843 512.481 818.843 513.64C818.843 516.164 829.909 511.116 838.652 504.637C848.762 497.134 853.27 490.314 853.339 482.402C853.339 478.718 853.065 477.9 851.563 476.399C849.24 474.08 845.825 473.671 842.409 475.308ZM848.625 478.173C851.972 481.856 848.694 491.132 841.59 498.021C837.286 502.25 824.786 510.571 824.444 509.548C824.034 508.388 832.095 492.291 835.715 486.903C839.54 481.242 844.117 476.74 846.03 476.74C846.781 476.74 847.874 477.354 848.625 478.173Z" fill="#1F2937"/>
<path d="M795.14 538.74C784.757 540.445 776.15 544.674 768.978 551.767C763.376 557.292 760.781 562.135 760.781 567.318C760.781 572.025 762.352 575.298 765.699 577.754C771.505 581.914 779.224 581.71 785.099 577.276L788.104 574.957L788.514 577.754C789.06 581.028 791.246 584.506 793.569 585.666C797.804 587.78 805.386 585.87 808.87 581.71C810.578 579.732 810.578 579.732 811.329 581.096C811.944 582.255 811.807 583.483 810.646 586.757C804.157 606.059 778.609 625.362 741.518 639.071C733.799 641.868 731.203 643.846 735.165 643.846C738.034 643.846 753.608 637.707 764.879 632.182C789.402 620.178 809.211 602.786 813.652 589.417L814.813 586.075L818.843 586.143C821.234 586.143 823.215 585.87 823.761 585.325C826.425 582.665 826.22 585.461 823.215 594.533C815.769 616.904 801.493 635.525 782.025 648.484C776.902 651.894 776.423 652.372 777.721 652.917C778.814 653.395 780.044 652.985 783.323 651.007C797.872 642.209 812.832 625.703 820.961 609.674C823.761 604.081 829.089 589.349 829.089 587.166C829.089 585.529 829.909 585.529 831.48 587.235C834.622 590.713 841.248 590.372 845.21 586.484L847.464 584.302L848.421 586.689C848.967 588.053 849.787 589.349 850.197 589.554C851.153 590.167 851.153 598.216 850.265 604.627C847.259 625.43 836.125 644.187 819.936 655.714C815.154 659.124 814.744 659.806 816.589 660.488C818.092 661.102 823.898 657.078 830.387 651.007C844.8 637.503 853.271 619.223 854.159 599.989L854.568 592.009H857.916C861.672 592.009 865.976 590.167 867.615 587.78C870.348 583.961 867.342 583.279 863.722 586.894C861.741 588.871 860.853 589.281 858.325 589.281C855.866 589.281 854.91 588.871 853.271 587.166C851.358 585.188 851.29 584.847 851.29 578.641C851.29 572.229 851.29 572.161 849.65 572.366C848.352 572.502 847.806 573.32 846.85 576.458C845.62 580.482 843.434 584.097 841.112 586.007C837.355 589.076 832.71 585.87 831.958 579.664C831.685 577.617 831.685 574.275 831.89 572.229C832.095 570.183 832.163 568.273 832.027 567.932C831.548 567.114 829.089 567.387 828.816 568.273C828.679 568.751 827.996 571.274 827.382 573.866C825.879 579.664 822.395 583.824 818.98 583.824C815.837 583.824 814.54 581.437 814.061 574.685C813.788 569.91 813.515 569.16 812.49 569.16C811.602 569.16 810.851 570.183 809.895 572.911C806.616 582.255 798.965 586.825 794.32 582.187C792.613 580.482 792.544 580.005 792.476 573.389C792.476 567.591 792.271 566.363 791.383 566.227C790.768 566.091 789.744 566.841 788.992 567.864C784.006 575.094 778.199 578.982 773.691 578.095C767.885 576.935 763.65 571.342 764.469 565.886C765.972 556.61 777.721 546.106 790.836 542.491C796.984 540.786 819.663 540.718 828.884 542.491C841.112 544.742 849.855 548.016 858.189 553.541C869.05 560.702 874.719 568.887 876.7 580.141C880.321 601.08 867.547 633.683 848.352 652.303C844.732 655.782 844.459 656.805 847.054 656.805C849.582 656.805 858.735 646.71 864.815 637.298C880.457 613.085 885.376 583.756 876.495 567.523C869.186 554.086 852.041 543.992 829.772 540.036C821.166 538.535 801.288 537.785 795.14 538.74Z" fill="#1F2937"/>
<path d="M494.489 452.309C478.838 454.665 470.888 456.898 459.957 462.045C449.896 466.82 443.002 471.657 435.114 479.471C424.121 490.324 418.097 500.742 414.246 515.75C412.879 520.959 412.383 524.556 412.321 529.083L412.196 535.285L439.71 535.471L467.162 535.595V531.13C467.224 513.455 477.596 499.006 493.62 494.293C498.091 492.99 507.656 492.804 512.5 493.983C517.531 495.223 524.363 498.51 528.648 501.797C531.816 504.215 539.207 512.339 539.207 513.393C539.207 513.579 537.157 513.827 534.611 514.013C523.866 514.696 516.413 522.634 516.972 532.68L517.158 535.905L569.267 536.091C607.215 536.153 621.561 536.029 622.183 535.533C623.549 534.416 623.301 525.982 621.81 521.207C618.705 511.099 609.264 506.696 599.886 510.975L596.346 512.587V508.742C596.284 500.246 593.054 490.882 588.272 485.735C582.868 479.905 573.614 477.301 565.913 479.409L562.497 480.339L561.317 478.665C559.019 475.502 550.697 467.626 546.722 464.96C537.281 458.572 524.86 454.045 512.811 452.557C507.532 451.937 497.843 451.751 494.489 452.309ZM520.45 455.534C529.89 457.89 539.703 462.603 546.722 468.123C553.554 473.456 560.758 481.58 559.143 482.138C558.708 482.262 557.404 483.254 556.224 484.246L554.112 486.107L551.193 483.688C537.778 472.774 523.183 466.758 505.544 464.836C490.514 463.285 473.931 466.882 460.827 474.634C442.008 485.859 428.469 507.006 426.295 528.773L425.86 533.424L420.953 533.61C418.221 533.734 415.799 533.548 415.488 533.238C414.681 532.432 415.985 521.269 417.538 515.378C423.562 492.246 438.53 474.696 461.199 463.968C471.012 459.316 482.626 455.72 492.253 454.355C498.774 453.425 514.612 454.107 520.45 455.534ZM506.29 467.006C519.456 467.937 536.101 474.882 548.026 484.494L552.249 487.905L550.013 491.254L547.715 494.665L544.858 492.246C533.741 483.006 521.692 478.975 505.358 479.037C489.583 479.099 474.366 483.874 463.187 492.308C453.187 499.812 445.486 513.021 443.561 525.982C443.126 528.711 442.691 531.564 442.567 532.308C442.319 533.672 442.07 533.734 435.735 533.734H429.09L429.524 529.827C430.891 517.92 434.741 507.192 441.138 497.518C453.25 479.285 471.509 468.433 492.626 466.82C495.545 466.572 498.774 466.448 499.768 466.572C500.824 466.634 503.743 466.82 506.29 467.006ZM579.328 482.324C583.117 483.874 586.781 487.843 589.203 492.866C591.563 497.89 592.619 503.099 592.806 511.409C592.93 518.355 593.489 518.851 597.464 515.502C602.557 511.285 608.643 510.293 612.432 513.145C614.978 515.006 617.959 519.285 618.767 522.137C619.201 523.564 619.574 526.664 619.574 529.083L619.636 533.424L569.702 533.61L519.767 533.734L520.202 530.819C520.761 526.54 523.555 521.393 526.599 519.099C531.195 515.626 536.784 515.068 544.61 517.362C546.287 517.858 546.287 517.858 547.219 510.479C549.33 494.417 557.404 482.82 567.714 481.022C571.378 480.339 576.037 480.898 579.328 482.324ZM519.643 482.262C527.655 483.998 536.536 488.525 542.188 493.735C546.349 497.58 546.535 497.952 545.976 499.502C545.045 501.921 543.554 509.3 543.554 511.471C543.554 513.765 542.871 513.765 541.505 511.471C536.101 502.293 524.114 494.169 512.5 491.812C498.464 489.022 482.626 493.983 473.683 504.153C468.217 510.355 463.497 522.944 463.435 531.378V533.734H454.678H445.859L446.293 529.703C446.852 524.184 449.399 515.688 452.007 510.789C462.007 491.688 481.074 481.146 505.668 481.084C511.755 481.084 515.544 481.394 519.643 482.262Z" fill="#1F2937"/>
<path d="M561.353 378.524C560.172 378.241 559.092 378.924 558.144 380.443C557.038 382.214 556.871 386.026 557.656 391.936C558.314 397.164 558.952 397.511 562.671 394.856C564.189 393.793 566.624 391.744 568.119 390.315C570.604 387.946 570.784 387.657 571.067 386.076C571.305 384.568 571.178 384.288 570.019 383.567C568.68 382.733 566.473 382.966 565.158 384.105C564.246 384.843 563.893 384.522 564.099 383.145C564.242 382.029 563.163 379.249 562.393 378.871C562.212 378.758 561.71 378.596 561.353 378.524ZM561.636 384.674C561.274 387.912 561.37 388.725 561.994 389.013C562.583 389.279 563.27 388.903 564.756 387.569C566.942 385.517 568.429 384.585 568.936 384.9C569.805 385.441 566.485 389.148 562.148 392.472L560.02 394.11L559.532 391.347C558.79 386.818 559.619 380.658 561.066 380.353C561.97 380.113 562.075 380.831 561.636 384.674Z" fill="#1F2937"/>
<path d="M550.899 402.037C550.058 402.417 549.521 403.037 548.966 404.247L548.213 405.937L546.131 404.441C544.338 403.124 543.895 402.949 542.624 403.212C539.93 403.744 539.494 406.535 541.552 409.924C542.635 411.652 545.778 414.913 548.847 417.325L550.753 418.863L551.384 417.85C552.152 416.621 554.062 410.983 554.674 408.151C555.578 404.045 553.584 400.796 550.899 402.037ZM552.106 408.962C551.665 410.796 550.945 413.159 550.466 414.167C549.646 415.965 549.6 416.037 548.695 415.474C547.283 414.595 543.855 410.503 542.957 408.64C542.004 406.541 542.261 405.245 543.739 404.809C545.1 404.401 545.403 404.64 546.79 407.009C547.415 408.101 548.253 409.175 548.688 409.445C549.303 409.828 549.466 409.729 549.827 408.749C550.056 408.139 550.719 406.593 551.355 405.333L552.528 403.051L552.734 404.333C552.861 405.015 552.57 407.092 552.106 408.962Z" fill="#1F2937"/>
<path d="M567.397 431.179C566.705 431.401 565.919 432.016 565.377 432.883C564.542 434.221 564.461 434.271 563.75 433.477C562.391 432.029 560.88 431.39 559.65 431.829C556.264 432.985 557.463 436.944 562.956 442.722C564.387 444.215 565.8 445.495 566.121 445.545C566.931 445.697 570.257 440.288 571.013 437.546C572.058 433.778 570.132 430.421 567.397 431.179ZM568.332 437.734C567.8 439.311 566.948 441.24 566.429 442.072C565.549 443.482 565.49 443.495 564.684 442.692C562.827 440.834 560.856 437.951 560.398 436.511C559.34 433.293 561.419 431.976 562.824 434.959C564.094 437.758 564.452 438.231 565.072 438.366C565.429 438.438 565.777 438.202 565.858 437.751C566.114 436.455 567.666 433.404 568.348 432.875C568.985 432.418 569.035 432.5 569.177 433.642C569.268 434.301 568.9 436.18 568.332 437.734Z" fill="#1F2937"/>
<path d="M481.584 318.693C481.204 319.324 478.736 329.813 478.673 330.95C478.673 331.266 479.432 331.392 480.381 331.266C481.963 331.076 482.153 330.697 483.229 326.022C484.874 318.693 484.874 318.503 483.292 318.25C482.596 318.124 481.773 318.314 481.584 318.693Z" fill="#1F2937" stroke="#1F2937" stroke-width="0.842197"/>
<path d="M450.197 322.231C450.197 322.484 451.526 324.885 453.171 327.665C455.513 331.456 456.525 332.656 457.601 332.656C458.36 332.656 459.119 332.467 459.246 332.151C459.436 331.898 458.234 329.56 456.588 326.97C454.247 323.179 453.298 322.168 451.906 322.042C450.957 321.915 450.197 322.042 450.197 322.231Z" fill="#1F2937" stroke="#1F2937" stroke-width="0.842197"/>
<path d="M502.211 335.815C499.3 337.837 496.959 339.732 496.959 340.048C496.959 340.301 497.655 340.617 498.414 340.743C499.933 340.87 509.678 334.299 510.184 332.782C510.753 330.95 507.147 332.34 502.211 335.815Z" fill="#1F2937" stroke="#1F2937" stroke-width="0.842197"/>
<path d="M468.611 346.303C462.853 347.819 458.93 351.547 456.462 357.739C455.26 360.772 455.007 362.604 455.007 368.669C454.943 375.114 455.133 376.315 456.525 379.095C460.195 386.55 467.219 390.91 475.825 390.91C489.809 391.036 499.364 382.57 498.035 371.323C496.833 360.961 486.898 354.58 476.711 357.486C470.952 359.192 467.725 363.488 467.725 369.428C467.725 372.271 468.042 373.534 469.371 375.556C473.104 381.18 480.128 382.064 484.051 377.452C486.645 374.356 485.886 369.301 482.849 369.301C480.76 369.301 480.571 369.807 481.71 371.829C482.532 373.282 482.596 373.914 481.963 375.24C481.267 376.757 480.887 376.883 477.47 376.883C474.116 376.883 473.673 376.694 472.598 375.177C471.142 372.966 470.699 367.974 471.712 365.51C473.484 361.277 479.622 357.992 483.924 358.939C487.025 359.571 490.505 362.098 492.404 364.942C494.871 368.669 495.251 374.988 493.226 379.031C490.252 385.223 483.671 388.888 475.572 388.888C468.168 388.888 463.169 385.539 459.942 378.463C457.095 372.144 457.474 363.678 460.891 356.286C463.992 349.588 468.168 347.566 477.913 347.882C484.874 348.135 486.582 347.25 481.203 346.113C476.458 345.165 472.661 345.229 468.611 346.303Z" fill="#1F2937" stroke="#1F2937" stroke-width="0.842197"/>
<path d="M429.316 350.6C429.316 351.99 429.696 352.053 438.049 352.558C444.06 352.874 445.136 352.811 445.136 351.99C445.136 350.6 444.819 350.536 436.783 350.031C430.139 349.652 429.316 349.715 429.316 350.6Z" fill="#1F2937" stroke="#1F2937" stroke-width="0.842197"/>
<path d="M518.348 352.306C517.715 352.685 515.057 353.38 512.399 353.822C507.401 354.707 506.578 355.086 507.527 356.033C508.856 357.36 522.334 354.201 522.334 352.495C522.334 351.421 519.993 351.358 518.348 352.306Z" fill="#1F2937" stroke="#1F2937" stroke-width="0.842197"/>
<path d="M510.944 380.99C510.374 381.685 510.564 382.064 512.083 382.822C515.753 384.718 523.663 387.624 525.181 387.624C527.079 387.624 527.902 386.487 526.32 385.981C524.928 385.539 517.082 382.443 513.981 381.053C512.019 380.232 511.577 380.232 510.944 380.99Z" fill="#1F2937" stroke="#1F2937" stroke-width="0.842197"/>
<path d="M440.389 384.402C438.997 385.034 435.897 386.045 433.429 386.677C428.557 387.94 427.291 388.635 428.81 389.204C430.834 390.025 446.401 385.16 446.401 383.77C446.401 382.823 443.11 383.202 440.389 384.402Z" fill="#1F2937" stroke="#1F2937" stroke-width="0.842197"/>
<path d="M496.707 398.366C496.2 399.125 497.656 400.388 503.477 404.495C507.084 406.959 507.97 407.338 509.172 406.77C510.501 406.201 510.375 406.075 507.401 404.053C505.692 402.852 503.161 400.957 501.706 399.82C499.048 397.671 497.403 397.229 496.707 398.366Z" fill="#1F2937" stroke="#1F2937" stroke-width="0.842197"/>
<path d="M455.323 411.382C453.678 416.816 453.425 418.269 454.121 418.648C455.26 419.406 455.64 419.343 456.336 418.395C457.222 417.321 460.892 405.443 460.449 405.001C460.259 404.811 459.5 404.685 458.74 404.685C457.538 404.685 457.095 405.569 455.323 411.382Z" fill="#1F2937" stroke="#1F2937" stroke-width="0.842197"/>
<path d="M479.559 406.896C479.052 408.096 480.255 414.035 481.584 417.194C482.28 418.837 482.786 419.28 483.862 419.09C485.507 418.837 485.507 418.9 483.608 411.634C482.533 407.78 481.837 406.201 481.014 406.074C480.445 405.948 479.749 406.327 479.559 406.896Z" fill="#1F2937" stroke="#1F2937" stroke-width="0.842197"/>
<path d="M413.596 692.173H440.657H494.387V700.172H413.596V692.173Z" fill="#34B17B"/>
<path d="M440.793 692.172L442.393 652.977H497.187L494.387 692.172H440.793Z" fill="#73CFA5"/>
<path d="M446.792 687.373L448.792 658.176H491.587L489.188 687.373H446.792Z" fill="#EAF8F2"/>
<rect x="537.401" y="660.169" width="157.907" height="17.5452" fill="#68BA95"/>
<rect x="537.401" y="677.714" width="15.5957" height="97.4733" fill="#68BA95"/>
<rect x="597.835" y="677.714" width="15.5957" height="97.4733" fill="#68BA95"/>
<rect x="695.308" y="677.714" width="15.5957" height="97.4733" fill="#A8E0C5"/>
<rect x="763.54" y="677.714" width="15.5957" height="97.4733" fill="#A8E0C5"/>
<rect x="695.308" y="660.169" width="83.827" height="17.5452" fill="#A8E0C5"/>
<rect x="360" y="628.978" width="72.1302" height="71.1555" fill="#68BA95"/>
<rect x="360" y="700.134" width="72.1302" height="17.5452" fill="#A8E0C5"/>
<rect x="432.13" y="700.134" width="46.7872" height="17.5452" fill="#68BA95"/>
<rect x="416.534" y="717.679" width="15.5957" height="58.484" fill="#68BA95"/>
<rect x="360" y="717.679" width="15.5957" height="58.484" fill="#68BA95"/>
<rect x="463.321" y="717.679" width="15.5957" height="58.484" fill="#68BA95"/>
<path d="M937.94 730.366C927.381 731.005 927.674 714.101 929.14 705.568V703.568L942.339 705.168L947.139 717.167C948.472 721.3 948.498 729.726 937.94 730.366Z" fill="#1F2937"/>
<path d="M933.541 693.57C906.983 690.69 896.878 721.967 895.145 737.965H906.343C909.41 727.3 918.422 706.049 929.941 706.368C941.46 706.688 946.206 714.501 947.139 718.367C946.473 710.635 942.82 694.85 933.541 693.57Z" fill="#26A275"/>
<path d="M866.747 645.175C852.989 646.774 866.081 707.435 874.346 737.565H883.146C883.412 706.102 880.506 643.575 866.747 645.175Z" fill="#26A275"/>
<path d="M897.145 737.966H886.746C890.612 701.836 886.746 631.977 912.343 636.376C926.049 638.732 907.544 706.369 897.145 737.966Z" fill="#26A275"/>
<path d="M856.349 708.769C858.615 709.169 865.148 713.168 866.748 725.967C868.347 738.765 866.881 740.632 866.748 739.965" stroke="#1F2937" stroke-width="2.27613" stroke-linecap="round"/>
<path d="M919.942 680.771C915.386 681.568 902.252 689.538 899.036 715.04C895.819 740.541 898.768 744.26 899.036 742.932" stroke="#1F2937" stroke-width="2.27613" stroke-linecap="round"/>
<circle cx="925.941" cy="675.571" r="10.7989" fill="#EA580C"/>
<circle cx="849.949" cy="701.969" r="10.7989" fill="#EA580C"/>
<rect x="849.549" y="737.565" width="79.9917" height="39.1959" rx="19.598" fill="#73CFA5"/>
<path d="M482.812 538.034C482.985 537.718 483.438 537.718 483.611 538.034V538.034C486.397 543.128 490.585 547.317 495.679 550.103V550.103C495.995 550.276 495.995 550.729 495.679 550.902V550.902C490.585 553.688 486.397 557.876 483.611 562.97V562.97C483.438 563.286 482.985 563.286 482.812 562.97V562.97C480.026 557.876 475.837 553.688 470.743 550.902V550.902C470.427 550.729 470.427 550.276 470.743 550.103V550.103C475.837 547.317 480.026 543.128 482.812 538.034V538.034Z" fill="#FB923C"/>
<path d="M781.554 388.189C781.727 387.873 782.18 387.873 782.353 388.189V388.189C785.139 393.283 789.327 397.471 794.422 400.257V400.257C794.737 400.43 794.737 400.883 794.422 401.056V401.056C789.327 403.842 785.139 408.031 782.353 413.125V413.125C782.18 413.441 781.727 413.441 781.554 413.125V413.125C778.768 408.031 774.58 403.842 769.485 401.056V401.056C769.17 400.883 769.17 400.43 769.485 400.257V400.257C774.58 397.471 778.768 393.283 781.554 388.189V388.189Z" fill="#FB923C"/>
<path d="M782.797 721.251C773.198 714.318 756.399 692.854 769.198 687.255C781.038 682.075 784.93 707.652 782.797 721.251Z" fill="#339C73"/>
<path d="M787.597 720.452C787.997 712.186 790.876 696.374 799.195 699.254C807.515 702.134 794.929 714.586 787.597 720.452Z" fill="#339C73"/>
<path d="M782.797 729.651C783.197 725.118 783.277 715.093 780.397 711.253" stroke="#1F2937" stroke-width="2.27613" stroke-linecap="round"/>
<path d="M786.984 729.25C786.615 726.688 786.541 721.022 789.196 718.852" stroke="#1F2937" stroke-width="2.27613" stroke-linecap="round"/>
<path d="M811.994 729.65H758.8C757.333 745.515 751.601 777.245 787.197 777.245C813.434 777.245 814.661 745.515 811.994 729.65Z" fill="#34B17B"/>
<path fill-rule="evenodd" clip-rule="evenodd" d="M686.553 469.6C680.597 482.503 667.544 491.457 652.4 491.457C636.307 491.457 622.575 481.345 617.212 467.128C610.336 467.076 604.777 461.485 604.777 454.597C604.777 447.884 610.055 442.404 616.687 442.08C621.63 427.087 635.751 416.265 652.4 416.265C669.984 416.265 684.748 428.336 688.858 444.644C695.135 445.326 700.021 450.643 700.021 457.102C700.021 464.023 694.41 469.634 687.489 469.634C687.174 469.634 686.862 469.622 686.553 469.6Z" fill="#FED7AA"/>
<path fill-rule="evenodd" clip-rule="evenodd" d="M649.078 452.183C647.923 449.738 645.313 448.043 642.225 448.043C640.897 448.043 638.845 448.93 638 450.372C637.879 450.705 637.396 450.705 637.275 450.372C636.31 449.041 634.378 448.154 632.929 448.154C628.945 448.154 625.565 451.149 625.444 454.809V455.031C625.444 456.917 626.289 458.691 627.738 460.023V460.133C627.859 460.244 633.654 464.903 636.31 467.011C637.034 467.565 638.121 467.565 638.845 467.011C639.96 466.125 641.609 464.79 643.163 463.531L643.163 463.53L643.163 463.53C645.309 461.792 647.276 460.198 647.416 460.133V460.023C648.865 458.802 649.71 457.028 649.71 455.031V454.809C649.71 454.807 649.71 454.804 649.71 454.801C650.507 454.671 651.401 454.597 652.402 454.597C654.127 454.597 655.534 454.816 656.675 455.165C656.626 455.445 656.596 455.73 656.586 456.02V456.242C656.586 458.127 657.432 459.902 658.88 461.233V461.344C659.001 461.455 664.796 466.114 667.452 468.221C668.176 468.776 669.263 468.776 669.987 468.221C671.103 467.336 672.751 466 674.305 464.741L674.305 464.741C676.451 463.002 678.418 461.408 678.558 461.344V461.233C680.007 460.013 680.852 458.238 680.852 456.242V456.02C680.732 452.248 677.472 449.253 673.367 449.253C672.039 449.253 669.987 450.141 669.142 451.583C669.021 451.916 668.538 451.916 668.418 451.583C667.452 450.252 665.52 449.364 664.071 449.364C661.432 449.364 659.058 450.679 657.721 452.63C656.429 452.226 654.697 451.958 652.402 451.958C651.127 451.958 650.026 452.041 649.078 452.183Z" fill="#EA580C"/>
<path d="M646.133 469.502C646.551 470.337 648.389 472.008 652.399 472.008C656.409 472.008 658.247 470.337 658.665 469.502" stroke="#EA580C" stroke-width="2.27613" stroke-linecap="round" stroke-linejoin="round"/>
<path d="M646.307 422.095C644.992 423.125 642.925 427.276 644.064 430.197C645.203 433.117 646.984 433.841 647.889 434.073" stroke="#EA580C" stroke-width="2.27613" stroke-linecap="round"/>
<path d="M654.355 424.463C653.038 425.36 652.092 429.222 653.353 431.92C654.291 433.928 656.692 434.707 657.456 434.903" stroke="#EA580C" stroke-width="2.27613" stroke-linecap="round"/>
<path d="M660.996 425.834C660.366 426.661 660.828 429.045 661.911 430.658C662.552 431.612 664.491 433.005 665.005 432.969" stroke="#EA580C" stroke-width="2.27613" stroke-linecap="round"/>
<rect x="622.376" y="495.393" width="63.1934" height="139.985" rx="31.5967" fill="#FED7AA"/>
<rect x="527.984" y="600.183" width="257.573" height="59.9937" rx="29.9969" fill="#319E73"/>
<path d="M706.765 611.382H602.376" stroke="#1F2937" stroke-width="2.27613"/>
<path d="M673.17 636.178C673.17 649.432 663.028 660.176 653.972 660.176C644.915 660.176 635.174 649.432 635.174 636.178C635.174 622.925 644.915 612.181 653.972 612.181C663.028 612.181 673.17 622.925 673.17 636.178Z" fill="#A8E0C5"/>
<path d="M653.971 612.181V660.176" stroke="#1F2937" stroke-width="2.27613"/>
<path d="M696.767 514.604C684.609 498.606 664.504 495.14 655.972 495.406L683.969 559C685.835 566.466 691.008 583.477 696.767 591.796C702.527 600.116 733.43 604.448 750.762 610.581L772.359 587.397L723.564 562.599C719.698 553.267 708.926 530.603 696.767 514.604Z" fill="#FED7AA"/>
<path fill-rule="evenodd" clip-rule="evenodd" d="M792.282 606.557C794.219 606.171 795.973 604.944 796.94 603.075L797.659 601.685C799.318 598.478 798.032 594.596 794.787 593.014L784.186 587.847C783.451 587.392 782.678 586.959 781.882 586.535C783.204 585.104 783.902 583.115 783.613 581.059L783.396 579.509C782.895 575.934 779.6 573.511 776.038 574.097L763.127 576.224C760.097 576.524 752.807 576.32 749.309 576.168L749.312 576.202C749.297 576.2 749.283 576.197 749.268 576.195L734.998 605.782C737.075 610.299 739.827 614.779 743.011 618.74C743.263 619.157 743.575 619.562 743.951 619.949L744.454 620.466C747.159 623.572 750.129 626.283 753.231 628.334C756.132 630.504 759.217 632.44 762.457 634.12L764.654 635.258C767.697 636.836 771.492 635.837 773.358 632.968L774.467 631.262C775.02 630.412 775.347 629.486 775.463 628.552L777.111 629.377C780.339 630.993 784.329 629.718 786.022 626.529L786.757 625.147C787.57 623.615 787.705 621.921 787.269 620.394C790.41 621.684 794.115 620.384 795.73 617.342L796.465 615.959C798.158 612.77 796.913 608.875 793.684 607.258L792.282 606.557Z" fill="#FED7AA"/>
<path d="M781.896 586.562C779.914 587.324 775.413 588.821 773.272 588.709" stroke="#1F2937" stroke-width="2.27613" stroke-linecap="round"/>
<path d="M792.407 606.359C789.055 605.291 781.796 602.843 779.584 601.59" stroke="#1F2937" stroke-width="2.27613" stroke-linecap="round"/>
<path d="M787.308 620.695C784.15 619.144 777.332 615.652 775.329 614.087" stroke="#1F2937" stroke-width="2.27613" stroke-linecap="round"/>
<path d="M775.256 629.017C772.271 627.154 765.842 622.99 764.007 621.23" stroke="#1F2937" stroke-width="2.27613" stroke-linecap="round"/>
<path d="M611.012 514.604C623.171 498.606 643.275 495.14 651.808 495.406L623.811 559C621.944 566.466 616.771 583.477 611.012 591.796C605.253 600.116 574.349 604.448 557.018 610.581L535.42 587.397L584.215 562.599C588.081 553.267 598.853 530.603 611.012 514.604Z" fill="#FED7AA"/>
<path fill-rule="evenodd" clip-rule="evenodd" d="M515.497 606.557C513.56 606.171 511.806 604.944 510.84 603.075L510.12 601.685C508.461 598.478 509.747 594.596 512.993 593.014L523.594 587.847C524.329 587.392 525.101 586.959 525.897 586.535C524.575 585.104 523.878 583.115 524.166 581.059L524.383 579.509C524.884 575.934 528.179 573.511 531.741 574.097L544.653 576.224C547.683 576.524 554.972 576.32 558.47 576.168L558.467 576.202C558.482 576.2 558.497 576.197 558.511 576.195L572.781 605.782C570.704 610.299 567.952 614.779 564.769 618.74C564.516 619.157 564.204 619.562 563.828 619.949L563.326 620.466C560.621 623.572 557.651 626.283 554.548 628.333C551.647 630.504 548.562 632.44 545.322 634.12L543.126 635.258C540.082 636.836 536.287 635.837 534.422 632.968L533.312 631.262C532.759 630.412 532.433 629.486 532.316 628.552L530.669 629.377C527.44 630.993 523.45 629.718 521.757 626.529L521.023 625.147C520.21 623.615 520.074 621.921 520.51 620.394C517.37 621.684 513.664 620.384 512.049 617.342L511.315 615.959C509.622 612.77 510.866 608.875 514.095 607.258L515.497 606.557Z" fill="#FED7AA"/>
<path d="M525.882 586.562C527.864 587.324 532.365 588.821 534.506 588.709" stroke="#1F2937" stroke-width="2.27613" stroke-linecap="round"/>
<path d="M515.371 606.359C518.724 605.291 525.982 602.843 528.194 601.59" stroke="#1F2937" stroke-width="2.27613" stroke-linecap="round"/>
<path d="M520.471 620.696C523.63 619.145 530.448 615.653 532.451 614.088" stroke="#1F2937" stroke-width="2.27613" stroke-linecap="round"/>
<path d="M532.522 629.017C535.507 627.154 541.937 622.99 543.771 621.23" stroke="#1F2937" stroke-width="2.27613" stroke-linecap="round"/>
<path fill-rule="evenodd" clip-rule="evenodd" d="M652.052 511.941C659.562 511.941 665.65 505.853 665.65 498.342C665.65 497.668 665.601 497.005 665.507 496.356C675.196 498.196 687.979 503.239 696.687 514.727C708.846 530.768 719.618 553.493 723.484 562.851L696.687 592.126C692.287 585.753 688.229 574.293 685.726 565.901V600.182H622.533V563.71C620.121 572.183 615.731 585.178 610.934 592.126L584.137 562.851C588.003 553.493 598.775 530.768 610.934 514.727C618.597 504.618 629.415 499.499 638.504 497.163C638.47 497.552 638.453 497.945 638.453 498.342C638.453 505.853 644.542 511.941 652.052 511.941Z" fill="#8DD7E2"/>
<rect x="643.171" y="487.393" width="17.5982" height="14.3985" fill="#FED7AA"/>
<circle cx="396.579" cy="607.965" r="19.198" transform="rotate(-22.9297 396.579 607.965)" fill="#F1FAF6" stroke="#34B17B" stroke-width="3.99958"/>
<rect x="388.396" y="592.271" width="2.2776" height="17.206" rx="1.1388" transform="rotate(-22.9297 388.396 592.271)" fill="#34B17B"/>
<rect x="399.356" y="597.159" width="2.23471" height="10.9619" rx="1.11735" transform="rotate(22.3107 399.356 597.159)" fill="#34B17B"/>
<ellipse cx="2.01838" cy="2.01838" rx="2.01838" ry="2.01838" transform="matrix(0.920984 -0.389601 0.389602 0.920983 393.595 605.845)" fill="#34B17B"/>
<path d="M665.568 496.192C665.568 503.703 659.48 511.391 651.97 511.391C644.459 511.391 638.371 504.592 638.371 496.992" stroke="#1F2937" stroke-width="2.27613"/>
<path d="M685.566 566.185C688.633 574.317 695.165 590.822 696.765 591.782C701.245 588.262 717.83 569.384 723.562 562.585L712.764 540.188" stroke="#1F2937" stroke-width="2.27613"/>
<path d="M685.566 566.185V588.982" stroke="#1F2937" stroke-width="2.27613"/>
<path d="M622.372 563.785C619.306 571.918 612.373 590.822 610.773 591.782C606.294 588.262 589.709 569.384 583.976 562.585L594.775 540.188" stroke="#1F2937" stroke-width="2.27613"/>
<path d="M622.372 564.186L621.972 588.983" stroke="#1F2937" stroke-width="2.27613"/>
<rect x="1050" y="185" width="510" height="710" rx="24" fill="white"/>
<path d="M1281.85 222.898V244.086H1279.25V222.898H1281.85ZM1264.3 238.203C1265.98 238.191 1267.89 238.191 1269.9 238.133V236.188C1267.51 235.812 1265.96 234.348 1265.96 232.344C1265.96 229.953 1268.07 228.359 1271.16 228.359C1274.28 228.359 1276.44 229.953 1276.44 232.344C1276.44 234.336 1274.88 235.789 1272.5 236.164V238.039C1274.36 237.957 1276.24 237.805 1278.01 237.57L1278.2 239.516C1273.53 240.312 1268.49 240.359 1264.67 240.359L1264.3 238.203ZM1277.63 225.336V227.398H1264.74V225.336H1269.9V222.969H1272.5V225.336H1277.63ZM1271.16 230.352C1269.57 230.375 1268.42 231.102 1268.45 232.344C1268.42 233.562 1269.57 234.289 1271.16 234.266C1272.83 234.289 1273.93 233.562 1273.93 232.344C1273.93 231.102 1272.83 230.375 1271.16 230.352ZM1302.71 222.922V238.953H1300.09V237.102H1295.94V235.273H1300.09V222.922H1302.71ZM1303.2 241.555V243.664H1287.66V237.406H1290.27V241.555H1303.2ZM1284.85 232.438C1288.77 232.414 1294.02 232.367 1298.52 231.805L1298.66 233.68C1296.91 233.973 1295.11 234.172 1293.31 234.289V238.367H1290.71V234.43C1288.73 234.512 1286.84 234.523 1285.18 234.523L1284.85 232.438ZM1291.77 223.695C1294.86 223.695 1297.02 225.219 1297.04 227.445C1297.02 229.719 1294.86 231.172 1291.77 231.172C1288.62 231.172 1286.47 229.719 1286.47 227.445C1286.47 225.219 1288.62 223.695 1291.77 223.695ZM1291.77 225.617C1290.08 225.617 1288.93 226.297 1288.93 227.445C1288.93 228.594 1290.08 229.273 1291.77 229.273C1293.38 229.273 1294.53 228.594 1294.55 227.445C1294.53 226.297 1293.38 225.617 1291.77 225.617ZM1322.28 222.898V231.172H1325.42V233.352H1322.28V244.039H1319.68V222.898H1322.28ZM1316.68 225.102C1316.68 231.336 1314.1 236.797 1307.05 240.266L1305.57 238.25C1310.73 235.684 1313.52 232.074 1314.05 227.258H1306.72V225.102H1316.68ZM1344.08 222.898V234.266H1341.45V222.898H1344.08ZM1332.64 235.25V237.43H1341.48V235.25H1344.08V243.828H1330.06V235.25H1332.64ZM1332.64 241.719H1341.48V239.469H1332.64V241.719ZM1332.52 223.836C1335.78 223.812 1338.22 225.852 1338.22 228.805C1338.22 231.688 1335.78 233.727 1332.52 233.727C1329.24 233.727 1326.8 231.688 1326.8 228.805C1326.8 225.852 1329.24 223.812 1332.52 223.836ZM1332.52 226.016C1330.67 226.016 1329.34 227.094 1329.36 228.805C1329.34 230.492 1330.67 231.57 1332.52 231.594C1334.35 231.57 1335.66 230.492 1335.66 228.805C1335.66 227.094 1334.35 226.016 1332.52 226.016Z" fill="#1F2937"/>
<path d="M1114.69 284.857V297.23H1113.16V284.857H1114.69ZM1108.03 285.76C1109.89 285.76 1111.25 287.455 1111.26 290.121C1111.25 292.814 1109.89 294.496 1108.03 294.496C1106.16 294.496 1104.81 292.814 1104.81 290.121C1104.81 287.455 1106.16 285.76 1108.03 285.76ZM1108.03 287.127C1106.98 287.127 1106.27 288.234 1106.27 290.121C1106.27 292.021 1106.98 293.129 1108.03 293.129C1109.07 293.129 1109.78 292.021 1109.78 290.121C1109.78 288.234 1109.07 287.127 1108.03 287.127ZM1127.79 291.146V292.35H1116.5V291.146H1127.79ZM1126.39 285.117V288.289H1119.44V289.178H1126.64V290.34H1117.93V287.182H1124.88V286.307H1117.89V285.117H1126.39ZM1126.44 293.238V297.066H1117.97V293.238H1126.44ZM1119.46 294.441V295.836H1124.93V294.441H1119.46Z" fill="#111827"/>
<rect x="1104" y="309" width="402" height="44" rx="12" fill="#F9FAFB"/>
<path d="M1132.11 324.328V338.359H1130.62V324.328H1132.11ZM1124.62 325.375C1126.7 325.375 1128.23 327.281 1128.23 330.281C1128.23 333.297 1126.7 335.203 1124.62 335.203C1122.52 335.203 1121 333.297 1121 330.281C1121 327.281 1122.52 325.375 1124.62 325.375ZM1124.62 326.703C1123.33 326.703 1122.44 328.078 1122.44 330.281C1122.44 332.5 1123.33 333.875 1124.62 333.875C1125.91 333.875 1126.8 332.5 1126.8 330.281C1126.8 328.078 1125.91 326.703 1124.62 326.703ZM1147.14 331.5V332.688H1134.33V331.5H1147.14ZM1145.53 324.641V328.094H1137.44V329.297H1145.81V330.438H1135.97V327H1144.05V325.812H1135.94V324.641H1145.53ZM1145.55 333.828V338.156H1136.03V333.828H1145.55ZM1137.5 335.016V336.953H1144.08V335.016H1137.5ZM1154.55 324.562C1157.7 324.562 1159.55 325.406 1159.55 326.969C1159.55 328.531 1157.7 329.391 1154.55 329.391C1151.39 329.391 1149.55 328.531 1149.55 326.969C1149.55 325.406 1151.39 324.562 1154.55 324.562ZM1154.55 325.656C1152.31 325.656 1151.08 326.141 1151.09 326.969C1151.08 327.828 1152.31 328.281 1154.55 328.281C1156.78 328.281 1158.02 327.828 1158.02 326.969C1158.02 326.141 1156.78 325.656 1154.55 325.656ZM1160.94 330.25V331.438H1148.17V330.25H1160.94ZM1159.33 332.516V335.797H1151.17V337.047H1159.72V338.188H1149.72V334.719H1157.86V333.625H1149.7V332.516H1159.33ZM1177.52 324.328V331.844H1176.03V324.328H1177.52ZM1169.81 332.516V334.094H1176.05V332.516H1177.52V338.156H1168.36V332.516H1169.81ZM1169.81 336.938H1176.05V335.266H1169.81V336.938ZM1169.92 324.969C1172.06 324.969 1173.64 326.297 1173.64 328.219C1173.64 330.141 1172.06 331.469 1169.92 331.453C1167.78 331.469 1166.19 330.141 1166.19 328.219C1166.19 326.297 1167.78 324.969 1169.92 324.969ZM1169.92 326.219C1168.59 326.203 1167.64 327.031 1167.64 328.219C1167.64 329.422 1168.59 330.234 1169.92 330.234C1171.23 330.234 1172.19 329.422 1172.19 328.219C1172.19 327.031 1171.23 326.203 1169.92 326.219ZM1186.41 325.172V329.25H1181.78V331.188C1184.22 331.195 1185.55 331.141 1187.12 330.844L1187.27 332.047C1185.56 332.344 1184.12 332.391 1181.33 332.391H1180.31V328.125H1184.92V326.359H1180.3V325.172H1186.41ZM1191.41 324.344V332.953H1189.92V330.484H1187.3V329.297H1189.92V327.562H1187.3V326.375H1189.92V324.344H1191.41ZM1191.41 333.656V338.344H1189.92V334.859H1181.91V333.656H1191.41ZM1200.48 326.641V327.844H1193.53V326.641H1196.28V324.734H1197.75V326.641H1200.48ZM1197.02 328.688C1198.8 328.688 1200.05 330.016 1200.06 331.906C1200.05 333.812 1198.8 335.156 1197.02 335.156C1195.27 335.156 1193.97 333.812 1193.98 331.906C1193.97 330.016 1195.27 328.688 1197.02 328.688ZM1197.02 329.922C1196 329.922 1195.3 330.75 1195.3 331.906C1195.3 333.094 1196 333.891 1197.02 333.891C1198.02 333.891 1198.75 333.094 1198.75 331.906C1198.75 330.75 1198.02 329.922 1197.02 329.922ZM1205.55 324.328V338.328H1204.14V331.375H1202.53V337.672H1201.12V324.641H1202.53V330.156H1204.14V324.328H1205.55ZM1220.16 332.219V333.422H1214.47V338.312H1213.02V333.422H1207.39V332.219H1220.16ZM1218.95 325.156V326.344H1214.62C1214.65 328.078 1216.8 329.625 1219.45 329.984L1218.91 331.156C1216.61 330.797 1214.62 329.664 1213.78 328.062C1212.91 329.664 1210.94 330.797 1208.67 331.156L1208.11 329.984C1210.73 329.625 1212.88 328.078 1212.94 326.344H1208.58V325.156H1218.95ZM1225.48 328.156C1225.48 330.391 1226.42 332.781 1228.3 333.922L1227.47 335.062C1226.16 334.273 1225.27 332.875 1224.8 331.25C1224.27 333.031 1223.31 334.547 1221.95 335.375L1221.03 334.266C1223.02 333.078 1224.05 330.609 1224.05 328.219V325.609H1225.48V328.156ZM1233.27 324.328V338.328H1231.84V324.328H1233.27ZM1230.36 324.594V337.641H1228.95V330.484H1226.78V329.25H1228.95V324.594H1230.36ZM1247.86 335.344V336.578H1235.05V335.344H1238.11V331.688C1236.96 331.055 1236.27 330.047 1236.27 328.797C1236.27 326.594 1238.42 325.141 1241.42 325.141C1244.44 325.141 1246.59 326.594 1246.59 328.797C1246.59 330.031 1245.92 331.023 1244.8 331.656V335.344H1247.86ZM1241.42 326.328C1239.22 326.328 1237.7 327.281 1237.7 328.797C1237.7 330.297 1239.22 331.281 1241.42 331.281C1243.61 331.281 1245.16 330.297 1245.16 328.797C1245.16 327.281 1243.61 326.328 1241.42 326.328ZM1239.58 335.344H1243.3V332.219C1242.73 332.367 1242.09 332.438 1241.42 332.438C1240.77 332.438 1240.14 332.367 1239.58 332.234V335.344Z" fill="#9CA3AF"/>
<path d="M1107.73 381.76C1109.59 381.76 1110.93 383.455 1110.95 386.121C1110.93 388.814 1109.59 390.496 1107.73 390.496C1105.86 390.496 1104.51 388.814 1104.52 386.121C1104.51 383.455 1105.86 381.76 1107.73 381.76ZM1107.73 383.127C1106.69 383.127 1105.98 384.234 1105.98 386.121C1105.98 388.021 1106.69 389.129 1107.73 389.129C1108.79 389.129 1109.48 388.021 1109.48 386.121C1109.48 384.234 1108.79 383.127 1107.73 383.127ZM1114.09 380.857V385.602H1115.99V386.887H1114.09V393.217H1112.57V380.857H1114.09ZM1126.79 380.857V393.23H1125.26V380.857H1126.79ZM1120.13 381.76C1121.99 381.76 1123.35 383.455 1123.36 386.121C1123.35 388.814 1121.99 390.496 1120.13 390.496C1118.26 390.496 1116.91 388.814 1116.91 386.121C1116.91 383.455 1118.26 381.76 1120.13 381.76ZM1120.13 383.127C1119.08 383.127 1118.37 384.234 1118.37 386.121C1118.37 388.021 1119.08 389.129 1120.13 389.129C1121.17 389.129 1121.88 388.021 1121.88 386.121C1121.88 384.234 1121.17 383.127 1120.13 383.127ZM1138.89 380.857V393.23H1137.36V380.857H1138.89ZM1135.34 381.979V383.223H1130.91V388.965C1133.18 388.958 1134.61 388.89 1136.25 388.596L1136.4 389.854C1134.64 390.182 1133.04 390.25 1130.43 390.25H1129.38V381.979H1135.34Z" fill="#111827"/>
<rect x="1104" y="405" width="402" height="44" rx="12" fill="#F9FAFB"/>
<path d="M1132.11 420.328V434.359H1130.62V420.328H1132.11ZM1124.62 421.375C1126.7 421.375 1128.23 423.281 1128.23 426.281C1128.23 429.297 1126.7 431.203 1124.62 431.203C1122.52 431.203 1121 429.297 1121 426.281C1121 423.281 1122.52 421.375 1124.62 421.375ZM1124.62 422.703C1123.33 422.703 1122.44 424.078 1122.44 426.281C1122.44 428.5 1123.33 429.875 1124.62 429.875C1125.91 429.875 1126.8 428.5 1126.8 426.281C1126.8 424.078 1125.91 422.703 1124.62 422.703ZM1140.25 421.906V425.547H1142.12V420.594H1143.55V433.641H1142.12V426.766H1140.25V430.641H1134.81V421.906H1140.25ZM1136.22 423.078V429.453H1138.86V423.078H1136.22ZM1146.39 420.328V434.328H1144.97V420.328H1146.39ZM1152.14 420.797C1154.25 420.812 1155.8 422.109 1155.81 423.938C1155.8 425.781 1154.25 427.062 1152.14 427.062C1150.02 427.062 1148.45 425.781 1148.45 423.938C1148.45 422.109 1150.02 420.812 1152.14 420.797ZM1152.14 422.047C1150.84 422.031 1149.89 422.797 1149.91 423.938C1149.89 425.094 1150.84 425.859 1152.14 425.859C1153.42 425.859 1154.38 425.094 1154.38 423.938C1154.38 422.797 1153.42 422.031 1152.14 422.047ZM1159.78 420.328V427.453H1158.3V420.328H1159.78ZM1159.78 428.094V431.625H1152.06V432.969H1160.25V434.156H1150.62V430.516H1158.31V429.281H1150.58V428.094H1159.78ZM1168.38 420.562C1171.53 420.562 1173.38 421.406 1173.38 422.969C1173.38 424.531 1171.53 425.391 1168.38 425.391C1165.22 425.391 1163.38 424.531 1163.38 422.969C1163.38 421.406 1165.22 420.562 1168.38 420.562ZM1168.38 421.656C1166.14 421.656 1164.91 422.141 1164.92 422.969C1164.91 423.828 1166.14 424.281 1168.38 424.281C1170.61 424.281 1171.84 423.828 1171.84 422.969C1171.84 422.141 1170.61 421.656 1168.38 421.656ZM1174.77 426.25V427.438H1162V426.25H1174.77ZM1173.16 428.516V431.797H1165V433.047H1173.55V434.188H1163.55V430.719H1171.69V429.625H1163.53V428.516H1173.16ZM1191.34 420.328V427.844H1189.86V420.328H1191.34ZM1183.64 428.516V430.094H1189.88V428.516H1191.34V434.156H1182.19V428.516H1183.64ZM1183.64 432.938H1189.88V431.266H1183.64V432.938ZM1183.75 420.969C1185.89 420.969 1187.47 422.297 1187.47 424.219C1187.47 426.141 1185.89 427.469 1183.75 427.453C1181.61 427.469 1180.02 426.141 1180.02 424.219C1180.02 422.297 1181.61 420.969 1183.75 420.969ZM1183.75 422.219C1182.42 422.203 1181.47 423.031 1181.47 424.219C1181.47 425.422 1182.42 426.234 1183.75 426.234C1185.06 426.234 1186.02 425.422 1186.02 424.219C1186.02 423.031 1185.06 422.203 1183.75 422.219ZM1200.23 421.172V425.25H1195.61V427.188C1198.05 427.195 1199.38 427.141 1200.95 426.844L1201.09 428.047C1199.39 428.344 1197.95 428.391 1195.16 428.391H1194.14V424.125H1198.75V422.359H1194.12V421.172H1200.23ZM1205.23 420.344V428.953H1203.75V426.484H1201.12V425.297H1203.75V423.562H1201.12V422.375H1203.75V420.344H1205.23ZM1205.23 429.656V434.344H1203.75V430.859H1195.73V429.656H1205.23ZM1214.31 422.641V423.844H1207.36V422.641H1210.11V420.734H1211.58V422.641H1214.31ZM1210.84 424.688C1212.62 424.688 1213.88 426.016 1213.89 427.906C1213.88 429.812 1212.62 431.156 1210.84 431.156C1209.09 431.156 1207.8 429.812 1207.81 427.906C1207.8 426.016 1209.09 424.688 1210.84 424.688ZM1210.84 425.922C1209.83 425.922 1209.12 426.75 1209.12 427.906C1209.12 429.094 1209.83 429.891 1210.84 429.891C1211.84 429.891 1212.58 429.094 1212.58 427.906C1212.58 426.75 1211.84 425.922 1210.84 425.922ZM1219.38 420.328V434.328H1217.97V427.375H1216.36V433.672H1214.95V420.641H1216.36V426.156H1217.97V420.328H1219.38ZM1233.98 428.219V429.422H1228.3V434.312H1226.84V429.422H1221.22V428.219H1233.98ZM1232.78 421.156V422.344H1228.45C1228.48 424.078 1230.63 425.625 1233.28 425.984L1232.73 427.156C1230.44 426.797 1228.45 425.664 1227.61 424.062C1226.74 425.664 1224.77 426.797 1222.5 427.156L1221.94 425.984C1224.55 425.625 1226.71 424.078 1226.77 422.344H1222.41V421.156H1232.78ZM1239.31 424.156C1239.31 426.391 1240.25 428.781 1242.12 429.922L1241.3 431.062C1239.98 430.273 1239.09 428.875 1238.62 427.25C1238.1 429.031 1237.14 430.547 1235.78 431.375L1234.86 430.266C1236.84 429.078 1237.88 426.609 1237.88 424.219V421.609H1239.31V424.156ZM1247.09 420.328V434.328H1245.67V420.328H1247.09ZM1244.19 420.594V433.641H1242.78V426.484H1240.61V425.25H1242.78V420.594H1244.19ZM1261.69 431.344V432.578H1248.88V431.344H1251.94V427.688C1250.79 427.055 1250.09 426.047 1250.09 424.797C1250.09 422.594 1252.25 421.141 1255.25 421.141C1258.27 421.141 1260.42 422.594 1260.42 424.797C1260.42 426.031 1259.75 427.023 1258.62 427.656V431.344H1261.69ZM1255.25 422.328C1253.05 422.328 1251.53 423.281 1251.53 424.797C1251.53 426.297 1253.05 427.281 1255.25 427.281C1257.44 427.281 1258.98 426.297 1258.98 424.797C1258.98 423.281 1257.44 422.328 1255.25 422.328ZM1253.41 431.344H1257.12V428.219C1256.55 428.367 1255.92 428.438 1255.25 428.438C1254.59 428.438 1253.97 428.367 1253.41 428.234V431.344Z" fill="#9CA3AF"/>
<path d="M1114.71 476.857V489.217H1113.19V476.857H1114.71ZM1104.46 485.785C1105.45 485.778 1106.56 485.778 1107.73 485.744V484.609C1106.34 484.391 1105.44 483.536 1105.44 482.367C1105.44 480.973 1106.67 480.043 1108.47 480.043C1110.29 480.043 1111.55 480.973 1111.55 482.367C1111.55 483.529 1110.64 484.377 1109.25 484.596V485.689C1110.34 485.642 1111.43 485.553 1112.46 485.416L1112.57 486.551C1109.85 487.016 1106.91 487.043 1104.68 487.043L1104.46 485.785ZM1112.24 478.279V479.482H1104.72V478.279H1107.73V476.898H1109.25V478.279H1112.24ZM1108.47 481.205C1107.54 481.219 1106.87 481.643 1106.88 482.367C1106.87 483.078 1107.54 483.502 1108.47 483.488C1109.44 483.502 1110.08 483.078 1110.08 482.367C1110.08 481.643 1109.44 481.219 1108.47 481.205ZM1120.93 479.824C1120.91 482.025 1122.02 484.268 1123.93 485.184L1123 486.4C1121.66 485.724 1120.7 484.418 1120.17 482.846C1119.63 484.527 1118.62 485.922 1117.21 486.633L1116.28 485.416C1118.26 484.473 1119.39 482.107 1119.41 479.824V477.855H1120.93V479.824ZM1126.19 476.857V481.697H1128.09V482.996H1126.19V489.217H1124.67V476.857H1126.19ZM1138.96 476.857V484.131H1137.44V482.422H1134.95V483.379H1129.14V477.787H1134.95V478.744H1137.44V476.857H1138.96ZM1130.66 478.99V482.162H1133.45V478.99H1130.66ZM1134.78 484.459C1137.4 484.459 1139 485.334 1139 486.838C1139 488.342 1137.4 489.203 1134.78 489.203C1132.16 489.203 1130.56 488.342 1130.58 486.838C1130.56 485.334 1132.16 484.459 1134.78 484.459ZM1134.78 485.621C1133.05 485.621 1132.08 486.045 1132.08 486.838C1132.08 487.604 1133.05 488.027 1134.78 488.027C1136.5 488.027 1137.48 487.604 1137.48 486.838C1137.48 486.045 1136.5 485.621 1134.78 485.621ZM1134.95 481.191H1137.44V479.947H1134.95V481.191Z" fill="#111827"/>
<rect x="1104" y="501" width="402" height="44" rx="12" fill="#F9FAFB"/>
<path d="M1132.09 516.328V530.328H1130.61V516.328H1132.09ZM1120.59 526.516C1121.74 526.508 1123.06 526.5 1124.44 526.453V525.062C1122.8 524.852 1121.73 523.891 1121.75 522.516C1121.73 520.938 1123.11 519.891 1125.14 519.891C1127.19 519.891 1128.59 520.938 1128.59 522.516C1128.59 523.875 1127.53 524.828 1125.91 525.047V526.406C1127.2 526.352 1128.52 526.25 1129.75 526.094L1129.86 527.203C1126.75 527.719 1123.36 527.75 1120.8 527.75L1120.59 526.516ZM1129.44 518V519.188H1120.89V518H1124.44V516.359H1125.92V518H1129.44ZM1125.14 521.047C1123.97 521.047 1123.14 521.625 1123.16 522.516C1123.14 523.406 1123.97 523.953 1125.14 523.953C1126.34 523.953 1127.17 523.406 1127.17 522.516C1127.17 521.625 1126.34 521.047 1125.14 521.047ZM1139.2 519.891C1139.19 522.375 1140.62 524.906 1142.72 525.922L1141.8 527.109C1140.27 526.32 1139.09 524.75 1138.48 522.875C1137.85 524.875 1136.62 526.547 1135.03 527.375L1134.11 526.172C1136.27 525.141 1137.72 522.453 1137.72 519.891V517.5H1139.2V519.891ZM1145.25 516.328V521.906H1147.5V523.172H1145.25V530.328H1143.77V516.328H1145.25ZM1159.84 516.328V524.594H1158.36V522.516H1155.31V523.656H1148.81V517.375H1155.31V518.531H1158.36V516.328H1159.84ZM1150.28 518.562V522.469H1153.86V518.562H1150.28ZM1155.16 524.984C1158.09 524.984 1159.89 525.953 1159.89 527.656C1159.89 529.344 1158.09 530.312 1155.16 530.297C1152.22 530.312 1150.41 529.344 1150.42 527.656C1150.41 525.953 1152.22 524.984 1155.16 524.984ZM1155.16 526.125C1153.11 526.141 1151.89 526.672 1151.89 527.656C1151.89 528.594 1153.11 529.156 1155.16 529.156C1157.2 529.156 1158.42 528.594 1158.42 527.656C1158.42 526.672 1157.2 526.141 1155.16 526.125ZM1155.31 521.312H1158.36V519.719H1155.31V521.312ZM1168.38 516.562C1171.53 516.562 1173.38 517.406 1173.38 518.969C1173.38 520.531 1171.53 521.391 1168.38 521.391C1165.22 521.391 1163.38 520.531 1163.38 518.969C1163.38 517.406 1165.22 516.562 1168.38 516.562ZM1168.38 517.656C1166.14 517.656 1164.91 518.141 1164.92 518.969C1164.91 519.828 1166.14 520.281 1168.38 520.281C1170.61 520.281 1171.84 519.828 1171.84 518.969C1171.84 518.141 1170.61 517.656 1168.38 517.656ZM1174.77 522.25V523.438H1162V522.25H1174.77ZM1173.16 524.516V527.797H1165V529.047H1173.55V530.188H1163.55V526.719H1171.69V525.625H1163.53V524.516H1173.16ZM1191.34 516.328V523.844H1189.86V516.328H1191.34ZM1183.64 524.516V526.094H1189.88V524.516H1191.34V530.156H1182.19V524.516H1183.64ZM1183.64 528.938H1189.88V527.266H1183.64V528.938ZM1183.75 516.969C1185.89 516.969 1187.47 518.297 1187.47 520.219C1187.47 522.141 1185.89 523.469 1183.75 523.453C1181.61 523.469 1180.02 522.141 1180.02 520.219C1180.02 518.297 1181.61 516.969 1183.75 516.969ZM1183.75 518.219C1182.42 518.203 1181.47 519.031 1181.47 520.219C1181.47 521.422 1182.42 522.234 1183.75 522.234C1185.06 522.234 1186.02 521.422 1186.02 520.219C1186.02 519.031 1185.06 518.203 1183.75 518.219ZM1200.23 517.172V521.25H1195.61V523.188C1198.05 523.195 1199.38 523.141 1200.95 522.844L1201.09 524.047C1199.39 524.344 1197.95 524.391 1195.16 524.391H1194.14V520.125H1198.75V518.359H1194.12V517.172H1200.23ZM1205.23 516.344V524.953H1203.75V522.484H1201.12V521.297H1203.75V519.562H1201.12V518.375H1203.75V516.344H1205.23ZM1205.23 525.656V530.344H1203.75V526.859H1195.73V525.656H1205.23ZM1214.31 518.641V519.844H1207.36V518.641H1210.11V516.734H1211.58V518.641H1214.31ZM1210.84 520.688C1212.62 520.688 1213.88 522.016 1213.89 523.906C1213.88 525.812 1212.62 527.156 1210.84 527.156C1209.09 527.156 1207.8 525.812 1207.81 523.906C1207.8 522.016 1209.09 520.688 1210.84 520.688ZM1210.84 521.922C1209.83 521.922 1209.12 522.75 1209.12 523.906C1209.12 525.094 1209.83 525.891 1210.84 525.891C1211.84 525.891 1212.58 525.094 1212.58 523.906C1212.58 522.75 1211.84 521.922 1210.84 521.922ZM1219.38 516.328V530.328H1217.97V523.375H1216.36V529.672H1214.95V516.641H1216.36V522.156H1217.97V516.328H1219.38ZM1233.98 524.219V525.422H1228.3V530.312H1226.84V525.422H1221.22V524.219H1233.98ZM1232.78 517.156V518.344H1228.45C1228.48 520.078 1230.63 521.625 1233.28 521.984L1232.73 523.156C1230.44 522.797 1228.45 521.664 1227.61 520.062C1226.74 521.664 1224.77 522.797 1222.5 523.156L1221.94 521.984C1224.55 521.625 1226.71 520.078 1226.77 518.344H1222.41V517.156H1232.78ZM1239.31 520.156C1239.31 522.391 1240.25 524.781 1242.12 525.922L1241.3 527.062C1239.98 526.273 1239.09 524.875 1238.62 523.25C1238.1 525.031 1237.14 526.547 1235.78 527.375L1234.86 526.266C1236.84 525.078 1237.88 522.609 1237.88 520.219V517.609H1239.31V520.156ZM1247.09 516.328V530.328H1245.67V516.328H1247.09ZM1244.19 516.594V529.641H1242.78V522.484H1240.61V521.25H1242.78V516.594H1244.19ZM1261.69 527.344V528.578H1248.88V527.344H1251.94V523.688C1250.79 523.055 1250.09 522.047 1250.09 520.797C1250.09 518.594 1252.25 517.141 1255.25 517.141C1258.27 517.141 1260.42 518.594 1260.42 520.797C1260.42 522.031 1259.75 523.023 1258.62 523.656V527.344H1261.69ZM1255.25 518.328C1253.05 518.328 1251.53 519.281 1251.53 520.797C1251.53 522.297 1253.05 523.281 1255.25 523.281C1257.44 523.281 1258.98 522.297 1258.98 520.797C1258.98 519.281 1257.44 518.328 1255.25 518.328ZM1253.41 527.344H1257.12V524.219C1256.55 524.367 1255.92 524.438 1255.25 524.438C1254.59 524.438 1253.97 524.367 1253.41 524.234V527.344Z" fill="#9CA3AF"/>
<path d="M1114.69 572.857V585.23H1113.16V572.857H1114.69ZM1106.58 573.869V576.959H1109.58V573.869H1111.08V582.318H1105.07V573.869H1106.58ZM1106.58 581.074H1109.58V578.148H1106.58V581.074ZM1123.1 573.5V578.654H1117.14V573.5H1123.1ZM1118.64 574.717V577.465H1121.6V574.717H1118.64ZM1126.78 572.857V579.146H1125.27V572.857H1126.78ZM1126.78 579.707V582.906H1120.12V583.904H1127.15V585.107H1118.62V581.812H1125.3V580.896H1118.6V579.707H1126.78ZM1138.96 572.871V581.99H1137.44V577.438H1134.95V579.98H1129.17V573.678H1130.69V575.674H1133.45V573.678H1134.95V576.207H1137.44V572.871H1138.96ZM1139.23 583.74V584.971H1130.81V581.088H1132.36V583.74H1139.23ZM1130.69 578.777H1133.45V576.85H1130.69V578.777ZM1151.43 574.512V575.742H1141.21V574.512H1145.58V573.021H1147.08V574.512H1151.43ZM1152 582.66V583.891H1140.71V582.66H1145.58V581.143C1143.44 580.972 1142.14 580.117 1142.16 578.75C1142.14 577.26 1143.74 576.371 1146.33 576.371C1148.87 576.371 1150.48 577.26 1150.48 578.75C1150.48 580.11 1149.19 580.965 1147.08 581.129V582.66H1152ZM1146.33 577.561C1144.65 577.574 1143.7 577.971 1143.72 578.75C1143.7 579.543 1144.65 579.939 1146.33 579.953C1147.98 579.939 1148.93 579.543 1148.93 578.75C1148.93 577.971 1147.98 577.574 1146.33 577.561Z" fill="#111827"/>
<rect x="1104" y="597" width="402" height="44" rx="12" fill="#F9FAFB"/>
<path d="M1132.11 612.328V626.359H1130.62V612.328H1132.11ZM1122.78 613.5V617.094H1126.55V613.5H1128.02V623H1121.3V613.5H1122.78ZM1122.78 621.781H1126.55V618.266H1122.78V621.781ZM1141.73 613.078V618.844H1135.08V613.078H1141.73ZM1136.53 614.281V617.688H1140.27V614.281H1136.53ZM1145.94 612.328V619.5H1144.47V612.328H1145.94ZM1145.94 620.172V623.656H1138.23V625H1146.39V626.188H1136.78V622.578H1144.48V621.328H1136.75V620.172H1145.94ZM1159.84 612.344V622.688H1158.36V617.406H1155.3V620.359H1148.84V613.266H1150.33V615.641H1153.83V613.266H1155.3V616.203H1158.36V612.344H1159.84ZM1160.16 624.828V626.031H1150.7V621.672H1152.2V624.828H1160.16ZM1150.33 619.156H1153.83V616.781H1150.33V619.156ZM1174.12 614.297V615.5H1162.61V614.297H1167.64V612.531H1169.11V614.297H1174.12ZM1174.81 623.547V624.75H1162V623.547H1167.64V621.688C1165.19 621.539 1163.7 620.57 1163.7 619.016C1163.7 617.328 1165.48 616.344 1168.38 616.344C1171.23 616.344 1173.03 617.328 1173.03 619.016C1173.03 620.57 1171.54 621.539 1169.11 621.688V623.547H1174.81ZM1168.38 617.516C1166.38 617.516 1165.2 618.047 1165.22 619.016C1165.2 619.984 1166.38 620.516 1168.38 620.531C1170.34 620.516 1171.52 619.984 1171.52 619.016C1171.52 618.047 1170.34 617.516 1168.38 617.516ZM1188.62 618.75V619.891H1175.81V618.75H1188.62ZM1187.05 620.875V623.953H1178.83V625.109H1187.48V626.156H1177.34V622.969H1185.58V621.938H1177.33V620.875H1187.05ZM1187.02 612.688V615.719H1178.92V616.781H1187.25V617.828H1177.45V614.734H1185.53V613.734H1177.42V612.688H1187.02ZM1205.17 612.328V619.844H1203.69V612.328H1205.17ZM1197.47 620.516V622.094H1203.7V620.516H1205.17V626.156H1196.02V620.516H1197.47ZM1197.47 624.938H1203.7V623.266H1197.47V624.938ZM1197.58 612.969C1199.72 612.969 1201.3 614.297 1201.3 616.219C1201.3 618.141 1199.72 619.469 1197.58 619.453C1195.44 619.469 1193.84 618.141 1193.84 616.219C1193.84 614.297 1195.44 612.969 1197.58 612.969ZM1197.58 614.219C1196.25 614.203 1195.3 615.031 1195.3 616.219C1195.3 617.422 1196.25 618.234 1197.58 618.234C1198.89 618.234 1199.84 617.422 1199.84 616.219C1199.84 615.031 1198.89 614.203 1197.58 614.219ZM1214.06 613.172V617.25H1209.44V619.188C1211.88 619.195 1213.2 619.141 1214.78 618.844L1214.92 620.047C1213.22 620.344 1211.78 620.391 1208.98 620.391H1207.97V616.125H1212.58V614.359H1207.95V613.172H1214.06ZM1219.06 612.344V620.953H1217.58V618.484H1214.95V617.297H1217.58V615.562H1214.95V614.375H1217.58V612.344H1219.06ZM1219.06 621.656V626.344H1217.58V622.859H1209.56V621.656H1219.06ZM1228.14 614.641V615.844H1221.19V614.641H1223.94V612.734H1225.41V614.641H1228.14ZM1224.67 616.688C1226.45 616.688 1227.7 618.016 1227.72 619.906C1227.7 621.812 1226.45 623.156 1224.67 623.156C1222.92 623.156 1221.62 621.812 1221.64 619.906C1221.62 618.016 1222.92 616.688 1224.67 616.688ZM1224.67 617.922C1223.66 617.922 1222.95 618.75 1222.95 619.906C1222.95 621.094 1223.66 621.891 1224.67 621.891C1225.67 621.891 1226.41 621.094 1226.41 619.906C1226.41 618.75 1225.67 617.922 1224.67 617.922ZM1233.2 612.328V626.328H1231.8V619.375H1230.19V625.672H1228.78V612.641H1230.19V618.156H1231.8V612.328H1233.2ZM1247.81 620.219V621.422H1242.12V626.312H1240.67V621.422H1235.05V620.219H1247.81ZM1246.61 613.156V614.344H1242.28C1242.3 616.078 1244.46 617.625 1247.11 617.984L1246.56 619.156C1244.27 618.797 1242.28 617.664 1241.44 616.062C1240.57 617.664 1238.59 618.797 1236.33 619.156L1235.77 617.984C1238.38 617.625 1240.54 616.078 1240.59 614.344H1236.23V613.156H1246.61ZM1253.14 616.156C1253.14 618.391 1254.08 620.781 1255.95 621.922L1255.12 623.062C1253.81 622.273 1252.92 620.875 1252.45 619.25C1251.93 621.031 1250.97 622.547 1249.61 623.375L1248.69 622.266C1250.67 621.078 1251.7 618.609 1251.7 616.219V613.609H1253.14V616.156ZM1260.92 612.328V626.328H1259.5V612.328H1260.92ZM1258.02 612.594V625.641H1256.61V618.484H1254.44V617.25H1256.61V612.594H1258.02ZM1275.52 623.344V624.578H1262.7V623.344H1265.77V619.688C1264.62 619.055 1263.92 618.047 1263.92 616.797C1263.92 614.594 1266.08 613.141 1269.08 613.141C1272.09 613.141 1274.25 614.594 1274.25 616.797C1274.25 618.031 1273.58 619.023 1272.45 619.656V623.344H1275.52ZM1269.08 614.328C1266.88 614.328 1265.36 615.281 1265.36 616.797C1265.36 618.297 1266.88 619.281 1269.08 619.281C1271.27 619.281 1272.81 618.297 1272.81 616.797C1272.81 615.281 1271.27 614.328 1269.08 614.328ZM1267.23 623.344H1270.95V620.219C1270.38 620.367 1269.75 620.438 1269.08 620.438C1268.42 620.438 1267.8 620.367 1267.23 620.234V623.344ZM1278.12 625.109C1277.52 625.109 1277 624.609 1277.02 624C1277 623.391 1277.52 622.891 1278.12 622.891C1278.72 622.891 1279.23 623.391 1279.23 624C1279.23 624.609 1278.72 625.109 1278.12 625.109Z" fill="#9CA3AF"/>
<path d="M1481.77 619.973L1480.65 618.85C1480.82 617.96 1480.59 617.201 1479.95 616.573C1479.31 615.945 1478.54 615.704 1477.65 615.85L1476.53 614.727C1476.76 614.619 1477 614.542 1477.24 614.494C1477.49 614.447 1477.74 614.423 1478 614.423C1479.13 614.423 1480.1 614.819 1480.89 615.61C1481.68 616.402 1482.08 617.365 1482.08 618.5C1482.08 618.759 1482.05 619.011 1482.01 619.257C1481.97 619.502 1481.89 619.741 1481.77 619.973ZM1484.95 623.084L1483.85 622.05C1484.48 621.567 1485.05 621.029 1485.55 620.437C1486.05 619.846 1486.47 619.2 1486.8 618.5C1485.97 616.817 1484.76 615.479 1483.19 614.487C1481.61 613.496 1479.88 613 1478 613C1477.52 613 1477.05 613.033 1476.59 613.1C1476.13 613.167 1475.67 613.267 1475.2 613.4L1474.03 612.235C1474.67 611.983 1475.32 611.798 1475.98 611.679C1476.64 611.56 1477.31 611.5 1478 611.5C1480.15 611.5 1482.12 612.058 1483.92 613.175C1485.72 614.292 1487.1 615.802 1488.07 617.708C1488.14 617.835 1488.19 617.962 1488.22 618.091C1488.25 618.22 1488.26 618.356 1488.26 618.5C1488.26 618.643 1488.25 618.78 1488.22 618.909C1488.2 619.037 1488.15 619.165 1488.09 619.292C1487.73 620.045 1487.29 620.74 1486.75 621.377C1486.22 622.014 1485.62 622.583 1484.95 623.084ZM1478 625.5C1475.89 625.5 1473.97 624.937 1472.21 623.812C1470.46 622.687 1469.06 621.206 1468.03 619.367C1467.95 619.24 1467.88 619.102 1467.85 618.954C1467.81 618.805 1467.79 618.654 1467.79 618.5C1467.79 618.346 1467.81 618.197 1467.84 618.054C1467.87 617.91 1467.93 617.77 1468.01 617.633C1468.39 616.953 1468.81 616.306 1469.28 615.691C1469.75 615.076 1470.29 614.526 1470.9 614.038L1468.64 611.765C1468.5 611.617 1468.44 611.44 1468.44 611.235C1468.44 611.031 1468.51 610.856 1468.66 610.711C1468.8 610.567 1468.98 610.494 1469.18 610.494C1469.39 610.494 1469.57 610.567 1469.71 610.711L1486.29 627.288C1486.43 627.427 1486.5 627.598 1486.51 627.803C1486.52 628.007 1486.44 628.187 1486.29 628.342C1486.14 628.487 1485.97 628.559 1485.76 628.559C1485.56 628.559 1485.38 628.487 1485.23 628.342L1481.72 624.854C1481.13 625.082 1480.52 625.247 1479.9 625.348C1479.27 625.449 1478.64 625.5 1478 625.5ZM1471.95 615.092C1471.37 615.545 1470.84 616.057 1470.37 616.628C1469.91 617.199 1469.52 617.823 1469.2 618.5C1470.03 620.183 1471.24 621.521 1472.81 622.512C1474.39 623.504 1476.12 624 1478 624C1478.43 624 1478.85 623.971 1479.27 623.913C1479.68 623.856 1480.1 623.767 1480.51 623.646L1479.24 622.35C1479.04 622.438 1478.84 622.498 1478.64 622.53C1478.43 622.561 1478.22 622.577 1478 622.577C1476.87 622.577 1475.9 622.181 1475.11 621.389C1474.32 620.598 1473.92 619.634 1473.92 618.5C1473.92 618.278 1473.94 618.066 1473.98 617.864C1474.01 617.662 1474.07 617.46 1474.15 617.258L1471.95 615.092Z" fill="#111827"/>
<path d="M1114.69 668.857V681.23H1113.16V668.857H1114.69ZM1106.58 669.869V672.959H1109.58V669.869H1111.08V678.318H1105.07V669.869H1106.58ZM1106.58 677.074H1109.58V674.148H1106.58V677.074ZM1123.1 669.5V674.654H1117.14V669.5H1123.1ZM1118.64 670.717V673.465H1121.6V670.717H1118.64ZM1126.78 668.857V675.146H1125.27V668.857H1126.78ZM1126.78 675.707V678.906H1120.12V679.904H1127.15V681.107H1118.62V677.812H1125.3V676.896H1118.6V675.707H1126.78ZM1138.96 668.871V677.99H1137.44V673.438H1134.95V675.98H1129.17V669.678H1130.69V671.674H1133.45V669.678H1134.95V672.207H1137.44V668.871H1138.96ZM1139.23 679.74V680.971H1130.81V677.088H1132.36V679.74H1139.23ZM1130.69 674.777H1133.45V672.85H1130.69V674.777ZM1151.43 670.512V671.742H1141.21V670.512H1145.58V669.021H1147.08V670.512H1151.43ZM1152 678.66V679.891H1140.71V678.66H1145.58V677.143C1143.44 676.972 1142.14 676.117 1142.16 674.75C1142.14 673.26 1143.74 672.371 1146.33 672.371C1148.87 672.371 1150.48 673.26 1150.48 674.75C1150.48 676.11 1149.19 676.965 1147.08 677.129V678.66H1152ZM1146.33 673.561C1144.65 673.574 1143.7 673.971 1143.72 674.75C1143.7 675.543 1144.65 675.939 1146.33 675.953C1147.98 675.939 1148.93 675.543 1148.93 674.75C1148.93 673.971 1147.98 673.574 1146.33 673.561ZM1165.92 668.871V672.467H1167.59V673.725H1165.92V677.225H1164.4V668.871H1165.92ZM1156.02 675.748C1156.95 675.748 1158.02 675.741 1159.14 675.707V674.955C1157.76 674.784 1156.9 674.121 1156.9 673.15C1156.9 672.016 1158.09 671.305 1159.88 671.318C1161.68 671.305 1162.86 672.016 1162.86 673.15C1162.86 674.114 1162.01 674.771 1160.66 674.941V675.652C1161.71 675.604 1162.77 675.522 1163.76 675.393L1163.88 676.445C1161.24 676.91 1158.36 676.938 1156.19 676.938L1156.02 675.748ZM1165.92 677.758V681.217H1164.4V678.947H1157.58V677.758H1165.92ZM1163.43 669.842V670.963H1156.34V669.842H1159.14V668.762H1160.66V669.842H1163.43ZM1159.88 672.344C1158.92 672.33 1158.35 672.617 1158.36 673.15C1158.35 673.656 1158.92 673.984 1159.88 673.971C1160.83 673.984 1161.41 673.656 1161.41 673.15C1161.41 672.617 1160.83 672.33 1159.88 672.344ZM1178.53 668.871V677.799H1176.99V668.871H1178.53ZM1178.87 679.74V680.971H1170.35V676.896H1171.88V679.74H1178.87ZM1171.79 669.678C1173.66 669.678 1175.11 670.977 1175.11 672.768C1175.11 674.6 1173.66 675.871 1171.79 675.871C1169.9 675.871 1168.45 674.6 1168.45 672.768C1168.45 670.977 1169.9 669.678 1171.79 669.678ZM1171.79 671.004C1170.73 671.004 1169.93 671.701 1169.94 672.768C1169.93 673.861 1170.73 674.545 1171.79 674.545C1172.81 674.545 1173.62 673.861 1173.62 672.768C1173.62 671.701 1172.81 671.004 1171.79 671.004Z" fill="#111827"/>
<rect x="1104" y="693" width="402" height="44" rx="12" fill="#F9FAFB"/>
<path d="M1132.11 708.328V722.359H1130.62V708.328H1132.11ZM1122.78 709.5V713.094H1126.55V709.5H1128.02V719H1121.3V709.5H1122.78ZM1122.78 717.781H1126.55V714.266H1122.78V717.781ZM1141.73 709.078V714.844H1135.08V709.078H1141.73ZM1136.53 710.281V713.688H1140.27V710.281H1136.53ZM1145.94 708.328V715.5H1144.47V708.328H1145.94ZM1145.94 716.172V719.656H1138.23V721H1146.39V722.188H1136.78V718.578H1144.48V717.328H1136.75V716.172H1145.94ZM1159.84 708.344V718.688H1158.36V713.406H1155.3V716.359H1148.84V709.266H1150.33V711.641H1153.83V709.266H1155.3V712.203H1158.36V708.344H1159.84ZM1160.16 720.828V722.031H1150.7V717.672H1152.2V720.828H1160.16ZM1150.33 715.156H1153.83V712.781H1150.33V715.156ZM1174.12 710.297V711.5H1162.61V710.297H1167.64V708.531H1169.11V710.297H1174.12ZM1174.81 719.547V720.75H1162V719.547H1167.64V717.688C1165.19 717.539 1163.7 716.57 1163.7 715.016C1163.7 713.328 1165.48 712.344 1168.38 712.344C1171.23 712.344 1173.03 713.328 1173.03 715.016C1173.03 716.57 1171.54 717.539 1169.11 717.688V719.547H1174.81ZM1168.38 713.516C1166.38 713.516 1165.2 714.047 1165.22 715.016C1165.2 715.984 1166.38 716.516 1168.38 716.531C1170.34 716.516 1171.52 715.984 1171.52 715.016C1171.52 714.047 1170.34 713.516 1168.38 713.516ZM1188.62 714.75V715.891H1175.81V714.75H1188.62ZM1187.05 716.875V719.953H1178.83V721.109H1187.48V722.156H1177.34V718.969H1185.58V717.938H1177.33V716.875H1187.05ZM1187.02 708.688V711.719H1178.92V712.781H1187.25V713.828H1177.45V710.734H1185.53V709.734H1177.42V708.688H1187.02ZM1204.47 708.328V713.75H1206.72V714.969H1204.47V722.359H1202.98V708.328H1204.47ZM1200.7 709.672V710.875H1195.64V717.641C1197.99 717.633 1199.76 717.531 1201.75 717.172L1201.94 718.422C1199.75 718.812 1197.89 718.891 1195.28 718.875H1194.16V709.672H1200.7ZM1212.53 711.891C1212.52 714.453 1214.06 717.016 1216.23 717.984L1215.34 719.156C1213.73 718.391 1212.46 716.82 1211.81 714.906C1211.16 716.953 1209.87 718.648 1208.19 719.469L1207.28 718.219C1209.48 717.234 1211.03 714.562 1211.03 711.891V709.5H1212.53V711.891ZM1218.98 708.328V722.359H1217.5V708.328H1218.98ZM1236.12 708.344V712.844H1238.16V714.078H1236.12V718.812H1234.64V708.344H1236.12ZM1233.48 709.969V711.172H1225.14V709.969H1228.58V708.328H1230.06V709.969H1233.48ZM1229.31 711.844C1231.33 711.844 1232.7 712.891 1232.7 714.484C1232.7 716.078 1231.33 717.109 1229.31 717.109C1227.28 717.109 1225.91 716.078 1225.91 714.484C1225.91 712.891 1227.28 711.844 1229.31 711.844ZM1229.31 712.984C1228.12 712.984 1227.33 713.562 1227.34 714.484C1227.33 715.391 1228.12 715.953 1229.31 715.953C1230.5 715.953 1231.3 715.391 1231.31 714.484C1231.3 713.562 1230.5 712.984 1229.31 712.984ZM1236.72 720.828V722.031H1227.25V717.984H1228.73V720.828H1236.72ZM1254.53 708.344V718.688H1253.05V713.406H1249.98V716.359H1243.53V709.266H1245.02V711.641H1248.52V709.266H1249.98V712.203H1253.05V708.344H1254.53ZM1254.84 720.828V722.031H1245.39V717.672H1246.89V720.828H1254.84ZM1245.02 715.156H1248.52V712.781H1245.02V715.156ZM1272.2 708.328V715.844H1270.72V708.328H1272.2ZM1264.5 716.516V718.094H1270.73V716.516H1272.2V722.156H1263.05V716.516H1264.5ZM1264.5 720.938H1270.73V719.266H1264.5V720.938ZM1264.61 708.969C1266.75 708.969 1268.33 710.297 1268.33 712.219C1268.33 714.141 1266.75 715.469 1264.61 715.453C1262.47 715.469 1260.88 714.141 1260.88 712.219C1260.88 710.297 1262.47 708.969 1264.61 708.969ZM1264.61 710.219C1263.28 710.203 1262.33 711.031 1262.33 712.219C1262.33 713.422 1263.28 714.234 1264.61 714.234C1265.92 714.234 1266.88 713.422 1266.88 712.219C1266.88 711.031 1265.92 710.203 1264.61 710.219ZM1281.09 709.172V713.25H1276.47V715.188C1278.91 715.195 1280.23 715.141 1281.81 714.844L1281.95 716.047C1280.25 716.344 1278.81 716.391 1276.02 716.391H1275V712.125H1279.61V710.359H1274.98V709.172H1281.09ZM1286.09 708.344V716.953H1284.61V714.484H1281.98V713.297H1284.61V711.562H1281.98V710.375H1284.61V708.344H1286.09ZM1286.09 717.656V722.344H1284.61V718.859H1276.59V717.656H1286.09ZM1295.17 710.641V711.844H1288.22V710.641H1290.97V708.734H1292.44V710.641H1295.17ZM1291.7 712.688C1293.48 712.688 1294.73 714.016 1294.75 715.906C1294.73 717.812 1293.48 719.156 1291.7 719.156C1289.95 719.156 1288.66 717.812 1288.67 715.906C1288.66 714.016 1289.95 712.688 1291.7 712.688ZM1291.7 713.922C1290.69 713.922 1289.98 714.75 1289.98 715.906C1289.98 717.094 1290.69 717.891 1291.7 717.891C1292.7 717.891 1293.44 717.094 1293.44 715.906C1293.44 714.75 1292.7 713.922 1291.7 713.922ZM1300.23 708.328V722.328H1298.83V715.375H1297.22V721.672H1295.81V708.641H1297.22V714.156H1298.83V708.328H1300.23ZM1314.84 716.219V717.422H1309.16V722.312H1307.7V717.422H1302.08V716.219H1314.84ZM1313.64 709.156V710.344H1309.31C1309.34 712.078 1311.49 713.625 1314.14 713.984L1313.59 715.156C1311.3 714.797 1309.31 713.664 1308.47 712.062C1307.6 713.664 1305.62 714.797 1303.36 715.156L1302.8 713.984C1305.41 713.625 1307.57 712.078 1307.62 710.344H1303.27V709.156H1313.64ZM1320.17 712.156C1320.17 714.391 1321.11 716.781 1322.98 717.922L1322.16 719.062C1320.84 718.273 1319.95 716.875 1319.48 715.25C1318.96 717.031 1318 718.547 1316.64 719.375L1315.72 718.266C1317.7 717.078 1318.73 714.609 1318.73 712.219V709.609H1320.17V712.156ZM1327.95 708.328V722.328H1326.53V708.328H1327.95ZM1325.05 708.594V721.641H1323.64V714.484H1321.47V713.25H1323.64V708.594H1325.05ZM1342.55 719.344V720.578H1329.73V719.344H1332.8V715.688C1331.65 715.055 1330.95 714.047 1330.95 712.797C1330.95 710.594 1333.11 709.141 1336.11 709.141C1339.12 709.141 1341.28 710.594 1341.28 712.797C1341.28 714.031 1340.61 715.023 1339.48 715.656V719.344H1342.55ZM1336.11 710.328C1333.91 710.328 1332.39 711.281 1332.39 712.797C1332.39 714.297 1333.91 715.281 1336.11 715.281C1338.3 715.281 1339.84 714.297 1339.84 712.797C1339.84 711.281 1338.3 710.328 1336.11 710.328ZM1334.27 719.344H1337.98V716.219C1337.41 716.367 1336.78 716.438 1336.11 716.438C1335.45 716.438 1334.83 716.367 1334.27 716.234V719.344ZM1345.16 721.109C1344.55 721.109 1344.03 720.609 1344.05 720C1344.03 719.391 1344.55 718.891 1345.16 718.891C1345.75 718.891 1346.27 719.391 1346.27 720C1346.27 720.609 1345.75 721.109 1345.16 721.109Z" fill="#9CA3AF"/>
<path d="M1481.77 715.973L1480.65 714.85C1480.82 713.96 1480.59 713.201 1479.95 712.573C1479.31 711.945 1478.54 711.704 1477.65 711.85L1476.53 710.727C1476.76 710.619 1477 710.542 1477.24 710.494C1477.49 710.447 1477.74 710.423 1478 710.423C1479.13 710.423 1480.1 710.819 1480.89 711.61C1481.68 712.402 1482.08 713.365 1482.08 714.5C1482.08 714.759 1482.05 715.011 1482.01 715.257C1481.97 715.502 1481.89 715.741 1481.77 715.973ZM1484.95 719.084L1483.85 718.05C1484.48 717.567 1485.05 717.029 1485.55 716.437C1486.05 715.846 1486.47 715.2 1486.8 714.5C1485.97 712.817 1484.76 711.479 1483.19 710.487C1481.61 709.496 1479.88 709 1478 709C1477.52 709 1477.05 709.033 1476.59 709.1C1476.13 709.167 1475.67 709.267 1475.2 709.4L1474.03 708.235C1474.67 707.983 1475.32 707.798 1475.98 707.679C1476.64 707.56 1477.31 707.5 1478 707.5C1480.15 707.5 1482.12 708.058 1483.92 709.175C1485.72 710.292 1487.1 711.802 1488.07 713.708C1488.14 713.835 1488.19 713.962 1488.22 714.091C1488.25 714.22 1488.26 714.356 1488.26 714.5C1488.26 714.643 1488.25 714.78 1488.22 714.909C1488.2 715.037 1488.15 715.165 1488.09 715.292C1487.73 716.045 1487.29 716.74 1486.75 717.377C1486.22 718.014 1485.62 718.583 1484.95 719.084ZM1478 721.5C1475.89 721.5 1473.97 720.937 1472.21 719.812C1470.46 718.687 1469.06 717.206 1468.03 715.367C1467.95 715.24 1467.88 715.102 1467.85 714.954C1467.81 714.805 1467.79 714.654 1467.79 714.5C1467.79 714.346 1467.81 714.197 1467.84 714.054C1467.87 713.91 1467.93 713.77 1468.01 713.633C1468.39 712.953 1468.81 712.306 1469.28 711.691C1469.75 711.076 1470.29 710.526 1470.9 710.038L1468.64 707.765C1468.5 707.617 1468.44 707.44 1468.44 707.235C1468.44 707.031 1468.51 706.856 1468.66 706.711C1468.8 706.567 1468.98 706.494 1469.18 706.494C1469.39 706.494 1469.57 706.567 1469.71 706.711L1486.29 723.288C1486.43 723.427 1486.5 723.598 1486.51 723.803C1486.52 724.007 1486.44 724.187 1486.29 724.342C1486.14 724.487 1485.97 724.559 1485.76 724.559C1485.56 724.559 1485.38 724.487 1485.23 724.342L1481.72 720.854C1481.13 721.082 1480.52 721.247 1479.9 721.348C1479.27 721.449 1478.64 721.5 1478 721.5ZM1471.95 711.092C1471.37 711.545 1470.84 712.057 1470.37 712.628C1469.91 713.199 1469.52 713.823 1469.2 714.5C1470.03 716.183 1471.24 717.521 1472.81 718.512C1474.39 719.504 1476.12 720 1478 720C1478.43 720 1478.85 719.971 1479.27 719.913C1479.68 719.856 1480.1 719.767 1480.51 719.646L1479.24 718.35C1479.04 718.438 1478.84 718.498 1478.64 718.53C1478.43 718.561 1478.22 718.577 1478 718.577C1476.87 718.577 1475.9 718.181 1475.11 717.389C1474.32 716.598 1473.92 715.634 1473.92 714.5C1473.92 714.278 1473.94 714.066 1473.98 713.864C1474.01 713.662 1474.07 713.46 1474.15 713.258L1471.95 711.092Z" fill="#111827"/>
<rect x="1104" y="777" width="402" height="44" rx="12" fill="#9CA3AF"/>
<path d="M1302.83 792.281V796.391H1304.73V797.828H1302.83V801.828H1301.09V792.281H1302.83ZM1291.52 800.141C1292.58 800.141 1293.8 800.133 1295.08 800.094V799.234C1293.51 799.039 1292.52 798.281 1292.52 797.172C1292.52 795.875 1293.88 795.062 1295.92 795.078C1297.98 795.062 1299.33 795.875 1299.33 797.172C1299.33 798.273 1298.36 799.023 1296.81 799.219V800.031C1298.02 799.977 1299.23 799.883 1300.36 799.734L1300.5 800.938C1297.48 801.469 1294.19 801.5 1291.7 801.5L1291.52 800.141ZM1302.83 802.438V806.391H1301.09V803.797H1293.3V802.438H1302.83ZM1299.98 793.391V794.672H1291.88V793.391H1295.08V792.156H1296.81V793.391H1299.98ZM1295.92 796.25C1294.83 796.234 1294.17 796.562 1294.19 797.172C1294.17 797.75 1294.83 798.125 1295.92 798.109C1297.02 798.125 1297.67 797.75 1297.67 797.172C1297.67 796.562 1297.02 796.234 1295.92 796.25ZM1317.23 792.281V802.484H1315.48V792.281H1317.23ZM1317.62 804.703V806.109H1307.89V801.453H1309.64V804.703H1317.62ZM1309.53 793.203C1311.67 793.203 1313.33 794.688 1313.33 796.734C1313.33 798.828 1311.67 800.281 1309.53 800.281C1307.38 800.281 1305.72 798.828 1305.72 796.734C1305.72 794.688 1307.38 793.203 1309.53 793.203ZM1309.53 794.719C1308.33 794.719 1307.41 795.516 1307.42 796.734C1307.41 797.984 1308.33 798.766 1309.53 798.766C1310.7 798.766 1311.62 797.984 1311.62 796.734C1311.62 795.516 1310.7 794.719 1309.53 794.719Z" fill="white"/>
<path d="M1237.35 847.12V860.274H1235.96V847.12H1237.35ZM1230.34 848.102C1232.28 848.102 1233.72 849.889 1233.72 852.701C1233.72 855.528 1232.28 857.315 1230.34 857.315C1228.36 857.315 1226.94 855.528 1226.94 852.701C1226.94 849.889 1228.36 848.102 1230.34 848.102ZM1230.34 849.347C1229.12 849.347 1228.29 850.636 1228.29 852.701C1228.29 854.781 1229.12 856.07 1230.34 856.07C1231.54 856.07 1232.37 854.781 1232.37 852.701C1232.37 850.636 1231.54 849.347 1230.34 849.347ZM1246.33 848.38V857.008H1240.18V848.38H1246.33ZM1241.56 849.479V855.88H1244.98V849.479H1241.56ZM1250.32 847.12V860.274H1248.92V847.12H1250.32ZM1266.93 847.12V860.245H1265.54V847.12H1266.93ZM1256.15 856.671C1257.22 856.664 1258.46 856.656 1259.75 856.612V855.309C1258.21 855.111 1257.22 854.21 1257.23 852.921C1257.22 851.441 1258.5 850.46 1260.41 850.46C1262.33 850.46 1263.65 851.441 1263.65 852.921C1263.65 854.195 1262.65 855.089 1261.13 855.294V856.568C1262.34 856.517 1263.57 856.422 1264.73 856.275L1264.83 857.315C1261.92 857.799 1258.74 857.828 1256.34 857.828L1256.15 856.671ZM1264.44 848.688V849.801H1256.42V848.688H1259.75V847.149H1261.14V848.688H1264.44ZM1260.41 851.544C1259.31 851.544 1258.53 852.086 1258.55 852.921C1258.53 853.756 1259.31 854.269 1260.41 854.269C1261.54 854.269 1262.31 853.756 1262.31 852.921C1262.31 852.086 1261.54 851.544 1260.41 851.544ZM1279.95 847.135V857.081H1278.56V855.821H1275.92V854.84H1278.56V847.135H1279.95ZM1280.27 858.839V859.967H1270.79V856.114H1272.17V858.839H1280.27ZM1268.98 853.126C1271.41 853.111 1274.68 853.082 1277.47 852.73L1277.56 853.727C1276.44 853.91 1275.26 854.034 1274.11 854.107V856.671H1272.71V854.181C1271.44 854.239 1270.22 854.247 1269.15 854.239L1268.98 853.126ZM1273.27 847.633C1275.19 847.633 1276.52 848.556 1276.52 849.947C1276.52 851.339 1275.19 852.232 1273.27 852.232C1271.32 852.232 1270 851.339 1270 849.947C1270 848.556 1271.32 847.633 1273.27 847.633ZM1273.27 848.673C1272.1 848.658 1271.31 849.156 1271.32 849.947C1271.31 850.724 1272.1 851.207 1273.27 851.207C1274.4 851.207 1275.19 850.724 1275.2 849.947C1275.19 849.156 1274.4 848.658 1273.27 848.673ZM1292.87 847.12V860.274H1291.48V847.12H1292.87ZM1285.85 848.102C1287.8 848.102 1289.24 849.889 1289.24 852.701C1289.24 855.528 1287.8 857.315 1285.85 857.315C1283.88 857.315 1282.46 855.528 1282.46 852.701C1282.46 849.889 1283.88 848.102 1285.85 848.102ZM1285.85 849.347C1284.64 849.347 1283.8 850.636 1283.8 852.701C1283.8 854.781 1284.64 856.07 1285.85 856.07C1287.05 856.07 1287.89 854.781 1287.89 852.701C1287.89 850.636 1287.05 849.347 1285.85 849.347ZM1305.85 847.135V856.744H1304.46V847.135H1305.85ZM1306.24 858.839V859.967H1297.26V855.836H1298.67V858.839H1306.24ZM1299.74 849.156C1299.73 851.075 1300.96 852.833 1302.98 853.536L1302.26 854.649C1300.74 854.085 1299.62 852.972 1299.04 851.544C1298.46 853.067 1297.32 854.291 1295.79 854.884L1295.04 853.785C1297.1 853.023 1298.32 851.134 1298.32 849.156V847.853H1299.74V849.156ZM1318.15 847.12V852.35H1320.19V853.507H1318.15V860.23H1316.76V847.12H1318.15ZM1314.73 848.497C1314.71 852.291 1313.04 855.675 1308.72 857.813L1307.94 856.729C1311.23 855.089 1313.02 852.716 1313.3 849.654H1308.6V848.497H1314.73ZM1332.9 857.447V858.604H1320.89V857.447H1323.76V854.02C1322.69 853.426 1322.04 852.481 1322.04 851.31C1322.04 849.244 1324.06 847.882 1326.87 847.882C1329.7 847.882 1331.72 849.244 1331.72 851.31C1331.72 852.467 1331.09 853.397 1330.03 853.99V857.447H1332.9ZM1326.87 848.995C1324.8 848.995 1323.38 849.889 1323.38 851.31C1323.38 852.716 1324.8 853.639 1326.87 853.639C1328.92 853.639 1330.37 852.716 1330.37 851.31C1330.37 849.889 1328.92 848.995 1326.87 848.995ZM1325.14 857.447H1328.63V854.518C1328.09 854.657 1327.5 854.723 1326.87 854.723C1326.25 854.723 1325.67 854.657 1325.14 854.532V857.447ZM1336.01 855.851C1336.02 853.932 1336.6 853.346 1337.56 852.745C1338.18 852.364 1338.65 851.837 1338.65 851.061C1338.65 850.138 1337.94 849.566 1337.06 849.566C1336.27 849.566 1335.51 850.05 1335.44 851.134H1333.86C1333.92 849.273 1335.32 848.248 1337.06 848.248C1338.97 848.248 1340.24 849.391 1340.24 851.061C1340.24 852.232 1339.69 853.023 1338.75 853.595C1337.87 854.122 1337.53 854.664 1337.5 855.851V855.938H1336.01V855.851ZM1336.82 859.103C1336.24 859.103 1335.76 858.634 1335.78 858.062C1335.76 857.491 1336.24 857.022 1336.82 857.022C1337.37 857.022 1337.86 857.491 1337.86 858.062C1337.86 858.634 1337.37 859.103 1336.82 859.103Z" fill="#1F2937"/>
<path d="M1357.5 858.678H1345.48V857.506H1350.77V855.206H1346.95V851.031H1354.65V849.186H1346.92V848.043H1356.03V852.145H1348.33V854.063H1356.34V855.206H1352.15V857.506H1357.5V858.678ZM1368.85 849.859C1368.85 850.626 1368.84 851.29 1368.82 851.852C1368.8 852.413 1368.76 853.062 1368.69 853.8C1368.63 854.532 1368.52 855.333 1368.36 856.202L1366.94 856.07C1367.1 855.26 1367.22 854.493 1367.3 853.771C1367.38 853.048 1367.43 852.406 1367.44 851.844C1367.46 851.278 1367.47 850.616 1367.47 849.859V849.596H1359.74V848.453H1368.85V849.859ZM1370.42 858.385H1358.45V857.228H1370.42V858.385ZM1382.29 856.671H1380.9V847.135H1382.29V856.671ZM1382.69 859.967H1373.71V855.704H1375.12V858.839H1382.69V859.967ZM1375.18 848.014C1375.83 848.014 1376.42 848.153 1376.95 848.431C1377.48 848.709 1377.9 849.095 1378.2 849.588C1378.51 850.082 1378.66 850.641 1378.66 851.266C1378.66 851.9 1378.51 852.467 1378.2 852.965C1377.9 853.458 1377.48 853.844 1376.95 854.122C1376.42 854.396 1375.83 854.532 1375.18 854.532C1374.52 854.532 1373.93 854.396 1373.4 854.122C1372.86 853.844 1372.44 853.456 1372.14 852.958C1371.83 852.459 1371.67 851.896 1371.67 851.266C1371.67 850.641 1371.83 850.082 1372.14 849.588C1372.44 849.095 1372.86 848.709 1373.4 848.431C1373.93 848.153 1374.52 848.014 1375.18 848.014ZM1375.18 849.229C1374.77 849.229 1374.4 849.317 1374.08 849.493C1373.75 849.664 1373.5 849.903 1373.32 850.211C1373.13 850.519 1373.04 850.87 1373.04 851.266C1373.04 851.671 1373.13 852.03 1373.31 852.342C1373.49 852.65 1373.75 852.889 1374.07 853.06C1374.4 853.231 1374.77 853.316 1375.18 853.316C1375.58 853.316 1375.94 853.231 1376.26 853.06C1376.58 852.889 1376.84 852.647 1377.02 852.335C1377.21 852.022 1377.3 851.666 1377.3 851.266C1377.3 850.875 1377.21 850.526 1377.02 850.218C1376.84 849.906 1376.58 849.664 1376.25 849.493C1375.93 849.317 1375.57 849.229 1375.18 849.229Z" fill="#34B17B"/>
<path d="M1345 861.351H1383.89V862.486H1345V861.351Z" fill="#34B17B"/>
</svg>
