<svg width="375" height="839" viewBox="0 0 375 839" fill="none" xmlns="http://www.w3.org/2000/svg">
<g clip-path="url(#clip0_523_13566)">
<rect width="375" height="839" rx="20" fill="white"/>
<path d="M31.0469 42.0312V43.6309H16.5273V42.0312H22.7852V38.5684H18.127V30.9043H29.377V38.5684H24.7188V42.0312H31.0469ZM20.043 32.4688V37.0391H27.4434V32.4688H20.043ZM45.3203 29.6914V38.6914H43.3516V29.6914H45.3203ZM45.3203 39.4648V45.3711H34.7734V39.4648H45.3203ZM36.707 41.0117V43.7891H43.4043V41.0117H36.707ZM36.6543 30.4473C39.0977 30.4473 40.9258 31.9941 40.9258 34.2441C40.9258 36.4238 39.0977 38.0059 36.6543 38.0059C34.1934 38.0059 32.3652 36.4238 32.3652 34.2441C32.3652 31.9941 34.1934 30.4473 36.6543 30.4473ZM36.6543 32.0996C35.2656 32.0996 34.2637 32.9258 34.2812 34.2441C34.2637 35.5273 35.2656 36.3535 36.6543 36.3535C38.0254 36.3535 39.0098 35.5273 39.0098 34.2441C39.0098 32.9258 38.0254 32.0996 36.6543 32.0996ZM59.9805 31.0449V38.5508H52.457V31.0449H59.9805ZM54.373 32.6094V37.0039H58.0645V32.6094H54.373ZM64.4453 29.6738V34.332H66.6602V35.9668H64.4453V41.2754H62.4941V29.6738H64.4453ZM65.0781 43.666V45.248H54.2676V40.1504H56.2188V43.666H65.0781ZM81.9707 36.0371V37.584H67.4688V36.0371H81.9707ZM80.248 33.4707V35.0176H69.3145V30.0781H80.1074V31.6426H71.2656V33.4707H80.248ZM80.1426 38.6738V42.6641H71.1074V43.877H80.582V45.4062H69.1914V41.2578H78.2266V40.1504H69.1738V38.6738H80.1426ZM96.2969 29.6738V45.5645H94.3281V29.6738H96.2969ZM91.5508 31.3613C91.5508 36.0898 89.7227 40.1152 84.1504 42.752L83.1309 41.1875C87.2881 39.21 89.2217 36.5205 89.5645 32.9082H83.9395V31.3613H91.5508Z" fill="#111827"/>
<path d="M340.5 31L353.5 44" stroke="#64748B" stroke-width="1.8" stroke-linecap="round"/>
<path d="M353.5 31L340.5 44" stroke="#64748B" stroke-width="1.8" stroke-linecap="round"/>
<path d="M29.375 92.25V93.6719H16.4688V92.25H22.0312V89.1719H17.8906V82.3594H27.8906V89.1719H23.75V92.25H29.375ZM19.5938 83.75V87.8125H26.1719V83.75H19.5938ZM42.0625 81.2812V89.2812H40.3125V81.2812H42.0625ZM42.0625 89.9688V95.2188H32.6875V89.9688H42.0625ZM34.4062 91.3438V93.8125H40.3594V91.3438H34.4062ZM34.3594 81.9531C36.5312 81.9531 38.1562 83.3281 38.1562 85.3281C38.1562 87.2656 36.5312 88.6719 34.3594 88.6719C32.1719 88.6719 30.5469 87.2656 30.5469 85.3281C30.5469 83.3281 32.1719 81.9531 34.3594 81.9531ZM34.3594 83.4219C33.125 83.4219 32.2344 84.1562 32.25 85.3281C32.2344 86.4688 33.125 87.2031 34.3594 87.2031C35.5781 87.2031 36.4531 86.4688 36.4531 85.3281C36.4531 84.1562 35.5781 83.4219 34.3594 83.4219ZM59.6719 81.2656V95.4062H57.9219V81.2656H59.6719ZM52.0625 82.2969C54.1875 82.2969 55.7344 84.2344 55.75 87.2812C55.7344 90.3594 54.1875 92.2812 52.0625 92.2812C49.9219 92.2812 48.375 90.3594 48.375 87.2812C48.375 84.2344 49.9219 82.2969 52.0625 82.2969ZM52.0625 83.8594C50.8594 83.8594 50.0469 85.125 50.0469 87.2812C50.0469 89.4531 50.8594 90.7188 52.0625 90.7188C53.25 90.7188 54.0625 89.4531 54.0625 87.2812C54.0625 85.125 53.25 83.8594 52.0625 83.8594ZM74.6406 88.4531V89.8281H61.7344V88.4531H74.6406ZM73.0469 81.5625V85.1875H65.0938V86.2031H73.3281V87.5312H63.375V83.9219H71.3125V82.9219H63.3281V81.5625H73.0469ZM73.0938 90.8438V95.2188H63.4219V90.8438H73.0938ZM65.125 92.2188V93.8125H71.375V92.2188H65.125Z" fill="#1F2937"/>
<rect x="16" y="112" width="343" height="40" rx="12" fill="#F9FAFB"/>
<path d="M43.6621 135.551V136.631H32.4512V135.551H37.3867V132.721H33.7363V126.896H42.3223V132.721H38.6719V135.551H43.6621ZM34.9941 127.936V131.695H41.0508V127.936H34.9941ZM54.709 125.926V132.898H53.4102V125.926H54.709ZM54.709 133.514V138.012H46.6562V133.514H54.709ZM47.9414 134.553V136.959H53.4375V134.553H47.9414ZM48.0645 126.541C49.9375 126.541 51.3184 127.717 51.3184 129.439C51.3184 131.121 49.9375 132.311 48.0645 132.311C46.1914 132.311 44.7969 131.121 44.7969 129.439C44.7969 127.717 46.1914 126.541 48.0645 126.541ZM48.0645 127.635C46.9023 127.635 46.0684 128.346 46.0684 129.439C46.0684 130.492 46.9023 131.217 48.0645 131.217C49.2129 131.217 50.0469 130.492 50.0469 129.439C50.0469 128.346 49.2129 127.635 48.0645 127.635ZM70.2129 125.912V138.189H68.9141V125.912H70.2129ZM63.6641 126.828C65.4824 126.828 66.8223 128.496 66.8223 131.121C66.8223 133.76 65.4824 135.428 63.6641 135.428C61.8184 135.428 60.4922 133.76 60.4922 131.121C60.4922 128.496 61.8184 126.828 63.6641 126.828ZM63.6641 127.99C62.5293 127.99 61.75 129.193 61.75 131.121C61.75 133.062 62.5293 134.266 63.6641 134.266C64.7852 134.266 65.5645 133.062 65.5645 131.121C65.5645 129.193 64.7852 127.99 63.6641 127.99ZM83.3652 132.188V133.227H72.1543V132.188H83.3652ZM81.957 126.186V129.207H74.875V130.26H82.2031V131.258H73.5898V128.25H80.6582V127.211H73.5625V126.186H81.957ZM81.9707 134.225V138.012H73.6445V134.225H81.9707ZM74.9297 135.264V136.959H80.6855V135.264H74.9297ZM89.8457 126.117C92.6074 126.117 94.2207 126.855 94.2207 128.223C94.2207 129.59 92.6074 130.342 89.8457 130.342C87.084 130.342 85.4707 129.59 85.4707 128.223C85.4707 126.855 87.084 126.117 89.8457 126.117ZM89.8457 127.074C87.8906 127.074 86.8105 127.498 86.8242 128.223C86.8105 128.975 87.8906 129.371 89.8457 129.371C91.8008 129.371 92.8809 128.975 92.8809 128.223C92.8809 127.498 91.8008 127.074 89.8457 127.074ZM95.4375 131.094V132.133H84.2676V131.094H95.4375ZM94.0293 133.076V135.947H86.8926V137.041H94.3711V138.039H85.6211V135.004H92.7441V134.047H85.6074V133.076H94.0293ZM104.064 128.113C104.064 129.672 105.145 131.162 107.018 131.791L106.361 132.803C104.974 132.324 103.955 131.367 103.422 130.164C102.889 131.49 101.829 132.529 100.387 133.035L99.6895 132.023C101.604 131.367 102.752 129.795 102.766 128.1V127.771H100.072V126.719H106.703V127.771H104.064V128.113ZM109.41 125.912V129.057H111.188V130.15H109.41V133.295H108.111V125.912H109.41ZM109.41 133.896V138.162H108.111V134.949H101.316V133.896H109.41ZM116.232 127.744C116.232 129.467 117.34 130.998 119.199 131.6L118.488 132.611C117.142 132.126 116.15 131.183 115.617 129.959C115.084 131.36 114.018 132.447 112.541 132.98L111.844 131.941C113.799 131.271 114.934 129.645 114.947 127.799V126.596H116.232V127.744ZM122.098 125.912V133.145H120.799V129.467H118.215V128.4H120.799V125.912H122.098ZM117.996 133.486C120.566 133.486 122.139 134.334 122.139 135.824C122.139 137.301 120.566 138.148 117.996 138.135C115.426 138.148 113.84 137.301 113.854 135.824C113.84 134.334 115.426 133.486 117.996 133.486ZM117.996 134.498C116.205 134.498 115.139 134.977 115.139 135.824C115.139 136.645 116.205 137.109 117.996 137.109C119.787 137.109 120.854 136.645 120.854 135.824C120.854 134.977 119.787 134.498 117.996 134.498ZM130.041 127.936V128.988H123.957V127.936H126.363V126.268H127.648V127.936H130.041ZM127.006 129.727C128.564 129.727 129.658 130.889 129.672 132.543C129.658 134.211 128.564 135.387 127.006 135.387C125.475 135.387 124.34 134.211 124.354 132.543C124.34 130.889 125.475 129.727 127.006 129.727ZM127.006 130.807C126.117 130.807 125.502 131.531 125.502 132.543C125.502 133.582 126.117 134.279 127.006 134.279C127.881 134.279 128.523 133.582 128.523 132.543C128.523 131.531 127.881 130.807 127.006 130.807ZM134.471 125.912V138.162H133.24V132.078H131.832V137.588H130.602V126.186H131.832V131.012H133.24V125.912H134.471ZM147.254 132.816V133.869H142.277V138.148H141.006V133.869H136.084V132.816H147.254ZM146.201 126.637V127.676H142.414C142.435 129.193 144.321 130.547 146.639 130.861L146.16 131.887C144.15 131.572 142.414 130.581 141.676 129.18C140.917 130.581 139.188 131.572 137.205 131.887L136.713 130.861C139.003 130.547 140.89 129.193 140.938 127.676H137.123V126.637H146.201ZM151.916 129.262C151.916 131.217 152.736 133.309 154.377 134.307L153.652 135.305C152.504 134.614 151.725 133.391 151.314 131.969C150.856 133.527 150.016 134.854 148.826 135.578L148.02 134.607C149.756 133.568 150.658 131.408 150.658 129.316V127.033H151.916V129.262ZM158.725 125.912V138.162H157.48V125.912H158.725ZM156.182 126.145V137.561H154.951V131.299H153.051V130.219H154.951V126.145H156.182ZM171.494 135.551V136.631H160.283V135.551H162.963V132.352C161.958 131.798 161.35 130.916 161.35 129.822C161.35 127.895 163.236 126.623 165.861 126.623C168.5 126.623 170.387 127.895 170.387 129.822C170.387 130.902 169.799 131.771 168.814 132.324V135.551H171.494ZM165.861 127.662C163.934 127.662 162.607 128.496 162.607 129.822C162.607 131.135 163.934 131.996 165.861 131.996C167.775 131.996 169.129 131.135 169.129 129.822C169.129 128.496 167.775 127.662 165.861 127.662ZM164.248 135.551H167.502V132.816C167.003 132.946 166.449 133.008 165.861 133.008C165.287 133.008 164.74 132.946 164.248 132.83V135.551Z" fill="#9CA3AF"/>
<path d="M21.5312 183.812C21.5312 185.547 22.6562 187.172 24.8594 187.844L24.0312 189.203C22.4453 188.711 21.3203 187.703 20.7031 186.422C20.0781 187.906 18.8828 189.086 17.1875 189.656L16.3125 188.281C18.5938 187.531 19.7812 185.703 19.7812 183.828V183.656H16.7969V182.25H24.4688V183.656H21.5312V183.812ZM27.6094 181.266V184.656H29.5781V186.078H27.6094V189.688H25.875V181.266H27.6094ZM23.0156 190C25.9375 190 27.7344 190.984 27.75 192.672C27.7344 194.375 25.9375 195.375 23.0156 195.375C20.0625 195.375 18.2344 194.375 18.2344 192.672C18.2344 190.984 20.0625 190 23.0156 190ZM23.0156 191.359C21.0781 191.359 19.9688 191.812 19.9688 192.672C19.9688 193.547 21.0781 194.016 23.0156 194.016C24.9531 194.016 26.0312 193.547 26.0312 192.672C26.0312 191.812 24.9531 191.359 23.0156 191.359ZM43.2031 192.234V193.641H30.2969V192.234H35.8281V188.969H37.5469V192.234H43.2031ZM37.5938 183.156C37.5938 185.297 39.7344 187.406 42.7031 187.875L41.9531 189.312C39.5625 188.859 37.6094 187.492 36.6719 185.641C35.7344 187.484 33.7969 188.875 31.4219 189.312L30.6719 187.875C33.625 187.406 35.7344 185.281 35.75 183.156V182.125H37.5938V183.156Z" fill="#1F2937"/>
<rect x="16.5" y="212.5" width="342" height="39" rx="11.5" fill="#F9FAFB"/>
<rect x="16.5" y="212.5" width="342" height="39" rx="11.5" stroke="#F9FAFB"/>
<path d="M36.7305 228.168C36.7305 229.727 37.8105 231.148 39.6699 231.736L39.0547 232.748C37.6602 232.304 36.6416 231.381 36.1016 230.219C35.5684 231.559 34.4951 232.618 33.0254 233.131L32.3555 232.092C34.2695 231.463 35.418 229.877 35.4316 228.182V227.84H32.7383V226.787H39.3691V227.84H36.7305V228.168ZM42.0762 225.912V228.947H43.8535V230.014H42.0762V233.268H40.7773V225.912H42.0762ZM38.125 233.568C40.6543 233.568 42.1855 234.402 42.1855 235.838C42.1855 237.287 40.6543 238.148 38.125 238.135C35.5684 238.148 34.0098 237.287 34.0098 235.838C34.0098 234.402 35.5684 233.568 38.125 233.568ZM38.125 234.594C36.3477 234.594 35.2949 235.045 35.3086 235.838C35.2949 236.658 36.3477 237.109 38.125 237.109C39.8887 237.109 40.9141 236.658 40.9141 235.838C40.9141 235.045 39.8887 234.594 38.125 234.594ZM55.7617 235.537V236.604H44.5508V235.537H49.459V232.625H50.7441V235.537H55.7617ZM50.7715 227.621C50.7715 229.562 52.9043 231.381 55.2695 231.777L54.709 232.844C52.7266 232.447 50.9014 231.224 50.0879 229.535C49.2812 231.217 47.4766 232.461 45.5078 232.844L44.9336 231.777C47.2852 231.381 49.4043 229.562 49.4043 227.621V226.691H50.7715V227.621ZM67.8477 231.531V232.529H56.6367V231.531H67.8477ZM66.4668 233.391V236.084H59.2754V237.096H66.8496V238.012H57.9766V235.223H65.1816V234.32H57.9629V233.391H66.4668ZM66.4395 226.227V228.879H59.3574V229.809H66.6445V230.725H58.0723V228.018H65.1406V227.143H58.0449V226.227H66.4395ZM76.4883 228.154C76.4883 229.809 77.5957 231.422 79.4414 232.064L78.7305 233.076C77.3906 232.563 76.3926 231.552 75.873 230.273C75.3398 231.695 74.2939 232.816 72.8516 233.363L72.1543 232.338C74.0547 231.654 75.1895 229.959 75.2031 228.113V226.664H76.4883V228.154ZM82.3809 225.926V235.059H81.082V229.781H78.498V228.715H81.082V225.926H82.3809ZM82.6543 236.85V237.902H74.3828V234.033H75.6953V236.85H82.6543ZM89.5586 226.787V227.84H86.0176V229.207H89.4219V230.205H86.0176V231.695C87.6582 231.682 88.7383 231.62 89.9961 231.381L90.1191 232.447C88.6836 232.721 87.5215 232.775 85.5664 232.762H84.7734V226.787H89.5586ZM94.7129 225.926V233.363H93.4824V230.096H91.9785V233.268H90.7617V226.145H91.9785V229.043H93.4824V225.926H94.7129ZM94.7129 233.951V238.162H93.4277V235.004H86.3867V233.951H94.7129ZM102.424 227.936V228.988H96.3398V227.936H98.7461V226.268H100.031V227.936H102.424ZM99.3887 229.727C100.947 229.727 102.041 230.889 102.055 232.543C102.041 234.211 100.947 235.387 99.3887 235.387C97.8574 235.387 96.7227 234.211 96.7363 232.543C96.7227 230.889 97.8574 229.727 99.3887 229.727ZM99.3887 230.807C98.5 230.807 97.8848 231.531 97.8848 232.543C97.8848 233.582 98.5 234.279 99.3887 234.279C100.264 234.279 100.906 233.582 100.906 232.543C100.906 231.531 100.264 230.807 99.3887 230.807ZM106.854 225.912V238.162H105.623V232.078H104.215V237.588H102.984V226.186H104.215V231.012H105.623V225.912H106.854ZM119.637 232.816V233.869H114.66V238.148H113.389V233.869H108.467V232.816H119.637ZM118.584 226.637V227.676H114.797C114.817 229.193 116.704 230.547 119.021 230.861L118.543 231.887C116.533 231.572 114.797 230.581 114.059 229.18C113.3 230.581 111.57 231.572 109.588 231.887L109.096 230.861C111.386 230.547 113.272 229.193 113.32 227.676H109.506V226.637H118.584ZM124.299 229.262C124.299 231.217 125.119 233.309 126.76 234.307L126.035 235.305C124.887 234.614 124.107 233.391 123.697 231.969C123.239 233.527 122.398 234.854 121.209 235.578L120.402 234.607C122.139 233.568 123.041 231.408 123.041 229.316V227.033H124.299V229.262ZM131.107 225.912V238.162H129.863V225.912H131.107ZM128.564 226.145V237.561H127.334V231.299H125.434V230.219H127.334V226.145H128.564ZM143.877 235.551V236.631H132.666V235.551H135.346V232.352C134.341 231.798 133.732 230.916 133.732 229.822C133.732 227.895 135.619 226.623 138.244 226.623C140.883 226.623 142.77 227.895 142.77 229.822C142.77 230.902 142.182 231.771 141.197 232.324V235.551H143.877ZM138.244 227.662C136.316 227.662 134.99 228.496 134.99 229.822C134.99 231.135 136.316 231.996 138.244 231.996C140.158 231.996 141.512 231.135 141.512 229.822C141.512 228.496 140.158 227.662 138.244 227.662ZM136.631 235.551H139.885V232.816C139.386 232.946 138.832 233.008 138.244 233.008C137.67 233.008 137.123 232.946 136.631 232.83V235.551Z" fill="#9CA3AF"/>
<path d="M331.715 235.465C331.397 235.765 330.901 235.765 330.583 235.465L324.805 230.006C324.263 229.494 324.625 228.583 325.371 228.583L336.928 228.583C337.673 228.583 338.036 229.494 337.494 230.006L331.715 235.465Z" fill="#1F2937"/>
<path d="M28.2188 281.266V295.406H26.4688V281.266H28.2188ZM20.6094 282.297C22.7344 282.297 24.2812 284.234 24.2969 287.281C24.2812 290.359 22.7344 292.281 20.6094 292.281C18.4688 292.281 16.9219 290.359 16.9219 287.281C16.9219 284.234 18.4688 282.297 20.6094 282.297ZM20.6094 283.859C19.4062 283.859 18.5938 285.125 18.5938 287.281C18.5938 289.453 19.4062 290.719 20.6094 290.719C21.7969 290.719 22.6094 289.453 22.6094 287.281C22.6094 285.125 21.7969 283.859 20.6094 283.859ZM37.7656 282.594V291.953H31.0469V282.594H37.7656ZM32.7656 283.953V290.562H36.0781V283.953H32.7656ZM42.0469 281.266V295.406H40.2969V281.266H42.0469ZM49.4531 285.281C49.4531 287.594 50.8125 290.031 53.0938 290.984L52.1406 292.359C50.4688 291.641 49.25 290.156 48.6094 288.359C47.9531 290.297 46.7188 291.922 45.0625 292.703L44.0625 291.344C46.2969 290.312 47.6875 287.688 47.6875 285.281V284.094H44.5781V282.656H52.5469V284.094H49.4531V285.281ZM55.875 281.266V295.391H54.125V281.266H55.875Z" fill="#1F2937"/>
<rect x="16" y="312" width="251" height="40" rx="12" fill="#F9FAFB"/>
<path d="M42.5957 325.912V338.189H41.2969V325.912H42.5957ZM36.0469 326.828C37.8652 326.828 39.2051 328.496 39.2051 331.121C39.2051 333.76 37.8652 335.428 36.0469 335.428C34.2012 335.428 32.875 333.76 32.875 331.121C32.875 328.496 34.2012 326.828 36.0469 326.828ZM36.0469 327.99C34.9121 327.99 34.1328 329.193 34.1328 331.121C34.1328 333.062 34.9121 334.266 36.0469 334.266C37.168 334.266 37.9473 333.062 37.9473 331.121C37.9473 329.193 37.168 327.99 36.0469 327.99ZM50.9766 327.088V335.141H45.2344V327.088H50.9766ZM46.5195 328.113V334.088H49.7188V328.113H46.5195ZM54.6953 325.912V338.189H53.3965V325.912H54.6953ZM61.1621 329.521C61.1621 331.572 62.502 333.691 64.3887 334.498L63.6777 335.51C62.2354 334.874 61.0869 333.527 60.5195 331.887C59.9521 333.637 58.7969 335.127 57.375 335.824L56.623 334.799C58.4688 333.938 59.8359 331.627 59.8496 329.521V328.223H57.0469V327.143H63.9512V328.223H61.1621V329.521ZM66.7949 325.912V338.162H65.4961V325.912H66.7949ZM79.9473 331.531V332.529H68.7363V331.531H79.9473ZM78.5664 333.391V336.084H71.375V337.096H78.9492V338.012H70.0762V335.223H77.2812V334.32H70.0625V333.391H78.5664ZM78.5391 326.227V328.879H71.457V329.809H78.7441V330.725H70.1719V328.018H77.2402V327.143H70.1445V326.227H78.5391ZM88.5605 328.51C88.5605 329.959 89.75 331.244 91.6094 331.764L91.0078 332.789C89.5723 332.379 88.4922 331.511 87.9316 330.383C87.3984 331.613 86.332 332.563 84.8691 333.021L84.2402 331.996C86.1133 331.449 87.2754 330.055 87.2754 328.51V328.318H84.6094V327.279H87.2754V325.857H88.5742V327.279H91.2266V328.318H88.5605V328.51ZM94.4805 325.912V333.145H93.1816V330.342H90.8848V329.275H93.1816V325.912H94.4805ZM94.4805 333.732V338.012H86.4004V333.732H94.4805ZM87.6855 334.785V336.959H93.209V334.785H87.6855ZM107.564 333.117V334.143H102.561V338.162H101.289V334.143H96.3535V333.117H107.564ZM99.0332 326.404V328.004H104.857V326.404H106.156V331.723H97.748V326.404H99.0332ZM99.0332 330.684H104.857V329.043H99.0332V330.684ZM114.523 327.936V328.988H108.439V327.936H110.846V326.268H112.131V327.936H114.523ZM111.488 329.727C113.047 329.727 114.141 330.889 114.154 332.543C114.141 334.211 113.047 335.387 111.488 335.387C109.957 335.387 108.822 334.211 108.836 332.543C108.822 330.889 109.957 329.727 111.488 329.727ZM111.488 330.807C110.6 330.807 109.984 331.531 109.984 332.543C109.984 333.582 110.6 334.279 111.488 334.279C112.363 334.279 113.006 333.582 113.006 332.543C113.006 331.531 112.363 330.807 111.488 330.807ZM118.953 325.912V338.162H117.723V332.078H116.314V337.588H115.084V326.186H116.314V331.012H117.723V325.912H118.953ZM131.736 332.816V333.869H126.76V338.148H125.488V333.869H120.566V332.816H131.736ZM130.684 326.637V327.676H126.896C126.917 329.193 128.804 330.547 131.121 330.861L130.643 331.887C128.633 331.572 126.896 330.581 126.158 329.18C125.399 330.581 123.67 331.572 121.688 331.887L121.195 330.861C123.485 330.547 125.372 329.193 125.42 327.676H121.605V326.637H130.684ZM136.398 329.262C136.398 331.217 137.219 333.309 138.859 334.307L138.135 335.305C136.986 334.614 136.207 333.391 135.797 331.969C135.339 333.527 134.498 334.854 133.309 335.578L132.502 334.607C134.238 333.568 135.141 331.408 135.141 329.316V327.033H136.398V329.262ZM143.207 325.912V338.162H141.963V325.912H143.207ZM140.664 326.145V337.561H139.434V331.299H137.533V330.219H139.434V326.145H140.664ZM155.977 335.551V336.631H144.766V335.551H147.445V332.352C146.44 331.798 145.832 330.916 145.832 329.822C145.832 327.895 147.719 326.623 150.344 326.623C152.982 326.623 154.869 327.895 154.869 329.822C154.869 330.902 154.281 331.771 153.297 332.324V335.551H155.977ZM150.344 327.662C148.416 327.662 147.09 328.496 147.09 329.822C147.09 331.135 148.416 331.996 150.344 331.996C152.258 331.996 153.611 331.135 153.611 329.822C153.611 328.496 152.258 327.662 150.344 327.662ZM148.73 335.551H151.984V332.816C151.485 332.946 150.932 333.008 150.344 333.008C149.77 333.008 149.223 332.946 148.73 332.83V335.551Z" fill="#9CA3AF"/>
<rect x="279.5" y="312.5" width="79" height="39" rx="11.5" fill="white"/>
<rect x="279.5" y="312.5" width="79" height="39" rx="11.5" stroke="#34B17B"/>
<path d="M300.604 327.061V328.305H299.415V333.869C299.976 333.821 300.529 333.773 301.056 333.705L301.124 334.799C298.567 335.236 295.71 335.291 293.563 335.291L293.386 334.047L294.876 334.033V328.305H293.7V327.061H300.604ZM303.229 325.857V330.643H305.13V331.887H303.229V338.217H301.712V325.857H303.229ZM296.353 334.006C296.879 333.999 297.412 333.979 297.952 333.951V328.305H296.353V334.006ZM309.149 326.254C311.022 326.254 312.417 327.416 312.431 329.043C312.417 330.684 311.022 331.832 309.149 331.832C307.263 331.832 305.868 330.684 305.868 329.043C305.868 327.416 307.263 326.254 309.149 326.254ZM309.149 327.512C308.11 327.512 307.345 328.1 307.345 329.043C307.345 330 308.11 330.602 309.149 330.602C310.188 330.602 310.954 330 310.954 329.043C310.954 328.1 310.188 327.512 309.149 327.512ZM315.944 325.857V332.105H314.413V325.857H315.944ZM315.944 332.639V335.865H309.259V336.863H316.313V338.066H307.769V334.744H314.427V333.828H307.741V332.639H315.944ZM325.515 328.387C325.515 329.713 326.513 331.012 328.454 331.531L327.771 332.693C326.335 332.317 325.323 331.497 324.776 330.438C324.223 331.6 323.184 332.502 321.728 332.926L321.003 331.723C322.958 331.203 323.997 329.836 323.997 328.387V328.346H321.413V327.143H323.997V325.803H325.528V327.143H328.099V328.346H325.515V328.387ZM330.819 325.857V328.729H332.542V329.986H330.819V332.939H329.302V325.857H330.819ZM330.997 333.514V334.73H327.729C328.017 335.756 329.404 336.713 331.517 337.014L330.97 338.176C329.035 337.902 327.572 337.075 326.854 335.947C326.144 337.068 324.694 337.875 322.78 338.148L322.22 337C324.339 336.706 325.713 335.783 326.007 334.73H322.726V333.514H330.997ZM343.493 325.857V338.217H341.962V325.857H343.493ZM339.802 327.17C339.802 330.848 338.38 333.979 334.046 336.029L333.253 334.812C336.486 333.274 337.99 331.183 338.257 328.373H333.882V327.17H339.802Z" fill="#34B17B"/>
<path d="M21.6094 383.766C21.6094 385.641 22.7344 387.469 24.9219 388.219L23.9688 389.578C22.4453 389 21.3516 387.898 20.7656 386.516C20.1484 388.062 19 389.289 17.3438 389.906L16.4219 388.531C18.6875 387.766 19.8438 385.812 19.8594 383.75V382.141H21.6094V383.766ZM28.2969 381.281V391.766H26.5625V385.812H23.75V384.391H26.5625V381.281H28.2969ZM28.6094 393.703V395.109H18.9844V390.625H20.75V393.703H28.6094ZM36.375 382.25V383.641H32.5V385.016H36.2344V386.344H32.5V387.828C34.2266 387.812 35.4219 387.742 36.7969 387.484L36.9844 388.891C35.3281 389.203 33.9531 389.25 31.7656 389.25H30.8281V382.25H36.375ZM42.375 381.281V389.875H40.7188V386.203H39.25V389.766H37.625V381.547H39.25V384.812H40.7188V381.281H42.375ZM42.375 390.5V395.391H40.6406V391.906H32.7031V390.5H42.375ZM53.1406 384.656C53.1406 387.281 54.3906 389.859 56.6406 390.844L55.5938 392.234C53.9922 391.453 52.8672 389.953 52.2656 388.109C51.6484 390.055 50.5 391.672 48.875 392.5L47.7812 391.094C50.0781 390.016 51.3594 387.297 51.375 384.656V382.406H53.1406V384.656ZM59.7656 381.266V395.406H58.0469V387.234H55.0781V385.828H58.0469V381.266H59.7656ZM73.5 381.266V395.406H71.75V381.266H73.5ZM64.2344 382.422V385.953H67.6562V382.422H69.375V392.078H62.5V382.422H64.2344ZM64.2344 390.656H67.6562V387.312H64.2344V390.656ZM82.875 383.203C82.875 385.391 85.0156 387.578 87.9688 388.094L87.1875 389.547C84.8203 389.047 82.8828 387.617 81.9688 385.719C81.0312 387.602 79.0938 389.039 76.7344 389.547L75.9688 388.094C78.8906 387.562 81.0156 385.375 81.0312 383.203V382.156H82.875V383.203ZM88.4844 392.156V393.594H75.5781V392.156H88.4844Z" fill="#1F2937"/>
<rect x="16" y="412" width="109" height="76" rx="8" fill="#111827"/>
<rect x="27" y="421" width="18" height="18" rx="6" fill="white"/>
<path d="M31 429.625L34.1098 432.735C34.2563 432.881 34.4937 432.881 34.6402 432.735L40.375 427" stroke="#34B17B" stroke-width="2" stroke-linecap="round"/>
<path d="M61.9219 426.629V427.873H60.0898V434.189H58.5723V421.857H60.0898V426.629H61.9219ZM52.3516 423.061V429.883C53.999 429.855 55.7559 429.712 57.6152 429.322L57.7793 430.607C55.7012 431.018 53.7188 431.141 51.8867 431.141H50.8477V423.061H52.3516ZM73.7891 428.857V430.088H68.8672V434.203H67.3633V430.088H62.4961V428.857H73.7891ZM72.4082 422.486V427.408H63.877V422.486H72.4082ZM65.3672 423.703V426.219H70.8906V423.703H65.3672ZM84.9043 421.871V429.404H83.373V421.871H84.9043ZM80.9395 422.609V426.232H76.7559V427.559C78.875 427.552 80.3721 427.483 82.1426 427.217L82.334 428.434C80.3789 428.748 78.7109 428.803 76.3184 428.803H75.2656V425.098H79.4355V423.854H75.2383V422.609H80.9395ZM80.748 429.623C83.373 429.623 84.9727 430.457 84.9727 431.92C84.9727 433.355 83.373 434.203 80.748 434.203C78.1094 434.203 76.5234 433.355 76.5234 431.92C76.5234 430.457 78.1094 429.623 80.748 429.623ZM80.748 430.812C78.998 430.812 78.0273 431.195 78.0273 431.92C78.0273 432.631 78.998 433.014 80.748 433.014C82.4844 433.014 83.4551 432.631 83.4551 431.92C83.4551 431.195 82.4844 430.812 80.748 430.812Z" fill="white"/>
<path d="M59.4219 444.496V454.996H58.3555V444.496H59.4219ZM57.2891 444.695V454.48H56.2227V449.418H55.0391C54.9453 451.469 54.0664 452.746 52.7656 452.734C51.3945 452.746 50.5039 451.305 50.5039 449.031C50.5039 446.758 51.3945 445.328 52.7656 445.34C54.043 445.328 54.9102 446.541 55.0391 448.516H56.2227V444.695H57.2891ZM52.7656 446.383C52.0039 446.383 51.5352 447.355 51.5352 449.031C51.5352 450.707 52.0039 451.68 52.7656 451.68C53.5391 451.68 54.0195 450.707 54.0195 449.031C54.0195 447.355 53.5391 446.383 52.7656 446.383ZM69.5117 444.496V455.02H68.4102V449.242H66.0898V452.418H61.168V445.305H62.293V447.988H65V445.305H66.0898V448.328H68.4102V444.496H69.5117ZM62.293 451.504H65V448.867H62.293V451.504ZM55.7188 461.984C55.7188 463.695 57.5469 465.312 59.5625 465.676L59.0469 466.602C57.3711 466.238 55.8242 465.137 55.1445 463.66C54.4531 465.125 52.9121 466.227 51.2305 466.602L50.7383 465.676C52.7305 465.301 54.5469 463.695 54.5469 461.984V461.188H55.7188V461.984ZM59.9961 468.688V469.613H50.3867V468.688H59.9961ZM69.2773 466.086V466.977H61.9648V461.363H69.1719V462.266H63.0898V463.684H68.9492V464.562H63.0898V466.086H69.2773ZM70.3672 468.758V469.672H60.7578V468.758H70.3672ZM75.1953 461.621V465.359H72.5352V467.516C73.6777 467.51 74.7676 467.469 76.0625 467.234L76.1562 468.148C74.7031 468.406 73.5078 468.441 72.1836 468.453H71.457V464.469H74.1289V462.523H71.4453V461.621H75.1953ZM80.1406 460.496V470.996H79.0742V460.496H80.1406ZM77.9844 460.73V470.457H76.9297V465.113H75.6875V464.211H76.9297V460.73H77.9844ZM85.4023 462.676C85.4023 463.93 86.4336 465.102 88.0625 465.547L87.5352 466.414C86.3047 466.074 85.3672 465.312 84.875 464.316C84.4062 465.412 83.4805 466.273 82.2148 466.672L81.6641 465.793C83.2812 465.301 84.2891 464.035 84.2891 462.676V462.617H81.957V461.727H84.2891V460.496H85.4141V461.727H87.7227V462.617H85.4023V462.676ZM90.207 460.508V466.906H89.0938V460.508H90.207ZM86.6797 467.105C88.8828 467.105 90.2422 467.82 90.2422 469.039C90.2422 470.27 88.8828 470.984 86.6797 470.973C84.4648 470.984 83.1055 470.27 83.1055 469.039C83.1055 467.82 84.4648 467.105 86.6797 467.105ZM86.6797 467.984C85.1211 467.984 84.2305 468.371 84.2305 469.039C84.2305 469.73 85.1211 470.117 86.6797 470.117C88.2383 470.117 89.1406 469.73 89.1406 469.039C89.1406 468.371 88.2383 467.984 86.6797 467.984Z" fill="white"/>
<g clip-path="url(#clip1_523_13566)">
<rect x="133" y="412" width="109" height="76" rx="8" fill="#F9FAFB"/>
<rect x="144.5" y="421.5" width="17" height="17" rx="5.5" fill="white" stroke="#E5E7EB"/>
<path d="M178.922 426.629V427.873H177.09V434.189H175.572V421.857H177.09V426.629H178.922ZM169.352 423.061V429.883C170.999 429.855 172.756 429.712 174.615 429.322L174.779 430.607C172.701 431.018 170.719 431.141 168.887 431.141H167.848V423.061H169.352ZM190.789 428.857V430.088H185.867V434.203H184.363V430.088H179.496V428.857H190.789ZM189.408 422.486V427.408H180.877V422.486H189.408ZM182.367 423.703V426.219H187.891V423.703H182.367ZM201.904 421.871V429.404H200.373V421.871H201.904ZM197.939 422.609V426.232H193.756V427.559C195.875 427.552 197.372 427.483 199.143 427.217L199.334 428.434C197.379 428.748 195.711 428.803 193.318 428.803H192.266V425.098H196.436V423.854H192.238V422.609H197.939ZM197.748 429.623C200.373 429.623 201.973 430.457 201.973 431.92C201.973 433.355 200.373 434.203 197.748 434.203C195.109 434.203 193.523 433.355 193.523 431.92C193.523 430.457 195.109 429.623 197.748 429.623ZM197.748 430.812C195.998 430.812 195.027 431.195 195.027 431.92C195.027 432.631 195.998 433.014 197.748 433.014C199.484 433.014 200.455 432.631 200.455 431.92C200.455 431.195 199.484 430.812 197.748 430.812Z" fill="#111827"/>
<path d="M176.422 444.496V454.996H175.355V444.496H176.422ZM174.289 444.695V454.48H173.223V449.418H172.039C171.945 451.469 171.066 452.746 169.766 452.734C168.395 452.746 167.504 451.305 167.504 449.031C167.504 446.758 168.395 445.328 169.766 445.34C171.043 445.328 171.91 446.541 172.039 448.516H173.223V444.695H174.289ZM169.766 446.383C169.004 446.383 168.535 447.355 168.535 449.031C168.535 450.707 169.004 451.68 169.766 451.68C170.539 451.68 171.02 450.707 171.02 449.031C171.02 447.355 170.539 446.383 169.766 446.383ZM186.512 444.496V455.02H185.41V449.242H183.09V452.418H178.168V445.305H179.293V447.988H182V445.305H183.09V448.328H185.41V444.496H186.512ZM179.293 451.504H182V448.867H179.293V451.504ZM199.754 445.059V445.961H198.219V448.68H199.695V449.559H191.996V448.68H193.484V445.961H191.949V445.059H199.754ZM200.656 450.672V451.598H196.391V454.984H195.289V451.598H191.047V450.672H200.656ZM194.598 448.68H197.129V445.961H194.598V448.68ZM209.938 449.477V450.391H202.625V445.434H209.844V446.348H203.727V449.477H209.938ZM211.039 452.688V453.613H201.43V452.688H211.039ZM220.32 450.086V450.977H213.008V445.363H220.215V446.266H214.133V447.684H219.992V448.562H214.133V450.086H220.32ZM221.41 452.758V453.672H211.801V452.758H221.41ZM230.879 444.508V450.297H229.766V444.508H230.879ZM227.527 445V447.93H223.812V449.172C225.646 449.16 227 449.113 228.594 448.855L228.734 449.758C227.023 450.039 225.582 450.086 223.602 450.098H222.723V447.062H226.426V445.902H222.699V445H227.527ZM225.102 450.789V451.926H229.777V450.789H230.879V454.867H223.988V450.789H225.102ZM225.102 453.965H229.777V452.805H225.102V453.965Z" fill="#374151"/>
</g>
<g clip-path="url(#clip2_523_13566)">
<rect x="250" y="412" width="109" height="76" rx="8" fill="#F9FAFB"/>
<rect x="261.5" y="421.5" width="17" height="17" rx="5.5" fill="white" stroke="#E5E7EB"/>
<path d="M294.295 422.609V423.717C294.295 424.872 294.295 426.137 293.967 427.887H295.676V429.117H290.768V434.23H289.236V429.117H284.41V427.887H292.422C292.764 426.205 292.777 424.947 292.777 423.84H285.736V422.609H294.295ZM307.789 428.146V429.35H296.496V428.146H307.789ZM306.395 422.117V425.289H299.436V426.178H306.641V427.34H297.932V424.182H304.877V423.307H297.891V422.117H306.395ZM306.436 430.238V434.066H297.973V430.238H306.436ZM299.463 431.441V432.836H304.932V431.441H299.463ZM318.904 421.871V429.404H317.373V421.871H318.904ZM314.939 422.609V426.232H310.756V427.559C312.875 427.552 314.372 427.483 316.143 427.217L316.334 428.434C314.379 428.748 312.711 428.803 310.318 428.803H309.266V425.098H313.436V423.854H309.238V422.609H314.939ZM314.748 429.623C317.373 429.623 318.973 430.457 318.973 431.92C318.973 433.355 317.373 434.203 314.748 434.203C312.109 434.203 310.523 433.355 310.523 431.92C310.523 430.457 312.109 429.623 314.748 429.623ZM314.748 430.812C312.998 430.812 312.027 431.195 312.027 431.92C312.027 432.631 312.998 433.014 314.748 433.014C316.484 433.014 317.455 432.631 317.455 431.92C317.455 431.195 316.484 430.812 314.748 430.812Z" fill="#111827"/>
</g>
<path d="M27.7031 525.469V526.713H16.4102V525.469H21.2773V522.775H17.6543V516.814H26.4043V522.775H22.7812V525.469H27.7031ZM19.1445 518.031V521.586H24.9004V518.031H19.1445ZM38.8047 515.871V522.871H37.2734V515.871H38.8047ZM38.8047 523.473V528.066H30.6016V523.473H38.8047ZM32.1055 524.676V526.836H37.3145V524.676H32.1055ZM32.0645 516.459C33.9648 516.459 35.3867 517.662 35.3867 519.412C35.3867 521.107 33.9648 522.338 32.0645 522.338C30.1504 522.338 28.7285 521.107 28.7285 519.412C28.7285 517.662 30.1504 516.459 32.0645 516.459ZM32.0645 517.744C30.9844 517.744 30.2051 518.387 30.2188 519.412C30.2051 520.41 30.9844 521.053 32.0645 521.053C33.1309 521.053 33.8965 520.41 33.8965 519.412C33.8965 518.387 33.1309 517.744 32.0645 517.744ZM53.6797 515.857V518.264H55.4023V519.521H53.6797V522.01H52.1621V515.857H53.6797ZM45.9961 516.404V520.301C47.5615 520.287 49.2432 520.157 51.041 519.809L51.2188 521.053C49.168 521.477 47.2812 521.586 45.4902 521.572H44.4648V516.404H45.9961ZM53.6797 522.543V525.824H47.1309V526.836H54.0625V528.066H45.6133V524.662H52.1484V523.746H45.5996V522.543H53.6797ZM66.0801 515.857V520.602H67.584V521.873H66.0801V528.217H64.5625V515.857H66.0801ZM59.0527 519.166C59.0527 520.581 59.2031 522.379 60.0918 523.691C60.9531 522.393 61.1172 520.608 61.1172 519.166V518.223H60.3242V516.992H63.7695V518.223H62.5664V519.166C62.5664 521.135 62.8672 523.363 64.4121 524.498L63.4414 525.592C62.6074 524.949 62.1084 523.958 61.8145 522.803C61.5137 523.985 60.9805 525.038 60.0781 525.701C59.1895 525.038 58.6631 523.979 58.3691 522.803C58.0684 523.951 57.5693 524.949 56.7422 525.592L55.7715 524.498C57.3164 523.35 57.6172 521.094 57.6172 519.166V518.223H56.2363V516.992H59.8457V518.223H59.0527V519.166Z" fill="#1F2937"/>
<rect x="16" y="540" width="217" height="44" rx="12" fill="#F9FAFB"/>
<path d="M33 568V566.75L36.9219 562.797C38.1562 561.5 38.7812 560.781 38.7812 559.797C38.7812 558.688 37.875 557.969 36.6875 557.969C35.4375 557.969 34.625 558.766 34.625 559.969H33C32.9844 557.906 34.5625 556.531 36.7188 556.531C38.9062 556.531 40.4062 557.906 40.4219 559.75C40.4062 561.016 39.8125 562.016 37.6875 564.109L35.3906 566.438V566.531H40.6094V568H33ZM46.4531 568.156C43.8281 568.156 42.2969 566.047 42.2969 562.344C42.2969 558.672 43.8594 556.531 46.4531 556.531C49.0469 556.531 50.6094 558.672 50.6094 562.344C50.6094 566.047 49.0625 568.156 46.4531 568.156ZM46.4531 566.672C47.9844 566.672 48.8906 565.172 48.8906 562.344C48.8906 559.531 47.9688 557.984 46.4531 557.984C44.9375 557.984 44.0156 559.531 44.0156 562.344C44.0156 565.172 44.9219 566.672 46.4531 566.672ZM52.3906 568V566.75L56.3125 562.797C57.5469 561.5 58.1719 560.781 58.1719 559.797C58.1719 558.688 57.2656 557.969 56.0781 557.969C54.8281 557.969 54.0156 558.766 54.0156 559.969H52.3906C52.375 557.906 53.9531 556.531 56.1094 556.531C58.2969 556.531 59.7969 557.906 59.8125 559.75C59.7969 561.016 59.2031 562.016 57.0781 564.109L54.7812 566.438V566.531H60V568H52.3906ZM61.9062 568V566.75L65.8281 562.797C67.0625 561.5 67.6875 560.781 67.6875 559.797C67.6875 558.688 66.7812 557.969 65.5938 557.969C64.3438 557.969 63.5312 558.766 63.5312 559.969H61.9062C61.8906 557.906 63.4688 556.531 65.625 556.531C67.8125 556.531 69.3125 557.906 69.3281 559.75C69.3125 561.016 68.7188 562.016 66.5938 564.109L64.2969 566.438V566.531H69.5156V568H61.9062ZM76.4375 561.625V563.062H71.4219V561.625H76.4375ZM82.7344 556.688V568H81V558.406H80.9375L78.2344 560.172V558.531L81.0469 556.688H82.7344ZM89.9062 556.688V568H88.1719V558.406H88.1094L85.4062 560.172V558.531L88.2188 556.688H89.9062ZM97.7969 561.625V563.062H92.7812V561.625H97.7969ZM104.094 556.688V568H102.359V558.406H102.297L99.5938 560.172V558.531L102.406 556.688H104.094ZM106.719 565.797V564.406L111.719 556.688H113.844V564.344H115.391V565.797H113.844V568H112.219V565.797H106.719ZM108.531 564.344H112.219V558.734H112.094L108.531 564.25V564.344ZM125.328 556.688V568H123.594V558.406H123.531L120.828 560.172V558.531L123.641 556.688H125.328ZM128.203 568V566.75L132.125 562.797C133.359 561.5 133.984 560.781 133.984 559.797C133.984 558.688 133.078 557.969 131.891 557.969C130.641 557.969 129.828 558.766 129.828 559.969H128.203C128.188 557.906 129.766 556.531 131.922 556.531C134.109 556.531 135.609 557.906 135.625 559.75C135.609 561.016 135.016 562.016 132.891 564.109L130.594 566.438V566.531H135.812V568H128.203ZM138.828 566.547C138.219 566.547 137.703 566.047 137.719 565.438C137.703 564.828 138.219 564.328 138.828 564.328C139.422 564.328 139.938 564.828 139.938 565.438C139.938 566.047 139.422 566.547 138.828 566.547ZM138.828 560.375C138.219 560.375 137.703 559.875 137.719 559.266C137.703 558.656 138.219 558.156 138.828 558.156C139.422 558.156 139.938 558.656 139.938 559.266C139.938 559.875 139.422 560.375 138.828 560.375ZM145.875 568.156C143.25 568.156 141.719 566.047 141.719 562.344C141.719 558.672 143.281 556.531 145.875 556.531C148.469 556.531 150.031 558.672 150.031 562.344C150.031 566.047 148.484 568.156 145.875 568.156ZM145.875 566.672C147.406 566.672 148.312 565.172 148.312 562.344C148.312 559.531 147.391 557.984 145.875 557.984C144.359 557.984 143.438 559.531 143.438 562.344C143.438 565.172 144.344 566.672 145.875 566.672ZM155.75 568.156C153.125 568.156 151.594 566.047 151.594 562.344C151.594 558.672 153.156 556.531 155.75 556.531C158.344 556.531 159.906 558.672 159.906 562.344C159.906 566.047 158.359 568.156 155.75 568.156ZM155.75 566.672C157.281 566.672 158.188 565.172 158.188 562.344C158.188 559.531 157.266 557.984 155.75 557.984C154.234 557.984 153.312 559.531 153.312 562.344C153.312 565.172 154.219 566.672 155.75 566.672ZM165.75 568V556.688H169.781C172.406 556.688 173.703 558.266 173.703 560.359C173.703 562.438 172.406 564.031 169.781 564.031H167.469V568H165.75ZM167.469 562.562H169.609C171.281 562.562 171.969 561.625 171.969 560.359C171.969 559.078 171.281 558.156 169.609 558.156H167.469V562.562ZM175.516 556.688H177.609L181.188 565.453H181.328L184.906 556.688H187V568H185.359V559.828H185.25L181.938 567.984H180.578L177.25 559.812H177.156V568H175.516V556.688Z" fill="#9CA3AF"/>
<path d="M213 563H208V568H213V563ZM212 552V554H204V552H202V554H201C199.89 554 199.01 554.9 199.01 556L199 570C199 571.1 199.89 572 201 572H215C216.1 572 217 571.1 217 570V556C217 554.9 216.1 554 215 554H214V552H212ZM215 570H201V559H215V570Z" fill="#111827"/>
<path d="M22.6992 597.061V605.154H16.8477V597.061H22.6992ZM18.3379 598.25V603.938H21.1816V598.25H18.3379ZM26.0898 595.857V600.602H27.9902V601.887H26.0898V608.217H24.5723V595.857H26.0898ZM38.2578 595.857V598.674H39.9805V599.918H38.2578V602.803H36.7402V595.857H38.2578ZM34.8262 596.609C34.8125 599.822 32.707 602.051 29.0156 603.035L28.4141 601.818C31.2783 601.08 32.9053 599.624 33.1719 597.84H29.002V596.609H34.8262ZM38.2578 603.295V608.053H30.2598V603.295H38.2578ZM31.7773 604.539V606.85H36.7539V604.539H31.7773ZM53.6797 595.857V598.264H55.4023V599.521H53.6797V602.01H52.1621V595.857H53.6797ZM45.9961 596.404V600.301C47.5615 600.287 49.2432 600.157 51.041 599.809L51.2188 601.053C49.168 601.477 47.2812 601.586 45.4902 601.572H44.4648V596.404H45.9961ZM53.6797 602.543V605.824H47.1309V606.836H54.0625V608.066H45.6133V604.662H52.1484V603.746H45.5996V602.543H53.6797ZM66.0801 595.857V600.602H67.584V601.873H66.0801V608.217H64.5625V595.857H66.0801ZM59.0527 599.166C59.0527 600.581 59.2031 602.379 60.0918 603.691C60.9531 602.393 61.1172 600.608 61.1172 599.166V598.223H60.3242V596.992H63.7695V598.223H62.5664V599.166C62.5664 601.135 62.8672 603.363 64.4121 604.498L63.4414 605.592C62.6074 604.949 62.1084 603.958 61.8145 602.803C61.5137 603.985 60.9805 605.038 60.0781 605.701C59.1895 605.038 58.6631 603.979 58.3691 602.803C58.0684 603.951 57.5693 604.949 56.7422 605.592L55.7715 604.498C57.3164 603.35 57.6172 601.094 57.6172 599.166V598.223H56.2363V596.992H59.8457V598.223H59.0527V599.166Z" fill="#1F2937"/>
<rect x="16" y="620" width="217" height="44" rx="12" fill="#F9FAFB"/>
<path d="M33 648V646.75L36.9219 642.797C38.1562 641.5 38.7812 640.781 38.7812 639.797C38.7812 638.688 37.875 637.969 36.6875 637.969C35.4375 637.969 34.625 638.766 34.625 639.969H33C32.9844 637.906 34.5625 636.531 36.7188 636.531C38.9062 636.531 40.4062 637.906 40.4219 639.75C40.4062 641.016 39.8125 642.016 37.6875 644.109L35.3906 646.438V646.531H40.6094V648H33ZM46.4531 648.156C43.8281 648.156 42.2969 646.047 42.2969 642.344C42.2969 638.672 43.8594 636.531 46.4531 636.531C49.0469 636.531 50.6094 638.672 50.6094 642.344C50.6094 646.047 49.0625 648.156 46.4531 648.156ZM46.4531 646.672C47.9844 646.672 48.8906 645.172 48.8906 642.344C48.8906 639.531 47.9688 637.984 46.4531 637.984C44.9375 637.984 44.0156 639.531 44.0156 642.344C44.0156 645.172 44.9219 646.672 46.4531 646.672ZM52.3906 648V646.75L56.3125 642.797C57.5469 641.5 58.1719 640.781 58.1719 639.797C58.1719 638.688 57.2656 637.969 56.0781 637.969C54.8281 637.969 54.0156 638.766 54.0156 639.969H52.3906C52.375 637.906 53.9531 636.531 56.1094 636.531C58.2969 636.531 59.7969 637.906 59.8125 639.75C59.7969 641.016 59.2031 642.016 57.0781 644.109L54.7812 646.438V646.531H60V648H52.3906ZM61.9062 648V646.75L65.8281 642.797C67.0625 641.5 67.6875 640.781 67.6875 639.797C67.6875 638.688 66.7812 637.969 65.5938 637.969C64.3438 637.969 63.5312 638.766 63.5312 639.969H61.9062C61.8906 637.906 63.4688 636.531 65.625 636.531C67.8125 636.531 69.3125 637.906 69.3281 639.75C69.3125 641.016 68.7188 642.016 66.5938 644.109L64.2969 646.438V646.531H69.5156V648H61.9062ZM76.4375 641.625V643.062H71.4219V641.625H76.4375ZM82.7344 636.688V648H81V638.406H80.9375L78.2344 640.172V638.531L81.0469 636.688H82.7344ZM89.9062 636.688V648H88.1719V638.406H88.1094L85.4062 640.172V638.531L88.2188 636.688H89.9062ZM97.7969 641.625V643.062H92.7812V641.625H97.7969ZM104.094 636.688V648H102.359V638.406H102.297L99.5938 640.172V638.531L102.406 636.688H104.094ZM106.719 645.797V644.406L111.719 636.688H113.844V644.344H115.391V645.797H113.844V648H112.219V645.797H106.719ZM108.531 644.344H112.219V638.734H112.094L108.531 644.25V644.344ZM125.328 636.688V648H123.594V638.406H123.531L120.828 640.172V638.531L123.641 636.688H125.328ZM128.203 648V646.75L132.125 642.797C133.359 641.5 133.984 640.781 133.984 639.797C133.984 638.688 133.078 637.969 131.891 637.969C130.641 637.969 129.828 638.766 129.828 639.969H128.203C128.188 637.906 129.766 636.531 131.922 636.531C134.109 636.531 135.609 637.906 135.625 639.75C135.609 641.016 135.016 642.016 132.891 644.109L130.594 646.438V646.531H135.812V648H128.203ZM138.828 646.547C138.219 646.547 137.703 646.047 137.719 645.438C137.703 644.828 138.219 644.328 138.828 644.328C139.422 644.328 139.938 644.828 139.938 645.438C139.938 646.047 139.422 646.547 138.828 646.547ZM138.828 640.375C138.219 640.375 137.703 639.875 137.719 639.266C137.703 638.656 138.219 638.156 138.828 638.156C139.422 638.156 139.938 638.656 139.938 639.266C139.938 639.875 139.422 640.375 138.828 640.375ZM145.875 648.156C143.25 648.156 141.719 646.047 141.719 642.344C141.719 638.672 143.281 636.531 145.875 636.531C148.469 636.531 150.031 638.672 150.031 642.344C150.031 646.047 148.484 648.156 145.875 648.156ZM145.875 646.672C147.406 646.672 148.312 645.172 148.312 642.344C148.312 639.531 147.391 637.984 145.875 637.984C144.359 637.984 143.438 639.531 143.438 642.344C143.438 645.172 144.344 646.672 145.875 646.672ZM155.75 648.156C153.125 648.156 151.594 646.047 151.594 642.344C151.594 638.672 153.156 636.531 155.75 636.531C158.344 636.531 159.906 638.672 159.906 642.344C159.906 646.047 158.359 648.156 155.75 648.156ZM155.75 646.672C157.281 646.672 158.188 645.172 158.188 642.344C158.188 639.531 157.266 637.984 155.75 637.984C154.234 637.984 153.312 639.531 153.312 642.344C153.312 645.172 154.219 646.672 155.75 646.672ZM165.75 648V636.688H169.781C172.406 636.688 173.703 638.266 173.703 640.359C173.703 642.438 172.406 644.031 169.781 644.031H167.469V648H165.75ZM167.469 642.562H169.609C171.281 642.562 171.969 641.625 171.969 640.359C171.969 639.078 171.281 638.156 169.609 638.156H167.469V642.562ZM175.516 636.688H177.609L181.188 645.453H181.328L184.906 636.688H187V648H185.359V639.828H185.25L181.938 647.984H180.578L177.25 639.812H177.156V648H175.516V636.688Z" fill="#9CA3AF"/>
<path d="M213 643H208V648H213V643ZM212 632V634H204V632H202V634H201C199.89 634 199.01 634.9 199.01 636L199 650C199 651.1 199.89 652 201 652H215C216.1 652 217 651.1 217 650V636C217 634.9 216.1 634 215 634H214V632H212ZM215 650H201V639H215V650Z" fill="#111827"/>
<path d="M29.375 696.25V697.672H16.4688V696.25H22.0312V693.172H17.8906V686.359H27.8906V693.172H23.75V696.25H29.375ZM19.5938 687.75V691.812H26.1719V687.75H19.5938ZM38.625 686.109V687.5H35.6562C35.6797 689.156 36.8984 690.742 39.125 691.375L38.25 692.734C36.6172 692.25 35.4375 691.227 34.7969 689.922C34.1641 691.328 32.9531 692.438 31.2656 692.969L30.3906 691.609C32.6484 690.945 33.8672 689.25 33.9062 687.5H30.8594V686.109H38.625ZM42.0625 685.266V692.922H40.3125V685.266H42.0625ZM34.4375 693.547V695H40.3281V693.547H42.0625V699.219H32.7188V693.547H34.4375ZM34.4375 697.812H40.3281V696.344H34.4375V697.812ZM59.75 685.266V693.656H58.0156V690.203H55.6094V688.781H58.0156V685.266H59.75ZM54.9688 694.016C57.9688 694.016 59.7969 695 59.7969 696.703C59.7969 698.406 57.9688 699.391 54.9688 699.391C51.9844 699.391 50.1562 698.406 50.1719 696.703C50.1562 695 51.9844 694.016 54.9688 694.016ZM54.9688 695.344C53 695.344 51.8906 695.812 51.8906 696.703C51.8906 697.578 53 698.047 54.9688 698.047C56.9375 698.047 58.0625 697.578 58.0625 696.703C58.0625 695.812 56.9375 695.344 54.9688 695.344ZM53.1094 687.688C53.1094 689.406 54.25 691.141 56.4375 691.875L55.5625 693.25C53.9922 692.719 52.875 691.641 52.2656 690.312C51.6406 691.82 50.4609 693.023 48.7812 693.625L47.875 692.25C50.1406 691.469 51.3438 689.562 51.3438 687.703V687.594H48.4062V686.188H56.0312V687.594H53.1094V687.688ZM73.5938 685.281V695.969H71.8438V694.734H69.0781V693.516H71.8438V685.281H73.5938ZM73.9219 697.703V699.109H63.5625V694.938H65.2969V697.703H73.9219ZM61.6875 691.625C64.2969 691.609 67.7969 691.578 70.7969 691.203L70.8906 692.453C69.7266 692.648 68.5234 692.781 67.3281 692.859V695.578H65.5938V692.953C64.2734 693.008 63.0156 693.016 61.9062 693.016L61.6875 691.625ZM66.2969 685.797C68.3594 685.797 69.7969 686.812 69.8125 688.297C69.7969 689.812 68.3594 690.781 66.2969 690.781C64.2031 690.781 62.7656 689.812 62.7656 688.297C62.7656 686.812 64.2031 685.797 66.2969 685.797ZM66.2969 687.078C65.1719 687.078 64.4062 687.531 64.4062 688.297C64.4062 689.062 65.1719 689.516 66.2969 689.516C67.375 689.516 68.1406 689.062 68.1562 688.297C68.1406 687.531 67.375 687.078 66.2969 687.078Z" fill="#1F2937"/>
<rect x="16" y="716" width="343" height="44" rx="12" fill="#F9FAFB"/>
<path d="M37.9375 738.766V741.188C39.2188 741.117 40.5156 741.008 41.7344 740.828L41.8438 741.922C38.6719 742.5 35.2812 742.531 32.7812 742.531L32.5938 741.312C33.7188 741.305 35.0469 741.297 36.4531 741.25V738.766H37.9375ZM41.0781 733.109V734.312H37.9375C38.0156 735.953 39.3438 737.375 41.4375 737.938L40.75 739.094C39.0781 738.617 37.8281 737.602 37.2031 736.266C36.5859 737.672 35.3594 738.734 33.6719 739.219L32.9688 738.094C35.0547 737.5 36.3672 736.031 36.4375 734.312H33.3438V733.109H36.4531V731.438H37.9375V733.109H41.0781ZM44.0938 731.328V745.359H42.6094V731.328H44.0938ZM59.1562 742.328V743.547H46.3438V742.328H51.9531V739H53.4219V742.328H59.1562ZM53.4531 733.281C53.4531 735.5 55.8906 737.578 58.5938 738.031L57.9531 739.25C55.6875 738.797 53.6016 737.398 52.6719 735.469C51.75 737.391 49.6875 738.812 47.4375 739.25L46.7812 738.031C49.4688 737.578 51.8906 735.5 51.8906 733.281V732.219H53.4531V733.281ZM68.4062 744.156C66.2656 744.156 64.6562 742.844 64.5781 741.047H66.25C66.3438 742.016 67.2656 742.719 68.4062 742.719C69.7812 742.719 70.7656 741.719 70.7656 740.375C70.7656 739 69.75 738 68.3281 737.984C67.4219 737.984 66.7344 738.281 66.3438 738.984H64.7188L65.4531 732.688H71.8594V734.156H66.875L66.5 737.328H66.6094C67.0781 736.875 67.875 736.562 68.7344 736.562C70.8594 736.562 72.4375 738.141 72.4375 740.328C72.4375 742.562 70.7656 744.156 68.4062 744.156ZM85.3906 731.344V741.516H83.9062V731.344H85.3906ZM85.8125 743.828V745.031H76.2344V740.484H77.7344V743.828H85.8125ZM77.7969 732.281C79.9062 732.281 81.5156 733.719 81.5156 735.75C81.5156 737.812 79.9062 739.234 77.7969 739.234C75.6875 739.234 74.0625 737.812 74.0625 735.75C74.0625 733.719 75.6875 732.281 77.7969 732.281ZM77.7969 733.578C76.4844 733.578 75.5156 734.469 75.5156 735.75C75.5156 737.062 76.4844 737.938 77.7969 737.938C79.0781 737.938 80.0625 737.062 80.0625 735.75C80.0625 734.469 79.0781 733.578 77.7969 733.578ZM103.109 731.328V745.359H101.625V731.328H103.109ZM95.625 732.375C97.7031 732.375 99.2344 734.281 99.2344 737.281C99.2344 740.297 97.7031 742.203 95.625 742.203C93.5156 742.203 92 740.297 92 737.281C92 734.281 93.5156 732.375 95.625 732.375ZM95.625 733.703C94.3281 733.703 93.4375 735.078 93.4375 737.281C93.4375 739.5 94.3281 740.875 95.625 740.875C96.9062 740.875 97.7969 739.5 97.7969 737.281C97.7969 735.078 96.9062 733.703 95.625 733.703ZM110.172 733.562C110.172 735.406 111.453 737.109 113.547 737.797L112.75 738.969C111.219 738.43 110.07 737.336 109.469 735.953C108.852 737.523 107.664 738.75 106.031 739.359L105.234 738.172C107.422 737.391 108.688 735.531 108.703 733.438V732.062H110.172V733.562ZM116.344 731.328V734.844H118.375V736.094H116.344V739.781H114.859V731.328H116.344ZM111.828 740.109C114.703 740.109 116.469 741.062 116.469 742.703C116.469 744.359 114.703 745.312 111.828 745.297C108.922 745.312 107.125 744.359 107.125 742.703C107.125 741.062 108.922 740.109 111.828 740.109ZM111.828 741.281C109.797 741.281 108.594 741.812 108.609 742.703C108.594 743.625 109.797 744.125 111.828 744.141C113.844 744.125 115.016 743.625 115.016 742.703C115.016 741.812 113.844 741.281 111.828 741.281ZM134.688 731.328V738.844H133.203V731.328H134.688ZM126.984 739.516V741.094H133.219V739.516H134.688V745.156H125.531V739.516H126.984ZM126.984 743.938H133.219V742.266H126.984V743.938ZM127.094 731.969C129.234 731.969 130.812 733.297 130.812 735.219C130.812 737.141 129.234 738.469 127.094 738.453C124.953 738.469 123.359 737.141 123.359 735.219C123.359 733.297 124.953 731.969 127.094 731.969ZM127.094 733.219C125.766 733.203 124.812 734.031 124.812 735.219C124.812 736.422 125.766 737.234 127.094 737.234C128.406 737.234 129.359 736.422 129.359 735.219C129.359 734.031 128.406 733.203 127.094 733.219ZM143.578 732.172V736.25H138.953V738.188C141.391 738.195 142.719 738.141 144.297 737.844L144.438 739.047C142.734 739.344 141.297 739.391 138.5 739.391H137.484V735.125H142.094V733.359H137.469V732.172H143.578ZM148.578 731.344V739.953H147.094V737.484H144.469V736.297H147.094V734.562H144.469V733.375H147.094V731.344H148.578ZM148.578 740.656V745.344H147.094V741.859H139.078V740.656H148.578ZM157.656 733.641V734.844H150.703V733.641H153.453V731.734H154.922V733.641H157.656ZM154.188 735.688C155.969 735.688 157.219 737.016 157.234 738.906C157.219 740.812 155.969 742.156 154.188 742.156C152.438 742.156 151.141 740.812 151.156 738.906C151.141 737.016 152.438 735.688 154.188 735.688ZM154.188 736.922C153.172 736.922 152.469 737.75 152.469 738.906C152.469 740.094 153.172 740.891 154.188 740.891C155.188 740.891 155.922 740.094 155.922 738.906C155.922 737.75 155.188 736.922 154.188 736.922ZM162.719 731.328V745.328H161.312V738.375H159.703V744.672H158.297V731.641H159.703V737.156H161.312V731.328H162.719ZM177.328 739.219V740.422H171.641V745.312H170.188V740.422H164.562V739.219H177.328ZM176.125 732.156V733.344H171.797C171.82 735.078 173.977 736.625 176.625 736.984L176.078 738.156C173.781 737.797 171.797 736.664 170.953 735.062C170.086 736.664 168.109 737.797 165.844 738.156L165.281 736.984C167.898 736.625 170.055 735.078 170.109 733.344H165.75V732.156H176.125ZM182.656 735.156C182.656 737.391 183.594 739.781 185.469 740.922L184.641 742.062C183.328 741.273 182.438 739.875 181.969 738.25C181.445 740.031 180.484 741.547 179.125 742.375L178.203 741.266C180.188 740.078 181.219 737.609 181.219 735.219V732.609H182.656V735.156ZM190.438 731.328V745.328H189.016V731.328H190.438ZM187.531 731.594V744.641H186.125V737.484H183.953V736.25H186.125V731.594H187.531ZM205.031 742.344V743.578H192.219V742.344H195.281V738.688C194.133 738.055 193.438 737.047 193.438 735.797C193.438 733.594 195.594 732.141 198.594 732.141C201.609 732.141 203.766 733.594 203.766 735.797C203.766 737.031 203.094 738.023 201.969 738.656V742.344H205.031ZM198.594 733.328C196.391 733.328 194.875 734.281 194.875 735.797C194.875 737.297 196.391 738.281 198.594 738.281C200.781 738.281 202.328 737.297 202.328 735.797C202.328 734.281 200.781 733.328 198.594 733.328ZM196.75 742.344H200.469V739.219C199.898 739.367 199.266 739.438 198.594 739.438C197.938 739.438 197.312 739.367 196.75 739.234V742.344ZM207.641 744.109C207.031 744.109 206.516 743.609 206.531 743C206.516 742.391 207.031 741.891 207.641 741.891C208.234 741.891 208.75 742.391 208.75 743C208.75 743.609 208.234 744.109 207.641 744.109Z" fill="#9CA3AF"/>
<rect y="775" width="375" height="64" fill="white"/>
<rect x="16" y="787" width="343" height="40" rx="12" fill="#9CA3AF"/>
<path d="M185.6 800.871V804.467H187.268V805.725H185.6V809.225H184.082V800.871H185.6ZM175.701 807.748C176.631 807.748 177.704 807.741 178.818 807.707V806.955C177.444 806.784 176.576 806.121 176.576 805.15C176.576 804.016 177.766 803.305 179.557 803.318C181.361 803.305 182.537 804.016 182.537 805.15C182.537 806.114 181.689 806.771 180.336 806.941V807.652C181.389 807.604 182.448 807.522 183.439 807.393L183.562 808.445C180.924 808.91 178.039 808.938 175.865 808.938L175.701 807.748ZM185.6 809.758V813.217H184.082V810.947H177.26V809.758H185.6ZM183.111 801.842V802.963H176.016V801.842H178.818V800.762H180.336V801.842H183.111ZM179.557 804.344C178.6 804.33 178.025 804.617 178.039 805.15C178.025 805.656 178.6 805.984 179.557 805.971C180.514 805.984 181.088 805.656 181.088 805.15C181.088 804.617 180.514 804.33 179.557 804.344ZM198.205 800.871V809.799H196.674V800.871H198.205ZM198.547 811.74V812.971H190.029V808.896H191.561V811.74H198.547ZM191.465 801.678C193.338 801.678 194.787 802.977 194.787 804.768C194.787 806.6 193.338 807.871 191.465 807.871C189.578 807.871 188.129 806.6 188.129 804.768C188.129 802.977 189.578 801.678 191.465 801.678ZM191.465 803.004C190.412 803.004 189.605 803.701 189.619 804.768C189.605 805.861 190.412 806.545 191.465 806.545C192.49 806.545 193.297 805.861 193.297 804.768C193.297 803.701 192.49 803.004 191.465 803.004Z" fill="white"/>
</g>
<defs>
<clipPath id="clip0_523_13566">
<rect width="375" height="839" rx="20" fill="white"/>
</clipPath>
<clipPath id="clip1_523_13566">
<rect x="133" y="412" width="109" height="76" rx="8" fill="white"/>
</clipPath>
<clipPath id="clip2_523_13566">
<rect x="250" y="412" width="109" height="76" rx="8" fill="white"/>
</clipPath>
</defs>
</svg>
