<svg width="375" height="667" viewBox="0 0 375 667" fill="none" xmlns="http://www.w3.org/2000/svg">
<g clip-path="url(#clip0_523_12557)">
<rect width="375" height="667" rx="20" fill="#F9FAFB"/>
<g clip-path="url(#clip1_523_12557)">
<mask id="path-2-inside-1_523_12557" fill="white">
<path d="M0 0H375V56H0V0Z"/>
</mask>
<path d="M0 0H375V56H0V0Z" fill="white"/>
<g clip-path="url(#clip2_523_12557)">
<path d="M27.2392 31.7931C27.2392 32.097 27.1543 32.325 26.9844 32.477C26.8235 32.6289 26.5911 32.7049 26.2871 32.7049C25.9832 32.7049 25.7463 32.6289 25.5764 32.477C25.4155 32.325 25.335 32.097 25.335 31.7931V26.322H24.3159C24.2801 26.8852 24.2042 27.3947 24.0879 27.8507C23.9717 28.3066 23.7974 28.691 23.565 29.0039C23.3415 29.3168 23.0599 29.5581 22.7202 29.728C22.3805 29.8979 21.9737 29.9828 21.4999 29.9828C20.9725 29.9828 20.5255 29.88 20.1589 29.6744C19.7924 29.4598 19.4929 29.1603 19.2605 28.7759C19.037 28.3915 18.8761 27.9267 18.7778 27.3813C18.6794 26.8271 18.6302 26.2102 18.6302 25.5308C18.6302 24.8514 18.6794 24.239 18.7778 23.6937C18.8761 23.1394 19.037 22.6701 19.2605 22.2857C19.4929 21.9013 19.7924 21.6063 20.1589 21.4007C20.5255 21.1861 20.9725 21.0788 21.4999 21.0788C21.9648 21.0788 22.367 21.1638 22.7068 21.3336C23.0465 21.4945 23.3281 21.7314 23.5516 22.0443C23.775 22.3483 23.9449 22.7237 24.0611 23.1707C24.1863 23.6088 24.2712 24.1049 24.3159 24.6592H25.335V21.6957C25.335 21.3917 25.4155 21.1638 25.5764 21.0118C25.7463 20.8598 25.9832 20.7838 26.2871 20.7838C26.5911 20.7838 26.8235 20.8598 26.9844 21.0118C27.1543 21.1638 27.2392 21.3917 27.2392 21.6957V31.7931ZM29.8809 32.1685C29.8809 32.4725 29.7959 32.7005 29.6261 32.8524C29.4562 33.0133 29.2193 33.0938 28.9154 33.0938C28.6114 33.0938 28.3745 33.0133 28.2047 32.8524C28.0348 32.7005 27.9499 32.4725 27.9499 32.1685V21.575C27.9499 21.271 28.0348 21.0431 28.2047 20.8911C28.3745 20.7302 28.6114 20.6497 28.9154 20.6497C29.2193 20.6497 29.4562 20.7302 29.6261 20.8911C29.7959 21.0431 29.8809 21.271 29.8809 21.575V32.1685ZM20.4942 25.5308C20.4942 26.398 20.5657 27.0729 20.7087 27.5557C20.8518 28.0295 21.1155 28.2664 21.4999 28.2664C21.8843 28.2664 22.148 28.0295 22.2911 27.5557C22.4341 27.0729 22.5056 26.398 22.5056 25.5308C22.5056 24.6637 22.4341 23.9932 22.2911 23.5194C22.148 23.0366 21.8843 22.7953 21.4999 22.7953C21.1155 22.7953 20.8518 23.0366 20.7087 23.5194C20.5657 23.9932 20.4942 24.6637 20.4942 25.5308ZM32.0093 22.1382C32.0093 21.8342 32.0987 21.6063 32.2775 21.4543C32.4652 21.2934 32.7111 21.2129 33.015 21.2129C33.319 21.2129 33.5604 21.2934 33.7391 21.4543C33.9269 21.6063 34.0207 21.8342 34.0207 22.1382V24.0155H36.3272V22.1382C36.3272 21.8342 36.4166 21.6063 36.5954 21.4543C36.7831 21.2934 37.029 21.2129 37.3329 21.2129C37.6369 21.2129 37.8782 21.2934 38.057 21.4543C38.2448 21.6063 38.3386 21.8342 38.3386 22.1382V24.4983H40.4171V21.6286C40.4171 21.3157 40.5154 21.0744 40.7121 20.9045C40.9177 20.7347 41.177 20.6497 41.4899 20.6497C41.8028 20.6497 42.0575 20.7347 42.2542 20.9045C42.4598 21.0744 42.5626 21.3157 42.5626 21.6286V32.1149C42.5626 32.4278 42.4598 32.6692 42.2542 32.839C42.0575 33.0089 41.8028 33.0938 41.4899 33.0938C41.177 33.0938 40.9177 33.0089 40.7121 32.839C40.5154 32.6692 40.4171 32.4278 40.4171 32.1149V26.2817H38.3386V28.5748C38.3386 29.4598 37.8916 29.9023 36.9977 29.9023H33.3503C32.4563 29.9023 32.0093 29.4598 32.0093 28.5748V22.1382ZM34.0207 25.7588V27.9177C34.0207 28.016 34.0342 28.0831 34.061 28.1189C34.0878 28.1457 34.1504 28.1591 34.2487 28.1591H36.0992C36.1976 28.1591 36.2601 28.1457 36.287 28.1189C36.3138 28.0831 36.3272 28.016 36.3272 27.9177V25.7588H34.0207ZM53.1422 21.6286C53.1422 21.3157 53.2406 21.0744 53.4373 20.9045C53.6429 20.7347 53.9021 20.6497 54.215 20.6497C54.5279 20.6497 54.7827 20.7347 54.9794 20.9045C55.185 21.0744 55.2878 21.3157 55.2878 21.6286V26.9254C55.2878 27.2383 55.185 27.4797 54.9794 27.6495C54.7827 27.8194 54.5279 27.9043 54.215 27.9043C53.9021 27.9043 53.6429 27.8194 53.4373 27.6495C53.2406 27.4797 53.1422 27.2383 53.1422 26.9254V21.6286ZM50.9028 28.1054C51.5465 28.1054 52.1365 28.1546 52.6729 28.253C53.2182 28.3423 53.6831 28.4899 54.0675 28.6955C54.4519 28.9011 54.7514 29.1648 54.9659 29.4866C55.1805 29.8085 55.2878 30.2018 55.2878 30.6667C55.2878 31.1315 55.1805 31.5249 54.9659 31.8467C54.7514 32.1685 54.4519 32.4323 54.0675 32.6379C53.6831 32.8435 53.2182 32.991 52.6729 33.0804C52.1365 33.1787 51.5465 33.2279 50.9028 33.2279C50.2592 33.2279 49.6647 33.1787 49.1194 33.0804C48.583 32.991 48.1226 32.8435 47.7382 32.6379C47.3538 32.4323 47.0543 32.1685 46.8398 31.8467C46.6252 31.5249 46.5179 31.1315 46.5179 30.6667C46.5179 30.2018 46.6252 29.8085 46.8398 29.4866C47.0543 29.1648 47.3538 28.9011 47.7382 28.6955C48.1226 28.4899 48.583 28.3423 49.1194 28.253C49.6647 28.1546 50.2592 28.1054 50.9028 28.1054ZM50.9028 31.5919C51.18 31.5919 51.4526 31.5785 51.7208 31.5517C51.989 31.5249 52.2259 31.4757 52.4315 31.4042C52.6461 31.3327 52.8159 31.2388 52.9411 31.1226C53.0752 30.9974 53.1422 30.8455 53.1422 30.6667C53.1422 30.4879 53.0752 30.3404 52.9411 30.2242C52.8159 30.099 52.6461 30.0007 52.4315 29.9291C52.2259 29.8576 51.989 29.8085 51.7208 29.7816C51.4526 29.7548 51.18 29.7414 50.9028 29.7414C50.6257 29.7414 50.3531 29.7548 50.0849 29.7816C49.8167 29.8085 49.5753 29.8576 49.3608 29.9291C49.1551 30.0007 48.9853 30.099 48.8512 30.2242C48.726 30.3404 48.6635 30.4879 48.6635 30.6667C48.6635 30.8455 48.726 30.9974 48.8512 31.1226C48.9853 31.2388 49.1551 31.3327 49.3608 31.4042C49.5753 31.4757 49.8167 31.5249 50.0849 31.5517C50.3531 31.5785 50.6257 31.5919 50.9028 31.5919ZM51.4795 27.14C50.8 27.2383 50.134 27.3098 49.4814 27.3545C48.8378 27.3903 48.1494 27.4081 47.4164 27.4081H46.3838C45.9279 27.4081 45.5971 27.3098 45.3915 27.1131C45.1859 26.9075 45.0831 26.5857 45.0831 26.1477V24.6056C45.0831 24.1675 45.1859 23.8457 45.3915 23.6401C45.5971 23.4345 45.9279 23.3316 46.3838 23.3316H49.0657C49.182 23.3316 49.2401 23.2735 49.2401 23.1573V22.6746C49.2401 22.6031 49.2267 22.5584 49.1998 22.5405C49.182 22.5226 49.1373 22.5137 49.0657 22.5137H46.0754C45.8072 22.5137 45.5837 22.4466 45.4049 22.3125C45.2351 22.1695 45.1502 21.9683 45.1502 21.7091C45.1502 21.4409 45.2351 21.2398 45.4049 21.1057C45.5837 20.9626 45.8072 20.8911 46.0754 20.8911H49.9508C50.4156 20.8911 50.7464 20.9894 50.9431 21.1861C51.1487 21.3828 51.2515 21.7091 51.2515 22.165V23.6132C51.2515 24.0692 51.1487 24.3999 50.9431 24.6056C50.7464 24.8022 50.4156 24.9006 49.9508 24.9006H47.2555C47.1839 24.9006 47.1392 24.9095 47.1214 24.9274C47.1035 24.9453 47.0945 24.99 47.0945 25.0615V25.6649C47.0945 25.7364 47.1035 25.7811 47.1214 25.799C47.1392 25.8169 47.1839 25.8258 47.2555 25.8258H47.765C48.3819 25.8258 48.9763 25.8035 49.5485 25.7588C50.1206 25.7141 50.6749 25.6515 51.2113 25.571C51.4705 25.5263 51.694 25.5487 51.8817 25.6381C52.0695 25.7275 52.1902 25.9063 52.2438 26.1745C52.2974 26.4427 52.2483 26.6617 52.0963 26.8315C51.9443 26.9925 51.7387 27.0953 51.4795 27.14Z" fill="black"/>
</g>
<path d="M95.7031 31.4688V32.7129H84.4102V31.4688H89.2773V28.7754H85.6543V22.8145H94.4043V28.7754H90.7812V31.4688H95.7031ZM87.1445 24.0312V27.5859H92.9004V24.0312H87.1445ZM106.805 21.8711V28.8711H105.273V21.8711H106.805ZM106.805 29.4727V34.0664H98.6016V29.4727H106.805ZM100.105 30.6758V32.8359H105.314V30.6758H100.105ZM100.064 22.459C101.965 22.459 103.387 23.6621 103.387 25.4121C103.387 27.1074 101.965 28.3379 100.064 28.3379C98.1504 28.3379 96.7285 27.1074 96.7285 25.4121C96.7285 23.6621 98.1504 22.459 100.064 22.459ZM100.064 23.7441C98.9844 23.7441 98.2051 24.3867 98.2188 25.4121C98.2051 26.4102 98.9844 27.0527 100.064 27.0527C101.131 27.0527 101.896 26.4102 101.896 25.4121C101.896 24.3867 101.131 23.7441 100.064 23.7441ZM116.375 24.3867C116.375 25.7129 117.373 27.0117 119.314 27.5312L118.631 28.6934C117.195 28.3174 116.184 27.4971 115.637 26.4375C115.083 27.5996 114.044 28.502 112.588 28.9258L111.863 27.7227C113.818 27.2031 114.857 25.8359 114.857 24.3867V24.3457H112.273V23.1426H114.857V21.8027H116.389V23.1426H118.959V24.3457H116.375V24.3867ZM121.68 21.8574V24.7285H123.402V25.9863H121.68V28.9395H120.162V21.8574H121.68ZM121.857 29.5137V30.7305H118.59C118.877 31.7559 120.265 32.7129 122.377 33.0137L121.83 34.1758C119.896 33.9023 118.433 33.0752 117.715 31.9473C117.004 33.0684 115.555 33.875 113.641 34.1484L113.08 33C115.199 32.7061 116.573 31.7832 116.867 30.7305H113.586V29.5137H121.857ZM134.354 21.8574V34.2168H132.822V21.8574H134.354ZM130.662 23.1699C130.662 26.8477 129.24 29.9785 124.906 32.0293L124.113 30.8125C127.347 29.2744 128.851 27.1826 129.117 24.373H124.742V23.1699H130.662Z" fill="#34B17B"/>
<path d="M151.527 23.9766C151.527 24.9541 151.76 26.2119 152.594 27.1074C153.407 26.2256 153.619 24.9814 153.633 23.9766V23.8672H152.854V22.6504H156.408V23.8672H155.082V23.9766C155.082 25.3027 155.561 26.8477 156.969 27.5586L156.176 28.666C155.253 28.1738 154.686 27.3604 154.371 26.4102C154.063 27.3877 153.53 28.2695 152.594 28.8027C151.671 28.2764 151.131 27.4014 150.83 26.4512C150.502 27.3877 149.935 28.1943 149.025 28.666L148.219 27.5586C149.613 26.8203 150.119 25.2891 150.119 23.9766V23.8672H148.684V22.6504H152.32V23.8672H151.527V23.9766ZM158.91 21.8574V29.0625H157.393V21.8574H158.91ZM158.91 29.6777V34.0664H150.461V29.6777H158.91ZM151.965 30.8672V32.8359H157.434V30.8672H151.965ZM170.258 21.8711V25.7539H171.98V27.0117H170.258V31.0996H168.74V21.8711H170.258ZM167.852 23.2383V24.4551H160.523V23.2383H163.436V21.8574H164.953V23.2383H167.852ZM164.188 24.9609C165.965 24.9609 167.195 25.9043 167.209 27.3262C167.195 28.7344 165.965 29.6641 164.188 29.6641C162.396 29.6641 161.152 28.7344 161.152 27.3262C161.152 25.9043 162.396 24.9609 164.188 24.9609ZM164.188 26.1367C163.244 26.1367 162.629 26.5742 162.629 27.3262C162.629 28.0645 163.244 28.502 164.188 28.4883C165.131 28.502 165.76 28.0645 165.76 27.3262C165.76 26.5742 165.131 26.1367 164.188 26.1367ZM170.75 32.7402V33.9707H162.342V30.375H163.859V32.7402H170.75ZM187.225 31.4688V32.7129H175.932V31.4688H180.799V28.7754H177.176V22.8145H185.926V28.7754H182.303V31.4688H187.225ZM178.666 24.0312V27.5859H184.422V24.0312H178.666ZM198.326 21.8711V28.8711H196.795V21.8711H198.326ZM198.326 29.4727V34.0664H190.123V29.4727H198.326ZM191.627 30.6758V32.8359H196.836V30.6758H191.627ZM191.586 22.459C193.486 22.459 194.908 23.6621 194.908 25.4121C194.908 27.1074 193.486 28.3379 191.586 28.3379C189.672 28.3379 188.25 27.1074 188.25 25.4121C188.25 23.6621 189.672 22.459 191.586 22.459ZM191.586 23.7441C190.506 23.7441 189.727 24.3867 189.74 25.4121C189.727 26.4102 190.506 27.0527 191.586 27.0527C192.652 27.0527 193.418 26.4102 193.418 25.4121C193.418 24.3867 192.652 23.7441 191.586 23.7441Z" fill="#111827"/>
<path d="M223.703 31.4688V32.7129H212.41V31.4688H217.277V28.7754H213.654V22.8145H222.404V28.7754H218.781V31.4688H223.703ZM215.145 24.0312V27.5859H220.9V24.0312H215.145ZM235.789 28.0098V29.2266H224.51V28.0098H235.789ZM234.531 25.6582V26.8887H225.891V22.3496H234.422V23.5527H227.408V25.6582H234.531ZM234.613 32.7266V33.957H225.904V30.3066H227.395V32.7266H234.613ZM250.227 21.8574V34.2305H248.723V21.8574H250.227ZM246.426 22.9375V27.5723H242.174V30.0605C244.122 30.0469 245.804 29.9512 247.725 29.623L247.861 30.8672C245.756 31.2363 243.91 31.3047 241.695 31.3047H240.615V26.3691H244.881V24.168H240.602V22.9375H246.426ZM263.311 28.9258V30.1562H260.658V34.2168H259.141V30.1562H256.215V34.2168H254.656V30.1562H252.018V28.9258H263.311ZM254.889 22.3359V23.8125H260.412V22.3359H261.943V27.668H253.385V22.3359H254.889ZM254.889 26.4512H260.412V25.002H254.889V26.4512Z" fill="#111827"/>
<g clip-path="url(#clip3_523_12557)">
<circle cx="339" cy="28" r="19.5" fill="#F9FAFB" stroke="#9CA3AF"/>
<circle cx="339" cy="28" r="19" stroke="#E5E7EB" stroke-width="2"/>
<path fill-rule="evenodd" clip-rule="evenodd" d="M350.462 32.9949C348.534 37.4124 344.127 40.5 339 40.5C333.556 40.5 328.926 37.0209 327.21 32.1651C324.966 32.1003 323.166 30.2604 323.166 28.0002C323.166 25.74 324.966 23.9001 327.21 23.8353C328.926 18.9793 333.556 15.5 339 15.5C344.755 15.5 349.602 19.39 351.055 24.6844C353.174 24.8805 354.833 26.6631 354.833 28.8332C354.833 31.1344 352.967 32.9998 350.666 32.9998C350.598 32.9998 350.529 32.9982 350.462 32.9949Z" fill="#E5E7EB"/>
<path fill-rule="evenodd" clip-rule="evenodd" d="M337.833 26.0012C337.439 25.2107 336.585 24.6665 335.577 24.6665C335.136 24.6665 334.454 24.9619 334.173 25.4418C334.133 25.5526 333.972 25.5526 333.932 25.4418C333.611 24.9988 332.969 24.7034 332.488 24.7034C331.164 24.7034 330.04 25.7002 330 26.9186V26.9924C330 27.62 330.281 28.2107 330.762 28.6538V28.6907C330.802 28.7276 332.728 30.2782 333.611 30.9797C333.852 31.1643 334.213 31.1643 334.454 30.9797C334.824 30.685 335.372 30.2406 335.889 29.8215L335.889 29.8213C336.602 29.2426 337.256 28.7121 337.302 28.6907V28.6538C337.728 28.2946 337.997 27.7912 338.053 27.2199C338.331 27.1858 338.645 27.1666 339 27.1666C339.539 27.1666 339.985 27.211 340.351 27.2846C340.351 27.2968 340.35 27.3091 340.35 27.3215V27.3953C340.35 28.0229 340.631 28.6136 341.112 29.0567V29.0936C341.152 29.1305 343.078 30.6811 343.961 31.3826C344.202 31.5672 344.563 31.5672 344.803 31.3826C345.174 31.0879 345.722 30.6434 346.238 30.2242C346.952 29.6455 347.605 29.115 347.652 29.0936V29.0567C348.133 28.6505 348.414 28.0598 348.414 27.3953V27.3215C348.374 26.0662 347.291 25.0694 345.927 25.0694C345.485 25.0694 344.803 25.3647 344.522 25.8447C344.482 25.9555 344.322 25.9555 344.282 25.8447C343.961 25.4017 343.319 25.1063 342.837 25.1063C341.985 25.1063 341.216 25.5195 340.765 26.1391C340.336 26.0052 339.761 25.9166 339 25.9166C338.548 25.9166 338.162 25.9478 337.833 26.0012Z" fill="#6B7280"/>
<path d="M336.916 31.75C337.055 32.0278 337.666 32.5833 338.999 32.5833C340.333 32.5833 340.944 32.0278 341.083 31.75" stroke="#6B7280" stroke-width="1.25" stroke-linecap="round" stroke-linejoin="round"/>
<path d="M336.995 17.2968C336.557 17.6394 335.87 19.0196 336.249 19.9906C336.627 20.9616 337.22 21.2021 337.52 21.2795" stroke="#6B7280" stroke-width="0.993658" stroke-linecap="round"/>
<path d="M339.65 17.9809C339.212 18.2793 338.897 19.5632 339.317 20.4602C339.629 21.1278 340.427 21.3869 340.681 21.4522" stroke="#6B7280" stroke-width="0.993658" stroke-linecap="round"/>
<path d="M341.858 18.4372C341.649 18.7121 341.802 19.5046 342.163 20.041C342.376 20.3581 343.02 20.8212 343.191 20.8094" stroke="#6B7280" stroke-width="0.991667" stroke-linecap="round"/>
</g>
</g>
<path d="M375 54H0V58H375V54Z" fill="#DADBD8" mask="url(#path-2-inside-1_523_12557)"/>
<circle cx="52" cy="116" r="35" fill="#F1FAF6" stroke="#1F2937" stroke-width="2"/>
<path d="M50.7016 95.3294C50.3764 95.3481 50.1206 95.4842 49.784 95.8131L49.3211 96.2749L48.8256 95.5169C48.4026 94.8551 48.2789 94.7409 47.827 94.6665C46.8719 94.4998 46.3737 95.3652 46.6204 96.7441C46.7574 97.4516 47.3778 98.9262 48.0819 100.111L48.5141 100.86L48.8509 100.607C49.2599 100.299 50.6059 98.6817 51.1674 97.8253C51.9872 96.5858 51.7436 95.261 50.7016 95.3294ZM50.2186 97.7669C49.8402 98.3158 49.3025 99.0036 49.0169 99.2753C48.5179 99.7642 48.4938 99.7823 48.2674 99.4816C47.914 99.0124 47.3051 97.2276 47.2464 96.4989C47.1996 95.6858 47.4488 95.2908 47.991 95.3348C48.491 95.373 48.5605 95.4903 48.716 96.4478C48.7832 96.8873 48.9227 97.3479 49.0314 97.4922C49.1854 97.6967 49.2516 97.6845 49.495 97.407C49.6483 97.235 50.0631 96.8095 50.4328 96.4744L51.1093 95.8707L51.0138 96.3197C50.9691 96.5607 50.609 97.209 50.2186 97.7669Z" fill="black"/>
<path d="M45.4885 101.677C45.2106 101.844 44.9312 102.19 44.7835 102.622C44.5557 103.287 44.5254 103.317 44.1368 103.043C43.4012 102.55 42.6808 102.424 42.1912 102.739C40.8377 103.582 41.7568 105.183 44.7232 107.142C45.4947 107.648 46.2369 108.062 46.3813 108.052C46.7482 108.036 47.6475 105.35 47.6998 104.082C47.7738 102.339 46.5996 101.073 45.4885 101.677ZM46.5546 104.434C46.4825 105.172 46.3068 106.097 46.1652 106.511C45.9251 107.212 45.9009 107.224 45.4702 106.956C44.4771 106.335 43.3312 105.279 42.9872 104.7C42.2039 103.407 42.9738 102.625 43.8844 103.781C44.7174 104.87 44.9204 105.04 45.203 105.036C45.3654 105.031 45.4927 104.894 45.4824 104.69C45.463 104.1 45.8296 102.618 46.0725 102.319C46.3031 102.057 46.3329 102.087 46.5094 102.569C46.6154 102.847 46.6446 103.701 46.5546 104.434Z" fill="black"/>
<path d="M66.3647 105.471C64.5838 105.833 62.4133 107.141 61.5228 108.365C61.1054 108.949 60.4654 110.174 60.1593 111.064L59.575 112.706L58.3228 111.621C55.7905 109.367 52.98 108.754 50.5591 109.951C47.6095 111.37 46.9138 115.739 48.973 119.941C49.9469 121.944 53.62 125.617 56.1523 127.12C59.3802 129.012 61.662 129.764 64.222 129.792C66.1977 129.792 66.6151 129.708 67.9508 128.985C68.7856 128.511 70.177 127.454 71.0396 126.591C77.2171 120.497 78.7198 111.426 74.184 107.419C72.2918 105.777 69.0082 104.942 66.3647 105.471ZM71.5405 106.834C73.8223 108.003 74.991 109.979 75.1579 112.984C75.4084 117.436 73.4327 122.25 69.9265 125.84C67.6726 128.122 66.0029 129.096 64.3333 129.124C60.048 129.151 52.6461 124.031 50.4478 119.551C48.973 116.602 48.9452 113.262 50.3643 111.565C52.1731 109.422 54.2044 109.589 56.9036 112.094C57.7941 112.929 58.7402 113.958 58.9906 114.403C59.9924 116.101 60.9107 115.739 61.1054 113.569C61.4115 109.923 63.6377 107.085 66.7264 106.278C67.9508 105.944 70.3717 106.25 71.5405 106.834Z" fill="black"/>
<path d="M64.1521 116.869C63.8276 116.965 63.6963 117.262 63.7513 117.704C63.8751 118.698 64.6656 118.515 64.6522 117.507C64.656 116.862 64.556 116.734 64.1521 116.869Z" fill="black"/>
<path d="M59.7314 117.499C59.4123 117.612 59.2965 117.915 59.3742 118.354C59.549 119.34 60.329 119.117 60.2638 118.111C60.2343 117.467 60.1278 117.344 59.7314 117.499Z" fill="black"/>
<path d="M65.7176 120.097C65.6141 119.972 65.145 120.131 64.7082 120.449C63.7282 121.136 62.0968 121.328 60.8896 120.902C59.8661 120.541 59.4849 120.702 59.499 121.415C59.5146 122.04 61.4998 122.77 62.7176 122.58C64.4556 122.337 66.2858 120.828 65.7176 120.097Z" fill="black"/>
<path d="M32.6351 115.099C34.2992 114.368 36.8268 114.187 38.26 114.675C38.9378 114.912 40.1663 115.544 40.9295 116.095L42.353 117.101L42.7513 115.492C43.5225 112.191 45.467 110.071 48.1352 109.655C51.3637 109.115 54.4493 112.285 55.1869 116.906C55.5451 119.105 54.6589 124.223 53.4549 126.91C51.9066 130.317 50.4744 132.245 48.3979 133.743C46.7831 134.881 46.3938 135.054 44.8852 135.232C43.9304 135.326 42.1839 135.263 40.9819 135.055C32.4217 133.633 25.9672 127.084 27.3661 121.196C27.9669 118.764 30.1698 116.189 32.6351 115.099ZM29.1902 119.195C27.9984 121.465 28.1814 123.753 29.7763 126.306C32.1366 130.089 36.5249 132.886 41.4588 133.8C44.6157 134.366 46.5415 134.2 47.9222 133.261C51.4409 130.815 54.5412 122.366 53.757 117.437C53.2631 114.177 51.3621 111.431 49.2242 110.862C46.5114 110.152 44.9472 111.459 44.1838 115.061C43.9369 116.257 43.7568 117.643 43.8086 118.151C43.9677 120.116 43.0087 120.349 41.599 118.687C39.2487 115.884 35.7939 114.847 32.8044 115.967C31.6112 116.399 29.8088 118.044 29.1902 119.195Z" fill="black"/>
<path d="M41.0098 123.14C41.3306 123.032 41.6089 123.199 41.8185 123.592C42.29 124.475 41.5387 124.782 40.969 123.95C40.5941 123.425 40.6022 123.263 41.0098 123.14Z" fill="black"/>
<path d="M44.9855 121.109C45.3115 121.017 45.5808 121.198 45.7699 121.601C46.1952 122.508 45.4292 122.775 44.903 121.916C44.5557 121.372 44.5722 121.21 44.9855 121.109Z" fill="black"/>
<path d="M41.592 126.68C41.6045 126.518 42.0797 126.378 42.6199 126.387C43.8168 126.384 45.2608 125.601 46.0023 124.557C46.6309 123.672 47.0351 123.584 47.4344 124.175C47.7818 124.695 46.5794 126.435 45.4745 126.981C43.914 127.784 41.5489 127.605 41.592 126.68Z" fill="black"/>
<path d="M114.076 91.9121V95.084H115.854V96.1914H114.076V99.2949H112.777V91.9121H114.076ZM114.076 99.9375V104.012H106.256V99.9375H114.076ZM107.527 100.963V102.959H112.791V100.963H107.527ZM111.766 93.1562V94.1953H104.465V93.1562H107.473V91.8164H108.771V93.1562H111.766ZM108.115 94.7285C109.879 94.7285 111.082 95.6035 111.082 96.916C111.082 98.2422 109.879 99.1035 108.115 99.1172C106.324 99.1035 105.135 98.2422 105.135 96.916C105.135 95.6035 106.324 94.7285 108.115 94.7285ZM108.115 95.7266C107.076 95.7129 106.379 96.1777 106.393 96.916C106.379 97.6816 107.076 98.1328 108.115 98.1328C109.154 98.1328 109.852 97.6816 109.865 96.916C109.852 96.1777 109.154 95.7129 108.115 95.7266ZM119.586 93.3613C119.572 96.1094 119.23 98.9395 117.521 101.346L116.51 100.771C117.938 98.8574 118.369 96.7383 118.465 94.4277H116.797V93.3613H119.586ZM122.307 93.3613C122.307 94.3936 122.286 95.5215 122.156 96.6562H123.592V92.2266H124.822V103.561H123.592V97.709H122.006C121.726 99.2334 121.213 100.744 120.27 102.084L119.258 101.496C120.844 99.3701 121.131 96.793 121.186 94.4277H119.955V93.3613H122.307ZM127.146 91.9121V104.162H125.902V91.9121H127.146ZM141.693 91.8711V94.7422H143.484V95.8086H141.693V98.6113H140.395V91.8711H141.693ZM141.693 99.1855V102.029H135.076V103.055H142.117V104.039H133.805V101.113H140.408V100.156H133.777V99.1855H141.693ZM139.383 92.9512V93.9766H132.082V92.9512H135.09V91.8027H136.389V92.9512H139.383ZM135.732 94.4414C137.523 94.4414 138.699 95.207 138.699 96.4512C138.699 97.6953 137.523 98.4473 135.732 98.4473C133.928 98.4473 132.752 97.6953 132.752 96.4512C132.752 95.207 133.928 94.4414 135.732 94.4414ZM135.732 95.3711C134.68 95.3711 133.996 95.7949 134.01 96.4512C133.996 97.1074 134.68 97.5039 135.732 97.5039C136.785 97.5039 137.469 97.1074 137.482 96.4512C137.469 95.7949 136.785 95.3711 135.732 95.3711ZM151.838 95.0293C151.824 97.2031 153.082 99.418 154.914 100.307L154.107 101.346C152.774 100.655 151.742 99.2812 151.209 97.6406C150.655 99.3906 149.582 100.854 148.188 101.578L147.381 100.525C149.268 99.623 150.539 97.2715 150.539 95.0293V92.9375H151.838V95.0293ZM157.129 91.9121V96.793H159.098V97.9004H157.129V104.162H155.83V91.9121H157.129ZM169.311 91.9258V94.9746H171.102V96.0684H169.311V99.2129H168.012V91.9258H169.311ZM169.311 99.7871V104.012H161.463V99.7871H169.311ZM162.734 100.799V102.959H168.053V100.799H162.734ZM165.756 92.5684V96.0273H161.49V97.5586C163.616 97.5518 165.12 97.4902 166.904 97.1895L167.041 98.2285C165.141 98.5703 163.527 98.6387 161.176 98.6387H160.191V95.043H164.484V93.6074H160.178V92.5684H165.756ZM181.93 91.9121V104.189H180.631V91.9121H181.93ZM175.381 92.8281C177.199 92.8281 178.539 94.4961 178.539 97.1211C178.539 99.7598 177.199 101.428 175.381 101.428C173.535 101.428 172.209 99.7598 172.209 97.1211C172.209 94.4961 173.535 92.8281 175.381 92.8281ZM175.381 93.9902C174.246 93.9902 173.467 95.1934 173.467 97.1211C173.467 99.0625 174.246 100.266 175.381 100.266C176.502 100.266 177.281 99.0625 177.281 97.1211C177.281 95.1934 176.502 93.9902 175.381 93.9902ZM189.914 99.0898V100.512H191.828V99.0898H193.031V104.012H188.697V99.0898H189.914ZM189.914 103H191.828V101.496H189.914V103ZM196.586 100.006C196.586 101.291 197.297 102.59 198.814 103.123L198.145 104.107C197.037 103.684 196.319 102.884 195.943 101.906C195.533 102.863 194.809 103.67 193.756 104.107L193.1 103.123C194.576 102.521 195.301 101.223 195.301 100.006V99.0078H196.586V100.006ZM190.693 92.4316C192.307 92.4316 193.551 93.3477 193.824 94.7148H196.217V91.9121H197.516V98.4062H196.217V95.7812H193.838C193.571 97.1895 192.32 98.1055 190.693 98.1055C188.82 98.1055 187.48 96.957 187.48 95.2617C187.48 93.5938 188.82 92.4316 190.693 92.4316ZM190.693 93.5117C189.531 93.5117 188.725 94.2227 188.725 95.2617C188.725 96.3145 189.531 97.0391 190.693 97.0527C191.828 97.0391 192.635 96.3145 192.635 95.2617C192.635 94.2227 191.828 93.5117 190.693 93.5117ZM210.846 96.7246V97.791H208.945V104.148H207.646V91.9121H208.945V96.7246H210.846ZM201.152 93.1016V99.9922C202.861 99.9922 204.646 99.8486 206.594 99.4453L206.744 100.539C204.652 100.963 202.711 101.072 200.879 101.072H199.867V93.1016H201.152ZM222.713 101.551V102.631H211.502V101.551H214.182V98.3516C213.177 97.7979 212.568 96.916 212.568 95.8223C212.568 93.8945 214.455 92.623 217.08 92.623C219.719 92.623 221.605 93.8945 221.605 95.8223C221.605 96.9023 221.018 97.7705 220.033 98.3242V101.551H222.713ZM217.08 93.6621C215.152 93.6621 213.826 94.4961 213.826 95.8223C213.826 97.1348 215.152 97.9961 217.08 97.9961C218.994 97.9961 220.348 97.1348 220.348 95.8223C220.348 94.4961 218.994 93.6621 217.08 93.6621ZM215.467 101.551H218.721V98.8164C218.222 98.9463 217.668 99.0078 217.08 99.0078C216.506 99.0078 215.959 98.9463 215.467 98.8301V101.551ZM225.611 100.061C225.625 98.2695 226.158 97.7227 227.061 97.1621C227.635 96.8066 228.072 96.3145 228.072 95.5898C228.072 94.7285 227.416 94.1953 226.596 94.1953C225.857 94.1953 225.146 94.6465 225.078 95.6582H223.602C223.656 93.9219 224.969 92.9648 226.596 92.9648C228.373 92.9648 229.562 94.0312 229.562 95.5898C229.562 96.6836 229.043 97.4219 228.168 97.9551C227.348 98.4473 227.033 98.9531 227.006 100.061V100.143H225.611V100.061ZM226.363 103.096C225.83 103.096 225.379 102.658 225.393 102.125C225.379 101.592 225.83 101.154 226.363 101.154C226.883 101.154 227.334 101.592 227.334 102.125C227.334 102.658 226.883 103.096 226.363 103.096Z" fill="#374151"/>
<path d="M110.521 126.191C110.521 128.793 112.051 131.535 114.617 132.607L113.545 134.154C111.664 133.346 110.293 131.676 109.572 129.654C108.834 131.834 107.445 133.662 105.582 134.541L104.457 133.012C106.971 131.852 108.535 128.898 108.535 126.191V124.855H105.037V123.238H114.002V124.855H110.521V126.191ZM117.746 121.674V137.564H115.777V121.674H117.746ZM132.828 122.447V123.678C132.828 124.908 132.828 126.314 132.441 128.195H134.604V129.777H120.084V128.195H130.473C130.842 126.481 130.877 125.172 130.877 124.012H121.877V122.447H132.828ZM132.811 131.623V137.371H121.824V131.623H132.811ZM123.74 133.152V135.789H130.877V133.152H123.74ZM154.432 134.031V135.631H139.912V134.031H146.17V130.568H141.512V122.904H152.762V130.568H148.104V134.031H154.432ZM143.428 124.469V129.039H150.828V124.469H143.428ZM168.705 121.691V130.691H166.736V121.691H168.705ZM168.705 131.465V137.371H158.158V131.465H168.705ZM160.092 133.012V135.789H166.789V133.012H160.092ZM160.039 122.447C162.482 122.447 164.311 123.994 164.311 126.244C164.311 128.424 162.482 130.006 160.039 130.006C157.578 130.006 155.75 128.424 155.75 126.244C155.75 123.994 157.578 122.447 160.039 122.447ZM160.039 124.1C158.65 124.1 157.648 124.926 157.666 126.244C157.648 127.527 158.65 128.354 160.039 128.354C161.41 128.354 162.395 127.527 162.395 126.244C162.395 124.926 161.41 124.1 160.039 124.1ZM184.736 121.674V137.564H182.855V121.674H184.736ZM181.467 121.955V136.791H179.604V129.232H178.092C177.907 132.326 176.58 134.242 174.611 134.225C172.537 134.242 171.184 132.045 171.184 128.547C171.184 125.049 172.537 122.887 174.611 122.887C176.536 122.887 177.846 124.68 178.074 127.65H179.604V121.955H181.467ZM174.611 124.732C173.609 124.715 172.977 126.068 172.994 128.547C172.977 131.025 173.609 132.379 174.611 132.361C175.666 132.379 176.299 131.025 176.299 128.547C176.299 126.068 175.666 124.715 174.611 124.732ZM196.566 124.943C196.566 126.666 197.85 128.354 200.346 129.039L199.449 130.551C197.621 130.059 196.32 128.986 195.617 127.615C194.914 129.127 193.587 130.296 191.697 130.832L190.766 129.32C193.279 128.617 194.615 126.842 194.615 124.943V124.908H191.293V123.361H194.615V121.604H196.584V123.361H199.889V124.908H196.566V124.943ZM203.387 121.674V125.506H205.602V127.123H203.387V131.025H201.436V121.674H203.387ZM203.387 131.693V137.371H193.121V131.693H203.387ZM195.055 133.24V135.789H201.453V133.24H195.055ZM210.752 122.834C212.193 122.834 213.38 123.634 214.092 125.031H217.801V121.674H219.734V137.582H217.801V131.57H214.232C213.547 133.152 212.29 134.066 210.752 134.066C208.361 134.066 206.674 131.904 206.674 128.441C206.674 125.014 208.361 122.834 210.752 122.834ZM210.752 124.592C209.434 124.592 208.537 126.016 208.555 128.441C208.537 130.885 209.434 132.309 210.752 132.309C212.07 132.309 212.949 130.885 212.967 128.441C212.949 126.016 212.07 124.592 210.752 124.592ZM214.637 126.631C214.751 127.185 214.812 127.791 214.812 128.441C214.812 128.995 214.769 129.505 214.689 129.988H217.801V126.631H214.637ZM229.719 124.205V125.77H221.932V124.205H224.885V122.131H226.818V124.205H229.719ZM225.852 126.613C227.873 126.613 229.314 128.143 229.314 130.305C229.314 132.502 227.873 134.049 225.852 134.049C223.848 134.049 222.371 132.502 222.389 130.305C222.371 128.143 223.848 126.613 225.852 126.613ZM225.852 128.23C224.814 128.23 224.094 129.057 224.111 130.305C224.094 131.588 224.814 132.396 225.852 132.379C226.871 132.396 227.592 131.588 227.592 130.305C227.592 129.057 226.871 128.23 225.852 128.23ZM235.625 121.674V137.564H233.762V129.795H232.215V136.844H230.387V122.008H232.215V128.213H233.762V121.674H235.625ZM252.043 134.049V135.648H237.523V134.049H243.781V130.955H239.123V122.729H241.074V125.33H248.439V122.729H250.391V130.955H245.715V134.049H252.043ZM241.074 129.373H248.439V126.895H241.074V129.373ZM258.037 125.84C258.037 128.406 258.934 131.078 261.078 132.432L260.006 133.926C258.573 133.064 257.642 131.579 257.123 129.83C256.543 131.755 255.523 133.381 254.029 134.295L252.816 132.836C255.119 131.43 256.156 128.635 256.156 125.928V123.08H258.037V125.84ZM266.791 121.674V137.564H264.91V121.674H266.791ZM263.486 121.955V136.791H261.641V128.758H259.373V127.141H261.641V121.955H263.486ZM283.156 134.031V135.631H268.637V134.031H271.994V130.006C270.729 129.285 269.964 128.151 269.973 126.736C269.955 124.205 272.451 122.535 275.861 122.535C279.289 122.535 281.785 124.205 281.785 126.736C281.785 128.125 281.047 129.241 279.816 129.971V134.031H283.156ZM275.861 124.082C273.488 124.082 271.871 125.084 271.889 126.736C271.871 128.371 273.488 129.391 275.861 129.391C278.234 129.391 279.869 128.371 279.869 126.736C279.869 125.084 278.234 124.082 275.861 124.082ZM273.928 134.031H277.83V130.709C277.224 130.85 276.564 130.92 275.861 130.92C275.176 130.92 274.525 130.85 273.928 130.727V134.031Z" fill="#111827"/>
<path d="M31.3281 187.809V189.408H28.9727V197.529H27.0215V181.674H28.9727V187.809H31.3281ZM19.0234 183.221V191.992C21.1416 191.957 23.4004 191.772 25.791 191.271L26.002 192.924C23.3301 193.451 20.7812 193.609 18.4258 193.609H17.0898V183.221H19.0234ZM46.5859 190.674V192.256H40.2578V197.547H38.3242V192.256H32.0664V190.674H46.5859ZM44.8105 182.482V188.811H33.8418V182.482H44.8105ZM35.7578 184.047V187.281H42.8594V184.047H35.7578ZM60.877 181.691V191.377H58.9082V181.691H60.877ZM55.7793 182.641V187.299H50.4004V189.004C53.125 188.995 55.0498 188.907 57.3262 188.564L57.5723 190.129C55.0586 190.533 52.9141 190.604 49.8379 190.604H48.4844V185.84H53.8457V184.24H48.4492V182.641H55.7793ZM55.5332 191.658C58.9082 191.658 60.9648 192.73 60.9648 194.611C60.9648 196.457 58.9082 197.547 55.5332 197.547C52.1406 197.547 50.1016 196.457 50.1016 194.611C50.1016 192.73 52.1406 191.658 55.5332 191.658ZM55.5332 193.188C53.2832 193.188 52.0352 193.68 52.0352 194.611C52.0352 195.525 53.2832 196.018 55.5332 196.018C57.7656 196.018 59.0137 195.525 59.0137 194.611C59.0137 193.68 57.7656 193.188 55.5332 193.188Z" fill="#111827"/>
<g clip-path="url(#clip4_523_12557)">
<mask id="mask0_523_12557" style="mask-type:luminance" maskUnits="userSpaceOnUse" x="67" y="178" width="24" height="24">
<path d="M91 178H67V202H91V178Z" fill="white"/>
</mask>
<g mask="url(#mask0_523_12557)">
<path d="M79 195.611C79.2406 195.771 79.4911 195.916 79.75 196.044V199.75C79.75 199.949 79.671 200.14 79.5303 200.28C79.3897 200.421 79.1989 200.5 79 200.5C78.8012 200.5 78.6104 200.421 78.4697 200.28C78.329 200.14 78.25 199.949 78.25 199.75V196.044C78.5089 195.916 78.7595 195.771 79 195.611ZM85.5719 183.868C85.0293 182.572 84.116 181.466 82.9468 180.688C81.7775 179.91 80.4045 179.495 79 179.495C77.5956 179.495 76.2225 179.91 75.0532 180.688C73.884 181.466 72.9707 182.572 72.4281 183.868C71.2565 184.403 70.2633 185.264 69.5669 186.348C68.8705 187.432 68.5002 188.693 68.5 189.981C68.4906 193.562 71.5 196.656 75.0756 196.75C76.1754 196.776 77.265 196.534 78.25 196.044V192.713L74.1644 190.671C73.9864 190.582 73.851 190.426 73.7881 190.237C73.7251 190.048 73.7398 189.842 73.8288 189.664C73.9178 189.486 74.0739 189.351 74.2627 189.288C74.4515 189.225 74.6576 189.24 74.8356 189.329L78.25 191.037V186.25C78.25 186.051 78.329 185.86 78.4697 185.72C78.6104 185.579 78.8012 185.5 79 185.5C79.1989 185.5 79.3897 185.579 79.5303 185.72C79.671 185.86 79.75 186.051 79.75 186.25V188.787L83.1644 187.079C83.2525 187.035 83.3485 187.008 83.4468 187.001C83.5451 186.994 83.6438 187.007 83.7374 187.038C83.8308 187.069 83.9173 187.118 83.9917 187.183C84.0662 187.247 84.1272 187.326 84.1713 187.414C84.2153 187.502 84.2417 187.598 84.2486 187.697C84.2556 187.795 84.2432 187.894 84.212 187.987C84.1808 188.081 84.1316 188.167 84.067 188.242C84.0024 188.316 83.9238 188.377 83.8356 188.421L79.75 190.463V196.044C80.6824 196.507 81.709 196.748 82.75 196.75H82.9206C86.5 196.656 89.5103 193.562 89.5 189.981C89.4998 188.693 89.1295 187.432 88.4331 186.348C87.7368 185.264 86.7436 184.403 85.5719 183.868Z" fill="black"/>
</g>
</g>
<path d="M16 209C16 208.448 16.4477 208 17 208H90C90.5523 208 91 208.448 91 209C91 209.552 90.5523 210 90 210H17C16.4477 210 16 209.552 16 209Z" fill="#111827"/>
<path d="M116.236 182.641V184.064C116.236 185.55 116.236 187.176 115.814 189.426H118.012V191.008H111.701V197.582H109.732V191.008H103.527V189.426H113.828C114.268 187.264 114.285 185.646 114.285 184.223H105.232V182.641H116.236ZM133.586 189.76V191.307H119.066V189.76H133.586ZM131.793 182.008V186.086H122.846V187.229H132.109V188.723H120.912V184.662H129.842V183.537H120.859V182.008H131.793ZM131.846 192.449V197.371H120.965V192.449H131.846ZM122.881 193.996V195.789H129.912V193.996H122.881ZM147.877 181.691V191.377H145.908V181.691H147.877ZM142.779 182.641V187.299H137.4V189.004C140.125 188.995 142.05 188.907 144.326 188.564L144.572 190.129C142.059 190.533 139.914 190.604 136.838 190.604H135.484V185.84H140.846V184.24H135.449V182.641H142.779ZM142.533 191.658C145.908 191.658 147.965 192.73 147.965 194.611C147.965 196.457 145.908 197.547 142.533 197.547C139.141 197.547 137.102 196.457 137.102 194.611C137.102 192.73 139.141 191.658 142.533 191.658ZM142.533 193.188C140.283 193.188 139.035 193.68 139.035 194.611C139.035 195.525 140.283 196.018 142.533 196.018C144.766 196.018 146.014 195.525 146.014 194.611C146.014 193.68 144.766 193.188 142.533 193.188Z" fill="#9CA3AF"/>
<g clip-path="url(#clip5_523_12557)">
<mask id="mask1_523_12557" style="mask-type:luminance" maskUnits="userSpaceOnUse" x="154" y="178" width="24" height="24">
<path d="M178 178H154V202H178V178Z" fill="white"/>
</mask>
<g mask="url(#mask1_523_12557)">
<path d="M164.04 182.305C166.235 181.638 168.655 182.081 170.4 183.481C171.786 184.589 172.588 186.167 172.652 187.821L172.655 188.033L172.746 188.036C175.046 188.143 176.889 189.997 176.996 192.306L177 192.517C177 194.924 175.115 196.889 172.745 196.999L172.535 197.004H160.657L160.435 196.996C157.495 196.886 155.118 194.597 155.005 191.733L155 191.517C155 188.77 157.08 186.507 159.784 186.1L159.898 186.084L159.968 185.903C160.631 184.283 162.024 182.997 163.797 182.385L164.041 182.305H164.04Z" fill="#9CA3AF"/>
</g>
</g>
<rect x="259" y="176" width="100" height="40" rx="12" fill="#34B17B"/>
<path d="M288.793 199.469V200.713H277.5V199.469H282.367V196.775H278.744V190.814H287.494V196.775H283.871V199.469H288.793ZM280.234 192.031V195.586H285.99V192.031H280.234ZM299.895 189.871V196.871H298.363V189.871H299.895ZM299.895 197.473V202.066H291.691V197.473H299.895ZM293.195 198.676V200.836H298.404V198.676H293.195ZM293.154 190.459C295.055 190.459 296.477 191.662 296.477 193.412C296.477 195.107 295.055 196.338 293.154 196.338C291.24 196.338 289.818 195.107 289.818 193.412C289.818 191.662 291.24 190.459 293.154 190.459ZM293.154 191.744C292.074 191.744 291.295 192.387 291.309 193.412C291.295 194.41 292.074 195.053 293.154 195.053C294.221 195.053 294.986 194.41 294.986 193.412C294.986 192.387 294.221 191.744 293.154 191.744ZM311.297 190.924V196.762H305.445V190.924H311.297ZM306.936 192.141V195.559H309.807V192.141H306.936ZM314.77 189.857V193.48H316.492V194.752H314.77V198.881H313.252V189.857H314.77ZM315.262 200.74V201.971H306.854V198.006H308.371V200.74H315.262ZM328.4 194.807V196.01H317.121V194.807H328.4ZM327.061 192.811V194.014H318.557V190.172H326.951V191.389H320.074V192.811H327.061ZM326.979 196.857V199.961H319.951V200.904H327.32V202.094H318.461V198.867H325.488V198.006H318.447V196.857H326.979ZM339.543 189.857V202.217H338.012V189.857H339.543ZM335.852 191.17C335.852 194.848 334.43 197.979 330.096 200.029L329.303 198.812C332.536 197.274 334.04 195.183 334.307 192.373H329.932V191.17H335.852Z" fill="white"/>
<rect x="16" y="224" width="49" height="36" rx="12" fill="#111827"/>
<path d="M38.6641 235.926V244.895H37.3652V240.287H35.0273V239.234H37.3652V235.926H38.6641ZM38.9922 246.85V247.902H30.707V244.088H32.0059V246.85H38.9922ZM32.8398 238.4C32.8398 239.932 33.9473 241.463 35.793 242.078L35.123 243.117C33.749 242.632 32.7305 241.647 32.1973 240.438C31.6641 241.784 30.5908 242.871 29.1348 243.391L28.4648 242.338C30.3516 241.695 31.5137 240.082 31.5137 238.4V237.922H28.8613V236.855H35.4648V237.922H32.8398V238.4ZM44.2148 239.672C44.2148 241.6 45.1035 243.568 46.7988 244.471L46.0742 245.428C44.8916 244.799 44.0645 243.623 43.627 242.229C43.1826 243.726 42.3623 245.011 41.1797 245.715L40.4141 244.73C42.1094 243.746 42.9844 241.654 42.998 239.672V239.18H40.7832V238.113H42.998V236.35H44.2148V238.113H46.3887V239.18H44.2148V239.672ZM51.0645 235.912V248.162H49.8203V235.912H51.0645ZM48.5762 236.172V247.547H47.3457V241.764H45.582V240.684H47.3457V236.172H48.5762Z" fill="white"/>
<rect x="73" y="224" width="113" height="36" rx="12" fill="#E5E7EB"/>
<path d="M91.0293 236.65C93.6543 236.664 95.5547 237.949 95.5547 239.904C95.5547 241.743 93.9619 242.953 91.6719 243.145V245.551H96.6621V246.631H85.4512V245.551H90.3867V243.145C88.1104 242.953 86.5176 241.743 86.5176 239.904C86.5176 237.949 88.418 236.664 91.0293 236.65ZM91.0293 237.717C89.1426 237.703 87.7754 238.578 87.7754 239.904C87.7754 241.285 89.1426 242.133 91.0293 242.146C92.9297 242.133 94.2969 241.285 94.2969 239.904C94.2969 238.578 92.9297 237.703 91.0293 237.717ZM107.736 235.912V248.162H106.424V235.912H107.736ZM104.824 237.17V238.236H103.553V243.924C104.188 243.883 104.817 243.828 105.426 243.76L105.494 244.717C102.842 245.141 99.9297 245.182 97.6738 245.195L97.5234 244.115L99.1367 244.102V238.236H97.8516V237.17H104.824ZM100.395 244.074C101.01 244.061 101.646 244.04 102.281 244.006V238.236H100.395V244.074ZM115.871 237.648C115.871 239.645 118.004 241.531 120.355 241.955L119.754 243.035C117.799 242.611 115.994 241.326 115.201 239.604C114.395 241.312 112.597 242.598 110.635 243.035L110.061 241.955C112.385 241.518 114.504 239.645 114.504 237.648V236.719H115.871V237.648ZM120.861 245.469V246.549H109.65V245.469H120.861ZM131.389 237.648C131.389 239.645 133.521 241.531 135.873 241.955L135.271 243.035C133.316 242.611 131.512 241.326 130.719 239.604C129.912 241.312 128.114 242.598 126.152 243.035L125.578 241.955C127.902 241.518 130.021 239.645 130.021 237.648V236.719H131.389V237.648ZM136.379 245.469V246.549H125.168V245.469H136.379ZM147.207 242.434V243.473H138.676V236.924H147.084V237.977H139.988V239.631H146.824V240.656H139.988V242.434H147.207ZM148.479 245.551V246.617H137.268V245.551H148.479ZM154.111 237.225V241.586H151.008V244.102C152.341 244.095 153.612 244.047 155.123 243.773L155.232 244.84C153.537 245.141 152.143 245.182 150.598 245.195H149.75V240.547H152.867V238.277H149.736V237.225H154.111ZM159.881 235.912V248.162H158.637V235.912H159.881ZM157.365 236.186V247.533H156.135V241.299H154.686V240.246H156.135V236.186H157.365ZM166.02 238.455C166.02 239.918 167.223 241.285 169.123 241.805L168.508 242.816C167.072 242.42 165.979 241.531 165.404 240.369C164.857 241.647 163.777 242.652 162.301 243.117L161.658 242.092C163.545 241.518 164.721 240.041 164.721 238.455V238.387H162V237.348H164.721V235.912H166.033V237.348H168.727V238.387H166.02V238.455ZM171.625 235.926V243.391H170.326V235.926H171.625ZM167.51 243.623C170.08 243.623 171.666 244.457 171.666 245.879C171.666 247.314 170.08 248.148 167.51 248.135C164.926 248.148 163.34 247.314 163.34 245.879C163.34 244.457 164.926 243.623 167.51 243.623ZM167.51 244.648C165.691 244.648 164.652 245.1 164.652 245.879C164.652 246.686 165.691 247.137 167.51 247.137C169.328 247.137 170.381 246.686 170.381 245.879C170.381 245.1 169.328 244.648 167.51 244.648Z" fill="#111827"/>
<rect x="194" y="224" width="97" height="36" rx="12" fill="#E5E7EB"/>
<path d="M212.645 237.129V245.086H206.916V237.129H212.645ZM208.188 238.154V244.033H211.359V238.154H208.188ZM215.994 235.912V240.711H217.963V241.805H215.994V248.162H214.695V235.912H215.994ZM228.709 235.926V244.826H227.41V235.926H228.709ZM229.078 246.85V247.902H220.697V243.924H222.01V246.85H229.078ZM222.064 236.746C223.91 236.746 225.318 238.004 225.318 239.781C225.318 241.586 223.91 242.83 222.064 242.83C220.219 242.83 218.797 241.586 218.797 239.781C218.797 238.004 220.219 236.746 222.064 236.746ZM222.064 237.881C220.916 237.881 220.068 238.66 220.068 239.781C220.068 240.93 220.916 241.695 222.064 241.695C223.186 241.695 224.047 240.93 224.047 239.781C224.047 238.66 223.186 237.881 222.064 237.881ZM240.576 241.723V242.789H232.045V237.006H240.467V238.072H233.33V241.723H240.576ZM241.861 245.469V246.549H230.65V245.469H241.861ZM252.867 236.227V237.211H251.09V239.289H252.812V240.287H243.83V239.289H245.566V237.211H243.775V236.227H252.867ZM253.92 241.176V242.215H248.971V243.268H252.512V246.07H245.375V247.055H252.854V248.039H244.104V245.154H251.227V244.238H244.09V243.268H247.672V242.215H242.75V241.176H253.92ZM246.852 239.289H249.791V237.211H246.852V239.289ZM265.021 235.912V248.162H263.723V235.912H265.021ZM256.887 237.102V243.924C258.671 243.91 260.551 243.767 262.52 243.363L262.697 244.457C260.523 244.895 258.555 245.045 256.627 245.045H255.602V237.102H256.887ZM273.17 237.648C273.17 239.645 275.303 241.531 277.654 241.955L277.053 243.035C275.098 242.611 273.293 241.326 272.5 239.604C271.693 241.312 269.896 242.598 267.934 243.035L267.359 241.955C269.684 241.518 271.803 239.645 271.803 237.648V236.719H273.17V237.648ZM278.16 245.469V246.549H266.949V245.469H278.16Z" fill="#111827"/>
<path d="M16 276H359" stroke="#E5E7EB" stroke-width="2"/>
<rect x="17" y="289" width="108" height="34" rx="11" fill="white"/>
<rect x="17" y="289" width="108" height="34" rx="11" stroke="#F3F4F6" stroke-width="2"/>
<path d="M32.9629 303.521C32.9629 305.572 34.3027 307.691 36.1895 308.498L35.4785 309.51C34.0361 308.874 32.8877 307.527 32.3203 305.887C31.7529 307.637 30.5977 309.127 29.1758 309.824L28.4238 308.799C30.2695 307.938 31.6367 305.627 31.6504 303.521V302.223H28.8477V301.143H35.752V302.223H32.9629V303.521ZM38.5957 299.912V312.162H37.2969V299.912H38.5957ZM50.7637 307.773V312.162H49.4648V308.799H42.4648V307.773H50.7637ZM50.7637 299.912V307.131H49.4648V305.449H46.4434C45.876 306.119 44.9805 306.522 43.9414 306.516C42.0957 306.529 40.7285 305.299 40.7285 303.549C40.7285 301.826 42.0957 300.582 43.9414 300.596C44.9805 300.589 45.8691 300.992 46.4434 301.662H49.4648V299.912H50.7637ZM43.9414 301.689C42.793 301.689 41.9727 302.455 41.9727 303.549C41.9727 304.67 42.793 305.422 43.9414 305.422C45.0488 305.422 45.8828 304.67 45.8828 303.549C45.8828 302.455 45.0488 301.689 43.9414 301.689ZM47.0176 304.383H49.4648V302.729H47.0176C47.0859 302.988 47.127 303.262 47.127 303.549C47.127 303.843 47.0859 304.123 47.0176 304.383ZM66.2812 299.926V308.895H64.9824V304.287H62.6445V303.234H64.9824V299.926H66.2812ZM66.6094 310.85V311.902H58.3242V308.088H59.623V310.85H66.6094ZM60.457 302.4C60.457 303.932 61.5645 305.463 63.4102 306.078L62.7402 307.117C61.3662 306.632 60.3477 305.647 59.8145 304.438C59.2812 305.784 58.208 306.871 56.752 307.391L56.082 306.338C57.9688 305.695 59.1309 304.082 59.1309 302.4V301.922H56.4785V300.855H63.082V301.922H60.457V302.4ZM71.832 303.672C71.832 305.6 72.7207 307.568 74.416 308.471L73.6914 309.428C72.5088 308.799 71.6816 307.623 71.2441 306.229C70.7998 307.726 69.9795 309.011 68.7969 309.715L68.0312 308.73C69.7266 307.746 70.6016 305.654 70.6152 303.672V303.18H68.4004V302.113H70.6152V300.35H71.832V302.113H74.0059V303.18H71.832V303.672ZM78.6816 299.912V312.162H77.4375V299.912H78.6816ZM76.1934 300.172V311.547H74.9629V305.764H73.1992V304.684H74.9629V300.172H76.1934Z" fill="#1F2937"/>
<path d="M102.715 309.465C102.397 309.765 101.901 309.765 101.583 309.465L95.8047 304.006C95.2628 303.494 95.6251 302.583 96.3707 302.583L107.928 302.583C108.673 302.583 109.036 303.494 108.494 304.006L102.715 309.465Z" fill="#1F2937"/>
<rect x="135" y="289" width="108" height="34" rx="11" fill="white"/>
<rect x="135" y="289" width="108" height="34" rx="11" stroke="#F3F4F6" stroke-width="2"/>
<path d="M156.076 299.912V302.373H157.854V303.467H156.076V306.051H154.777V299.912H156.076ZM148.311 300.459V304.451C149.958 304.438 151.694 304.308 153.574 303.932L153.738 305.012C151.674 305.422 149.814 305.545 148.01 305.545H147.012V300.459H148.311ZM156.076 306.611V309.729H149.473V310.959H156.5V312.012H148.188V308.73H154.777V307.637H148.16V306.611H156.076ZM168.422 299.912V304.697H170.035V305.791H168.422V312.162H167.123V299.912H168.422ZM161.449 303.385C161.449 304.759 161.613 306.639 162.57 307.965C163.479 306.666 163.664 304.807 163.678 303.385V302.154H162.803V301.102H166.221V302.154H164.908V303.385C164.908 305.271 165.264 307.514 166.795 308.635L165.961 309.578C165.086 308.901 164.573 307.828 164.279 306.611C163.999 307.855 163.479 308.99 162.557 309.688C161.647 308.997 161.128 307.855 160.848 306.625C160.54 307.828 160.027 308.908 159.166 309.578L158.332 308.635C159.85 307.5 160.219 305.217 160.219 303.385V302.154H158.756V301.102H162.311V302.154H161.449V303.385ZM184.281 299.926V308.895H182.982V304.287H180.645V303.234H182.982V299.926H184.281ZM184.609 310.85V311.902H176.324V308.088H177.623V310.85H184.609ZM178.457 302.4C178.457 303.932 179.564 305.463 181.41 306.078L180.74 307.117C179.366 306.632 178.348 305.647 177.814 304.438C177.281 305.784 176.208 306.871 174.752 307.391L174.082 306.338C175.969 305.695 177.131 304.082 177.131 302.4V301.922H174.479V300.855H181.082V301.922H178.457V302.4ZM189.832 303.672C189.832 305.6 190.721 307.568 192.416 308.471L191.691 309.428C190.509 308.799 189.682 307.623 189.244 306.229C188.8 307.726 187.979 309.011 186.797 309.715L186.031 308.73C187.727 307.746 188.602 305.654 188.615 303.672V303.18H186.4V302.113H188.615V300.35H189.832V302.113H192.006V303.18H189.832V303.672ZM196.682 299.912V312.162H195.438V299.912H196.682ZM194.193 300.172V311.547H192.963V305.764H191.199V304.684H192.963V300.172H194.193Z" fill="#1F2937"/>
<path d="M220.715 309.465C220.397 309.765 219.901 309.765 219.583 309.465L213.805 304.006C213.263 303.494 213.625 302.583 214.371 302.583L225.928 302.583C226.673 302.583 227.036 303.494 226.494 304.006L220.715 309.465Z" fill="#1F2937"/>
<rect x="324" y="289" width="34" height="34" rx="11" fill="white"/>
<rect x="324" y="289" width="34" height="34" rx="11" stroke="#F3F4F6" stroke-width="2"/>
<path d="M332 305L336 301M336 301L340 305M336 301V311" stroke="#111827" stroke-width="1.8" stroke-linecap="round"/>
<path d="M350 307L346 311M346 311L342 307M346 311V301" stroke="#111827" stroke-width="1.8" stroke-linecap="round"/>
<rect x="15" y="339" width="345" height="318" rx="25" stroke="#F3F4F6" stroke-width="2"/>
<path d="M16 364C16 350.745 26.7452 340 40 340H335C348.255 340 359 350.745 359 364V632C359 645.255 348.255 656 335 656H40C26.7452 656 16 645.255 16 632V364Z" fill="white"/>
<circle cx="40.0007" cy="609.333" r="2.66667" fill="#374151"/>
<path fill-rule="evenodd" clip-rule="evenodd" d="M39.9998 612.667C37.5533 612.667 35.5465 614.28 35.3491 616.333C35.3314 616.517 35.4823 616.667 35.6664 616.667H44.3331C44.5172 616.667 44.6681 616.517 44.6505 616.333C44.453 614.28 42.4462 612.667 39.9998 612.667Z" fill="#374151"/>
<path d="M54.6348 607.102V617H53.1172V608.605H53.0625L50.6973 610.15V608.715L53.1582 607.102H54.6348ZM60.6094 617.137C58.4629 617.137 56.959 615.975 56.9727 614.361C56.959 613.09 57.875 612.051 59.0371 611.873V611.818C58.0254 611.586 57.3418 610.684 57.3418 609.604C57.3418 608.086 58.7227 606.965 60.6094 606.965C62.4824 606.965 63.8496 608.086 63.8633 609.604C63.8496 610.684 63.166 611.586 62.168 611.818V611.873C63.3164 612.051 64.2324 613.09 64.2461 614.361C64.2324 615.975 62.7285 617.137 60.6094 617.137ZM60.6094 615.893C61.8945 615.893 62.7148 615.223 62.7148 614.252C62.7148 613.227 61.8262 612.488 60.6094 612.488C59.3789 612.488 58.4766 613.227 58.5039 614.252C58.4766 615.223 59.2969 615.893 60.6094 615.893ZM60.6094 611.299C61.6484 611.299 62.3867 610.67 62.3867 609.74C62.3867 608.824 61.6621 608.195 60.6094 608.195C59.5156 608.195 58.8047 608.811 58.8047 609.74C58.8047 610.67 59.5566 611.299 60.6094 611.299ZM69.5918 606.637L66.4062 618.49H65.1074L68.293 606.637H69.5918ZM70.6582 617V615.906L74.0898 612.447C75.1699 611.312 75.7168 610.684 75.7168 609.822C75.7168 608.852 74.9238 608.223 73.8848 608.223C72.791 608.223 72.0801 608.92 72.0801 609.973H70.6582C70.6445 608.168 72.0254 606.965 73.9121 606.965C75.8262 606.965 77.1387 608.168 77.1523 609.781C77.1387 610.889 76.6191 611.764 74.7598 613.596L72.75 615.633V615.715H77.3164V617H70.6582ZM82.4297 617.137C80.1328 617.137 78.793 615.291 78.793 612.051C78.793 608.838 80.1602 606.965 82.4297 606.965C84.6992 606.965 86.0664 608.838 86.0664 612.051C86.0664 615.291 84.7129 617.137 82.4297 617.137ZM82.4297 615.838C83.7695 615.838 84.5625 614.525 84.5625 612.051C84.5625 609.59 83.7559 608.236 82.4297 608.236C81.1035 608.236 80.2969 609.59 80.2969 612.051C80.2969 614.525 81.0898 615.838 82.4297 615.838Z" fill="#374151"/>
<circle cx="107" cy="612" r="9" fill="#68BA95"/>
<path d="M103.5 611.825L106.009 614.333L110.342 610" stroke="white" stroke-width="1.8" stroke-linecap="round" stroke-linejoin="round"/>
<path d="M133.938 605.912V618.162H132.693V611.805H131.176V617.574H129.959V606.24H131.176V610.752H132.693V605.912H133.938ZM128.742 607.471C128.729 610.697 127.662 613.582 124.162 615.564L123.41 614.662C126.131 613.124 127.279 611.039 127.484 608.537H123.93V607.471H128.742ZM145.764 605.912V612.215H144.465V609.07H141.881V608.018H144.465V605.912H145.764ZM145.764 612.789V615.838H139.051V616.973H146.188V618.012H137.779V614.854H144.479V613.814H137.752V612.789H145.764ZM139.857 607.375C139.857 608.934 140.979 610.383 142.824 610.971L142.141 611.982C140.794 611.518 139.775 610.595 139.242 609.426C138.702 610.738 137.649 611.771 136.207 612.27L135.51 611.23C137.424 610.615 138.559 609.098 138.572 607.375V606.309H139.857V607.375ZM157.289 605.926V609.562H159.039V610.629H157.289V614.17H155.99V605.926H157.289ZM147.568 612.803C148.519 612.803 149.619 612.803 150.768 612.762V611.941C149.373 611.798 148.484 611.142 148.498 610.15C148.484 609.029 149.646 608.332 151.41 608.346C153.16 608.332 154.322 609.029 154.322 610.15C154.322 611.135 153.447 611.791 152.066 611.941V612.721C153.16 612.666 154.268 612.577 155.293 612.434L155.402 613.363C152.764 613.828 149.865 613.842 147.705 613.842L147.568 612.803ZM157.289 614.744V618.162H155.99V615.756H149.1V614.744H157.289ZM154.951 606.965V607.936H147.883V606.965H150.768V605.816H152.066V606.965H154.951ZM151.41 609.234C150.357 609.221 149.729 609.562 149.729 610.15C149.729 610.725 150.357 611.094 151.41 611.094C152.449 611.094 153.078 610.725 153.078 610.15C153.078 609.562 152.449 609.221 151.41 609.234ZM169.963 605.912V613.199H168.664V610.096H166.381V609.029H168.664V605.912H169.963ZM165.861 613.541C168.432 613.541 170.004 614.389 170.004 615.852C170.004 617.314 168.432 618.148 165.861 618.162C163.291 618.148 161.705 617.314 161.719 615.852C161.705 614.389 163.291 613.541 165.861 613.541ZM165.861 614.553C164.07 614.553 163.004 615.018 163.004 615.852C163.004 616.672 164.07 617.15 165.861 617.137C167.652 617.15 168.719 616.672 168.719 615.852C168.719 615.018 167.652 614.553 165.861 614.553ZM164.139 608.072C164.139 609.631 165.246 611.135 167.092 611.764L166.422 612.789C165.048 612.311 164.036 611.333 163.51 610.123C162.97 611.497 161.896 612.598 160.434 613.131L159.75 612.092C161.65 611.436 162.812 609.781 162.812 608.086V607.812H160.16V606.76H166.764V607.812H164.139V608.072Z" fill="#68BA95"/>
<rect x="32" y="632" width="197" height="4" rx="2" fill="#F1FAF6"/>
<rect x="32" y="632" width="145.926" height="4" rx="2" fill="#34B17B"/>
<path d="M253.953 621.516H255.953V630.484C255.953 632.312 254.875 633.188 253 633.188C252.875 633.188 252.75 633.188 252.594 633.172V631.547C252.703 631.562 252.797 631.562 252.891 631.562C253.656 631.562 253.953 631.172 253.953 630.469V621.516ZM254.953 620.312C254.328 620.312 253.797 619.828 253.797 619.219C253.797 618.625 254.328 618.141 254.953 618.141C255.594 618.141 256.109 618.625 256.109 619.219C256.109 619.828 255.594 620.312 254.953 620.312ZM261.562 630.172C259.094 630.172 257.5 628.422 257.5 625.797C257.5 623.156 259.094 621.406 261.562 621.406C264.047 621.406 265.625 623.156 265.625 625.797C265.625 628.422 264.047 630.172 261.562 630.172ZM261.578 628.578C262.938 628.578 263.609 627.344 263.609 625.781C263.609 624.234 262.938 622.984 261.578 622.984C260.188 622.984 259.516 624.234 259.516 625.781C259.516 627.344 260.188 628.578 261.578 628.578ZM267.172 630V621.516H269.172V630H267.172ZM268.188 620.312C267.562 620.312 267.031 619.828 267.031 619.219C267.031 618.625 267.562 618.141 268.188 618.141C268.828 618.141 269.344 618.625 269.344 619.219C269.344 619.828 268.828 620.312 268.188 620.312ZM273.078 625.031V630H271.078V621.516H272.984V622.953H273.094C273.484 622 274.344 621.406 275.609 621.406C277.375 621.406 278.531 622.562 278.516 624.594V630H276.531V624.906C276.531 623.766 275.922 623.094 274.875 623.094C273.812 623.094 273.078 623.797 273.078 625.031ZM286.219 625.031V630H284.219V621.516H286.125V622.953H286.234C286.625 622 287.484 621.406 288.75 621.406C290.516 621.406 291.672 622.562 291.656 624.594V630H289.672V624.906C289.672 623.766 289.062 623.094 288.016 623.094C286.953 623.094 286.219 623.797 286.219 625.031ZM297.266 630.172C294.797 630.172 293.203 628.422 293.203 625.797C293.203 623.156 294.797 621.406 297.266 621.406C299.75 621.406 301.328 623.156 301.328 625.797C301.328 628.422 299.75 630.172 297.266 630.172ZM297.281 628.578C298.641 628.578 299.312 627.344 299.312 625.781C299.312 624.234 298.641 622.984 297.281 622.984C295.891 622.984 295.219 624.234 295.219 625.781C295.219 627.344 295.891 628.578 297.281 628.578ZM304.406 630L302 621.516H304.031L305.531 627.484H305.609L307.125 621.516H309.141L310.672 627.453H310.75L312.234 621.516H314.266L311.859 630H309.781L308.188 624.25H308.078L306.484 630H304.406Z" fill="#34B17B"/>
<path d="M326 624H337.625M337.625 624L331.25 617.625M337.625 624L331.25 630.375" stroke="#34B17B" stroke-width="1.5" stroke-linecap="round" stroke-linejoin="round"/>
<g clip-path="url(#clip6_523_12557)">
<path d="M-18 304H360V509H-18V304Z" fill="#E8E8E8"/>
<path d="M236 340H339C350.046 340 359 348.954 359 360V372H248C241.373 372 236 366.627 236 360V340Z" fill="#34B17B"/>
<path d="M250.667 349L249 350.667" stroke="white" stroke-width="1.66667" stroke-linecap="round"/>
<path d="M262.333 349L264 350.667" stroke="white" stroke-width="1.66667" stroke-linecap="round"/>
<path fill-rule="evenodd" clip-rule="evenodd" d="M256.501 362.333C260.183 362.333 263.167 359.349 263.167 355.667C263.167 351.985 260.183 349 256.501 349C252.819 349 249.834 351.985 249.834 355.667C249.834 359.349 252.819 362.333 256.501 362.333ZM258.819 354.104C259.106 353.744 259.048 353.22 258.688 352.932C258.329 352.645 257.805 352.703 257.517 353.062L256.328 354.549L254.463 353.306C254.08 353.051 253.563 353.155 253.308 353.537C253.053 353.92 253.156 354.438 253.539 354.693L255.88 356.254C256.33 356.554 256.934 356.46 257.271 356.038L258.819 354.104Z" fill="white"/>
<path d="M277.168 351.129C279.418 351.141 281.047 352.242 281.047 353.918C281.047 355.494 279.682 356.531 277.719 356.695V358.758H281.996V359.684H272.387V358.758H276.617V356.695C274.666 356.531 273.301 355.494 273.301 353.918C273.301 352.242 274.93 351.141 277.168 351.129ZM277.168 352.043C275.551 352.031 274.379 352.781 274.379 353.918C274.379 355.102 275.551 355.828 277.168 355.84C278.797 355.828 279.969 355.102 279.969 353.918C279.969 352.781 278.797 352.031 277.168 352.043ZM291.23 352.887V353.789H284.023V350.648H285.113V352.887H291.23ZM292.355 354.715V355.605H282.746V354.715H292.355ZM291.148 356.449V359.016H285.055V359.988H291.512V360.867H283.941V358.195H290.047V357.316H283.918V356.449H291.148ZM296.422 360V359.062L299.363 356.098C300.289 355.125 300.758 354.586 300.758 353.848C300.758 353.016 300.078 352.477 299.188 352.477C298.25 352.477 297.641 353.074 297.641 353.977H296.422C296.41 352.43 297.594 351.398 299.211 351.398C300.852 351.398 301.977 352.43 301.988 353.812C301.977 354.762 301.531 355.512 299.938 357.082L298.215 358.828V358.898H302.129V360H296.422ZM306.781 351.516V360H305.48V352.805H305.434L303.406 354.129V352.898L305.516 351.516H306.781ZM312.43 353.168C312.418 355.09 313.578 357.012 315.207 357.738L314.539 358.617C313.332 358.043 312.377 356.865 311.891 355.43C311.398 356.965 310.432 358.236 309.172 358.852L308.492 357.914C310.145 357.176 311.305 355.172 311.305 353.168V351.375H312.43V353.168ZM317.27 350.496V361.02H316.156V350.496H317.27ZM327.184 351.539V358.359H322.273V351.539H327.184ZM323.363 352.418V357.457H326.082V352.418H323.363ZM330.055 350.496V354.609H331.742V355.547H330.055V360.996H328.941V350.496H330.055ZM340.496 350.496V352.969H342.02V353.895H340.496V356.426H339.383V350.496H340.496ZM337.602 351.152C337.59 353.848 335.773 355.734 332.645 356.578L332.199 355.688C334.707 355.025 336.189 353.707 336.395 352.066H332.691V351.152H337.602ZM340.496 356.871V360.855H333.77V356.871H340.496ZM334.883 357.797V359.965H339.395V357.797H334.883Z" fill="white"/>
</g>
<rect width="343" height="60" transform="translate(16 512)" fill="white"/>
<path d="M36.9395 518.57C38.2227 518.57 39.3301 519.045 40.0859 519.836H43.8828V517.674H45.834V527.025H43.8828V525.004H40.0859C39.3301 525.795 38.2139 526.261 36.9395 526.252C34.5488 526.27 32.7383 524.652 32.7383 522.42C32.7383 520.17 34.5488 518.57 36.9395 518.57ZM36.9395 520.24C35.5684 520.24 34.6016 521.084 34.6016 522.42C34.6016 523.721 35.5684 524.6 36.9395 524.6C38.2578 524.6 39.2246 523.721 39.2422 522.42C39.2246 521.084 38.2578 520.24 36.9395 520.24ZM40.4551 527.359C43.7949 527.359 45.8867 528.502 45.8867 530.453C45.8867 532.404 43.7949 533.547 40.4551 533.547C37.1328 533.547 35.041 532.404 35.0586 530.453C35.041 528.502 37.1328 527.359 40.4551 527.359ZM40.4551 528.854C38.2402 528.854 36.957 529.416 36.9746 530.453C36.957 531.455 38.2402 532.018 40.4551 532.018C42.7051 532.018 43.9707 531.455 43.9707 530.453C43.9707 529.416 42.7051 528.854 40.4551 528.854ZM40.9648 521.4C41.0527 521.726 41.1055 522.06 41.1055 522.42C41.1055 522.771 41.0527 523.105 40.9824 523.422H43.8828V521.4H40.9648ZM53.6738 522.719C53.6738 525.074 55.0098 527.641 57.4531 528.801L56.3633 530.277C54.6494 529.478 53.4014 527.904 52.7422 526.041C52.0391 528.045 50.7295 529.741 48.9102 530.559L47.8379 529.047C50.334 527.922 51.7402 525.215 51.7402 522.719V521.893H48.3477V520.328H51.7402V518.008H53.6914V520.328H57.0312V521.893H53.6738V522.719ZM60.5293 517.674V523.967H62.9727V525.602H60.5293V533.564H58.5781V517.674H60.5293ZM68.0527 518.57C69.3359 518.57 70.4434 519.045 71.1992 519.836H74.9961V517.674H76.9473V527.025H74.9961V525.004H71.1992C70.4434 525.795 69.3271 526.261 68.0527 526.252C65.6621 526.27 63.8516 524.652 63.8516 522.42C63.8516 520.17 65.6621 518.57 68.0527 518.57ZM68.0527 520.24C66.6816 520.24 65.7148 521.084 65.7148 522.42C65.7148 523.721 66.6816 524.6 68.0527 524.6C69.3711 524.6 70.3379 523.721 70.3555 522.42C70.3379 521.084 69.3711 520.24 68.0527 520.24ZM71.5684 527.359C74.9082 527.359 77 528.502 77 530.453C77 532.404 74.9082 533.547 71.5684 533.547C68.2461 533.547 66.1543 532.404 66.1719 530.453C66.1543 528.502 68.2461 527.359 71.5684 527.359ZM71.5684 528.854C69.3535 528.854 68.0703 529.416 68.0879 530.453C68.0703 531.455 69.3535 532.018 71.5684 532.018C73.8184 532.018 75.084 531.455 75.084 530.453C75.084 529.416 73.8184 528.854 71.5684 528.854ZM72.0781 521.4C72.166 521.726 72.2188 522.06 72.2188 522.42C72.2188 522.771 72.166 523.105 72.0957 523.422H74.9961V521.4H72.0781ZM84.7871 522.719C84.7871 525.074 86.123 527.641 88.5664 528.801L87.4766 530.277C85.7627 529.478 84.5146 527.904 83.8555 526.041C83.1523 528.045 81.8428 529.741 80.0234 530.559L78.9512 529.047C81.4473 527.922 82.8535 525.215 82.8535 522.719V521.893H79.4609V520.328H82.8535V518.008H84.8047V520.328H88.1445V521.893H84.7871V522.719ZM91.6426 517.674V523.967H94.0859V525.602H91.6426V533.564H89.6914V517.674H91.6426ZM113.527 525.039V526.639H99.0254V525.039H113.527ZM111.857 522.227V523.791H100.801V518.184H111.77V519.766H102.752V522.227H111.857ZM106.25 527.746C109.678 527.729 111.734 528.783 111.752 530.629C111.734 532.492 109.678 533.547 106.25 533.547C102.787 533.547 100.713 532.492 100.713 530.629C100.713 528.783 102.787 527.729 106.25 527.746ZM106.25 529.24C103.93 529.24 102.682 529.732 102.699 530.629C102.682 531.561 103.93 532.035 106.25 532.035C108.518 532.035 109.783 531.561 109.801 530.629C109.783 529.732 108.518 529.24 106.25 529.24ZM120.277 520.486C120.26 522.578 121.578 524.564 124.074 525.373L123.055 526.92C121.288 526.322 120.04 525.127 119.346 523.598C118.634 525.285 117.324 526.604 115.479 527.254L114.389 525.707C117.008 524.863 118.309 522.719 118.309 520.469V518.658H120.277V520.486ZM127.115 517.674V522.367H129.33V524.02H127.115V529.346H125.164V517.674H127.115ZM127.748 531.666V533.248H116.938V528.203H118.941V531.666H127.748ZM142.584 517.674V524.002H145.027V525.619H142.584V533.564H140.65V517.674H142.584ZM139.42 520.117V521.682H130.051V520.117H133.812V517.902H135.764V520.117H139.42ZM134.797 522.719C137.082 522.719 138.787 524.266 138.787 526.463C138.787 528.66 137.082 530.189 134.797 530.189C132.477 530.189 130.771 528.66 130.789 526.463C130.771 524.266 132.477 522.719 134.797 522.719ZM134.797 524.318C133.549 524.318 132.652 525.162 132.652 526.463C132.652 527.764 133.549 528.59 134.797 528.572C136.01 528.59 136.906 527.764 136.924 526.463C136.906 525.162 136.01 524.318 134.797 524.318ZM151.391 522.191C151.391 524.652 152.85 527.447 155.363 528.607L154.273 530.154C152.48 529.311 151.153 527.605 150.441 525.619C149.721 527.799 148.332 529.662 146.504 530.541L145.361 529.012C147.893 527.816 149.422 524.828 149.439 522.191V520.855H145.977V519.238H154.713V520.855H151.391V522.191ZM158.141 517.674V523.861H160.584V525.496H158.141V533.564H156.189V517.674H158.141Z" fill="#1F2937"/>
<path d="M173.096 517.48V533.793H171.004V517.48H173.096Z" fill="#111827"/>
<path d="M189.029 520.117C191.791 520.117 193.404 520.855 193.404 522.223C193.404 523.59 191.791 524.342 189.029 524.342C186.268 524.342 184.654 523.59 184.654 522.223C184.654 520.855 186.268 520.117 189.029 520.117ZM189.029 521.074C187.074 521.074 185.994 521.498 186.008 522.223C185.994 522.975 187.074 523.371 189.029 523.371C190.984 523.371 192.064 522.975 192.064 522.223C192.064 521.498 190.984 521.074 189.029 521.074ZM194.621 525.094V526.133H183.451V525.094H194.621ZM193.213 527.076V529.947H186.076V531.041H193.555V532.039H184.805V529.004H191.928V528.047H184.791V527.076H193.213ZM200.062 523.521C200.062 525.572 201.402 527.691 203.289 528.498L202.578 529.51C201.136 528.874 199.987 527.527 199.42 525.887C198.853 527.637 197.697 529.127 196.275 529.824L195.523 528.799C197.369 527.938 198.736 525.627 198.75 523.521V522.223H195.947V521.143H202.852V522.223H200.062V523.521ZM205.695 519.912V532.162H204.396V519.912H205.695ZM218.861 529.605V530.699H207.65V529.605H212.586V527.459H209.018V523.562H216.209V521.84H208.99V520.773H217.494V524.602H210.303V526.393H217.781V527.459H213.871V529.605H218.861ZM227.105 531.137C225.055 531.137 223.592 530.029 223.537 528.416H225.068C225.123 529.291 225.984 529.838 227.092 529.838C228.281 529.838 229.156 529.182 229.156 528.225C229.156 527.254 228.336 526.543 226.928 526.543H226.08V525.312H226.928C228.049 525.312 228.842 524.684 228.842 523.74C228.842 522.838 228.172 522.223 227.119 522.223C226.121 522.223 225.246 522.77 225.205 523.672H223.756C223.797 522.059 225.287 520.965 227.133 520.965C229.074 520.965 230.305 522.195 230.291 523.658C230.305 524.779 229.607 525.6 228.541 525.859V525.928C229.895 526.119 230.674 527.021 230.674 528.279C230.674 529.934 229.156 531.137 227.105 531.137ZM241.447 519.912V524.793H243.348V525.873H241.447V532.148H240.148V519.912H241.447ZM238.248 521.197C238.234 524.738 236.676 527.896 232.643 529.893L231.918 528.881C234.987 527.35 236.655 525.135 236.922 522.277H232.533V521.197H238.248Z" fill="#374151"/>
<rect x="32" y="548" width="58" height="24" rx="4" fill="#111827"/>
<path d="M44.6348 555.102V565H43.1172V556.605H43.0625L40.6973 558.15V556.715L43.1582 555.102H44.6348ZM56.9121 553.926V561.104H55.6133V560.516H53.2207V559.695H55.6133V553.926H56.9121ZM46.6992 558.438C49.0645 558.451 52.0723 558.424 54.7109 558.137L54.7793 558.971C53.624 559.128 52.4277 559.224 51.252 559.285V561.131H49.9668V559.34C48.8594 559.367 47.8066 559.374 46.8496 559.367L46.6992 558.438ZM56.9121 561.514V564.152H49.8574V565.096H57.2812V566.039H48.5859V563.291H55.627V562.416H48.5312V561.514H56.9121ZM50.6777 554.131C52.4961 554.131 53.7266 554.855 53.7402 555.977C53.7266 557.125 52.4961 557.809 50.6777 557.809C48.8184 557.809 47.6016 557.125 47.6152 555.977C47.6016 554.855 48.8184 554.131 50.6777 554.131ZM50.6777 555.006C49.543 555.006 48.832 555.389 48.832 555.977C48.832 556.564 49.543 556.934 50.6777 556.934C51.7852 556.934 52.5098 556.564 52.5098 555.977C52.5098 555.389 51.7852 555.006 50.6777 555.006ZM63.0098 565L67.4258 556.469V556.387H62.3262V555.102H68.9844V556.441L64.582 565H63.0098ZM73.5508 554.322C75.3965 554.336 76.75 555.471 76.7637 557.07C76.75 558.684 75.3965 559.805 73.5508 559.805C71.6914 559.805 70.3242 558.684 70.3242 557.07C70.3242 555.471 71.6914 554.336 73.5508 554.322ZM73.5508 555.416C72.416 555.402 71.582 556.072 71.5957 557.07C71.582 558.082 72.416 558.752 73.5508 558.752C74.6719 558.752 75.5059 558.082 75.5059 557.07C75.5059 556.072 74.6719 555.402 73.5508 555.416ZM80.2363 553.912V560.146H78.9375V553.912H80.2363ZM80.2363 560.707V563.797H73.4824V564.973H80.6465V566.012H72.2246V562.826H78.9512V561.746H72.1836V560.707H80.2363Z" fill="white"/>
<rect x="98" y="548" width="51" height="24" rx="4" fill="#111827"/>
<path d="M110.635 555.102V565H109.117V556.605H109.062L106.697 558.15V556.715L109.158 555.102H110.635ZM113.492 565L117.908 556.469V556.387H112.809V555.102H119.467V556.441L115.064 565H113.492ZM121.49 563.729C120.957 563.729 120.506 563.291 120.52 562.758C120.506 562.225 120.957 561.787 121.49 561.787C122.01 561.787 122.461 562.225 122.461 562.758C122.461 563.291 122.01 563.729 121.49 563.729ZM121.49 558.328C120.957 558.328 120.506 557.891 120.52 557.357C120.506 556.824 120.957 556.387 121.49 556.387C122.01 556.387 122.461 556.824 122.461 557.357C122.461 557.891 122.01 558.328 121.49 558.328ZM127.725 565.137C125.674 565.137 124.211 564.029 124.156 562.416H125.688C125.742 563.291 126.604 563.838 127.711 563.838C128.9 563.838 129.775 563.182 129.775 562.225C129.775 561.254 128.955 560.543 127.547 560.543H126.699V559.312H127.547C128.668 559.312 129.461 558.684 129.461 557.74C129.461 556.838 128.791 556.223 127.738 556.223C126.74 556.223 125.865 556.77 125.824 557.672H124.375C124.416 556.059 125.906 554.965 127.752 554.965C129.693 554.965 130.924 556.195 130.91 557.658C130.924 558.779 130.227 559.6 129.16 559.859V559.928C130.514 560.119 131.293 561.021 131.293 562.279C131.293 563.934 129.775 565.137 127.725 565.137ZM136.393 565.137C134.096 565.137 132.756 563.291 132.756 560.051C132.756 556.838 134.123 554.965 136.393 554.965C138.662 554.965 140.029 556.838 140.029 560.051C140.029 563.291 138.676 565.137 136.393 565.137ZM136.393 563.838C137.732 563.838 138.525 562.525 138.525 560.051C138.525 557.59 137.719 556.236 136.393 556.236C135.066 556.236 134.26 557.59 134.26 560.051C134.26 562.525 135.053 563.838 136.393 563.838Z" fill="#34B17B"/>
<circle cx="319" cy="536" r="23" fill="white" stroke="#E5E7EB" stroke-width="2"/>
<path d="M311.451 537.908L318.403 544.439C318.643 544.664 318.763 544.777 318.904 544.805C318.967 544.817 319.033 544.817 319.096 544.805C319.237 544.777 319.357 544.664 319.597 544.439L326.549 537.908C328.506 536.071 328.743 533.047 327.098 530.926L326.788 530.527C324.82 527.991 320.87 528.416 319.487 531.314C319.291 531.723 318.709 531.723 318.513 531.314C317.13 528.416 313.18 527.991 311.212 530.527L310.902 530.926C309.257 533.047 309.494 536.071 311.451 537.908Z" stroke="#9CA3AF" stroke-width="2"/>
</g>
<defs>
<clipPath id="clip0_523_12557">
<rect width="375" height="667" rx="20" fill="white"/>
</clipPath>
<clipPath id="clip1_523_12557">
<path d="M0 0H375V56H0V0Z" fill="white"/>
</clipPath>
<clipPath id="clip2_523_12557">
<rect width="56" height="27" fill="white" transform="translate(16 14.5)"/>
</clipPath>
<clipPath id="clip3_523_12557">
<rect width="40" height="40" fill="white" transform="translate(319 8)"/>
</clipPath>
<clipPath id="clip4_523_12557">
<rect width="24" height="24" fill="white" transform="translate(67 178)"/>
</clipPath>
<clipPath id="clip5_523_12557">
<rect width="24" height="24" fill="white" transform="translate(154 178)"/>
</clipPath>
<clipPath id="clip6_523_12557">
<path d="M16 364C16 350.745 26.7452 340 40 340H335C348.255 340 359 350.745 359 364V496H16V364Z" fill="white"/>
</clipPath>
</defs>
</svg>
