<svg width="47" height="17" viewBox="0 0 47 17" fill="none" xmlns="http://www.w3.org/2000/svg">
<path d="M11.263 14.8089C11.263 15.1909 11.1562 15.4773 10.9428 15.6683C10.7406 15.8593 10.4485 15.9548 10.0665 15.9548C9.68451 15.9548 9.38679 15.8593 9.17333 15.6683C8.97111 15.4773 8.87 15.1909 8.87 14.8089V7.93333H7.58926C7.54432 8.64111 7.44883 9.28148 7.30278 9.85444C7.15673 10.4274 6.93766 10.9105 6.64556 11.3037C6.36469 11.6969 6.0108 12.0002 5.58389 12.2137C5.15698 12.4272 4.6458 12.5339 4.05037 12.5339C3.38753 12.5339 2.8258 12.4047 2.36519 12.1463C1.90457 11.8767 1.52821 11.5003 1.23611 11.0172C0.955248 10.5341 0.753026 9.94994 0.629446 9.26463C0.505866 8.56809 0.444076 7.7929 0.444076 6.93907C0.444076 6.08525 0.505866 5.31568 0.629446 4.63037C0.753026 3.93383 0.955248 3.34401 1.23611 2.86093C1.52821 2.37784 1.90457 2.0071 2.36519 1.7487C2.8258 1.47907 3.38753 1.34426 4.05037 1.34426C4.63457 1.34426 5.14012 1.45099 5.56704 1.66444C5.99395 1.86667 6.34784 2.16438 6.62871 2.55759C6.90957 2.93957 7.12303 3.41142 7.26908 3.97315C7.42636 4.52364 7.53309 5.14716 7.58926 5.8437H8.87V2.11944C8.87 1.73747 8.97111 1.45099 9.17333 1.26C9.38679 1.06901 9.68451 0.973519 10.0665 0.973519C10.4485 0.973519 10.7406 1.06901 10.9428 1.26C11.1562 1.45099 11.263 1.73747 11.263 2.11944V14.8089ZM14.5828 15.2807C14.5828 15.6627 14.4761 15.9492 14.2626 16.1402C14.0491 16.3424 13.7514 16.4435 13.3694 16.4435C12.9875 16.4435 12.6898 16.3424 12.4763 16.1402C12.2628 15.9492 12.1561 15.6627 12.1561 15.2807V1.96778C12.1561 1.5858 12.2628 1.29932 12.4763 1.10833C12.6898 0.906111 12.9875 0.805 13.3694 0.805C13.7514 0.805 14.0491 0.906111 14.2626 1.10833C14.4761 1.29932 14.5828 1.5858 14.5828 1.96778V15.2807ZM2.78648 6.93907C2.78648 8.02883 2.87636 8.87704 3.05611 9.4837C3.23587 10.0791 3.56729 10.3769 4.05037 10.3769C4.53346 10.3769 4.86488 10.0791 5.04463 9.4837C5.22438 8.87704 5.31426 8.02883 5.31426 6.93907C5.31426 5.84932 5.22438 5.00673 5.04463 4.4113C4.86488 3.80463 4.53346 3.5013 4.05037 3.5013C3.56729 3.5013 3.23587 3.80463 3.05611 4.4113C2.87636 5.00673 2.78648 5.84932 2.78648 6.93907ZM17.2576 2.67556C17.2576 2.29358 17.37 2.0071 17.5947 1.81611C17.8306 1.61389 18.1395 1.51278 18.5215 1.51278C18.9035 1.51278 19.2068 1.61389 19.4315 1.81611C19.6674 2.0071 19.7854 2.29358 19.7854 2.67556V5.03482H22.6839V2.67556C22.6839 2.29358 22.7963 2.0071 23.0209 1.81611C23.2569 1.61389 23.5658 1.51278 23.9478 1.51278C24.3298 1.51278 24.6331 1.61389 24.8578 1.81611C25.0937 2.0071 25.2117 2.29358 25.2117 2.67556V5.64148H27.8237V2.03519C27.8237 1.64198 27.9473 1.33864 28.1945 1.12519C28.4529 0.911729 28.7787 0.805 29.1719 0.805C29.5651 0.805 29.8853 0.911729 30.1324 1.12519C30.3908 1.33864 30.52 1.64198 30.52 2.03519V15.2133C30.52 15.6065 30.3908 15.9099 30.1324 16.1233C29.8853 16.3368 29.5651 16.4435 29.1719 16.4435C28.7787 16.4435 28.4529 16.3368 28.1945 16.1233C27.9473 15.9099 27.8237 15.6065 27.8237 15.2133V7.88278H25.2117V10.7644C25.2117 11.8767 24.65 12.4328 23.5265 12.4328H18.9428C17.8193 12.4328 17.2576 11.8767 17.2576 10.7644V2.67556ZM19.7854 7.22556V9.9387C19.7854 10.0623 19.8022 10.1465 19.8359 10.1915C19.8697 10.2252 19.9483 10.242 20.0719 10.242H22.3974C22.521 10.242 22.5997 10.2252 22.6334 10.1915C22.6671 10.1465 22.6839 10.0623 22.6839 9.9387V7.22556H19.7854ZM43.8155 2.03519C43.8155 1.64198 43.9391 1.33864 44.1862 1.12519C44.4446 0.911729 44.7704 0.805 45.1636 0.805C45.5568 0.805 45.877 0.911729 46.1242 1.12519C46.3826 1.33864 46.5118 1.64198 46.5118 2.03519V8.69167C46.5118 9.08488 46.3826 9.38821 46.1242 9.60167C45.877 9.81512 45.5568 9.92185 45.1636 9.92185C44.7704 9.92185 44.4446 9.81512 44.1862 9.60167C43.9391 9.38821 43.8155 9.08488 43.8155 8.69167V2.03519ZM41.0012 10.1746C41.8101 10.1746 42.5516 10.2364 43.2257 10.36C43.911 10.4723 44.4952 10.6577 44.9783 10.9161C45.4613 11.1745 45.8377 11.5059 46.1073 11.9104C46.377 12.3148 46.5118 12.8091 46.5118 13.3933C46.5118 13.9775 46.377 14.4719 46.1073 14.8763C45.8377 15.2807 45.4613 15.6122 44.9783 15.8706C44.4952 16.129 43.911 16.3143 43.2257 16.4267C42.5516 16.5502 41.8101 16.612 41.0012 16.612C40.1923 16.612 39.4452 16.5502 38.7599 16.4267C38.0858 16.3143 37.5073 16.129 37.0242 15.8706C36.5411 15.6122 36.1647 15.2807 35.8951 14.8763C35.6255 14.4719 35.4907 13.9775 35.4907 13.3933C35.4907 12.8091 35.6255 12.3148 35.8951 11.9104C36.1647 11.5059 36.5411 11.1745 37.0242 10.9161C37.5073 10.6577 38.0858 10.4723 38.7599 10.36C39.4452 10.2364 40.1923 10.1746 41.0012 10.1746ZM41.0012 14.5561C41.3495 14.5561 41.6921 14.5393 42.0292 14.5056C42.3662 14.4719 42.6639 14.4101 42.9223 14.3202C43.192 14.2303 43.4054 14.1123 43.5627 13.9663C43.7312 13.809 43.8155 13.618 43.8155 13.3933C43.8155 13.1686 43.7312 12.9833 43.5627 12.8372C43.4054 12.6799 43.192 12.5564 42.9223 12.4665C42.6639 12.3766 42.3662 12.3148 42.0292 12.2811C41.6921 12.2474 41.3495 12.2306 41.0012 12.2306C40.6529 12.2306 40.3103 12.2474 39.9733 12.2811C39.6362 12.3148 39.3329 12.3766 39.0633 12.4665C38.8049 12.5564 38.5914 12.6799 38.4229 12.8372C38.2656 12.9833 38.187 13.1686 38.187 13.3933C38.187 13.618 38.2656 13.809 38.4229 13.9663C38.5914 14.1123 38.8049 14.2303 39.0633 14.3202C39.3329 14.4101 39.6362 14.4719 39.9733 14.5056C40.3103 14.5393 40.6529 14.5561 41.0012 14.5561ZM41.7258 8.9613C40.872 9.08488 40.035 9.17475 39.2149 9.23093C38.406 9.27586 37.541 9.29833 36.6197 9.29833H35.3221C34.7492 9.29833 34.3335 9.17475 34.0751 8.92759C33.8167 8.6692 33.6875 8.26475 33.6875 7.71426V5.7763C33.6875 5.2258 33.8167 4.82136 34.0751 4.56296C34.3335 4.30457 34.7492 4.17537 35.3221 4.17537H38.6925C38.8386 4.17537 38.9116 4.10235 38.9116 3.9563V3.34963C38.9116 3.25975 38.8947 3.20358 38.861 3.18111C38.8386 3.15864 38.7824 3.14741 38.6925 3.14741H34.9345C34.5975 3.14741 34.3166 3.06315 34.092 2.89463C33.8785 2.71488 33.7718 2.4621 33.7718 2.1363C33.7718 1.79926 33.8785 1.54648 34.092 1.37796C34.3166 1.19821 34.5975 1.10833 34.9345 1.10833H39.8047C40.3889 1.10833 40.8046 1.23191 41.0518 1.47907C41.3102 1.72624 41.4394 2.1363 41.4394 2.70926V4.52926C41.4394 5.10222 41.3102 5.5179 41.0518 5.7763C40.8046 6.02346 40.3889 6.14704 39.8047 6.14704H36.4175C36.3276 6.14704 36.2715 6.15827 36.249 6.18074C36.2265 6.20321 36.2153 6.25938 36.2153 6.34926V7.10759C36.2153 7.19747 36.2265 7.25364 36.249 7.27611C36.2715 7.29858 36.3276 7.30982 36.4175 7.30982H37.0579C37.8331 7.30982 38.5802 7.28173 39.2992 7.22556C40.0182 7.16938 40.7147 7.09074 41.3888 6.98963C41.7146 6.93346 41.9955 6.96154 42.2314 7.07389C42.4673 7.18623 42.619 7.41093 42.6864 7.74796C42.7538 8.085 42.692 8.36025 42.501 8.5737C42.31 8.77593 42.0516 8.90512 41.7258 8.9613Z" fill="black"/>
</svg>
